<?xml version="1.0" encoding="utf-8" standalone="no"?>
<!DOCTYPE svg PUBLIC "-//W3C//DTD SVG 1.1//EN"
  "http://www.w3.org/Graphics/SVG/1.1/DTD/svg11.dtd">
<svg xmlns:xlink="http://www.w3.org/1999/xlink" width="2880pt" height="2880pt" viewBox="0 0 2880 2880" xmlns="http://www.w3.org/2000/svg" version="1.1">
 <metadata>
  <rdf:RDF xmlns:dc="http://purl.org/dc/elements/1.1/" xmlns:cc="http://creativecommons.org/ns#" xmlns:rdf="http://www.w3.org/1999/02/22-rdf-syntax-ns#">
   <cc:Work>
    <dc:type rdf:resource="http://purl.org/dc/dcmitype/StillImage"/>
    <dc:date>2022-04-29T14:42:22.055065</dc:date>
    <dc:format>image/svg+xml</dc:format>
    <dc:creator>
     <cc:Agent>
      <dc:title>Matplotlib v3.5.0, https://matplotlib.org/</dc:title>
     </cc:Agent>
    </dc:creator>
   </cc:Work>
  </rdf:RDF>
 </metadata>
 <defs>
  <style type="text/css">*{stroke-linejoin: round; stroke-linecap: butt}</style>
 </defs>
 <g id="figure_1">
  <g id="patch_1">
   <path d="M 0 2880 
L 2880 2880 
L 2880 0 
L 0 0 
L 0 2880 
z
" style="fill: none"/>
  </g>
  <g id="axes_1">
   <g id="patch_2">
    <path d="M 111.228671 1335.089117 
C 90.288146 1453.848739 103.564393 1576.150671 149.5003 1687.650653 
C 195.436207 1799.150635 272.162834 1895.312198 370.681249 1964.856971 
C 469.199664 2034.401744 585.501564 2074.500241 705.946406 2080.449484 
C 826.391248 2086.398727 946.078635 2057.956666 1050.970955 1998.459147 
L 737.309835 1445.484118 
L 111.228671 1335.089117 
z
" style="fill: #8000ff"/>
   </g>
   <g id="patch_3">
    <path d="M 1050.970955 1998.459147 
C 1139.21298 1948.406087 1214.205508 1877.950489 1269.660936 1792.999566 
C 1325.116364 1708.048642 1359.440283 1611.044834 1369.754872 1510.121233 
L 737.309835 1445.484118 
L 1050.970955 1998.459147 
z
" style="fill: #7019ff"/>
   </g>
   <g id="patch_4">
    <path d="M 1369.754872 1510.121233 
C 1377.782031 1431.579094 1371.108405 1352.224497 1350.076172 1276.126219 
C 1329.043938 1200.027941 1294.018814 1128.509203 1246.796653 1065.23701 
L 737.309835 1445.484118 
L 1369.754872 1510.121233 
z
" style="fill: #5e35fe"/>
   </g>
   <g id="patch_5">
    <path d="M 1246.796653 1065.23701 
C 1217.077369 1025.416632 1182.79188 989.21739 1144.642815 957.381133 
C 1106.49375 925.544875 1064.743504 898.290577 1020.247683 876.176771 
L 737.309835 1445.484118 
L 1246.796653 1065.23701 
z
" style="fill: #4e4dfc"/>
   </g>
   <g id="patch_6">
    <path d="M 1020.247683 876.176771 
C 995.717727 863.985724 970.425473 853.392807 944.529109 844.464274 
C 918.632744 835.53574 892.18637 828.290242 865.355389 822.773096 
L 737.309835 1445.484118 
L 1020.247683 876.176771 
z
" style="fill: #3c68f9"/>
   </g>
   <g id="patch_7">
    <path d="M 865.355389 822.773096 
C 843.557792 818.290944 821.539878 814.956398 799.392592 812.783231 
C 777.245305 810.610065 754.999181 809.601273 732.746104 809.761023 
L 737.309835 1445.484118 
L 865.355389 822.773096 
z
" style="fill: #2c7ef7"/>
   </g>
   <g id="patch_8">
    <path d="M 732.746104 809.761023 
C 710.493027 809.920774 688.263678 811.248846 666.149875 813.739755 
C 644.036071 816.230663 622.0683 819.880974 600.337299 824.675609 
L 737.309835 1445.484118 
L 732.746104 809.761023 
z
" style="fill: #1996f3"/>
   </g>
   <g id="patch_9">
    <path d="M 600.337299 824.675609 
C 588.637898 827.256915 577.013803 830.168425 565.478942 833.406652 
C 553.944081 836.644878 542.503064 840.208527 531.169598 844.093327 
L 737.309835 1445.484118 
L 600.337299 824.675609 
z
" style="fill: #09a9ee"/>
   </g>
   <g id="patch_10">
    <path d="M 531.169598 844.093327 
C 521.45537 847.423098 511.823246 850.987749 502.281706 854.784144 
C 492.740166 858.580539 483.292011 862.607562 473.945559 866.861669 
L 737.309835 1445.484118 
L 531.169598 844.093327 
z
" style="fill: #08bee9"/>
   </g>
   <g id="patch_11">
    <path d="M 473.945559 866.861669 
C 464.599106 871.115776 455.3571 875.595717 446.227676 880.297549 
C 437.098253 884.999381 428.084092 889.921724 419.193129 895.060243 
L 737.309835 1445.484118 
L 473.945559 866.861669 
z
" style="fill: #18cde4"/>
   </g>
   <g id="patch_12">
    <path d="M 419.193129 895.060243 
C 411.784105 899.342279 404.462293 903.773472 397.232171 908.351115 
C 390.002049 912.928758 382.865091 917.651916 375.82566 922.517703 
L 737.309835 1445.484118 
L 419.193129 895.060243 
z
" style="fill: #2adddd"/>
   </g>
   <g id="patch_13">
    <path d="M 375.82566 922.517703 
C 368.786228 927.38349 361.845759 932.390913 355.008495 937.536911 
C 348.171231 942.682909 341.438566 947.966432 334.814616 953.384251 
L 737.309835 1445.484118 
L 375.82566 922.517703 
z
" style="fill: #3ae8d6"/>
   </g>
   <g id="patch_14">
    <path d="M 334.814616 953.384251 
C 328.190666 958.802071 321.676782 964.353081 315.276946 970.033888 
C 308.87711 975.714696 302.592627 981.524143 296.427339 987.458677 
L 737.309835 1445.484118 
L 334.814616 953.384251 
z
" style="fill: #4df3ce"/>
   </g>
   <g id="patch_15">
    <path d="M 296.427339 987.458677 
C 291.495169 992.206246 286.640005 997.033173 281.863749 1001.937567 
C 277.087492 1006.841962 272.390765 1011.823186 267.775406 1016.879288 
L 737.309835 1445.484118 
L 296.427339 987.458677 
z
" style="fill: #5df9c7"/>
   </g>
   <g id="patch_16">
    <path d="M 267.775406 1016.879288 
C 263.160047 1021.935391 258.626657 1027.065714 254.177011 1032.268249 
C 249.727366 1037.470783 245.362044 1042.744852 241.082755 1048.08839 
L 737.309835 1445.484118 
L 267.775406 1016.879288 
z
" style="fill: #6efebe"/>
   </g>
   <g id="patch_17">
    <path d="M 241.082755 1048.08839 
C 236.803465 1053.431928 232.610767 1058.844239 228.506299 1064.323204 
C 224.401832 1069.80217 220.386131 1075.347075 216.460769 1080.955751 
L 737.309835 1445.484118 
L 241.082755 1048.08839 
z
" style="fill: #80ffb4"/>
   </g>
   <g id="patch_18">
    <path d="M 216.460769 1080.955751 
C 213.516775 1085.162218 210.623847 1089.404195 207.782622 1093.680748 
C 204.941397 1097.957301 202.152084 1102.268117 199.415297 1106.612246 
L 737.309835 1445.484118 
L 216.460769 1080.955751 
z
" style="fill: #90feab"/>
   </g>
   <g id="patch_19">
    <path d="M 199.415297 1106.612246 
C 196.678509 1110.956375 193.994447 1115.333499 191.363703 1119.742655 
C 188.732959 1124.15181 186.155725 1128.592673 183.632568 1133.064266 
L 737.309835 1445.484118 
L 199.415297 1106.612246 
z
" style="fill: #a2f9a0"/>
   </g>
   <g id="patch_20">
    <path d="M 183.632568 1133.064266 
C 181.109411 1137.535859 178.640517 1142.037854 176.226429 1146.569261 
C 173.812341 1151.100667 171.453236 1155.661152 169.149634 1160.249712 
L 737.309835 1445.484118 
L 183.632568 1133.064266 
z
" style="fill: #b2f396"/>
   </g>
   <g id="patch_21">
    <path d="M 169.149634 1160.249712 
C 166.846032 1164.838272 164.598101 1169.45457 162.406337 1174.09759 
C 160.214572 1178.74061 158.079135 1183.410011 156.000495 1188.104766 
L 737.309835 1445.484118 
L 169.149634 1160.249712 
z
" style="fill: #c4e88a"/>
   </g>
   <g id="patch_22">
    <path d="M 156.000495 1188.104766 
C 154.614744 1191.234581 153.254293 1194.375536 151.919274 1197.527325 
C 150.584255 1200.679114 149.274713 1203.841633 147.990774 1207.014573 
L 737.309835 1445.484118 
L 156.000495 1188.104766 
z
" style="fill: #d4dd80"/>
   </g>
   <g id="patch_23">
    <path d="M 147.990774 1207.014573 
C 146.706835 1210.187513 145.448542 1213.37077 144.216019 1216.564034 
C 142.983495 1219.757297 141.776781 1222.960463 140.595994 1226.173217 
L 737.309835 1445.484118 
L 147.990774 1207.014573 
z
" style="fill: #e6cd73"/>
   </g>
   <g id="patch_24">
    <path d="M 140.595994 1226.173217 
C 139.415206 1229.385971 138.260385 1232.608209 137.131643 1235.839615 
C 136.0029 1239.071022 134.900274 1242.311491 133.82387 1245.560707 
L 737.309835 1445.484118 
L 140.595994 1226.173217 
z
" style="fill: #f6be68"/>
   </g>
   <g id="patch_25">
    <path d="M 133.82387 1245.560707 
C 132.747467 1248.809923 131.697322 1252.067779 130.673539 1255.333956 
C 129.649755 1258.600133 128.652367 1261.874526 127.68147 1265.156812 
L 737.309835 1445.484118 
L 133.82387 1245.560707 
z
" style="fill: #ffa95b"/>
   </g>
   <g id="patch_26">
    <path d="M 127.68147 1265.156812 
C 126.710574 1268.439099 125.766202 1271.729174 124.848446 1275.026714 
C 123.93069 1278.324254 123.03958 1281.629152 122.175204 1284.941085 
L 737.309835 1445.484118 
L 127.68147 1265.156812 
z
" style="fill: #ff964f"/>
   </g>
   <g id="patch_27">
    <path d="M 122.175204 1284.941085 
C 121.743017 1286.597045 121.31752 1288.254743 120.898721 1289.914139 
C 120.479922 1291.573535 120.067826 1293.234616 119.662442 1294.89734 
L 737.309835 1445.484118 
L 122.175204 1284.941085 
z
" style="fill: #ff7e41"/>
   </g>
   <g id="patch_28">
    <path d="M 119.662442 1294.89734 
C 119.257058 1296.560064 118.85839 1298.224419 118.466447 1299.890363 
C 118.074505 1301.556306 117.689291 1303.223826 117.310816 1304.892881 
L 737.309835 1445.484118 
L 119.662442 1294.89734 
z
" style="fill: #ff6835"/>
   </g>
   <g id="patch_29">
    <path d="M 117.310816 1304.892881 
C 116.93234 1306.561936 116.560606 1308.232512 116.195622 1309.904569 
C 115.830638 1311.576626 115.472407 1313.25015 115.120939 1314.9251 
L 737.309835 1445.484118 
L 117.310816 1304.892881 
z
" style="fill: #ff4d27"/>
   </g>
   <g id="patch_30">
    <path d="M 115.120939 1314.9251 
C 114.76947 1316.60005 114.424766 1318.276413 114.086836 1319.954147 
C 113.748906 1321.631881 113.417752 1323.310972 113.093382 1324.99138 
L 737.309835 1445.484118 
L 115.120939 1314.9251 
z
" style="fill: #ff351b"/>
   </g>
   <g id="patch_31">
    <path d="M 113.093382 1324.99138 
C 112.769012 1326.671789 112.451429 1328.3535 112.140641 1330.036473 
C 111.829853 1331.719446 111.525861 1333.403667 111.228675 1335.089096 
L 737.309835 1445.484118 
L 113.093382 1324.99138 
z
" style="fill: #ff190d"/>
   </g>
   <g id="matplotlib.axis_1"/>
   <g id="matplotlib.axis_2"/>
   <g id="text_1">
    <!-- Japan -->
    <g transform="translate(317.868814 2018.391934)scale(0.0579 -0.0579)">
     <defs>
      <path id="DejaVuSans-4a" d="M 628 4666 
L 1259 4666 
L 1259 325 
Q 1259 -519 939 -900 
Q 619 -1281 -91 -1281 
L -331 -1281 
L -331 -750 
L -134 -750 
Q 284 -750 456 -515 
Q 628 -281 628 325 
L 628 4666 
z
" transform="scale(0.015625)"/>
      <path id="DejaVuSans-61" d="M 2194 1759 
Q 1497 1759 1228 1600 
Q 959 1441 959 1056 
Q 959 750 1161 570 
Q 1363 391 1709 391 
Q 2188 391 2477 730 
Q 2766 1069 2766 1631 
L 2766 1759 
L 2194 1759 
z
M 3341 1997 
L 3341 0 
L 2766 0 
L 2766 531 
Q 2569 213 2275 61 
Q 1981 -91 1556 -91 
Q 1019 -91 701 211 
Q 384 513 384 1019 
Q 384 1609 779 1909 
Q 1175 2209 1959 2209 
L 2766 2209 
L 2766 2266 
Q 2766 2663 2505 2880 
Q 2244 3097 1772 3097 
Q 1472 3097 1187 3025 
Q 903 2953 641 2809 
L 641 3341 
Q 956 3463 1253 3523 
Q 1550 3584 1831 3584 
Q 2591 3584 2966 3190 
Q 3341 2797 3341 1997 
z
" transform="scale(0.015625)"/>
      <path id="DejaVuSans-70" d="M 1159 525 
L 1159 -1331 
L 581 -1331 
L 581 3500 
L 1159 3500 
L 1159 2969 
Q 1341 3281 1617 3432 
Q 1894 3584 2278 3584 
Q 2916 3584 3314 3078 
Q 3713 2572 3713 1747 
Q 3713 922 3314 415 
Q 2916 -91 2278 -91 
Q 1894 -91 1617 61 
Q 1341 213 1159 525 
z
M 3116 1747 
Q 3116 2381 2855 2742 
Q 2594 3103 2138 3103 
Q 1681 3103 1420 2742 
Q 1159 2381 1159 1747 
Q 1159 1113 1420 752 
Q 1681 391 2138 391 
Q 2594 391 2855 752 
Q 3116 1113 3116 1747 
z
" transform="scale(0.015625)"/>
      <path id="DejaVuSans-6e" d="M 3513 2113 
L 3513 0 
L 2938 0 
L 2938 2094 
Q 2938 2591 2744 2837 
Q 2550 3084 2163 3084 
Q 1697 3084 1428 2787 
Q 1159 2491 1159 1978 
L 1159 0 
L 581 0 
L 581 3500 
L 1159 3500 
L 1159 2956 
Q 1366 3272 1645 3428 
Q 1925 3584 2291 3584 
Q 2894 3584 3203 3211 
Q 3513 2838 3513 2113 
z
" transform="scale(0.015625)"/>
     </defs>
     <use xlink:href="#DejaVuSans-4a"/>
     <use xlink:href="#DejaVuSans-61" x="29.492188"/>
     <use xlink:href="#DejaVuSans-70" x="90.771484"/>
     <use xlink:href="#DejaVuSans-61" x="154.248047"/>
     <use xlink:href="#DejaVuSans-6e" x="215.527344"/>
    </g>
   </g>
   <g id="text_2">
    <!-- 36% -->
    <g transform="translate(510.898094 1758.705508)scale(0.0579 -0.0579)">
     <defs>
      <path id="DejaVuSans-33" d="M 2597 2516 
Q 3050 2419 3304 2112 
Q 3559 1806 3559 1356 
Q 3559 666 3084 287 
Q 2609 -91 1734 -91 
Q 1441 -91 1130 -33 
Q 819 25 488 141 
L 488 750 
Q 750 597 1062 519 
Q 1375 441 1716 441 
Q 2309 441 2620 675 
Q 2931 909 2931 1356 
Q 2931 1769 2642 2001 
Q 2353 2234 1838 2234 
L 1294 2234 
L 1294 2753 
L 1863 2753 
Q 2328 2753 2575 2939 
Q 2822 3125 2822 3475 
Q 2822 3834 2567 4026 
Q 2313 4219 1838 4219 
Q 1578 4219 1281 4162 
Q 984 4106 628 3988 
L 628 4550 
Q 988 4650 1302 4700 
Q 1616 4750 1894 4750 
Q 2613 4750 3031 4423 
Q 3450 4097 3450 3541 
Q 3450 3153 3228 2886 
Q 3006 2619 2597 2516 
z
" transform="scale(0.015625)"/>
      <path id="DejaVuSans-36" d="M 2113 2584 
Q 1688 2584 1439 2293 
Q 1191 2003 1191 1497 
Q 1191 994 1439 701 
Q 1688 409 2113 409 
Q 2538 409 2786 701 
Q 3034 994 3034 1497 
Q 3034 2003 2786 2293 
Q 2538 2584 2113 2584 
z
M 3366 4563 
L 3366 3988 
Q 3128 4100 2886 4159 
Q 2644 4219 2406 4219 
Q 1781 4219 1451 3797 
Q 1122 3375 1075 2522 
Q 1259 2794 1537 2939 
Q 1816 3084 2150 3084 
Q 2853 3084 3261 2657 
Q 3669 2231 3669 1497 
Q 3669 778 3244 343 
Q 2819 -91 2113 -91 
Q 1303 -91 875 529 
Q 447 1150 447 2328 
Q 447 3434 972 4092 
Q 1497 4750 2381 4750 
Q 2619 4750 2861 4703 
Q 3103 4656 3366 4563 
z
" transform="scale(0.015625)"/>
      <path id="DejaVuSans-25" d="M 4653 2053 
Q 4381 2053 4226 1822 
Q 4072 1591 4072 1178 
Q 4072 772 4226 539 
Q 4381 306 4653 306 
Q 4919 306 5073 539 
Q 5228 772 5228 1178 
Q 5228 1588 5073 1820 
Q 4919 2053 4653 2053 
z
M 4653 2450 
Q 5147 2450 5437 2106 
Q 5728 1763 5728 1178 
Q 5728 594 5436 251 
Q 5144 -91 4653 -91 
Q 4153 -91 3862 251 
Q 3572 594 3572 1178 
Q 3572 1766 3864 2108 
Q 4156 2450 4653 2450 
z
M 1428 4353 
Q 1159 4353 1004 4120 
Q 850 3888 850 3481 
Q 850 3069 1003 2837 
Q 1156 2606 1428 2606 
Q 1700 2606 1854 2837 
Q 2009 3069 2009 3481 
Q 2009 3884 1853 4118 
Q 1697 4353 1428 4353 
z
M 4250 4750 
L 4750 4750 
L 1831 -91 
L 1331 -91 
L 4250 4750 
z
M 1428 4750 
Q 1922 4750 2215 4408 
Q 2509 4066 2509 3481 
Q 2509 2891 2217 2550 
Q 1925 2209 1428 2209 
Q 931 2209 642 2551 
Q 353 2894 353 3481 
Q 353 4063 643 4406 
Q 934 4750 1428 4750 
z
" transform="scale(0.015625)"/>
     </defs>
     <use xlink:href="#DejaVuSans-33"/>
     <use xlink:href="#DejaVuSans-36" x="63.623047"/>
     <use xlink:href="#DejaVuSans-25" x="127.246094"/>
    </g>
   </g>
   <g id="text_3">
    <!-- United States -->
    <g transform="translate(1322.896046 1829.348789)scale(0.0579 -0.0579)">
     <defs>
      <path id="DejaVuSans-55" d="M 556 4666 
L 1191 4666 
L 1191 1831 
Q 1191 1081 1462 751 
Q 1734 422 2344 422 
Q 2950 422 3222 751 
Q 3494 1081 3494 1831 
L 3494 4666 
L 4128 4666 
L 4128 1753 
Q 4128 841 3676 375 
Q 3225 -91 2344 -91 
Q 1459 -91 1007 375 
Q 556 841 556 1753 
L 556 4666 
z
" transform="scale(0.015625)"/>
      <path id="DejaVuSans-69" d="M 603 3500 
L 1178 3500 
L 1178 0 
L 603 0 
L 603 3500 
z
M 603 4863 
L 1178 4863 
L 1178 4134 
L 603 4134 
L 603 4863 
z
" transform="scale(0.015625)"/>
      <path id="DejaVuSans-74" d="M 1172 4494 
L 1172 3500 
L 2356 3500 
L 2356 3053 
L 1172 3053 
L 1172 1153 
Q 1172 725 1289 603 
Q 1406 481 1766 481 
L 2356 481 
L 2356 0 
L 1766 0 
Q 1100 0 847 248 
Q 594 497 594 1153 
L 594 3053 
L 172 3053 
L 172 3500 
L 594 3500 
L 594 4494 
L 1172 4494 
z
" transform="scale(0.015625)"/>
      <path id="DejaVuSans-65" d="M 3597 1894 
L 3597 1613 
L 953 1613 
Q 991 1019 1311 708 
Q 1631 397 2203 397 
Q 2534 397 2845 478 
Q 3156 559 3463 722 
L 3463 178 
Q 3153 47 2828 -22 
Q 2503 -91 2169 -91 
Q 1331 -91 842 396 
Q 353 884 353 1716 
Q 353 2575 817 3079 
Q 1281 3584 2069 3584 
Q 2775 3584 3186 3129 
Q 3597 2675 3597 1894 
z
M 3022 2063 
Q 3016 2534 2758 2815 
Q 2500 3097 2075 3097 
Q 1594 3097 1305 2825 
Q 1016 2553 972 2059 
L 3022 2063 
z
" transform="scale(0.015625)"/>
      <path id="DejaVuSans-64" d="M 2906 2969 
L 2906 4863 
L 3481 4863 
L 3481 0 
L 2906 0 
L 2906 525 
Q 2725 213 2448 61 
Q 2172 -91 1784 -91 
Q 1150 -91 751 415 
Q 353 922 353 1747 
Q 353 2572 751 3078 
Q 1150 3584 1784 3584 
Q 2172 3584 2448 3432 
Q 2725 3281 2906 2969 
z
M 947 1747 
Q 947 1113 1208 752 
Q 1469 391 1925 391 
Q 2381 391 2643 752 
Q 2906 1113 2906 1747 
Q 2906 2381 2643 2742 
Q 2381 3103 1925 3103 
Q 1469 3103 1208 2742 
Q 947 2381 947 1747 
z
" transform="scale(0.015625)"/>
      <path id="DejaVuSans-20" transform="scale(0.015625)"/>
      <path id="DejaVuSans-53" d="M 3425 4513 
L 3425 3897 
Q 3066 4069 2747 4153 
Q 2428 4238 2131 4238 
Q 1616 4238 1336 4038 
Q 1056 3838 1056 3469 
Q 1056 3159 1242 3001 
Q 1428 2844 1947 2747 
L 2328 2669 
Q 3034 2534 3370 2195 
Q 3706 1856 3706 1288 
Q 3706 609 3251 259 
Q 2797 -91 1919 -91 
Q 1588 -91 1214 -16 
Q 841 59 441 206 
L 441 856 
Q 825 641 1194 531 
Q 1563 422 1919 422 
Q 2459 422 2753 634 
Q 3047 847 3047 1241 
Q 3047 1584 2836 1778 
Q 2625 1972 2144 2069 
L 1759 2144 
Q 1053 2284 737 2584 
Q 422 2884 422 3419 
Q 422 4038 858 4394 
Q 1294 4750 2059 4750 
Q 2388 4750 2728 4690 
Q 3069 4631 3425 4513 
z
" transform="scale(0.015625)"/>
      <path id="DejaVuSans-73" d="M 2834 3397 
L 2834 2853 
Q 2591 2978 2328 3040 
Q 2066 3103 1784 3103 
Q 1356 3103 1142 2972 
Q 928 2841 928 2578 
Q 928 2378 1081 2264 
Q 1234 2150 1697 2047 
L 1894 2003 
Q 2506 1872 2764 1633 
Q 3022 1394 3022 966 
Q 3022 478 2636 193 
Q 2250 -91 1575 -91 
Q 1294 -91 989 -36 
Q 684 19 347 128 
L 347 722 
Q 666 556 975 473 
Q 1284 391 1588 391 
Q 1994 391 2212 530 
Q 2431 669 2431 922 
Q 2431 1156 2273 1281 
Q 2116 1406 1581 1522 
L 1381 1569 
Q 847 1681 609 1914 
Q 372 2147 372 2553 
Q 372 3047 722 3315 
Q 1072 3584 1716 3584 
Q 2034 3584 2315 3537 
Q 2597 3491 2834 3397 
z
" transform="scale(0.015625)"/>
     </defs>
     <use xlink:href="#DejaVuSans-55"/>
     <use xlink:href="#DejaVuSans-6e" x="73.193359"/>
     <use xlink:href="#DejaVuSans-69" x="136.572266"/>
     <use xlink:href="#DejaVuSans-74" x="164.355469"/>
     <use xlink:href="#DejaVuSans-65" x="203.564453"/>
     <use xlink:href="#DejaVuSans-64" x="265.087891"/>
     <use xlink:href="#DejaVuSans-20" x="328.564453"/>
     <use xlink:href="#DejaVuSans-53" x="360.351562"/>
     <use xlink:href="#DejaVuSans-74" x="423.828125"/>
     <use xlink:href="#DejaVuSans-61" x="463.037109"/>
     <use xlink:href="#DejaVuSans-74" x="524.316406"/>
     <use xlink:href="#DejaVuSans-65" x="563.525391"/>
     <use xlink:href="#DejaVuSans-73" x="625.048828"/>
    </g>
   </g>
   <g id="text_4">
    <!-- 15% -->
    <g transform="translate(1050.285906 1655.591065)scale(0.0579 -0.0579)">
     <defs>
      <path id="DejaVuSans-31" d="M 794 531 
L 1825 531 
L 1825 4091 
L 703 3866 
L 703 4441 
L 1819 4666 
L 2450 4666 
L 2450 531 
L 3481 531 
L 3481 0 
L 794 0 
L 794 531 
z
" transform="scale(0.015625)"/>
      <path id="DejaVuSans-35" d="M 691 4666 
L 3169 4666 
L 3169 4134 
L 1269 4134 
L 1269 2991 
Q 1406 3038 1543 3061 
Q 1681 3084 1819 3084 
Q 2600 3084 3056 2656 
Q 3513 2228 3513 1497 
Q 3513 744 3044 326 
Q 2575 -91 1722 -91 
Q 1428 -91 1123 -41 
Q 819 9 494 109 
L 494 744 
Q 775 591 1075 516 
Q 1375 441 1709 441 
Q 2250 441 2565 725 
Q 2881 1009 2881 1497 
Q 2881 1984 2565 2268 
Q 2250 2553 1709 2553 
Q 1456 2553 1204 2497 
Q 953 2441 691 2322 
L 691 4666 
z
" transform="scale(0.015625)"/>
     </defs>
     <use xlink:href="#DejaVuSans-31"/>
     <use xlink:href="#DejaVuSans-35" x="63.623047"/>
     <use xlink:href="#DejaVuSans-25" x="127.246094"/>
    </g>
   </g>
   <g id="text_5">
    <!-- Macau -->
    <g transform="translate(1411.352805 1260.788108)scale(0.0579 -0.0579)">
     <defs>
      <path id="DejaVuSans-4d" d="M 628 4666 
L 1569 4666 
L 2759 1491 
L 3956 4666 
L 4897 4666 
L 4897 0 
L 4281 0 
L 4281 4097 
L 3078 897 
L 2444 897 
L 1241 4097 
L 1241 0 
L 628 0 
L 628 4666 
z
" transform="scale(0.015625)"/>
      <path id="DejaVuSans-63" d="M 3122 3366 
L 3122 2828 
Q 2878 2963 2633 3030 
Q 2388 3097 2138 3097 
Q 1578 3097 1268 2742 
Q 959 2388 959 1747 
Q 959 1106 1268 751 
Q 1578 397 2138 397 
Q 2388 397 2633 464 
Q 2878 531 3122 666 
L 3122 134 
Q 2881 22 2623 -34 
Q 2366 -91 2075 -91 
Q 1284 -91 818 406 
Q 353 903 353 1747 
Q 353 2603 823 3093 
Q 1294 3584 2113 3584 
Q 2378 3584 2631 3529 
Q 2884 3475 3122 3366 
z
" transform="scale(0.015625)"/>
      <path id="DejaVuSans-75" d="M 544 1381 
L 544 3500 
L 1119 3500 
L 1119 1403 
Q 1119 906 1312 657 
Q 1506 409 1894 409 
Q 2359 409 2629 706 
Q 2900 1003 2900 1516 
L 2900 3500 
L 3475 3500 
L 3475 0 
L 2900 0 
L 2900 538 
Q 2691 219 2414 64 
Q 2138 -91 1772 -91 
Q 1169 -91 856 284 
Q 544 659 544 1381 
z
M 1991 3584 
L 1991 3584 
z
" transform="scale(0.015625)"/>
     </defs>
     <use xlink:href="#DejaVuSans-4d"/>
     <use xlink:href="#DejaVuSans-61" x="86.279297"/>
     <use xlink:href="#DejaVuSans-63" x="147.558594"/>
     <use xlink:href="#DejaVuSans-61" x="202.539062"/>
     <use xlink:href="#DejaVuSans-75" x="263.818359"/>
    </g>
   </g>
   <g id="text_6">
    <!-- 12% -->
    <g transform="translate(1098.535047 1345.467057)scale(0.0579 -0.0579)">
     <defs>
      <path id="DejaVuSans-32" d="M 1228 531 
L 3431 531 
L 3431 0 
L 469 0 
L 469 531 
Q 828 903 1448 1529 
Q 2069 2156 2228 2338 
Q 2531 2678 2651 2914 
Q 2772 3150 2772 3378 
Q 2772 3750 2511 3984 
Q 2250 4219 1831 4219 
Q 1534 4219 1204 4116 
Q 875 4013 500 3803 
L 500 4441 
Q 881 4594 1212 4672 
Q 1544 4750 1819 4750 
Q 2544 4750 2975 4387 
Q 3406 4025 3406 3419 
Q 3406 3131 3298 2873 
Q 3191 2616 2906 2266 
Q 2828 2175 2409 1742 
Q 1991 1309 1228 531 
z
" transform="scale(0.015625)"/>
     </defs>
     <use xlink:href="#DejaVuSans-31"/>
     <use xlink:href="#DejaVuSans-32" x="63.623047"/>
     <use xlink:href="#DejaVuSans-25" x="127.246094"/>
    </g>
   </g>
   <g id="text_7">
    <!-- Malaysia -->
    <g transform="translate(1185.376113 910.168512)scale(0.0579 -0.0579)">
     <defs>
      <path id="DejaVuSans-6c" d="M 603 4863 
L 1178 4863 
L 1178 0 
L 603 0 
L 603 4863 
z
" transform="scale(0.015625)"/>
      <path id="DejaVuSans-79" d="M 2059 -325 
Q 1816 -950 1584 -1140 
Q 1353 -1331 966 -1331 
L 506 -1331 
L 506 -850 
L 844 -850 
Q 1081 -850 1212 -737 
Q 1344 -625 1503 -206 
L 1606 56 
L 191 3500 
L 800 3500 
L 1894 763 
L 2988 3500 
L 3597 3500 
L 2059 -325 
z
" transform="scale(0.015625)"/>
     </defs>
     <use xlink:href="#DejaVuSans-4d"/>
     <use xlink:href="#DejaVuSans-61" x="86.279297"/>
     <use xlink:href="#DejaVuSans-6c" x="147.558594"/>
     <use xlink:href="#DejaVuSans-61" x="175.341797"/>
     <use xlink:href="#DejaVuSans-79" x="236.621094"/>
     <use xlink:href="#DejaVuSans-73" x="295.800781"/>
     <use xlink:href="#DejaVuSans-69" x="347.900391"/>
     <use xlink:href="#DejaVuSans-61" x="375.683594"/>
    </g>
   </g>
   <g id="text_8">
    <!-- 7% -->
    <g transform="translate(977.116977 1154.220005)scale(0.0579 -0.0579)">
     <defs>
      <path id="DejaVuSans-37" d="M 525 4666 
L 3525 4666 
L 3525 4397 
L 1831 0 
L 1172 0 
L 2766 4134 
L 525 4134 
L 525 4666 
z
" transform="scale(0.015625)"/>
     </defs>
     <use xlink:href="#DejaVuSans-37"/>
     <use xlink:href="#DejaVuSans-25" x="63.623047"/>
    </g>
   </g>
   <g id="text_9">
    <!-- United Arab Emirates -->
    <g transform="translate(965.251036 785.959967)scale(0.0579 -0.0579)">
     <defs>
      <path id="DejaVuSans-41" d="M 2188 4044 
L 1331 1722 
L 3047 1722 
L 2188 4044 
z
M 1831 4666 
L 2547 4666 
L 4325 0 
L 3669 0 
L 3244 1197 
L 1141 1197 
L 716 0 
L 50 0 
L 1831 4666 
z
" transform="scale(0.015625)"/>
      <path id="DejaVuSans-72" d="M 2631 2963 
Q 2534 3019 2420 3045 
Q 2306 3072 2169 3072 
Q 1681 3072 1420 2755 
Q 1159 2438 1159 1844 
L 1159 0 
L 581 0 
L 581 3500 
L 1159 3500 
L 1159 2956 
Q 1341 3275 1631 3429 
Q 1922 3584 2338 3584 
Q 2397 3584 2469 3576 
Q 2541 3569 2628 3553 
L 2631 2963 
z
" transform="scale(0.015625)"/>
      <path id="DejaVuSans-62" d="M 3116 1747 
Q 3116 2381 2855 2742 
Q 2594 3103 2138 3103 
Q 1681 3103 1420 2742 
Q 1159 2381 1159 1747 
Q 1159 1113 1420 752 
Q 1681 391 2138 391 
Q 2594 391 2855 752 
Q 3116 1113 3116 1747 
z
M 1159 2969 
Q 1341 3281 1617 3432 
Q 1894 3584 2278 3584 
Q 2916 3584 3314 3078 
Q 3713 2572 3713 1747 
Q 3713 922 3314 415 
Q 2916 -91 2278 -91 
Q 1894 -91 1617 61 
Q 1341 213 1159 525 
L 1159 0 
L 581 0 
L 581 4863 
L 1159 4863 
L 1159 2969 
z
" transform="scale(0.015625)"/>
      <path id="DejaVuSans-45" d="M 628 4666 
L 3578 4666 
L 3578 4134 
L 1259 4134 
L 1259 2753 
L 3481 2753 
L 3481 2222 
L 1259 2222 
L 1259 531 
L 3634 531 
L 3634 0 
L 628 0 
L 628 4666 
z
" transform="scale(0.015625)"/>
      <path id="DejaVuSans-6d" d="M 3328 2828 
Q 3544 3216 3844 3400 
Q 4144 3584 4550 3584 
Q 5097 3584 5394 3201 
Q 5691 2819 5691 2113 
L 5691 0 
L 5113 0 
L 5113 2094 
Q 5113 2597 4934 2840 
Q 4756 3084 4391 3084 
Q 3944 3084 3684 2787 
Q 3425 2491 3425 1978 
L 3425 0 
L 2847 0 
L 2847 2094 
Q 2847 2600 2669 2842 
Q 2491 3084 2119 3084 
Q 1678 3084 1418 2786 
Q 1159 2488 1159 1978 
L 1159 0 
L 581 0 
L 581 3500 
L 1159 3500 
L 1159 2956 
Q 1356 3278 1631 3431 
Q 1906 3584 2284 3584 
Q 2666 3584 2933 3390 
Q 3200 3197 3328 2828 
z
" transform="scale(0.015625)"/>
     </defs>
     <use xlink:href="#DejaVuSans-55"/>
     <use xlink:href="#DejaVuSans-6e" x="73.193359"/>
     <use xlink:href="#DejaVuSans-69" x="136.572266"/>
     <use xlink:href="#DejaVuSans-74" x="164.355469"/>
     <use xlink:href="#DejaVuSans-65" x="203.564453"/>
     <use xlink:href="#DejaVuSans-64" x="265.087891"/>
     <use xlink:href="#DejaVuSans-20" x="328.564453"/>
     <use xlink:href="#DejaVuSans-41" x="360.351562"/>
     <use xlink:href="#DejaVuSans-72" x="428.759766"/>
     <use xlink:href="#DejaVuSans-61" x="469.873047"/>
     <use xlink:href="#DejaVuSans-62" x="531.152344"/>
     <use xlink:href="#DejaVuSans-20" x="594.628906"/>
     <use xlink:href="#DejaVuSans-45" x="626.416016"/>
     <use xlink:href="#DejaVuSans-6d" x="689.599609"/>
     <use xlink:href="#DejaVuSans-69" x="787.011719"/>
     <use xlink:href="#DejaVuSans-72" x="814.794922"/>
     <use xlink:href="#DejaVuSans-61" x="855.908203"/>
     <use xlink:href="#DejaVuSans-74" x="917.1875"/>
     <use xlink:href="#DejaVuSans-65" x="956.396484"/>
     <use xlink:href="#DejaVuSans-73" x="1017.919922"/>
    </g>
   </g>
   <g id="text_10">
    <!-- 4% -->
    <g transform="translate(857.048753 1086.46989)scale(0.0579 -0.0579)">
     <defs>
      <path id="DejaVuSans-34" d="M 2419 4116 
L 825 1625 
L 2419 1625 
L 2419 4116 
z
M 2253 4666 
L 3047 4666 
L 3047 1625 
L 3713 1625 
L 3713 1100 
L 3047 1100 
L 3047 0 
L 2419 0 
L 2419 1100 
L 313 1100 
L 313 1709 
L 2253 4666 
z
" transform="scale(0.015625)"/>
     </defs>
     <use xlink:href="#DejaVuSans-34"/>
     <use xlink:href="#DejaVuSans-25" x="63.623047"/>
    </g>
   </g>
   <g id="text_11">
    <!-- Indonesia -->
    <g transform="translate(805.600867 751.110821)scale(0.0579 -0.0579)">
     <defs>
      <path id="DejaVuSans-49" d="M 628 4666 
L 1259 4666 
L 1259 0 
L 628 0 
L 628 4666 
z
" transform="scale(0.015625)"/>
      <path id="DejaVuSans-6f" d="M 1959 3097 
Q 1497 3097 1228 2736 
Q 959 2375 959 1747 
Q 959 1119 1226 758 
Q 1494 397 1959 397 
Q 2419 397 2687 759 
Q 2956 1122 2956 1747 
Q 2956 2369 2687 2733 
Q 2419 3097 1959 3097 
z
M 1959 3584 
Q 2709 3584 3137 3096 
Q 3566 2609 3566 1747 
Q 3566 888 3137 398 
Q 2709 -91 1959 -91 
Q 1206 -91 779 398 
Q 353 888 353 1747 
Q 353 2609 779 3096 
Q 1206 3584 1959 3584 
z
" transform="scale(0.015625)"/>
     </defs>
     <use xlink:href="#DejaVuSans-49"/>
     <use xlink:href="#DejaVuSans-6e" x="29.492188"/>
     <use xlink:href="#DejaVuSans-64" x="92.871094"/>
     <use xlink:href="#DejaVuSans-6f" x="156.347656"/>
     <use xlink:href="#DejaVuSans-6e" x="217.529297"/>
     <use xlink:href="#DejaVuSans-65" x="280.908203"/>
     <use xlink:href="#DejaVuSans-73" x="342.431641"/>
     <use xlink:href="#DejaVuSans-69" x="394.53125"/>
     <use xlink:href="#DejaVuSans-61" x="422.314453"/>
    </g>
   </g>
   <g id="text_12">
    <!-- 3% -->
    <g transform="translate(769.966843 1067.461264)scale(0.0579 -0.0579)">
     <use xlink:href="#DejaVuSans-33"/>
     <use xlink:href="#DejaVuSans-25" x="63.623047"/>
    </g>
   </g>
   <g id="text_13">
    <!-- Netherlands -->
    <g transform="translate(623.739305 752.162997)scale(0.0579 -0.0579)">
     <defs>
      <path id="DejaVuSans-4e" d="M 628 4666 
L 1478 4666 
L 3547 763 
L 3547 4666 
L 4159 4666 
L 4159 0 
L 3309 0 
L 1241 3903 
L 1241 0 
L 628 0 
L 628 4666 
z
" transform="scale(0.015625)"/>
      <path id="DejaVuSans-68" d="M 3513 2113 
L 3513 0 
L 2938 0 
L 2938 2094 
Q 2938 2591 2744 2837 
Q 2550 3084 2163 3084 
Q 1697 3084 1428 2787 
Q 1159 2491 1159 1978 
L 1159 0 
L 581 0 
L 581 4863 
L 1159 4863 
L 1159 2956 
Q 1366 3272 1645 3428 
Q 1925 3584 2291 3584 
Q 2894 3584 3203 3211 
Q 3513 2838 3513 2113 
z
" transform="scale(0.015625)"/>
     </defs>
     <use xlink:href="#DejaVuSans-4e"/>
     <use xlink:href="#DejaVuSans-65" x="74.804688"/>
     <use xlink:href="#DejaVuSans-74" x="136.328125"/>
     <use xlink:href="#DejaVuSans-68" x="175.537109"/>
     <use xlink:href="#DejaVuSans-65" x="238.916016"/>
     <use xlink:href="#DejaVuSans-72" x="300.439453"/>
     <use xlink:href="#DejaVuSans-6c" x="341.552734"/>
     <use xlink:href="#DejaVuSans-61" x="369.335938"/>
     <use xlink:href="#DejaVuSans-6e" x="430.615234"/>
     <use xlink:href="#DejaVuSans-64" x="493.994141"/>
     <use xlink:href="#DejaVuSans-73" x="557.470703"/>
    </g>
   </g>
   <g id="text_14">
    <!-- 3% -->
    <g transform="translate(690.021213 1068.035178)scale(0.0579 -0.0579)">
     <use xlink:href="#DejaVuSans-33"/>
     <use xlink:href="#DejaVuSans-25" x="63.623047"/>
    </g>
   </g>
   <g id="text_15">
    <!-- Kazakhstan -->
    <g transform="translate(514.93912 773.796583)scale(0.0579 -0.0579)">
     <defs>
      <path id="DejaVuSans-4b" d="M 628 4666 
L 1259 4666 
L 1259 2694 
L 3353 4666 
L 4166 4666 
L 1850 2491 
L 4331 0 
L 3500 0 
L 1259 2247 
L 1259 0 
L 628 0 
L 628 4666 
z
" transform="scale(0.015625)"/>
      <path id="DejaVuSans-7a" d="M 353 3500 
L 3084 3500 
L 3084 2975 
L 922 459 
L 3084 459 
L 3084 0 
L 275 0 
L 275 525 
L 2438 3041 
L 353 3041 
L 353 3500 
z
" transform="scale(0.015625)"/>
      <path id="DejaVuSans-6b" d="M 581 4863 
L 1159 4863 
L 1159 1991 
L 2875 3500 
L 3609 3500 
L 1753 1863 
L 3688 0 
L 2938 0 
L 1159 1709 
L 1159 0 
L 581 0 
L 581 4863 
z
" transform="scale(0.015625)"/>
     </defs>
     <use xlink:href="#DejaVuSans-4b"/>
     <use xlink:href="#DejaVuSans-61" x="63.826172"/>
     <use xlink:href="#DejaVuSans-7a" x="125.105469"/>
     <use xlink:href="#DejaVuSans-61" x="177.595703"/>
     <use xlink:href="#DejaVuSans-6b" x="238.875"/>
     <use xlink:href="#DejaVuSans-68" x="296.785156"/>
     <use xlink:href="#DejaVuSans-73" x="360.164062"/>
     <use xlink:href="#DejaVuSans-74" x="412.263672"/>
     <use xlink:href="#DejaVuSans-61" x="451.472656"/>
     <use xlink:href="#DejaVuSans-6e" x="512.751953"/>
    </g>
   </g>
   <g id="text_16">
    <!-- 2% -->
    <g transform="translate(629.618653 1079.835316)scale(0.0579 -0.0579)">
     <use xlink:href="#DejaVuSans-32"/>
     <use xlink:href="#DejaVuSans-25" x="63.623047"/>
    </g>
   </g>
   <g id="text_17">
    <!-- India -->
    <g transform="translate(464.568967 797.311825)scale(0.0579 -0.0579)">
     <use xlink:href="#DejaVuSans-49"/>
     <use xlink:href="#DejaVuSans-6e" x="29.492188"/>
     <use xlink:href="#DejaVuSans-64" x="92.871094"/>
     <use xlink:href="#DejaVuSans-69" x="156.347656"/>
     <use xlink:href="#DejaVuSans-61" x="184.130859"/>
    </g>
   </g>
   <g id="text_18">
    <!-- 2% -->
    <g transform="translate(591.700312 1092.661812)scale(0.0579 -0.0579)">
     <use xlink:href="#DejaVuSans-32"/>
     <use xlink:href="#DejaVuSans-25" x="63.623047"/>
    </g>
   </g>
   <g id="text_19">
    <!-- Ethiopia -->
    <g transform="translate(393.537876 825.376571)scale(0.0579 -0.0579)">
     <use xlink:href="#DejaVuSans-45"/>
     <use xlink:href="#DejaVuSans-74" x="63.183594"/>
     <use xlink:href="#DejaVuSans-68" x="102.392578"/>
     <use xlink:href="#DejaVuSans-69" x="165.771484"/>
     <use xlink:href="#DejaVuSans-6f" x="193.554688"/>
     <use xlink:href="#DejaVuSans-70" x="254.736328"/>
     <use xlink:href="#DejaVuSans-69" x="318.212891"/>
     <use xlink:href="#DejaVuSans-61" x="345.996094"/>
    </g>
   </g>
   <g id="text_20">
    <!-- 2% -->
    <g transform="translate(558.067894 1107.969855)scale(0.0579 -0.0579)">
     <use xlink:href="#DejaVuSans-32"/>
     <use xlink:href="#DejaVuSans-25" x="63.623047"/>
    </g>
   </g>
   <g id="text_21">
    <!-- Sri Lanka -->
    <g transform="translate(336.476414 856.235493)scale(0.0579 -0.0579)">
     <defs>
      <path id="DejaVuSans-4c" d="M 628 4666 
L 1259 4666 
L 1259 531 
L 3531 531 
L 3531 0 
L 628 0 
L 628 4666 
z
" transform="scale(0.015625)"/>
     </defs>
     <use xlink:href="#DejaVuSans-53"/>
     <use xlink:href="#DejaVuSans-72" x="63.476562"/>
     <use xlink:href="#DejaVuSans-69" x="104.589844"/>
     <use xlink:href="#DejaVuSans-20" x="132.373047"/>
     <use xlink:href="#DejaVuSans-4c" x="164.160156"/>
     <use xlink:href="#DejaVuSans-61" x="219.873047"/>
     <use xlink:href="#DejaVuSans-6e" x="281.152344"/>
     <use xlink:href="#DejaVuSans-6b" x="344.53125"/>
     <use xlink:href="#DejaVuSans-61" x="400.691406"/>
    </g>
   </g>
   <g id="text_22">
    <!-- 1% -->
    <g transform="translate(528.670591 1124.801994)scale(0.0579 -0.0579)">
     <use xlink:href="#DejaVuSans-31"/>
     <use xlink:href="#DejaVuSans-25" x="63.623047"/>
    </g>
   </g>
   <g id="text_23">
    <!-- Italy -->
    <g transform="translate(304.216775 888.339868)scale(0.0579 -0.0579)">
     <use xlink:href="#DejaVuSans-49"/>
     <use xlink:href="#DejaVuSans-74" x="29.492188"/>
     <use xlink:href="#DejaVuSans-61" x="68.701172"/>
     <use xlink:href="#DejaVuSans-6c" x="129.980469"/>
     <use xlink:href="#DejaVuSans-79" x="157.763672"/>
    </g>
   </g>
   <g id="text_24">
    <!-- 1% -->
    <g transform="translate(503.336385 1142.313472)scale(0.0579 -0.0579)">
     <use xlink:href="#DejaVuSans-31"/>
     <use xlink:href="#DejaVuSans-25" x="63.623047"/>
    </g>
   </g>
   <g id="text_25">
    <!-- Kyrgyzstan -->
    <g transform="translate(241.345362 924.086544)scale(0.0579 -0.0579)">
     <defs>
      <path id="DejaVuSans-67" d="M 2906 1791 
Q 2906 2416 2648 2759 
Q 2391 3103 1925 3103 
Q 1463 3103 1205 2759 
Q 947 2416 947 1791 
Q 947 1169 1205 825 
Q 1463 481 1925 481 
Q 2391 481 2648 825 
Q 2906 1169 2906 1791 
z
M 3481 434 
Q 3481 -459 3084 -895 
Q 2688 -1331 1869 -1331 
Q 1566 -1331 1297 -1286 
Q 1028 -1241 775 -1147 
L 775 -588 
Q 1028 -725 1275 -790 
Q 1522 -856 1778 -856 
Q 2344 -856 2625 -561 
Q 2906 -266 2906 331 
L 2906 616 
Q 2728 306 2450 153 
Q 2172 0 1784 0 
Q 1141 0 747 490 
Q 353 981 353 1791 
Q 353 2603 747 3093 
Q 1141 3584 1784 3584 
Q 2172 3584 2450 3431 
Q 2728 3278 2906 2969 
L 2906 3500 
L 3481 3500 
L 3481 434 
z
" transform="scale(0.015625)"/>
     </defs>
     <use xlink:href="#DejaVuSans-4b"/>
     <use xlink:href="#DejaVuSans-79" x="58.326172"/>
     <use xlink:href="#DejaVuSans-72" x="117.505859"/>
     <use xlink:href="#DejaVuSans-67" x="156.869141"/>
     <use xlink:href="#DejaVuSans-79" x="220.345703"/>
     <use xlink:href="#DejaVuSans-7a" x="279.525391"/>
     <use xlink:href="#DejaVuSans-73" x="332.015625"/>
     <use xlink:href="#DejaVuSans-74" x="384.115234"/>
     <use xlink:href="#DejaVuSans-61" x="423.324219"/>
     <use xlink:href="#DejaVuSans-6e" x="484.603516"/>
    </g>
   </g>
   <g id="text_26">
    <!-- 1% -->
    <g transform="translate(479.497456 1161.811658)scale(0.0579 -0.0579)">
     <use xlink:href="#DejaVuSans-31"/>
     <use xlink:href="#DejaVuSans-25" x="63.623047"/>
    </g>
   </g>
   <g id="text_27">
    <!-- Iran -->
    <g transform="translate(225.01326 959.180591)scale(0.0579 -0.0579)">
     <use xlink:href="#DejaVuSans-49"/>
     <use xlink:href="#DejaVuSans-72" x="29.492188"/>
     <use xlink:href="#DejaVuSans-61" x="70.605469"/>
     <use xlink:href="#DejaVuSans-6e" x="131.884766"/>
    </g>
   </g>
   <g id="text_28">
    <!-- 1% -->
    <g transform="translate(459.449537 1180.953866)scale(0.0579 -0.0579)">
     <use xlink:href="#DejaVuSans-31"/>
     <use xlink:href="#DejaVuSans-25" x="63.623047"/>
    </g>
   </g>
   <g id="text_29">
    <!-- Tajikistan -->
    <g transform="translate(179.05241 992.54434)scale(0.0579 -0.0579)">
     <defs>
      <path id="DejaVuSans-54" d="M -19 4666 
L 3928 4666 
L 3928 4134 
L 2272 4134 
L 2272 0 
L 1638 0 
L 1638 4134 
L -19 4134 
L -19 4666 
z
" transform="scale(0.015625)"/>
      <path id="DejaVuSans-6a" d="M 603 3500 
L 1178 3500 
L 1178 -63 
Q 1178 -731 923 -1031 
Q 669 -1331 103 -1331 
L -116 -1331 
L -116 -844 
L 38 -844 
Q 366 -844 484 -692 
Q 603 -541 603 -63 
L 603 3500 
z
M 603 4863 
L 1178 4863 
L 1178 4134 
L 603 4134 
L 603 4863 
z
" transform="scale(0.015625)"/>
     </defs>
     <use xlink:href="#DejaVuSans-54"/>
     <use xlink:href="#DejaVuSans-61" x="44.583984"/>
     <use xlink:href="#DejaVuSans-6a" x="105.863281"/>
     <use xlink:href="#DejaVuSans-69" x="133.646484"/>
     <use xlink:href="#DejaVuSans-6b" x="161.429688"/>
     <use xlink:href="#DejaVuSans-69" x="219.339844"/>
     <use xlink:href="#DejaVuSans-73" x="247.123047"/>
     <use xlink:href="#DejaVuSans-74" x="299.222656"/>
     <use xlink:href="#DejaVuSans-61" x="338.431641"/>
     <use xlink:href="#DejaVuSans-6e" x="399.710938"/>
    </g>
   </g>
   <g id="text_30">
    <!-- 1% -->
    <g transform="translate(442.837495 1199.152274)scale(0.0579 -0.0579)">
     <use xlink:href="#DejaVuSans-31"/>
     <use xlink:href="#DejaVuSans-25" x="63.623047"/>
    </g>
   </g>
   <g id="text_31">
    <!-- Egypt -->
    <g transform="translate(160.919082 1027.804791)scale(0.0579 -0.0579)">
     <use xlink:href="#DejaVuSans-45"/>
     <use xlink:href="#DejaVuSans-67" x="63.183594"/>
     <use xlink:href="#DejaVuSans-79" x="126.660156"/>
     <use xlink:href="#DejaVuSans-70" x="185.839844"/>
     <use xlink:href="#DejaVuSans-74" x="249.316406"/>
    </g>
   </g>
   <g id="text_32">
    <!-- 1% -->
    <g transform="translate(427.435068 1218.385248)scale(0.0579 -0.0579)">
     <use xlink:href="#DejaVuSans-31"/>
     <use xlink:href="#DejaVuSans-25" x="63.623047"/>
    </g>
   </g>
   <g id="text_33">
    <!-- North Korea -->
    <g transform="translate(120.384829 1060.098089)scale(0.0579 -0.0579)">
     <use xlink:href="#DejaVuSans-4e"/>
     <use xlink:href="#DejaVuSans-6f" x="74.804688"/>
     <use xlink:href="#DejaVuSans-72" x="135.986328"/>
     <use xlink:href="#DejaVuSans-74" x="177.099609"/>
     <use xlink:href="#DejaVuSans-68" x="216.308594"/>
     <use xlink:href="#DejaVuSans-20" x="279.6875"/>
     <use xlink:href="#DejaVuSans-4b" x="311.474609"/>
     <use xlink:href="#DejaVuSans-6f" x="372.050781"/>
     <use xlink:href="#DejaVuSans-72" x="433.232422"/>
     <use xlink:href="#DejaVuSans-65" x="472.095703"/>
     <use xlink:href="#DejaVuSans-61" x="533.619141"/>
    </g>
   </g>
   <g id="text_34">
    <!-- 1% -->
    <g transform="translate(415.000861 1235.999774)scale(0.0579 -0.0579)">
     <use xlink:href="#DejaVuSans-31"/>
     <use xlink:href="#DejaVuSans-25" x="63.623047"/>
    </g>
   </g>
   <g id="text_35">
    <!-- Switzerland -->
    <g transform="translate(102.996201 1088.766186)scale(0.0579 -0.0579)">
     <defs>
      <path id="DejaVuSans-77" d="M 269 3500 
L 844 3500 
L 1563 769 
L 2278 3500 
L 2956 3500 
L 3675 769 
L 4391 3500 
L 4966 3500 
L 4050 0 
L 3372 0 
L 2619 2869 
L 1863 0 
L 1184 0 
L 269 3500 
z
" transform="scale(0.015625)"/>
     </defs>
     <use xlink:href="#DejaVuSans-53"/>
     <use xlink:href="#DejaVuSans-77" x="63.476562"/>
     <use xlink:href="#DejaVuSans-69" x="145.263672"/>
     <use xlink:href="#DejaVuSans-74" x="173.046875"/>
     <use xlink:href="#DejaVuSans-7a" x="212.255859"/>
     <use xlink:href="#DejaVuSans-65" x="264.746094"/>
     <use xlink:href="#DejaVuSans-72" x="326.269531"/>
     <use xlink:href="#DejaVuSans-6c" x="367.382812"/>
     <use xlink:href="#DejaVuSans-61" x="395.166016"/>
     <use xlink:href="#DejaVuSans-6e" x="456.445312"/>
     <use xlink:href="#DejaVuSans-64" x="519.824219"/>
    </g>
   </g>
   <g id="text_36">
    <!-- 1% -->
    <g transform="translate(405.14951 1251.636918)scale(0.0579 -0.0579)">
     <use xlink:href="#DejaVuSans-31"/>
     <use xlink:href="#DejaVuSans-25" x="63.623047"/>
    </g>
   </g>
   <g id="text_37">
    <!-- New Zealand -->
    <g transform="translate(82.069646 1118.275453)scale(0.0579 -0.0579)">
     <defs>
      <path id="DejaVuSans-5a" d="M 359 4666 
L 4025 4666 
L 4025 4184 
L 1075 531 
L 4097 531 
L 4097 0 
L 288 0 
L 288 481 
L 3238 4134 
L 359 4134 
L 359 4666 
z
" transform="scale(0.015625)"/>
     </defs>
     <use xlink:href="#DejaVuSans-4e"/>
     <use xlink:href="#DejaVuSans-65" x="74.804688"/>
     <use xlink:href="#DejaVuSans-77" x="136.328125"/>
     <use xlink:href="#DejaVuSans-20" x="218.115234"/>
     <use xlink:href="#DejaVuSans-5a" x="249.902344"/>
     <use xlink:href="#DejaVuSans-65" x="318.408203"/>
     <use xlink:href="#DejaVuSans-61" x="379.931641"/>
     <use xlink:href="#DejaVuSans-6c" x="441.210938"/>
     <use xlink:href="#DejaVuSans-61" x="468.994141"/>
     <use xlink:href="#DejaVuSans-6e" x="530.273438"/>
     <use xlink:href="#DejaVuSans-64" x="593.652344"/>
    </g>
   </g>
   <g id="text_38">
    <!-- 1% -->
    <g transform="translate(396.067146 1267.732882)scale(0.0579 -0.0579)">
     <use xlink:href="#DejaVuSans-31"/>
     <use xlink:href="#DejaVuSans-25" x="63.623047"/>
    </g>
   </g>
   <g id="text_39">
    <!-- Denmark -->
    <g transform="translate(78.304604 1148.556615)scale(0.0579 -0.0579)">
     <defs>
      <path id="DejaVuSans-44" d="M 1259 4147 
L 1259 519 
L 2022 519 
Q 2988 519 3436 956 
Q 3884 1394 3884 2338 
Q 3884 3275 3436 3711 
Q 2988 4147 2022 4147 
L 1259 4147 
z
M 628 4666 
L 1925 4666 
Q 3281 4666 3915 4102 
Q 4550 3538 4550 2338 
Q 4550 1131 3912 565 
Q 3275 0 1925 0 
L 628 0 
L 628 4666 
z
" transform="scale(0.015625)"/>
     </defs>
     <use xlink:href="#DejaVuSans-44"/>
     <use xlink:href="#DejaVuSans-65" x="77.001953"/>
     <use xlink:href="#DejaVuSans-6e" x="138.525391"/>
     <use xlink:href="#DejaVuSans-6d" x="201.904297"/>
     <use xlink:href="#DejaVuSans-61" x="299.316406"/>
     <use xlink:href="#DejaVuSans-72" x="360.595703"/>
     <use xlink:href="#DejaVuSans-6b" x="401.708984"/>
    </g>
   </g>
   <g id="text_40">
    <!-- 1% -->
    <g transform="translate(387.77509 1284.249879)scale(0.0579 -0.0579)">
     <use xlink:href="#DejaVuSans-31"/>
     <use xlink:href="#DejaVuSans-25" x="63.623047"/>
    </g>
   </g>
   <g id="text_41">
    <!-- Spain -->
    <g transform="translate(77.202596 1174.329324)scale(0.0579 -0.0579)">
     <use xlink:href="#DejaVuSans-53"/>
     <use xlink:href="#DejaVuSans-70" x="63.476562"/>
     <use xlink:href="#DejaVuSans-61" x="126.953125"/>
     <use xlink:href="#DejaVuSans-69" x="188.232422"/>
     <use xlink:href="#DejaVuSans-6e" x="216.015625"/>
    </g>
   </g>
   <g id="text_42">
    <!-- 1% -->
    <g transform="translate(381.482853 1298.30772)scale(0.0579 -0.0579)">
     <use xlink:href="#DejaVuSans-31"/>
     <use xlink:href="#DejaVuSans-25" x="63.623047"/>
    </g>
   </g>
   <g id="text_43">
    <!-- Sweden -->
    <g transform="translate(62.025281 1195.269703)scale(0.0579 -0.0579)">
     <use xlink:href="#DejaVuSans-53"/>
     <use xlink:href="#DejaVuSans-77" x="63.476562"/>
     <use xlink:href="#DejaVuSans-65" x="145.263672"/>
     <use xlink:href="#DejaVuSans-64" x="206.787109"/>
     <use xlink:href="#DejaVuSans-65" x="270.263672"/>
     <use xlink:href="#DejaVuSans-6e" x="331.787109"/>
    </g>
   </g>
   <g id="text_44">
    <!-- 1% -->
    <g transform="translate(376.860899 1309.729746)scale(0.0579 -0.0579)">
     <use xlink:href="#DejaVuSans-31"/>
     <use xlink:href="#DejaVuSans-25" x="63.623047"/>
    </g>
   </g>
   <g id="text_45">
    <!-- Azerbaijan -->
    <g transform="translate(46.512769 1216.472843)scale(0.0579 -0.0579)">
     <use xlink:href="#DejaVuSans-41"/>
     <use xlink:href="#DejaVuSans-7a" x="68.408203"/>
     <use xlink:href="#DejaVuSans-65" x="120.898438"/>
     <use xlink:href="#DejaVuSans-72" x="182.421875"/>
     <use xlink:href="#DejaVuSans-62" x="223.535156"/>
     <use xlink:href="#DejaVuSans-61" x="287.011719"/>
     <use xlink:href="#DejaVuSans-69" x="348.291016"/>
     <use xlink:href="#DejaVuSans-6a" x="376.074219"/>
     <use xlink:href="#DejaVuSans-61" x="403.857422"/>
     <use xlink:href="#DejaVuSans-6e" x="465.136719"/>
    </g>
   </g>
   <g id="text_46">
    <!-- 1% -->
    <g transform="translate(372.610274 1321.295094)scale(0.0579 -0.0579)">
     <use xlink:href="#DejaVuSans-31"/>
     <use xlink:href="#DejaVuSans-25" x="63.623047"/>
    </g>
   </g>
   <g id="text_47">
    <!-- Belgium -->
    <g transform="translate(46.272719 1237.916618)scale(0.0579 -0.0579)">
     <defs>
      <path id="DejaVuSans-42" d="M 1259 2228 
L 1259 519 
L 2272 519 
Q 2781 519 3026 730 
Q 3272 941 3272 1375 
Q 3272 1813 3026 2020 
Q 2781 2228 2272 2228 
L 1259 2228 
z
M 1259 4147 
L 1259 2741 
L 2194 2741 
Q 2656 2741 2882 2914 
Q 3109 3088 3109 3444 
Q 3109 3797 2882 3972 
Q 2656 4147 2194 4147 
L 1259 4147 
z
M 628 4666 
L 2241 4666 
Q 2963 4666 3353 4366 
Q 3744 4066 3744 3513 
Q 3744 3084 3544 2831 
Q 3344 2578 2956 2516 
Q 3422 2416 3680 2098 
Q 3938 1781 3938 1306 
Q 3938 681 3513 340 
Q 3088 0 2303 0 
L 628 0 
L 628 4666 
z
" transform="scale(0.015625)"/>
     </defs>
     <use xlink:href="#DejaVuSans-42"/>
     <use xlink:href="#DejaVuSans-65" x="68.603516"/>
     <use xlink:href="#DejaVuSans-6c" x="130.126953"/>
     <use xlink:href="#DejaVuSans-67" x="157.910156"/>
     <use xlink:href="#DejaVuSans-69" x="221.386719"/>
     <use xlink:href="#DejaVuSans-75" x="249.169922"/>
     <use xlink:href="#DejaVuSans-6d" x="312.548828"/>
    </g>
   </g>
   <g id="text_48">
    <!-- 1% -->
    <g transform="translate(368.735411 1332.991699)scale(0.0579 -0.0579)">
     <use xlink:href="#DejaVuSans-31"/>
     <use xlink:href="#DejaVuSans-25" x="63.623047"/>
    </g>
   </g>
   <g id="text_49">
    <!-- Mauritius -->
    <g transform="translate(36.836222 1259.578652)scale(0.0579 -0.0579)">
     <use xlink:href="#DejaVuSans-4d"/>
     <use xlink:href="#DejaVuSans-61" x="86.279297"/>
     <use xlink:href="#DejaVuSans-75" x="147.558594"/>
     <use xlink:href="#DejaVuSans-72" x="210.9375"/>
     <use xlink:href="#DejaVuSans-69" x="252.050781"/>
     <use xlink:href="#DejaVuSans-74" x="279.833984"/>
     <use xlink:href="#DejaVuSans-69" x="319.042969"/>
     <use xlink:href="#DejaVuSans-75" x="346.826172"/>
     <use xlink:href="#DejaVuSans-73" x="410.205078"/>
    </g>
   </g>
   <g id="text_50">
    <!-- 1% -->
    <g transform="translate(365.240356 1344.807354)scale(0.0579 -0.0579)">
     <use xlink:href="#DejaVuSans-31"/>
     <use xlink:href="#DejaVuSans-25" x="63.623047"/>
    </g>
   </g>
   <g id="text_51">
    <!-- Turkmenistan -->
    <g transform="translate(20.210392 1275.95482)scale(0.0579 -0.0579)">
     <use xlink:href="#DejaVuSans-54"/>
     <use xlink:href="#DejaVuSans-75" x="45.958984"/>
     <use xlink:href="#DejaVuSans-72" x="109.337891"/>
     <use xlink:href="#DejaVuSans-6b" x="150.451172"/>
     <use xlink:href="#DejaVuSans-6d" x="208.361328"/>
     <use xlink:href="#DejaVuSans-65" x="305.773438"/>
     <use xlink:href="#DejaVuSans-6e" x="367.296875"/>
     <use xlink:href="#DejaVuSans-69" x="430.675781"/>
     <use xlink:href="#DejaVuSans-73" x="458.458984"/>
     <use xlink:href="#DejaVuSans-74" x="510.558594"/>
     <use xlink:href="#DejaVuSans-61" x="549.767578"/>
     <use xlink:href="#DejaVuSans-6e" x="611.046875"/>
    </g>
   </g>
   <g id="text_52">
    <!-- 0% -->
    <g transform="translate(362.870521 1353.739809)scale(0.0579 -0.0579)">
     <defs>
      <path id="DejaVuSans-30" d="M 2034 4250 
Q 1547 4250 1301 3770 
Q 1056 3291 1056 2328 
Q 1056 1369 1301 889 
Q 1547 409 2034 409 
Q 2525 409 2770 889 
Q 3016 1369 3016 2328 
Q 3016 3291 2770 3770 
Q 2525 4250 2034 4250 
z
M 2034 4750 
Q 2819 4750 3233 4129 
Q 3647 3509 3647 2328 
Q 3647 1150 3233 529 
Q 2819 -91 2034 -91 
Q 1250 -91 836 529 
Q 422 1150 422 2328 
Q 422 3509 836 4129 
Q 1250 4750 2034 4750 
z
" transform="scale(0.015625)"/>
     </defs>
     <use xlink:href="#DejaVuSans-30"/>
     <use xlink:href="#DejaVuSans-25" x="63.623047"/>
    </g>
   </g>
   <g id="text_53">
    <!-- Brunei -->
    <g transform="translate(37.719374 1286.928665)scale(0.0579 -0.0579)">
     <use xlink:href="#DejaVuSans-42"/>
     <use xlink:href="#DejaVuSans-72" x="68.603516"/>
     <use xlink:href="#DejaVuSans-75" x="109.716797"/>
     <use xlink:href="#DejaVuSans-6e" x="173.095703"/>
     <use xlink:href="#DejaVuSans-65" x="236.474609"/>
     <use xlink:href="#DejaVuSans-69" x="297.998047"/>
    </g>
   </g>
   <g id="text_54">
    <!-- 0% -->
    <g transform="translate(361.411157 1359.725543)scale(0.0579 -0.0579)">
     <use xlink:href="#DejaVuSans-30"/>
     <use xlink:href="#DejaVuSans-25" x="63.623047"/>
    </g>
   </g>
   <g id="text_55">
    <!-- Algeria -->
    <g transform="translate(33.739588 1297.944292)scale(0.0579 -0.0579)">
     <use xlink:href="#DejaVuSans-41"/>
     <use xlink:href="#DejaVuSans-6c" x="68.408203"/>
     <use xlink:href="#DejaVuSans-67" x="96.191406"/>
     <use xlink:href="#DejaVuSans-65" x="159.667969"/>
     <use xlink:href="#DejaVuSans-72" x="221.191406"/>
     <use xlink:href="#DejaVuSans-69" x="262.304688"/>
     <use xlink:href="#DejaVuSans-61" x="290.087891"/>
    </g>
   </g>
   <g id="text_56">
    <!-- 0% -->
    <g transform="translate(360.048661 1365.734067)scale(0.0579 -0.0579)">
     <use xlink:href="#DejaVuSans-30"/>
     <use xlink:href="#DejaVuSans-25" x="63.623047"/>
    </g>
   </g>
   <g id="text_57">
    <!-- Georgia -->
    <g transform="translate(29.061403 1308.998828)scale(0.0579 -0.0579)">
     <defs>
      <path id="DejaVuSans-47" d="M 3809 666 
L 3809 1919 
L 2778 1919 
L 2778 2438 
L 4434 2438 
L 4434 434 
Q 4069 175 3628 42 
Q 3188 -91 2688 -91 
Q 1594 -91 976 548 
Q 359 1188 359 2328 
Q 359 3472 976 4111 
Q 1594 4750 2688 4750 
Q 3144 4750 3555 4637 
Q 3966 4525 4313 4306 
L 4313 3634 
Q 3963 3931 3569 4081 
Q 3175 4231 2741 4231 
Q 1884 4231 1454 3753 
Q 1025 3275 1025 2328 
Q 1025 1384 1454 906 
Q 1884 428 2741 428 
Q 3075 428 3337 486 
Q 3600 544 3809 666 
z
" transform="scale(0.015625)"/>
     </defs>
     <use xlink:href="#DejaVuSans-47"/>
     <use xlink:href="#DejaVuSans-65" x="77.490234"/>
     <use xlink:href="#DejaVuSans-6f" x="139.013672"/>
     <use xlink:href="#DejaVuSans-72" x="200.195312"/>
     <use xlink:href="#DejaVuSans-67" x="239.558594"/>
     <use xlink:href="#DejaVuSans-69" x="303.035156"/>
     <use xlink:href="#DejaVuSans-61" x="330.818359"/>
    </g>
   </g>
   <g id="text_58">
    <!-- 0% -->
    <g transform="translate(358.78339 1371.763813)scale(0.0579 -0.0579)">
     <use xlink:href="#DejaVuSans-30"/>
     <use xlink:href="#DejaVuSans-25" x="63.623047"/>
    </g>
   </g>
   <g id="text_59">
    <!-- Angola -->
    <g transform="translate(29.618367 1320.089387)scale(0.0579 -0.0579)">
     <use xlink:href="#DejaVuSans-41"/>
     <use xlink:href="#DejaVuSans-6e" x="68.408203"/>
     <use xlink:href="#DejaVuSans-67" x="131.787109"/>
     <use xlink:href="#DejaVuSans-6f" x="195.263672"/>
     <use xlink:href="#DejaVuSans-6c" x="256.445312"/>
     <use xlink:href="#DejaVuSans-61" x="284.228516"/>
    </g>
   </g>
   <g id="text_60">
    <!-- 0% -->
    <g transform="translate(357.615673 1377.813209)scale(0.0579 -0.0579)">
     <use xlink:href="#DejaVuSans-30"/>
     <use xlink:href="#DejaVuSans-25" x="63.623047"/>
    </g>
   </g>
   <g id="text_61">
    <!-- China Inbound InBound Flight distribution -->
    <g transform="translate(609.087901 20.8)scale(0.12 -0.12)">
     <defs>
      <path id="DejaVuSans-43" d="M 4122 4306 
L 4122 3641 
Q 3803 3938 3442 4084 
Q 3081 4231 2675 4231 
Q 1875 4231 1450 3742 
Q 1025 3253 1025 2328 
Q 1025 1406 1450 917 
Q 1875 428 2675 428 
Q 3081 428 3442 575 
Q 3803 722 4122 1019 
L 4122 359 
Q 3791 134 3420 21 
Q 3050 -91 2638 -91 
Q 1578 -91 968 557 
Q 359 1206 359 2328 
Q 359 3453 968 4101 
Q 1578 4750 2638 4750 
Q 3056 4750 3426 4639 
Q 3797 4528 4122 4306 
z
" transform="scale(0.015625)"/>
      <path id="DejaVuSans-46" d="M 628 4666 
L 3309 4666 
L 3309 4134 
L 1259 4134 
L 1259 2759 
L 3109 2759 
L 3109 2228 
L 1259 2228 
L 1259 0 
L 628 0 
L 628 4666 
z
" transform="scale(0.015625)"/>
     </defs>
     <use xlink:href="#DejaVuSans-43"/>
     <use xlink:href="#DejaVuSans-68" x="69.824219"/>
     <use xlink:href="#DejaVuSans-69" x="133.203125"/>
     <use xlink:href="#DejaVuSans-6e" x="160.986328"/>
     <use xlink:href="#DejaVuSans-61" x="224.365234"/>
     <use xlink:href="#DejaVuSans-20" x="285.644531"/>
     <use xlink:href="#DejaVuSans-49" x="317.431641"/>
     <use xlink:href="#DejaVuSans-6e" x="346.923828"/>
     <use xlink:href="#DejaVuSans-62" x="410.302734"/>
     <use xlink:href="#DejaVuSans-6f" x="473.779297"/>
     <use xlink:href="#DejaVuSans-75" x="534.960938"/>
     <use xlink:href="#DejaVuSans-6e" x="598.339844"/>
     <use xlink:href="#DejaVuSans-64" x="661.71875"/>
     <use xlink:href="#DejaVuSans-20" x="725.195312"/>
     <use xlink:href="#DejaVuSans-49" x="756.982422"/>
     <use xlink:href="#DejaVuSans-6e" x="786.474609"/>
     <use xlink:href="#DejaVuSans-42" x="849.853516"/>
     <use xlink:href="#DejaVuSans-6f" x="918.457031"/>
     <use xlink:href="#DejaVuSans-75" x="979.638672"/>
     <use xlink:href="#DejaVuSans-6e" x="1043.017578"/>
     <use xlink:href="#DejaVuSans-64" x="1106.396484"/>
     <use xlink:href="#DejaVuSans-20" x="1169.873047"/>
     <use xlink:href="#DejaVuSans-46" x="1201.660156"/>
     <use xlink:href="#DejaVuSans-6c" x="1259.179688"/>
     <use xlink:href="#DejaVuSans-69" x="1286.962891"/>
     <use xlink:href="#DejaVuSans-67" x="1314.746094"/>
     <use xlink:href="#DejaVuSans-68" x="1378.222656"/>
     <use xlink:href="#DejaVuSans-74" x="1441.601562"/>
     <use xlink:href="#DejaVuSans-20" x="1480.810547"/>
     <use xlink:href="#DejaVuSans-64" x="1512.597656"/>
     <use xlink:href="#DejaVuSans-69" x="1576.074219"/>
     <use xlink:href="#DejaVuSans-73" x="1603.857422"/>
     <use xlink:href="#DejaVuSans-74" x="1655.957031"/>
     <use xlink:href="#DejaVuSans-72" x="1695.166016"/>
     <use xlink:href="#DejaVuSans-69" x="1736.279297"/>
     <use xlink:href="#DejaVuSans-62" x="1764.0625"/>
     <use xlink:href="#DejaVuSans-75" x="1827.539062"/>
     <use xlink:href="#DejaVuSans-74" x="1890.917969"/>
     <use xlink:href="#DejaVuSans-69" x="1930.126953"/>
     <use xlink:href="#DejaVuSans-6f" x="1957.910156"/>
     <use xlink:href="#DejaVuSans-6e" x="2019.091797"/>
    </g>
   </g>
  </g>
  <g id="axes_2">
   <g id="legend_1">
    <g id="patch_32">
     <path d="M 1459.956726 1669.671875 
L 1598.956726 1669.671875 
Q 1600.956726 1669.671875 1600.956726 1667.671875 
L 1600.956726 1228.328125 
Q 1600.956726 1226.328125 1598.956726 1226.328125 
L 1459.956726 1226.328125 
Q 1457.956726 1226.328125 1457.956726 1228.328125 
L 1457.956726 1667.671875 
Q 1457.956726 1669.671875 1459.956726 1669.671875 
z
" style="fill: #ffffff; opacity: 0.8; stroke: #cccccc; stroke-linejoin: miter"/>
    </g>
    <g id="patch_33">
     <path d="M 1461.956726 1237.926562 
L 1481.956726 1237.926562 
L 1481.956726 1230.926562 
L 1461.956726 1230.926562 
z
" style="fill: #8000ff"/>
    </g>
    <g id="text_62">
     <!-- Japan -->
     <g transform="translate(1489.956726 1237.926562)scale(0.1 -0.1)">
      <use xlink:href="#DejaVuSans-4a"/>
      <use xlink:href="#DejaVuSans-61" x="29.492188"/>
      <use xlink:href="#DejaVuSans-70" x="90.771484"/>
      <use xlink:href="#DejaVuSans-61" x="154.248047"/>
      <use xlink:href="#DejaVuSans-6e" x="215.527344"/>
     </g>
    </g>
    <g id="patch_34">
     <path d="M 1461.956726 1252.604687 
L 1481.956726 1252.604687 
L 1481.956726 1245.604687 
L 1461.956726 1245.604687 
z
" style="fill: #7019ff"/>
    </g>
    <g id="text_63">
     <!-- United States -->
     <g transform="translate(1489.956726 1252.604687)scale(0.1 -0.1)">
      <use xlink:href="#DejaVuSans-55"/>
      <use xlink:href="#DejaVuSans-6e" x="73.193359"/>
      <use xlink:href="#DejaVuSans-69" x="136.572266"/>
      <use xlink:href="#DejaVuSans-74" x="164.355469"/>
      <use xlink:href="#DejaVuSans-65" x="203.564453"/>
      <use xlink:href="#DejaVuSans-64" x="265.087891"/>
      <use xlink:href="#DejaVuSans-20" x="328.564453"/>
      <use xlink:href="#DejaVuSans-53" x="360.351562"/>
      <use xlink:href="#DejaVuSans-74" x="423.828125"/>
      <use xlink:href="#DejaVuSans-61" x="463.037109"/>
      <use xlink:href="#DejaVuSans-74" x="524.316406"/>
      <use xlink:href="#DejaVuSans-65" x="563.525391"/>
      <use xlink:href="#DejaVuSans-73" x="625.048828"/>
     </g>
    </g>
    <g id="patch_35">
     <path d="M 1461.956726 1267.282812 
L 1481.956726 1267.282812 
L 1481.956726 1260.282812 
L 1461.956726 1260.282812 
z
" style="fill: #5e35fe"/>
    </g>
    <g id="text_64">
     <!-- Macau -->
     <g transform="translate(1489.956726 1267.282812)scale(0.1 -0.1)">
      <use xlink:href="#DejaVuSans-4d"/>
      <use xlink:href="#DejaVuSans-61" x="86.279297"/>
      <use xlink:href="#DejaVuSans-63" x="147.558594"/>
      <use xlink:href="#DejaVuSans-61" x="202.539062"/>
      <use xlink:href="#DejaVuSans-75" x="263.818359"/>
     </g>
    </g>
    <g id="patch_36">
     <path d="M 1461.956726 1281.960937 
L 1481.956726 1281.960937 
L 1481.956726 1274.960937 
L 1461.956726 1274.960937 
z
" style="fill: #4e4dfc"/>
    </g>
    <g id="text_65">
     <!-- Malaysia -->
     <g transform="translate(1489.956726 1281.960937)scale(0.1 -0.1)">
      <use xlink:href="#DejaVuSans-4d"/>
      <use xlink:href="#DejaVuSans-61" x="86.279297"/>
      <use xlink:href="#DejaVuSans-6c" x="147.558594"/>
      <use xlink:href="#DejaVuSans-61" x="175.341797"/>
      <use xlink:href="#DejaVuSans-79" x="236.621094"/>
      <use xlink:href="#DejaVuSans-73" x="295.800781"/>
      <use xlink:href="#DejaVuSans-69" x="347.900391"/>
      <use xlink:href="#DejaVuSans-61" x="375.683594"/>
     </g>
    </g>
    <g id="patch_37">
     <path d="M 1461.956726 1296.639062 
L 1481.956726 1296.639062 
L 1481.956726 1289.639062 
L 1461.956726 1289.639062 
z
" style="fill: #3c68f9"/>
    </g>
    <g id="text_66">
     <!-- United Arab Emirates -->
     <g transform="translate(1489.956726 1296.639062)scale(0.1 -0.1)">
      <use xlink:href="#DejaVuSans-55"/>
      <use xlink:href="#DejaVuSans-6e" x="73.193359"/>
      <use xlink:href="#DejaVuSans-69" x="136.572266"/>
      <use xlink:href="#DejaVuSans-74" x="164.355469"/>
      <use xlink:href="#DejaVuSans-65" x="203.564453"/>
      <use xlink:href="#DejaVuSans-64" x="265.087891"/>
      <use xlink:href="#DejaVuSans-20" x="328.564453"/>
      <use xlink:href="#DejaVuSans-41" x="360.351562"/>
      <use xlink:href="#DejaVuSans-72" x="428.759766"/>
      <use xlink:href="#DejaVuSans-61" x="469.873047"/>
      <use xlink:href="#DejaVuSans-62" x="531.152344"/>
      <use xlink:href="#DejaVuSans-20" x="594.628906"/>
      <use xlink:href="#DejaVuSans-45" x="626.416016"/>
      <use xlink:href="#DejaVuSans-6d" x="689.599609"/>
      <use xlink:href="#DejaVuSans-69" x="787.011719"/>
      <use xlink:href="#DejaVuSans-72" x="814.794922"/>
      <use xlink:href="#DejaVuSans-61" x="855.908203"/>
      <use xlink:href="#DejaVuSans-74" x="917.1875"/>
      <use xlink:href="#DejaVuSans-65" x="956.396484"/>
      <use xlink:href="#DejaVuSans-73" x="1017.919922"/>
     </g>
    </g>
    <g id="patch_38">
     <path d="M 1461.956726 1311.317187 
L 1481.956726 1311.317187 
L 1481.956726 1304.317187 
L 1461.956726 1304.317187 
z
" style="fill: #2c7ef7"/>
    </g>
    <g id="text_67">
     <!-- Indonesia -->
     <g transform="translate(1489.956726 1311.317187)scale(0.1 -0.1)">
      <use xlink:href="#DejaVuSans-49"/>
      <use xlink:href="#DejaVuSans-6e" x="29.492188"/>
      <use xlink:href="#DejaVuSans-64" x="92.871094"/>
      <use xlink:href="#DejaVuSans-6f" x="156.347656"/>
      <use xlink:href="#DejaVuSans-6e" x="217.529297"/>
      <use xlink:href="#DejaVuSans-65" x="280.908203"/>
      <use xlink:href="#DejaVuSans-73" x="342.431641"/>
      <use xlink:href="#DejaVuSans-69" x="394.53125"/>
      <use xlink:href="#DejaVuSans-61" x="422.314453"/>
     </g>
    </g>
    <g id="patch_39">
     <path d="M 1461.956726 1325.995312 
L 1481.956726 1325.995312 
L 1481.956726 1318.995312 
L 1461.956726 1318.995312 
z
" style="fill: #1996f3"/>
    </g>
    <g id="text_68">
     <!-- Netherlands -->
     <g transform="translate(1489.956726 1325.995312)scale(0.1 -0.1)">
      <use xlink:href="#DejaVuSans-4e"/>
      <use xlink:href="#DejaVuSans-65" x="74.804688"/>
      <use xlink:href="#DejaVuSans-74" x="136.328125"/>
      <use xlink:href="#DejaVuSans-68" x="175.537109"/>
      <use xlink:href="#DejaVuSans-65" x="238.916016"/>
      <use xlink:href="#DejaVuSans-72" x="300.439453"/>
      <use xlink:href="#DejaVuSans-6c" x="341.552734"/>
      <use xlink:href="#DejaVuSans-61" x="369.335938"/>
      <use xlink:href="#DejaVuSans-6e" x="430.615234"/>
      <use xlink:href="#DejaVuSans-64" x="493.994141"/>
      <use xlink:href="#DejaVuSans-73" x="557.470703"/>
     </g>
    </g>
    <g id="patch_40">
     <path d="M 1461.956726 1340.673437 
L 1481.956726 1340.673437 
L 1481.956726 1333.673437 
L 1461.956726 1333.673437 
z
" style="fill: #09a9ee"/>
    </g>
    <g id="text_69">
     <!-- Kazakhstan -->
     <g transform="translate(1489.956726 1340.673437)scale(0.1 -0.1)">
      <use xlink:href="#DejaVuSans-4b"/>
      <use xlink:href="#DejaVuSans-61" x="63.826172"/>
      <use xlink:href="#DejaVuSans-7a" x="125.105469"/>
      <use xlink:href="#DejaVuSans-61" x="177.595703"/>
      <use xlink:href="#DejaVuSans-6b" x="238.875"/>
      <use xlink:href="#DejaVuSans-68" x="296.785156"/>
      <use xlink:href="#DejaVuSans-73" x="360.164062"/>
      <use xlink:href="#DejaVuSans-74" x="412.263672"/>
      <use xlink:href="#DejaVuSans-61" x="451.472656"/>
      <use xlink:href="#DejaVuSans-6e" x="512.751953"/>
     </g>
    </g>
    <g id="patch_41">
     <path d="M 1461.956726 1355.351562 
L 1481.956726 1355.351562 
L 1481.956726 1348.351562 
L 1461.956726 1348.351562 
z
" style="fill: #08bee9"/>
    </g>
    <g id="text_70">
     <!-- India -->
     <g transform="translate(1489.956726 1355.351562)scale(0.1 -0.1)">
      <use xlink:href="#DejaVuSans-49"/>
      <use xlink:href="#DejaVuSans-6e" x="29.492188"/>
      <use xlink:href="#DejaVuSans-64" x="92.871094"/>
      <use xlink:href="#DejaVuSans-69" x="156.347656"/>
      <use xlink:href="#DejaVuSans-61" x="184.130859"/>
     </g>
    </g>
    <g id="patch_42">
     <path d="M 1461.956726 1370.029687 
L 1481.956726 1370.029687 
L 1481.956726 1363.029687 
L 1461.956726 1363.029687 
z
" style="fill: #18cde4"/>
    </g>
    <g id="text_71">
     <!-- Ethiopia -->
     <g transform="translate(1489.956726 1370.029687)scale(0.1 -0.1)">
      <use xlink:href="#DejaVuSans-45"/>
      <use xlink:href="#DejaVuSans-74" x="63.183594"/>
      <use xlink:href="#DejaVuSans-68" x="102.392578"/>
      <use xlink:href="#DejaVuSans-69" x="165.771484"/>
      <use xlink:href="#DejaVuSans-6f" x="193.554688"/>
      <use xlink:href="#DejaVuSans-70" x="254.736328"/>
      <use xlink:href="#DejaVuSans-69" x="318.212891"/>
      <use xlink:href="#DejaVuSans-61" x="345.996094"/>
     </g>
    </g>
    <g id="patch_43">
     <path d="M 1461.956726 1384.707812 
L 1481.956726 1384.707812 
L 1481.956726 1377.707812 
L 1461.956726 1377.707812 
z
" style="fill: #2adddd"/>
    </g>
    <g id="text_72">
     <!-- Sri Lanka -->
     <g transform="translate(1489.956726 1384.707812)scale(0.1 -0.1)">
      <use xlink:href="#DejaVuSans-53"/>
      <use xlink:href="#DejaVuSans-72" x="63.476562"/>
      <use xlink:href="#DejaVuSans-69" x="104.589844"/>
      <use xlink:href="#DejaVuSans-20" x="132.373047"/>
      <use xlink:href="#DejaVuSans-4c" x="164.160156"/>
      <use xlink:href="#DejaVuSans-61" x="219.873047"/>
      <use xlink:href="#DejaVuSans-6e" x="281.152344"/>
      <use xlink:href="#DejaVuSans-6b" x="344.53125"/>
      <use xlink:href="#DejaVuSans-61" x="400.691406"/>
     </g>
    </g>
    <g id="patch_44">
     <path d="M 1461.956726 1399.385937 
L 1481.956726 1399.385937 
L 1481.956726 1392.385937 
L 1461.956726 1392.385937 
z
" style="fill: #3ae8d6"/>
    </g>
    <g id="text_73">
     <!-- Italy -->
     <g transform="translate(1489.956726 1399.385937)scale(0.1 -0.1)">
      <use xlink:href="#DejaVuSans-49"/>
      <use xlink:href="#DejaVuSans-74" x="29.492188"/>
      <use xlink:href="#DejaVuSans-61" x="68.701172"/>
      <use xlink:href="#DejaVuSans-6c" x="129.980469"/>
      <use xlink:href="#DejaVuSans-79" x="157.763672"/>
     </g>
    </g>
    <g id="patch_45">
     <path d="M 1461.956726 1414.064062 
L 1481.956726 1414.064062 
L 1481.956726 1407.064062 
L 1461.956726 1407.064062 
z
" style="fill: #4df3ce"/>
    </g>
    <g id="text_74">
     <!-- Kyrgyzstan -->
     <g transform="translate(1489.956726 1414.064062)scale(0.1 -0.1)">
      <use xlink:href="#DejaVuSans-4b"/>
      <use xlink:href="#DejaVuSans-79" x="58.326172"/>
      <use xlink:href="#DejaVuSans-72" x="117.505859"/>
      <use xlink:href="#DejaVuSans-67" x="156.869141"/>
      <use xlink:href="#DejaVuSans-79" x="220.345703"/>
      <use xlink:href="#DejaVuSans-7a" x="279.525391"/>
      <use xlink:href="#DejaVuSans-73" x="332.015625"/>
      <use xlink:href="#DejaVuSans-74" x="384.115234"/>
      <use xlink:href="#DejaVuSans-61" x="423.324219"/>
      <use xlink:href="#DejaVuSans-6e" x="484.603516"/>
     </g>
    </g>
    <g id="patch_46">
     <path d="M 1461.956726 1428.742187 
L 1481.956726 1428.742187 
L 1481.956726 1421.742187 
L 1461.956726 1421.742187 
z
" style="fill: #5df9c7"/>
    </g>
    <g id="text_75">
     <!-- Iran -->
     <g transform="translate(1489.956726 1428.742187)scale(0.1 -0.1)">
      <use xlink:href="#DejaVuSans-49"/>
      <use xlink:href="#DejaVuSans-72" x="29.492188"/>
      <use xlink:href="#DejaVuSans-61" x="70.605469"/>
      <use xlink:href="#DejaVuSans-6e" x="131.884766"/>
     </g>
    </g>
    <g id="patch_47">
     <path d="M 1461.956726 1443.420312 
L 1481.956726 1443.420312 
L 1481.956726 1436.420312 
L 1461.956726 1436.420312 
z
" style="fill: #6efebe"/>
    </g>
    <g id="text_76">
     <!-- Tajikistan -->
     <g transform="translate(1489.956726 1443.420312)scale(0.1 -0.1)">
      <use xlink:href="#DejaVuSans-54"/>
      <use xlink:href="#DejaVuSans-61" x="44.583984"/>
      <use xlink:href="#DejaVuSans-6a" x="105.863281"/>
      <use xlink:href="#DejaVuSans-69" x="133.646484"/>
      <use xlink:href="#DejaVuSans-6b" x="161.429688"/>
      <use xlink:href="#DejaVuSans-69" x="219.339844"/>
      <use xlink:href="#DejaVuSans-73" x="247.123047"/>
      <use xlink:href="#DejaVuSans-74" x="299.222656"/>
      <use xlink:href="#DejaVuSans-61" x="338.431641"/>
      <use xlink:href="#DejaVuSans-6e" x="399.710938"/>
     </g>
    </g>
    <g id="patch_48">
     <path d="M 1461.956726 1458.098437 
L 1481.956726 1458.098437 
L 1481.956726 1451.098437 
L 1461.956726 1451.098437 
z
" style="fill: #80ffb4"/>
    </g>
    <g id="text_77">
     <!-- Egypt -->
     <g transform="translate(1489.956726 1458.098437)scale(0.1 -0.1)">
      <use xlink:href="#DejaVuSans-45"/>
      <use xlink:href="#DejaVuSans-67" x="63.183594"/>
      <use xlink:href="#DejaVuSans-79" x="126.660156"/>
      <use xlink:href="#DejaVuSans-70" x="185.839844"/>
      <use xlink:href="#DejaVuSans-74" x="249.316406"/>
     </g>
    </g>
    <g id="patch_49">
     <path d="M 1461.956726 1472.776562 
L 1481.956726 1472.776562 
L 1481.956726 1465.776562 
L 1461.956726 1465.776562 
z
" style="fill: #90feab"/>
    </g>
    <g id="text_78">
     <!-- North Korea -->
     <g transform="translate(1489.956726 1472.776562)scale(0.1 -0.1)">
      <use xlink:href="#DejaVuSans-4e"/>
      <use xlink:href="#DejaVuSans-6f" x="74.804688"/>
      <use xlink:href="#DejaVuSans-72" x="135.986328"/>
      <use xlink:href="#DejaVuSans-74" x="177.099609"/>
      <use xlink:href="#DejaVuSans-68" x="216.308594"/>
      <use xlink:href="#DejaVuSans-20" x="279.6875"/>
      <use xlink:href="#DejaVuSans-4b" x="311.474609"/>
      <use xlink:href="#DejaVuSans-6f" x="372.050781"/>
      <use xlink:href="#DejaVuSans-72" x="433.232422"/>
      <use xlink:href="#DejaVuSans-65" x="472.095703"/>
      <use xlink:href="#DejaVuSans-61" x="533.619141"/>
     </g>
    </g>
    <g id="patch_50">
     <path d="M 1461.956726 1487.454687 
L 1481.956726 1487.454687 
L 1481.956726 1480.454687 
L 1461.956726 1480.454687 
z
" style="fill: #a2f9a0"/>
    </g>
    <g id="text_79">
     <!-- Switzerland -->
     <g transform="translate(1489.956726 1487.454687)scale(0.1 -0.1)">
      <use xlink:href="#DejaVuSans-53"/>
      <use xlink:href="#DejaVuSans-77" x="63.476562"/>
      <use xlink:href="#DejaVuSans-69" x="145.263672"/>
      <use xlink:href="#DejaVuSans-74" x="173.046875"/>
      <use xlink:href="#DejaVuSans-7a" x="212.255859"/>
      <use xlink:href="#DejaVuSans-65" x="264.746094"/>
      <use xlink:href="#DejaVuSans-72" x="326.269531"/>
      <use xlink:href="#DejaVuSans-6c" x="367.382812"/>
      <use xlink:href="#DejaVuSans-61" x="395.166016"/>
      <use xlink:href="#DejaVuSans-6e" x="456.445312"/>
      <use xlink:href="#DejaVuSans-64" x="519.824219"/>
     </g>
    </g>
    <g id="patch_51">
     <path d="M 1461.956726 1502.132812 
L 1481.956726 1502.132812 
L 1481.956726 1495.132812 
L 1461.956726 1495.132812 
z
" style="fill: #b2f396"/>
    </g>
    <g id="text_80">
     <!-- New Zealand -->
     <g transform="translate(1489.956726 1502.132812)scale(0.1 -0.1)">
      <use xlink:href="#DejaVuSans-4e"/>
      <use xlink:href="#DejaVuSans-65" x="74.804688"/>
      <use xlink:href="#DejaVuSans-77" x="136.328125"/>
      <use xlink:href="#DejaVuSans-20" x="218.115234"/>
      <use xlink:href="#DejaVuSans-5a" x="249.902344"/>
      <use xlink:href="#DejaVuSans-65" x="318.408203"/>
      <use xlink:href="#DejaVuSans-61" x="379.931641"/>
      <use xlink:href="#DejaVuSans-6c" x="441.210938"/>
      <use xlink:href="#DejaVuSans-61" x="468.994141"/>
      <use xlink:href="#DejaVuSans-6e" x="530.273438"/>
      <use xlink:href="#DejaVuSans-64" x="593.652344"/>
     </g>
    </g>
    <g id="patch_52">
     <path d="M 1461.956726 1516.810937 
L 1481.956726 1516.810937 
L 1481.956726 1509.810937 
L 1461.956726 1509.810937 
z
" style="fill: #c4e88a"/>
    </g>
    <g id="text_81">
     <!-- Denmark -->
     <g transform="translate(1489.956726 1516.810937)scale(0.1 -0.1)">
      <use xlink:href="#DejaVuSans-44"/>
      <use xlink:href="#DejaVuSans-65" x="77.001953"/>
      <use xlink:href="#DejaVuSans-6e" x="138.525391"/>
      <use xlink:href="#DejaVuSans-6d" x="201.904297"/>
      <use xlink:href="#DejaVuSans-61" x="299.316406"/>
      <use xlink:href="#DejaVuSans-72" x="360.595703"/>
      <use xlink:href="#DejaVuSans-6b" x="401.708984"/>
     </g>
    </g>
    <g id="patch_53">
     <path d="M 1461.956726 1531.489062 
L 1481.956726 1531.489062 
L 1481.956726 1524.489062 
L 1461.956726 1524.489062 
z
" style="fill: #d4dd80"/>
    </g>
    <g id="text_82">
     <!-- Spain -->
     <g transform="translate(1489.956726 1531.489062)scale(0.1 -0.1)">
      <use xlink:href="#DejaVuSans-53"/>
      <use xlink:href="#DejaVuSans-70" x="63.476562"/>
      <use xlink:href="#DejaVuSans-61" x="126.953125"/>
      <use xlink:href="#DejaVuSans-69" x="188.232422"/>
      <use xlink:href="#DejaVuSans-6e" x="216.015625"/>
     </g>
    </g>
    <g id="patch_54">
     <path d="M 1461.956726 1546.167187 
L 1481.956726 1546.167187 
L 1481.956726 1539.167187 
L 1461.956726 1539.167187 
z
" style="fill: #e6cd73"/>
    </g>
    <g id="text_83">
     <!-- Sweden -->
     <g transform="translate(1489.956726 1546.167187)scale(0.1 -0.1)">
      <use xlink:href="#DejaVuSans-53"/>
      <use xlink:href="#DejaVuSans-77" x="63.476562"/>
      <use xlink:href="#DejaVuSans-65" x="145.263672"/>
      <use xlink:href="#DejaVuSans-64" x="206.787109"/>
      <use xlink:href="#DejaVuSans-65" x="270.263672"/>
      <use xlink:href="#DejaVuSans-6e" x="331.787109"/>
     </g>
    </g>
    <g id="patch_55">
     <path d="M 1461.956726 1560.845312 
L 1481.956726 1560.845312 
L 1481.956726 1553.845312 
L 1461.956726 1553.845312 
z
" style="fill: #f6be68"/>
    </g>
    <g id="text_84">
     <!-- Azerbaijan -->
     <g transform="translate(1489.956726 1560.845312)scale(0.1 -0.1)">
      <use xlink:href="#DejaVuSans-41"/>
      <use xlink:href="#DejaVuSans-7a" x="68.408203"/>
      <use xlink:href="#DejaVuSans-65" x="120.898438"/>
      <use xlink:href="#DejaVuSans-72" x="182.421875"/>
      <use xlink:href="#DejaVuSans-62" x="223.535156"/>
      <use xlink:href="#DejaVuSans-61" x="287.011719"/>
      <use xlink:href="#DejaVuSans-69" x="348.291016"/>
      <use xlink:href="#DejaVuSans-6a" x="376.074219"/>
      <use xlink:href="#DejaVuSans-61" x="403.857422"/>
      <use xlink:href="#DejaVuSans-6e" x="465.136719"/>
     </g>
    </g>
    <g id="patch_56">
     <path d="M 1461.956726 1575.523438 
L 1481.956726 1575.523438 
L 1481.956726 1568.523438 
L 1461.956726 1568.523438 
z
" style="fill: #ffa95b"/>
    </g>
    <g id="text_85">
     <!-- Belgium -->
     <g transform="translate(1489.956726 1575.523438)scale(0.1 -0.1)">
      <use xlink:href="#DejaVuSans-42"/>
      <use xlink:href="#DejaVuSans-65" x="68.603516"/>
      <use xlink:href="#DejaVuSans-6c" x="130.126953"/>
      <use xlink:href="#DejaVuSans-67" x="157.910156"/>
      <use xlink:href="#DejaVuSans-69" x="221.386719"/>
      <use xlink:href="#DejaVuSans-75" x="249.169922"/>
      <use xlink:href="#DejaVuSans-6d" x="312.548828"/>
     </g>
    </g>
    <g id="patch_57">
     <path d="M 1461.956726 1590.201562 
L 1481.956726 1590.201562 
L 1481.956726 1583.201562 
L 1461.956726 1583.201562 
z
" style="fill: #ff964f"/>
    </g>
    <g id="text_86">
     <!-- Mauritius -->
     <g transform="translate(1489.956726 1590.201562)scale(0.1 -0.1)">
      <use xlink:href="#DejaVuSans-4d"/>
      <use xlink:href="#DejaVuSans-61" x="86.279297"/>
      <use xlink:href="#DejaVuSans-75" x="147.558594"/>
      <use xlink:href="#DejaVuSans-72" x="210.9375"/>
      <use xlink:href="#DejaVuSans-69" x="252.050781"/>
      <use xlink:href="#DejaVuSans-74" x="279.833984"/>
      <use xlink:href="#DejaVuSans-69" x="319.042969"/>
      <use xlink:href="#DejaVuSans-75" x="346.826172"/>
      <use xlink:href="#DejaVuSans-73" x="410.205078"/>
     </g>
    </g>
    <g id="patch_58">
     <path d="M 1461.956726 1604.879687 
L 1481.956726 1604.879687 
L 1481.956726 1597.879687 
L 1461.956726 1597.879687 
z
" style="fill: #ff7e41"/>
    </g>
    <g id="text_87">
     <!-- Turkmenistan -->
     <g transform="translate(1489.956726 1604.879687)scale(0.1 -0.1)">
      <use xlink:href="#DejaVuSans-54"/>
      <use xlink:href="#DejaVuSans-75" x="45.958984"/>
      <use xlink:href="#DejaVuSans-72" x="109.337891"/>
      <use xlink:href="#DejaVuSans-6b" x="150.451172"/>
      <use xlink:href="#DejaVuSans-6d" x="208.361328"/>
      <use xlink:href="#DejaVuSans-65" x="305.773438"/>
      <use xlink:href="#DejaVuSans-6e" x="367.296875"/>
      <use xlink:href="#DejaVuSans-69" x="430.675781"/>
      <use xlink:href="#DejaVuSans-73" x="458.458984"/>
      <use xlink:href="#DejaVuSans-74" x="510.558594"/>
      <use xlink:href="#DejaVuSans-61" x="549.767578"/>
      <use xlink:href="#DejaVuSans-6e" x="611.046875"/>
     </g>
    </g>
    <g id="patch_59">
     <path d="M 1461.956726 1619.557812 
L 1481.956726 1619.557812 
L 1481.956726 1612.557812 
L 1461.956726 1612.557812 
z
" style="fill: #ff6835"/>
    </g>
    <g id="text_88">
     <!-- Brunei -->
     <g transform="translate(1489.956726 1619.557812)scale(0.1 -0.1)">
      <use xlink:href="#DejaVuSans-42"/>
      <use xlink:href="#DejaVuSans-72" x="68.603516"/>
      <use xlink:href="#DejaVuSans-75" x="109.716797"/>
      <use xlink:href="#DejaVuSans-6e" x="173.095703"/>
      <use xlink:href="#DejaVuSans-65" x="236.474609"/>
      <use xlink:href="#DejaVuSans-69" x="297.998047"/>
     </g>
    </g>
    <g id="patch_60">
     <path d="M 1461.956726 1634.235938 
L 1481.956726 1634.235938 
L 1481.956726 1627.235938 
L 1461.956726 1627.235938 
z
" style="fill: #ff4d27"/>
    </g>
    <g id="text_89">
     <!-- Algeria -->
     <g transform="translate(1489.956726 1634.235938)scale(0.1 -0.1)">
      <use xlink:href="#DejaVuSans-41"/>
      <use xlink:href="#DejaVuSans-6c" x="68.408203"/>
      <use xlink:href="#DejaVuSans-67" x="96.191406"/>
      <use xlink:href="#DejaVuSans-65" x="159.667969"/>
      <use xlink:href="#DejaVuSans-72" x="221.191406"/>
      <use xlink:href="#DejaVuSans-69" x="262.304688"/>
      <use xlink:href="#DejaVuSans-61" x="290.087891"/>
     </g>
    </g>
    <g id="patch_61">
     <path d="M 1461.956726 1648.914062 
L 1481.956726 1648.914062 
L 1481.956726 1641.914062 
L 1461.956726 1641.914062 
z
" style="fill: #ff351b"/>
    </g>
    <g id="text_90">
     <!-- Georgia -->
     <g transform="translate(1489.956726 1648.914062)scale(0.1 -0.1)">
      <use xlink:href="#DejaVuSans-47"/>
      <use xlink:href="#DejaVuSans-65" x="77.490234"/>
      <use xlink:href="#DejaVuSans-6f" x="139.013672"/>
      <use xlink:href="#DejaVuSans-72" x="200.195312"/>
      <use xlink:href="#DejaVuSans-67" x="239.558594"/>
      <use xlink:href="#DejaVuSans-69" x="303.035156"/>
      <use xlink:href="#DejaVuSans-61" x="330.818359"/>
     </g>
    </g>
    <g id="patch_62">
     <path d="M 1461.956726 1663.592187 
L 1481.956726 1663.592187 
L 1481.956726 1656.592187 
L 1461.956726 1656.592187 
z
" style="fill: #ff190d"/>
    </g>
    <g id="text_91">
     <!-- Angola -->
     <g transform="translate(1489.956726 1663.592187)scale(0.1 -0.1)">
      <use xlink:href="#DejaVuSans-41"/>
      <use xlink:href="#DejaVuSans-6e" x="68.408203"/>
      <use xlink:href="#DejaVuSans-67" x="131.787109"/>
      <use xlink:href="#DejaVuSans-6f" x="195.263672"/>
      <use xlink:href="#DejaVuSans-6c" x="256.445312"/>
      <use xlink:href="#DejaVuSans-61" x="284.228516"/>
     </g>
    </g>
   </g>
  </g>
 </g>
</svg>
