<?xml version="1.0" encoding="utf-8" standalone="no"?>
<!DOCTYPE svg PUBLIC "-//W3C//DTD SVG 1.1//EN"
  "http://www.w3.org/Graphics/SVG/1.1/DTD/svg11.dtd">
<svg xmlns:xlink="http://www.w3.org/1999/xlink" width="2880pt" height="2880pt" viewBox="0 0 2880 2880" xmlns="http://www.w3.org/2000/svg" version="1.1">
 <metadata>
  <rdf:RDF xmlns:dc="http://purl.org/dc/elements/1.1/" xmlns:cc="http://creativecommons.org/ns#" xmlns:rdf="http://www.w3.org/1999/02/22-rdf-syntax-ns#">
   <cc:Work>
    <dc:type rdf:resource="http://purl.org/dc/dcmitype/StillImage"/>
    <dc:date>2022-04-29T14:42:22.852774</dc:date>
    <dc:format>image/svg+xml</dc:format>
    <dc:creator>
     <cc:Agent>
      <dc:title>Matplotlib v3.5.0, https://matplotlib.org/</dc:title>
     </cc:Agent>
    </dc:creator>
   </cc:Work>
  </rdf:RDF>
 </metadata>
 <defs>
  <style type="text/css">*{stroke-linejoin: round; stroke-linecap: butt}</style>
 </defs>
 <g id="figure_1">
  <g id="patch_1">
   <path d="M 0 2880 
L 2880 2880 
L 2880 0 
L 0 0 
L 0 2880 
z
" style="fill: none"/>
  </g>
  <g id="axes_1">
   <g id="patch_2">
    <path d="M 138.521922 1334.807543 
C 111.711377 1486.857701 142.321849 1643.575716 224.376585 1774.362092 
C 306.431321 1905.148469 434.218098 2000.898543 582.786303 2042.916927 
L 752.439767 1443.057823 
L 138.521922 1334.807543 
z
" style="fill: #8000ff"/>
   </g>
   <g id="patch_3">
    <path d="M 582.786303 2042.916927 
C 701.810091 2076.579495 828.202212 2074.067431 945.794434 2035.70208 
C 1063.386655 1997.33673 1166.941467 1924.82687 1243.212012 1827.44805 
L 752.439767 1443.057823 
L 582.786303 2042.916927 
z
" style="fill: #7216ff"/>
   </g>
   <g id="patch_4">
    <path d="M 1243.212012 1827.44805 
C 1301.74964 1752.709825 1342.448643 1665.577992 1362.194547 1572.720276 
C 1381.940451 1479.86256 1380.216389 1383.709594 1357.154295 1291.619443 
L 752.439767 1443.057823 
L 1243.212012 1827.44805 
z
" style="fill: #622ffe"/>
   </g>
   <g id="patch_5">
    <path d="M 1357.154295 1291.619443 
C 1342.802604 1234.311143 1320.376918 1179.332874 1290.551037 1128.336511 
C 1260.725157 1077.340147 1223.80082 1030.841601 1180.887453 990.237965 
L 752.439767 1443.057823 
L 1357.154295 1291.619443 
z
" style="fill: #5247fc"/>
   </g>
   <g id="patch_6">
    <path d="M 1180.887453 990.237965 
C 1153.873404 964.677896 1124.626191 941.586403 1093.495897 921.239886 
C 1062.365602 900.893368 1029.47693 883.373332 995.223547 868.889486 
L 752.439767 1443.057823 
L 1180.887453 990.237965 
z
" style="fill: #425ffa"/>
   </g>
   <g id="patch_7">
    <path d="M 995.223547 868.889486 
C 961.715764 854.720912 927.031911 843.512707 891.569328 835.39327 
C 856.106745 827.273834 820.001371 822.274291 783.666828 820.451917 
L 752.439767 1443.057823 
L 995.223547 868.889486 
z
" style="fill: #3473f8"/>
   </g>
   <g id="patch_8">
    <path d="M 783.666828 820.451917 
C 765.104576 819.520919 746.50997 819.420505 727.938745 820.150973 
C 709.36752 820.881442 690.838249 822.442064 672.406469 824.828161 
L 752.439767 1443.057823 
L 783.666828 820.451917 
z
" style="fill: #2489f5"/>
   </g>
   <g id="patch_9">
    <path d="M 672.406469 824.828161 
C 657.181021 826.799181 642.03358 829.331975 626.995134 832.421362 
C 611.956688 835.510749 597.037498 839.154621 582.268087 843.345523 
L 752.439767 1443.057823 
L 672.406469 824.828161 
z
" style="fill: #149df1"/>
   </g>
   <g id="patch_10">
    <path d="M 582.268087 843.345523 
C 569.05365 847.095192 555.966757 851.2806 543.028841 855.894892 
C 530.090926 860.509183 517.309055 865.549838 504.704164 871.008599 
L 752.439767 1443.057823 
L 582.268087 843.345523 
z
" style="fill: #04b0ed"/>
   </g>
   <g id="patch_11">
    <path d="M 504.704164 871.008599 
C 495.065493 875.182789 485.533861 879.59992 476.118396 884.255762 
C 466.702932 888.911604 457.406643 893.804669 448.238435 898.930271 
L 752.439767 1443.057823 
L 504.704164 871.008599 
z
" style="fill: #0ac0e8"/>
   </g>
   <g id="patch_12">
    <path d="M 448.238435 898.930271 
C 439.775541 903.661558 431.424177 908.589638 423.191162 913.71049 
C 414.958146 918.831341 406.845719 924.143569 398.860502 929.642838 
L 752.439767 1443.057823 
L 448.238435 898.930271 
z
" style="fill: #1acfe3"/>
   </g>
   <g id="patch_13">
    <path d="M 398.860502 929.642838 
C 391.540772 934.683798 384.329683 939.880718 377.23218 945.230032 
C 370.134676 950.579346 363.152381 956.079831 356.290084 961.727716 
L 752.439767 1443.057823 
L 398.860502 929.642838 
z
" style="fill: #2adddd"/>
   </g>
   <g id="patch_14">
    <path d="M 356.290084 961.727716 
C 349.427787 967.3756 342.687057 973.169592 336.072518 979.105717 
C 329.457978 985.041842 322.971141 991.118743 316.616456 997.332252 
L 752.439767 1443.057823 
L 356.290084 961.727716 
z
" style="fill: #3ae8d6"/>
   </g>
   <g id="patch_15">
    <path d="M 316.616456 997.332252 
C 310.839507 1002.980859 305.17292 1008.741244 299.619907 1014.610139 
C 294.066893 1020.479035 288.628503 1026.455334 283.307817 1032.535647 
L 752.439767 1443.057823 
L 316.616456 997.332252 
z
" style="fill: #48f1d0"/>
   </g>
   <g id="patch_16">
    <path d="M 283.307817 1032.535647 
C 279.051318 1037.399842 274.870727 1042.329943 270.767562 1047.324162 
C 266.664397 1052.318381 262.639154 1057.376114 258.693293 1062.495525 
L 752.439767 1443.057823 
L 283.307817 1032.535647 
z
" style="fill: #58f8c9"/>
   </g>
   <g id="patch_17">
    <path d="M 258.693293 1062.495525 
C 255.240681 1066.974988 251.849188 1071.50123 248.519757 1076.072992 
C 245.190325 1080.644754 241.923262 1085.261613 238.719477 1089.922287 
L 752.439767 1443.057823 
L 258.693293 1062.495525 
z
" style="fill: #68fcc1"/>
   </g>
   <g id="patch_18">
    <path d="M 238.719477 1089.922287 
C 235.973386 1093.917134 233.273987 1097.943877 230.621829 1102.001694 
C 227.969672 1106.059511 225.364937 1110.148125 222.808156 1114.266704 
L 752.439767 1443.057823 
L 238.719477 1089.922287 
z
" style="fill: #78ffb8"/>
   </g>
   <g id="patch_19">
    <path d="M 222.808156 1114.266704 
C 220.251375 1118.385282 217.742722 1122.533544 215.282709 1126.710643 
C 212.822696 1130.887741 210.41149 1135.093392 208.049584 1139.326738 
L 752.439767 1443.057823 
L 222.808156 1114.266704 
z
" style="fill: #86ffb0"/>
   </g>
   <g id="patch_20">
    <path d="M 208.049584 1139.326738 
C 206.081336 1142.854514 204.147425 1146.401338 202.248126 1149.966709 
C 200.348827 1153.532079 198.484229 1157.115827 196.654598 1160.717445 
L 752.439767 1443.057823 
L 208.049584 1139.326738 
z
" style="fill: #96fca7"/>
   </g>
   <g id="patch_21">
    <path d="M 196.654598 1160.717445 
C 195.190897 1163.598731 193.749623 1166.491356 192.330908 1169.395057 
C 190.912193 1172.298758 189.51608 1175.213447 188.142694 1178.13886 
L 752.439767 1443.057823 
L 196.654598 1160.717445 
z
" style="fill: #a6f89d"/>
   </g>
   <g id="patch_22">
    <path d="M 188.142694 1178.13886 
C 186.769309 1181.064274 185.418693 1184.000322 184.090969 1186.946741 
C 182.763245 1189.893159 181.458453 1192.849857 180.176711 1195.816567 
L 752.439767 1443.057823 
L 188.142694 1178.13886 
z
" style="fill: #b6f193"/>
   </g>
   <g id="patch_23">
    <path d="M 180.176711 1195.816567 
C 178.89497 1198.783278 177.636318 1201.75991 176.40087 1204.746195 
C 175.165421 1207.73248 173.953213 1210.728327 172.764356 1213.733464 
L 752.439767 1443.057823 
L 180.176711 1195.816567 
z
" style="fill: #c4e88a"/>
   </g>
   <g id="patch_24">
    <path d="M 172.764356 1213.733464 
C 171.575499 1216.738601 170.410029 1219.752938 169.268051 1222.776201 
C 168.126073 1225.799463 167.007622 1228.831561 165.9128 1231.872218 
L 752.439767 1443.057823 
L 172.764356 1213.733464 
z
" style="fill: #d4dd80"/>
   </g>
   <g id="patch_25">
    <path d="M 165.9128 1231.872218 
C 164.817977 1234.912874 163.746816 1237.961999 162.699414 1241.019315 
C 161.652011 1244.07663 160.628399 1247.142044 159.62867 1250.215279 
L 752.439767 1443.057823 
L 165.9128 1231.872218 
z
" style="fill: #e4cf74"/>
   </g>
   <g id="patch_26">
    <path d="M 159.62867 1250.215279 
C 158.878875 1252.520201 158.142529 1254.829475 157.41967 1257.142985 
C 156.69681 1259.456495 155.98745 1261.774201 155.291625 1264.095985 
L 752.439767 1443.057823 
L 159.62867 1250.215279 
z
" style="fill: #f4c069"/>
   </g>
   <g id="patch_27">
    <path d="M 155.291625 1264.095985 
C 154.827742 1265.643839 154.369879 1267.19349 153.918047 1268.744904 
C 153.466214 1270.296318 153.020416 1271.849483 152.580661 1273.404364 
L 752.439767 1443.057823 
L 155.291625 1264.095985 
z
" style="fill: #ffb05f"/>
   </g>
   <g id="patch_28">
    <path d="M 152.580661 1273.404364 
C 152.140906 1274.959244 151.707199 1276.515829 151.279548 1278.074082 
C 150.851898 1279.632335 150.430308 1281.192245 150.014787 1282.753777 
L 752.439767 1443.057823 
L 152.580661 1273.404364 
z
" style="fill: #ff9d53"/>
   </g>
   <g id="patch_29">
    <path d="M 150.014787 1282.753777 
C 149.599267 1284.315309 149.18982 1285.87845 148.786455 1287.443165 
C 148.38309 1289.007881 147.98581 1290.574159 147.594624 1292.141964 
L 752.439767 1443.057823 
L 150.014787 1282.753777 
z
" style="fill: #ff8947"/>
   </g>
   <g id="patch_30">
    <path d="M 147.594624 1292.141964 
C 147.203439 1293.709768 146.818351 1295.279088 146.439369 1296.849887 
C 146.060387 1298.420687 145.687513 1299.992954 145.320757 1301.566653 
L 752.439767 1443.057823 
L 147.594624 1292.141964 
z
" style="fill: #ff733b"/>
   </g>
   <g id="patch_31">
    <path d="M 145.320757 1301.566653 
C 144.954001 1303.140351 144.593366 1304.71547 144.238858 1306.291973 
C 143.884351 1307.868477 143.535974 1309.446352 143.193736 1311.025565 
L 752.439767 1443.057823 
L 145.320757 1301.566653 
z
" style="fill: #ff5f30"/>
   </g>
   <g id="patch_32">
    <path d="M 143.193736 1311.025565 
C 142.851499 1312.604777 142.515402 1314.185314 142.185455 1315.767139 
C 141.855508 1317.348965 141.531712 1318.932068 141.214076 1320.516412 
L 752.439767 1443.057823 
L 143.193736 1311.025565 
z
" style="fill: #ff4724"/>
   </g>
   <g id="patch_33">
    <path d="M 141.214076 1320.516412 
C 140.896439 1322.100755 140.584964 1323.686328 140.279657 1325.273094 
C 139.97435 1326.859859 139.675213 1328.447806 139.382254 1330.036898 
L 752.439767 1443.057823 
L 141.214076 1320.516412 
z
" style="fill: #ff2f18"/>
   </g>
   <g id="patch_34">
    <path d="M 139.382254 1330.036898 
C 139.235775 1330.831443 139.090841 1331.626273 138.947452 1332.421381 
C 138.804063 1333.21649 138.66222 1334.011877 138.521923 1334.807537 
L 752.439767 1443.057823 
L 139.382254 1330.036898 
z
" style="fill: #ff160b"/>
   </g>
   <g id="matplotlib.axis_1"/>
   <g id="matplotlib.axis_2"/>
   <g id="text_1">
    <!-- Taiwan -->
    <g transform="translate(151.879743 1809.090197)scale(0.0579 -0.0579)">
     <defs>
      <path id="DejaVuSans-54" d="M -19 4666 
L 3928 4666 
L 3928 4134 
L 2272 4134 
L 2272 0 
L 1638 0 
L 1638 4134 
L -19 4134 
L -19 4666 
z
" transform="scale(0.015625)"/>
      <path id="DejaVuSans-61" d="M 2194 1759 
Q 1497 1759 1228 1600 
Q 959 1441 959 1056 
Q 959 750 1161 570 
Q 1363 391 1709 391 
Q 2188 391 2477 730 
Q 2766 1069 2766 1631 
L 2766 1759 
L 2194 1759 
z
M 3341 1997 
L 3341 0 
L 2766 0 
L 2766 531 
Q 2569 213 2275 61 
Q 1981 -91 1556 -91 
Q 1019 -91 701 211 
Q 384 513 384 1019 
Q 384 1609 779 1909 
Q 1175 2209 1959 2209 
L 2766 2209 
L 2766 2266 
Q 2766 2663 2505 2880 
Q 2244 3097 1772 3097 
Q 1472 3097 1187 3025 
Q 903 2953 641 2809 
L 641 3341 
Q 956 3463 1253 3523 
Q 1550 3584 1831 3584 
Q 2591 3584 2966 3190 
Q 3341 2797 3341 1997 
z
" transform="scale(0.015625)"/>
      <path id="DejaVuSans-69" d="M 603 3500 
L 1178 3500 
L 1178 0 
L 603 0 
L 603 3500 
z
M 603 4863 
L 1178 4863 
L 1178 4134 
L 603 4134 
L 603 4863 
z
" transform="scale(0.015625)"/>
      <path id="DejaVuSans-77" d="M 269 3500 
L 844 3500 
L 1563 769 
L 2278 3500 
L 2956 3500 
L 3675 769 
L 4391 3500 
L 4966 3500 
L 4050 0 
L 3372 0 
L 2619 2869 
L 1863 0 
L 1184 0 
L 269 3500 
z
" transform="scale(0.015625)"/>
      <path id="DejaVuSans-6e" d="M 3513 2113 
L 3513 0 
L 2938 0 
L 2938 2094 
Q 2938 2591 2744 2837 
Q 2550 3084 2163 3084 
Q 1697 3084 1428 2787 
Q 1159 2491 1159 1978 
L 1159 0 
L 581 0 
L 581 3500 
L 1159 3500 
L 1159 2956 
Q 1366 3272 1645 3428 
Q 1925 3584 2291 3584 
Q 2894 3584 3203 3211 
Q 3513 2838 3513 2113 
z
" transform="scale(0.015625)"/>
     </defs>
     <use xlink:href="#DejaVuSans-54"/>
     <use xlink:href="#DejaVuSans-61" x="44.583984"/>
     <use xlink:href="#DejaVuSans-69" x="105.863281"/>
     <use xlink:href="#DejaVuSans-77" x="133.646484"/>
     <use xlink:href="#DejaVuSans-61" x="215.433594"/>
     <use xlink:href="#DejaVuSans-6e" x="276.712891"/>
    </g>
   </g>
   <g id="text_2">
    <!-- 23% -->
    <g transform="translate(429.167268 1643.438063)scale(0.0579 -0.0579)">
     <defs>
      <path id="DejaVuSans-32" d="M 1228 531 
L 3431 531 
L 3431 0 
L 469 0 
L 469 531 
Q 828 903 1448 1529 
Q 2069 2156 2228 2338 
Q 2531 2678 2651 2914 
Q 2772 3150 2772 3378 
Q 2772 3750 2511 3984 
Q 2250 4219 1831 4219 
Q 1534 4219 1204 4116 
Q 875 4013 500 3803 
L 500 4441 
Q 881 4594 1212 4672 
Q 1544 4750 1819 4750 
Q 2544 4750 2975 4387 
Q 3406 4025 3406 3419 
Q 3406 3131 3298 2873 
Q 3191 2616 2906 2266 
Q 2828 2175 2409 1742 
Q 1991 1309 1228 531 
z
" transform="scale(0.015625)"/>
      <path id="DejaVuSans-33" d="M 2597 2516 
Q 3050 2419 3304 2112 
Q 3559 1806 3559 1356 
Q 3559 666 3084 287 
Q 2609 -91 1734 -91 
Q 1441 -91 1130 -33 
Q 819 25 488 141 
L 488 750 
Q 750 597 1062 519 
Q 1375 441 1716 441 
Q 2309 441 2620 675 
Q 2931 909 2931 1356 
Q 2931 1769 2642 2001 
Q 2353 2234 1838 2234 
L 1294 2234 
L 1294 2753 
L 1863 2753 
Q 2328 2753 2575 2939 
Q 2822 3125 2822 3475 
Q 2822 3834 2567 4026 
Q 2313 4219 1838 4219 
Q 1578 4219 1281 4162 
Q 984 4106 628 3988 
L 628 4550 
Q 988 4650 1302 4700 
Q 1616 4750 1894 4750 
Q 2613 4750 3031 4423 
Q 3450 4097 3450 3541 
Q 3450 3153 3228 2886 
Q 3006 2619 2597 2516 
z
" transform="scale(0.015625)"/>
      <path id="DejaVuSans-25" d="M 4653 2053 
Q 4381 2053 4226 1822 
Q 4072 1591 4072 1178 
Q 4072 772 4226 539 
Q 4381 306 4653 306 
Q 4919 306 5073 539 
Q 5228 772 5228 1178 
Q 5228 1588 5073 1820 
Q 4919 2053 4653 2053 
z
M 4653 2450 
Q 5147 2450 5437 2106 
Q 5728 1763 5728 1178 
Q 5728 594 5436 251 
Q 5144 -91 4653 -91 
Q 4153 -91 3862 251 
Q 3572 594 3572 1178 
Q 3572 1766 3864 2108 
Q 4156 2450 4653 2450 
z
M 1428 4353 
Q 1159 4353 1004 4120 
Q 850 3888 850 3481 
Q 850 3069 1003 2837 
Q 1156 2606 1428 2606 
Q 1700 2606 1854 2837 
Q 2009 3069 2009 3481 
Q 2009 3884 1853 4118 
Q 1697 4353 1428 4353 
z
M 4250 4750 
L 4750 4750 
L 1831 -91 
L 1331 -91 
L 4250 4750 
z
M 1428 4750 
Q 1922 4750 2215 4408 
Q 2509 4066 2509 3481 
Q 2509 2891 2217 2550 
Q 1925 2209 1428 2209 
Q 931 2209 642 2551 
Q 353 2894 353 3481 
Q 353 4063 643 4406 
Q 934 4750 1428 4750 
z
" transform="scale(0.015625)"/>
     </defs>
     <use xlink:href="#DejaVuSans-32"/>
     <use xlink:href="#DejaVuSans-33" x="63.623047"/>
     <use xlink:href="#DejaVuSans-25" x="127.246094"/>
    </g>
   </g>
   <g id="text_3">
    <!-- South Korea -->
    <g transform="translate(965.1299 2096.564184)scale(0.0579 -0.0579)">
     <defs>
      <path id="DejaVuSans-53" d="M 3425 4513 
L 3425 3897 
Q 3066 4069 2747 4153 
Q 2428 4238 2131 4238 
Q 1616 4238 1336 4038 
Q 1056 3838 1056 3469 
Q 1056 3159 1242 3001 
Q 1428 2844 1947 2747 
L 2328 2669 
Q 3034 2534 3370 2195 
Q 3706 1856 3706 1288 
Q 3706 609 3251 259 
Q 2797 -91 1919 -91 
Q 1588 -91 1214 -16 
Q 841 59 441 206 
L 441 856 
Q 825 641 1194 531 
Q 1563 422 1919 422 
Q 2459 422 2753 634 
Q 3047 847 3047 1241 
Q 3047 1584 2836 1778 
Q 2625 1972 2144 2069 
L 1759 2144 
Q 1053 2284 737 2584 
Q 422 2884 422 3419 
Q 422 4038 858 4394 
Q 1294 4750 2059 4750 
Q 2388 4750 2728 4690 
Q 3069 4631 3425 4513 
z
" transform="scale(0.015625)"/>
      <path id="DejaVuSans-6f" d="M 1959 3097 
Q 1497 3097 1228 2736 
Q 959 2375 959 1747 
Q 959 1119 1226 758 
Q 1494 397 1959 397 
Q 2419 397 2687 759 
Q 2956 1122 2956 1747 
Q 2956 2369 2687 2733 
Q 2419 3097 1959 3097 
z
M 1959 3584 
Q 2709 3584 3137 3096 
Q 3566 2609 3566 1747 
Q 3566 888 3137 398 
Q 2709 -91 1959 -91 
Q 1206 -91 779 398 
Q 353 888 353 1747 
Q 353 2609 779 3096 
Q 1206 3584 1959 3584 
z
" transform="scale(0.015625)"/>
      <path id="DejaVuSans-75" d="M 544 1381 
L 544 3500 
L 1119 3500 
L 1119 1403 
Q 1119 906 1312 657 
Q 1506 409 1894 409 
Q 2359 409 2629 706 
Q 2900 1003 2900 1516 
L 2900 3500 
L 3475 3500 
L 3475 0 
L 2900 0 
L 2900 538 
Q 2691 219 2414 64 
Q 2138 -91 1772 -91 
Q 1169 -91 856 284 
Q 544 659 544 1381 
z
M 1991 3584 
L 1991 3584 
z
" transform="scale(0.015625)"/>
      <path id="DejaVuSans-74" d="M 1172 4494 
L 1172 3500 
L 2356 3500 
L 2356 3053 
L 1172 3053 
L 1172 1153 
Q 1172 725 1289 603 
Q 1406 481 1766 481 
L 2356 481 
L 2356 0 
L 1766 0 
Q 1100 0 847 248 
Q 594 497 594 1153 
L 594 3053 
L 172 3053 
L 172 3500 
L 594 3500 
L 594 4494 
L 1172 4494 
z
" transform="scale(0.015625)"/>
      <path id="DejaVuSans-68" d="M 3513 2113 
L 3513 0 
L 2938 0 
L 2938 2094 
Q 2938 2591 2744 2837 
Q 2550 3084 2163 3084 
Q 1697 3084 1428 2787 
Q 1159 2491 1159 1978 
L 1159 0 
L 581 0 
L 581 4863 
L 1159 4863 
L 1159 2956 
Q 1366 3272 1645 3428 
Q 1925 3584 2291 3584 
Q 2894 3584 3203 3211 
Q 3513 2838 3513 2113 
z
" transform="scale(0.015625)"/>
      <path id="DejaVuSans-20" transform="scale(0.015625)"/>
      <path id="DejaVuSans-4b" d="M 628 4666 
L 1259 4666 
L 1259 2694 
L 3353 4666 
L 4166 4666 
L 1850 2491 
L 4331 0 
L 3500 0 
L 1259 2247 
L 1259 0 
L 628 0 
L 628 4666 
z
" transform="scale(0.015625)"/>
      <path id="DejaVuSans-72" d="M 2631 2963 
Q 2534 3019 2420 3045 
Q 2306 3072 2169 3072 
Q 1681 3072 1420 2755 
Q 1159 2438 1159 1844 
L 1159 0 
L 581 0 
L 581 3500 
L 1159 3500 
L 1159 2956 
Q 1341 3275 1631 3429 
Q 1922 3584 2338 3584 
Q 2397 3584 2469 3576 
Q 2541 3569 2628 3553 
L 2631 2963 
z
" transform="scale(0.015625)"/>
      <path id="DejaVuSans-65" d="M 3597 1894 
L 3597 1613 
L 953 1613 
Q 991 1019 1311 708 
Q 1631 397 2203 397 
Q 2534 397 2845 478 
Q 3156 559 3463 722 
L 3463 178 
Q 3153 47 2828 -22 
Q 2503 -91 2169 -91 
Q 1331 -91 842 396 
Q 353 884 353 1716 
Q 353 2575 817 3079 
Q 1281 3584 2069 3584 
Q 2775 3584 3186 3129 
Q 3597 2675 3597 1894 
z
M 3022 2063 
Q 3016 2534 2758 2815 
Q 2500 3097 2075 3097 
Q 1594 3097 1305 2825 
Q 1016 2553 972 2059 
L 3022 2063 
z
" transform="scale(0.015625)"/>
     </defs>
     <use xlink:href="#DejaVuSans-53"/>
     <use xlink:href="#DejaVuSans-6f" x="63.476562"/>
     <use xlink:href="#DejaVuSans-75" x="124.658203"/>
     <use xlink:href="#DejaVuSans-74" x="188.037109"/>
     <use xlink:href="#DejaVuSans-68" x="227.246094"/>
     <use xlink:href="#DejaVuSans-20" x="290.625"/>
     <use xlink:href="#DejaVuSans-4b" x="322.412109"/>
     <use xlink:href="#DejaVuSans-6f" x="382.988281"/>
     <use xlink:href="#DejaVuSans-72" x="444.169922"/>
     <use xlink:href="#DejaVuSans-65" x="483.033203"/>
     <use xlink:href="#DejaVuSans-61" x="544.556641"/>
    </g>
   </g>
   <g id="text_4">
    <!-- 19% -->
    <g transform="translate(862.017977 1800.242055)scale(0.0579 -0.0579)">
     <defs>
      <path id="DejaVuSans-31" d="M 794 531 
L 1825 531 
L 1825 4091 
L 703 3866 
L 703 4441 
L 1819 4666 
L 2450 4666 
L 2450 531 
L 3481 531 
L 3481 0 
L 794 0 
L 794 531 
z
" transform="scale(0.015625)"/>
      <path id="DejaVuSans-39" d="M 703 97 
L 703 672 
Q 941 559 1184 500 
Q 1428 441 1663 441 
Q 2288 441 2617 861 
Q 2947 1281 2994 2138 
Q 2813 1869 2534 1725 
Q 2256 1581 1919 1581 
Q 1219 1581 811 2004 
Q 403 2428 403 3163 
Q 403 3881 828 4315 
Q 1253 4750 1959 4750 
Q 2769 4750 3195 4129 
Q 3622 3509 3622 2328 
Q 3622 1225 3098 567 
Q 2575 -91 1691 -91 
Q 1453 -91 1209 -44 
Q 966 3 703 97 
z
M 1959 2075 
Q 2384 2075 2632 2365 
Q 2881 2656 2881 3163 
Q 2881 3666 2632 3958 
Q 2384 4250 1959 4250 
Q 1534 4250 1286 3958 
Q 1038 3666 1038 3163 
Q 1038 2656 1286 2365 
Q 1534 2075 1959 2075 
z
" transform="scale(0.015625)"/>
     </defs>
     <use xlink:href="#DejaVuSans-31"/>
     <use xlink:href="#DejaVuSans-39" x="63.623047"/>
     <use xlink:href="#DejaVuSans-25" x="127.246094"/>
    </g>
   </g>
   <g id="text_5">
    <!-- Hong Kong -->
    <g transform="translate(1423.170025 1587.2842)scale(0.0579 -0.0579)">
     <defs>
      <path id="DejaVuSans-48" d="M 628 4666 
L 1259 4666 
L 1259 2753 
L 3553 2753 
L 3553 4666 
L 4184 4666 
L 4184 0 
L 3553 0 
L 3553 2222 
L 1259 2222 
L 1259 0 
L 628 0 
L 628 4666 
z
" transform="scale(0.015625)"/>
      <path id="DejaVuSans-67" d="M 2906 1791 
Q 2906 2416 2648 2759 
Q 2391 3103 1925 3103 
Q 1463 3103 1205 2759 
Q 947 2416 947 1791 
Q 947 1169 1205 825 
Q 1463 481 1925 481 
Q 2391 481 2648 825 
Q 2906 1169 2906 1791 
z
M 3481 434 
Q 3481 -459 3084 -895 
Q 2688 -1331 1869 -1331 
Q 1566 -1331 1297 -1286 
Q 1028 -1241 775 -1147 
L 775 -588 
Q 1028 -725 1275 -790 
Q 1522 -856 1778 -856 
Q 2344 -856 2625 -561 
Q 2906 -266 2906 331 
L 2906 616 
Q 2728 306 2450 153 
Q 2172 0 1784 0 
Q 1141 0 747 490 
Q 353 981 353 1791 
Q 353 2603 747 3093 
Q 1141 3584 1784 3584 
Q 2172 3584 2450 3431 
Q 2728 3278 2906 2969 
L 2906 3500 
L 3481 3500 
L 3481 434 
z
" transform="scale(0.015625)"/>
     </defs>
     <use xlink:href="#DejaVuSans-48"/>
     <use xlink:href="#DejaVuSans-6f" x="75.195312"/>
     <use xlink:href="#DejaVuSans-6e" x="136.376953"/>
     <use xlink:href="#DejaVuSans-67" x="199.755859"/>
     <use xlink:href="#DejaVuSans-20" x="263.232422"/>
     <use xlink:href="#DejaVuSans-4b" x="295.019531"/>
     <use xlink:href="#DejaVuSans-6f" x="355.595703"/>
     <use xlink:href="#DejaVuSans-6e" x="416.777344"/>
     <use xlink:href="#DejaVuSans-67" x="480.15625"/>
    </g>
   </g>
   <g id="text_6">
    <!-- 14% -->
    <g transform="translate(1111.858045 1522.452973)scale(0.0579 -0.0579)">
     <defs>
      <path id="DejaVuSans-34" d="M 2419 4116 
L 825 1625 
L 2419 1625 
L 2419 4116 
z
M 2253 4666 
L 3047 4666 
L 3047 1625 
L 3713 1625 
L 3713 1100 
L 3047 1100 
L 3047 0 
L 2419 0 
L 2419 1100 
L 313 1100 
L 313 1709 
L 2253 4666 
z
" transform="scale(0.015625)"/>
     </defs>
     <use xlink:href="#DejaVuSans-31"/>
     <use xlink:href="#DejaVuSans-34" x="63.623047"/>
     <use xlink:href="#DejaVuSans-25" x="127.246094"/>
    </g>
   </g>
   <g id="text_7">
    <!-- Thailand -->
    <g transform="translate(1344.362164 1098.462058)scale(0.0579 -0.0579)">
     <defs>
      <path id="DejaVuSans-6c" d="M 603 4863 
L 1178 4863 
L 1178 0 
L 603 0 
L 603 4863 
z
" transform="scale(0.015625)"/>
      <path id="DejaVuSans-64" d="M 2906 2969 
L 2906 4863 
L 3481 4863 
L 3481 0 
L 2906 0 
L 2906 525 
Q 2725 213 2448 61 
Q 2172 -91 1784 -91 
Q 1150 -91 751 415 
Q 353 922 353 1747 
Q 353 2572 751 3078 
Q 1150 3584 1784 3584 
Q 2172 3584 2448 3432 
Q 2725 3281 2906 2969 
z
M 947 1747 
Q 947 1113 1208 752 
Q 1469 391 1925 391 
Q 2381 391 2643 752 
Q 2906 1113 2906 1747 
Q 2906 2381 2643 2742 
Q 2381 3103 1925 3103 
Q 1469 3103 1208 2742 
Q 947 2381 947 1747 
z
" transform="scale(0.015625)"/>
     </defs>
     <use xlink:href="#DejaVuSans-54"/>
     <use xlink:href="#DejaVuSans-68" x="61.083984"/>
     <use xlink:href="#DejaVuSans-61" x="124.462891"/>
     <use xlink:href="#DejaVuSans-69" x="185.742188"/>
     <use xlink:href="#DejaVuSans-6c" x="213.525391"/>
     <use xlink:href="#DejaVuSans-61" x="241.308594"/>
     <use xlink:href="#DejaVuSans-6e" x="302.587891"/>
     <use xlink:href="#DejaVuSans-64" x="365.966797"/>
    </g>
   </g>
   <g id="text_8">
    <!-- 9% -->
    <g transform="translate(1070.713883 1255.822714)scale(0.0579 -0.0579)">
     <use xlink:href="#DejaVuSans-39"/>
     <use xlink:href="#DejaVuSans-25" x="63.623047"/>
    </g>
   </g>
   <g id="text_9">
    <!-- Russia -->
    <g transform="translate(1127.60151 870.65577)scale(0.0579 -0.0579)">
     <defs>
      <path id="DejaVuSans-52" d="M 2841 2188 
Q 3044 2119 3236 1894 
Q 3428 1669 3622 1275 
L 4263 0 
L 3584 0 
L 2988 1197 
Q 2756 1666 2539 1819 
Q 2322 1972 1947 1972 
L 1259 1972 
L 1259 0 
L 628 0 
L 628 4666 
L 2053 4666 
Q 2853 4666 3247 4331 
Q 3641 3997 3641 3322 
Q 3641 2881 3436 2590 
Q 3231 2300 2841 2188 
z
M 1259 4147 
L 1259 2491 
L 2053 2491 
Q 2509 2491 2742 2702 
Q 2975 2913 2975 3322 
Q 2975 3731 2742 3939 
Q 2509 4147 2053 4147 
L 1259 4147 
z
" transform="scale(0.015625)"/>
      <path id="DejaVuSans-73" d="M 2834 3397 
L 2834 2853 
Q 2591 2978 2328 3040 
Q 2066 3103 1784 3103 
Q 1356 3103 1142 2972 
Q 928 2841 928 2578 
Q 928 2378 1081 2264 
Q 1234 2150 1697 2047 
L 1894 2003 
Q 2506 1872 2764 1633 
Q 3022 1394 3022 966 
Q 3022 478 2636 193 
Q 2250 -91 1575 -91 
Q 1294 -91 989 -36 
Q 684 19 347 128 
L 347 722 
Q 666 556 975 473 
Q 1284 391 1588 391 
Q 1994 391 2212 530 
Q 2431 669 2431 922 
Q 2431 1156 2273 1281 
Q 2116 1406 1581 1522 
L 1381 1569 
Q 847 1681 609 1914 
Q 372 2147 372 2553 
Q 372 3047 722 3315 
Q 1072 3584 1716 3584 
Q 2034 3584 2315 3537 
Q 2597 3491 2834 3397 
z
" transform="scale(0.015625)"/>
     </defs>
     <use xlink:href="#DejaVuSans-52"/>
     <use xlink:href="#DejaVuSans-75" x="64.982422"/>
     <use xlink:href="#DejaVuSans-73" x="128.361328"/>
     <use xlink:href="#DejaVuSans-73" x="180.460938"/>
     <use xlink:href="#DejaVuSans-69" x="232.560547"/>
     <use xlink:href="#DejaVuSans-61" x="260.34375"/>
    </g>
   </g>
   <g id="text_10">
    <!-- 6% -->
    <g transform="translate(952.480799 1131.564739)scale(0.0579 -0.0579)">
     <defs>
      <path id="DejaVuSans-36" d="M 2113 2584 
Q 1688 2584 1439 2293 
Q 1191 2003 1191 1497 
Q 1191 994 1439 701 
Q 1688 409 2113 409 
Q 2538 409 2786 701 
Q 3034 994 3034 1497 
Q 3034 2003 2786 2293 
Q 2538 2584 2113 2584 
z
M 3366 4563 
L 3366 3988 
Q 3128 4100 2886 4159 
Q 2644 4219 2406 4219 
Q 1781 4219 1451 3797 
Q 1122 3375 1075 2522 
Q 1259 2794 1537 2939 
Q 1816 3084 2150 3084 
Q 2853 3084 3261 2657 
Q 3669 2231 3669 1497 
Q 3669 778 3244 343 
Q 2819 -91 2113 -91 
Q 1303 -91 875 529 
Q 447 1150 447 2328 
Q 447 3434 972 4092 
Q 1497 4750 2381 4750 
Q 2619 4750 2861 4703 
Q 3103 4656 3366 4563 
z
" transform="scale(0.015625)"/>
     </defs>
     <use xlink:href="#DejaVuSans-36"/>
     <use xlink:href="#DejaVuSans-25" x="63.623047"/>
    </g>
   </g>
   <g id="text_11">
    <!-- Singapore -->
    <g transform="translate(905.482284 776.224493)scale(0.0579 -0.0579)">
     <defs>
      <path id="DejaVuSans-70" d="M 1159 525 
L 1159 -1331 
L 581 -1331 
L 581 3500 
L 1159 3500 
L 1159 2969 
Q 1341 3281 1617 3432 
Q 1894 3584 2278 3584 
Q 2916 3584 3314 3078 
Q 3713 2572 3713 1747 
Q 3713 922 3314 415 
Q 2916 -91 2278 -91 
Q 1894 -91 1617 61 
Q 1341 213 1159 525 
z
M 3116 1747 
Q 3116 2381 2855 2742 
Q 2594 3103 2138 3103 
Q 1681 3103 1420 2742 
Q 1159 2381 1159 1747 
Q 1159 1113 1420 752 
Q 1681 391 2138 391 
Q 2594 391 2855 752 
Q 3116 1113 3116 1747 
z
" transform="scale(0.015625)"/>
     </defs>
     <use xlink:href="#DejaVuSans-53"/>
     <use xlink:href="#DejaVuSans-69" x="63.476562"/>
     <use xlink:href="#DejaVuSans-6e" x="91.259766"/>
     <use xlink:href="#DejaVuSans-67" x="154.638672"/>
     <use xlink:href="#DejaVuSans-61" x="218.115234"/>
     <use xlink:href="#DejaVuSans-70" x="279.394531"/>
     <use xlink:href="#DejaVuSans-6f" x="342.871094"/>
     <use xlink:href="#DejaVuSans-72" x="404.052734"/>
     <use xlink:href="#DejaVuSans-65" x="442.916016"/>
    </g>
   </g>
   <g id="text_12">
    <!-- 6% -->
    <g transform="translate(831.324858 1080.056769)scale(0.0579 -0.0579)">
     <use xlink:href="#DejaVuSans-36"/>
     <use xlink:href="#DejaVuSans-25" x="63.623047"/>
    </g>
   </g>
   <g id="text_13">
    <!-- Vietnam -->
    <g transform="translate(701.359723 759.457966)scale(0.0579 -0.0579)">
     <defs>
      <path id="DejaVuSans-56" d="M 1831 0 
L 50 4666 
L 709 4666 
L 2188 738 
L 3669 4666 
L 4325 4666 
L 2547 0 
L 1831 0 
z
" transform="scale(0.015625)"/>
      <path id="DejaVuSans-6d" d="M 3328 2828 
Q 3544 3216 3844 3400 
Q 4144 3584 4550 3584 
Q 5097 3584 5394 3201 
Q 5691 2819 5691 2113 
L 5691 0 
L 5113 0 
L 5113 2094 
Q 5113 2597 4934 2840 
Q 4756 3084 4391 3084 
Q 3944 3084 3684 2787 
Q 3425 2491 3425 1978 
L 3425 0 
L 2847 0 
L 2847 2094 
Q 2847 2600 2669 2842 
Q 2491 3084 2119 3084 
Q 1678 3084 1418 2786 
Q 1159 2488 1159 1978 
L 1159 0 
L 581 0 
L 581 3500 
L 1159 3500 
L 1159 2956 
Q 1356 3278 1631 3431 
Q 1906 3584 2284 3584 
Q 2666 3584 2933 3390 
Q 3200 3197 3328 2828 
z
" transform="scale(0.015625)"/>
     </defs>
     <use xlink:href="#DejaVuSans-56"/>
     <use xlink:href="#DejaVuSans-69" x="66.158203"/>
     <use xlink:href="#DejaVuSans-65" x="93.941406"/>
     <use xlink:href="#DejaVuSans-74" x="155.464844"/>
     <use xlink:href="#DejaVuSans-6e" x="194.673828"/>
     <use xlink:href="#DejaVuSans-61" x="258.052734"/>
     <use xlink:href="#DejaVuSans-6d" x="319.332031"/>
    </g>
   </g>
   <g id="text_14">
    <!-- 3% -->
    <g transform="translate(733.146508 1070.911391)scale(0.0579 -0.0579)">
     <use xlink:href="#DejaVuSans-33"/>
     <use xlink:href="#DejaVuSans-25" x="63.623047"/>
    </g>
   </g>
   <g id="text_15">
    <!-- Germany -->
    <g transform="translate(587.838383 772.955394)scale(0.0579 -0.0579)">
     <defs>
      <path id="DejaVuSans-47" d="M 3809 666 
L 3809 1919 
L 2778 1919 
L 2778 2438 
L 4434 2438 
L 4434 434 
Q 4069 175 3628 42 
Q 3188 -91 2688 -91 
Q 1594 -91 976 548 
Q 359 1188 359 2328 
Q 359 3472 976 4111 
Q 1594 4750 2688 4750 
Q 3144 4750 3555 4637 
Q 3966 4525 4313 4306 
L 4313 3634 
Q 3963 3931 3569 4081 
Q 3175 4231 2741 4231 
Q 1884 4231 1454 3753 
Q 1025 3275 1025 2328 
Q 1025 1384 1454 906 
Q 1884 428 2741 428 
Q 3075 428 3337 486 
Q 3600 544 3809 666 
z
" transform="scale(0.015625)"/>
      <path id="DejaVuSans-79" d="M 2059 -325 
Q 1816 -950 1584 -1140 
Q 1353 -1331 966 -1331 
L 506 -1331 
L 506 -850 
L 844 -850 
Q 1081 -850 1212 -737 
Q 1344 -625 1503 -206 
L 1606 56 
L 191 3500 
L 800 3500 
L 1894 763 
L 2988 3500 
L 3597 3500 
L 2059 -325 
z
" transform="scale(0.015625)"/>
     </defs>
     <use xlink:href="#DejaVuSans-47"/>
     <use xlink:href="#DejaVuSans-65" x="77.490234"/>
     <use xlink:href="#DejaVuSans-72" x="139.013672"/>
     <use xlink:href="#DejaVuSans-6d" x="178.376953"/>
     <use xlink:href="#DejaVuSans-61" x="275.789062"/>
     <use xlink:href="#DejaVuSans-6e" x="337.068359"/>
     <use xlink:href="#DejaVuSans-79" x="400.447266"/>
    </g>
   </g>
   <g id="text_16">
    <!-- 2% -->
    <g transform="translate(672.580341 1078.273624)scale(0.0579 -0.0579)">
     <use xlink:href="#DejaVuSans-32"/>
     <use xlink:href="#DejaVuSans-25" x="63.623047"/>
    </g>
   </g>
   <g id="text_17">
    <!-- Australia -->
    <g transform="translate(496.477855 798.776277)scale(0.0579 -0.0579)">
     <defs>
      <path id="DejaVuSans-41" d="M 2188 4044 
L 1331 1722 
L 3047 1722 
L 2188 4044 
z
M 1831 4666 
L 2547 4666 
L 4325 0 
L 3669 0 
L 3244 1197 
L 1141 1197 
L 716 0 
L 50 0 
L 1831 4666 
z
" transform="scale(0.015625)"/>
     </defs>
     <use xlink:href="#DejaVuSans-41"/>
     <use xlink:href="#DejaVuSans-75" x="68.408203"/>
     <use xlink:href="#DejaVuSans-73" x="131.787109"/>
     <use xlink:href="#DejaVuSans-74" x="183.886719"/>
     <use xlink:href="#DejaVuSans-72" x="223.095703"/>
     <use xlink:href="#DejaVuSans-61" x="264.208984"/>
     <use xlink:href="#DejaVuSans-6c" x="325.488281"/>
     <use xlink:href="#DejaVuSans-69" x="353.271484"/>
     <use xlink:href="#DejaVuSans-61" x="381.054688"/>
    </g>
   </g>
   <g id="text_18">
    <!-- 2% -->
    <g transform="translate(622.200566 1092.357742)scale(0.0579 -0.0579)">
     <use xlink:href="#DejaVuSans-32"/>
     <use xlink:href="#DejaVuSans-25" x="63.623047"/>
    </g>
   </g>
   <g id="text_19">
    <!-- Philippines -->
    <g transform="translate(417.291729 829.973234)scale(0.0579 -0.0579)">
     <defs>
      <path id="DejaVuSans-50" d="M 1259 4147 
L 1259 2394 
L 2053 2394 
Q 2494 2394 2734 2622 
Q 2975 2850 2975 3272 
Q 2975 3691 2734 3919 
Q 2494 4147 2053 4147 
L 1259 4147 
z
M 628 4666 
L 2053 4666 
Q 2838 4666 3239 4311 
Q 3641 3956 3641 3272 
Q 3641 2581 3239 2228 
Q 2838 1875 2053 1875 
L 1259 1875 
L 1259 0 
L 628 0 
L 628 4666 
z
" transform="scale(0.015625)"/>
     </defs>
     <use xlink:href="#DejaVuSans-50"/>
     <use xlink:href="#DejaVuSans-68" x="60.302734"/>
     <use xlink:href="#DejaVuSans-69" x="123.681641"/>
     <use xlink:href="#DejaVuSans-6c" x="151.464844"/>
     <use xlink:href="#DejaVuSans-69" x="179.248047"/>
     <use xlink:href="#DejaVuSans-70" x="207.03125"/>
     <use xlink:href="#DejaVuSans-70" x="270.507812"/>
     <use xlink:href="#DejaVuSans-69" x="333.984375"/>
     <use xlink:href="#DejaVuSans-6e" x="361.767578"/>
     <use xlink:href="#DejaVuSans-65" x="425.146484"/>
     <use xlink:href="#DejaVuSans-73" x="486.669922"/>
    </g>
   </g>
   <g id="text_20">
    <!-- 2% -->
    <g transform="translate(582.054298 1109.374264)scale(0.0579 -0.0579)">
     <use xlink:href="#DejaVuSans-32"/>
     <use xlink:href="#DejaVuSans-25" x="63.623047"/>
    </g>
   </g>
   <g id="text_21">
    <!-- Canada -->
    <g transform="translate(368.233542 862.373434)scale(0.0579 -0.0579)">
     <defs>
      <path id="DejaVuSans-43" d="M 4122 4306 
L 4122 3641 
Q 3803 3938 3442 4084 
Q 3081 4231 2675 4231 
Q 1875 4231 1450 3742 
Q 1025 3253 1025 2328 
Q 1025 1406 1450 917 
Q 1875 428 2675 428 
Q 3081 428 3442 575 
Q 3803 722 4122 1019 
L 4122 359 
Q 3791 134 3420 21 
Q 3050 -91 2638 -91 
Q 1578 -91 968 557 
Q 359 1206 359 2328 
Q 359 3453 968 4101 
Q 1578 4750 2638 4750 
Q 3056 4750 3426 4639 
Q 3797 4528 4122 4306 
z
" transform="scale(0.015625)"/>
     </defs>
     <use xlink:href="#DejaVuSans-43"/>
     <use xlink:href="#DejaVuSans-61" x="69.824219"/>
     <use xlink:href="#DejaVuSans-6e" x="131.103516"/>
     <use xlink:href="#DejaVuSans-61" x="194.482422"/>
     <use xlink:href="#DejaVuSans-64" x="255.761719"/>
     <use xlink:href="#DejaVuSans-61" x="319.238281"/>
    </g>
   </g>
   <g id="text_22">
    <!-- 1% -->
    <g transform="translate(550.297958 1127.047101)scale(0.0579 -0.0579)">
     <use xlink:href="#DejaVuSans-31"/>
     <use xlink:href="#DejaVuSans-25" x="63.623047"/>
    </g>
   </g>
   <g id="text_23">
    <!-- United Kingdom -->
    <g transform="translate(293.238529 897.044931)scale(0.0579 -0.0579)">
     <defs>
      <path id="DejaVuSans-55" d="M 556 4666 
L 1191 4666 
L 1191 1831 
Q 1191 1081 1462 751 
Q 1734 422 2344 422 
Q 2950 422 3222 751 
Q 3494 1081 3494 1831 
L 3494 4666 
L 4128 4666 
L 4128 1753 
Q 4128 841 3676 375 
Q 3225 -91 2344 -91 
Q 1459 -91 1007 375 
Q 556 841 556 1753 
L 556 4666 
z
" transform="scale(0.015625)"/>
     </defs>
     <use xlink:href="#DejaVuSans-55"/>
     <use xlink:href="#DejaVuSans-6e" x="73.193359"/>
     <use xlink:href="#DejaVuSans-69" x="136.572266"/>
     <use xlink:href="#DejaVuSans-74" x="164.355469"/>
     <use xlink:href="#DejaVuSans-65" x="203.564453"/>
     <use xlink:href="#DejaVuSans-64" x="265.087891"/>
     <use xlink:href="#DejaVuSans-20" x="328.564453"/>
     <use xlink:href="#DejaVuSans-4b" x="360.351562"/>
     <use xlink:href="#DejaVuSans-69" x="425.927734"/>
     <use xlink:href="#DejaVuSans-6e" x="453.710938"/>
     <use xlink:href="#DejaVuSans-67" x="517.089844"/>
     <use xlink:href="#DejaVuSans-64" x="580.566406"/>
     <use xlink:href="#DejaVuSans-6f" x="644.042969"/>
     <use xlink:href="#DejaVuSans-6d" x="705.224609"/>
    </g>
   </g>
   <g id="text_24">
    <!-- 1% -->
    <g transform="translate(522.722568 1145.958826)scale(0.0579 -0.0579)">
     <use xlink:href="#DejaVuSans-31"/>
     <use xlink:href="#DejaVuSans-25" x="63.623047"/>
    </g>
   </g>
   <g id="text_25">
    <!-- Cambodia -->
    <g transform="translate(265.153772 934.308184)scale(0.0579 -0.0579)">
     <defs>
      <path id="DejaVuSans-62" d="M 3116 1747 
Q 3116 2381 2855 2742 
Q 2594 3103 2138 3103 
Q 1681 3103 1420 2742 
Q 1159 2381 1159 1747 
Q 1159 1113 1420 752 
Q 1681 391 2138 391 
Q 2594 391 2855 752 
Q 3116 1113 3116 1747 
z
M 1159 2969 
Q 1341 3281 1617 3432 
Q 1894 3584 2278 3584 
Q 2916 3584 3314 3078 
Q 3713 2572 3713 1747 
Q 3713 922 3314 415 
Q 2916 -91 2278 -91 
Q 1894 -91 1617 61 
Q 1341 213 1159 525 
L 1159 0 
L 581 0 
L 581 4863 
L 1159 4863 
L 1159 2969 
z
" transform="scale(0.015625)"/>
     </defs>
     <use xlink:href="#DejaVuSans-43"/>
     <use xlink:href="#DejaVuSans-61" x="69.824219"/>
     <use xlink:href="#DejaVuSans-6d" x="131.103516"/>
     <use xlink:href="#DejaVuSans-62" x="228.515625"/>
     <use xlink:href="#DejaVuSans-6f" x="291.992188"/>
     <use xlink:href="#DejaVuSans-64" x="353.173828"/>
     <use xlink:href="#DejaVuSans-69" x="416.650391"/>
     <use xlink:href="#DejaVuSans-61" x="444.433594"/>
    </g>
   </g>
   <g id="text_26">
    <!-- 1% -->
    <g transform="translate(498.026771 1166.284237)scale(0.0579 -0.0579)">
     <use xlink:href="#DejaVuSans-31"/>
     <use xlink:href="#DejaVuSans-25" x="63.623047"/>
    </g>
   </g>
   <g id="text_27">
    <!-- France -->
    <g transform="translate(235.083457 973.363049)scale(0.0579 -0.0579)">
     <defs>
      <path id="DejaVuSans-46" d="M 628 4666 
L 3309 4666 
L 3309 4134 
L 1259 4134 
L 1259 2759 
L 3109 2759 
L 3109 2228 
L 1259 2228 
L 1259 0 
L 628 0 
L 628 4666 
z
" transform="scale(0.015625)"/>
      <path id="DejaVuSans-63" d="M 3122 3366 
L 3122 2828 
Q 2878 2963 2633 3030 
Q 2388 3097 2138 3097 
Q 1578 3097 1268 2742 
Q 959 2388 959 1747 
Q 959 1106 1268 751 
Q 1578 397 2138 397 
Q 2388 397 2633 464 
Q 2878 531 3122 666 
L 3122 134 
Q 2881 22 2623 -34 
Q 2366 -91 2075 -91 
Q 1284 -91 818 406 
Q 353 903 353 1747 
Q 353 2603 823 3093 
Q 1294 3584 2113 3584 
Q 2378 3584 2631 3529 
Q 2884 3475 3122 3366 
z
" transform="scale(0.015625)"/>
     </defs>
     <use xlink:href="#DejaVuSans-46"/>
     <use xlink:href="#DejaVuSans-72" x="50.269531"/>
     <use xlink:href="#DejaVuSans-61" x="91.382812"/>
     <use xlink:href="#DejaVuSans-6e" x="152.662109"/>
     <use xlink:href="#DejaVuSans-63" x="216.041016"/>
     <use xlink:href="#DejaVuSans-65" x="271.021484"/>
    </g>
   </g>
   <g id="text_28">
    <!-- 1% -->
    <g transform="translate(476.155205 1187.586891)scale(0.0579 -0.0579)">
     <use xlink:href="#DejaVuSans-31"/>
     <use xlink:href="#DejaVuSans-25" x="63.623047"/>
    </g>
   </g>
   <g id="text_29">
    <!-- Burma -->
    <g transform="translate(203.491532 1009.348474)scale(0.0579 -0.0579)">
     <defs>
      <path id="DejaVuSans-42" d="M 1259 2228 
L 1259 519 
L 2272 519 
Q 2781 519 3026 730 
Q 3272 941 3272 1375 
Q 3272 1813 3026 2020 
Q 2781 2228 2272 2228 
L 1259 2228 
z
M 1259 4147 
L 1259 2741 
L 2194 2741 
Q 2656 2741 2882 2914 
Q 3109 3088 3109 3444 
Q 3109 3797 2882 3972 
Q 2656 4147 2194 4147 
L 1259 4147 
z
M 628 4666 
L 2241 4666 
Q 2963 4666 3353 4366 
Q 3744 4066 3744 3513 
Q 3744 3084 3544 2831 
Q 3344 2578 2956 2516 
Q 3422 2416 3680 2098 
Q 3938 1781 3938 1306 
Q 3938 681 3513 340 
Q 3088 0 2303 0 
L 628 0 
L 628 4666 
z
" transform="scale(0.015625)"/>
     </defs>
     <use xlink:href="#DejaVuSans-42"/>
     <use xlink:href="#DejaVuSans-75" x="68.603516"/>
     <use xlink:href="#DejaVuSans-72" x="131.982422"/>
     <use xlink:href="#DejaVuSans-6d" x="171.345703"/>
     <use xlink:href="#DejaVuSans-61" x="268.757812"/>
    </g>
   </g>
   <g id="text_30">
    <!-- 1% -->
    <g transform="translate(458.843798 1207.215305)scale(0.0579 -0.0579)">
     <use xlink:href="#DejaVuSans-31"/>
     <use xlink:href="#DejaVuSans-25" x="63.623047"/>
    </g>
   </g>
   <g id="text_31">
    <!-- Turkey -->
    <g transform="translate(179.284924 1040.972187)scale(0.0579 -0.0579)">
     <defs>
      <path id="DejaVuSans-6b" d="M 581 4863 
L 1159 4863 
L 1159 1991 
L 2875 3500 
L 3609 3500 
L 1753 1863 
L 3688 0 
L 2938 0 
L 1159 1709 
L 1159 0 
L 581 0 
L 581 4863 
z
" transform="scale(0.015625)"/>
     </defs>
     <use xlink:href="#DejaVuSans-54"/>
     <use xlink:href="#DejaVuSans-75" x="45.958984"/>
     <use xlink:href="#DejaVuSans-72" x="109.337891"/>
     <use xlink:href="#DejaVuSans-6b" x="150.451172"/>
     <use xlink:href="#DejaVuSans-65" x="204.736328"/>
     <use xlink:href="#DejaVuSans-79" x="266.259766"/>
    </g>
   </g>
   <g id="text_32">
    <!-- 1% -->
    <g transform="translate(445.495115 1224.464602)scale(0.0579 -0.0579)">
     <use xlink:href="#DejaVuSans-31"/>
     <use xlink:href="#DejaVuSans-25" x="63.623047"/>
    </g>
   </g>
   <g id="text_33">
    <!-- Qatar -->
    <g transform="translate(162.135757 1069.493759)scale(0.0579 -0.0579)">
     <defs>
      <path id="DejaVuSans-51" d="M 2522 4238 
Q 1834 4238 1429 3725 
Q 1025 3213 1025 2328 
Q 1025 1447 1429 934 
Q 1834 422 2522 422 
Q 3209 422 3611 934 
Q 4013 1447 4013 2328 
Q 4013 3213 3611 3725 
Q 3209 4238 2522 4238 
z
M 3406 84 
L 4238 -825 
L 3475 -825 
L 2784 -78 
Q 2681 -84 2626 -87 
Q 2572 -91 2522 -91 
Q 1538 -91 948 567 
Q 359 1225 359 2328 
Q 359 3434 948 4092 
Q 1538 4750 2522 4750 
Q 3503 4750 4090 4092 
Q 4678 3434 4678 2328 
Q 4678 1516 4351 937 
Q 4025 359 3406 84 
z
" transform="scale(0.015625)"/>
     </defs>
     <use xlink:href="#DejaVuSans-51"/>
     <use xlink:href="#DejaVuSans-61" x="78.710938"/>
     <use xlink:href="#DejaVuSans-74" x="139.990234"/>
     <use xlink:href="#DejaVuSans-61" x="179.199219"/>
     <use xlink:href="#DejaVuSans-72" x="240.478516"/>
    </g>
   </g>
   <g id="text_34">
    <!-- 1% -->
    <g transform="translate(434.756358 1240.021824)scale(0.0579 -0.0579)">
     <use xlink:href="#DejaVuSans-31"/>
     <use xlink:href="#DejaVuSans-25" x="63.623047"/>
    </g>
   </g>
   <g id="text_35">
    <!-- Finland -->
    <g transform="translate(140.8768 1096.673603)scale(0.0579 -0.0579)">
     <use xlink:href="#DejaVuSans-46"/>
     <use xlink:href="#DejaVuSans-69" x="50.269531"/>
     <use xlink:href="#DejaVuSans-6e" x="78.052734"/>
     <use xlink:href="#DejaVuSans-6c" x="141.431641"/>
     <use xlink:href="#DejaVuSans-61" x="169.214844"/>
     <use xlink:href="#DejaVuSans-6e" x="230.494141"/>
     <use xlink:href="#DejaVuSans-64" x="293.873047"/>
    </g>
   </g>
   <g id="text_36">
    <!-- 1% -->
    <g transform="translate(425.552886 1254.847193)scale(0.0579 -0.0579)">
     <use xlink:href="#DejaVuSans-31"/>
     <use xlink:href="#DejaVuSans-25" x="63.623047"/>
    </g>
   </g>
   <g id="text_37">
    <!-- Laos -->
    <g transform="translate(133.895677 1122.255275)scale(0.0579 -0.0579)">
     <defs>
      <path id="DejaVuSans-4c" d="M 628 4666 
L 1259 4666 
L 1259 531 
L 3531 531 
L 3531 0 
L 628 0 
L 628 4666 
z
" transform="scale(0.015625)"/>
     </defs>
     <use xlink:href="#DejaVuSans-4c"/>
     <use xlink:href="#DejaVuSans-61" x="55.712891"/>
     <use xlink:href="#DejaVuSans-6f" x="116.992188"/>
     <use xlink:href="#DejaVuSans-73" x="178.173828"/>
    </g>
   </g>
   <g id="text_38">
    <!-- 1% -->
    <g transform="translate(417.732136 1268.800832)scale(0.0579 -0.0579)">
     <use xlink:href="#DejaVuSans-31"/>
     <use xlink:href="#DejaVuSans-25" x="63.623047"/>
    </g>
   </g>
   <g id="text_39">
    <!-- Maldives -->
    <g transform="translate(110.877496 1143.626458)scale(0.0579 -0.0579)">
     <defs>
      <path id="DejaVuSans-4d" d="M 628 4666 
L 1569 4666 
L 2759 1491 
L 3956 4666 
L 4897 4666 
L 4897 0 
L 4281 0 
L 4281 4097 
L 3078 897 
L 2444 897 
L 1241 4097 
L 1241 0 
L 628 0 
L 628 4666 
z
" transform="scale(0.015625)"/>
      <path id="DejaVuSans-76" d="M 191 3500 
L 800 3500 
L 1894 563 
L 2988 3500 
L 3597 3500 
L 2284 0 
L 1503 0 
L 191 3500 
z
" transform="scale(0.015625)"/>
     </defs>
     <use xlink:href="#DejaVuSans-4d"/>
     <use xlink:href="#DejaVuSans-61" x="86.279297"/>
     <use xlink:href="#DejaVuSans-6c" x="147.558594"/>
     <use xlink:href="#DejaVuSans-64" x="175.341797"/>
     <use xlink:href="#DejaVuSans-69" x="238.818359"/>
     <use xlink:href="#DejaVuSans-76" x="266.601562"/>
     <use xlink:href="#DejaVuSans-65" x="325.78125"/>
     <use xlink:href="#DejaVuSans-73" x="387.304688"/>
    </g>
   </g>
   <g id="text_40">
    <!-- 0% -->
    <g transform="translate(411.781806 1280.457841)scale(0.0579 -0.0579)">
     <defs>
      <path id="DejaVuSans-30" d="M 2034 4250 
Q 1547 4250 1301 3770 
Q 1056 3291 1056 2328 
Q 1056 1369 1301 889 
Q 1547 409 2034 409 
Q 2525 409 2770 889 
Q 3016 1369 3016 2328 
Q 3016 3291 2770 3770 
Q 2525 4250 2034 4250 
z
M 2034 4750 
Q 2819 4750 3233 4129 
Q 3647 3509 3647 2328 
Q 3647 1150 3233 529 
Q 2819 -91 2034 -91 
Q 1250 -91 836 529 
Q 422 1150 422 2328 
Q 422 3509 836 4129 
Q 1250 4750 2034 4750 
z
" transform="scale(0.015625)"/>
     </defs>
     <use xlink:href="#DejaVuSans-30"/>
     <use xlink:href="#DejaVuSans-25" x="63.623047"/>
    </g>
   </g>
   <g id="text_41">
    <!-- Pakistan -->
    <g transform="translate(103.012273 1162.93331)scale(0.0579 -0.0579)">
     <use xlink:href="#DejaVuSans-50"/>
     <use xlink:href="#DejaVuSans-61" x="55.802734"/>
     <use xlink:href="#DejaVuSans-6b" x="117.082031"/>
     <use xlink:href="#DejaVuSans-69" x="174.992188"/>
     <use xlink:href="#DejaVuSans-73" x="202.775391"/>
     <use xlink:href="#DejaVuSans-74" x="254.875"/>
     <use xlink:href="#DejaVuSans-61" x="294.083984"/>
     <use xlink:href="#DejaVuSans-6e" x="355.363281"/>
    </g>
   </g>
   <g id="text_42">
    <!-- 0% -->
    <g transform="translate(406.837842 1290.988852)scale(0.0579 -0.0579)">
     <use xlink:href="#DejaVuSans-30"/>
     <use xlink:href="#DejaVuSans-25" x="63.623047"/>
    </g>
   </g>
   <g id="text_43">
    <!-- Nepal -->
    <g transform="translate(102.070213 1182.51271)scale(0.0579 -0.0579)">
     <defs>
      <path id="DejaVuSans-4e" d="M 628 4666 
L 1478 4666 
L 3547 763 
L 3547 4666 
L 4159 4666 
L 4159 0 
L 3309 0 
L 1241 3903 
L 1241 0 
L 628 0 
L 628 4666 
z
" transform="scale(0.015625)"/>
     </defs>
     <use xlink:href="#DejaVuSans-4e"/>
     <use xlink:href="#DejaVuSans-65" x="74.804688"/>
     <use xlink:href="#DejaVuSans-70" x="136.328125"/>
     <use xlink:href="#DejaVuSans-61" x="199.804688"/>
     <use xlink:href="#DejaVuSans-6c" x="261.083984"/>
    </g>
   </g>
   <g id="text_44">
    <!-- 0% -->
    <g transform="translate(402.223783 1301.668524)scale(0.0579 -0.0579)">
     <use xlink:href="#DejaVuSans-30"/>
     <use xlink:href="#DejaVuSans-25" x="63.623047"/>
    </g>
   </g>
   <g id="text_45">
    <!-- Mongolia -->
    <g transform="translate(84.759272 1202.345717)scale(0.0579 -0.0579)">
     <use xlink:href="#DejaVuSans-4d"/>
     <use xlink:href="#DejaVuSans-6f" x="86.279297"/>
     <use xlink:href="#DejaVuSans-6e" x="147.460938"/>
     <use xlink:href="#DejaVuSans-67" x="210.839844"/>
     <use xlink:href="#DejaVuSans-6f" x="274.316406"/>
     <use xlink:href="#DejaVuSans-6c" x="335.498047"/>
     <use xlink:href="#DejaVuSans-69" x="363.28125"/>
     <use xlink:href="#DejaVuSans-61" x="391.064453"/>
    </g>
   </g>
   <g id="text_46">
    <!-- 0% -->
    <g transform="translate(397.944091 1312.486528)scale(0.0579 -0.0579)">
     <use xlink:href="#DejaVuSans-30"/>
     <use xlink:href="#DejaVuSans-25" x="63.623047"/>
    </g>
   </g>
   <g id="text_47">
    <!-- Uzbekistan -->
    <g transform="translate(71.74558 1222.413142)scale(0.0579 -0.0579)">
     <defs>
      <path id="DejaVuSans-7a" d="M 353 3500 
L 3084 3500 
L 3084 2975 
L 922 459 
L 3084 459 
L 3084 0 
L 275 0 
L 275 525 
L 2438 3041 
L 353 3041 
L 353 3500 
z
" transform="scale(0.015625)"/>
     </defs>
     <use xlink:href="#DejaVuSans-55"/>
     <use xlink:href="#DejaVuSans-7a" x="73.193359"/>
     <use xlink:href="#DejaVuSans-62" x="125.683594"/>
     <use xlink:href="#DejaVuSans-65" x="189.160156"/>
     <use xlink:href="#DejaVuSans-6b" x="250.683594"/>
     <use xlink:href="#DejaVuSans-69" x="308.59375"/>
     <use xlink:href="#DejaVuSans-73" x="336.376953"/>
     <use xlink:href="#DejaVuSans-74" x="388.476562"/>
     <use xlink:href="#DejaVuSans-61" x="427.685547"/>
     <use xlink:href="#DejaVuSans-6e" x="488.964844"/>
    </g>
   </g>
   <g id="text_48">
    <!-- 0% -->
    <g transform="translate(394.002909 1323.432396)scale(0.0579 -0.0579)">
     <use xlink:href="#DejaVuSans-30"/>
     <use xlink:href="#DejaVuSans-25" x="63.623047"/>
    </g>
   </g>
   <g id="text_49">
    <!-- Northern Mariana Islands -->
    <g transform="translate(24.991705 1240.149179)scale(0.0579 -0.0579)">
     <defs>
      <path id="DejaVuSans-49" d="M 628 4666 
L 1259 4666 
L 1259 0 
L 628 0 
L 628 4666 
z
" transform="scale(0.015625)"/>
     </defs>
     <use xlink:href="#DejaVuSans-4e"/>
     <use xlink:href="#DejaVuSans-6f" x="74.804688"/>
     <use xlink:href="#DejaVuSans-72" x="135.986328"/>
     <use xlink:href="#DejaVuSans-74" x="177.099609"/>
     <use xlink:href="#DejaVuSans-68" x="216.308594"/>
     <use xlink:href="#DejaVuSans-65" x="279.6875"/>
     <use xlink:href="#DejaVuSans-72" x="341.210938"/>
     <use xlink:href="#DejaVuSans-6e" x="380.574219"/>
     <use xlink:href="#DejaVuSans-20" x="443.953125"/>
     <use xlink:href="#DejaVuSans-4d" x="475.740234"/>
     <use xlink:href="#DejaVuSans-61" x="562.019531"/>
     <use xlink:href="#DejaVuSans-72" x="623.298828"/>
     <use xlink:href="#DejaVuSans-69" x="664.412109"/>
     <use xlink:href="#DejaVuSans-61" x="692.195312"/>
     <use xlink:href="#DejaVuSans-6e" x="753.474609"/>
     <use xlink:href="#DejaVuSans-61" x="816.853516"/>
     <use xlink:href="#DejaVuSans-20" x="878.132812"/>
     <use xlink:href="#DejaVuSans-49" x="909.919922"/>
     <use xlink:href="#DejaVuSans-73" x="939.412109"/>
     <use xlink:href="#DejaVuSans-6c" x="991.511719"/>
     <use xlink:href="#DejaVuSans-61" x="1019.294922"/>
     <use xlink:href="#DejaVuSans-6e" x="1080.574219"/>
     <use xlink:href="#DejaVuSans-64" x="1143.953125"/>
     <use xlink:href="#DejaVuSans-73" x="1207.429688"/>
    </g>
   </g>
   <g id="text_50">
    <!-- 0% -->
    <g transform="translate(390.835063 1333.106598)scale(0.0579 -0.0579)">
     <use xlink:href="#DejaVuSans-30"/>
     <use xlink:href="#DejaVuSans-25" x="63.623047"/>
    </g>
   </g>
   <g id="text_51">
    <!-- Kenya -->
    <g transform="translate(76.351189 1252.911291)scale(0.0579 -0.0579)">
     <use xlink:href="#DejaVuSans-4b"/>
     <use xlink:href="#DejaVuSans-65" x="60.576172"/>
     <use xlink:href="#DejaVuSans-6e" x="122.099609"/>
     <use xlink:href="#DejaVuSans-79" x="185.478516"/>
     <use xlink:href="#DejaVuSans-61" x="244.658203"/>
    </g>
   </g>
   <g id="text_52">
    <!-- 0% -->
    <g transform="translate(388.734089 1340.06775)scale(0.0579 -0.0579)">
     <use xlink:href="#DejaVuSans-30"/>
     <use xlink:href="#DejaVuSans-25" x="63.623047"/>
    </g>
   </g>
   <g id="text_53">
    <!-- Israel -->
    <g transform="translate(75.339637 1263.173386)scale(0.0579 -0.0579)">
     <use xlink:href="#DejaVuSans-49"/>
     <use xlink:href="#DejaVuSans-73" x="29.492188"/>
     <use xlink:href="#DejaVuSans-72" x="81.591797"/>
     <use xlink:href="#DejaVuSans-61" x="122.705078"/>
     <use xlink:href="#DejaVuSans-65" x="183.984375"/>
     <use xlink:href="#DejaVuSans-6c" x="245.507812"/>
    </g>
   </g>
   <g id="text_54">
    <!-- 0% -->
    <g transform="translate(387.15099 1345.665257)scale(0.0579 -0.0579)">
     <use xlink:href="#DejaVuSans-30"/>
     <use xlink:href="#DejaVuSans-25" x="63.623047"/>
    </g>
   </g>
   <g id="text_55">
    <!-- Bangladesh -->
    <g transform="translate(54.474534 1273.479378)scale(0.0579 -0.0579)">
     <use xlink:href="#DejaVuSans-42"/>
     <use xlink:href="#DejaVuSans-61" x="68.603516"/>
     <use xlink:href="#DejaVuSans-6e" x="129.882812"/>
     <use xlink:href="#DejaVuSans-67" x="193.261719"/>
     <use xlink:href="#DejaVuSans-6c" x="256.738281"/>
     <use xlink:href="#DejaVuSans-61" x="284.521484"/>
     <use xlink:href="#DejaVuSans-64" x="345.800781"/>
     <use xlink:href="#DejaVuSans-65" x="409.277344"/>
     <use xlink:href="#DejaVuSans-73" x="470.800781"/>
     <use xlink:href="#DejaVuSans-68" x="522.900391"/>
    </g>
   </g>
   <g id="text_56">
    <!-- 0% -->
    <g transform="translate(385.655134 1351.286706)scale(0.0579 -0.0579)">
     <use xlink:href="#DejaVuSans-30"/>
     <use xlink:href="#DejaVuSans-25" x="63.623047"/>
    </g>
   </g>
   <g id="text_57">
    <!-- Poland -->
    <g transform="translate(66.513394 1283.826772)scale(0.0579 -0.0579)">
     <use xlink:href="#DejaVuSans-50"/>
     <use xlink:href="#DejaVuSans-6f" x="56.677734"/>
     <use xlink:href="#DejaVuSans-6c" x="117.859375"/>
     <use xlink:href="#DejaVuSans-61" x="145.642578"/>
     <use xlink:href="#DejaVuSans-6e" x="206.921875"/>
     <use xlink:href="#DejaVuSans-64" x="270.300781"/>
    </g>
   </g>
   <g id="text_58">
    <!-- 0% -->
    <g transform="translate(384.246882 1356.93074)scale(0.0579 -0.0579)">
     <use xlink:href="#DejaVuSans-30"/>
     <use xlink:href="#DejaVuSans-25" x="63.623047"/>
    </g>
   </g>
   <g id="text_59">
    <!-- Austria -->
    <g transform="translate(62.965592 1294.213067)scale(0.0579 -0.0579)">
     <use xlink:href="#DejaVuSans-41"/>
     <use xlink:href="#DejaVuSans-75" x="68.408203"/>
     <use xlink:href="#DejaVuSans-73" x="131.787109"/>
     <use xlink:href="#DejaVuSans-74" x="183.886719"/>
     <use xlink:href="#DejaVuSans-72" x="223.095703"/>
     <use xlink:href="#DejaVuSans-69" x="264.208984"/>
     <use xlink:href="#DejaVuSans-61" x="291.992188"/>
    </g>
   </g>
   <g id="text_60">
    <!-- 0% -->
    <g transform="translate(382.926576 1362.595991)scale(0.0579 -0.0579)">
     <use xlink:href="#DejaVuSans-30"/>
     <use xlink:href="#DejaVuSans-25" x="63.623047"/>
    </g>
   </g>
   <g id="text_61">
    <!-- South Africa -->
    <g transform="translate(45.98306 1304.635749)scale(0.0579 -0.0579)">
     <defs>
      <path id="DejaVuSans-66" d="M 2375 4863 
L 2375 4384 
L 1825 4384 
Q 1516 4384 1395 4259 
Q 1275 4134 1275 3809 
L 1275 3500 
L 2222 3500 
L 2222 3053 
L 1275 3053 
L 1275 0 
L 697 0 
L 697 3053 
L 147 3053 
L 147 3500 
L 697 3500 
L 697 3744 
Q 697 4328 969 4595 
Q 1241 4863 1831 4863 
L 2375 4863 
z
" transform="scale(0.015625)"/>
     </defs>
     <use xlink:href="#DejaVuSans-53"/>
     <use xlink:href="#DejaVuSans-6f" x="63.476562"/>
     <use xlink:href="#DejaVuSans-75" x="124.658203"/>
     <use xlink:href="#DejaVuSans-74" x="188.037109"/>
     <use xlink:href="#DejaVuSans-68" x="227.246094"/>
     <use xlink:href="#DejaVuSans-20" x="290.625"/>
     <use xlink:href="#DejaVuSans-41" x="322.412109"/>
     <use xlink:href="#DejaVuSans-66" x="387.195312"/>
     <use xlink:href="#DejaVuSans-72" x="422.400391"/>
     <use xlink:href="#DejaVuSans-69" x="463.513672"/>
     <use xlink:href="#DejaVuSans-63" x="491.296875"/>
     <use xlink:href="#DejaVuSans-61" x="546.277344"/>
    </g>
   </g>
   <g id="text_62">
    <!-- 0% -->
    <g transform="translate(381.694534 1368.281091)scale(0.0579 -0.0579)">
     <use xlink:href="#DejaVuSans-30"/>
     <use xlink:href="#DejaVuSans-25" x="63.623047"/>
    </g>
   </g>
   <g id="text_63">
    <!-- Saudi Arabia -->
    <g transform="translate(42.324286 1315.092299)scale(0.0579 -0.0579)">
     <use xlink:href="#DejaVuSans-53"/>
     <use xlink:href="#DejaVuSans-61" x="63.476562"/>
     <use xlink:href="#DejaVuSans-75" x="124.755859"/>
     <use xlink:href="#DejaVuSans-64" x="188.134766"/>
     <use xlink:href="#DejaVuSans-69" x="251.611328"/>
     <use xlink:href="#DejaVuSans-20" x="279.394531"/>
     <use xlink:href="#DejaVuSans-41" x="311.181641"/>
     <use xlink:href="#DejaVuSans-72" x="379.589844"/>
     <use xlink:href="#DejaVuSans-61" x="420.703125"/>
     <use xlink:href="#DejaVuSans-62" x="481.982422"/>
     <use xlink:href="#DejaVuSans-69" x="545.458984"/>
     <use xlink:href="#DejaVuSans-61" x="573.242188"/>
    </g>
   </g>
   <g id="text_64">
    <!-- 0% -->
    <g transform="translate(380.551055 1373.984663)scale(0.0579 -0.0579)">
     <use xlink:href="#DejaVuSans-30"/>
     <use xlink:href="#DejaVuSans-25" x="63.623047"/>
    </g>
   </g>
   <g id="text_65">
    <!-- Mexico -->
    <g transform="translate(57.379359 1322.955415)scale(0.0579 -0.0579)">
     <defs>
      <path id="DejaVuSans-78" d="M 3513 3500 
L 2247 1797 
L 3578 0 
L 2900 0 
L 1881 1375 
L 863 0 
L 184 0 
L 1544 1831 
L 300 3500 
L 978 3500 
L 1906 2253 
L 2834 3500 
L 3513 3500 
z
" transform="scale(0.015625)"/>
     </defs>
     <use xlink:href="#DejaVuSans-4d"/>
     <use xlink:href="#DejaVuSans-65" x="86.279297"/>
     <use xlink:href="#DejaVuSans-78" x="146.052734"/>
     <use xlink:href="#DejaVuSans-69" x="205.232422"/>
     <use xlink:href="#DejaVuSans-63" x="233.015625"/>
     <use xlink:href="#DejaVuSans-6f" x="287.996094"/>
    </g>
   </g>
   <g id="text_66">
    <!-- 0% -->
    <g transform="translate(379.751732 1378.273636)scale(0.0579 -0.0579)">
     <use xlink:href="#DejaVuSans-30"/>
     <use xlink:href="#DejaVuSans-25" x="63.623047"/>
    </g>
   </g>
   <g id="text_67">
    <!-- China OutBound OutBound Flight distribution -->
    <g transform="translate(610.960601 20.8)scale(0.12 -0.12)">
     <defs>
      <path id="DejaVuSans-4f" d="M 2522 4238 
Q 1834 4238 1429 3725 
Q 1025 3213 1025 2328 
Q 1025 1447 1429 934 
Q 1834 422 2522 422 
Q 3209 422 3611 934 
Q 4013 1447 4013 2328 
Q 4013 3213 3611 3725 
Q 3209 4238 2522 4238 
z
M 2522 4750 
Q 3503 4750 4090 4092 
Q 4678 3434 4678 2328 
Q 4678 1225 4090 567 
Q 3503 -91 2522 -91 
Q 1538 -91 948 565 
Q 359 1222 359 2328 
Q 359 3434 948 4092 
Q 1538 4750 2522 4750 
z
" transform="scale(0.015625)"/>
     </defs>
     <use xlink:href="#DejaVuSans-43"/>
     <use xlink:href="#DejaVuSans-68" x="69.824219"/>
     <use xlink:href="#DejaVuSans-69" x="133.203125"/>
     <use xlink:href="#DejaVuSans-6e" x="160.986328"/>
     <use xlink:href="#DejaVuSans-61" x="224.365234"/>
     <use xlink:href="#DejaVuSans-20" x="285.644531"/>
     <use xlink:href="#DejaVuSans-4f" x="317.431641"/>
     <use xlink:href="#DejaVuSans-75" x="396.142578"/>
     <use xlink:href="#DejaVuSans-74" x="459.521484"/>
     <use xlink:href="#DejaVuSans-42" x="498.730469"/>
     <use xlink:href="#DejaVuSans-6f" x="567.333984"/>
     <use xlink:href="#DejaVuSans-75" x="628.515625"/>
     <use xlink:href="#DejaVuSans-6e" x="691.894531"/>
     <use xlink:href="#DejaVuSans-64" x="755.273438"/>
     <use xlink:href="#DejaVuSans-20" x="818.75"/>
     <use xlink:href="#DejaVuSans-4f" x="850.537109"/>
     <use xlink:href="#DejaVuSans-75" x="929.248047"/>
     <use xlink:href="#DejaVuSans-74" x="992.626953"/>
     <use xlink:href="#DejaVuSans-42" x="1031.835938"/>
     <use xlink:href="#DejaVuSans-6f" x="1100.439453"/>
     <use xlink:href="#DejaVuSans-75" x="1161.621094"/>
     <use xlink:href="#DejaVuSans-6e" x="1225"/>
     <use xlink:href="#DejaVuSans-64" x="1288.378906"/>
     <use xlink:href="#DejaVuSans-20" x="1351.855469"/>
     <use xlink:href="#DejaVuSans-46" x="1383.642578"/>
     <use xlink:href="#DejaVuSans-6c" x="1441.162109"/>
     <use xlink:href="#DejaVuSans-69" x="1468.945312"/>
     <use xlink:href="#DejaVuSans-67" x="1496.728516"/>
     <use xlink:href="#DejaVuSans-68" x="1560.205078"/>
     <use xlink:href="#DejaVuSans-74" x="1623.583984"/>
     <use xlink:href="#DejaVuSans-20" x="1662.792969"/>
     <use xlink:href="#DejaVuSans-64" x="1694.580078"/>
     <use xlink:href="#DejaVuSans-69" x="1758.056641"/>
     <use xlink:href="#DejaVuSans-73" x="1785.839844"/>
     <use xlink:href="#DejaVuSans-74" x="1837.939453"/>
     <use xlink:href="#DejaVuSans-72" x="1877.148438"/>
     <use xlink:href="#DejaVuSans-69" x="1918.261719"/>
     <use xlink:href="#DejaVuSans-62" x="1946.044922"/>
     <use xlink:href="#DejaVuSans-75" x="2009.521484"/>
     <use xlink:href="#DejaVuSans-74" x="2072.900391"/>
     <use xlink:href="#DejaVuSans-69" x="2112.109375"/>
     <use xlink:href="#DejaVuSans-6f" x="2139.892578"/>
     <use xlink:href="#DejaVuSans-6e" x="2201.074219"/>
    </g>
   </g>
  </g>
  <g id="axes_2">
   <g id="legend_1">
    <g id="patch_35">
     <path d="M 1478.948019 1691.689063 
L 1636.899581 1691.689063 
Q 1638.899581 1691.689063 1638.899581 1689.689063 
L 1638.899581 1206.310937 
Q 1638.899581 1204.310937 1636.899581 1204.310937 
L 1478.948019 1204.310937 
Q 1476.948019 1204.310937 1476.948019 1206.310937 
L 1476.948019 1689.689063 
Q 1476.948019 1691.689063 1478.948019 1691.689063 
z
" style="fill: #ffffff; opacity: 0.8; stroke: #cccccc; stroke-linejoin: miter"/>
    </g>
    <g id="patch_36">
     <path d="M 1480.948019 1215.909375 
L 1500.948019 1215.909375 
L 1500.948019 1208.909375 
L 1480.948019 1208.909375 
z
" style="fill: #8000ff"/>
    </g>
    <g id="text_68">
     <!-- Taiwan -->
     <g transform="translate(1508.948019 1215.909375)scale(0.1 -0.1)">
      <use xlink:href="#DejaVuSans-54"/>
      <use xlink:href="#DejaVuSans-61" x="44.583984"/>
      <use xlink:href="#DejaVuSans-69" x="105.863281"/>
      <use xlink:href="#DejaVuSans-77" x="133.646484"/>
      <use xlink:href="#DejaVuSans-61" x="215.433594"/>
      <use xlink:href="#DejaVuSans-6e" x="276.712891"/>
     </g>
    </g>
    <g id="patch_37">
     <path d="M 1480.948019 1230.5875 
L 1500.948019 1230.5875 
L 1500.948019 1223.5875 
L 1480.948019 1223.5875 
z
" style="fill: #7216ff"/>
    </g>
    <g id="text_69">
     <!-- South Korea -->
     <g transform="translate(1508.948019 1230.5875)scale(0.1 -0.1)">
      <use xlink:href="#DejaVuSans-53"/>
      <use xlink:href="#DejaVuSans-6f" x="63.476562"/>
      <use xlink:href="#DejaVuSans-75" x="124.658203"/>
      <use xlink:href="#DejaVuSans-74" x="188.037109"/>
      <use xlink:href="#DejaVuSans-68" x="227.246094"/>
      <use xlink:href="#DejaVuSans-20" x="290.625"/>
      <use xlink:href="#DejaVuSans-4b" x="322.412109"/>
      <use xlink:href="#DejaVuSans-6f" x="382.988281"/>
      <use xlink:href="#DejaVuSans-72" x="444.169922"/>
      <use xlink:href="#DejaVuSans-65" x="483.033203"/>
      <use xlink:href="#DejaVuSans-61" x="544.556641"/>
     </g>
    </g>
    <g id="patch_38">
     <path d="M 1480.948019 1245.265625 
L 1500.948019 1245.265625 
L 1500.948019 1238.265625 
L 1480.948019 1238.265625 
z
" style="fill: #622ffe"/>
    </g>
    <g id="text_70">
     <!-- Hong Kong -->
     <g transform="translate(1508.948019 1245.265625)scale(0.1 -0.1)">
      <use xlink:href="#DejaVuSans-48"/>
      <use xlink:href="#DejaVuSans-6f" x="75.195312"/>
      <use xlink:href="#DejaVuSans-6e" x="136.376953"/>
      <use xlink:href="#DejaVuSans-67" x="199.755859"/>
      <use xlink:href="#DejaVuSans-20" x="263.232422"/>
      <use xlink:href="#DejaVuSans-4b" x="295.019531"/>
      <use xlink:href="#DejaVuSans-6f" x="355.595703"/>
      <use xlink:href="#DejaVuSans-6e" x="416.777344"/>
      <use xlink:href="#DejaVuSans-67" x="480.15625"/>
     </g>
    </g>
    <g id="patch_39">
     <path d="M 1480.948019 1259.94375 
L 1500.948019 1259.94375 
L 1500.948019 1252.94375 
L 1480.948019 1252.94375 
z
" style="fill: #5247fc"/>
    </g>
    <g id="text_71">
     <!-- Thailand -->
     <g transform="translate(1508.948019 1259.94375)scale(0.1 -0.1)">
      <use xlink:href="#DejaVuSans-54"/>
      <use xlink:href="#DejaVuSans-68" x="61.083984"/>
      <use xlink:href="#DejaVuSans-61" x="124.462891"/>
      <use xlink:href="#DejaVuSans-69" x="185.742188"/>
      <use xlink:href="#DejaVuSans-6c" x="213.525391"/>
      <use xlink:href="#DejaVuSans-61" x="241.308594"/>
      <use xlink:href="#DejaVuSans-6e" x="302.587891"/>
      <use xlink:href="#DejaVuSans-64" x="365.966797"/>
     </g>
    </g>
    <g id="patch_40">
     <path d="M 1480.948019 1274.621875 
L 1500.948019 1274.621875 
L 1500.948019 1267.621875 
L 1480.948019 1267.621875 
z
" style="fill: #425ffa"/>
    </g>
    <g id="text_72">
     <!-- Russia -->
     <g transform="translate(1508.948019 1274.621875)scale(0.1 -0.1)">
      <use xlink:href="#DejaVuSans-52"/>
      <use xlink:href="#DejaVuSans-75" x="64.982422"/>
      <use xlink:href="#DejaVuSans-73" x="128.361328"/>
      <use xlink:href="#DejaVuSans-73" x="180.460938"/>
      <use xlink:href="#DejaVuSans-69" x="232.560547"/>
      <use xlink:href="#DejaVuSans-61" x="260.34375"/>
     </g>
    </g>
    <g id="patch_41">
     <path d="M 1480.948019 1289.3 
L 1500.948019 1289.3 
L 1500.948019 1282.3 
L 1480.948019 1282.3 
z
" style="fill: #3473f8"/>
    </g>
    <g id="text_73">
     <!-- Singapore -->
     <g transform="translate(1508.948019 1289.3)scale(0.1 -0.1)">
      <use xlink:href="#DejaVuSans-53"/>
      <use xlink:href="#DejaVuSans-69" x="63.476562"/>
      <use xlink:href="#DejaVuSans-6e" x="91.259766"/>
      <use xlink:href="#DejaVuSans-67" x="154.638672"/>
      <use xlink:href="#DejaVuSans-61" x="218.115234"/>
      <use xlink:href="#DejaVuSans-70" x="279.394531"/>
      <use xlink:href="#DejaVuSans-6f" x="342.871094"/>
      <use xlink:href="#DejaVuSans-72" x="404.052734"/>
      <use xlink:href="#DejaVuSans-65" x="442.916016"/>
     </g>
    </g>
    <g id="patch_42">
     <path d="M 1480.948019 1303.978125 
L 1500.948019 1303.978125 
L 1500.948019 1296.978125 
L 1480.948019 1296.978125 
z
" style="fill: #2489f5"/>
    </g>
    <g id="text_74">
     <!-- Vietnam -->
     <g transform="translate(1508.948019 1303.978125)scale(0.1 -0.1)">
      <use xlink:href="#DejaVuSans-56"/>
      <use xlink:href="#DejaVuSans-69" x="66.158203"/>
      <use xlink:href="#DejaVuSans-65" x="93.941406"/>
      <use xlink:href="#DejaVuSans-74" x="155.464844"/>
      <use xlink:href="#DejaVuSans-6e" x="194.673828"/>
      <use xlink:href="#DejaVuSans-61" x="258.052734"/>
      <use xlink:href="#DejaVuSans-6d" x="319.332031"/>
     </g>
    </g>
    <g id="patch_43">
     <path d="M 1480.948019 1318.65625 
L 1500.948019 1318.65625 
L 1500.948019 1311.65625 
L 1480.948019 1311.65625 
z
" style="fill: #149df1"/>
    </g>
    <g id="text_75">
     <!-- Germany -->
     <g transform="translate(1508.948019 1318.65625)scale(0.1 -0.1)">
      <use xlink:href="#DejaVuSans-47"/>
      <use xlink:href="#DejaVuSans-65" x="77.490234"/>
      <use xlink:href="#DejaVuSans-72" x="139.013672"/>
      <use xlink:href="#DejaVuSans-6d" x="178.376953"/>
      <use xlink:href="#DejaVuSans-61" x="275.789062"/>
      <use xlink:href="#DejaVuSans-6e" x="337.068359"/>
      <use xlink:href="#DejaVuSans-79" x="400.447266"/>
     </g>
    </g>
    <g id="patch_44">
     <path d="M 1480.948019 1333.334375 
L 1500.948019 1333.334375 
L 1500.948019 1326.334375 
L 1480.948019 1326.334375 
z
" style="fill: #04b0ed"/>
    </g>
    <g id="text_76">
     <!-- Australia -->
     <g transform="translate(1508.948019 1333.334375)scale(0.1 -0.1)">
      <use xlink:href="#DejaVuSans-41"/>
      <use xlink:href="#DejaVuSans-75" x="68.408203"/>
      <use xlink:href="#DejaVuSans-73" x="131.787109"/>
      <use xlink:href="#DejaVuSans-74" x="183.886719"/>
      <use xlink:href="#DejaVuSans-72" x="223.095703"/>
      <use xlink:href="#DejaVuSans-61" x="264.208984"/>
      <use xlink:href="#DejaVuSans-6c" x="325.488281"/>
      <use xlink:href="#DejaVuSans-69" x="353.271484"/>
      <use xlink:href="#DejaVuSans-61" x="381.054688"/>
     </g>
    </g>
    <g id="patch_45">
     <path d="M 1480.948019 1348.0125 
L 1500.948019 1348.0125 
L 1500.948019 1341.0125 
L 1480.948019 1341.0125 
z
" style="fill: #0ac0e8"/>
    </g>
    <g id="text_77">
     <!-- Philippines -->
     <g transform="translate(1508.948019 1348.0125)scale(0.1 -0.1)">
      <use xlink:href="#DejaVuSans-50"/>
      <use xlink:href="#DejaVuSans-68" x="60.302734"/>
      <use xlink:href="#DejaVuSans-69" x="123.681641"/>
      <use xlink:href="#DejaVuSans-6c" x="151.464844"/>
      <use xlink:href="#DejaVuSans-69" x="179.248047"/>
      <use xlink:href="#DejaVuSans-70" x="207.03125"/>
      <use xlink:href="#DejaVuSans-70" x="270.507812"/>
      <use xlink:href="#DejaVuSans-69" x="333.984375"/>
      <use xlink:href="#DejaVuSans-6e" x="361.767578"/>
      <use xlink:href="#DejaVuSans-65" x="425.146484"/>
      <use xlink:href="#DejaVuSans-73" x="486.669922"/>
     </g>
    </g>
    <g id="patch_46">
     <path d="M 1480.948019 1362.690625 
L 1500.948019 1362.690625 
L 1500.948019 1355.690625 
L 1480.948019 1355.690625 
z
" style="fill: #1acfe3"/>
    </g>
    <g id="text_78">
     <!-- Canada -->
     <g transform="translate(1508.948019 1362.690625)scale(0.1 -0.1)">
      <use xlink:href="#DejaVuSans-43"/>
      <use xlink:href="#DejaVuSans-61" x="69.824219"/>
      <use xlink:href="#DejaVuSans-6e" x="131.103516"/>
      <use xlink:href="#DejaVuSans-61" x="194.482422"/>
      <use xlink:href="#DejaVuSans-64" x="255.761719"/>
      <use xlink:href="#DejaVuSans-61" x="319.238281"/>
     </g>
    </g>
    <g id="patch_47">
     <path d="M 1480.948019 1377.36875 
L 1500.948019 1377.36875 
L 1500.948019 1370.36875 
L 1480.948019 1370.36875 
z
" style="fill: #2adddd"/>
    </g>
    <g id="text_79">
     <!-- United Kingdom -->
     <g transform="translate(1508.948019 1377.36875)scale(0.1 -0.1)">
      <use xlink:href="#DejaVuSans-55"/>
      <use xlink:href="#DejaVuSans-6e" x="73.193359"/>
      <use xlink:href="#DejaVuSans-69" x="136.572266"/>
      <use xlink:href="#DejaVuSans-74" x="164.355469"/>
      <use xlink:href="#DejaVuSans-65" x="203.564453"/>
      <use xlink:href="#DejaVuSans-64" x="265.087891"/>
      <use xlink:href="#DejaVuSans-20" x="328.564453"/>
      <use xlink:href="#DejaVuSans-4b" x="360.351562"/>
      <use xlink:href="#DejaVuSans-69" x="425.927734"/>
      <use xlink:href="#DejaVuSans-6e" x="453.710938"/>
      <use xlink:href="#DejaVuSans-67" x="517.089844"/>
      <use xlink:href="#DejaVuSans-64" x="580.566406"/>
      <use xlink:href="#DejaVuSans-6f" x="644.042969"/>
      <use xlink:href="#DejaVuSans-6d" x="705.224609"/>
     </g>
    </g>
    <g id="patch_48">
     <path d="M 1480.948019 1392.046875 
L 1500.948019 1392.046875 
L 1500.948019 1385.046875 
L 1480.948019 1385.046875 
z
" style="fill: #3ae8d6"/>
    </g>
    <g id="text_80">
     <!-- Cambodia -->
     <g transform="translate(1508.948019 1392.046875)scale(0.1 -0.1)">
      <use xlink:href="#DejaVuSans-43"/>
      <use xlink:href="#DejaVuSans-61" x="69.824219"/>
      <use xlink:href="#DejaVuSans-6d" x="131.103516"/>
      <use xlink:href="#DejaVuSans-62" x="228.515625"/>
      <use xlink:href="#DejaVuSans-6f" x="291.992188"/>
      <use xlink:href="#DejaVuSans-64" x="353.173828"/>
      <use xlink:href="#DejaVuSans-69" x="416.650391"/>
      <use xlink:href="#DejaVuSans-61" x="444.433594"/>
     </g>
    </g>
    <g id="patch_49">
     <path d="M 1480.948019 1406.725 
L 1500.948019 1406.725 
L 1500.948019 1399.725 
L 1480.948019 1399.725 
z
" style="fill: #48f1d0"/>
    </g>
    <g id="text_81">
     <!-- France -->
     <g transform="translate(1508.948019 1406.725)scale(0.1 -0.1)">
      <use xlink:href="#DejaVuSans-46"/>
      <use xlink:href="#DejaVuSans-72" x="50.269531"/>
      <use xlink:href="#DejaVuSans-61" x="91.382812"/>
      <use xlink:href="#DejaVuSans-6e" x="152.662109"/>
      <use xlink:href="#DejaVuSans-63" x="216.041016"/>
      <use xlink:href="#DejaVuSans-65" x="271.021484"/>
     </g>
    </g>
    <g id="patch_50">
     <path d="M 1480.948019 1421.403125 
L 1500.948019 1421.403125 
L 1500.948019 1414.403125 
L 1480.948019 1414.403125 
z
" style="fill: #58f8c9"/>
    </g>
    <g id="text_82">
     <!-- Burma -->
     <g transform="translate(1508.948019 1421.403125)scale(0.1 -0.1)">
      <use xlink:href="#DejaVuSans-42"/>
      <use xlink:href="#DejaVuSans-75" x="68.603516"/>
      <use xlink:href="#DejaVuSans-72" x="131.982422"/>
      <use xlink:href="#DejaVuSans-6d" x="171.345703"/>
      <use xlink:href="#DejaVuSans-61" x="268.757812"/>
     </g>
    </g>
    <g id="patch_51">
     <path d="M 1480.948019 1436.08125 
L 1500.948019 1436.08125 
L 1500.948019 1429.08125 
L 1480.948019 1429.08125 
z
" style="fill: #68fcc1"/>
    </g>
    <g id="text_83">
     <!-- Turkey -->
     <g transform="translate(1508.948019 1436.08125)scale(0.1 -0.1)">
      <use xlink:href="#DejaVuSans-54"/>
      <use xlink:href="#DejaVuSans-75" x="45.958984"/>
      <use xlink:href="#DejaVuSans-72" x="109.337891"/>
      <use xlink:href="#DejaVuSans-6b" x="150.451172"/>
      <use xlink:href="#DejaVuSans-65" x="204.736328"/>
      <use xlink:href="#DejaVuSans-79" x="266.259766"/>
     </g>
    </g>
    <g id="patch_52">
     <path d="M 1480.948019 1450.759375 
L 1500.948019 1450.759375 
L 1500.948019 1443.759375 
L 1480.948019 1443.759375 
z
" style="fill: #78ffb8"/>
    </g>
    <g id="text_84">
     <!-- Qatar -->
     <g transform="translate(1508.948019 1450.759375)scale(0.1 -0.1)">
      <use xlink:href="#DejaVuSans-51"/>
      <use xlink:href="#DejaVuSans-61" x="78.710938"/>
      <use xlink:href="#DejaVuSans-74" x="139.990234"/>
      <use xlink:href="#DejaVuSans-61" x="179.199219"/>
      <use xlink:href="#DejaVuSans-72" x="240.478516"/>
     </g>
    </g>
    <g id="patch_53">
     <path d="M 1480.948019 1465.4375 
L 1500.948019 1465.4375 
L 1500.948019 1458.4375 
L 1480.948019 1458.4375 
z
" style="fill: #86ffb0"/>
    </g>
    <g id="text_85">
     <!-- Finland -->
     <g transform="translate(1508.948019 1465.4375)scale(0.1 -0.1)">
      <use xlink:href="#DejaVuSans-46"/>
      <use xlink:href="#DejaVuSans-69" x="50.269531"/>
      <use xlink:href="#DejaVuSans-6e" x="78.052734"/>
      <use xlink:href="#DejaVuSans-6c" x="141.431641"/>
      <use xlink:href="#DejaVuSans-61" x="169.214844"/>
      <use xlink:href="#DejaVuSans-6e" x="230.494141"/>
      <use xlink:href="#DejaVuSans-64" x="293.873047"/>
     </g>
    </g>
    <g id="patch_54">
     <path d="M 1480.948019 1480.115625 
L 1500.948019 1480.115625 
L 1500.948019 1473.115625 
L 1480.948019 1473.115625 
z
" style="fill: #96fca7"/>
    </g>
    <g id="text_86">
     <!-- Laos -->
     <g transform="translate(1508.948019 1480.115625)scale(0.1 -0.1)">
      <use xlink:href="#DejaVuSans-4c"/>
      <use xlink:href="#DejaVuSans-61" x="55.712891"/>
      <use xlink:href="#DejaVuSans-6f" x="116.992188"/>
      <use xlink:href="#DejaVuSans-73" x="178.173828"/>
     </g>
    </g>
    <g id="patch_55">
     <path d="M 1480.948019 1494.79375 
L 1500.948019 1494.79375 
L 1500.948019 1487.79375 
L 1480.948019 1487.79375 
z
" style="fill: #a6f89d"/>
    </g>
    <g id="text_87">
     <!-- Maldives -->
     <g transform="translate(1508.948019 1494.79375)scale(0.1 -0.1)">
      <use xlink:href="#DejaVuSans-4d"/>
      <use xlink:href="#DejaVuSans-61" x="86.279297"/>
      <use xlink:href="#DejaVuSans-6c" x="147.558594"/>
      <use xlink:href="#DejaVuSans-64" x="175.341797"/>
      <use xlink:href="#DejaVuSans-69" x="238.818359"/>
      <use xlink:href="#DejaVuSans-76" x="266.601562"/>
      <use xlink:href="#DejaVuSans-65" x="325.78125"/>
      <use xlink:href="#DejaVuSans-73" x="387.304688"/>
     </g>
    </g>
    <g id="patch_56">
     <path d="M 1480.948019 1509.471875 
L 1500.948019 1509.471875 
L 1500.948019 1502.471875 
L 1480.948019 1502.471875 
z
" style="fill: #b6f193"/>
    </g>
    <g id="text_88">
     <!-- Pakistan -->
     <g transform="translate(1508.948019 1509.471875)scale(0.1 -0.1)">
      <use xlink:href="#DejaVuSans-50"/>
      <use xlink:href="#DejaVuSans-61" x="55.802734"/>
      <use xlink:href="#DejaVuSans-6b" x="117.082031"/>
      <use xlink:href="#DejaVuSans-69" x="174.992188"/>
      <use xlink:href="#DejaVuSans-73" x="202.775391"/>
      <use xlink:href="#DejaVuSans-74" x="254.875"/>
      <use xlink:href="#DejaVuSans-61" x="294.083984"/>
      <use xlink:href="#DejaVuSans-6e" x="355.363281"/>
     </g>
    </g>
    <g id="patch_57">
     <path d="M 1480.948019 1524.15 
L 1500.948019 1524.15 
L 1500.948019 1517.15 
L 1480.948019 1517.15 
z
" style="fill: #c4e88a"/>
    </g>
    <g id="text_89">
     <!-- Nepal -->
     <g transform="translate(1508.948019 1524.15)scale(0.1 -0.1)">
      <use xlink:href="#DejaVuSans-4e"/>
      <use xlink:href="#DejaVuSans-65" x="74.804688"/>
      <use xlink:href="#DejaVuSans-70" x="136.328125"/>
      <use xlink:href="#DejaVuSans-61" x="199.804688"/>
      <use xlink:href="#DejaVuSans-6c" x="261.083984"/>
     </g>
    </g>
    <g id="patch_58">
     <path d="M 1480.948019 1538.828125 
L 1500.948019 1538.828125 
L 1500.948019 1531.828125 
L 1480.948019 1531.828125 
z
" style="fill: #d4dd80"/>
    </g>
    <g id="text_90">
     <!-- Mongolia -->
     <g transform="translate(1508.948019 1538.828125)scale(0.1 -0.1)">
      <use xlink:href="#DejaVuSans-4d"/>
      <use xlink:href="#DejaVuSans-6f" x="86.279297"/>
      <use xlink:href="#DejaVuSans-6e" x="147.460938"/>
      <use xlink:href="#DejaVuSans-67" x="210.839844"/>
      <use xlink:href="#DejaVuSans-6f" x="274.316406"/>
      <use xlink:href="#DejaVuSans-6c" x="335.498047"/>
      <use xlink:href="#DejaVuSans-69" x="363.28125"/>
      <use xlink:href="#DejaVuSans-61" x="391.064453"/>
     </g>
    </g>
    <g id="patch_59">
     <path d="M 1480.948019 1553.50625 
L 1500.948019 1553.50625 
L 1500.948019 1546.50625 
L 1480.948019 1546.50625 
z
" style="fill: #e4cf74"/>
    </g>
    <g id="text_91">
     <!-- Uzbekistan -->
     <g transform="translate(1508.948019 1553.50625)scale(0.1 -0.1)">
      <use xlink:href="#DejaVuSans-55"/>
      <use xlink:href="#DejaVuSans-7a" x="73.193359"/>
      <use xlink:href="#DejaVuSans-62" x="125.683594"/>
      <use xlink:href="#DejaVuSans-65" x="189.160156"/>
      <use xlink:href="#DejaVuSans-6b" x="250.683594"/>
      <use xlink:href="#DejaVuSans-69" x="308.59375"/>
      <use xlink:href="#DejaVuSans-73" x="336.376953"/>
      <use xlink:href="#DejaVuSans-74" x="388.476562"/>
      <use xlink:href="#DejaVuSans-61" x="427.685547"/>
      <use xlink:href="#DejaVuSans-6e" x="488.964844"/>
     </g>
    </g>
    <g id="patch_60">
     <path d="M 1480.948019 1568.184375 
L 1500.948019 1568.184375 
L 1500.948019 1561.184375 
L 1480.948019 1561.184375 
z
" style="fill: #f4c069"/>
    </g>
    <g id="text_92">
     <!-- Northern Mariana Islands -->
     <g transform="translate(1508.948019 1568.184375)scale(0.1 -0.1)">
      <use xlink:href="#DejaVuSans-4e"/>
      <use xlink:href="#DejaVuSans-6f" x="74.804688"/>
      <use xlink:href="#DejaVuSans-72" x="135.986328"/>
      <use xlink:href="#DejaVuSans-74" x="177.099609"/>
      <use xlink:href="#DejaVuSans-68" x="216.308594"/>
      <use xlink:href="#DejaVuSans-65" x="279.6875"/>
      <use xlink:href="#DejaVuSans-72" x="341.210938"/>
      <use xlink:href="#DejaVuSans-6e" x="380.574219"/>
      <use xlink:href="#DejaVuSans-20" x="443.953125"/>
      <use xlink:href="#DejaVuSans-4d" x="475.740234"/>
      <use xlink:href="#DejaVuSans-61" x="562.019531"/>
      <use xlink:href="#DejaVuSans-72" x="623.298828"/>
      <use xlink:href="#DejaVuSans-69" x="664.412109"/>
      <use xlink:href="#DejaVuSans-61" x="692.195312"/>
      <use xlink:href="#DejaVuSans-6e" x="753.474609"/>
      <use xlink:href="#DejaVuSans-61" x="816.853516"/>
      <use xlink:href="#DejaVuSans-20" x="878.132812"/>
      <use xlink:href="#DejaVuSans-49" x="909.919922"/>
      <use xlink:href="#DejaVuSans-73" x="939.412109"/>
      <use xlink:href="#DejaVuSans-6c" x="991.511719"/>
      <use xlink:href="#DejaVuSans-61" x="1019.294922"/>
      <use xlink:href="#DejaVuSans-6e" x="1080.574219"/>
      <use xlink:href="#DejaVuSans-64" x="1143.953125"/>
      <use xlink:href="#DejaVuSans-73" x="1207.429688"/>
     </g>
    </g>
    <g id="patch_61">
     <path d="M 1480.948019 1582.8625 
L 1500.948019 1582.8625 
L 1500.948019 1575.8625 
L 1480.948019 1575.8625 
z
" style="fill: #ffb05f"/>
    </g>
    <g id="text_93">
     <!-- Kenya -->
     <g transform="translate(1508.948019 1582.8625)scale(0.1 -0.1)">
      <use xlink:href="#DejaVuSans-4b"/>
      <use xlink:href="#DejaVuSans-65" x="60.576172"/>
      <use xlink:href="#DejaVuSans-6e" x="122.099609"/>
      <use xlink:href="#DejaVuSans-79" x="185.478516"/>
      <use xlink:href="#DejaVuSans-61" x="244.658203"/>
     </g>
    </g>
    <g id="patch_62">
     <path d="M 1480.948019 1597.540625 
L 1500.948019 1597.540625 
L 1500.948019 1590.540625 
L 1480.948019 1590.540625 
z
" style="fill: #ff9d53"/>
    </g>
    <g id="text_94">
     <!-- Israel -->
     <g transform="translate(1508.948019 1597.540625)scale(0.1 -0.1)">
      <use xlink:href="#DejaVuSans-49"/>
      <use xlink:href="#DejaVuSans-73" x="29.492188"/>
      <use xlink:href="#DejaVuSans-72" x="81.591797"/>
      <use xlink:href="#DejaVuSans-61" x="122.705078"/>
      <use xlink:href="#DejaVuSans-65" x="183.984375"/>
      <use xlink:href="#DejaVuSans-6c" x="245.507812"/>
     </g>
    </g>
    <g id="patch_63">
     <path d="M 1480.948019 1612.21875 
L 1500.948019 1612.21875 
L 1500.948019 1605.21875 
L 1480.948019 1605.21875 
z
" style="fill: #ff8947"/>
    </g>
    <g id="text_95">
     <!-- Bangladesh -->
     <g transform="translate(1508.948019 1612.21875)scale(0.1 -0.1)">
      <use xlink:href="#DejaVuSans-42"/>
      <use xlink:href="#DejaVuSans-61" x="68.603516"/>
      <use xlink:href="#DejaVuSans-6e" x="129.882812"/>
      <use xlink:href="#DejaVuSans-67" x="193.261719"/>
      <use xlink:href="#DejaVuSans-6c" x="256.738281"/>
      <use xlink:href="#DejaVuSans-61" x="284.521484"/>
      <use xlink:href="#DejaVuSans-64" x="345.800781"/>
      <use xlink:href="#DejaVuSans-65" x="409.277344"/>
      <use xlink:href="#DejaVuSans-73" x="470.800781"/>
      <use xlink:href="#DejaVuSans-68" x="522.900391"/>
     </g>
    </g>
    <g id="patch_64">
     <path d="M 1480.948019 1626.896875 
L 1500.948019 1626.896875 
L 1500.948019 1619.896875 
L 1480.948019 1619.896875 
z
" style="fill: #ff733b"/>
    </g>
    <g id="text_96">
     <!-- Poland -->
     <g transform="translate(1508.948019 1626.896875)scale(0.1 -0.1)">
      <use xlink:href="#DejaVuSans-50"/>
      <use xlink:href="#DejaVuSans-6f" x="56.677734"/>
      <use xlink:href="#DejaVuSans-6c" x="117.859375"/>
      <use xlink:href="#DejaVuSans-61" x="145.642578"/>
      <use xlink:href="#DejaVuSans-6e" x="206.921875"/>
      <use xlink:href="#DejaVuSans-64" x="270.300781"/>
     </g>
    </g>
    <g id="patch_65">
     <path d="M 1480.948019 1641.575 
L 1500.948019 1641.575 
L 1500.948019 1634.575 
L 1480.948019 1634.575 
z
" style="fill: #ff5f30"/>
    </g>
    <g id="text_97">
     <!-- Austria -->
     <g transform="translate(1508.948019 1641.575)scale(0.1 -0.1)">
      <use xlink:href="#DejaVuSans-41"/>
      <use xlink:href="#DejaVuSans-75" x="68.408203"/>
      <use xlink:href="#DejaVuSans-73" x="131.787109"/>
      <use xlink:href="#DejaVuSans-74" x="183.886719"/>
      <use xlink:href="#DejaVuSans-72" x="223.095703"/>
      <use xlink:href="#DejaVuSans-69" x="264.208984"/>
      <use xlink:href="#DejaVuSans-61" x="291.992188"/>
     </g>
    </g>
    <g id="patch_66">
     <path d="M 1480.948019 1656.253125 
L 1500.948019 1656.253125 
L 1500.948019 1649.253125 
L 1480.948019 1649.253125 
z
" style="fill: #ff4724"/>
    </g>
    <g id="text_98">
     <!-- South Africa -->
     <g transform="translate(1508.948019 1656.253125)scale(0.1 -0.1)">
      <use xlink:href="#DejaVuSans-53"/>
      <use xlink:href="#DejaVuSans-6f" x="63.476562"/>
      <use xlink:href="#DejaVuSans-75" x="124.658203"/>
      <use xlink:href="#DejaVuSans-74" x="188.037109"/>
      <use xlink:href="#DejaVuSans-68" x="227.246094"/>
      <use xlink:href="#DejaVuSans-20" x="290.625"/>
      <use xlink:href="#DejaVuSans-41" x="322.412109"/>
      <use xlink:href="#DejaVuSans-66" x="387.195312"/>
      <use xlink:href="#DejaVuSans-72" x="422.400391"/>
      <use xlink:href="#DejaVuSans-69" x="463.513672"/>
      <use xlink:href="#DejaVuSans-63" x="491.296875"/>
      <use xlink:href="#DejaVuSans-61" x="546.277344"/>
     </g>
    </g>
    <g id="patch_67">
     <path d="M 1480.948019 1670.93125 
L 1500.948019 1670.93125 
L 1500.948019 1663.93125 
L 1480.948019 1663.93125 
z
" style="fill: #ff2f18"/>
    </g>
    <g id="text_99">
     <!-- Saudi Arabia -->
     <g transform="translate(1508.948019 1670.93125)scale(0.1 -0.1)">
      <use xlink:href="#DejaVuSans-53"/>
      <use xlink:href="#DejaVuSans-61" x="63.476562"/>
      <use xlink:href="#DejaVuSans-75" x="124.755859"/>
      <use xlink:href="#DejaVuSans-64" x="188.134766"/>
      <use xlink:href="#DejaVuSans-69" x="251.611328"/>
      <use xlink:href="#DejaVuSans-20" x="279.394531"/>
      <use xlink:href="#DejaVuSans-41" x="311.181641"/>
      <use xlink:href="#DejaVuSans-72" x="379.589844"/>
      <use xlink:href="#DejaVuSans-61" x="420.703125"/>
      <use xlink:href="#DejaVuSans-62" x="481.982422"/>
      <use xlink:href="#DejaVuSans-69" x="545.458984"/>
      <use xlink:href="#DejaVuSans-61" x="573.242188"/>
     </g>
    </g>
    <g id="patch_68">
     <path d="M 1480.948019 1685.609375 
L 1500.948019 1685.609375 
L 1500.948019 1678.609375 
L 1480.948019 1678.609375 
z
" style="fill: #ff160b"/>
    </g>
    <g id="text_100">
     <!-- Mexico -->
     <g transform="translate(1508.948019 1685.609375)scale(0.1 -0.1)">
      <use xlink:href="#DejaVuSans-4d"/>
      <use xlink:href="#DejaVuSans-65" x="86.279297"/>
      <use xlink:href="#DejaVuSans-78" x="146.052734"/>
      <use xlink:href="#DejaVuSans-69" x="205.232422"/>
      <use xlink:href="#DejaVuSans-63" x="233.015625"/>
      <use xlink:href="#DejaVuSans-6f" x="287.996094"/>
     </g>
    </g>
   </g>
  </g>
 </g>
</svg>
