<?xml version="1.0" encoding="utf-8" standalone="no"?>
<!DOCTYPE svg PUBLIC "-//W3C//DTD SVG 1.1//EN"
  "http://www.w3.org/Graphics/SVG/1.1/DTD/svg11.dtd">
<svg xmlns:xlink="http://www.w3.org/1999/xlink" width="2880pt" height="2880pt" viewBox="0 0 2880 2880" xmlns="http://www.w3.org/2000/svg" version="1.1">
 <metadata>
  <rdf:RDF xmlns:dc="http://purl.org/dc/elements/1.1/" xmlns:cc="http://creativecommons.org/ns#" xmlns:rdf="http://www.w3.org/1999/02/22-rdf-syntax-ns#">
   <cc:Work>
    <dc:type rdf:resource="http://purl.org/dc/dcmitype/StillImage"/>
    <dc:date>2022-04-29T14:43:56.980936</dc:date>
    <dc:format>image/svg+xml</dc:format>
    <dc:creator>
     <cc:Agent>
      <dc:title>Matplotlib v3.5.0, https://matplotlib.org/</dc:title>
     </cc:Agent>
    </dc:creator>
   </cc:Work>
  </rdf:RDF>
 </metadata>
 <defs>
  <style type="text/css">*{stroke-linejoin: round; stroke-linecap: butt}</style>
 </defs>
 <g id="figure_1">
  <g id="patch_1">
   <path d="M 0 2880 
L 2880 2880 
L 2880 0 
L 0 0 
L 0 2880 
z
" style="fill: none"/>
  </g>
  <g id="axes_1">
   <g id="patch_2">
    <path d="M 105.495478 1336.563652 
C 80.171843 1480.181121 105.222881 1628.229524 176.386514 1755.520534 
C 247.550148 1882.811544 360.54791 1981.69223 496.154841 2035.33945 
L 729.096169 1446.521279 
L 105.495478 1336.563652 
z
" style="fill: #8000ff"/>
   </g>
   <g id="patch_3">
    <path d="M 496.154841 2035.33945 
C 555.792796 2058.932718 618.670556 2073.329075 682.632901 2078.035068 
C 746.595246 2082.741061 810.902934 2077.702301 873.351732 2063.091497 
L 729.096169 1446.521279 
L 496.154841 2035.33945 
z
" style="fill: #7413ff"/>
   </g>
   <g id="patch_4">
    <path d="M 873.351732 2063.091497 
C 932.58675 2049.232604 989.51666 2026.909533 1042.384028 1996.811401 
C 1095.251397 1966.713269 1143.506561 1929.153006 1185.659877 1885.290104 
L 729.096169 1446.521279 
L 873.351732 2063.091497 
z
" style="fill: #6826fe"/>
   </g>
   <g id="patch_5">
    <path d="M 1185.659877 1885.290104 
C 1212.97537 1856.866793 1237.577047 1825.954696 1259.144332 1792.95662 
C 1280.711617 1759.958544 1299.150422 1725.018443 1314.220477 1688.591609 
L 729.096169 1446.521279 
L 1185.659877 1885.290104 
z
" style="fill: #5a3bfd"/>
   </g>
   <g id="patch_6">
    <path d="M 1314.220477 1688.591609 
C 1328.661761 1653.684621 1339.95043 1617.555257 1347.951362 1580.635973 
C 1355.952294 1543.716689 1360.633439 1506.155381 1361.938764 1468.401645 
L 729.096169 1446.521279 
L 1314.220477 1688.591609 
z
" style="fill: #4e4dfc"/>
   </g>
   <g id="patch_7">
    <path d="M 1361.938764 1468.401645 
C 1363.187266 1432.291421 1361.342786 1396.140502 1356.42553 1360.344865 
C 1351.508273 1324.549228 1343.536258 1289.24005 1332.596807 1254.804088 
L 729.096169 1446.521279 
L 1361.938764 1468.401645 
z
" style="fill: #4062fa"/>
   </g>
   <g id="patch_8">
    <path d="M 1332.596807 1254.804088 
C 1324.145668 1228.201008 1313.944722 1202.18582 1302.060741 1176.928808 
C 1290.17676 1151.671797 1276.63573 1127.228192 1261.526286 1103.757991 
L 729.096169 1446.521279 
L 1332.596807 1254.804088 
z
" style="fill: #3473f8"/>
   </g>
   <g id="patch_9">
    <path d="M 1261.526286 1103.757991 
C 1246.416842 1080.287791 1229.772023 1057.842316 1211.700779 1036.568487 
C 1193.629536 1015.294659 1174.171384 995.238995 1153.453689 976.532773 
L 729.096169 1446.521279 
L 1261.526286 1103.757991 
z
" style="fill: #2884f6"/>
   </g>
   <g id="patch_10">
    <path d="M 1153.453689 976.532773 
C 1136.394055 961.12945 1118.508401 946.666392 1099.876158 933.207826 
C 1081.243915 919.74926 1061.892705 907.31514 1041.908466 895.960684 
L 729.096169 1446.521279 
L 1153.453689 976.532773 
z
" style="fill: #1996f3"/>
   </g>
   <g id="patch_11">
    <path d="M 1041.908466 895.960684 
C 1024.78024 886.228931 1007.2072 877.301779 989.246695 869.208361 
C 971.28619 861.114943 952.957779 853.864072 934.321275 847.479413 
L 729.096169 1446.521279 
L 1041.908466 895.960684 
z
" style="fill: #0ea5ef"/>
   </g>
   <g id="patch_12">
    <path d="M 934.321275 847.479413 
C 915.684771 841.094753 896.76047 835.583257 877.610129 830.96291 
C 858.459788 826.342564 839.104262 822.618398 819.606717 819.802568 
L 729.096169 1446.521279 
L 934.321275 847.479413 
z
" style="fill: #00b5eb"/>
   </g>
   <g id="patch_13">
    <path d="M 819.606717 819.802568 
C 804.984718 817.690863 790.293294 816.091524 775.559421 815.007488 
C 760.825548 813.923452 746.058249 813.355383 731.284639 813.304324 
L 729.096169 1446.521279 
L 819.606717 819.802568 
z
" style="fill: #0dc2e8"/>
   </g>
   <g id="patch_14">
    <path d="M 731.284639 813.304324 
C 718.152824 813.258939 705.022773 813.622061 691.913538 814.393164 
C 678.804303 815.164267 665.722227 816.342977 652.686289 817.927585 
L 729.096169 1446.521279 
L 731.284639 813.304324 
z
" style="fill: #18cde4"/>
   </g>
   <g id="patch_15">
    <path d="M 652.686289 817.927585 
C 641.280059 819.314091 629.91368 821.010799 618.599779 823.015826 
C 607.285879 825.020853 596.028647 827.333455 584.840591 829.951064 
L 729.096169 1446.521279 
L 652.686289 817.927585 
z
" style="fill: #27dade"/>
   </g>
   <g id="patch_16">
    <path d="M 584.840591 829.951064 
C 575.250985 832.194692 565.715028 834.661737 556.240502 837.350186 
C 546.765976 840.038635 537.35546 842.947757 528.016635 846.075176 
L 729.096169 1446.521279 
L 584.840591 829.951064 
z
" style="fill: #32e3da"/>
   </g>
   <g id="patch_17">
    <path d="M 528.016635 846.075176 
C 518.67781 849.202595 509.413217 852.54746 500.230419 856.107042 
C 491.047622 859.666625 481.949117 863.439954 472.942333 867.423952 
L 729.096169 1446.521279 
L 528.016635 846.075176 
z
" style="fill: #40ecd4"/>
   </g>
   <g id="patch_18">
    <path d="M 472.942333 867.423952 
C 465.436783 870.743904 457.996487 874.209459 450.625661 877.818652 
C 443.254834 881.427845 435.954872 885.179995 428.72991 889.072974 
L 729.096169 1446.521279 
L 472.942333 867.423952 
z
" style="fill: #4df3ce"/>
   </g>
   <g id="patch_19">
    <path d="M 428.72991 889.072974 
C 421.504949 892.965953 414.356354 896.999026 407.288178 901.169907 
C 400.220002 905.340788 393.233581 909.648688 386.332875 914.091165 
L 729.096169 1446.521279 
L 428.72991 889.072974 
z
" style="fill: #58f8c9"/>
   </g>
   <g id="patch_20">
    <path d="M 386.332875 914.091165 
C 379.432168 918.533643 372.618481 923.109858 365.895675 927.817218 
C 359.172869 932.524577 352.542215 937.362191 346.007471 942.327317 
L 729.096169 1446.521279 
L 386.332875 914.091165 
z
" style="fill: #66fcc2"/>
   </g>
   <g id="patch_21">
    <path d="M 346.007471 942.327317 
C 340.779735 946.299373 335.614092 950.352494 330.512415 954.48521 
C 325.410738 958.617926 320.373645 962.829738 315.402963 967.119116 
L 729.096169 1446.521279 
L 346.007471 942.327317 
z
" style="fill: #72febb"/>
   </g>
   <g id="patch_22">
    <path d="M 315.402963 967.119116 
C 310.432281 971.408495 305.528611 975.774922 300.693733 980.216813 
C 295.858854 984.658704 291.093352 989.175523 286.398954 993.765629 
L 729.096169 1446.521279 
L 315.402963 967.119116 
z
" style="fill: #80ffb4"/>
   </g>
   <g id="patch_23">
    <path d="M 286.398954 993.765629 
C 281.704557 998.355736 277.081832 1003.018576 272.532457 1007.752458 
C 267.983082 1012.486339 263.507606 1017.29069 259.107655 1022.163766 
L 729.096169 1446.521279 
L 286.398954 993.765629 
z
" style="fill: #8cfead"/>
   </g>
   <g id="patch_24">
    <path d="M 259.107655 1022.163766 
C 255.80772 1025.818541 252.550529 1029.511684 249.336746 1033.242441 
C 246.122962 1036.973198 242.952805 1040.741315 239.826922 1044.546023 
L 729.096169 1446.521279 
L 259.107655 1022.163766 
z
" style="fill: #99fca6"/>
   </g>
   <g id="patch_25">
    <path d="M 239.826922 1044.546023 
C 236.701039 1048.350732 233.619642 1052.191772 230.58336 1056.068361 
C 227.547078 1059.94495 224.556117 1063.856824 221.611089 1067.803184 
L 729.096169 1446.521279 
L 239.826922 1044.546023 
z
" style="fill: #a6f89d"/>
   </g>
   <g id="patch_26">
    <path d="M 221.611089 1067.803184 
C 218.66606 1071.749544 215.767164 1075.730122 212.914992 1079.744106 
C 210.06282 1083.75809 207.257566 1087.805206 204.499802 1091.884629 
L 729.096169 1446.521279 
L 221.611089 1067.803184 
z
" style="fill: #b2f396"/>
   </g>
   <g id="patch_27">
    <path d="M 204.499802 1091.884629 
C 201.742038 1095.964051 199.031953 1100.075503 196.370098 1104.218145 
C 193.708243 1108.360787 191.094801 1112.534337 188.530305 1116.737944 
L 729.096169 1446.521279 
L 204.499802 1091.884629 
z
" style="fill: #c0eb8d"/>
   </g>
   <g id="patch_28">
    <path d="M 188.530305 1116.737944 
C 185.965808 1120.94155 183.450431 1125.174927 180.984688 1129.437211 
C 178.518945 1133.699494 176.103002 1137.990394 173.737354 1142.309035 
L 729.096169 1446.521279 
L 188.530305 1116.737944 
z
" style="fill: #cce385"/>
   </g>
   <g id="patch_29">
    <path d="M 173.737354 1142.309035 
C 172.160266 1145.188111 170.605589 1148.079407 169.073466 1150.982661 
C 167.541343 1153.885916 166.03182 1156.80104 164.545033 1159.72777 
L 729.096169 1446.521279 
L 173.737354 1142.309035 
z
" style="fill: #d9da7d"/>
   </g>
   <g id="patch_30">
    <path d="M 164.545033 1159.72777 
C 163.058246 1162.654501 161.59424 1165.592749 160.153149 1168.542247 
C 158.712058 1171.491746 157.293924 1174.452406 155.898877 1177.42396 
L 729.096169 1446.521279 
L 164.545033 1159.72777 
z
" style="fill: #e6cd73"/>
   </g>
   <g id="patch_31">
    <path d="M 155.898877 1177.42396 
C 154.503831 1180.395513 153.131912 1183.37787 151.783247 1186.37076 
C 150.434582 1189.36365 149.109211 1192.366982 147.807254 1195.380484 
L 729.096169 1446.521279 
L 155.898877 1177.42396 
z
" style="fill: #f2c26b"/>
   </g>
   <g id="patch_32">
    <path d="M 147.807254 1195.380484 
C 146.505297 1198.393985 145.226793 1201.417566 143.971859 1204.450951 
C 142.716924 1207.484337 141.485597 1210.527435 140.277989 1213.57997 
L 729.096169 1446.521279 
L 147.807254 1195.380484 
z
" style="fill: #ffb360"/>
   </g>
   <g id="patch_33">
    <path d="M 140.277989 1213.57997 
C 139.070382 1216.632505 137.886529 1219.694384 136.72654 1222.76533 
C 135.56655 1225.836277 134.430459 1228.916197 133.318369 1232.004812 
L 729.096169 1446.521279 
L 140.277989 1213.57997 
z
" style="fill: #ffa558"/>
   </g>
   <g id="patch_34">
    <path d="M 133.318369 1232.004812 
C 132.206278 1235.093426 131.118223 1238.190642 130.0543 1241.296179 
C 128.990378 1244.401715 127.950621 1247.515478 126.935124 1250.637184 
L 729.096169 1446.521279 
L 133.318369 1232.004812 
z
" style="fill: #ff964f"/>
   </g>
   <g id="patch_35">
    <path d="M 126.935124 1250.637184 
C 125.919628 1253.758891 124.928421 1256.888447 123.961595 1260.025569 
C 122.994769 1263.162691 122.052353 1266.307284 121.134432 1269.459062 
L 729.096169 1446.521279 
L 126.935124 1250.637184 
z
" style="fill: #ff8444"/>
   </g>
   <g id="patch_36">
    <path d="M 121.134432 1269.459062 
C 120.216511 1272.61084 119.323113 1275.769709 118.454319 1278.935382 
C 117.585525 1282.101054 116.741361 1285.273435 115.921904 1288.452236 
L 729.096169 1446.521279 
L 121.134432 1269.459062 
z
" style="fill: #ff733b"/>
   </g>
   <g id="patch_37">
    <path d="M 115.921904 1288.452236 
C 115.512177 1290.041631 115.108631 1291.632612 114.711275 1293.225145 
C 114.31392 1294.817677 113.922758 1296.411749 113.537799 1298.007323 
L 729.096169 1446.521279 
L 115.921904 1288.452236 
z
" style="fill: #ff5f30"/>
   </g>
   <g id="patch_38">
    <path d="M 113.537799 1298.007323 
C 113.152839 1299.602897 112.774085 1301.199962 112.401545 1302.798482 
C 112.029004 1304.397002 111.66268 1305.996964 111.302581 1307.598332 
L 729.096169 1446.521279 
L 113.537799 1298.007323 
z
" style="fill: #ff4d27"/>
   </g>
   <g id="patch_39">
    <path d="M 111.302581 1307.598332 
C 110.942483 1309.1997 110.588611 1310.802462 110.240976 1312.406582 
C 109.89334 1314.010702 109.551943 1315.616167 109.216792 1317.222942 
L 729.096169 1446.521279 
L 111.302581 1307.598332 
z
" style="fill: #ff3b1e"/>
   </g>
   <g id="patch_40">
    <path d="M 109.216792 1317.222942 
C 108.881641 1318.829717 108.552738 1320.437789 108.230092 1322.047121 
C 107.907445 1323.656453 107.591057 1325.267034 107.280935 1326.878826 
L 729.096169 1446.521279 
L 109.216792 1317.222942 
z
" style="fill: #ff2613"/>
   </g>
   <g id="patch_41">
    <path d="M 107.280935 1326.878826 
C 106.970812 1328.490619 106.666958 1330.103611 106.369378 1331.717767 
C 106.071799 1333.331922 105.780497 1334.947228 105.495478 1336.563649 
L 729.096169 1446.521279 
L 107.280935 1326.878826 
z
" style="fill: #ff1309"/>
   </g>
   <g id="matplotlib.axis_1"/>
   <g id="matplotlib.axis_2"/>
   <g id="text_1">
    <!-- United Arab Emirates -->
    <g transform="translate(59.162549 1788.018138)scale(0.0579 -0.0579)">
     <defs>
      <path id="DejaVuSans-55" d="M 556 4666 
L 1191 4666 
L 1191 1831 
Q 1191 1081 1462 751 
Q 1734 422 2344 422 
Q 2950 422 3222 751 
Q 3494 1081 3494 1831 
L 3494 4666 
L 4128 4666 
L 4128 1753 
Q 4128 841 3676 375 
Q 3225 -91 2344 -91 
Q 1459 -91 1007 375 
Q 556 841 556 1753 
L 556 4666 
z
" transform="scale(0.015625)"/>
      <path id="DejaVuSans-6e" d="M 3513 2113 
L 3513 0 
L 2938 0 
L 2938 2094 
Q 2938 2591 2744 2837 
Q 2550 3084 2163 3084 
Q 1697 3084 1428 2787 
Q 1159 2491 1159 1978 
L 1159 0 
L 581 0 
L 581 3500 
L 1159 3500 
L 1159 2956 
Q 1366 3272 1645 3428 
Q 1925 3584 2291 3584 
Q 2894 3584 3203 3211 
Q 3513 2838 3513 2113 
z
" transform="scale(0.015625)"/>
      <path id="DejaVuSans-69" d="M 603 3500 
L 1178 3500 
L 1178 0 
L 603 0 
L 603 3500 
z
M 603 4863 
L 1178 4863 
L 1178 4134 
L 603 4134 
L 603 4863 
z
" transform="scale(0.015625)"/>
      <path id="DejaVuSans-74" d="M 1172 4494 
L 1172 3500 
L 2356 3500 
L 2356 3053 
L 1172 3053 
L 1172 1153 
Q 1172 725 1289 603 
Q 1406 481 1766 481 
L 2356 481 
L 2356 0 
L 1766 0 
Q 1100 0 847 248 
Q 594 497 594 1153 
L 594 3053 
L 172 3053 
L 172 3500 
L 594 3500 
L 594 4494 
L 1172 4494 
z
" transform="scale(0.015625)"/>
      <path id="DejaVuSans-65" d="M 3597 1894 
L 3597 1613 
L 953 1613 
Q 991 1019 1311 708 
Q 1631 397 2203 397 
Q 2534 397 2845 478 
Q 3156 559 3463 722 
L 3463 178 
Q 3153 47 2828 -22 
Q 2503 -91 2169 -91 
Q 1331 -91 842 396 
Q 353 884 353 1716 
Q 353 2575 817 3079 
Q 1281 3584 2069 3584 
Q 2775 3584 3186 3129 
Q 3597 2675 3597 1894 
z
M 3022 2063 
Q 3016 2534 2758 2815 
Q 2500 3097 2075 3097 
Q 1594 3097 1305 2825 
Q 1016 2553 972 2059 
L 3022 2063 
z
" transform="scale(0.015625)"/>
      <path id="DejaVuSans-64" d="M 2906 2969 
L 2906 4863 
L 3481 4863 
L 3481 0 
L 2906 0 
L 2906 525 
Q 2725 213 2448 61 
Q 2172 -91 1784 -91 
Q 1150 -91 751 415 
Q 353 922 353 1747 
Q 353 2572 751 3078 
Q 1150 3584 1784 3584 
Q 2172 3584 2448 3432 
Q 2725 3281 2906 2969 
z
M 947 1747 
Q 947 1113 1208 752 
Q 1469 391 1925 391 
Q 2381 391 2643 752 
Q 2906 1113 2906 1747 
Q 2906 2381 2643 2742 
Q 2381 3103 1925 3103 
Q 1469 3103 1208 2742 
Q 947 2381 947 1747 
z
" transform="scale(0.015625)"/>
      <path id="DejaVuSans-20" transform="scale(0.015625)"/>
      <path id="DejaVuSans-41" d="M 2188 4044 
L 1331 1722 
L 3047 1722 
L 2188 4044 
z
M 1831 4666 
L 2547 4666 
L 4325 0 
L 3669 0 
L 3244 1197 
L 1141 1197 
L 716 0 
L 50 0 
L 1831 4666 
z
" transform="scale(0.015625)"/>
      <path id="DejaVuSans-72" d="M 2631 2963 
Q 2534 3019 2420 3045 
Q 2306 3072 2169 3072 
Q 1681 3072 1420 2755 
Q 1159 2438 1159 1844 
L 1159 0 
L 581 0 
L 581 3500 
L 1159 3500 
L 1159 2956 
Q 1341 3275 1631 3429 
Q 1922 3584 2338 3584 
Q 2397 3584 2469 3576 
Q 2541 3569 2628 3553 
L 2631 2963 
z
" transform="scale(0.015625)"/>
      <path id="DejaVuSans-61" d="M 2194 1759 
Q 1497 1759 1228 1600 
Q 959 1441 959 1056 
Q 959 750 1161 570 
Q 1363 391 1709 391 
Q 2188 391 2477 730 
Q 2766 1069 2766 1631 
L 2766 1759 
L 2194 1759 
z
M 3341 1997 
L 3341 0 
L 2766 0 
L 2766 531 
Q 2569 213 2275 61 
Q 1981 -91 1556 -91 
Q 1019 -91 701 211 
Q 384 513 384 1019 
Q 384 1609 779 1909 
Q 1175 2209 1959 2209 
L 2766 2209 
L 2766 2266 
Q 2766 2663 2505 2880 
Q 2244 3097 1772 3097 
Q 1472 3097 1187 3025 
Q 903 2953 641 2809 
L 641 3341 
Q 956 3463 1253 3523 
Q 1550 3584 1831 3584 
Q 2591 3584 2966 3190 
Q 3341 2797 3341 1997 
z
" transform="scale(0.015625)"/>
      <path id="DejaVuSans-62" d="M 3116 1747 
Q 3116 2381 2855 2742 
Q 2594 3103 2138 3103 
Q 1681 3103 1420 2742 
Q 1159 2381 1159 1747 
Q 1159 1113 1420 752 
Q 1681 391 2138 391 
Q 2594 391 2855 752 
Q 3116 1113 3116 1747 
z
M 1159 2969 
Q 1341 3281 1617 3432 
Q 1894 3584 2278 3584 
Q 2916 3584 3314 3078 
Q 3713 2572 3713 1747 
Q 3713 922 3314 415 
Q 2916 -91 2278 -91 
Q 1894 -91 1617 61 
Q 1341 213 1159 525 
L 1159 0 
L 581 0 
L 581 4863 
L 1159 4863 
L 1159 2969 
z
" transform="scale(0.015625)"/>
      <path id="DejaVuSans-45" d="M 628 4666 
L 3578 4666 
L 3578 4134 
L 1259 4134 
L 1259 2753 
L 3481 2753 
L 3481 2222 
L 1259 2222 
L 1259 531 
L 3634 531 
L 3634 0 
L 628 0 
L 628 4666 
z
" transform="scale(0.015625)"/>
      <path id="DejaVuSans-6d" d="M 3328 2828 
Q 3544 3216 3844 3400 
Q 4144 3584 4550 3584 
Q 5097 3584 5394 3201 
Q 5691 2819 5691 2113 
L 5691 0 
L 5113 0 
L 5113 2094 
Q 5113 2597 4934 2840 
Q 4756 3084 4391 3084 
Q 3944 3084 3684 2787 
Q 3425 2491 3425 1978 
L 3425 0 
L 2847 0 
L 2847 2094 
Q 2847 2600 2669 2842 
Q 2491 3084 2119 3084 
Q 1678 3084 1418 2786 
Q 1159 2488 1159 1978 
L 1159 0 
L 581 0 
L 581 3500 
L 1159 3500 
L 1159 2956 
Q 1356 3278 1631 3431 
Q 1906 3584 2284 3584 
Q 2666 3584 2933 3390 
Q 3200 3197 3328 2828 
z
" transform="scale(0.015625)"/>
      <path id="DejaVuSans-73" d="M 2834 3397 
L 2834 2853 
Q 2591 2978 2328 3040 
Q 2066 3103 1784 3103 
Q 1356 3103 1142 2972 
Q 928 2841 928 2578 
Q 928 2378 1081 2264 
Q 1234 2150 1697 2047 
L 1894 2003 
Q 2506 1872 2764 1633 
Q 3022 1394 3022 966 
Q 3022 478 2636 193 
Q 2250 -91 1575 -91 
Q 1294 -91 989 -36 
Q 684 19 347 128 
L 347 722 
Q 666 556 975 473 
Q 1284 391 1588 391 
Q 1994 391 2212 530 
Q 2431 669 2431 922 
Q 2431 1156 2273 1281 
Q 2116 1406 1581 1522 
L 1381 1569 
Q 847 1681 609 1914 
Q 372 2147 372 2553 
Q 372 3047 722 3315 
Q 1072 3584 1716 3584 
Q 2034 3584 2315 3537 
Q 2597 3491 2834 3397 
z
" transform="scale(0.015625)"/>
     </defs>
     <use xlink:href="#DejaVuSans-55"/>
     <use xlink:href="#DejaVuSans-6e" x="73.193359"/>
     <use xlink:href="#DejaVuSans-69" x="136.572266"/>
     <use xlink:href="#DejaVuSans-74" x="164.355469"/>
     <use xlink:href="#DejaVuSans-65" x="203.564453"/>
     <use xlink:href="#DejaVuSans-64" x="265.087891"/>
     <use xlink:href="#DejaVuSans-20" x="328.564453"/>
     <use xlink:href="#DejaVuSans-41" x="360.351562"/>
     <use xlink:href="#DejaVuSans-72" x="428.759766"/>
     <use xlink:href="#DejaVuSans-61" x="469.873047"/>
     <use xlink:href="#DejaVuSans-62" x="531.152344"/>
     <use xlink:href="#DejaVuSans-20" x="594.628906"/>
     <use xlink:href="#DejaVuSans-45" x="626.416016"/>
     <use xlink:href="#DejaVuSans-6d" x="689.599609"/>
     <use xlink:href="#DejaVuSans-69" x="787.011719"/>
     <use xlink:href="#DejaVuSans-72" x="814.794922"/>
     <use xlink:href="#DejaVuSans-61" x="855.908203"/>
     <use xlink:href="#DejaVuSans-74" x="917.1875"/>
     <use xlink:href="#DejaVuSans-65" x="956.396484"/>
     <use xlink:href="#DejaVuSans-73" x="1017.919922"/>
    </g>
   </g>
   <g id="text_2">
    <!-- 22% -->
    <g transform="translate(391.035786 1633.51851)scale(0.0579 -0.0579)">
     <defs>
      <path id="DejaVuSans-32" d="M 1228 531 
L 3431 531 
L 3431 0 
L 469 0 
L 469 531 
Q 828 903 1448 1529 
Q 2069 2156 2228 2338 
Q 2531 2678 2651 2914 
Q 2772 3150 2772 3378 
Q 2772 3750 2511 3984 
Q 2250 4219 1831 4219 
Q 1534 4219 1204 4116 
Q 875 4013 500 3803 
L 500 4441 
Q 881 4594 1212 4672 
Q 1544 4750 1819 4750 
Q 2544 4750 2975 4387 
Q 3406 4025 3406 3419 
Q 3406 3131 3298 2873 
Q 3191 2616 2906 2266 
Q 2828 2175 2409 1742 
Q 1991 1309 1228 531 
z
" transform="scale(0.015625)"/>
      <path id="DejaVuSans-25" d="M 4653 2053 
Q 4381 2053 4226 1822 
Q 4072 1591 4072 1178 
Q 4072 772 4226 539 
Q 4381 306 4653 306 
Q 4919 306 5073 539 
Q 5228 772 5228 1178 
Q 5228 1588 5073 1820 
Q 4919 2053 4653 2053 
z
M 4653 2450 
Q 5147 2450 5437 2106 
Q 5728 1763 5728 1178 
Q 5728 594 5436 251 
Q 5144 -91 4653 -91 
Q 4153 -91 3862 251 
Q 3572 594 3572 1178 
Q 3572 1766 3864 2108 
Q 4156 2450 4653 2450 
z
M 1428 4353 
Q 1159 4353 1004 4120 
Q 850 3888 850 3481 
Q 850 3069 1003 2837 
Q 1156 2606 1428 2606 
Q 1700 2606 1854 2837 
Q 2009 3069 2009 3481 
Q 2009 3884 1853 4118 
Q 1697 4353 1428 4353 
z
M 4250 4750 
L 4750 4750 
L 1831 -91 
L 1331 -91 
L 4250 4750 
z
M 1428 4750 
Q 1922 4750 2215 4408 
Q 2509 4066 2509 3481 
Q 2509 2891 2217 2550 
Q 1925 2209 1428 2209 
Q 931 2209 642 2551 
Q 353 2894 353 3481 
Q 353 4063 643 4406 
Q 934 4750 1428 4750 
z
" transform="scale(0.015625)"/>
     </defs>
     <use xlink:href="#DejaVuSans-32"/>
     <use xlink:href="#DejaVuSans-32" x="63.623047"/>
     <use xlink:href="#DejaVuSans-25" x="127.246094"/>
    </g>
   </g>
   <g id="text_3">
    <!-- Saudi Arabia -->
    <g transform="translate(641.247215 2142.784125)scale(0.0579 -0.0579)">
     <defs>
      <path id="DejaVuSans-53" d="M 3425 4513 
L 3425 3897 
Q 3066 4069 2747 4153 
Q 2428 4238 2131 4238 
Q 1616 4238 1336 4038 
Q 1056 3838 1056 3469 
Q 1056 3159 1242 3001 
Q 1428 2844 1947 2747 
L 2328 2669 
Q 3034 2534 3370 2195 
Q 3706 1856 3706 1288 
Q 3706 609 3251 259 
Q 2797 -91 1919 -91 
Q 1588 -91 1214 -16 
Q 841 59 441 206 
L 441 856 
Q 825 641 1194 531 
Q 1563 422 1919 422 
Q 2459 422 2753 634 
Q 3047 847 3047 1241 
Q 3047 1584 2836 1778 
Q 2625 1972 2144 2069 
L 1759 2144 
Q 1053 2284 737 2584 
Q 422 2884 422 3419 
Q 422 4038 858 4394 
Q 1294 4750 2059 4750 
Q 2388 4750 2728 4690 
Q 3069 4631 3425 4513 
z
" transform="scale(0.015625)"/>
      <path id="DejaVuSans-75" d="M 544 1381 
L 544 3500 
L 1119 3500 
L 1119 1403 
Q 1119 906 1312 657 
Q 1506 409 1894 409 
Q 2359 409 2629 706 
Q 2900 1003 2900 1516 
L 2900 3500 
L 3475 3500 
L 3475 0 
L 2900 0 
L 2900 538 
Q 2691 219 2414 64 
Q 2138 -91 1772 -91 
Q 1169 -91 856 284 
Q 544 659 544 1381 
z
M 1991 3584 
L 1991 3584 
z
" transform="scale(0.015625)"/>
     </defs>
     <use xlink:href="#DejaVuSans-53"/>
     <use xlink:href="#DejaVuSans-61" x="63.476562"/>
     <use xlink:href="#DejaVuSans-75" x="124.755859"/>
     <use xlink:href="#DejaVuSans-64" x="188.134766"/>
     <use xlink:href="#DejaVuSans-69" x="251.611328"/>
     <use xlink:href="#DejaVuSans-20" x="279.394531"/>
     <use xlink:href="#DejaVuSans-41" x="311.181641"/>
     <use xlink:href="#DejaVuSans-72" x="379.589844"/>
     <use xlink:href="#DejaVuSans-61" x="420.703125"/>
     <use xlink:href="#DejaVuSans-62" x="481.982422"/>
     <use xlink:href="#DejaVuSans-69" x="545.458984"/>
     <use xlink:href="#DejaVuSans-61" x="573.242188"/>
    </g>
   </g>
   <g id="text_4">
    <!-- 10% -->
    <g transform="translate(694.783618 1827.027231)scale(0.0579 -0.0579)">
     <defs>
      <path id="DejaVuSans-31" d="M 794 531 
L 1825 531 
L 1825 4091 
L 703 3866 
L 703 4441 
L 1819 4666 
L 2450 4666 
L 2450 531 
L 3481 531 
L 3481 0 
L 794 0 
L 794 531 
z
" transform="scale(0.015625)"/>
      <path id="DejaVuSans-30" d="M 2034 4250 
Q 1547 4250 1301 3770 
Q 1056 3291 1056 2328 
Q 1056 1369 1301 889 
Q 1547 409 2034 409 
Q 2525 409 2770 889 
Q 3016 1369 3016 2328 
Q 3016 3291 2770 3770 
Q 2525 4250 2034 4250 
z
M 2034 4750 
Q 2819 4750 3233 4129 
Q 3647 3509 3647 2328 
Q 3647 1150 3233 529 
Q 2819 -91 2034 -91 
Q 1250 -91 836 529 
Q 422 1150 422 2328 
Q 422 3509 836 4129 
Q 1250 4750 2034 4750 
z
" transform="scale(0.015625)"/>
     </defs>
     <use xlink:href="#DejaVuSans-31"/>
     <use xlink:href="#DejaVuSans-30" x="63.623047"/>
     <use xlink:href="#DejaVuSans-25" x="127.246094"/>
    </g>
   </g>
   <g id="text_5">
    <!-- Singapore -->
    <g transform="translate(1073.712814 2053.438091)scale(0.0579 -0.0579)">
     <defs>
      <path id="DejaVuSans-67" d="M 2906 1791 
Q 2906 2416 2648 2759 
Q 2391 3103 1925 3103 
Q 1463 3103 1205 2759 
Q 947 2416 947 1791 
Q 947 1169 1205 825 
Q 1463 481 1925 481 
Q 2391 481 2648 825 
Q 2906 1169 2906 1791 
z
M 3481 434 
Q 3481 -459 3084 -895 
Q 2688 -1331 1869 -1331 
Q 1566 -1331 1297 -1286 
Q 1028 -1241 775 -1147 
L 775 -588 
Q 1028 -725 1275 -790 
Q 1522 -856 1778 -856 
Q 2344 -856 2625 -561 
Q 2906 -266 2906 331 
L 2906 616 
Q 2728 306 2450 153 
Q 2172 0 1784 0 
Q 1141 0 747 490 
Q 353 981 353 1791 
Q 353 2603 747 3093 
Q 1141 3584 1784 3584 
Q 2172 3584 2450 3431 
Q 2728 3278 2906 2969 
L 2906 3500 
L 3481 3500 
L 3481 434 
z
" transform="scale(0.015625)"/>
      <path id="DejaVuSans-70" d="M 1159 525 
L 1159 -1331 
L 581 -1331 
L 581 3500 
L 1159 3500 
L 1159 2969 
Q 1341 3281 1617 3432 
Q 1894 3584 2278 3584 
Q 2916 3584 3314 3078 
Q 3713 2572 3713 1747 
Q 3713 922 3314 415 
Q 2916 -91 2278 -91 
Q 1894 -91 1617 61 
Q 1341 213 1159 525 
z
M 3116 1747 
Q 3116 2381 2855 2742 
Q 2594 3103 2138 3103 
Q 1681 3103 1420 2742 
Q 1159 2381 1159 1747 
Q 1159 1113 1420 752 
Q 1681 391 2138 391 
Q 2594 391 2855 752 
Q 3116 1113 3116 1747 
z
" transform="scale(0.015625)"/>
      <path id="DejaVuSans-6f" d="M 1959 3097 
Q 1497 3097 1228 2736 
Q 959 2375 959 1747 
Q 959 1119 1226 758 
Q 1494 397 1959 397 
Q 2419 397 2687 759 
Q 2956 1122 2956 1747 
Q 2956 2369 2687 2733 
Q 2419 3097 1959 3097 
z
M 1959 3584 
Q 2709 3584 3137 3096 
Q 3566 2609 3566 1747 
Q 3566 888 3137 398 
Q 2709 -91 1959 -91 
Q 1206 -91 779 398 
Q 353 888 353 1747 
Q 353 2609 779 3096 
Q 1206 3584 1959 3584 
z
" transform="scale(0.015625)"/>
     </defs>
     <use xlink:href="#DejaVuSans-53"/>
     <use xlink:href="#DejaVuSans-69" x="63.476562"/>
     <use xlink:href="#DejaVuSans-6e" x="91.259766"/>
     <use xlink:href="#DejaVuSans-67" x="154.638672"/>
     <use xlink:href="#DejaVuSans-61" x="218.115234"/>
     <use xlink:href="#DejaVuSans-70" x="279.394531"/>
     <use xlink:href="#DejaVuSans-6f" x="342.871094"/>
     <use xlink:href="#DejaVuSans-72" x="404.052734"/>
     <use xlink:href="#DejaVuSans-65" x="442.916016"/>
    </g>
   </g>
   <g id="text_6">
    <!-- 9% -->
    <g transform="translate(912.476238 1778.29303)scale(0.0579 -0.0579)">
     <defs>
      <path id="DejaVuSans-39" d="M 703 97 
L 703 672 
Q 941 559 1184 500 
Q 1428 441 1663 441 
Q 2288 441 2617 861 
Q 2947 1281 2994 2138 
Q 2813 1869 2534 1725 
Q 2256 1581 1919 1581 
Q 1219 1581 811 2004 
Q 403 2428 403 3163 
Q 403 3881 828 4315 
Q 1253 4750 1959 4750 
Q 2769 4750 3195 4129 
Q 3622 3509 3622 2328 
Q 3622 1225 3098 567 
Q 2575 -91 1691 -91 
Q 1453 -91 1209 -44 
Q 966 3 703 97 
z
M 1959 2075 
Q 2384 2075 2632 2365 
Q 2881 2656 2881 3163 
Q 2881 3666 2632 3958 
Q 2384 4250 1959 4250 
Q 1534 4250 1286 3958 
Q 1038 3666 1038 3163 
Q 1038 2656 1286 2365 
Q 1534 2075 1959 2075 
z
" transform="scale(0.015625)"/>
     </defs>
     <use xlink:href="#DejaVuSans-39"/>
     <use xlink:href="#DejaVuSans-25" x="63.623047"/>
    </g>
   </g>
   <g id="text_7">
    <!-- Sri Lanka -->
    <g transform="translate(1312.149148 1829.197832)scale(0.0579 -0.0579)">
     <defs>
      <path id="DejaVuSans-4c" d="M 628 4666 
L 1259 4666 
L 1259 531 
L 3531 531 
L 3531 0 
L 628 0 
L 628 4666 
z
" transform="scale(0.015625)"/>
      <path id="DejaVuSans-6b" d="M 581 4863 
L 1159 4863 
L 1159 1991 
L 2875 3500 
L 3609 3500 
L 1753 1863 
L 3688 0 
L 2938 0 
L 1159 1709 
L 1159 0 
L 581 0 
L 581 4863 
z
" transform="scale(0.015625)"/>
     </defs>
     <use xlink:href="#DejaVuSans-53"/>
     <use xlink:href="#DejaVuSans-72" x="63.476562"/>
     <use xlink:href="#DejaVuSans-69" x="104.589844"/>
     <use xlink:href="#DejaVuSans-20" x="132.373047"/>
     <use xlink:href="#DejaVuSans-4c" x="164.160156"/>
     <use xlink:href="#DejaVuSans-61" x="219.873047"/>
     <use xlink:href="#DejaVuSans-6e" x="281.152344"/>
     <use xlink:href="#DejaVuSans-6b" x="344.53125"/>
     <use xlink:href="#DejaVuSans-61" x="400.691406"/>
    </g>
   </g>
   <g id="text_8">
    <!-- 6% -->
    <g transform="translate(1042.532421 1655.980162)scale(0.0579 -0.0579)">
     <defs>
      <path id="DejaVuSans-36" d="M 2113 2584 
Q 1688 2584 1439 2293 
Q 1191 2003 1191 1497 
Q 1191 994 1439 701 
Q 1688 409 2113 409 
Q 2538 409 2786 701 
Q 3034 994 3034 1497 
Q 3034 2003 2786 2293 
Q 2538 2584 2113 2584 
z
M 3366 4563 
L 3366 3988 
Q 3128 4100 2886 4159 
Q 2644 4219 2406 4219 
Q 1781 4219 1451 3797 
Q 1122 3375 1075 2522 
Q 1259 2794 1537 2939 
Q 1816 3084 2150 3084 
Q 2853 3084 3261 2657 
Q 3669 2231 3669 1497 
Q 3669 778 3244 343 
Q 2819 -91 2113 -91 
Q 1303 -91 875 529 
Q 447 1150 447 2328 
Q 447 3434 972 4092 
Q 1497 4750 2381 4750 
Q 2619 4750 2861 4703 
Q 3103 4656 3366 4563 
z
" transform="scale(0.015625)"/>
     </defs>
     <use xlink:href="#DejaVuSans-36"/>
     <use xlink:href="#DejaVuSans-25" x="63.623047"/>
    </g>
   </g>
   <g id="text_9">
    <!-- Oman -->
    <g transform="translate(1409.836881 1595.645121)scale(0.0579 -0.0579)">
     <defs>
      <path id="DejaVuSans-4f" d="M 2522 4238 
Q 1834 4238 1429 3725 
Q 1025 3213 1025 2328 
Q 1025 1447 1429 934 
Q 1834 422 2522 422 
Q 3209 422 3611 934 
Q 4013 1447 4013 2328 
Q 4013 3213 3611 3725 
Q 3209 4238 2522 4238 
z
M 2522 4750 
Q 3503 4750 4090 4092 
Q 4678 3434 4678 2328 
Q 4678 1225 4090 567 
Q 3503 -91 2522 -91 
Q 1538 -91 948 565 
Q 359 1222 359 2328 
Q 359 3434 948 4092 
Q 1538 4750 2522 4750 
z
" transform="scale(0.015625)"/>
     </defs>
     <use xlink:href="#DejaVuSans-4f"/>
     <use xlink:href="#DejaVuSans-6d" x="78.710938"/>
     <use xlink:href="#DejaVuSans-61" x="176.123047"/>
     <use xlink:href="#DejaVuSans-6e" x="237.402344"/>
    </g>
   </g>
   <g id="text_10">
    <!-- 6% -->
    <g transform="translate(1095.816638 1528.587774)scale(0.0579 -0.0579)">
     <use xlink:href="#DejaVuSans-36"/>
     <use xlink:href="#DejaVuSans-25" x="63.623047"/>
    </g>
   </g>
   <g id="text_11">
    <!-- Malaysia -->
    <g transform="translate(1419.158466 1353.324902)scale(0.0579 -0.0579)">
     <defs>
      <path id="DejaVuSans-4d" d="M 628 4666 
L 1569 4666 
L 2759 1491 
L 3956 4666 
L 4897 4666 
L 4897 0 
L 4281 0 
L 4281 4097 
L 3078 897 
L 2444 897 
L 1241 4097 
L 1241 0 
L 628 0 
L 628 4666 
z
" transform="scale(0.015625)"/>
      <path id="DejaVuSans-6c" d="M 603 4863 
L 1178 4863 
L 1178 0 
L 603 0 
L 603 4863 
z
" transform="scale(0.015625)"/>
      <path id="DejaVuSans-79" d="M 2059 -325 
Q 1816 -950 1584 -1140 
Q 1353 -1331 966 -1331 
L 506 -1331 
L 506 -850 
L 844 -850 
Q 1081 -850 1212 -737 
Q 1344 -625 1503 -206 
L 1606 56 
L 191 3500 
L 800 3500 
L 1894 763 
L 2988 3500 
L 3597 3500 
L 2059 -325 
z
" transform="scale(0.015625)"/>
     </defs>
     <use xlink:href="#DejaVuSans-4d"/>
     <use xlink:href="#DejaVuSans-61" x="86.279297"/>
     <use xlink:href="#DejaVuSans-6c" x="147.558594"/>
     <use xlink:href="#DejaVuSans-61" x="175.341797"/>
     <use xlink:href="#DejaVuSans-79" x="236.621094"/>
     <use xlink:href="#DejaVuSans-73" x="295.800781"/>
     <use xlink:href="#DejaVuSans-69" x="347.900391"/>
     <use xlink:href="#DejaVuSans-61" x="375.683594"/>
    </g>
   </g>
   <g id="text_12">
    <!-- 5% -->
    <g transform="translate(1100.901139 1396.413109)scale(0.0579 -0.0579)">
     <defs>
      <path id="DejaVuSans-35" d="M 691 4666 
L 3169 4666 
L 3169 4134 
L 1269 4134 
L 1269 2991 
Q 1406 3038 1543 3061 
Q 1681 3084 1819 3084 
Q 2600 3084 3056 2656 
Q 3513 2228 3513 1497 
Q 3513 744 3044 326 
Q 2575 -91 1722 -91 
Q 1428 -91 1123 -41 
Q 819 9 494 109 
L 494 744 
Q 775 591 1075 516 
Q 1375 441 1709 441 
Q 2250 441 2565 725 
Q 2881 1009 2881 1497 
Q 2881 1984 2565 2268 
Q 2250 2553 1709 2553 
Q 1456 2553 1204 2497 
Q 953 2441 691 2322 
L 691 4666 
z
" transform="scale(0.015625)"/>
     </defs>
     <use xlink:href="#DejaVuSans-35"/>
     <use xlink:href="#DejaVuSans-25" x="63.623047"/>
    </g>
   </g>
   <g id="text_13">
    <!-- United Kingdom -->
    <g transform="translate(1359.357198 1151.567239)scale(0.0579 -0.0579)">
     <defs>
      <path id="DejaVuSans-4b" d="M 628 4666 
L 1259 4666 
L 1259 2694 
L 3353 4666 
L 4166 4666 
L 1850 2491 
L 4331 0 
L 3500 0 
L 1259 2247 
L 1259 0 
L 628 0 
L 628 4666 
z
" transform="scale(0.015625)"/>
     </defs>
     <use xlink:href="#DejaVuSans-55"/>
     <use xlink:href="#DejaVuSans-6e" x="73.193359"/>
     <use xlink:href="#DejaVuSans-69" x="136.572266"/>
     <use xlink:href="#DejaVuSans-74" x="164.355469"/>
     <use xlink:href="#DejaVuSans-65" x="203.564453"/>
     <use xlink:href="#DejaVuSans-64" x="265.087891"/>
     <use xlink:href="#DejaVuSans-20" x="328.564453"/>
     <use xlink:href="#DejaVuSans-4b" x="360.351562"/>
     <use xlink:href="#DejaVuSans-69" x="425.927734"/>
     <use xlink:href="#DejaVuSans-6e" x="453.710938"/>
     <use xlink:href="#DejaVuSans-67" x="517.089844"/>
     <use xlink:href="#DejaVuSans-64" x="580.566406"/>
     <use xlink:href="#DejaVuSans-6f" x="644.042969"/>
     <use xlink:href="#DejaVuSans-6d" x="705.224609"/>
    </g>
   </g>
   <g id="text_14">
    <!-- 4% -->
    <g transform="translate(1068.282266 1286.363475)scale(0.0579 -0.0579)">
     <defs>
      <path id="DejaVuSans-34" d="M 2419 4116 
L 825 1625 
L 2419 1625 
L 2419 4116 
z
M 2253 4666 
L 3047 4666 
L 3047 1625 
L 3713 1625 
L 3713 1100 
L 3047 1100 
L 3047 0 
L 2419 0 
L 2419 1100 
L 313 1100 
L 313 1709 
L 2253 4666 
z
" transform="scale(0.015625)"/>
     </defs>
     <use xlink:href="#DejaVuSans-34"/>
     <use xlink:href="#DejaVuSans-25" x="63.623047"/>
    </g>
   </g>
   <g id="text_15">
    <!-- Qatar -->
    <g transform="translate(1259.96124 997.170886)scale(0.0579 -0.0579)">
     <defs>
      <path id="DejaVuSans-51" d="M 2522 4238 
Q 1834 4238 1429 3725 
Q 1025 3213 1025 2328 
Q 1025 1447 1429 934 
Q 1834 422 2522 422 
Q 3209 422 3611 934 
Q 4013 1447 4013 2328 
Q 4013 3213 3611 3725 
Q 3209 4238 2522 4238 
z
M 3406 84 
L 4238 -825 
L 3475 -825 
L 2784 -78 
Q 2681 -84 2626 -87 
Q 2572 -91 2522 -91 
Q 1538 -91 948 567 
Q 359 1225 359 2328 
Q 359 3434 948 4092 
Q 1538 4750 2522 4750 
Q 3503 4750 4090 4092 
Q 4678 3434 4678 2328 
Q 4678 1516 4351 937 
Q 4025 359 3406 84 
z
" transform="scale(0.015625)"/>
     </defs>
     <use xlink:href="#DejaVuSans-51"/>
     <use xlink:href="#DejaVuSans-61" x="78.710938"/>
     <use xlink:href="#DejaVuSans-74" x="139.990234"/>
     <use xlink:href="#DejaVuSans-61" x="179.199219"/>
     <use xlink:href="#DejaVuSans-72" x="240.478516"/>
    </g>
   </g>
   <g id="text_16">
    <!-- 4% -->
    <g transform="translate(1014.066289 1202.147282)scale(0.0579 -0.0579)">
     <use xlink:href="#DejaVuSans-34"/>
     <use xlink:href="#DejaVuSans-25" x="63.623047"/>
    </g>
   </g>
   <g id="text_17">
    <!-- Hong Kong -->
    <g transform="translate(1136.954157 883.474159)scale(0.0579 -0.0579)">
     <defs>
      <path id="DejaVuSans-48" d="M 628 4666 
L 1259 4666 
L 1259 2753 
L 3553 2753 
L 3553 4666 
L 4184 4666 
L 4184 0 
L 3553 0 
L 3553 2222 
L 1259 2222 
L 1259 0 
L 628 0 
L 628 4666 
z
" transform="scale(0.015625)"/>
     </defs>
     <use xlink:href="#DejaVuSans-48"/>
     <use xlink:href="#DejaVuSans-6f" x="75.195312"/>
     <use xlink:href="#DejaVuSans-6e" x="136.376953"/>
     <use xlink:href="#DejaVuSans-67" x="199.755859"/>
     <use xlink:href="#DejaVuSans-20" x="263.232422"/>
     <use xlink:href="#DejaVuSans-4b" x="295.019531"/>
     <use xlink:href="#DejaVuSans-6f" x="355.595703"/>
     <use xlink:href="#DejaVuSans-6e" x="416.777344"/>
     <use xlink:href="#DejaVuSans-67" x="480.15625"/>
    </g>
   </g>
   <g id="text_18">
    <!-- 3% -->
    <g transform="translate(946.971516 1140.130885)scale(0.0579 -0.0579)">
     <defs>
      <path id="DejaVuSans-33" d="M 2597 2516 
Q 3050 2419 3304 2112 
Q 3559 1806 3559 1356 
Q 3559 666 3084 287 
Q 2609 -91 1734 -91 
Q 1441 -91 1130 -33 
Q 819 25 488 141 
L 488 750 
Q 750 597 1062 519 
Q 1375 441 1716 441 
Q 2309 441 2620 675 
Q 2931 909 2931 1356 
Q 2931 1769 2642 2001 
Q 2353 2234 1838 2234 
L 1294 2234 
L 1294 2753 
L 1863 2753 
Q 2328 2753 2575 2939 
Q 2822 3125 2822 3475 
Q 2822 3834 2567 4026 
Q 2313 4219 1838 4219 
Q 1578 4219 1281 4162 
Q 984 4106 628 3988 
L 628 4550 
Q 988 4650 1302 4700 
Q 1616 4750 1894 4750 
Q 2613 4750 3031 4423 
Q 3450 4097 3450 3541 
Q 3450 3153 3228 2886 
Q 3006 2619 2597 2516 
z
" transform="scale(0.015625)"/>
     </defs>
     <use xlink:href="#DejaVuSans-33"/>
     <use xlink:href="#DejaVuSans-25" x="63.623047"/>
    </g>
   </g>
   <g id="text_19">
    <!-- Germany -->
    <g transform="translate(1015.261748 813.074747)scale(0.0579 -0.0579)">
     <defs>
      <path id="DejaVuSans-47" d="M 3809 666 
L 3809 1919 
L 2778 1919 
L 2778 2438 
L 4434 2438 
L 4434 434 
Q 4069 175 3628 42 
Q 3188 -91 2688 -91 
Q 1594 -91 976 548 
Q 359 1188 359 2328 
Q 359 3472 976 4111 
Q 1594 4750 2688 4750 
Q 3144 4750 3555 4637 
Q 3966 4525 4313 4306 
L 4313 3634 
Q 3963 3931 3569 4081 
Q 3175 4231 2741 4231 
Q 1884 4231 1454 3753 
Q 1025 3275 1025 2328 
Q 1025 1384 1454 906 
Q 1884 428 2741 428 
Q 3075 428 3337 486 
Q 3600 544 3809 666 
z
" transform="scale(0.015625)"/>
     </defs>
     <use xlink:href="#DejaVuSans-47"/>
     <use xlink:href="#DejaVuSans-65" x="77.490234"/>
     <use xlink:href="#DejaVuSans-72" x="139.013672"/>
     <use xlink:href="#DejaVuSans-6d" x="178.376953"/>
     <use xlink:href="#DejaVuSans-61" x="275.789062"/>
     <use xlink:href="#DejaVuSans-6e" x="337.068359"/>
     <use xlink:href="#DejaVuSans-79" x="400.447266"/>
    </g>
   </g>
   <g id="text_20">
    <!-- 3% -->
    <g transform="translate(880.593838 1101.731206)scale(0.0579 -0.0579)">
     <use xlink:href="#DejaVuSans-33"/>
     <use xlink:href="#DejaVuSans-25" x="63.623047"/>
    </g>
   </g>
   <g id="text_21">
    <!-- Bangladesh -->
    <g transform="translate(892.461525 771.004751)scale(0.0579 -0.0579)">
     <defs>
      <path id="DejaVuSans-42" d="M 1259 2228 
L 1259 519 
L 2272 519 
Q 2781 519 3026 730 
Q 3272 941 3272 1375 
Q 3272 1813 3026 2020 
Q 2781 2228 2272 2228 
L 1259 2228 
z
M 1259 4147 
L 1259 2741 
L 2194 2741 
Q 2656 2741 2882 2914 
Q 3109 3088 3109 3444 
Q 3109 3797 2882 3972 
Q 2656 4147 2194 4147 
L 1259 4147 
z
M 628 4666 
L 2241 4666 
Q 2963 4666 3353 4366 
Q 3744 4066 3744 3513 
Q 3744 3084 3544 2831 
Q 3344 2578 2956 2516 
Q 3422 2416 3680 2098 
Q 3938 1781 3938 1306 
Q 3938 681 3513 340 
Q 3088 0 2303 0 
L 628 0 
L 628 4666 
z
" transform="scale(0.015625)"/>
      <path id="DejaVuSans-68" d="M 3513 2113 
L 3513 0 
L 2938 0 
L 2938 2094 
Q 2938 2591 2744 2837 
Q 2550 3084 2163 3084 
Q 1697 3084 1428 2787 
Q 1159 2491 1159 1978 
L 1159 0 
L 581 0 
L 581 4863 
L 1159 4863 
L 1159 2956 
Q 1366 3272 1645 3428 
Q 1925 3584 2291 3584 
Q 2894 3584 3203 3211 
Q 3513 2838 3513 2113 
z
" transform="scale(0.015625)"/>
     </defs>
     <use xlink:href="#DejaVuSans-42"/>
     <use xlink:href="#DejaVuSans-61" x="68.603516"/>
     <use xlink:href="#DejaVuSans-6e" x="129.882812"/>
     <use xlink:href="#DejaVuSans-67" x="193.261719"/>
     <use xlink:href="#DejaVuSans-6c" x="256.738281"/>
     <use xlink:href="#DejaVuSans-61" x="284.521484"/>
     <use xlink:href="#DejaVuSans-64" x="345.800781"/>
     <use xlink:href="#DejaVuSans-65" x="409.277344"/>
     <use xlink:href="#DejaVuSans-73" x="470.800781"/>
     <use xlink:href="#DejaVuSans-68" x="522.900391"/>
    </g>
   </g>
   <g id="text_22">
    <!-- 3% -->
    <g transform="translate(813.611899 1078.783936)scale(0.0579 -0.0579)">
     <use xlink:href="#DejaVuSans-33"/>
     <use xlink:href="#DejaVuSans-25" x="63.623047"/>
    </g>
   </g>
   <g id="text_23">
    <!-- Kuwait -->
    <g transform="translate(780.205747 753.453787)scale(0.0579 -0.0579)">
     <defs>
      <path id="DejaVuSans-77" d="M 269 3500 
L 844 3500 
L 1563 769 
L 2278 3500 
L 2956 3500 
L 3675 769 
L 4391 3500 
L 4966 3500 
L 4050 0 
L 3372 0 
L 2619 2869 
L 1863 0 
L 1184 0 
L 269 3500 
z
" transform="scale(0.015625)"/>
     </defs>
     <use xlink:href="#DejaVuSans-4b"/>
     <use xlink:href="#DejaVuSans-75" x="60.576172"/>
     <use xlink:href="#DejaVuSans-77" x="123.955078"/>
     <use xlink:href="#DejaVuSans-61" x="205.742188"/>
     <use xlink:href="#DejaVuSans-69" x="267.021484"/>
     <use xlink:href="#DejaVuSans-74" x="294.804688"/>
    </g>
   </g>
   <g id="text_24">
    <!-- 2% -->
    <g transform="translate(752.381474 1069.210683)scale(0.0579 -0.0579)">
     <use xlink:href="#DejaVuSans-32"/>
     <use xlink:href="#DejaVuSans-25" x="63.623047"/>
    </g>
   </g>
   <g id="text_25">
    <!-- Nepal -->
    <g transform="translate(671.468508 752.778031)scale(0.0579 -0.0579)">
     <defs>
      <path id="DejaVuSans-4e" d="M 628 4666 
L 1478 4666 
L 3547 763 
L 3547 4666 
L 4159 4666 
L 4159 0 
L 3309 0 
L 1241 3903 
L 1241 0 
L 628 0 
L 628 4666 
z
" transform="scale(0.015625)"/>
     </defs>
     <use xlink:href="#DejaVuSans-4e"/>
     <use xlink:href="#DejaVuSans-65" x="74.804688"/>
     <use xlink:href="#DejaVuSans-70" x="136.328125"/>
     <use xlink:href="#DejaVuSans-61" x="199.804688"/>
     <use xlink:href="#DejaVuSans-6c" x="261.083984"/>
    </g>
   </g>
   <g id="text_26">
    <!-- 2% -->
    <g transform="translate(702.193944 1068.842088)scale(0.0579 -0.0579)">
     <use xlink:href="#DejaVuSans-32"/>
     <use xlink:href="#DejaVuSans-25" x="63.623047"/>
    </g>
   </g>
   <g id="text_27">
    <!-- Afghanistan -->
    <g transform="translate(573.08607 762.262959)scale(0.0579 -0.0579)">
     <defs>
      <path id="DejaVuSans-66" d="M 2375 4863 
L 2375 4384 
L 1825 4384 
Q 1516 4384 1395 4259 
Q 1275 4134 1275 3809 
L 1275 3500 
L 2222 3500 
L 2222 3053 
L 1275 3053 
L 1275 0 
L 697 0 
L 697 3053 
L 147 3053 
L 147 3500 
L 697 3500 
L 697 3744 
Q 697 4328 969 4595 
Q 1241 4863 1831 4863 
L 2375 4863 
z
" transform="scale(0.015625)"/>
     </defs>
     <use xlink:href="#DejaVuSans-41"/>
     <use xlink:href="#DejaVuSans-66" x="64.783203"/>
     <use xlink:href="#DejaVuSans-67" x="99.988281"/>
     <use xlink:href="#DejaVuSans-68" x="163.464844"/>
     <use xlink:href="#DejaVuSans-61" x="226.84375"/>
     <use xlink:href="#DejaVuSans-6e" x="288.123047"/>
     <use xlink:href="#DejaVuSans-69" x="351.501953"/>
     <use xlink:href="#DejaVuSans-73" x="379.285156"/>
     <use xlink:href="#DejaVuSans-74" x="431.384766"/>
     <use xlink:href="#DejaVuSans-61" x="470.59375"/>
     <use xlink:href="#DejaVuSans-6e" x="531.873047"/>
    </g>
   </g>
   <g id="text_28">
    <!-- 2% -->
    <g transform="translate(658.205689 1074.015685)scale(0.0579 -0.0579)">
     <use xlink:href="#DejaVuSans-32"/>
     <use xlink:href="#DejaVuSans-25" x="63.623047"/>
    </g>
   </g>
   <g id="text_29">
    <!-- China -->
    <g transform="translate(522.416343 778.030755)scale(0.0579 -0.0579)">
     <defs>
      <path id="DejaVuSans-43" d="M 4122 4306 
L 4122 3641 
Q 3803 3938 3442 4084 
Q 3081 4231 2675 4231 
Q 1875 4231 1450 3742 
Q 1025 3253 1025 2328 
Q 1025 1406 1450 917 
Q 1875 428 2675 428 
Q 3081 428 3442 575 
Q 3803 722 4122 1019 
L 4122 359 
Q 3791 134 3420 21 
Q 3050 -91 2638 -91 
Q 1578 -91 968 557 
Q 359 1206 359 2328 
Q 359 3453 968 4101 
Q 1578 4750 2638 4750 
Q 3056 4750 3426 4639 
Q 3797 4528 4122 4306 
z
" transform="scale(0.015625)"/>
     </defs>
     <use xlink:href="#DejaVuSans-43"/>
     <use xlink:href="#DejaVuSans-68" x="69.824219"/>
     <use xlink:href="#DejaVuSans-69" x="133.203125"/>
     <use xlink:href="#DejaVuSans-6e" x="160.986328"/>
     <use xlink:href="#DejaVuSans-61" x="224.365234"/>
    </g>
   </g>
   <g id="text_30">
    <!-- 1% -->
    <g transform="translate(620.790122 1082.616301)scale(0.0579 -0.0579)">
     <use xlink:href="#DejaVuSans-31"/>
     <use xlink:href="#DejaVuSans-25" x="63.623047"/>
    </g>
   </g>
   <g id="text_31">
    <!-- Mauritius -->
    <g transform="translate(450.57776 798.663297)scale(0.0579 -0.0579)">
     <use xlink:href="#DejaVuSans-4d"/>
     <use xlink:href="#DejaVuSans-61" x="86.279297"/>
     <use xlink:href="#DejaVuSans-75" x="147.558594"/>
     <use xlink:href="#DejaVuSans-72" x="210.9375"/>
     <use xlink:href="#DejaVuSans-69" x="252.050781"/>
     <use xlink:href="#DejaVuSans-74" x="279.833984"/>
     <use xlink:href="#DejaVuSans-69" x="319.042969"/>
     <use xlink:href="#DejaVuSans-75" x="346.826172"/>
     <use xlink:href="#DejaVuSans-73" x="410.205078"/>
    </g>
   </g>
   <g id="text_32">
    <!-- 1% -->
    <g transform="translate(587.184073 1093.870415)scale(0.0579 -0.0579)">
     <use xlink:href="#DejaVuSans-31"/>
     <use xlink:href="#DejaVuSans-25" x="63.623047"/>
    </g>
   </g>
   <g id="text_33">
    <!-- Belgium -->
    <g transform="translate(399.041419 822.546067)scale(0.0579 -0.0579)">
     <use xlink:href="#DejaVuSans-42"/>
     <use xlink:href="#DejaVuSans-65" x="68.603516"/>
     <use xlink:href="#DejaVuSans-6c" x="130.126953"/>
     <use xlink:href="#DejaVuSans-67" x="157.910156"/>
     <use xlink:href="#DejaVuSans-69" x="221.386719"/>
     <use xlink:href="#DejaVuSans-75" x="249.169922"/>
     <use xlink:href="#DejaVuSans-6d" x="312.548828"/>
    </g>
   </g>
   <g id="text_34">
    <!-- 1% -->
    <g transform="translate(557.421218 1106.897381)scale(0.0579 -0.0579)">
     <use xlink:href="#DejaVuSans-31"/>
     <use xlink:href="#DejaVuSans-25" x="63.623047"/>
    </g>
   </g>
   <g id="text_35">
    <!-- United States -->
    <g transform="translate(335.900937 848.232448)scale(0.0579 -0.0579)">
     <use xlink:href="#DejaVuSans-55"/>
     <use xlink:href="#DejaVuSans-6e" x="73.193359"/>
     <use xlink:href="#DejaVuSans-69" x="136.572266"/>
     <use xlink:href="#DejaVuSans-74" x="164.355469"/>
     <use xlink:href="#DejaVuSans-65" x="203.564453"/>
     <use xlink:href="#DejaVuSans-64" x="265.087891"/>
     <use xlink:href="#DejaVuSans-20" x="328.564453"/>
     <use xlink:href="#DejaVuSans-53" x="360.351562"/>
     <use xlink:href="#DejaVuSans-74" x="423.828125"/>
     <use xlink:href="#DejaVuSans-61" x="463.037109"/>
     <use xlink:href="#DejaVuSans-74" x="524.316406"/>
     <use xlink:href="#DejaVuSans-65" x="563.525391"/>
     <use xlink:href="#DejaVuSans-73" x="625.048828"/>
    </g>
   </g>
   <g id="text_36">
    <!-- 1% -->
    <g transform="translate(531.418728 1120.908134)scale(0.0579 -0.0579)">
     <use xlink:href="#DejaVuSans-31"/>
     <use xlink:href="#DejaVuSans-25" x="63.623047"/>
    </g>
   </g>
   <g id="text_37">
    <!-- Japan -->
    <g transform="translate(313.426049 877.54449)scale(0.0579 -0.0579)">
     <defs>
      <path id="DejaVuSans-4a" d="M 628 4666 
L 1259 4666 
L 1259 325 
Q 1259 -519 939 -900 
Q 619 -1281 -91 -1281 
L -331 -1281 
L -331 -750 
L -134 -750 
Q 284 -750 456 -515 
Q 628 -281 628 325 
L 628 4666 
z
" transform="scale(0.015625)"/>
     </defs>
     <use xlink:href="#DejaVuSans-4a"/>
     <use xlink:href="#DejaVuSans-61" x="29.492188"/>
     <use xlink:href="#DejaVuSans-70" x="90.771484"/>
     <use xlink:href="#DejaVuSans-61" x="154.248047"/>
     <use xlink:href="#DejaVuSans-6e" x="215.527344"/>
    </g>
   </g>
   <g id="text_38">
    <!-- 1% -->
    <g transform="translate(506.583226 1136.89652)scale(0.0579 -0.0579)">
     <use xlink:href="#DejaVuSans-31"/>
     <use xlink:href="#DejaVuSans-25" x="63.623047"/>
    </g>
   </g>
   <g id="text_39">
    <!-- France -->
    <g transform="translate(271.399575 906.879281)scale(0.0579 -0.0579)">
     <defs>
      <path id="DejaVuSans-46" d="M 628 4666 
L 3309 4666 
L 3309 4134 
L 1259 4134 
L 1259 2759 
L 3109 2759 
L 3109 2228 
L 1259 2228 
L 1259 0 
L 628 0 
L 628 4666 
z
" transform="scale(0.015625)"/>
      <path id="DejaVuSans-63" d="M 3122 3366 
L 3122 2828 
Q 2878 2963 2633 3030 
Q 2388 3097 2138 3097 
Q 1578 3097 1268 2742 
Q 959 2388 959 1747 
Q 959 1106 1268 751 
Q 1578 397 2138 397 
Q 2388 397 2633 464 
Q 2878 531 3122 666 
L 3122 134 
Q 2881 22 2623 -34 
Q 2366 -91 2075 -91 
Q 1284 -91 818 406 
Q 353 903 353 1747 
Q 353 2603 823 3093 
Q 1294 3584 2113 3584 
Q 2378 3584 2631 3529 
Q 2884 3475 3122 3366 
z
" transform="scale(0.015625)"/>
     </defs>
     <use xlink:href="#DejaVuSans-46"/>
     <use xlink:href="#DejaVuSans-72" x="50.269531"/>
     <use xlink:href="#DejaVuSans-61" x="91.382812"/>
     <use xlink:href="#DejaVuSans-6e" x="152.662109"/>
     <use xlink:href="#DejaVuSans-63" x="216.041016"/>
     <use xlink:href="#DejaVuSans-65" x="271.021484"/>
    </g>
   </g>
   <g id="text_40">
    <!-- 1% -->
    <g transform="translate(485.35327 1152.897316)scale(0.0579 -0.0579)">
     <use xlink:href="#DejaVuSans-31"/>
     <use xlink:href="#DejaVuSans-25" x="63.623047"/>
    </g>
   </g>
   <g id="text_41">
    <!-- Turkey -->
    <g transform="translate(239.010658 935.184045)scale(0.0579 -0.0579)">
     <defs>
      <path id="DejaVuSans-54" d="M -19 4666 
L 3928 4666 
L 3928 4134 
L 2272 4134 
L 2272 0 
L 1638 0 
L 1638 4134 
L -19 4134 
L -19 4666 
z
" transform="scale(0.015625)"/>
     </defs>
     <use xlink:href="#DejaVuSans-54"/>
     <use xlink:href="#DejaVuSans-75" x="45.958984"/>
     <use xlink:href="#DejaVuSans-72" x="109.337891"/>
     <use xlink:href="#DejaVuSans-6b" x="150.451172"/>
     <use xlink:href="#DejaVuSans-65" x="204.736328"/>
     <use xlink:href="#DejaVuSans-79" x="266.259766"/>
    </g>
   </g>
   <g id="text_42">
    <!-- 1% -->
    <g transform="translate(467.462061 1168.336278)scale(0.0579 -0.0579)">
     <use xlink:href="#DejaVuSans-31"/>
     <use xlink:href="#DejaVuSans-25" x="63.623047"/>
    </g>
   </g>
   <g id="text_43">
    <!-- Switzerland -->
    <g transform="translate(193.103196 965.473254)scale(0.0579 -0.0579)">
     <defs>
      <path id="DejaVuSans-7a" d="M 353 3500 
L 3084 3500 
L 3084 2975 
L 922 459 
L 3084 459 
L 3084 0 
L 275 0 
L 275 525 
L 2438 3041 
L 353 3041 
L 353 3500 
z
" transform="scale(0.015625)"/>
     </defs>
     <use xlink:href="#DejaVuSans-53"/>
     <use xlink:href="#DejaVuSans-77" x="63.476562"/>
     <use xlink:href="#DejaVuSans-69" x="145.263672"/>
     <use xlink:href="#DejaVuSans-74" x="173.046875"/>
     <use xlink:href="#DejaVuSans-7a" x="212.255859"/>
     <use xlink:href="#DejaVuSans-65" x="264.746094"/>
     <use xlink:href="#DejaVuSans-72" x="326.269531"/>
     <use xlink:href="#DejaVuSans-6c" x="367.382812"/>
     <use xlink:href="#DejaVuSans-61" x="395.166016"/>
     <use xlink:href="#DejaVuSans-6e" x="456.445312"/>
     <use xlink:href="#DejaVuSans-64" x="519.824219"/>
    </g>
   </g>
   <g id="text_44">
    <!-- 1% -->
    <g transform="translate(450.565295 1184.857664)scale(0.0579 -0.0579)">
     <use xlink:href="#DejaVuSans-31"/>
     <use xlink:href="#DejaVuSans-25" x="63.623047"/>
    </g>
   </g>
   <g id="text_45">
    <!-- Kenya -->
    <g transform="translate(183.646117 993.512236)scale(0.0579 -0.0579)">
     <use xlink:href="#DejaVuSans-4b"/>
     <use xlink:href="#DejaVuSans-65" x="60.576172"/>
     <use xlink:href="#DejaVuSans-6e" x="122.099609"/>
     <use xlink:href="#DejaVuSans-79" x="185.478516"/>
     <use xlink:href="#DejaVuSans-61" x="244.658203"/>
    </g>
   </g>
   <g id="text_46">
    <!-- 1% -->
    <g transform="translate(436.647869 1200.151654)scale(0.0579 -0.0579)">
     <use xlink:href="#DejaVuSans-31"/>
     <use xlink:href="#DejaVuSans-25" x="63.623047"/>
    </g>
   </g>
   <g id="text_47">
    <!-- Pakistan -->
    <g transform="translate(156.488263 1018.620748)scale(0.0579 -0.0579)">
     <defs>
      <path id="DejaVuSans-50" d="M 1259 4147 
L 1259 2394 
L 2053 2394 
Q 2494 2394 2734 2622 
Q 2975 2850 2975 3272 
Q 2975 3691 2734 3919 
Q 2494 4147 2053 4147 
L 1259 4147 
z
M 628 4666 
L 2053 4666 
Q 2838 4666 3239 4311 
Q 3641 3956 3641 3272 
Q 3641 2581 3239 2228 
Q 2838 1875 2053 1875 
L 1259 1875 
L 1259 0 
L 628 0 
L 628 4666 
z
" transform="scale(0.015625)"/>
     </defs>
     <use xlink:href="#DejaVuSans-50"/>
     <use xlink:href="#DejaVuSans-61" x="55.802734"/>
     <use xlink:href="#DejaVuSans-6b" x="117.082031"/>
     <use xlink:href="#DejaVuSans-69" x="174.992188"/>
     <use xlink:href="#DejaVuSans-73" x="202.775391"/>
     <use xlink:href="#DejaVuSans-74" x="254.875"/>
     <use xlink:href="#DejaVuSans-61" x="294.083984"/>
     <use xlink:href="#DejaVuSans-6e" x="355.363281"/>
    </g>
   </g>
   <g id="text_48">
    <!-- 1% -->
    <g transform="translate(425.395837 1213.847206)scale(0.0579 -0.0579)">
     <use xlink:href="#DejaVuSans-31"/>
     <use xlink:href="#DejaVuSans-25" x="63.623047"/>
    </g>
   </g>
   <g id="text_49">
    <!-- South Korea -->
    <g transform="translate(126.218521 1044.664067)scale(0.0579 -0.0579)">
     <use xlink:href="#DejaVuSans-53"/>
     <use xlink:href="#DejaVuSans-6f" x="63.476562"/>
     <use xlink:href="#DejaVuSans-75" x="124.658203"/>
     <use xlink:href="#DejaVuSans-74" x="188.037109"/>
     <use xlink:href="#DejaVuSans-68" x="227.246094"/>
     <use xlink:href="#DejaVuSans-20" x="290.625"/>
     <use xlink:href="#DejaVuSans-4b" x="322.412109"/>
     <use xlink:href="#DejaVuSans-6f" x="382.988281"/>
     <use xlink:href="#DejaVuSans-72" x="444.169922"/>
     <use xlink:href="#DejaVuSans-65" x="483.033203"/>
     <use xlink:href="#DejaVuSans-61" x="544.556641"/>
    </g>
   </g>
   <g id="text_50">
    <!-- 1% -->
    <g transform="translate(414.794816 1228.052653)scale(0.0579 -0.0579)">
     <use xlink:href="#DejaVuSans-31"/>
     <use xlink:href="#DejaVuSans-25" x="63.623047"/>
    </g>
   </g>
   <g id="text_51">
    <!-- Bhutan -->
    <g transform="translate(122.298725 1071.58551)scale(0.0579 -0.0579)">
     <use xlink:href="#DejaVuSans-42"/>
     <use xlink:href="#DejaVuSans-68" x="68.603516"/>
     <use xlink:href="#DejaVuSans-75" x="131.982422"/>
     <use xlink:href="#DejaVuSans-74" x="195.361328"/>
     <use xlink:href="#DejaVuSans-61" x="234.570312"/>
     <use xlink:href="#DejaVuSans-6e" x="295.849609"/>
    </g>
   </g>
   <g id="text_52">
    <!-- 1% -->
    <g transform="translate(404.86788 1242.737077)scale(0.0579 -0.0579)">
     <use xlink:href="#DejaVuSans-31"/>
     <use xlink:href="#DejaVuSans-25" x="63.623047"/>
    </g>
   </g>
   <g id="text_53">
    <!-- South Africa -->
    <g transform="translate(90.996576 1099.326482)scale(0.0579 -0.0579)">
     <use xlink:href="#DejaVuSans-53"/>
     <use xlink:href="#DejaVuSans-6f" x="63.476562"/>
     <use xlink:href="#DejaVuSans-75" x="124.658203"/>
     <use xlink:href="#DejaVuSans-74" x="188.037109"/>
     <use xlink:href="#DejaVuSans-68" x="227.246094"/>
     <use xlink:href="#DejaVuSans-20" x="290.625"/>
     <use xlink:href="#DejaVuSans-41" x="322.412109"/>
     <use xlink:href="#DejaVuSans-66" x="387.195312"/>
     <use xlink:href="#DejaVuSans-72" x="422.400391"/>
     <use xlink:href="#DejaVuSans-69" x="463.513672"/>
     <use xlink:href="#DejaVuSans-63" x="491.296875"/>
     <use xlink:href="#DejaVuSans-61" x="546.277344"/>
    </g>
   </g>
   <g id="text_54">
    <!-- 1% -->
    <g transform="translate(395.636634 1257.868516)scale(0.0579 -0.0579)">
     <use xlink:href="#DejaVuSans-31"/>
     <use xlink:href="#DejaVuSans-25" x="63.623047"/>
    </g>
   </g>
   <g id="text_55">
    <!-- Russia -->
    <g transform="translate(94.450013 1123.026478)scale(0.0579 -0.0579)">
     <defs>
      <path id="DejaVuSans-52" d="M 2841 2188 
Q 3044 2119 3236 1894 
Q 3428 1669 3622 1275 
L 4263 0 
L 3584 0 
L 2988 1197 
Q 2756 1666 2539 1819 
Q 2322 1972 1947 1972 
L 1259 1972 
L 1259 0 
L 628 0 
L 628 4666 
L 2053 4666 
Q 2853 4666 3247 4331 
Q 3641 3997 3641 3322 
Q 3641 2881 3436 2590 
Q 3231 2300 2841 2188 
z
M 1259 4147 
L 1259 2491 
L 2053 2491 
Q 2509 2491 2742 2702 
Q 2975 2913 2975 3322 
Q 2975 3731 2742 3939 
Q 2509 4147 2053 4147 
L 1259 4147 
z
" transform="scale(0.015625)"/>
     </defs>
     <use xlink:href="#DejaVuSans-52"/>
     <use xlink:href="#DejaVuSans-75" x="64.982422"/>
     <use xlink:href="#DejaVuSans-73" x="128.361328"/>
     <use xlink:href="#DejaVuSans-73" x="180.460938"/>
     <use xlink:href="#DejaVuSans-69" x="232.560547"/>
     <use xlink:href="#DejaVuSans-61" x="260.34375"/>
    </g>
   </g>
   <g id="text_56">
    <!-- 0% -->
    <g transform="translate(388.489901 1270.795786)scale(0.0579 -0.0579)">
     <use xlink:href="#DejaVuSans-30"/>
     <use xlink:href="#DejaVuSans-25" x="63.623047"/>
    </g>
   </g>
   <g id="text_57">
    <!-- Taiwan -->
    <g transform="translate(83.568324 1142.342022)scale(0.0579 -0.0579)">
     <use xlink:href="#DejaVuSans-54"/>
     <use xlink:href="#DejaVuSans-61" x="44.583984"/>
     <use xlink:href="#DejaVuSans-69" x="105.863281"/>
     <use xlink:href="#DejaVuSans-77" x="133.646484"/>
     <use xlink:href="#DejaVuSans-61" x="215.433594"/>
     <use xlink:href="#DejaVuSans-6e" x="276.712891"/>
    </g>
   </g>
   <g id="text_58">
    <!-- 0% -->
    <g transform="translate(383.137711 1281.331538)scale(0.0579 -0.0579)">
     <use xlink:href="#DejaVuSans-30"/>
     <use xlink:href="#DejaVuSans-25" x="63.623047"/>
    </g>
   </g>
   <g id="text_59">
    <!-- Iran -->
    <g transform="translate(82.746075 1161.953386)scale(0.0579 -0.0579)">
     <defs>
      <path id="DejaVuSans-49" d="M 628 4666 
L 1259 4666 
L 1259 0 
L 628 0 
L 628 4666 
z
" transform="scale(0.015625)"/>
     </defs>
     <use xlink:href="#DejaVuSans-49"/>
     <use xlink:href="#DejaVuSans-72" x="29.492188"/>
     <use xlink:href="#DejaVuSans-61" x="70.605469"/>
     <use xlink:href="#DejaVuSans-6e" x="131.884766"/>
    </g>
   </g>
   <g id="text_60">
    <!-- 0% -->
    <g transform="translate(378.11577 1292.028646)scale(0.0579 -0.0579)">
     <use xlink:href="#DejaVuSans-30"/>
     <use xlink:href="#DejaVuSans-25" x="63.623047"/>
    </g>
   </g>
   <g id="text_61">
    <!-- Uzbekistan -->
    <g transform="translate(53.479629 1181.841597)scale(0.0579 -0.0579)">
     <use xlink:href="#DejaVuSans-55"/>
     <use xlink:href="#DejaVuSans-7a" x="73.193359"/>
     <use xlink:href="#DejaVuSans-62" x="125.683594"/>
     <use xlink:href="#DejaVuSans-65" x="189.160156"/>
     <use xlink:href="#DejaVuSans-6b" x="250.683594"/>
     <use xlink:href="#DejaVuSans-69" x="308.59375"/>
     <use xlink:href="#DejaVuSans-73" x="336.376953"/>
     <use xlink:href="#DejaVuSans-74" x="388.476562"/>
     <use xlink:href="#DejaVuSans-61" x="427.685547"/>
     <use xlink:href="#DejaVuSans-6e" x="488.964844"/>
    </g>
   </g>
   <g id="text_62">
    <!-- 0% -->
    <g transform="translate(373.428936 1302.87676)scale(0.0579 -0.0579)">
     <use xlink:href="#DejaVuSans-30"/>
     <use xlink:href="#DejaVuSans-25" x="63.623047"/>
    </g>
   </g>
   <g id="text_63">
    <!-- Egypt -->
    <g transform="translate(60.782713 1201.987414)scale(0.0579 -0.0579)">
     <use xlink:href="#DejaVuSans-45"/>
     <use xlink:href="#DejaVuSans-67" x="63.183594"/>
     <use xlink:href="#DejaVuSans-79" x="126.660156"/>
     <use xlink:href="#DejaVuSans-70" x="185.839844"/>
     <use xlink:href="#DejaVuSans-74" x="249.316406"/>
    </g>
   </g>
   <g id="text_64">
    <!-- 0% -->
    <g transform="translate(369.081745 1313.865388)scale(0.0579 -0.0579)">
     <use xlink:href="#DejaVuSans-30"/>
     <use xlink:href="#DejaVuSans-25" x="63.623047"/>
    </g>
   </g>
   <g id="text_65">
    <!-- Italy -->
    <g transform="translate(57.588528 1222.371347)scale(0.0579 -0.0579)">
     <use xlink:href="#DejaVuSans-49"/>
     <use xlink:href="#DejaVuSans-74" x="29.492188"/>
     <use xlink:href="#DejaVuSans-61" x="68.701172"/>
     <use xlink:href="#DejaVuSans-6c" x="129.980469"/>
     <use xlink:href="#DejaVuSans-79" x="157.763672"/>
    </g>
   </g>
   <g id="text_66">
    <!-- 0% -->
    <g transform="translate(365.078402 1324.983897)scale(0.0579 -0.0579)">
     <use xlink:href="#DejaVuSans-30"/>
     <use xlink:href="#DejaVuSans-25" x="63.623047"/>
    </g>
   </g>
   <g id="text_67">
    <!-- Austria -->
    <g transform="translate(42.994963 1242.973676)scale(0.0579 -0.0579)">
     <use xlink:href="#DejaVuSans-41"/>
     <use xlink:href="#DejaVuSans-75" x="68.408203"/>
     <use xlink:href="#DejaVuSans-73" x="131.787109"/>
     <use xlink:href="#DejaVuSans-74" x="183.886719"/>
     <use xlink:href="#DejaVuSans-72" x="223.095703"/>
     <use xlink:href="#DejaVuSans-69" x="264.208984"/>
     <use xlink:href="#DejaVuSans-61" x="291.992188"/>
    </g>
   </g>
   <g id="text_68">
    <!-- 0% -->
    <g transform="translate(361.422779 1336.221531)scale(0.0579 -0.0579)">
     <use xlink:href="#DejaVuSans-30"/>
     <use xlink:href="#DejaVuSans-25" x="63.623047"/>
    </g>
   </g>
   <g id="text_69">
    <!-- Australia -->
    <g transform="translate(31.78024 1263.77447)scale(0.0579 -0.0579)">
     <use xlink:href="#DejaVuSans-41"/>
     <use xlink:href="#DejaVuSans-75" x="68.408203"/>
     <use xlink:href="#DejaVuSans-73" x="131.787109"/>
     <use xlink:href="#DejaVuSans-74" x="183.886719"/>
     <use xlink:href="#DejaVuSans-72" x="223.095703"/>
     <use xlink:href="#DejaVuSans-61" x="264.208984"/>
     <use xlink:href="#DejaVuSans-6c" x="325.488281"/>
     <use xlink:href="#DejaVuSans-69" x="353.271484"/>
     <use xlink:href="#DejaVuSans-61" x="381.054688"/>
    </g>
   </g>
   <g id="text_70">
    <!-- 0% -->
    <g transform="translate(358.118413 1347.567419)scale(0.0579 -0.0579)">
     <use xlink:href="#DejaVuSans-30"/>
     <use xlink:href="#DejaVuSans-25" x="63.623047"/>
    </g>
   </g>
   <g id="text_71">
    <!-- Finland -->
    <g transform="translate(32.582583 1279.493209)scale(0.0579 -0.0579)">
     <use xlink:href="#DejaVuSans-46"/>
     <use xlink:href="#DejaVuSans-69" x="50.269531"/>
     <use xlink:href="#DejaVuSans-6e" x="78.052734"/>
     <use xlink:href="#DejaVuSans-6c" x="141.431641"/>
     <use xlink:href="#DejaVuSans-61" x="169.214844"/>
     <use xlink:href="#DejaVuSans-6e" x="230.494141"/>
     <use xlink:href="#DejaVuSans-64" x="293.873047"/>
    </g>
   </g>
   <g id="text_72">
    <!-- 0% -->
    <g transform="translate(355.872587 1356.141276)scale(0.0579 -0.0579)">
     <use xlink:href="#DejaVuSans-30"/>
     <use xlink:href="#DejaVuSans-25" x="63.623047"/>
    </g>
   </g>
   <g id="text_73">
    <!-- Israel -->
    <g transform="translate(34.908193 1290.02388)scale(0.0579 -0.0579)">
     <use xlink:href="#DejaVuSans-49"/>
     <use xlink:href="#DejaVuSans-73" x="29.492188"/>
     <use xlink:href="#DejaVuSans-72" x="81.591797"/>
     <use xlink:href="#DejaVuSans-61" x="122.705078"/>
     <use xlink:href="#DejaVuSans-65" x="183.984375"/>
     <use xlink:href="#DejaVuSans-6c" x="245.507812"/>
    </g>
   </g>
   <g id="text_74">
    <!-- 0% -->
    <g transform="translate(354.486748 1361.885279)scale(0.0579 -0.0579)">
     <use xlink:href="#DejaVuSans-30"/>
     <use xlink:href="#DejaVuSans-25" x="63.623047"/>
    </g>
   </g>
   <g id="text_75">
    <!-- Burma -->
    <g transform="translate(29.246647 1300.592791)scale(0.0579 -0.0579)">
     <use xlink:href="#DejaVuSans-42"/>
     <use xlink:href="#DejaVuSans-75" x="68.603516"/>
     <use xlink:href="#DejaVuSans-72" x="131.982422"/>
     <use xlink:href="#DejaVuSans-6d" x="171.345703"/>
     <use xlink:href="#DejaVuSans-61" x="268.757812"/>
    </g>
   </g>
   <g id="text_76">
    <!-- 0% -->
    <g transform="translate(353.190407 1367.650139)scale(0.0579 -0.0579)">
     <use xlink:href="#DejaVuSans-30"/>
     <use xlink:href="#DejaVuSans-25" x="63.623047"/>
    </g>
   </g>
   <g id="text_77">
    <!-- Tajikistan -->
    <g transform="translate(19.332165 1311.197383)scale(0.0579 -0.0579)">
     <defs>
      <path id="DejaVuSans-6a" d="M 603 3500 
L 1178 3500 
L 1178 -63 
Q 1178 -731 923 -1031 
Q 669 -1331 103 -1331 
L -116 -1331 
L -116 -844 
L 38 -844 
Q 366 -844 484 -692 
Q 603 -541 603 -63 
L 603 3500 
z
M 603 4863 
L 1178 4863 
L 1178 4134 
L 603 4134 
L 603 4863 
z
" transform="scale(0.015625)"/>
     </defs>
     <use xlink:href="#DejaVuSans-54"/>
     <use xlink:href="#DejaVuSans-61" x="44.583984"/>
     <use xlink:href="#DejaVuSans-6a" x="105.863281"/>
     <use xlink:href="#DejaVuSans-69" x="133.646484"/>
     <use xlink:href="#DejaVuSans-6b" x="161.429688"/>
     <use xlink:href="#DejaVuSans-69" x="219.339844"/>
     <use xlink:href="#DejaVuSans-73" x="247.123047"/>
     <use xlink:href="#DejaVuSans-74" x="299.222656"/>
     <use xlink:href="#DejaVuSans-61" x="338.431641"/>
     <use xlink:href="#DejaVuSans-6e" x="399.710938"/>
    </g>
   </g>
   <g id="text_78">
    <!-- 0% -->
    <g transform="translate(351.983876 1373.434462)scale(0.0579 -0.0579)">
     <use xlink:href="#DejaVuSans-30"/>
     <use xlink:href="#DejaVuSans-25" x="63.623047"/>
    </g>
   </g>
   <g id="text_79">
    <!-- Reunion -->
    <g transform="translate(20.611917 1321.835094)scale(0.0579 -0.0579)">
     <use xlink:href="#DejaVuSans-52"/>
     <use xlink:href="#DejaVuSans-65" x="64.982422"/>
     <use xlink:href="#DejaVuSans-75" x="126.505859"/>
     <use xlink:href="#DejaVuSans-6e" x="189.884766"/>
     <use xlink:href="#DejaVuSans-69" x="253.263672"/>
     <use xlink:href="#DejaVuSans-6f" x="281.046875"/>
     <use xlink:href="#DejaVuSans-6e" x="342.228516"/>
    </g>
   </g>
   <g id="text_80">
    <!-- 0% -->
    <g transform="translate(350.867448 1379.23685)scale(0.0579 -0.0579)">
     <use xlink:href="#DejaVuSans-30"/>
     <use xlink:href="#DejaVuSans-25" x="63.623047"/>
    </g>
   </g>
   <g id="text_81">
    <!-- India OutBound OutBound Flight distribution -->
    <g transform="translate(588.227367 20.8)scale(0.12 -0.12)">
     <use xlink:href="#DejaVuSans-49"/>
     <use xlink:href="#DejaVuSans-6e" x="29.492188"/>
     <use xlink:href="#DejaVuSans-64" x="92.871094"/>
     <use xlink:href="#DejaVuSans-69" x="156.347656"/>
     <use xlink:href="#DejaVuSans-61" x="184.130859"/>
     <use xlink:href="#DejaVuSans-20" x="245.410156"/>
     <use xlink:href="#DejaVuSans-4f" x="277.197266"/>
     <use xlink:href="#DejaVuSans-75" x="355.908203"/>
     <use xlink:href="#DejaVuSans-74" x="419.287109"/>
     <use xlink:href="#DejaVuSans-42" x="458.496094"/>
     <use xlink:href="#DejaVuSans-6f" x="527.099609"/>
     <use xlink:href="#DejaVuSans-75" x="588.28125"/>
     <use xlink:href="#DejaVuSans-6e" x="651.660156"/>
     <use xlink:href="#DejaVuSans-64" x="715.039062"/>
     <use xlink:href="#DejaVuSans-20" x="778.515625"/>
     <use xlink:href="#DejaVuSans-4f" x="810.302734"/>
     <use xlink:href="#DejaVuSans-75" x="889.013672"/>
     <use xlink:href="#DejaVuSans-74" x="952.392578"/>
     <use xlink:href="#DejaVuSans-42" x="991.601562"/>
     <use xlink:href="#DejaVuSans-6f" x="1060.205078"/>
     <use xlink:href="#DejaVuSans-75" x="1121.386719"/>
     <use xlink:href="#DejaVuSans-6e" x="1184.765625"/>
     <use xlink:href="#DejaVuSans-64" x="1248.144531"/>
     <use xlink:href="#DejaVuSans-20" x="1311.621094"/>
     <use xlink:href="#DejaVuSans-46" x="1343.408203"/>
     <use xlink:href="#DejaVuSans-6c" x="1400.927734"/>
     <use xlink:href="#DejaVuSans-69" x="1428.710938"/>
     <use xlink:href="#DejaVuSans-67" x="1456.494141"/>
     <use xlink:href="#DejaVuSans-68" x="1519.970703"/>
     <use xlink:href="#DejaVuSans-74" x="1583.349609"/>
     <use xlink:href="#DejaVuSans-20" x="1622.558594"/>
     <use xlink:href="#DejaVuSans-64" x="1654.345703"/>
     <use xlink:href="#DejaVuSans-69" x="1717.822266"/>
     <use xlink:href="#DejaVuSans-73" x="1745.605469"/>
     <use xlink:href="#DejaVuSans-74" x="1797.705078"/>
     <use xlink:href="#DejaVuSans-72" x="1836.914062"/>
     <use xlink:href="#DejaVuSans-69" x="1878.027344"/>
     <use xlink:href="#DejaVuSans-62" x="1905.810547"/>
     <use xlink:href="#DejaVuSans-75" x="1969.287109"/>
     <use xlink:href="#DejaVuSans-74" x="2032.666016"/>
     <use xlink:href="#DejaVuSans-69" x="2071.875"/>
     <use xlink:href="#DejaVuSans-6f" x="2099.658203"/>
     <use xlink:href="#DejaVuSans-6e" x="2160.839844"/>
    </g>
   </g>
  </g>
  <g id="axes_2">
   <g id="legend_1">
    <g id="patch_42">
     <path d="M 1464.883035 1743.0625 
L 1603.883035 1743.0625 
Q 1605.883035 1743.0625 1605.883035 1741.0625 
L 1605.883035 1154.9375 
Q 1605.883035 1152.9375 1603.883035 1152.9375 
L 1464.883035 1152.9375 
Q 1462.883035 1152.9375 1462.883035 1154.9375 
L 1462.883035 1741.0625 
Q 1462.883035 1743.0625 1464.883035 1743.0625 
z
" style="fill: #ffffff; opacity: 0.8; stroke: #cccccc; stroke-linejoin: miter"/>
    </g>
    <g id="patch_43">
     <path d="M 1466.883035 1164.535937 
L 1486.883035 1164.535937 
L 1486.883035 1157.535937 
L 1466.883035 1157.535937 
z
" style="fill: #8000ff"/>
    </g>
    <g id="text_82">
     <!-- United Arab Emirates -->
     <g transform="translate(1494.883035 1164.535937)scale(0.1 -0.1)">
      <use xlink:href="#DejaVuSans-55"/>
      <use xlink:href="#DejaVuSans-6e" x="73.193359"/>
      <use xlink:href="#DejaVuSans-69" x="136.572266"/>
      <use xlink:href="#DejaVuSans-74" x="164.355469"/>
      <use xlink:href="#DejaVuSans-65" x="203.564453"/>
      <use xlink:href="#DejaVuSans-64" x="265.087891"/>
      <use xlink:href="#DejaVuSans-20" x="328.564453"/>
      <use xlink:href="#DejaVuSans-41" x="360.351562"/>
      <use xlink:href="#DejaVuSans-72" x="428.759766"/>
      <use xlink:href="#DejaVuSans-61" x="469.873047"/>
      <use xlink:href="#DejaVuSans-62" x="531.152344"/>
      <use xlink:href="#DejaVuSans-20" x="594.628906"/>
      <use xlink:href="#DejaVuSans-45" x="626.416016"/>
      <use xlink:href="#DejaVuSans-6d" x="689.599609"/>
      <use xlink:href="#DejaVuSans-69" x="787.011719"/>
      <use xlink:href="#DejaVuSans-72" x="814.794922"/>
      <use xlink:href="#DejaVuSans-61" x="855.908203"/>
      <use xlink:href="#DejaVuSans-74" x="917.1875"/>
      <use xlink:href="#DejaVuSans-65" x="956.396484"/>
      <use xlink:href="#DejaVuSans-73" x="1017.919922"/>
     </g>
    </g>
    <g id="patch_44">
     <path d="M 1466.883035 1179.214062 
L 1486.883035 1179.214062 
L 1486.883035 1172.214062 
L 1466.883035 1172.214062 
z
" style="fill: #7413ff"/>
    </g>
    <g id="text_83">
     <!-- Saudi Arabia -->
     <g transform="translate(1494.883035 1179.214062)scale(0.1 -0.1)">
      <use xlink:href="#DejaVuSans-53"/>
      <use xlink:href="#DejaVuSans-61" x="63.476562"/>
      <use xlink:href="#DejaVuSans-75" x="124.755859"/>
      <use xlink:href="#DejaVuSans-64" x="188.134766"/>
      <use xlink:href="#DejaVuSans-69" x="251.611328"/>
      <use xlink:href="#DejaVuSans-20" x="279.394531"/>
      <use xlink:href="#DejaVuSans-41" x="311.181641"/>
      <use xlink:href="#DejaVuSans-72" x="379.589844"/>
      <use xlink:href="#DejaVuSans-61" x="420.703125"/>
      <use xlink:href="#DejaVuSans-62" x="481.982422"/>
      <use xlink:href="#DejaVuSans-69" x="545.458984"/>
      <use xlink:href="#DejaVuSans-61" x="573.242188"/>
     </g>
    </g>
    <g id="patch_45">
     <path d="M 1466.883035 1193.892187 
L 1486.883035 1193.892187 
L 1486.883035 1186.892187 
L 1466.883035 1186.892187 
z
" style="fill: #6826fe"/>
    </g>
    <g id="text_84">
     <!-- Singapore -->
     <g transform="translate(1494.883035 1193.892187)scale(0.1 -0.1)">
      <use xlink:href="#DejaVuSans-53"/>
      <use xlink:href="#DejaVuSans-69" x="63.476562"/>
      <use xlink:href="#DejaVuSans-6e" x="91.259766"/>
      <use xlink:href="#DejaVuSans-67" x="154.638672"/>
      <use xlink:href="#DejaVuSans-61" x="218.115234"/>
      <use xlink:href="#DejaVuSans-70" x="279.394531"/>
      <use xlink:href="#DejaVuSans-6f" x="342.871094"/>
      <use xlink:href="#DejaVuSans-72" x="404.052734"/>
      <use xlink:href="#DejaVuSans-65" x="442.916016"/>
     </g>
    </g>
    <g id="patch_46">
     <path d="M 1466.883035 1208.570312 
L 1486.883035 1208.570312 
L 1486.883035 1201.570312 
L 1466.883035 1201.570312 
z
" style="fill: #5a3bfd"/>
    </g>
    <g id="text_85">
     <!-- Sri Lanka -->
     <g transform="translate(1494.883035 1208.570312)scale(0.1 -0.1)">
      <use xlink:href="#DejaVuSans-53"/>
      <use xlink:href="#DejaVuSans-72" x="63.476562"/>
      <use xlink:href="#DejaVuSans-69" x="104.589844"/>
      <use xlink:href="#DejaVuSans-20" x="132.373047"/>
      <use xlink:href="#DejaVuSans-4c" x="164.160156"/>
      <use xlink:href="#DejaVuSans-61" x="219.873047"/>
      <use xlink:href="#DejaVuSans-6e" x="281.152344"/>
      <use xlink:href="#DejaVuSans-6b" x="344.53125"/>
      <use xlink:href="#DejaVuSans-61" x="400.691406"/>
     </g>
    </g>
    <g id="patch_47">
     <path d="M 1466.883035 1223.248437 
L 1486.883035 1223.248437 
L 1486.883035 1216.248437 
L 1466.883035 1216.248437 
z
" style="fill: #4e4dfc"/>
    </g>
    <g id="text_86">
     <!-- Oman -->
     <g transform="translate(1494.883035 1223.248437)scale(0.1 -0.1)">
      <use xlink:href="#DejaVuSans-4f"/>
      <use xlink:href="#DejaVuSans-6d" x="78.710938"/>
      <use xlink:href="#DejaVuSans-61" x="176.123047"/>
      <use xlink:href="#DejaVuSans-6e" x="237.402344"/>
     </g>
    </g>
    <g id="patch_48">
     <path d="M 1466.883035 1237.926562 
L 1486.883035 1237.926562 
L 1486.883035 1230.926562 
L 1466.883035 1230.926562 
z
" style="fill: #4062fa"/>
    </g>
    <g id="text_87">
     <!-- Malaysia -->
     <g transform="translate(1494.883035 1237.926562)scale(0.1 -0.1)">
      <use xlink:href="#DejaVuSans-4d"/>
      <use xlink:href="#DejaVuSans-61" x="86.279297"/>
      <use xlink:href="#DejaVuSans-6c" x="147.558594"/>
      <use xlink:href="#DejaVuSans-61" x="175.341797"/>
      <use xlink:href="#DejaVuSans-79" x="236.621094"/>
      <use xlink:href="#DejaVuSans-73" x="295.800781"/>
      <use xlink:href="#DejaVuSans-69" x="347.900391"/>
      <use xlink:href="#DejaVuSans-61" x="375.683594"/>
     </g>
    </g>
    <g id="patch_49">
     <path d="M 1466.883035 1252.604687 
L 1486.883035 1252.604687 
L 1486.883035 1245.604687 
L 1466.883035 1245.604687 
z
" style="fill: #3473f8"/>
    </g>
    <g id="text_88">
     <!-- United Kingdom -->
     <g transform="translate(1494.883035 1252.604687)scale(0.1 -0.1)">
      <use xlink:href="#DejaVuSans-55"/>
      <use xlink:href="#DejaVuSans-6e" x="73.193359"/>
      <use xlink:href="#DejaVuSans-69" x="136.572266"/>
      <use xlink:href="#DejaVuSans-74" x="164.355469"/>
      <use xlink:href="#DejaVuSans-65" x="203.564453"/>
      <use xlink:href="#DejaVuSans-64" x="265.087891"/>
      <use xlink:href="#DejaVuSans-20" x="328.564453"/>
      <use xlink:href="#DejaVuSans-4b" x="360.351562"/>
      <use xlink:href="#DejaVuSans-69" x="425.927734"/>
      <use xlink:href="#DejaVuSans-6e" x="453.710938"/>
      <use xlink:href="#DejaVuSans-67" x="517.089844"/>
      <use xlink:href="#DejaVuSans-64" x="580.566406"/>
      <use xlink:href="#DejaVuSans-6f" x="644.042969"/>
      <use xlink:href="#DejaVuSans-6d" x="705.224609"/>
     </g>
    </g>
    <g id="patch_50">
     <path d="M 1466.883035 1267.282812 
L 1486.883035 1267.282812 
L 1486.883035 1260.282812 
L 1466.883035 1260.282812 
z
" style="fill: #2884f6"/>
    </g>
    <g id="text_89">
     <!-- Qatar -->
     <g transform="translate(1494.883035 1267.282812)scale(0.1 -0.1)">
      <use xlink:href="#DejaVuSans-51"/>
      <use xlink:href="#DejaVuSans-61" x="78.710938"/>
      <use xlink:href="#DejaVuSans-74" x="139.990234"/>
      <use xlink:href="#DejaVuSans-61" x="179.199219"/>
      <use xlink:href="#DejaVuSans-72" x="240.478516"/>
     </g>
    </g>
    <g id="patch_51">
     <path d="M 1466.883035 1281.960937 
L 1486.883035 1281.960937 
L 1486.883035 1274.960937 
L 1466.883035 1274.960937 
z
" style="fill: #1996f3"/>
    </g>
    <g id="text_90">
     <!-- Hong Kong -->
     <g transform="translate(1494.883035 1281.960937)scale(0.1 -0.1)">
      <use xlink:href="#DejaVuSans-48"/>
      <use xlink:href="#DejaVuSans-6f" x="75.195312"/>
      <use xlink:href="#DejaVuSans-6e" x="136.376953"/>
      <use xlink:href="#DejaVuSans-67" x="199.755859"/>
      <use xlink:href="#DejaVuSans-20" x="263.232422"/>
      <use xlink:href="#DejaVuSans-4b" x="295.019531"/>
      <use xlink:href="#DejaVuSans-6f" x="355.595703"/>
      <use xlink:href="#DejaVuSans-6e" x="416.777344"/>
      <use xlink:href="#DejaVuSans-67" x="480.15625"/>
     </g>
    </g>
    <g id="patch_52">
     <path d="M 1466.883035 1296.639062 
L 1486.883035 1296.639062 
L 1486.883035 1289.639062 
L 1466.883035 1289.639062 
z
" style="fill: #0ea5ef"/>
    </g>
    <g id="text_91">
     <!-- Germany -->
     <g transform="translate(1494.883035 1296.639062)scale(0.1 -0.1)">
      <use xlink:href="#DejaVuSans-47"/>
      <use xlink:href="#DejaVuSans-65" x="77.490234"/>
      <use xlink:href="#DejaVuSans-72" x="139.013672"/>
      <use xlink:href="#DejaVuSans-6d" x="178.376953"/>
      <use xlink:href="#DejaVuSans-61" x="275.789062"/>
      <use xlink:href="#DejaVuSans-6e" x="337.068359"/>
      <use xlink:href="#DejaVuSans-79" x="400.447266"/>
     </g>
    </g>
    <g id="patch_53">
     <path d="M 1466.883035 1311.317187 
L 1486.883035 1311.317187 
L 1486.883035 1304.317187 
L 1466.883035 1304.317187 
z
" style="fill: #00b5eb"/>
    </g>
    <g id="text_92">
     <!-- Bangladesh -->
     <g transform="translate(1494.883035 1311.317187)scale(0.1 -0.1)">
      <use xlink:href="#DejaVuSans-42"/>
      <use xlink:href="#DejaVuSans-61" x="68.603516"/>
      <use xlink:href="#DejaVuSans-6e" x="129.882812"/>
      <use xlink:href="#DejaVuSans-67" x="193.261719"/>
      <use xlink:href="#DejaVuSans-6c" x="256.738281"/>
      <use xlink:href="#DejaVuSans-61" x="284.521484"/>
      <use xlink:href="#DejaVuSans-64" x="345.800781"/>
      <use xlink:href="#DejaVuSans-65" x="409.277344"/>
      <use xlink:href="#DejaVuSans-73" x="470.800781"/>
      <use xlink:href="#DejaVuSans-68" x="522.900391"/>
     </g>
    </g>
    <g id="patch_54">
     <path d="M 1466.883035 1325.995312 
L 1486.883035 1325.995312 
L 1486.883035 1318.995312 
L 1466.883035 1318.995312 
z
" style="fill: #0dc2e8"/>
    </g>
    <g id="text_93">
     <!-- Kuwait -->
     <g transform="translate(1494.883035 1325.995312)scale(0.1 -0.1)">
      <use xlink:href="#DejaVuSans-4b"/>
      <use xlink:href="#DejaVuSans-75" x="60.576172"/>
      <use xlink:href="#DejaVuSans-77" x="123.955078"/>
      <use xlink:href="#DejaVuSans-61" x="205.742188"/>
      <use xlink:href="#DejaVuSans-69" x="267.021484"/>
      <use xlink:href="#DejaVuSans-74" x="294.804688"/>
     </g>
    </g>
    <g id="patch_55">
     <path d="M 1466.883035 1340.673437 
L 1486.883035 1340.673437 
L 1486.883035 1333.673437 
L 1466.883035 1333.673437 
z
" style="fill: #18cde4"/>
    </g>
    <g id="text_94">
     <!-- Nepal -->
     <g transform="translate(1494.883035 1340.673437)scale(0.1 -0.1)">
      <use xlink:href="#DejaVuSans-4e"/>
      <use xlink:href="#DejaVuSans-65" x="74.804688"/>
      <use xlink:href="#DejaVuSans-70" x="136.328125"/>
      <use xlink:href="#DejaVuSans-61" x="199.804688"/>
      <use xlink:href="#DejaVuSans-6c" x="261.083984"/>
     </g>
    </g>
    <g id="patch_56">
     <path d="M 1466.883035 1355.351562 
L 1486.883035 1355.351562 
L 1486.883035 1348.351562 
L 1466.883035 1348.351562 
z
" style="fill: #27dade"/>
    </g>
    <g id="text_95">
     <!-- Afghanistan -->
     <g transform="translate(1494.883035 1355.351562)scale(0.1 -0.1)">
      <use xlink:href="#DejaVuSans-41"/>
      <use xlink:href="#DejaVuSans-66" x="64.783203"/>
      <use xlink:href="#DejaVuSans-67" x="99.988281"/>
      <use xlink:href="#DejaVuSans-68" x="163.464844"/>
      <use xlink:href="#DejaVuSans-61" x="226.84375"/>
      <use xlink:href="#DejaVuSans-6e" x="288.123047"/>
      <use xlink:href="#DejaVuSans-69" x="351.501953"/>
      <use xlink:href="#DejaVuSans-73" x="379.285156"/>
      <use xlink:href="#DejaVuSans-74" x="431.384766"/>
      <use xlink:href="#DejaVuSans-61" x="470.59375"/>
      <use xlink:href="#DejaVuSans-6e" x="531.873047"/>
     </g>
    </g>
    <g id="patch_57">
     <path d="M 1466.883035 1370.029687 
L 1486.883035 1370.029687 
L 1486.883035 1363.029687 
L 1466.883035 1363.029687 
z
" style="fill: #32e3da"/>
    </g>
    <g id="text_96">
     <!-- China -->
     <g transform="translate(1494.883035 1370.029687)scale(0.1 -0.1)">
      <use xlink:href="#DejaVuSans-43"/>
      <use xlink:href="#DejaVuSans-68" x="69.824219"/>
      <use xlink:href="#DejaVuSans-69" x="133.203125"/>
      <use xlink:href="#DejaVuSans-6e" x="160.986328"/>
      <use xlink:href="#DejaVuSans-61" x="224.365234"/>
     </g>
    </g>
    <g id="patch_58">
     <path d="M 1466.883035 1384.707812 
L 1486.883035 1384.707812 
L 1486.883035 1377.707812 
L 1466.883035 1377.707812 
z
" style="fill: #40ecd4"/>
    </g>
    <g id="text_97">
     <!-- Mauritius -->
     <g transform="translate(1494.883035 1384.707812)scale(0.1 -0.1)">
      <use xlink:href="#DejaVuSans-4d"/>
      <use xlink:href="#DejaVuSans-61" x="86.279297"/>
      <use xlink:href="#DejaVuSans-75" x="147.558594"/>
      <use xlink:href="#DejaVuSans-72" x="210.9375"/>
      <use xlink:href="#DejaVuSans-69" x="252.050781"/>
      <use xlink:href="#DejaVuSans-74" x="279.833984"/>
      <use xlink:href="#DejaVuSans-69" x="319.042969"/>
      <use xlink:href="#DejaVuSans-75" x="346.826172"/>
      <use xlink:href="#DejaVuSans-73" x="410.205078"/>
     </g>
    </g>
    <g id="patch_59">
     <path d="M 1466.883035 1399.385937 
L 1486.883035 1399.385937 
L 1486.883035 1392.385937 
L 1466.883035 1392.385937 
z
" style="fill: #4df3ce"/>
    </g>
    <g id="text_98">
     <!-- Belgium -->
     <g transform="translate(1494.883035 1399.385937)scale(0.1 -0.1)">
      <use xlink:href="#DejaVuSans-42"/>
      <use xlink:href="#DejaVuSans-65" x="68.603516"/>
      <use xlink:href="#DejaVuSans-6c" x="130.126953"/>
      <use xlink:href="#DejaVuSans-67" x="157.910156"/>
      <use xlink:href="#DejaVuSans-69" x="221.386719"/>
      <use xlink:href="#DejaVuSans-75" x="249.169922"/>
      <use xlink:href="#DejaVuSans-6d" x="312.548828"/>
     </g>
    </g>
    <g id="patch_60">
     <path d="M 1466.883035 1414.064062 
L 1486.883035 1414.064062 
L 1486.883035 1407.064062 
L 1466.883035 1407.064062 
z
" style="fill: #58f8c9"/>
    </g>
    <g id="text_99">
     <!-- United States -->
     <g transform="translate(1494.883035 1414.064062)scale(0.1 -0.1)">
      <use xlink:href="#DejaVuSans-55"/>
      <use xlink:href="#DejaVuSans-6e" x="73.193359"/>
      <use xlink:href="#DejaVuSans-69" x="136.572266"/>
      <use xlink:href="#DejaVuSans-74" x="164.355469"/>
      <use xlink:href="#DejaVuSans-65" x="203.564453"/>
      <use xlink:href="#DejaVuSans-64" x="265.087891"/>
      <use xlink:href="#DejaVuSans-20" x="328.564453"/>
      <use xlink:href="#DejaVuSans-53" x="360.351562"/>
      <use xlink:href="#DejaVuSans-74" x="423.828125"/>
      <use xlink:href="#DejaVuSans-61" x="463.037109"/>
      <use xlink:href="#DejaVuSans-74" x="524.316406"/>
      <use xlink:href="#DejaVuSans-65" x="563.525391"/>
      <use xlink:href="#DejaVuSans-73" x="625.048828"/>
     </g>
    </g>
    <g id="patch_61">
     <path d="M 1466.883035 1428.742187 
L 1486.883035 1428.742187 
L 1486.883035 1421.742187 
L 1466.883035 1421.742187 
z
" style="fill: #66fcc2"/>
    </g>
    <g id="text_100">
     <!-- Japan -->
     <g transform="translate(1494.883035 1428.742187)scale(0.1 -0.1)">
      <use xlink:href="#DejaVuSans-4a"/>
      <use xlink:href="#DejaVuSans-61" x="29.492188"/>
      <use xlink:href="#DejaVuSans-70" x="90.771484"/>
      <use xlink:href="#DejaVuSans-61" x="154.248047"/>
      <use xlink:href="#DejaVuSans-6e" x="215.527344"/>
     </g>
    </g>
    <g id="patch_62">
     <path d="M 1466.883035 1443.420312 
L 1486.883035 1443.420312 
L 1486.883035 1436.420312 
L 1466.883035 1436.420312 
z
" style="fill: #72febb"/>
    </g>
    <g id="text_101">
     <!-- France -->
     <g transform="translate(1494.883035 1443.420312)scale(0.1 -0.1)">
      <use xlink:href="#DejaVuSans-46"/>
      <use xlink:href="#DejaVuSans-72" x="50.269531"/>
      <use xlink:href="#DejaVuSans-61" x="91.382812"/>
      <use xlink:href="#DejaVuSans-6e" x="152.662109"/>
      <use xlink:href="#DejaVuSans-63" x="216.041016"/>
      <use xlink:href="#DejaVuSans-65" x="271.021484"/>
     </g>
    </g>
    <g id="patch_63">
     <path d="M 1466.883035 1458.098437 
L 1486.883035 1458.098437 
L 1486.883035 1451.098437 
L 1466.883035 1451.098437 
z
" style="fill: #80ffb4"/>
    </g>
    <g id="text_102">
     <!-- Turkey -->
     <g transform="translate(1494.883035 1458.098437)scale(0.1 -0.1)">
      <use xlink:href="#DejaVuSans-54"/>
      <use xlink:href="#DejaVuSans-75" x="45.958984"/>
      <use xlink:href="#DejaVuSans-72" x="109.337891"/>
      <use xlink:href="#DejaVuSans-6b" x="150.451172"/>
      <use xlink:href="#DejaVuSans-65" x="204.736328"/>
      <use xlink:href="#DejaVuSans-79" x="266.259766"/>
     </g>
    </g>
    <g id="patch_64">
     <path d="M 1466.883035 1472.776562 
L 1486.883035 1472.776562 
L 1486.883035 1465.776562 
L 1466.883035 1465.776562 
z
" style="fill: #8cfead"/>
    </g>
    <g id="text_103">
     <!-- Switzerland -->
     <g transform="translate(1494.883035 1472.776562)scale(0.1 -0.1)">
      <use xlink:href="#DejaVuSans-53"/>
      <use xlink:href="#DejaVuSans-77" x="63.476562"/>
      <use xlink:href="#DejaVuSans-69" x="145.263672"/>
      <use xlink:href="#DejaVuSans-74" x="173.046875"/>
      <use xlink:href="#DejaVuSans-7a" x="212.255859"/>
      <use xlink:href="#DejaVuSans-65" x="264.746094"/>
      <use xlink:href="#DejaVuSans-72" x="326.269531"/>
      <use xlink:href="#DejaVuSans-6c" x="367.382812"/>
      <use xlink:href="#DejaVuSans-61" x="395.166016"/>
      <use xlink:href="#DejaVuSans-6e" x="456.445312"/>
      <use xlink:href="#DejaVuSans-64" x="519.824219"/>
     </g>
    </g>
    <g id="patch_65">
     <path d="M 1466.883035 1487.454687 
L 1486.883035 1487.454687 
L 1486.883035 1480.454687 
L 1466.883035 1480.454687 
z
" style="fill: #99fca6"/>
    </g>
    <g id="text_104">
     <!-- Kenya -->
     <g transform="translate(1494.883035 1487.454687)scale(0.1 -0.1)">
      <use xlink:href="#DejaVuSans-4b"/>
      <use xlink:href="#DejaVuSans-65" x="60.576172"/>
      <use xlink:href="#DejaVuSans-6e" x="122.099609"/>
      <use xlink:href="#DejaVuSans-79" x="185.478516"/>
      <use xlink:href="#DejaVuSans-61" x="244.658203"/>
     </g>
    </g>
    <g id="patch_66">
     <path d="M 1466.883035 1502.132812 
L 1486.883035 1502.132812 
L 1486.883035 1495.132812 
L 1466.883035 1495.132812 
z
" style="fill: #a6f89d"/>
    </g>
    <g id="text_105">
     <!-- Pakistan -->
     <g transform="translate(1494.883035 1502.132812)scale(0.1 -0.1)">
      <use xlink:href="#DejaVuSans-50"/>
      <use xlink:href="#DejaVuSans-61" x="55.802734"/>
      <use xlink:href="#DejaVuSans-6b" x="117.082031"/>
      <use xlink:href="#DejaVuSans-69" x="174.992188"/>
      <use xlink:href="#DejaVuSans-73" x="202.775391"/>
      <use xlink:href="#DejaVuSans-74" x="254.875"/>
      <use xlink:href="#DejaVuSans-61" x="294.083984"/>
      <use xlink:href="#DejaVuSans-6e" x="355.363281"/>
     </g>
    </g>
    <g id="patch_67">
     <path d="M 1466.883035 1516.810937 
L 1486.883035 1516.810937 
L 1486.883035 1509.810937 
L 1466.883035 1509.810937 
z
" style="fill: #b2f396"/>
    </g>
    <g id="text_106">
     <!-- South Korea -->
     <g transform="translate(1494.883035 1516.810937)scale(0.1 -0.1)">
      <use xlink:href="#DejaVuSans-53"/>
      <use xlink:href="#DejaVuSans-6f" x="63.476562"/>
      <use xlink:href="#DejaVuSans-75" x="124.658203"/>
      <use xlink:href="#DejaVuSans-74" x="188.037109"/>
      <use xlink:href="#DejaVuSans-68" x="227.246094"/>
      <use xlink:href="#DejaVuSans-20" x="290.625"/>
      <use xlink:href="#DejaVuSans-4b" x="322.412109"/>
      <use xlink:href="#DejaVuSans-6f" x="382.988281"/>
      <use xlink:href="#DejaVuSans-72" x="444.169922"/>
      <use xlink:href="#DejaVuSans-65" x="483.033203"/>
      <use xlink:href="#DejaVuSans-61" x="544.556641"/>
     </g>
    </g>
    <g id="patch_68">
     <path d="M 1466.883035 1531.489062 
L 1486.883035 1531.489062 
L 1486.883035 1524.489062 
L 1466.883035 1524.489062 
z
" style="fill: #c0eb8d"/>
    </g>
    <g id="text_107">
     <!-- Bhutan -->
     <g transform="translate(1494.883035 1531.489062)scale(0.1 -0.1)">
      <use xlink:href="#DejaVuSans-42"/>
      <use xlink:href="#DejaVuSans-68" x="68.603516"/>
      <use xlink:href="#DejaVuSans-75" x="131.982422"/>
      <use xlink:href="#DejaVuSans-74" x="195.361328"/>
      <use xlink:href="#DejaVuSans-61" x="234.570312"/>
      <use xlink:href="#DejaVuSans-6e" x="295.849609"/>
     </g>
    </g>
    <g id="patch_69">
     <path d="M 1466.883035 1546.167187 
L 1486.883035 1546.167187 
L 1486.883035 1539.167187 
L 1466.883035 1539.167187 
z
" style="fill: #cce385"/>
    </g>
    <g id="text_108">
     <!-- South Africa -->
     <g transform="translate(1494.883035 1546.167187)scale(0.1 -0.1)">
      <use xlink:href="#DejaVuSans-53"/>
      <use xlink:href="#DejaVuSans-6f" x="63.476562"/>
      <use xlink:href="#DejaVuSans-75" x="124.658203"/>
      <use xlink:href="#DejaVuSans-74" x="188.037109"/>
      <use xlink:href="#DejaVuSans-68" x="227.246094"/>
      <use xlink:href="#DejaVuSans-20" x="290.625"/>
      <use xlink:href="#DejaVuSans-41" x="322.412109"/>
      <use xlink:href="#DejaVuSans-66" x="387.195312"/>
      <use xlink:href="#DejaVuSans-72" x="422.400391"/>
      <use xlink:href="#DejaVuSans-69" x="463.513672"/>
      <use xlink:href="#DejaVuSans-63" x="491.296875"/>
      <use xlink:href="#DejaVuSans-61" x="546.277344"/>
     </g>
    </g>
    <g id="patch_70">
     <path d="M 1466.883035 1560.845312 
L 1486.883035 1560.845312 
L 1486.883035 1553.845312 
L 1466.883035 1553.845312 
z
" style="fill: #d9da7d"/>
    </g>
    <g id="text_109">
     <!-- Russia -->
     <g transform="translate(1494.883035 1560.845312)scale(0.1 -0.1)">
      <use xlink:href="#DejaVuSans-52"/>
      <use xlink:href="#DejaVuSans-75" x="64.982422"/>
      <use xlink:href="#DejaVuSans-73" x="128.361328"/>
      <use xlink:href="#DejaVuSans-73" x="180.460938"/>
      <use xlink:href="#DejaVuSans-69" x="232.560547"/>
      <use xlink:href="#DejaVuSans-61" x="260.34375"/>
     </g>
    </g>
    <g id="patch_71">
     <path d="M 1466.883035 1575.523438 
L 1486.883035 1575.523438 
L 1486.883035 1568.523438 
L 1466.883035 1568.523438 
z
" style="fill: #e6cd73"/>
    </g>
    <g id="text_110">
     <!-- Taiwan -->
     <g transform="translate(1494.883035 1575.523438)scale(0.1 -0.1)">
      <use xlink:href="#DejaVuSans-54"/>
      <use xlink:href="#DejaVuSans-61" x="44.583984"/>
      <use xlink:href="#DejaVuSans-69" x="105.863281"/>
      <use xlink:href="#DejaVuSans-77" x="133.646484"/>
      <use xlink:href="#DejaVuSans-61" x="215.433594"/>
      <use xlink:href="#DejaVuSans-6e" x="276.712891"/>
     </g>
    </g>
    <g id="patch_72">
     <path d="M 1466.883035 1590.201562 
L 1486.883035 1590.201562 
L 1486.883035 1583.201562 
L 1466.883035 1583.201562 
z
" style="fill: #f2c26b"/>
    </g>
    <g id="text_111">
     <!-- Iran -->
     <g transform="translate(1494.883035 1590.201562)scale(0.1 -0.1)">
      <use xlink:href="#DejaVuSans-49"/>
      <use xlink:href="#DejaVuSans-72" x="29.492188"/>
      <use xlink:href="#DejaVuSans-61" x="70.605469"/>
      <use xlink:href="#DejaVuSans-6e" x="131.884766"/>
     </g>
    </g>
    <g id="patch_73">
     <path d="M 1466.883035 1604.879688 
L 1486.883035 1604.879688 
L 1486.883035 1597.879688 
L 1466.883035 1597.879688 
z
" style="fill: #ffb360"/>
    </g>
    <g id="text_112">
     <!-- Uzbekistan -->
     <g transform="translate(1494.883035 1604.879688)scale(0.1 -0.1)">
      <use xlink:href="#DejaVuSans-55"/>
      <use xlink:href="#DejaVuSans-7a" x="73.193359"/>
      <use xlink:href="#DejaVuSans-62" x="125.683594"/>
      <use xlink:href="#DejaVuSans-65" x="189.160156"/>
      <use xlink:href="#DejaVuSans-6b" x="250.683594"/>
      <use xlink:href="#DejaVuSans-69" x="308.59375"/>
      <use xlink:href="#DejaVuSans-73" x="336.376953"/>
      <use xlink:href="#DejaVuSans-74" x="388.476562"/>
      <use xlink:href="#DejaVuSans-61" x="427.685547"/>
      <use xlink:href="#DejaVuSans-6e" x="488.964844"/>
     </g>
    </g>
    <g id="patch_74">
     <path d="M 1466.883035 1619.557812 
L 1486.883035 1619.557812 
L 1486.883035 1612.557812 
L 1466.883035 1612.557812 
z
" style="fill: #ffa558"/>
    </g>
    <g id="text_113">
     <!-- Egypt -->
     <g transform="translate(1494.883035 1619.557812)scale(0.1 -0.1)">
      <use xlink:href="#DejaVuSans-45"/>
      <use xlink:href="#DejaVuSans-67" x="63.183594"/>
      <use xlink:href="#DejaVuSans-79" x="126.660156"/>
      <use xlink:href="#DejaVuSans-70" x="185.839844"/>
      <use xlink:href="#DejaVuSans-74" x="249.316406"/>
     </g>
    </g>
    <g id="patch_75">
     <path d="M 1466.883035 1634.235938 
L 1486.883035 1634.235938 
L 1486.883035 1627.235938 
L 1466.883035 1627.235938 
z
" style="fill: #ff964f"/>
    </g>
    <g id="text_114">
     <!-- Italy -->
     <g transform="translate(1494.883035 1634.235938)scale(0.1 -0.1)">
      <use xlink:href="#DejaVuSans-49"/>
      <use xlink:href="#DejaVuSans-74" x="29.492188"/>
      <use xlink:href="#DejaVuSans-61" x="68.701172"/>
      <use xlink:href="#DejaVuSans-6c" x="129.980469"/>
      <use xlink:href="#DejaVuSans-79" x="157.763672"/>
     </g>
    </g>
    <g id="patch_76">
     <path d="M 1466.883035 1648.914062 
L 1486.883035 1648.914062 
L 1486.883035 1641.914062 
L 1466.883035 1641.914062 
z
" style="fill: #ff8444"/>
    </g>
    <g id="text_115">
     <!-- Austria -->
     <g transform="translate(1494.883035 1648.914062)scale(0.1 -0.1)">
      <use xlink:href="#DejaVuSans-41"/>
      <use xlink:href="#DejaVuSans-75" x="68.408203"/>
      <use xlink:href="#DejaVuSans-73" x="131.787109"/>
      <use xlink:href="#DejaVuSans-74" x="183.886719"/>
      <use xlink:href="#DejaVuSans-72" x="223.095703"/>
      <use xlink:href="#DejaVuSans-69" x="264.208984"/>
      <use xlink:href="#DejaVuSans-61" x="291.992188"/>
     </g>
    </g>
    <g id="patch_77">
     <path d="M 1466.883035 1663.592188 
L 1486.883035 1663.592188 
L 1486.883035 1656.592188 
L 1466.883035 1656.592188 
z
" style="fill: #ff733b"/>
    </g>
    <g id="text_116">
     <!-- Australia -->
     <g transform="translate(1494.883035 1663.592188)scale(0.1 -0.1)">
      <use xlink:href="#DejaVuSans-41"/>
      <use xlink:href="#DejaVuSans-75" x="68.408203"/>
      <use xlink:href="#DejaVuSans-73" x="131.787109"/>
      <use xlink:href="#DejaVuSans-74" x="183.886719"/>
      <use xlink:href="#DejaVuSans-72" x="223.095703"/>
      <use xlink:href="#DejaVuSans-61" x="264.208984"/>
      <use xlink:href="#DejaVuSans-6c" x="325.488281"/>
      <use xlink:href="#DejaVuSans-69" x="353.271484"/>
      <use xlink:href="#DejaVuSans-61" x="381.054688"/>
     </g>
    </g>
    <g id="patch_78">
     <path d="M 1466.883035 1678.270313 
L 1486.883035 1678.270313 
L 1486.883035 1671.270313 
L 1466.883035 1671.270313 
z
" style="fill: #ff5f30"/>
    </g>
    <g id="text_117">
     <!-- Finland -->
     <g transform="translate(1494.883035 1678.270313)scale(0.1 -0.1)">
      <use xlink:href="#DejaVuSans-46"/>
      <use xlink:href="#DejaVuSans-69" x="50.269531"/>
      <use xlink:href="#DejaVuSans-6e" x="78.052734"/>
      <use xlink:href="#DejaVuSans-6c" x="141.431641"/>
      <use xlink:href="#DejaVuSans-61" x="169.214844"/>
      <use xlink:href="#DejaVuSans-6e" x="230.494141"/>
      <use xlink:href="#DejaVuSans-64" x="293.873047"/>
     </g>
    </g>
    <g id="patch_79">
     <path d="M 1466.883035 1692.948438 
L 1486.883035 1692.948438 
L 1486.883035 1685.948438 
L 1466.883035 1685.948438 
z
" style="fill: #ff4d27"/>
    </g>
    <g id="text_118">
     <!-- Israel -->
     <g transform="translate(1494.883035 1692.948438)scale(0.1 -0.1)">
      <use xlink:href="#DejaVuSans-49"/>
      <use xlink:href="#DejaVuSans-73" x="29.492188"/>
      <use xlink:href="#DejaVuSans-72" x="81.591797"/>
      <use xlink:href="#DejaVuSans-61" x="122.705078"/>
      <use xlink:href="#DejaVuSans-65" x="183.984375"/>
      <use xlink:href="#DejaVuSans-6c" x="245.507812"/>
     </g>
    </g>
    <g id="patch_80">
     <path d="M 1466.883035 1707.626563 
L 1486.883035 1707.626563 
L 1486.883035 1700.626563 
L 1466.883035 1700.626563 
z
" style="fill: #ff3b1e"/>
    </g>
    <g id="text_119">
     <!-- Burma -->
     <g transform="translate(1494.883035 1707.626563)scale(0.1 -0.1)">
      <use xlink:href="#DejaVuSans-42"/>
      <use xlink:href="#DejaVuSans-75" x="68.603516"/>
      <use xlink:href="#DejaVuSans-72" x="131.982422"/>
      <use xlink:href="#DejaVuSans-6d" x="171.345703"/>
      <use xlink:href="#DejaVuSans-61" x="268.757812"/>
     </g>
    </g>
    <g id="patch_81">
     <path d="M 1466.883035 1722.304688 
L 1486.883035 1722.304688 
L 1486.883035 1715.304688 
L 1466.883035 1715.304688 
z
" style="fill: #ff2613"/>
    </g>
    <g id="text_120">
     <!-- Tajikistan -->
     <g transform="translate(1494.883035 1722.304688)scale(0.1 -0.1)">
      <use xlink:href="#DejaVuSans-54"/>
      <use xlink:href="#DejaVuSans-61" x="44.583984"/>
      <use xlink:href="#DejaVuSans-6a" x="105.863281"/>
      <use xlink:href="#DejaVuSans-69" x="133.646484"/>
      <use xlink:href="#DejaVuSans-6b" x="161.429688"/>
      <use xlink:href="#DejaVuSans-69" x="219.339844"/>
      <use xlink:href="#DejaVuSans-73" x="247.123047"/>
      <use xlink:href="#DejaVuSans-74" x="299.222656"/>
      <use xlink:href="#DejaVuSans-61" x="338.431641"/>
      <use xlink:href="#DejaVuSans-6e" x="399.710938"/>
     </g>
    </g>
    <g id="patch_82">
     <path d="M 1466.883035 1736.982813 
L 1486.883035 1736.982813 
L 1486.883035 1729.982813 
L 1466.883035 1729.982813 
z
" style="fill: #ff1309"/>
    </g>
    <g id="text_121">
     <!-- Reunion -->
     <g transform="translate(1494.883035 1736.982813)scale(0.1 -0.1)">
      <use xlink:href="#DejaVuSans-52"/>
      <use xlink:href="#DejaVuSans-65" x="64.982422"/>
      <use xlink:href="#DejaVuSans-75" x="126.505859"/>
      <use xlink:href="#DejaVuSans-6e" x="189.884766"/>
      <use xlink:href="#DejaVuSans-69" x="253.263672"/>
      <use xlink:href="#DejaVuSans-6f" x="281.046875"/>
      <use xlink:href="#DejaVuSans-6e" x="342.228516"/>
     </g>
    </g>
   </g>
  </g>
 </g>
</svg>
