<?xml version="1.0" encoding="utf-8"?>
<!-- Generator: Adobe Illustrator 19.2.1, SVG Export Plug-In . SVG Version: 6.00 Build 0)  -->
<svg version="1.1" id="layer" xmlns="http://www.w3.org/2000/svg" xmlns:xlink="http://www.w3.org/1999/xlink" x="0px" y="0px"
	 viewBox="0 0 652 652" style="enable-background:new 0 0 652 652;" xml:space="preserve">
<style type="text/css">
	.st0{fill:#10284C;}
	.st1{fill:#FFFFFF;}
	.st2{fill:#ED5338;}
</style>
<rect x="26.8" y="162.8" class="st0" width="600" height="325.8"/>
<path class="st1" d="M141.5,352.9h12.9v58.8h-12.9V352.9z M169.8,352.9v58.8h42.3V400h-29.3v-47.1H169.8z M221.6,352.9v58.8h42.3
	V400h-29.3v-47.1H221.6z M273.6,411.7h12.9v-58.8h-12.9V411.7z M341.4,352.9v36.2l-27.6-36.2h-11.9v58.8h12.8v-37.4l28.5,37.4h11
	v-58.8H341.4z M397.6,412.7c18.1,0,31.3-13.7,31.3-30.4v-0.2c0-16.7-13-30.2-31.2-30.2c-18.2,0-31.3,13.7-31.3,30.4v0.2
	C366.4,399.2,379.4,412.7,397.6,412.7 M415.4,382.5c0,10.1-7.2,18.3-17.6,18.3c-10.4,0-17.8-8.4-17.8-18.5v-0.2
	c0-10.1,7.2-18.3,17.6-18.3c10.4,0,17.8,8.4,17.8,18.5V382.5z M441.5,411.7h12.9v-58.8h-12.9V411.7z M490.5,412.6
	c12.7,0,21.6-6.6,21.6-18.2v-0.2c0-10.3-6.7-14.5-18.7-17.6c-10.2-2.6-12.7-3.9-12.7-7.7v-0.2c0-2.9,2.6-5.1,7.6-5.1
	c5,0,10.1,2.2,15.3,5.8l6.7-9.7c-6-4.8-13.3-7.5-21.8-7.5c-12,0-20.6,7.1-20.6,17.7v0.2c0,11.7,7.6,15,19.5,18
	c9.8,2.5,11.8,4.2,11.8,7.5v0.2c0,3.4-3.2,5.5-8.5,5.5c-6.7,0-12.3-2.8-17.6-7.1l-7.6,9.2C472.6,409.5,481.5,412.6,490.5,412.6
	 M342.3,260.4v37.2h12.4v21.7h-55.7v-21.7h12.4v-37.2h-12.4v-21.7h55.7v21.7H342.3z M342.3,300.7c-1.7,0-3.1-1.4-3.1-3.1v-37.2
	c0-1.7,1.4-3.1,3.1-3.1h9.3v-15.5H302v15.5h9.3c1.7,0,3.1,1.4,3.1,3.1v37.2c0,1.7-1.4,3.1-3.1,3.1H302v15.5h49.6v-15.5H342.3"/>
<path class="st2" d="M342.3,257.3h9.3v-15.5H302v15.5h9.3c1.7,0,3.1,1.4,3.1,3.1v37.2c0,1.7-1.4,3.1-3.1,3.1H302v15.5h49.6v-15.5
	h-9.3c-1.7,0-3.1-1.4-3.1-3.1v-37.2C339.2,258.7,340.6,257.3,342.3,257.3"/>
</svg>
