<?xml version="1.0" encoding="utf-8" standalone="no"?>
<!DOCTYPE svg PUBLIC "-//W3C//DTD SVG 1.1//EN"
  "http://www.w3.org/Graphics/SVG/1.1/DTD/svg11.dtd">
<svg xmlns:xlink="http://www.w3.org/1999/xlink" width="2880pt" height="2880pt" viewBox="0 0 2880 2880" xmlns="http://www.w3.org/2000/svg" version="1.1">
 <metadata>
  <rdf:RDF xmlns:dc="http://purl.org/dc/elements/1.1/" xmlns:cc="http://creativecommons.org/ns#" xmlns:rdf="http://www.w3.org/1999/02/22-rdf-syntax-ns#">
   <cc:Work>
    <dc:type rdf:resource="http://purl.org/dc/dcmitype/StillImage"/>
    <dc:date>2022-04-29T14:42:53.046671</dc:date>
    <dc:format>image/svg+xml</dc:format>
    <dc:creator>
     <cc:Agent>
      <dc:title>Matplotlib v3.5.0, https://matplotlib.org/</dc:title>
     </cc:Agent>
    </dc:creator>
   </cc:Work>
  </rdf:RDF>
 </metadata>
 <defs>
  <style type="text/css">*{stroke-linejoin: round; stroke-linecap: butt}</style>
 </defs>
 <g id="figure_1">
  <g id="patch_1">
   <path d="M 0 2880 
L 2880 2880 
L 2880 0 
L 0 0 
L 0 2880 
z
" style="fill: none"/>
  </g>
  <g id="axes_1">
   <g id="patch_2">
    <path d="M 130.368684 1336.030539 
C 113.466898 1431.885332 119.042855 1530.367804 146.656301 1623.702199 
C 174.269748 1717.036594 223.174294 1802.700087 289.508644 1873.929054 
C 355.842995 1945.15802 437.814135 2000.027144 528.949974 2034.204194 
C 620.085812 2068.381243 717.92295 2080.942414 814.736585 2070.895929 
L 749.812989 1445.255283 
L 130.368684 1336.030539 
z
" style="fill: #8000ff"/>
   </g>
   <g id="patch_3">
    <path d="M 814.736585 2070.895929 
C 919.47739 2060.02683 1019.830902 2023.027202 1106.559179 1963.303009 
C 1193.287457 1903.578815 1263.645028 1823.020686 1311.155196 1729.044321 
L 749.812989 1445.255283 
L 814.736585 2070.895929 
z
" style="fill: #7019ff"/>
   </g>
   <g id="patch_4">
    <path d="M 1311.155196 1729.044321 
C 1351.481418 1649.277988 1374.346193 1561.824746 1378.221672 1472.528315 
C 1382.09715 1383.231883 1366.895045 1294.126533 1333.631177 1211.166379 
L 749.812989 1445.255283 
L 1311.155196 1729.044321 
z
" style="fill: #6032fe"/>
   </g>
   <g id="patch_5">
    <path d="M 1333.631177 1211.166379 
C 1315.579168 1166.144633 1292.379747 1123.361765 1264.495835 1083.671462 
C 1236.611922 1043.981159 1204.230225 1007.649182 1167.996884 975.400496 
L 749.812989 1445.255283 
L 1333.631177 1211.166379 
z
" style="fill: #504afc"/>
   </g>
   <g id="patch_6">
    <path d="M 1167.996884 975.400496 
C 1134.707129 945.771683 1098.362587 919.764518 1059.575983 897.817452 
C 1020.78938 875.870385 979.779912 858.107448 937.238952 844.828102 
L 749.812989 1445.255283 
L 1167.996884 975.400496 
z
" style="fill: #4062fa"/>
   </g>
   <g id="patch_7">
    <path d="M 937.238952 844.828102 
C 899.710597 833.113462 861.166459 824.943018 822.112786 820.424081 
C 783.059113 815.905144 743.667637 815.057586 704.455736 817.89254 
L 749.812989 1445.255283 
L 937.238952 844.828102 
z
" style="fill: #3079f7"/>
   </g>
   <g id="patch_8">
    <path d="M 704.455736 817.89254 
C 682.246673 819.498217 660.138532 822.282086 638.224706 826.232386 
C 616.310879 830.182686 594.622268 835.293847 573.250493 841.544278 
L 749.812989 1445.255283 
L 704.455736 817.89254 
z
" style="fill: #208ef4"/>
   </g>
   <g id="patch_9">
    <path d="M 573.250493 841.544278 
C 558.16631 845.955828 543.252763 850.931163 528.541256 856.459807 
C 513.829748 861.988452 499.330614 868.066522 485.074382 874.681219 
L 749.812989 1445.255283 
L 573.250493 841.544278 
z
" style="fill: #10a2f0"/>
   </g>
   <g id="patch_10">
    <path d="M 485.074382 874.681219 
C 473.194615 880.19327 461.489891 886.074995 449.97733 892.317791 
C 438.464768 898.560588 427.149984 905.161413 416.049523 912.110611 
L 749.812989 1445.255283 
L 485.074382 874.681219 
z
" style="fill: #00b5eb"/>
   </g>
   <g id="patch_11">
    <path d="M 416.049523 912.110611 
C 408.279523 916.974849 400.616787 922.008364 393.066808 927.207549 
C 385.516829 932.406734 378.081411 937.770347 370.765883 943.294544 
L 749.812989 1445.255283 
L 416.049523 912.110611 
z
" style="fill: #10c6e6"/>
   </g>
   <g id="patch_12">
    <path d="M 370.765883 943.294544 
C 364.495495 948.02952 358.314381 952.881573 352.225795 957.848148 
C 346.137208 962.814723 340.142218 967.894948 334.243981 973.086148 
L 749.812989 1445.255283 
L 370.765883 943.294544 
z
" style="fill: #20d5e1"/>
   </g>
   <g id="patch_13">
    <path d="M 334.243981 973.086148 
C 329.328828 977.412109 324.481523 981.814555 319.703838 986.291875 
C 314.926153 990.769195 310.21867 995.320844 305.583112 999.945157 
L 749.812989 1445.255283 
L 334.243981 973.086148 
z
" style="fill: #30e1da"/>
   </g>
   <g id="patch_14">
    <path d="M 305.583112 999.945157 
C 301.874693 1003.64458 298.21263 1007.390183 294.59778 1011.181089 
C 290.982931 1014.971995 287.415577 1018.807908 283.896553 1022.687931 
L 749.812989 1445.255283 
L 305.583112 999.945157 
z
" style="fill: #40ecd4"/>
   </g>
   <g id="patch_15">
    <path d="M 283.896553 1022.687931 
C 280.37753 1026.567954 276.907111 1030.491783 273.486109 1034.458502 
C 270.065107 1038.42522 266.69379 1042.434517 263.372945 1046.485455 
L 749.812989 1445.255283 
L 283.896553 1022.687931 
z
" style="fill: #50f4cc"/>
   </g>
   <g id="patch_16">
    <path d="M 263.372945 1046.485455 
C 260.052101 1050.536392 256.781988 1054.628655 253.563374 1058.761284 
C 250.344759 1062.893913 247.177893 1067.066586 244.063516 1071.278328 
L 749.812989 1445.255283 
L 263.372945 1046.485455 
z
" style="fill: #60fac5"/>
   </g>
   <g id="patch_17">
    <path d="M 244.063516 1071.278328 
C 240.94914 1075.490069 237.887496 1079.74055 234.879302 1084.028775 
C 231.871108 1088.316999 228.916598 1092.642634 226.016463 1097.004666 
L 749.812989 1445.255283 
L 244.063516 1071.278328 
z
" style="fill: #70febc"/>
   </g>
   <g id="patch_18">
    <path d="M 226.016463 1097.004666 
C 223.116329 1101.366699 220.270796 1105.764788 217.480531 1110.197905 
C 214.690266 1114.631022 211.955487 1119.098821 209.276833 1123.600256 
L 749.812989 1445.255283 
L 226.016463 1097.004666 
z
" style="fill: #80ffb4"/>
   </g>
   <g id="patch_19">
    <path d="M 209.276833 1123.600256 
C 206.598179 1128.101691 203.97586 1132.636411 201.410489 1137.203355 
C 198.845118 1141.770299 196.336895 1146.369111 193.886408 1150.998713 
L 749.812989 1445.255283 
L 209.276833 1123.600256 
z
" style="fill: #90feab"/>
   </g>
   <g id="patch_20">
    <path d="M 193.886408 1150.998713 
C 192.048553 1154.470895 190.243268 1157.96022 188.470791 1161.466226 
C 186.698313 1164.972233 184.958721 1168.494769 183.252244 1172.03337 
L 749.812989 1445.255283 
L 193.886408 1150.998713 
z
" style="fill: #a0faa1"/>
   </g>
   <g id="patch_21">
    <path d="M 183.252244 1172.03337 
C 181.545766 1175.571971 179.872478 1179.126481 178.232599 1182.696433 
C 176.59272 1186.266385 174.986323 1189.851623 173.413619 1193.451673 
L 749.812989 1445.255283 
L 183.252244 1172.03337 
z
" style="fill: #b0f397"/>
   </g>
   <g id="patch_22">
    <path d="M 173.413619 1193.451673 
C 171.840915 1197.051723 170.301972 1200.666429 168.796995 1204.295313 
C 167.292018 1207.924198 165.821071 1211.567103 164.384349 1215.223548 
L 749.812989 1445.255283 
L 173.413619 1193.451673 
z
" style="fill: #c0eb8d"/>
   </g>
   <g id="patch_23">
    <path d="M 164.384349 1215.223548 
C 163.426538 1217.661168 162.483961 1220.104746 161.556673 1222.55414 
C 160.629386 1225.003534 159.717405 1227.458695 158.820786 1229.919481 
L 749.812989 1445.255283 
L 164.384349 1215.223548 
z
" style="fill: #d0e082"/>
   </g>
   <g id="patch_24">
    <path d="M 158.820786 1229.919481 
C 157.924166 1232.380266 157.042925 1234.846628 156.177113 1237.318421 
C 155.311301 1239.790215 154.460936 1242.267391 153.626067 1244.749807 
L 749.812989 1445.255283 
L 158.820786 1229.919481 
z
" style="fill: #e0d377"/>
   </g>
   <g id="patch_25">
    <path d="M 153.626067 1244.749807 
C 152.791198 1247.232222 151.971842 1249.719828 151.168046 1252.212478 
C 150.364251 1254.705128 149.576031 1257.202775 148.803434 1259.705271 
L 749.812989 1445.255283 
L 153.626067 1244.749807 
z
" style="fill: #f0c46c"/>
   </g>
   <g id="patch_26">
    <path d="M 148.803434 1259.705271 
C 148.030837 1262.207767 147.273878 1264.715064 146.5326 1267.227015 
C 145.791322 1269.738966 145.06574 1272.255523 144.355898 1274.776538 
L 749.812989 1445.255283 
L 148.803434 1259.705271 
z
" style="fill: #ffb360"/>
   </g>
   <g id="patch_27">
    <path d="M 144.355898 1274.776538 
C 143.646055 1277.297553 142.951964 1279.822976 142.273667 1282.352661 
C 141.59537 1284.882346 140.932879 1287.416243 140.286233 1289.954203 
L 749.812989 1445.255283 
L 144.355898 1274.776538 
z
" style="fill: #ffa055"/>
   </g>
   <g id="patch_28">
    <path d="M 140.286233 1289.954203 
C 139.962911 1291.22318 139.643552 1292.493163 139.328162 1293.764135 
C 139.012772 1295.035106 138.701351 1296.30706 138.393905 1297.579977 
L 749.812989 1445.255283 
L 140.286233 1289.954203 
z
" style="fill: #ff8c49"/>
   </g>
   <g id="patch_29">
    <path d="M 138.393905 1297.579977 
C 138.086459 1298.852893 137.782989 1300.126767 137.483499 1301.401579 
C 137.18401 1302.676391 136.888502 1303.952135 136.59698 1305.228793 
L 749.812989 1445.255283 
L 138.393905 1297.579977 
z
" style="fill: #ff763d"/>
   </g>
   <g id="patch_30">
    <path d="M 136.59698 1305.228793 
C 136.305458 1306.50545 136.017923 1307.783015 135.734381 1309.061469 
C 135.450838 1310.339922 135.171289 1311.619258 134.895736 1312.899457 
L 749.812989 1445.255283 
L 136.59698 1305.228793 
z
" style="fill: #ff5f30"/>
   </g>
   <g id="patch_31">
    <path d="M 134.895736 1312.899457 
C 134.620184 1314.179657 134.34863 1315.460714 134.081079 1316.742609 
C 133.813528 1318.024505 133.549981 1319.307233 133.290441 1320.590774 
L 749.812989 1445.255283 
L 134.895736 1312.899457 
z
" style="fill: #ff4724"/>
   </g>
   <g id="patch_32">
    <path d="M 133.290441 1320.590774 
C 133.030901 1321.874316 132.77537 1323.158665 132.523852 1324.443802 
C 132.272334 1325.72894 132.02483 1327.01486 131.781344 1328.301543 
L 749.812989 1445.255283 
L 133.290441 1320.590774 
z
" style="fill: #ff2f18"/>
   </g>
   <g id="patch_33">
    <path d="M 131.781344 1328.301543 
C 131.537857 1329.588226 131.298389 1330.875667 131.062943 1332.163846 
C 130.827498 1333.452025 130.596076 1334.740936 130.36868 1336.03056 
L 749.812989 1445.255283 
L 131.781344 1328.301543 
z
" style="fill: #ff160b"/>
   </g>
   <g id="matplotlib.axis_1"/>
   <g id="matplotlib.axis_2"/>
   <g id="text_1">
    <!-- Italy -->
    <g transform="translate(230.916624 1918.394109)scale(0.0579 -0.0579)">
     <defs>
      <path id="DejaVuSans-49" d="M 628 4666 
L 1259 4666 
L 1259 0 
L 628 0 
L 628 4666 
z
" transform="scale(0.015625)"/>
      <path id="DejaVuSans-74" d="M 1172 4494 
L 1172 3500 
L 2356 3500 
L 2356 3053 
L 1172 3053 
L 1172 1153 
Q 1172 725 1289 603 
Q 1406 481 1766 481 
L 2356 481 
L 2356 0 
L 1766 0 
Q 1100 0 847 248 
Q 594 497 594 1153 
L 594 3053 
L 172 3053 
L 172 3500 
L 594 3500 
L 594 4494 
L 1172 4494 
z
" transform="scale(0.015625)"/>
      <path id="DejaVuSans-61" d="M 2194 1759 
Q 1497 1759 1228 1600 
Q 959 1441 959 1056 
Q 959 750 1161 570 
Q 1363 391 1709 391 
Q 2188 391 2477 730 
Q 2766 1069 2766 1631 
L 2766 1759 
L 2194 1759 
z
M 3341 1997 
L 3341 0 
L 2766 0 
L 2766 531 
Q 2569 213 2275 61 
Q 1981 -91 1556 -91 
Q 1019 -91 701 211 
Q 384 513 384 1019 
Q 384 1609 779 1909 
Q 1175 2209 1959 2209 
L 2766 2209 
L 2766 2266 
Q 2766 2663 2505 2880 
Q 2244 3097 1772 3097 
Q 1472 3097 1187 3025 
Q 903 2953 641 2809 
L 641 3341 
Q 956 3463 1253 3523 
Q 1550 3584 1831 3584 
Q 2591 3584 2966 3190 
Q 3341 2797 3341 1997 
z
" transform="scale(0.015625)"/>
      <path id="DejaVuSans-6c" d="M 603 4863 
L 1178 4863 
L 1178 0 
L 603 0 
L 603 4863 
z
" transform="scale(0.015625)"/>
      <path id="DejaVuSans-79" d="M 2059 -325 
Q 1816 -950 1584 -1140 
Q 1353 -1331 966 -1331 
L 506 -1331 
L 506 -850 
L 844 -850 
Q 1081 -850 1212 -737 
Q 1344 -625 1503 -206 
L 1606 56 
L 191 3500 
L 800 3500 
L 1894 763 
L 2988 3500 
L 3597 3500 
L 2059 -325 
z
" transform="scale(0.015625)"/>
     </defs>
     <use xlink:href="#DejaVuSans-49"/>
     <use xlink:href="#DejaVuSans-74" x="29.492188"/>
     <use xlink:href="#DejaVuSans-61" x="68.701172"/>
     <use xlink:href="#DejaVuSans-6c" x="129.980469"/>
     <use xlink:href="#DejaVuSans-79" x="157.763672"/>
    </g>
   </g>
   <g id="text_2">
    <!-- 29% -->
    <g transform="translate(467.195792 1704.057223)scale(0.0579 -0.0579)">
     <defs>
      <path id="DejaVuSans-32" d="M 1228 531 
L 3431 531 
L 3431 0 
L 469 0 
L 469 531 
Q 828 903 1448 1529 
Q 2069 2156 2228 2338 
Q 2531 2678 2651 2914 
Q 2772 3150 2772 3378 
Q 2772 3750 2511 3984 
Q 2250 4219 1831 4219 
Q 1534 4219 1204 4116 
Q 875 4013 500 3803 
L 500 4441 
Q 881 4594 1212 4672 
Q 1544 4750 1819 4750 
Q 2544 4750 2975 4387 
Q 3406 4025 3406 3419 
Q 3406 3131 3298 2873 
Q 3191 2616 2906 2266 
Q 2828 2175 2409 1742 
Q 1991 1309 1228 531 
z
" transform="scale(0.015625)"/>
      <path id="DejaVuSans-39" d="M 703 97 
L 703 672 
Q 941 559 1184 500 
Q 1428 441 1663 441 
Q 2288 441 2617 861 
Q 2947 1281 2994 2138 
Q 2813 1869 2534 1725 
Q 2256 1581 1919 1581 
Q 1219 1581 811 2004 
Q 403 2428 403 3163 
Q 403 3881 828 4315 
Q 1253 4750 1959 4750 
Q 2769 4750 3195 4129 
Q 3622 3509 3622 2328 
Q 3622 1225 3098 567 
Q 2575 -91 1691 -91 
Q 1453 -91 1209 -44 
Q 966 3 703 97 
z
M 1959 2075 
Q 2384 2075 2632 2365 
Q 2881 2656 2881 3163 
Q 2881 3666 2632 3958 
Q 2384 4250 1959 4250 
Q 1534 4250 1286 3958 
Q 1038 3666 1038 3163 
Q 1038 2656 1286 2365 
Q 1534 2075 1959 2075 
z
" transform="scale(0.015625)"/>
      <path id="DejaVuSans-25" d="M 4653 2053 
Q 4381 2053 4226 1822 
Q 4072 1591 4072 1178 
Q 4072 772 4226 539 
Q 4381 306 4653 306 
Q 4919 306 5073 539 
Q 5228 772 5228 1178 
Q 5228 1588 5073 1820 
Q 4919 2053 4653 2053 
z
M 4653 2450 
Q 5147 2450 5437 2106 
Q 5728 1763 5728 1178 
Q 5728 594 5436 251 
Q 5144 -91 4653 -91 
Q 4153 -91 3862 251 
Q 3572 594 3572 1178 
Q 3572 1766 3864 2108 
Q 4156 2450 4653 2450 
z
M 1428 4353 
Q 1159 4353 1004 4120 
Q 850 3888 850 3481 
Q 850 3069 1003 2837 
Q 1156 2606 1428 2606 
Q 1700 2606 1854 2837 
Q 2009 3069 2009 3481 
Q 2009 3884 1853 4118 
Q 1697 4353 1428 4353 
z
M 4250 4750 
L 4750 4750 
L 1831 -91 
L 1331 -91 
L 4250 4750 
z
M 1428 4750 
Q 1922 4750 2215 4408 
Q 2509 4066 2509 3481 
Q 2509 2891 2217 2550 
Q 1925 2209 1428 2209 
Q 931 2209 642 2551 
Q 353 2894 353 3481 
Q 353 4063 643 4406 
Q 934 4750 1428 4750 
z
" transform="scale(0.015625)"/>
     </defs>
     <use xlink:href="#DejaVuSans-32"/>
     <use xlink:href="#DejaVuSans-39" x="63.623047"/>
     <use xlink:href="#DejaVuSans-25" x="127.246094"/>
    </g>
   </g>
   <g id="text_3">
    <!-- Morocco -->
    <g transform="translate(1142.233799 2016.70546)scale(0.0579 -0.0579)">
     <defs>
      <path id="DejaVuSans-4d" d="M 628 4666 
L 1569 4666 
L 2759 1491 
L 3956 4666 
L 4897 4666 
L 4897 0 
L 4281 0 
L 4281 4097 
L 3078 897 
L 2444 897 
L 1241 4097 
L 1241 0 
L 628 0 
L 628 4666 
z
" transform="scale(0.015625)"/>
      <path id="DejaVuSans-6f" d="M 1959 3097 
Q 1497 3097 1228 2736 
Q 959 2375 959 1747 
Q 959 1119 1226 758 
Q 1494 397 1959 397 
Q 2419 397 2687 759 
Q 2956 1122 2956 1747 
Q 2956 2369 2687 2733 
Q 2419 3097 1959 3097 
z
M 1959 3584 
Q 2709 3584 3137 3096 
Q 3566 2609 3566 1747 
Q 3566 888 3137 398 
Q 2709 -91 1959 -91 
Q 1206 -91 779 398 
Q 353 888 353 1747 
Q 353 2609 779 3096 
Q 1206 3584 1959 3584 
z
" transform="scale(0.015625)"/>
      <path id="DejaVuSans-72" d="M 2631 2963 
Q 2534 3019 2420 3045 
Q 2306 3072 2169 3072 
Q 1681 3072 1420 2755 
Q 1159 2438 1159 1844 
L 1159 0 
L 581 0 
L 581 3500 
L 1159 3500 
L 1159 2956 
Q 1341 3275 1631 3429 
Q 1922 3584 2338 3584 
Q 2397 3584 2469 3576 
Q 2541 3569 2628 3553 
L 2631 2963 
z
" transform="scale(0.015625)"/>
      <path id="DejaVuSans-63" d="M 3122 3366 
L 3122 2828 
Q 2878 2963 2633 3030 
Q 2388 3097 2138 3097 
Q 1578 3097 1268 2742 
Q 959 2388 959 1747 
Q 959 1106 1268 751 
Q 1578 397 2138 397 
Q 2388 397 2633 464 
Q 2878 531 3122 666 
L 3122 134 
Q 2881 22 2623 -34 
Q 2366 -91 2075 -91 
Q 1284 -91 818 406 
Q 353 903 353 1747 
Q 353 2603 823 3093 
Q 1294 3584 2113 3584 
Q 2378 3584 2631 3529 
Q 2884 3475 3122 3366 
z
" transform="scale(0.015625)"/>
     </defs>
     <use xlink:href="#DejaVuSans-4d"/>
     <use xlink:href="#DejaVuSans-6f" x="86.279297"/>
     <use xlink:href="#DejaVuSans-72" x="147.460938"/>
     <use xlink:href="#DejaVuSans-6f" x="186.324219"/>
     <use xlink:href="#DejaVuSans-63" x="247.505859"/>
     <use xlink:href="#DejaVuSans-63" x="302.486328"/>
     <use xlink:href="#DejaVuSans-6f" x="357.466797"/>
    </g>
   </g>
   <g id="text_4">
    <!-- 16% -->
    <g transform="translate(957.426113 1757.681596)scale(0.0579 -0.0579)">
     <defs>
      <path id="DejaVuSans-31" d="M 794 531 
L 1825 531 
L 1825 4091 
L 703 3866 
L 703 4441 
L 1819 4666 
L 2450 4666 
L 2450 531 
L 3481 531 
L 3481 0 
L 794 0 
L 794 531 
z
" transform="scale(0.015625)"/>
      <path id="DejaVuSans-36" d="M 2113 2584 
Q 1688 2584 1439 2293 
Q 1191 2003 1191 1497 
Q 1191 994 1439 701 
Q 1688 409 2113 409 
Q 2538 409 2786 701 
Q 3034 994 3034 1497 
Q 3034 2003 2786 2293 
Q 2538 2584 2113 2584 
z
M 3366 4563 
L 3366 3988 
Q 3128 4100 2886 4159 
Q 2644 4219 2406 4219 
Q 1781 4219 1451 3797 
Q 1122 3375 1075 2522 
Q 1259 2794 1537 2939 
Q 1816 3084 2150 3084 
Q 2853 3084 3261 2657 
Q 3669 2231 3669 1497 
Q 3669 778 3244 343 
Q 2819 -91 2113 -91 
Q 1303 -91 875 529 
Q 447 1150 447 2328 
Q 447 3434 972 4092 
Q 1497 4750 2381 4750 
Q 2619 4750 2861 4703 
Q 3103 4656 3366 4563 
z
" transform="scale(0.015625)"/>
     </defs>
     <use xlink:href="#DejaVuSans-31"/>
     <use xlink:href="#DejaVuSans-36" x="63.623047"/>
     <use xlink:href="#DejaVuSans-25" x="127.246094"/>
    </g>
   </g>
   <g id="text_5">
    <!-- Algeria -->
    <g transform="translate(1441.06254 1476.853296)scale(0.0579 -0.0579)">
     <defs>
      <path id="DejaVuSans-41" d="M 2188 4044 
L 1331 1722 
L 3047 1722 
L 2188 4044 
z
M 1831 4666 
L 2547 4666 
L 4325 0 
L 3669 0 
L 3244 1197 
L 1141 1197 
L 716 0 
L 50 0 
L 1831 4666 
z
" transform="scale(0.015625)"/>
      <path id="DejaVuSans-67" d="M 2906 1791 
Q 2906 2416 2648 2759 
Q 2391 3103 1925 3103 
Q 1463 3103 1205 2759 
Q 947 2416 947 1791 
Q 947 1169 1205 825 
Q 1463 481 1925 481 
Q 2391 481 2648 825 
Q 2906 1169 2906 1791 
z
M 3481 434 
Q 3481 -459 3084 -895 
Q 2688 -1331 1869 -1331 
Q 1566 -1331 1297 -1286 
Q 1028 -1241 775 -1147 
L 775 -588 
Q 1028 -725 1275 -790 
Q 1522 -856 1778 -856 
Q 2344 -856 2625 -561 
Q 2906 -266 2906 331 
L 2906 616 
Q 2728 306 2450 153 
Q 2172 0 1784 0 
Q 1141 0 747 490 
Q 353 981 353 1791 
Q 353 2603 747 3093 
Q 1141 3584 1784 3584 
Q 2172 3584 2450 3431 
Q 2728 3278 2906 2969 
L 2906 3500 
L 3481 3500 
L 3481 434 
z
" transform="scale(0.015625)"/>
      <path id="DejaVuSans-65" d="M 3597 1894 
L 3597 1613 
L 953 1613 
Q 991 1019 1311 708 
Q 1631 397 2203 397 
Q 2534 397 2845 478 
Q 3156 559 3463 722 
L 3463 178 
Q 3153 47 2828 -22 
Q 2503 -91 2169 -91 
Q 1331 -91 842 396 
Q 353 884 353 1716 
Q 353 2575 817 3079 
Q 1281 3584 2069 3584 
Q 2775 3584 3186 3129 
Q 3597 2675 3597 1894 
z
M 3022 2063 
Q 3016 2534 2758 2815 
Q 2500 3097 2075 3097 
Q 1594 3097 1305 2825 
Q 1016 2553 972 2059 
L 3022 2063 
z
" transform="scale(0.015625)"/>
      <path id="DejaVuSans-69" d="M 603 3500 
L 1178 3500 
L 1178 0 
L 603 0 
L 603 3500 
z
M 603 4863 
L 1178 4863 
L 1178 4134 
L 603 4134 
L 603 4863 
z
" transform="scale(0.015625)"/>
     </defs>
     <use xlink:href="#DejaVuSans-41"/>
     <use xlink:href="#DejaVuSans-6c" x="68.408203"/>
     <use xlink:href="#DejaVuSans-67" x="96.191406"/>
     <use xlink:href="#DejaVuSans-65" x="159.667969"/>
     <use xlink:href="#DejaVuSans-72" x="221.191406"/>
     <use xlink:href="#DejaVuSans-69" x="262.304688"/>
     <use xlink:href="#DejaVuSans-61" x="290.087891"/>
    </g>
   </g>
   <g id="text_6">
    <!-- 14% -->
    <g transform="translate(1120.423609 1463.21678)scale(0.0579 -0.0579)">
     <defs>
      <path id="DejaVuSans-34" d="M 2419 4116 
L 825 1625 
L 2419 1625 
L 2419 4116 
z
M 2253 4666 
L 3047 4666 
L 3047 1625 
L 3713 1625 
L 3713 1100 
L 3047 1100 
L 3047 0 
L 2419 0 
L 2419 1100 
L 313 1100 
L 313 1709 
L 2253 4666 
z
" transform="scale(0.015625)"/>
     </defs>
     <use xlink:href="#DejaVuSans-31"/>
     <use xlink:href="#DejaVuSans-34" x="63.623047"/>
     <use xlink:href="#DejaVuSans-25" x="127.246094"/>
    </g>
   </g>
   <g id="text_7">
    <!-- Belgium -->
    <g transform="translate(1315.964119 1049.110758)scale(0.0579 -0.0579)">
     <defs>
      <path id="DejaVuSans-42" d="M 1259 2228 
L 1259 519 
L 2272 519 
Q 2781 519 3026 730 
Q 3272 941 3272 1375 
Q 3272 1813 3026 2020 
Q 2781 2228 2272 2228 
L 1259 2228 
z
M 1259 4147 
L 1259 2741 
L 2194 2741 
Q 2656 2741 2882 2914 
Q 3109 3088 3109 3444 
Q 3109 3797 2882 3972 
Q 2656 4147 2194 4147 
L 1259 4147 
z
M 628 4666 
L 2241 4666 
Q 2963 4666 3353 4366 
Q 3744 4066 3744 3513 
Q 3744 3084 3544 2831 
Q 3344 2578 2956 2516 
Q 3422 2416 3680 2098 
Q 3938 1781 3938 1306 
Q 3938 681 3513 340 
Q 3088 0 2303 0 
L 628 0 
L 628 4666 
z
" transform="scale(0.015625)"/>
      <path id="DejaVuSans-75" d="M 544 1381 
L 544 3500 
L 1119 3500 
L 1119 1403 
Q 1119 906 1312 657 
Q 1506 409 1894 409 
Q 2359 409 2629 706 
Q 2900 1003 2900 1516 
L 2900 3500 
L 3475 3500 
L 3475 0 
L 2900 0 
L 2900 538 
Q 2691 219 2414 64 
Q 2138 -91 1772 -91 
Q 1169 -91 856 284 
Q 544 659 544 1381 
z
M 1991 3584 
L 1991 3584 
z
" transform="scale(0.015625)"/>
      <path id="DejaVuSans-6d" d="M 3328 2828 
Q 3544 3216 3844 3400 
Q 4144 3584 4550 3584 
Q 5097 3584 5394 3201 
Q 5691 2819 5691 2113 
L 5691 0 
L 5113 0 
L 5113 2094 
Q 5113 2597 4934 2840 
Q 4756 3084 4391 3084 
Q 3944 3084 3684 2787 
Q 3425 2491 3425 1978 
L 3425 0 
L 2847 0 
L 2847 2094 
Q 2847 2600 2669 2842 
Q 2491 3084 2119 3084 
Q 1678 3084 1418 2786 
Q 1159 2488 1159 1978 
L 1159 0 
L 581 0 
L 581 3500 
L 1159 3500 
L 1159 2956 
Q 1356 3278 1631 3431 
Q 1906 3584 2284 3584 
Q 2666 3584 2933 3390 
Q 3200 3197 3328 2828 
z
" transform="scale(0.015625)"/>
     </defs>
     <use xlink:href="#DejaVuSans-42"/>
     <use xlink:href="#DejaVuSans-65" x="68.603516"/>
     <use xlink:href="#DejaVuSans-6c" x="130.126953"/>
     <use xlink:href="#DejaVuSans-67" x="157.910156"/>
     <use xlink:href="#DejaVuSans-69" x="221.386719"/>
     <use xlink:href="#DejaVuSans-75" x="249.169922"/>
     <use xlink:href="#DejaVuSans-6d" x="312.548828"/>
    </g>
   </g>
   <g id="text_8">
    <!-- 7% -->
    <g transform="translate(1054.03005 1229.902668)scale(0.0579 -0.0579)">
     <defs>
      <path id="DejaVuSans-37" d="M 525 4666 
L 3525 4666 
L 3525 4397 
L 1831 0 
L 1172 0 
L 2766 4134 
L 525 4134 
L 525 4666 
z
" transform="scale(0.015625)"/>
     </defs>
     <use xlink:href="#DejaVuSans-37"/>
     <use xlink:href="#DejaVuSans-25" x="63.623047"/>
    </g>
   </g>
   <g id="text_9">
    <!-- Netherlands -->
    <g transform="translate(1090.552283 844.671347)scale(0.0579 -0.0579)">
     <defs>
      <path id="DejaVuSans-4e" d="M 628 4666 
L 1478 4666 
L 3547 763 
L 3547 4666 
L 4159 4666 
L 4159 0 
L 3309 0 
L 1241 3903 
L 1241 0 
L 628 0 
L 628 4666 
z
" transform="scale(0.015625)"/>
      <path id="DejaVuSans-68" d="M 3513 2113 
L 3513 0 
L 2938 0 
L 2938 2094 
Q 2938 2591 2744 2837 
Q 2550 3084 2163 3084 
Q 1697 3084 1428 2787 
Q 1159 2491 1159 1978 
L 1159 0 
L 581 0 
L 581 4863 
L 1159 4863 
L 1159 2956 
Q 1366 3272 1645 3428 
Q 1925 3584 2291 3584 
Q 2894 3584 3203 3211 
Q 3513 2838 3513 2113 
z
" transform="scale(0.015625)"/>
      <path id="DejaVuSans-6e" d="M 3513 2113 
L 3513 0 
L 2938 0 
L 2938 2094 
Q 2938 2591 2744 2837 
Q 2550 3084 2163 3084 
Q 1697 3084 1428 2787 
Q 1159 2491 1159 1978 
L 1159 0 
L 581 0 
L 581 3500 
L 1159 3500 
L 1159 2956 
Q 1366 3272 1645 3428 
Q 1925 3584 2291 3584 
Q 2894 3584 3203 3211 
Q 3513 2838 3513 2113 
z
" transform="scale(0.015625)"/>
      <path id="DejaVuSans-64" d="M 2906 2969 
L 2906 4863 
L 3481 4863 
L 3481 0 
L 2906 0 
L 2906 525 
Q 2725 213 2448 61 
Q 2172 -91 1784 -91 
Q 1150 -91 751 415 
Q 353 922 353 1747 
Q 353 2572 751 3078 
Q 1150 3584 1784 3584 
Q 2172 3584 2448 3432 
Q 2725 3281 2906 2969 
z
M 947 1747 
Q 947 1113 1208 752 
Q 1469 391 1925 391 
Q 2381 391 2643 752 
Q 2906 1113 2906 1747 
Q 2906 2381 2643 2742 
Q 2381 3103 1925 3103 
Q 1469 3103 1208 2742 
Q 947 2381 947 1747 
z
" transform="scale(0.015625)"/>
      <path id="DejaVuSans-73" d="M 2834 3397 
L 2834 2853 
Q 2591 2978 2328 3040 
Q 2066 3103 1784 3103 
Q 1356 3103 1142 2972 
Q 928 2841 928 2578 
Q 928 2378 1081 2264 
Q 1234 2150 1697 2047 
L 1894 2003 
Q 2506 1872 2764 1633 
Q 3022 1394 3022 966 
Q 3022 478 2636 193 
Q 2250 -91 1575 -91 
Q 1294 -91 989 -36 
Q 684 19 347 128 
L 347 722 
Q 666 556 975 473 
Q 1284 391 1588 391 
Q 1994 391 2212 530 
Q 2431 669 2431 922 
Q 2431 1156 2273 1281 
Q 2116 1406 1581 1522 
L 1381 1569 
Q 847 1681 609 1914 
Q 372 2147 372 2553 
Q 372 3047 722 3315 
Q 1072 3584 1716 3584 
Q 2034 3584 2315 3537 
Q 2597 3491 2834 3397 
z
" transform="scale(0.015625)"/>
     </defs>
     <use xlink:href="#DejaVuSans-4e"/>
     <use xlink:href="#DejaVuSans-65" x="74.804688"/>
     <use xlink:href="#DejaVuSans-74" x="136.328125"/>
     <use xlink:href="#DejaVuSans-68" x="175.537109"/>
     <use xlink:href="#DejaVuSans-65" x="238.916016"/>
     <use xlink:href="#DejaVuSans-72" x="300.439453"/>
     <use xlink:href="#DejaVuSans-6c" x="341.552734"/>
     <use xlink:href="#DejaVuSans-61" x="369.335938"/>
     <use xlink:href="#DejaVuSans-6e" x="430.615234"/>
     <use xlink:href="#DejaVuSans-64" x="493.994141"/>
     <use xlink:href="#DejaVuSans-73" x="557.470703"/>
    </g>
   </g>
   <g id="text_10">
    <!-- 7% -->
    <g transform="translate(931.078139 1118.390262)scale(0.0579 -0.0579)">
     <use xlink:href="#DejaVuSans-37"/>
     <use xlink:href="#DejaVuSans-25" x="63.623047"/>
    </g>
   </g>
   <g id="text_11">
    <!-- Greece -->
    <g transform="translate(829.342766 759.538639)scale(0.0579 -0.0579)">
     <defs>
      <path id="DejaVuSans-47" d="M 3809 666 
L 3809 1919 
L 2778 1919 
L 2778 2438 
L 4434 2438 
L 4434 434 
Q 4069 175 3628 42 
Q 3188 -91 2688 -91 
Q 1594 -91 976 548 
Q 359 1188 359 2328 
Q 359 3472 976 4111 
Q 1594 4750 2688 4750 
Q 3144 4750 3555 4637 
Q 3966 4525 4313 4306 
L 4313 3634 
Q 3963 3931 3569 4081 
Q 3175 4231 2741 4231 
Q 1884 4231 1454 3753 
Q 1025 3275 1025 2328 
Q 1025 1384 1454 906 
Q 1884 428 2741 428 
Q 3075 428 3337 486 
Q 3600 544 3809 666 
z
" transform="scale(0.015625)"/>
     </defs>
     <use xlink:href="#DejaVuSans-47"/>
     <use xlink:href="#DejaVuSans-72" x="77.490234"/>
     <use xlink:href="#DejaVuSans-65" x="116.353516"/>
     <use xlink:href="#DejaVuSans-65" x="177.876953"/>
     <use xlink:href="#DejaVuSans-63" x="239.400391"/>
     <use xlink:href="#DejaVuSans-65" x="294.380859"/>
    </g>
   </g>
   <g id="text_12">
    <!-- 6% -->
    <g transform="translate(788.600221 1071.95424)scale(0.0579 -0.0579)">
     <use xlink:href="#DejaVuSans-36"/>
     <use xlink:href="#DejaVuSans-25" x="63.623047"/>
    </g>
   </g>
   <g id="text_13">
    <!-- Sweden -->
    <g transform="translate(604.184521 765.927774)scale(0.0579 -0.0579)">
     <defs>
      <path id="DejaVuSans-53" d="M 3425 4513 
L 3425 3897 
Q 3066 4069 2747 4153 
Q 2428 4238 2131 4238 
Q 1616 4238 1336 4038 
Q 1056 3838 1056 3469 
Q 1056 3159 1242 3001 
Q 1428 2844 1947 2747 
L 2328 2669 
Q 3034 2534 3370 2195 
Q 3706 1856 3706 1288 
Q 3706 609 3251 259 
Q 2797 -91 1919 -91 
Q 1588 -91 1214 -16 
Q 841 59 441 206 
L 441 856 
Q 825 641 1194 531 
Q 1563 422 1919 422 
Q 2459 422 2753 634 
Q 3047 847 3047 1241 
Q 3047 1584 2836 1778 
Q 2625 1972 2144 2069 
L 1759 2144 
Q 1053 2284 737 2584 
Q 422 2884 422 3419 
Q 422 4038 858 4394 
Q 1294 4750 2059 4750 
Q 2388 4750 2728 4690 
Q 3069 4631 3425 4513 
z
" transform="scale(0.015625)"/>
      <path id="DejaVuSans-77" d="M 269 3500 
L 844 3500 
L 1563 769 
L 2278 3500 
L 2956 3500 
L 3675 769 
L 4391 3500 
L 4966 3500 
L 4050 0 
L 3372 0 
L 2619 2869 
L 1863 0 
L 1184 0 
L 269 3500 
z
" transform="scale(0.015625)"/>
     </defs>
     <use xlink:href="#DejaVuSans-53"/>
     <use xlink:href="#DejaVuSans-77" x="63.476562"/>
     <use xlink:href="#DejaVuSans-65" x="145.263672"/>
     <use xlink:href="#DejaVuSans-64" x="206.787109"/>
     <use xlink:href="#DejaVuSans-65" x="270.263672"/>
     <use xlink:href="#DejaVuSans-6e" x="331.787109"/>
    </g>
   </g>
   <g id="text_14">
    <!-- 3% -->
    <g transform="translate(678.267373 1075.439223)scale(0.0579 -0.0579)">
     <defs>
      <path id="DejaVuSans-33" d="M 2597 2516 
Q 3050 2419 3304 2112 
Q 3559 1806 3559 1356 
Q 3559 666 3084 287 
Q 2609 -91 1734 -91 
Q 1441 -91 1130 -33 
Q 819 25 488 141 
L 488 750 
Q 750 597 1062 519 
Q 1375 441 1716 441 
Q 2309 441 2620 675 
Q 2931 909 2931 1356 
Q 2931 1769 2642 2001 
Q 2353 2234 1838 2234 
L 1294 2234 
L 1294 2753 
L 1863 2753 
Q 2328 2753 2575 2939 
Q 2822 3125 2822 3475 
Q 2822 3834 2567 4026 
Q 2313 4219 1838 4219 
Q 1578 4219 1281 4162 
Q 984 4106 628 3988 
L 628 4550 
Q 988 4650 1302 4700 
Q 1616 4750 1894 4750 
Q 2613 4750 3031 4423 
Q 3450 4097 3450 3541 
Q 3450 3153 3228 2886 
Q 3006 2619 2597 2516 
z
" transform="scale(0.015625)"/>
     </defs>
     <use xlink:href="#DejaVuSans-33"/>
     <use xlink:href="#DejaVuSans-25" x="63.623047"/>
    </g>
   </g>
   <g id="text_15">
    <!-- Denmark -->
    <g transform="translate(479.802699 799.177938)scale(0.0579 -0.0579)">
     <defs>
      <path id="DejaVuSans-44" d="M 1259 4147 
L 1259 519 
L 2022 519 
Q 2988 519 3436 956 
Q 3884 1394 3884 2338 
Q 3884 3275 3436 3711 
Q 2988 4147 2022 4147 
L 1259 4147 
z
M 628 4666 
L 1925 4666 
Q 3281 4666 3915 4102 
Q 4550 3538 4550 2338 
Q 4550 1131 3912 565 
Q 3275 0 1925 0 
L 628 0 
L 628 4666 
z
" transform="scale(0.015625)"/>
      <path id="DejaVuSans-6b" d="M 581 4863 
L 1159 4863 
L 1159 1991 
L 2875 3500 
L 3609 3500 
L 1753 1863 
L 3688 0 
L 2938 0 
L 1159 1709 
L 1159 0 
L 581 0 
L 581 4863 
z
" transform="scale(0.015625)"/>
     </defs>
     <use xlink:href="#DejaVuSans-44"/>
     <use xlink:href="#DejaVuSans-65" x="77.001953"/>
     <use xlink:href="#DejaVuSans-6e" x="138.525391"/>
     <use xlink:href="#DejaVuSans-6d" x="201.904297"/>
     <use xlink:href="#DejaVuSans-61" x="299.316406"/>
     <use xlink:href="#DejaVuSans-72" x="360.595703"/>
     <use xlink:href="#DejaVuSans-6b" x="401.708984"/>
    </g>
   </g>
   <g id="text_16">
    <!-- 2% -->
    <g transform="translate(612.457303 1093.575676)scale(0.0579 -0.0579)">
     <use xlink:href="#DejaVuSans-32"/>
     <use xlink:href="#DejaVuSans-25" x="63.623047"/>
    </g>
   </g>
   <g id="text_17">
    <!-- China -->
    <g transform="translate(403.455172 838.62172)scale(0.0579 -0.0579)">
     <defs>
      <path id="DejaVuSans-43" d="M 4122 4306 
L 4122 3641 
Q 3803 3938 3442 4084 
Q 3081 4231 2675 4231 
Q 1875 4231 1450 3742 
Q 1025 3253 1025 2328 
Q 1025 1406 1450 917 
Q 1875 428 2675 428 
Q 3081 428 3442 575 
Q 3803 722 4122 1019 
L 4122 359 
Q 3791 134 3420 21 
Q 3050 -91 2638 -91 
Q 1578 -91 968 557 
Q 359 1206 359 2328 
Q 359 3453 968 4101 
Q 1578 4750 2638 4750 
Q 3056 4750 3426 4639 
Q 3797 4528 4122 4306 
z
" transform="scale(0.015625)"/>
     </defs>
     <use xlink:href="#DejaVuSans-43"/>
     <use xlink:href="#DejaVuSans-68" x="69.824219"/>
     <use xlink:href="#DejaVuSans-69" x="133.203125"/>
     <use xlink:href="#DejaVuSans-6e" x="160.986328"/>
     <use xlink:href="#DejaVuSans-61" x="224.365234"/>
    </g>
   </g>
   <g id="text_18">
    <!-- 2% -->
    <g transform="translate(565.318947 1115.090466)scale(0.0579 -0.0579)">
     <use xlink:href="#DejaVuSans-32"/>
     <use xlink:href="#DejaVuSans-25" x="63.623047"/>
    </g>
   </g>
   <g id="text_19">
    <!-- United Arab Emirates -->
    <g transform="translate(295.43919 877.000454)scale(0.0579 -0.0579)">
     <defs>
      <path id="DejaVuSans-55" d="M 556 4666 
L 1191 4666 
L 1191 1831 
Q 1191 1081 1462 751 
Q 1734 422 2344 422 
Q 2950 422 3222 751 
Q 3494 1081 3494 1831 
L 3494 4666 
L 4128 4666 
L 4128 1753 
Q 4128 841 3676 375 
Q 3225 -91 2344 -91 
Q 1459 -91 1007 375 
Q 556 841 556 1753 
L 556 4666 
z
" transform="scale(0.015625)"/>
      <path id="DejaVuSans-20" transform="scale(0.015625)"/>
      <path id="DejaVuSans-62" d="M 3116 1747 
Q 3116 2381 2855 2742 
Q 2594 3103 2138 3103 
Q 1681 3103 1420 2742 
Q 1159 2381 1159 1747 
Q 1159 1113 1420 752 
Q 1681 391 2138 391 
Q 2594 391 2855 752 
Q 3116 1113 3116 1747 
z
M 1159 2969 
Q 1341 3281 1617 3432 
Q 1894 3584 2278 3584 
Q 2916 3584 3314 3078 
Q 3713 2572 3713 1747 
Q 3713 922 3314 415 
Q 2916 -91 2278 -91 
Q 1894 -91 1617 61 
Q 1341 213 1159 525 
L 1159 0 
L 581 0 
L 581 4863 
L 1159 4863 
L 1159 2969 
z
" transform="scale(0.015625)"/>
      <path id="DejaVuSans-45" d="M 628 4666 
L 3578 4666 
L 3578 4134 
L 1259 4134 
L 1259 2753 
L 3481 2753 
L 3481 2222 
L 1259 2222 
L 1259 531 
L 3634 531 
L 3634 0 
L 628 0 
L 628 4666 
z
" transform="scale(0.015625)"/>
     </defs>
     <use xlink:href="#DejaVuSans-55"/>
     <use xlink:href="#DejaVuSans-6e" x="73.193359"/>
     <use xlink:href="#DejaVuSans-69" x="136.572266"/>
     <use xlink:href="#DejaVuSans-74" x="164.355469"/>
     <use xlink:href="#DejaVuSans-65" x="203.564453"/>
     <use xlink:href="#DejaVuSans-64" x="265.087891"/>
     <use xlink:href="#DejaVuSans-20" x="328.564453"/>
     <use xlink:href="#DejaVuSans-41" x="360.351562"/>
     <use xlink:href="#DejaVuSans-72" x="428.759766"/>
     <use xlink:href="#DejaVuSans-61" x="469.873047"/>
     <use xlink:href="#DejaVuSans-62" x="531.152344"/>
     <use xlink:href="#DejaVuSans-20" x="594.628906"/>
     <use xlink:href="#DejaVuSans-45" x="626.416016"/>
     <use xlink:href="#DejaVuSans-6d" x="689.599609"/>
     <use xlink:href="#DejaVuSans-69" x="787.011719"/>
     <use xlink:href="#DejaVuSans-72" x="814.794922"/>
     <use xlink:href="#DejaVuSans-61" x="855.908203"/>
     <use xlink:href="#DejaVuSans-74" x="917.1875"/>
     <use xlink:href="#DejaVuSans-65" x="956.396484"/>
     <use xlink:href="#DejaVuSans-73" x="1017.919922"/>
    </g>
   </g>
   <g id="text_20">
    <!-- 1% -->
    <g transform="translate(531.172634 1136.024321)scale(0.0579 -0.0579)">
     <use xlink:href="#DejaVuSans-31"/>
     <use xlink:href="#DejaVuSans-25" x="63.623047"/>
    </g>
   </g>
   <g id="text_21">
    <!-- Guadeloupe -->
    <g transform="translate(277.465621 910.705113)scale(0.0579 -0.0579)">
     <defs>
      <path id="DejaVuSans-70" d="M 1159 525 
L 1159 -1331 
L 581 -1331 
L 581 3500 
L 1159 3500 
L 1159 2969 
Q 1341 3281 1617 3432 
Q 1894 3584 2278 3584 
Q 2916 3584 3314 3078 
Q 3713 2572 3713 1747 
Q 3713 922 3314 415 
Q 2916 -91 2278 -91 
Q 1894 -91 1617 61 
Q 1341 213 1159 525 
z
M 3116 1747 
Q 3116 2381 2855 2742 
Q 2594 3103 2138 3103 
Q 1681 3103 1420 2742 
Q 1159 2381 1159 1747 
Q 1159 1113 1420 752 
Q 1681 391 2138 391 
Q 2594 391 2855 752 
Q 3116 1113 3116 1747 
z
" transform="scale(0.015625)"/>
     </defs>
     <use xlink:href="#DejaVuSans-47"/>
     <use xlink:href="#DejaVuSans-75" x="77.490234"/>
     <use xlink:href="#DejaVuSans-61" x="140.869141"/>
     <use xlink:href="#DejaVuSans-64" x="202.148438"/>
     <use xlink:href="#DejaVuSans-65" x="265.625"/>
     <use xlink:href="#DejaVuSans-6c" x="327.148438"/>
     <use xlink:href="#DejaVuSans-6f" x="354.931641"/>
     <use xlink:href="#DejaVuSans-75" x="416.113281"/>
     <use xlink:href="#DejaVuSans-70" x="479.492188"/>
     <use xlink:href="#DejaVuSans-65" x="542.96875"/>
    </g>
   </g>
   <g id="text_22">
    <!-- 1% -->
    <g transform="translate(506.668026 1154.40868)scale(0.0579 -0.0579)">
     <use xlink:href="#DejaVuSans-31"/>
     <use xlink:href="#DejaVuSans-25" x="63.623047"/>
    </g>
   </g>
   <g id="text_23">
    <!-- Hungary -->
    <g transform="translate(251.968718 941.993212)scale(0.0579 -0.0579)">
     <defs>
      <path id="DejaVuSans-48" d="M 628 4666 
L 1259 4666 
L 1259 2753 
L 3553 2753 
L 3553 4666 
L 4184 4666 
L 4184 0 
L 3553 0 
L 3553 2222 
L 1259 2222 
L 1259 0 
L 628 0 
L 628 4666 
z
" transform="scale(0.015625)"/>
     </defs>
     <use xlink:href="#DejaVuSans-48"/>
     <use xlink:href="#DejaVuSans-75" x="75.195312"/>
     <use xlink:href="#DejaVuSans-6e" x="138.574219"/>
     <use xlink:href="#DejaVuSans-67" x="201.953125"/>
     <use xlink:href="#DejaVuSans-61" x="265.429688"/>
     <use xlink:href="#DejaVuSans-72" x="326.708984"/>
     <use xlink:href="#DejaVuSans-79" x="367.822266"/>
    </g>
   </g>
   <g id="text_24">
    <!-- 1% -->
    <g transform="translate(487.154852 1171.474916)scale(0.0579 -0.0579)">
     <use xlink:href="#DejaVuSans-31"/>
     <use xlink:href="#DejaVuSans-25" x="63.623047"/>
    </g>
   </g>
   <g id="text_25">
    <!-- Martinique -->
    <g transform="translate(218.087999 969.371347)scale(0.0579 -0.0579)">
     <defs>
      <path id="DejaVuSans-71" d="M 947 1747 
Q 947 1113 1208 752 
Q 1469 391 1925 391 
Q 2381 391 2643 752 
Q 2906 1113 2906 1747 
Q 2906 2381 2643 2742 
Q 2381 3103 1925 3103 
Q 1469 3103 1208 2742 
Q 947 2381 947 1747 
z
M 2906 525 
Q 2725 213 2448 61 
Q 2172 -91 1784 -91 
Q 1150 -91 751 415 
Q 353 922 353 1747 
Q 353 2572 751 3078 
Q 1150 3584 1784 3584 
Q 2172 3584 2448 3432 
Q 2725 3281 2906 2969 
L 2906 3500 
L 3481 3500 
L 3481 -1331 
L 2906 -1331 
L 2906 525 
z
" transform="scale(0.015625)"/>
     </defs>
     <use xlink:href="#DejaVuSans-4d"/>
     <use xlink:href="#DejaVuSans-61" x="86.279297"/>
     <use xlink:href="#DejaVuSans-72" x="147.558594"/>
     <use xlink:href="#DejaVuSans-74" x="188.671875"/>
     <use xlink:href="#DejaVuSans-69" x="227.880859"/>
     <use xlink:href="#DejaVuSans-6e" x="255.664062"/>
     <use xlink:href="#DejaVuSans-69" x="319.042969"/>
     <use xlink:href="#DejaVuSans-71" x="346.826172"/>
     <use xlink:href="#DejaVuSans-75" x="410.302734"/>
     <use xlink:href="#DejaVuSans-65" x="473.681641"/>
    </g>
   </g>
   <g id="text_26">
    <!-- 1% -->
    <g transform="translate(472.091218 1186.408444)scale(0.0579 -0.0579)">
     <use xlink:href="#DejaVuSans-31"/>
     <use xlink:href="#DejaVuSans-25" x="63.623047"/>
    </g>
   </g>
   <g id="text_27">
    <!-- Congo (Brazzaville) -->
    <g transform="translate(169.679565 994.976502)scale(0.0579 -0.0579)">
     <defs>
      <path id="DejaVuSans-28" d="M 1984 4856 
Q 1566 4138 1362 3434 
Q 1159 2731 1159 2009 
Q 1159 1288 1364 580 
Q 1569 -128 1984 -844 
L 1484 -844 
Q 1016 -109 783 600 
Q 550 1309 550 2009 
Q 550 2706 781 3412 
Q 1013 4119 1484 4856 
L 1984 4856 
z
" transform="scale(0.015625)"/>
      <path id="DejaVuSans-7a" d="M 353 3500 
L 3084 3500 
L 3084 2975 
L 922 459 
L 3084 459 
L 3084 0 
L 275 0 
L 275 525 
L 2438 3041 
L 353 3041 
L 353 3500 
z
" transform="scale(0.015625)"/>
      <path id="DejaVuSans-76" d="M 191 3500 
L 800 3500 
L 1894 563 
L 2988 3500 
L 3597 3500 
L 2284 0 
L 1503 0 
L 191 3500 
z
" transform="scale(0.015625)"/>
      <path id="DejaVuSans-29" d="M 513 4856 
L 1013 4856 
Q 1481 4119 1714 3412 
Q 1947 2706 1947 2009 
Q 1947 1309 1714 600 
Q 1481 -109 1013 -844 
L 513 -844 
Q 928 -128 1133 580 
Q 1338 1288 1338 2009 
Q 1338 2731 1133 3434 
Q 928 4138 513 4856 
z
" transform="scale(0.015625)"/>
     </defs>
     <use xlink:href="#DejaVuSans-43"/>
     <use xlink:href="#DejaVuSans-6f" x="69.824219"/>
     <use xlink:href="#DejaVuSans-6e" x="131.005859"/>
     <use xlink:href="#DejaVuSans-67" x="194.384766"/>
     <use xlink:href="#DejaVuSans-6f" x="257.861328"/>
     <use xlink:href="#DejaVuSans-20" x="319.042969"/>
     <use xlink:href="#DejaVuSans-28" x="350.830078"/>
     <use xlink:href="#DejaVuSans-42" x="389.84375"/>
     <use xlink:href="#DejaVuSans-72" x="458.447266"/>
     <use xlink:href="#DejaVuSans-61" x="499.560547"/>
     <use xlink:href="#DejaVuSans-7a" x="560.839844"/>
     <use xlink:href="#DejaVuSans-7a" x="613.330078"/>
     <use xlink:href="#DejaVuSans-61" x="665.820312"/>
     <use xlink:href="#DejaVuSans-76" x="727.099609"/>
     <use xlink:href="#DejaVuSans-69" x="786.279297"/>
     <use xlink:href="#DejaVuSans-6c" x="814.0625"/>
     <use xlink:href="#DejaVuSans-6c" x="841.845703"/>
     <use xlink:href="#DejaVuSans-65" x="869.628906"/>
     <use xlink:href="#DejaVuSans-29" x="931.152344"/>
    </g>
   </g>
   <g id="text_28">
    <!-- 1% -->
    <g transform="translate(459.424215 1200.374892)scale(0.0579 -0.0579)">
     <use xlink:href="#DejaVuSans-31"/>
     <use xlink:href="#DejaVuSans-25" x="63.623047"/>
    </g>
   </g>
   <g id="text_29">
    <!-- Brazil -->
    <g transform="translate(187.781598 1021.709562)scale(0.0579 -0.0579)">
     <use xlink:href="#DejaVuSans-42"/>
     <use xlink:href="#DejaVuSans-72" x="68.603516"/>
     <use xlink:href="#DejaVuSans-61" x="109.716797"/>
     <use xlink:href="#DejaVuSans-7a" x="170.996094"/>
     <use xlink:href="#DejaVuSans-69" x="223.486328"/>
     <use xlink:href="#DejaVuSans-6c" x="251.269531"/>
    </g>
   </g>
   <g id="text_30">
    <!-- 1% -->
    <g transform="translate(447.470574 1214.956561)scale(0.0579 -0.0579)">
     <use xlink:href="#DejaVuSans-31"/>
     <use xlink:href="#DejaVuSans-25" x="63.623047"/>
    </g>
   </g>
   <g id="text_31">
    <!-- India -->
    <g transform="translate(169.176007 1049.503802)scale(0.0579 -0.0579)">
     <use xlink:href="#DejaVuSans-49"/>
     <use xlink:href="#DejaVuSans-6e" x="29.492188"/>
     <use xlink:href="#DejaVuSans-64" x="92.871094"/>
     <use xlink:href="#DejaVuSans-69" x="156.347656"/>
     <use xlink:href="#DejaVuSans-61" x="184.130859"/>
    </g>
   </g>
   <g id="text_32">
    <!-- 1% -->
    <g transform="translate(436.260131 1230.117056)scale(0.0579 -0.0579)">
     <use xlink:href="#DejaVuSans-31"/>
     <use xlink:href="#DejaVuSans-25" x="63.623047"/>
    </g>
   </g>
   <g id="text_33">
    <!-- Nigeria -->
    <g transform="translate(143.531751 1078.289845)scale(0.0579 -0.0579)">
     <use xlink:href="#DejaVuSans-4e"/>
     <use xlink:href="#DejaVuSans-69" x="74.804688"/>
     <use xlink:href="#DejaVuSans-67" x="102.587891"/>
     <use xlink:href="#DejaVuSans-65" x="166.064453"/>
     <use xlink:href="#DejaVuSans-72" x="227.587891"/>
     <use xlink:href="#DejaVuSans-69" x="268.701172"/>
     <use xlink:href="#DejaVuSans-61" x="296.484375"/>
    </g>
   </g>
   <g id="text_34">
    <!-- 1% -->
    <g transform="translate(425.820868 1245.818534)scale(0.0579 -0.0579)">
     <use xlink:href="#DejaVuSans-31"/>
     <use xlink:href="#DejaVuSans-25" x="63.623047"/>
    </g>
   </g>
   <g id="text_35">
    <!-- Serbia -->
    <g transform="translate(128.119137 1107.995841)scale(0.0579 -0.0579)">
     <use xlink:href="#DejaVuSans-53"/>
     <use xlink:href="#DejaVuSans-65" x="63.476562"/>
     <use xlink:href="#DejaVuSans-72" x="125"/>
     <use xlink:href="#DejaVuSans-62" x="166.113281"/>
     <use xlink:href="#DejaVuSans-69" x="229.589844"/>
     <use xlink:href="#DejaVuSans-61" x="257.373047"/>
    </g>
   </g>
   <g id="text_36">
    <!-- 1% -->
    <g transform="translate(416.178843 1262.021804)scale(0.0579 -0.0579)">
     <use xlink:href="#DejaVuSans-31"/>
     <use xlink:href="#DejaVuSans-25" x="63.623047"/>
    </g>
   </g>
   <g id="text_37">
    <!-- Thailand -->
    <g transform="translate(107.47214 1134.684999)scale(0.0579 -0.0579)">
     <defs>
      <path id="DejaVuSans-54" d="M -19 4666 
L 3928 4666 
L 3928 4134 
L 2272 4134 
L 2272 0 
L 1638 0 
L 1638 4134 
L -19 4134 
L -19 4666 
z
" transform="scale(0.015625)"/>
     </defs>
     <use xlink:href="#DejaVuSans-54"/>
     <use xlink:href="#DejaVuSans-68" x="61.083984"/>
     <use xlink:href="#DejaVuSans-61" x="124.462891"/>
     <use xlink:href="#DejaVuSans-69" x="185.742188"/>
     <use xlink:href="#DejaVuSans-6c" x="213.525391"/>
     <use xlink:href="#DejaVuSans-61" x="241.308594"/>
     <use xlink:href="#DejaVuSans-6e" x="302.587891"/>
     <use xlink:href="#DejaVuSans-64" x="365.966797"/>
    </g>
   </g>
   <g id="text_38">
    <!-- 1% -->
    <g transform="translate(408.415024 1276.579527)scale(0.0579 -0.0579)">
     <use xlink:href="#DejaVuSans-31"/>
     <use xlink:href="#DejaVuSans-25" x="63.623047"/>
    </g>
   </g>
   <g id="text_39">
    <!-- Cote d'Ivoire -->
    <g transform="translate(84.450096 1158.038226)scale(0.0579 -0.0579)">
     <defs>
      <path id="DejaVuSans-27" d="M 1147 4666 
L 1147 2931 
L 616 2931 
L 616 4666 
L 1147 4666 
z
" transform="scale(0.015625)"/>
     </defs>
     <use xlink:href="#DejaVuSans-43"/>
     <use xlink:href="#DejaVuSans-6f" x="69.824219"/>
     <use xlink:href="#DejaVuSans-74" x="131.005859"/>
     <use xlink:href="#DejaVuSans-65" x="170.214844"/>
     <use xlink:href="#DejaVuSans-20" x="231.738281"/>
     <use xlink:href="#DejaVuSans-64" x="263.525391"/>
     <use xlink:href="#DejaVuSans-27" x="327.001953"/>
     <use xlink:href="#DejaVuSans-49" x="354.492188"/>
     <use xlink:href="#DejaVuSans-76" x="383.984375"/>
     <use xlink:href="#DejaVuSans-6f" x="443.164062"/>
     <use xlink:href="#DejaVuSans-69" x="504.345703"/>
     <use xlink:href="#DejaVuSans-72" x="532.128906"/>
     <use xlink:href="#DejaVuSans-65" x="570.992188"/>
    </g>
   </g>
   <g id="text_40">
    <!-- 1% -->
    <g transform="translate(402.272109 1289.317651)scale(0.0579 -0.0579)">
     <use xlink:href="#DejaVuSans-31"/>
     <use xlink:href="#DejaVuSans-25" x="63.623047"/>
    </g>
   </g>
   <g id="text_41">
    <!-- French Guiana -->
    <g transform="translate(69.079771 1181.796995)scale(0.0579 -0.0579)">
     <defs>
      <path id="DejaVuSans-46" d="M 628 4666 
L 3309 4666 
L 3309 4134 
L 1259 4134 
L 1259 2759 
L 3109 2759 
L 3109 2228 
L 1259 2228 
L 1259 0 
L 628 0 
L 628 4666 
z
" transform="scale(0.015625)"/>
     </defs>
     <use xlink:href="#DejaVuSans-46"/>
     <use xlink:href="#DejaVuSans-72" x="50.269531"/>
     <use xlink:href="#DejaVuSans-65" x="89.132812"/>
     <use xlink:href="#DejaVuSans-6e" x="150.65625"/>
     <use xlink:href="#DejaVuSans-63" x="214.035156"/>
     <use xlink:href="#DejaVuSans-68" x="269.015625"/>
     <use xlink:href="#DejaVuSans-20" x="332.394531"/>
     <use xlink:href="#DejaVuSans-47" x="364.181641"/>
     <use xlink:href="#DejaVuSans-75" x="441.671875"/>
     <use xlink:href="#DejaVuSans-69" x="505.050781"/>
     <use xlink:href="#DejaVuSans-61" x="532.833984"/>
     <use xlink:href="#DejaVuSans-6e" x="594.113281"/>
     <use xlink:href="#DejaVuSans-61" x="657.492188"/>
    </g>
   </g>
   <g id="text_42">
    <!-- 1% -->
    <g transform="translate(396.610746 1302.276979)scale(0.0579 -0.0579)">
     <use xlink:href="#DejaVuSans-31"/>
     <use xlink:href="#DejaVuSans-25" x="63.623047"/>
    </g>
   </g>
   <g id="text_43">
    <!-- Mali -->
    <g transform="translate(90.970104 1201.881704)scale(0.0579 -0.0579)">
     <use xlink:href="#DejaVuSans-4d"/>
     <use xlink:href="#DejaVuSans-61" x="86.279297"/>
     <use xlink:href="#DejaVuSans-6c" x="147.558594"/>
     <use xlink:href="#DejaVuSans-69" x="175.341797"/>
    </g>
   </g>
   <g id="text_44">
    <!-- 0% -->
    <g transform="translate(392.266553 1313.232275)scale(0.0579 -0.0579)">
     <defs>
      <path id="DejaVuSans-30" d="M 2034 4250 
Q 1547 4250 1301 3770 
Q 1056 3291 1056 2328 
Q 1056 1369 1301 889 
Q 1547 409 2034 409 
Q 2525 409 2770 889 
Q 3016 1369 3016 2328 
Q 3016 3291 2770 3770 
Q 2525 4250 2034 4250 
z
M 2034 4750 
Q 2819 4750 3233 4129 
Q 3647 3509 3647 2328 
Q 3647 1150 3233 529 
Q 2819 -91 2034 -91 
Q 1250 -91 836 529 
Q 422 1150 422 2328 
Q 422 3509 836 4129 
Q 1250 4750 2034 4750 
z
" transform="scale(0.015625)"/>
     </defs>
     <use xlink:href="#DejaVuSans-30"/>
     <use xlink:href="#DejaVuSans-25" x="63.623047"/>
    </g>
   </g>
   <g id="text_45">
    <!-- Lebanon -->
    <g transform="translate(72.020564 1218.122413)scale(0.0579 -0.0579)">
     <defs>
      <path id="DejaVuSans-4c" d="M 628 4666 
L 1259 4666 
L 1259 531 
L 3531 531 
L 3531 0 
L 628 0 
L 628 4666 
z
" transform="scale(0.015625)"/>
     </defs>
     <use xlink:href="#DejaVuSans-4c"/>
     <use xlink:href="#DejaVuSans-65" x="53.962891"/>
     <use xlink:href="#DejaVuSans-62" x="115.486328"/>
     <use xlink:href="#DejaVuSans-61" x="178.962891"/>
     <use xlink:href="#DejaVuSans-6e" x="240.242188"/>
     <use xlink:href="#DejaVuSans-6f" x="303.621094"/>
     <use xlink:href="#DejaVuSans-6e" x="364.802734"/>
    </g>
   </g>
   <g id="text_46">
    <!-- 0% -->
    <g transform="translate(389.038817 1322.090844)scale(0.0579 -0.0579)">
     <use xlink:href="#DejaVuSans-30"/>
     <use xlink:href="#DejaVuSans-25" x="63.623047"/>
    </g>
   </g>
   <g id="text_47">
    <!-- Jordan -->
    <g transform="translate(72.880496 1234.505876)scale(0.0579 -0.0579)">
     <defs>
      <path id="DejaVuSans-4a" d="M 628 4666 
L 1259 4666 
L 1259 325 
Q 1259 -519 939 -900 
Q 619 -1281 -91 -1281 
L -331 -1281 
L -331 -750 
L -134 -750 
Q 284 -750 456 -515 
Q 628 -281 628 325 
L 628 4666 
z
" transform="scale(0.015625)"/>
     </defs>
     <use xlink:href="#DejaVuSans-4a"/>
     <use xlink:href="#DejaVuSans-6f" x="29.492188"/>
     <use xlink:href="#DejaVuSans-72" x="90.673828"/>
     <use xlink:href="#DejaVuSans-64" x="130.037109"/>
     <use xlink:href="#DejaVuSans-61" x="193.513672"/>
     <use xlink:href="#DejaVuSans-6e" x="254.792969"/>
    </g>
   </g>
   <g id="text_48">
    <!-- 0% -->
    <g transform="translate(386.033377 1331.027278)scale(0.0579 -0.0579)">
     <use xlink:href="#DejaVuSans-30"/>
     <use xlink:href="#DejaVuSans-25" x="63.623047"/>
    </g>
   </g>
   <g id="text_49">
    <!-- Sierra Leone -->
    <g transform="translate(49.847884 1251.021867)scale(0.0579 -0.0579)">
     <use xlink:href="#DejaVuSans-53"/>
     <use xlink:href="#DejaVuSans-69" x="63.476562"/>
     <use xlink:href="#DejaVuSans-65" x="91.259766"/>
     <use xlink:href="#DejaVuSans-72" x="152.783203"/>
     <use xlink:href="#DejaVuSans-72" x="192.146484"/>
     <use xlink:href="#DejaVuSans-61" x="233.259766"/>
     <use xlink:href="#DejaVuSans-20" x="294.539062"/>
     <use xlink:href="#DejaVuSans-4c" x="326.326172"/>
     <use xlink:href="#DejaVuSans-65" x="380.289062"/>
     <use xlink:href="#DejaVuSans-6f" x="441.8125"/>
     <use xlink:href="#DejaVuSans-6e" x="502.994141"/>
     <use xlink:href="#DejaVuSans-65" x="566.373047"/>
    </g>
   </g>
   <g id="text_50">
    <!-- 0% -->
    <g transform="translate(383.252109 1340.036)scale(0.0579 -0.0579)">
     <use xlink:href="#DejaVuSans-30"/>
     <use xlink:href="#DejaVuSans-25" x="63.623047"/>
    </g>
   </g>
   <g id="text_51">
    <!-- Antigua and Barbuda -->
    <g transform="translate(20.074264 1267.660077)scale(0.0579 -0.0579)">
     <use xlink:href="#DejaVuSans-41"/>
     <use xlink:href="#DejaVuSans-6e" x="68.408203"/>
     <use xlink:href="#DejaVuSans-74" x="131.787109"/>
     <use xlink:href="#DejaVuSans-69" x="170.996094"/>
     <use xlink:href="#DejaVuSans-67" x="198.779297"/>
     <use xlink:href="#DejaVuSans-75" x="262.255859"/>
     <use xlink:href="#DejaVuSans-61" x="325.634766"/>
     <use xlink:href="#DejaVuSans-20" x="386.914062"/>
     <use xlink:href="#DejaVuSans-61" x="418.701172"/>
     <use xlink:href="#DejaVuSans-6e" x="479.980469"/>
     <use xlink:href="#DejaVuSans-64" x="543.359375"/>
     <use xlink:href="#DejaVuSans-20" x="606.835938"/>
     <use xlink:href="#DejaVuSans-42" x="638.623047"/>
     <use xlink:href="#DejaVuSans-61" x="707.226562"/>
     <use xlink:href="#DejaVuSans-72" x="768.505859"/>
     <use xlink:href="#DejaVuSans-62" x="809.619141"/>
     <use xlink:href="#DejaVuSans-75" x="873.095703"/>
     <use xlink:href="#DejaVuSans-64" x="936.474609"/>
     <use xlink:href="#DejaVuSans-61" x="999.951172"/>
    </g>
   </g>
   <g id="text_52">
    <!-- 0% -->
    <g transform="translate(380.696749 1349.111388)scale(0.0579 -0.0579)">
     <use xlink:href="#DejaVuSans-30"/>
     <use xlink:href="#DejaVuSans-25" x="63.623047"/>
    </g>
   </g>
   <g id="text_53">
    <!-- Colombia -->
    <g transform="translate(51.070298 1280.212698)scale(0.0579 -0.0579)">
     <use xlink:href="#DejaVuSans-43"/>
     <use xlink:href="#DejaVuSans-6f" x="69.824219"/>
     <use xlink:href="#DejaVuSans-6c" x="131.005859"/>
     <use xlink:href="#DejaVuSans-6f" x="158.789062"/>
     <use xlink:href="#DejaVuSans-6d" x="219.970703"/>
     <use xlink:href="#DejaVuSans-62" x="317.382812"/>
     <use xlink:href="#DejaVuSans-69" x="380.859375"/>
     <use xlink:href="#DejaVuSans-61" x="408.642578"/>
    </g>
   </g>
   <g id="text_54">
    <!-- 0% -->
    <g transform="translate(378.929446 1355.958272)scale(0.0579 -0.0579)">
     <use xlink:href="#DejaVuSans-30"/>
     <use xlink:href="#DejaVuSans-25" x="63.623047"/>
    </g>
   </g>
   <g id="text_55">
    <!-- Venezuela -->
    <g transform="translate(46.516186 1288.613886)scale(0.0579 -0.0579)">
     <defs>
      <path id="DejaVuSans-56" d="M 1831 0 
L 50 4666 
L 709 4666 
L 2188 738 
L 3669 4666 
L 4325 4666 
L 2547 0 
L 1831 0 
z
" transform="scale(0.015625)"/>
     </defs>
     <use xlink:href="#DejaVuSans-56"/>
     <use xlink:href="#DejaVuSans-65" x="60.658203"/>
     <use xlink:href="#DejaVuSans-6e" x="122.181641"/>
     <use xlink:href="#DejaVuSans-65" x="185.560547"/>
     <use xlink:href="#DejaVuSans-7a" x="247.083984"/>
     <use xlink:href="#DejaVuSans-75" x="299.574219"/>
     <use xlink:href="#DejaVuSans-65" x="362.953125"/>
     <use xlink:href="#DejaVuSans-6c" x="424.476562"/>
     <use xlink:href="#DejaVuSans-61" x="452.259766"/>
    </g>
   </g>
   <g id="text_56">
    <!-- 0% -->
    <g transform="translate(377.822649 1360.540738)scale(0.0579 -0.0579)">
     <use xlink:href="#DejaVuSans-30"/>
     <use xlink:href="#DejaVuSans-25" x="63.623047"/>
    </g>
   </g>
   <g id="text_57">
    <!-- Ethiopia -->
    <g transform="translate(50.744936 1297.039765)scale(0.0579 -0.0579)">
     <use xlink:href="#DejaVuSans-45"/>
     <use xlink:href="#DejaVuSans-74" x="63.183594"/>
     <use xlink:href="#DejaVuSans-68" x="102.392578"/>
     <use xlink:href="#DejaVuSans-69" x="165.771484"/>
     <use xlink:href="#DejaVuSans-6f" x="193.554688"/>
     <use xlink:href="#DejaVuSans-70" x="254.736328"/>
     <use xlink:href="#DejaVuSans-69" x="318.212891"/>
     <use xlink:href="#DejaVuSans-61" x="345.996094"/>
    </g>
   </g>
   <g id="text_58">
    <!-- 0% -->
    <g transform="translate(376.773178 1365.136672)scale(0.0579 -0.0579)">
     <use xlink:href="#DejaVuSans-30"/>
     <use xlink:href="#DejaVuSans-25" x="63.623047"/>
    </g>
   </g>
   <g id="text_59">
    <!-- Slovakia -->
    <g transform="translate(48.196221 1305.48902)scale(0.0579 -0.0579)">
     <use xlink:href="#DejaVuSans-53"/>
     <use xlink:href="#DejaVuSans-6c" x="63.476562"/>
     <use xlink:href="#DejaVuSans-6f" x="91.259766"/>
     <use xlink:href="#DejaVuSans-76" x="152.441406"/>
     <use xlink:href="#DejaVuSans-61" x="211.621094"/>
     <use xlink:href="#DejaVuSans-6b" x="272.900391"/>
     <use xlink:href="#DejaVuSans-69" x="330.810547"/>
     <use xlink:href="#DejaVuSans-61" x="358.59375"/>
    </g>
   </g>
   <g id="text_60">
    <!-- 0% -->
    <g transform="translate(375.781197 1369.745357)scale(0.0579 -0.0579)">
     <use xlink:href="#DejaVuSans-30"/>
     <use xlink:href="#DejaVuSans-25" x="63.623047"/>
    </g>
   </g>
   <g id="text_61">
    <!-- Bahrain -->
    <g transform="translate(48.398495 1313.960332)scale(0.0579 -0.0579)">
     <use xlink:href="#DejaVuSans-42"/>
     <use xlink:href="#DejaVuSans-61" x="68.603516"/>
     <use xlink:href="#DejaVuSans-68" x="129.882812"/>
     <use xlink:href="#DejaVuSans-72" x="193.261719"/>
     <use xlink:href="#DejaVuSans-61" x="234.375"/>
     <use xlink:href="#DejaVuSans-69" x="295.654297"/>
     <use xlink:href="#DejaVuSans-6e" x="323.4375"/>
    </g>
   </g>
   <g id="text_62">
    <!-- 0% -->
    <g transform="translate(374.846861 1374.366072)scale(0.0579 -0.0579)">
     <use xlink:href="#DejaVuSans-30"/>
     <use xlink:href="#DejaVuSans-25" x="63.623047"/>
    </g>
   </g>
   <g id="text_63">
    <!-- Iran -->
    <g transform="translate(57.882059 1322.45238)scale(0.0579 -0.0579)">
     <use xlink:href="#DejaVuSans-49"/>
     <use xlink:href="#DejaVuSans-72" x="29.492188"/>
     <use xlink:href="#DejaVuSans-61" x="70.605469"/>
     <use xlink:href="#DejaVuSans-6e" x="131.884766"/>
    </g>
   </g>
   <g id="text_64">
    <!-- 0% -->
    <g transform="translate(373.970315 1378.998099)scale(0.0579 -0.0579)">
     <use xlink:href="#DejaVuSans-30"/>
     <use xlink:href="#DejaVuSans-25" x="63.623047"/>
    </g>
   </g>
   <g id="text_65">
    <!-- France Inbound InBound Flight distribution -->
    <g transform="translate(620.020461 20.8)scale(0.12 -0.12)">
     <use xlink:href="#DejaVuSans-46"/>
     <use xlink:href="#DejaVuSans-72" x="50.269531"/>
     <use xlink:href="#DejaVuSans-61" x="91.382812"/>
     <use xlink:href="#DejaVuSans-6e" x="152.662109"/>
     <use xlink:href="#DejaVuSans-63" x="216.041016"/>
     <use xlink:href="#DejaVuSans-65" x="271.021484"/>
     <use xlink:href="#DejaVuSans-20" x="332.544922"/>
     <use xlink:href="#DejaVuSans-49" x="364.332031"/>
     <use xlink:href="#DejaVuSans-6e" x="393.824219"/>
     <use xlink:href="#DejaVuSans-62" x="457.203125"/>
     <use xlink:href="#DejaVuSans-6f" x="520.679688"/>
     <use xlink:href="#DejaVuSans-75" x="581.861328"/>
     <use xlink:href="#DejaVuSans-6e" x="645.240234"/>
     <use xlink:href="#DejaVuSans-64" x="708.619141"/>
     <use xlink:href="#DejaVuSans-20" x="772.095703"/>
     <use xlink:href="#DejaVuSans-49" x="803.882812"/>
     <use xlink:href="#DejaVuSans-6e" x="833.375"/>
     <use xlink:href="#DejaVuSans-42" x="896.753906"/>
     <use xlink:href="#DejaVuSans-6f" x="965.357422"/>
     <use xlink:href="#DejaVuSans-75" x="1026.539062"/>
     <use xlink:href="#DejaVuSans-6e" x="1089.917969"/>
     <use xlink:href="#DejaVuSans-64" x="1153.296875"/>
     <use xlink:href="#DejaVuSans-20" x="1216.773438"/>
     <use xlink:href="#DejaVuSans-46" x="1248.560547"/>
     <use xlink:href="#DejaVuSans-6c" x="1306.080078"/>
     <use xlink:href="#DejaVuSans-69" x="1333.863281"/>
     <use xlink:href="#DejaVuSans-67" x="1361.646484"/>
     <use xlink:href="#DejaVuSans-68" x="1425.123047"/>
     <use xlink:href="#DejaVuSans-74" x="1488.501953"/>
     <use xlink:href="#DejaVuSans-20" x="1527.710938"/>
     <use xlink:href="#DejaVuSans-64" x="1559.498047"/>
     <use xlink:href="#DejaVuSans-69" x="1622.974609"/>
     <use xlink:href="#DejaVuSans-73" x="1650.757812"/>
     <use xlink:href="#DejaVuSans-74" x="1702.857422"/>
     <use xlink:href="#DejaVuSans-72" x="1742.066406"/>
     <use xlink:href="#DejaVuSans-69" x="1783.179688"/>
     <use xlink:href="#DejaVuSans-62" x="1810.962891"/>
     <use xlink:href="#DejaVuSans-75" x="1874.439453"/>
     <use xlink:href="#DejaVuSans-74" x="1937.818359"/>
     <use xlink:href="#DejaVuSans-69" x="1977.027344"/>
     <use xlink:href="#DejaVuSans-6f" x="2004.810547"/>
     <use xlink:href="#DejaVuSans-6e" x="2065.992188"/>
    </g>
   </g>
  </g>
  <g id="axes_2">
   <g id="legend_1">
    <g id="patch_34">
     <path d="M 1480.706722 1684.35 
L 1619.706722 1684.35 
Q 1621.706722 1684.35 1621.706722 1682.35 
L 1621.706722 1213.65 
Q 1621.706722 1211.65 1619.706722 1211.65 
L 1480.706722 1211.65 
Q 1478.706722 1211.65 1478.706722 1213.65 
L 1478.706722 1682.35 
Q 1478.706722 1684.35 1480.706722 1684.35 
z
" style="fill: #ffffff; opacity: 0.8; stroke: #cccccc; stroke-linejoin: miter"/>
    </g>
    <g id="patch_35">
     <path d="M 1482.706722 1223.248437 
L 1502.706722 1223.248437 
L 1502.706722 1216.248437 
L 1482.706722 1216.248437 
z
" style="fill: #8000ff"/>
    </g>
    <g id="text_66">
     <!-- Italy -->
     <g transform="translate(1510.706722 1223.248437)scale(0.1 -0.1)">
      <use xlink:href="#DejaVuSans-49"/>
      <use xlink:href="#DejaVuSans-74" x="29.492188"/>
      <use xlink:href="#DejaVuSans-61" x="68.701172"/>
      <use xlink:href="#DejaVuSans-6c" x="129.980469"/>
      <use xlink:href="#DejaVuSans-79" x="157.763672"/>
     </g>
    </g>
    <g id="patch_36">
     <path d="M 1482.706722 1237.926562 
L 1502.706722 1237.926562 
L 1502.706722 1230.926562 
L 1482.706722 1230.926562 
z
" style="fill: #7019ff"/>
    </g>
    <g id="text_67">
     <!-- Morocco -->
     <g transform="translate(1510.706722 1237.926562)scale(0.1 -0.1)">
      <use xlink:href="#DejaVuSans-4d"/>
      <use xlink:href="#DejaVuSans-6f" x="86.279297"/>
      <use xlink:href="#DejaVuSans-72" x="147.460938"/>
      <use xlink:href="#DejaVuSans-6f" x="186.324219"/>
      <use xlink:href="#DejaVuSans-63" x="247.505859"/>
      <use xlink:href="#DejaVuSans-63" x="302.486328"/>
      <use xlink:href="#DejaVuSans-6f" x="357.466797"/>
     </g>
    </g>
    <g id="patch_37">
     <path d="M 1482.706722 1252.604687 
L 1502.706722 1252.604687 
L 1502.706722 1245.604687 
L 1482.706722 1245.604687 
z
" style="fill: #6032fe"/>
    </g>
    <g id="text_68">
     <!-- Algeria -->
     <g transform="translate(1510.706722 1252.604687)scale(0.1 -0.1)">
      <use xlink:href="#DejaVuSans-41"/>
      <use xlink:href="#DejaVuSans-6c" x="68.408203"/>
      <use xlink:href="#DejaVuSans-67" x="96.191406"/>
      <use xlink:href="#DejaVuSans-65" x="159.667969"/>
      <use xlink:href="#DejaVuSans-72" x="221.191406"/>
      <use xlink:href="#DejaVuSans-69" x="262.304688"/>
      <use xlink:href="#DejaVuSans-61" x="290.087891"/>
     </g>
    </g>
    <g id="patch_38">
     <path d="M 1482.706722 1267.282812 
L 1502.706722 1267.282812 
L 1502.706722 1260.282812 
L 1482.706722 1260.282812 
z
" style="fill: #504afc"/>
    </g>
    <g id="text_69">
     <!-- Belgium -->
     <g transform="translate(1510.706722 1267.282812)scale(0.1 -0.1)">
      <use xlink:href="#DejaVuSans-42"/>
      <use xlink:href="#DejaVuSans-65" x="68.603516"/>
      <use xlink:href="#DejaVuSans-6c" x="130.126953"/>
      <use xlink:href="#DejaVuSans-67" x="157.910156"/>
      <use xlink:href="#DejaVuSans-69" x="221.386719"/>
      <use xlink:href="#DejaVuSans-75" x="249.169922"/>
      <use xlink:href="#DejaVuSans-6d" x="312.548828"/>
     </g>
    </g>
    <g id="patch_39">
     <path d="M 1482.706722 1281.960938 
L 1502.706722 1281.960938 
L 1502.706722 1274.960938 
L 1482.706722 1274.960938 
z
" style="fill: #4062fa"/>
    </g>
    <g id="text_70">
     <!-- Netherlands -->
     <g transform="translate(1510.706722 1281.960938)scale(0.1 -0.1)">
      <use xlink:href="#DejaVuSans-4e"/>
      <use xlink:href="#DejaVuSans-65" x="74.804688"/>
      <use xlink:href="#DejaVuSans-74" x="136.328125"/>
      <use xlink:href="#DejaVuSans-68" x="175.537109"/>
      <use xlink:href="#DejaVuSans-65" x="238.916016"/>
      <use xlink:href="#DejaVuSans-72" x="300.439453"/>
      <use xlink:href="#DejaVuSans-6c" x="341.552734"/>
      <use xlink:href="#DejaVuSans-61" x="369.335938"/>
      <use xlink:href="#DejaVuSans-6e" x="430.615234"/>
      <use xlink:href="#DejaVuSans-64" x="493.994141"/>
      <use xlink:href="#DejaVuSans-73" x="557.470703"/>
     </g>
    </g>
    <g id="patch_40">
     <path d="M 1482.706722 1296.639062 
L 1502.706722 1296.639062 
L 1502.706722 1289.639062 
L 1482.706722 1289.639062 
z
" style="fill: #3079f7"/>
    </g>
    <g id="text_71">
     <!-- Greece -->
     <g transform="translate(1510.706722 1296.639062)scale(0.1 -0.1)">
      <use xlink:href="#DejaVuSans-47"/>
      <use xlink:href="#DejaVuSans-72" x="77.490234"/>
      <use xlink:href="#DejaVuSans-65" x="116.353516"/>
      <use xlink:href="#DejaVuSans-65" x="177.876953"/>
      <use xlink:href="#DejaVuSans-63" x="239.400391"/>
      <use xlink:href="#DejaVuSans-65" x="294.380859"/>
     </g>
    </g>
    <g id="patch_41">
     <path d="M 1482.706722 1311.317187 
L 1502.706722 1311.317187 
L 1502.706722 1304.317187 
L 1482.706722 1304.317187 
z
" style="fill: #208ef4"/>
    </g>
    <g id="text_72">
     <!-- Sweden -->
     <g transform="translate(1510.706722 1311.317187)scale(0.1 -0.1)">
      <use xlink:href="#DejaVuSans-53"/>
      <use xlink:href="#DejaVuSans-77" x="63.476562"/>
      <use xlink:href="#DejaVuSans-65" x="145.263672"/>
      <use xlink:href="#DejaVuSans-64" x="206.787109"/>
      <use xlink:href="#DejaVuSans-65" x="270.263672"/>
      <use xlink:href="#DejaVuSans-6e" x="331.787109"/>
     </g>
    </g>
    <g id="patch_42">
     <path d="M 1482.706722 1325.995312 
L 1502.706722 1325.995312 
L 1502.706722 1318.995312 
L 1482.706722 1318.995312 
z
" style="fill: #10a2f0"/>
    </g>
    <g id="text_73">
     <!-- Denmark -->
     <g transform="translate(1510.706722 1325.995312)scale(0.1 -0.1)">
      <use xlink:href="#DejaVuSans-44"/>
      <use xlink:href="#DejaVuSans-65" x="77.001953"/>
      <use xlink:href="#DejaVuSans-6e" x="138.525391"/>
      <use xlink:href="#DejaVuSans-6d" x="201.904297"/>
      <use xlink:href="#DejaVuSans-61" x="299.316406"/>
      <use xlink:href="#DejaVuSans-72" x="360.595703"/>
      <use xlink:href="#DejaVuSans-6b" x="401.708984"/>
     </g>
    </g>
    <g id="patch_43">
     <path d="M 1482.706722 1340.673437 
L 1502.706722 1340.673437 
L 1502.706722 1333.673437 
L 1482.706722 1333.673437 
z
" style="fill: #00b5eb"/>
    </g>
    <g id="text_74">
     <!-- China -->
     <g transform="translate(1510.706722 1340.673437)scale(0.1 -0.1)">
      <use xlink:href="#DejaVuSans-43"/>
      <use xlink:href="#DejaVuSans-68" x="69.824219"/>
      <use xlink:href="#DejaVuSans-69" x="133.203125"/>
      <use xlink:href="#DejaVuSans-6e" x="160.986328"/>
      <use xlink:href="#DejaVuSans-61" x="224.365234"/>
     </g>
    </g>
    <g id="patch_44">
     <path d="M 1482.706722 1355.351562 
L 1502.706722 1355.351562 
L 1502.706722 1348.351562 
L 1482.706722 1348.351562 
z
" style="fill: #10c6e6"/>
    </g>
    <g id="text_75">
     <!-- United Arab Emirates -->
     <g transform="translate(1510.706722 1355.351562)scale(0.1 -0.1)">
      <use xlink:href="#DejaVuSans-55"/>
      <use xlink:href="#DejaVuSans-6e" x="73.193359"/>
      <use xlink:href="#DejaVuSans-69" x="136.572266"/>
      <use xlink:href="#DejaVuSans-74" x="164.355469"/>
      <use xlink:href="#DejaVuSans-65" x="203.564453"/>
      <use xlink:href="#DejaVuSans-64" x="265.087891"/>
      <use xlink:href="#DejaVuSans-20" x="328.564453"/>
      <use xlink:href="#DejaVuSans-41" x="360.351562"/>
      <use xlink:href="#DejaVuSans-72" x="428.759766"/>
      <use xlink:href="#DejaVuSans-61" x="469.873047"/>
      <use xlink:href="#DejaVuSans-62" x="531.152344"/>
      <use xlink:href="#DejaVuSans-20" x="594.628906"/>
      <use xlink:href="#DejaVuSans-45" x="626.416016"/>
      <use xlink:href="#DejaVuSans-6d" x="689.599609"/>
      <use xlink:href="#DejaVuSans-69" x="787.011719"/>
      <use xlink:href="#DejaVuSans-72" x="814.794922"/>
      <use xlink:href="#DejaVuSans-61" x="855.908203"/>
      <use xlink:href="#DejaVuSans-74" x="917.1875"/>
      <use xlink:href="#DejaVuSans-65" x="956.396484"/>
      <use xlink:href="#DejaVuSans-73" x="1017.919922"/>
     </g>
    </g>
    <g id="patch_45">
     <path d="M 1482.706722 1370.029687 
L 1502.706722 1370.029687 
L 1502.706722 1363.029687 
L 1482.706722 1363.029687 
z
" style="fill: #20d5e1"/>
    </g>
    <g id="text_76">
     <!-- Guadeloupe -->
     <g transform="translate(1510.706722 1370.029687)scale(0.1 -0.1)">
      <use xlink:href="#DejaVuSans-47"/>
      <use xlink:href="#DejaVuSans-75" x="77.490234"/>
      <use xlink:href="#DejaVuSans-61" x="140.869141"/>
      <use xlink:href="#DejaVuSans-64" x="202.148438"/>
      <use xlink:href="#DejaVuSans-65" x="265.625"/>
      <use xlink:href="#DejaVuSans-6c" x="327.148438"/>
      <use xlink:href="#DejaVuSans-6f" x="354.931641"/>
      <use xlink:href="#DejaVuSans-75" x="416.113281"/>
      <use xlink:href="#DejaVuSans-70" x="479.492188"/>
      <use xlink:href="#DejaVuSans-65" x="542.96875"/>
     </g>
    </g>
    <g id="patch_46">
     <path d="M 1482.706722 1384.707812 
L 1502.706722 1384.707812 
L 1502.706722 1377.707812 
L 1482.706722 1377.707812 
z
" style="fill: #30e1da"/>
    </g>
    <g id="text_77">
     <!-- Hungary -->
     <g transform="translate(1510.706722 1384.707812)scale(0.1 -0.1)">
      <use xlink:href="#DejaVuSans-48"/>
      <use xlink:href="#DejaVuSans-75" x="75.195312"/>
      <use xlink:href="#DejaVuSans-6e" x="138.574219"/>
      <use xlink:href="#DejaVuSans-67" x="201.953125"/>
      <use xlink:href="#DejaVuSans-61" x="265.429688"/>
      <use xlink:href="#DejaVuSans-72" x="326.708984"/>
      <use xlink:href="#DejaVuSans-79" x="367.822266"/>
     </g>
    </g>
    <g id="patch_47">
     <path d="M 1482.706722 1399.385937 
L 1502.706722 1399.385937 
L 1502.706722 1392.385937 
L 1482.706722 1392.385937 
z
" style="fill: #40ecd4"/>
    </g>
    <g id="text_78">
     <!-- Martinique -->
     <g transform="translate(1510.706722 1399.385937)scale(0.1 -0.1)">
      <use xlink:href="#DejaVuSans-4d"/>
      <use xlink:href="#DejaVuSans-61" x="86.279297"/>
      <use xlink:href="#DejaVuSans-72" x="147.558594"/>
      <use xlink:href="#DejaVuSans-74" x="188.671875"/>
      <use xlink:href="#DejaVuSans-69" x="227.880859"/>
      <use xlink:href="#DejaVuSans-6e" x="255.664062"/>
      <use xlink:href="#DejaVuSans-69" x="319.042969"/>
      <use xlink:href="#DejaVuSans-71" x="346.826172"/>
      <use xlink:href="#DejaVuSans-75" x="410.302734"/>
      <use xlink:href="#DejaVuSans-65" x="473.681641"/>
     </g>
    </g>
    <g id="patch_48">
     <path d="M 1482.706722 1414.064062 
L 1502.706722 1414.064062 
L 1502.706722 1407.064062 
L 1482.706722 1407.064062 
z
" style="fill: #50f4cc"/>
    </g>
    <g id="text_79">
     <!-- Congo (Brazzaville) -->
     <g transform="translate(1510.706722 1414.064062)scale(0.1 -0.1)">
      <use xlink:href="#DejaVuSans-43"/>
      <use xlink:href="#DejaVuSans-6f" x="69.824219"/>
      <use xlink:href="#DejaVuSans-6e" x="131.005859"/>
      <use xlink:href="#DejaVuSans-67" x="194.384766"/>
      <use xlink:href="#DejaVuSans-6f" x="257.861328"/>
      <use xlink:href="#DejaVuSans-20" x="319.042969"/>
      <use xlink:href="#DejaVuSans-28" x="350.830078"/>
      <use xlink:href="#DejaVuSans-42" x="389.84375"/>
      <use xlink:href="#DejaVuSans-72" x="458.447266"/>
      <use xlink:href="#DejaVuSans-61" x="499.560547"/>
      <use xlink:href="#DejaVuSans-7a" x="560.839844"/>
      <use xlink:href="#DejaVuSans-7a" x="613.330078"/>
      <use xlink:href="#DejaVuSans-61" x="665.820312"/>
      <use xlink:href="#DejaVuSans-76" x="727.099609"/>
      <use xlink:href="#DejaVuSans-69" x="786.279297"/>
      <use xlink:href="#DejaVuSans-6c" x="814.0625"/>
      <use xlink:href="#DejaVuSans-6c" x="841.845703"/>
      <use xlink:href="#DejaVuSans-65" x="869.628906"/>
      <use xlink:href="#DejaVuSans-29" x="931.152344"/>
     </g>
    </g>
    <g id="patch_49">
     <path d="M 1482.706722 1428.742187 
L 1502.706722 1428.742187 
L 1502.706722 1421.742187 
L 1482.706722 1421.742187 
z
" style="fill: #60fac5"/>
    </g>
    <g id="text_80">
     <!-- Brazil -->
     <g transform="translate(1510.706722 1428.742187)scale(0.1 -0.1)">
      <use xlink:href="#DejaVuSans-42"/>
      <use xlink:href="#DejaVuSans-72" x="68.603516"/>
      <use xlink:href="#DejaVuSans-61" x="109.716797"/>
      <use xlink:href="#DejaVuSans-7a" x="170.996094"/>
      <use xlink:href="#DejaVuSans-69" x="223.486328"/>
      <use xlink:href="#DejaVuSans-6c" x="251.269531"/>
     </g>
    </g>
    <g id="patch_50">
     <path d="M 1482.706722 1443.420312 
L 1502.706722 1443.420312 
L 1502.706722 1436.420312 
L 1482.706722 1436.420312 
z
" style="fill: #70febc"/>
    </g>
    <g id="text_81">
     <!-- India -->
     <g transform="translate(1510.706722 1443.420312)scale(0.1 -0.1)">
      <use xlink:href="#DejaVuSans-49"/>
      <use xlink:href="#DejaVuSans-6e" x="29.492188"/>
      <use xlink:href="#DejaVuSans-64" x="92.871094"/>
      <use xlink:href="#DejaVuSans-69" x="156.347656"/>
      <use xlink:href="#DejaVuSans-61" x="184.130859"/>
     </g>
    </g>
    <g id="patch_51">
     <path d="M 1482.706722 1458.098437 
L 1502.706722 1458.098437 
L 1502.706722 1451.098437 
L 1482.706722 1451.098437 
z
" style="fill: #80ffb4"/>
    </g>
    <g id="text_82">
     <!-- Nigeria -->
     <g transform="translate(1510.706722 1458.098437)scale(0.1 -0.1)">
      <use xlink:href="#DejaVuSans-4e"/>
      <use xlink:href="#DejaVuSans-69" x="74.804688"/>
      <use xlink:href="#DejaVuSans-67" x="102.587891"/>
      <use xlink:href="#DejaVuSans-65" x="166.064453"/>
      <use xlink:href="#DejaVuSans-72" x="227.587891"/>
      <use xlink:href="#DejaVuSans-69" x="268.701172"/>
      <use xlink:href="#DejaVuSans-61" x="296.484375"/>
     </g>
    </g>
    <g id="patch_52">
     <path d="M 1482.706722 1472.776562 
L 1502.706722 1472.776562 
L 1502.706722 1465.776562 
L 1482.706722 1465.776562 
z
" style="fill: #90feab"/>
    </g>
    <g id="text_83">
     <!-- Serbia -->
     <g transform="translate(1510.706722 1472.776562)scale(0.1 -0.1)">
      <use xlink:href="#DejaVuSans-53"/>
      <use xlink:href="#DejaVuSans-65" x="63.476562"/>
      <use xlink:href="#DejaVuSans-72" x="125"/>
      <use xlink:href="#DejaVuSans-62" x="166.113281"/>
      <use xlink:href="#DejaVuSans-69" x="229.589844"/>
      <use xlink:href="#DejaVuSans-61" x="257.373047"/>
     </g>
    </g>
    <g id="patch_53">
     <path d="M 1482.706722 1487.454687 
L 1502.706722 1487.454687 
L 1502.706722 1480.454687 
L 1482.706722 1480.454687 
z
" style="fill: #a0faa1"/>
    </g>
    <g id="text_84">
     <!-- Thailand -->
     <g transform="translate(1510.706722 1487.454687)scale(0.1 -0.1)">
      <use xlink:href="#DejaVuSans-54"/>
      <use xlink:href="#DejaVuSans-68" x="61.083984"/>
      <use xlink:href="#DejaVuSans-61" x="124.462891"/>
      <use xlink:href="#DejaVuSans-69" x="185.742188"/>
      <use xlink:href="#DejaVuSans-6c" x="213.525391"/>
      <use xlink:href="#DejaVuSans-61" x="241.308594"/>
      <use xlink:href="#DejaVuSans-6e" x="302.587891"/>
      <use xlink:href="#DejaVuSans-64" x="365.966797"/>
     </g>
    </g>
    <g id="patch_54">
     <path d="M 1482.706722 1502.132812 
L 1502.706722 1502.132812 
L 1502.706722 1495.132812 
L 1482.706722 1495.132812 
z
" style="fill: #b0f397"/>
    </g>
    <g id="text_85">
     <!-- Cote d'Ivoire -->
     <g transform="translate(1510.706722 1502.132812)scale(0.1 -0.1)">
      <use xlink:href="#DejaVuSans-43"/>
      <use xlink:href="#DejaVuSans-6f" x="69.824219"/>
      <use xlink:href="#DejaVuSans-74" x="131.005859"/>
      <use xlink:href="#DejaVuSans-65" x="170.214844"/>
      <use xlink:href="#DejaVuSans-20" x="231.738281"/>
      <use xlink:href="#DejaVuSans-64" x="263.525391"/>
      <use xlink:href="#DejaVuSans-27" x="327.001953"/>
      <use xlink:href="#DejaVuSans-49" x="354.492188"/>
      <use xlink:href="#DejaVuSans-76" x="383.984375"/>
      <use xlink:href="#DejaVuSans-6f" x="443.164062"/>
      <use xlink:href="#DejaVuSans-69" x="504.345703"/>
      <use xlink:href="#DejaVuSans-72" x="532.128906"/>
      <use xlink:href="#DejaVuSans-65" x="570.992188"/>
     </g>
    </g>
    <g id="patch_55">
     <path d="M 1482.706722 1516.810937 
L 1502.706722 1516.810937 
L 1502.706722 1509.810937 
L 1482.706722 1509.810937 
z
" style="fill: #c0eb8d"/>
    </g>
    <g id="text_86">
     <!-- French Guiana -->
     <g transform="translate(1510.706722 1516.810937)scale(0.1 -0.1)">
      <use xlink:href="#DejaVuSans-46"/>
      <use xlink:href="#DejaVuSans-72" x="50.269531"/>
      <use xlink:href="#DejaVuSans-65" x="89.132812"/>
      <use xlink:href="#DejaVuSans-6e" x="150.65625"/>
      <use xlink:href="#DejaVuSans-63" x="214.035156"/>
      <use xlink:href="#DejaVuSans-68" x="269.015625"/>
      <use xlink:href="#DejaVuSans-20" x="332.394531"/>
      <use xlink:href="#DejaVuSans-47" x="364.181641"/>
      <use xlink:href="#DejaVuSans-75" x="441.671875"/>
      <use xlink:href="#DejaVuSans-69" x="505.050781"/>
      <use xlink:href="#DejaVuSans-61" x="532.833984"/>
      <use xlink:href="#DejaVuSans-6e" x="594.113281"/>
      <use xlink:href="#DejaVuSans-61" x="657.492188"/>
     </g>
    </g>
    <g id="patch_56">
     <path d="M 1482.706722 1531.489062 
L 1502.706722 1531.489062 
L 1502.706722 1524.489062 
L 1482.706722 1524.489062 
z
" style="fill: #d0e082"/>
    </g>
    <g id="text_87">
     <!-- Mali -->
     <g transform="translate(1510.706722 1531.489062)scale(0.1 -0.1)">
      <use xlink:href="#DejaVuSans-4d"/>
      <use xlink:href="#DejaVuSans-61" x="86.279297"/>
      <use xlink:href="#DejaVuSans-6c" x="147.558594"/>
      <use xlink:href="#DejaVuSans-69" x="175.341797"/>
     </g>
    </g>
    <g id="patch_57">
     <path d="M 1482.706722 1546.167187 
L 1502.706722 1546.167187 
L 1502.706722 1539.167187 
L 1482.706722 1539.167187 
z
" style="fill: #e0d377"/>
    </g>
    <g id="text_88">
     <!-- Lebanon -->
     <g transform="translate(1510.706722 1546.167187)scale(0.1 -0.1)">
      <use xlink:href="#DejaVuSans-4c"/>
      <use xlink:href="#DejaVuSans-65" x="53.962891"/>
      <use xlink:href="#DejaVuSans-62" x="115.486328"/>
      <use xlink:href="#DejaVuSans-61" x="178.962891"/>
      <use xlink:href="#DejaVuSans-6e" x="240.242188"/>
      <use xlink:href="#DejaVuSans-6f" x="303.621094"/>
      <use xlink:href="#DejaVuSans-6e" x="364.802734"/>
     </g>
    </g>
    <g id="patch_58">
     <path d="M 1482.706722 1560.845313 
L 1502.706722 1560.845313 
L 1502.706722 1553.845313 
L 1482.706722 1553.845313 
z
" style="fill: #f0c46c"/>
    </g>
    <g id="text_89">
     <!-- Jordan -->
     <g transform="translate(1510.706722 1560.845313)scale(0.1 -0.1)">
      <use xlink:href="#DejaVuSans-4a"/>
      <use xlink:href="#DejaVuSans-6f" x="29.492188"/>
      <use xlink:href="#DejaVuSans-72" x="90.673828"/>
      <use xlink:href="#DejaVuSans-64" x="130.037109"/>
      <use xlink:href="#DejaVuSans-61" x="193.513672"/>
      <use xlink:href="#DejaVuSans-6e" x="254.792969"/>
     </g>
    </g>
    <g id="patch_59">
     <path d="M 1482.706722 1575.523438 
L 1502.706722 1575.523438 
L 1502.706722 1568.523438 
L 1482.706722 1568.523438 
z
" style="fill: #ffb360"/>
    </g>
    <g id="text_90">
     <!-- Sierra Leone -->
     <g transform="translate(1510.706722 1575.523438)scale(0.1 -0.1)">
      <use xlink:href="#DejaVuSans-53"/>
      <use xlink:href="#DejaVuSans-69" x="63.476562"/>
      <use xlink:href="#DejaVuSans-65" x="91.259766"/>
      <use xlink:href="#DejaVuSans-72" x="152.783203"/>
      <use xlink:href="#DejaVuSans-72" x="192.146484"/>
      <use xlink:href="#DejaVuSans-61" x="233.259766"/>
      <use xlink:href="#DejaVuSans-20" x="294.539062"/>
      <use xlink:href="#DejaVuSans-4c" x="326.326172"/>
      <use xlink:href="#DejaVuSans-65" x="380.289062"/>
      <use xlink:href="#DejaVuSans-6f" x="441.8125"/>
      <use xlink:href="#DejaVuSans-6e" x="502.994141"/>
      <use xlink:href="#DejaVuSans-65" x="566.373047"/>
     </g>
    </g>
    <g id="patch_60">
     <path d="M 1482.706722 1590.201562 
L 1502.706722 1590.201562 
L 1502.706722 1583.201562 
L 1482.706722 1583.201562 
z
" style="fill: #ffa055"/>
    </g>
    <g id="text_91">
     <!-- Antigua and Barbuda -->
     <g transform="translate(1510.706722 1590.201562)scale(0.1 -0.1)">
      <use xlink:href="#DejaVuSans-41"/>
      <use xlink:href="#DejaVuSans-6e" x="68.408203"/>
      <use xlink:href="#DejaVuSans-74" x="131.787109"/>
      <use xlink:href="#DejaVuSans-69" x="170.996094"/>
      <use xlink:href="#DejaVuSans-67" x="198.779297"/>
      <use xlink:href="#DejaVuSans-75" x="262.255859"/>
      <use xlink:href="#DejaVuSans-61" x="325.634766"/>
      <use xlink:href="#DejaVuSans-20" x="386.914062"/>
      <use xlink:href="#DejaVuSans-61" x="418.701172"/>
      <use xlink:href="#DejaVuSans-6e" x="479.980469"/>
      <use xlink:href="#DejaVuSans-64" x="543.359375"/>
      <use xlink:href="#DejaVuSans-20" x="606.835938"/>
      <use xlink:href="#DejaVuSans-42" x="638.623047"/>
      <use xlink:href="#DejaVuSans-61" x="707.226562"/>
      <use xlink:href="#DejaVuSans-72" x="768.505859"/>
      <use xlink:href="#DejaVuSans-62" x="809.619141"/>
      <use xlink:href="#DejaVuSans-75" x="873.095703"/>
      <use xlink:href="#DejaVuSans-64" x="936.474609"/>
      <use xlink:href="#DejaVuSans-61" x="999.951172"/>
     </g>
    </g>
    <g id="patch_61">
     <path d="M 1482.706722 1604.879688 
L 1502.706722 1604.879688 
L 1502.706722 1597.879688 
L 1482.706722 1597.879688 
z
" style="fill: #ff8c49"/>
    </g>
    <g id="text_92">
     <!-- Colombia -->
     <g transform="translate(1510.706722 1604.879688)scale(0.1 -0.1)">
      <use xlink:href="#DejaVuSans-43"/>
      <use xlink:href="#DejaVuSans-6f" x="69.824219"/>
      <use xlink:href="#DejaVuSans-6c" x="131.005859"/>
      <use xlink:href="#DejaVuSans-6f" x="158.789062"/>
      <use xlink:href="#DejaVuSans-6d" x="219.970703"/>
      <use xlink:href="#DejaVuSans-62" x="317.382812"/>
      <use xlink:href="#DejaVuSans-69" x="380.859375"/>
      <use xlink:href="#DejaVuSans-61" x="408.642578"/>
     </g>
    </g>
    <g id="patch_62">
     <path d="M 1482.706722 1619.557813 
L 1502.706722 1619.557813 
L 1502.706722 1612.557813 
L 1482.706722 1612.557813 
z
" style="fill: #ff763d"/>
    </g>
    <g id="text_93">
     <!-- Venezuela -->
     <g transform="translate(1510.706722 1619.557813)scale(0.1 -0.1)">
      <use xlink:href="#DejaVuSans-56"/>
      <use xlink:href="#DejaVuSans-65" x="60.658203"/>
      <use xlink:href="#DejaVuSans-6e" x="122.181641"/>
      <use xlink:href="#DejaVuSans-65" x="185.560547"/>
      <use xlink:href="#DejaVuSans-7a" x="247.083984"/>
      <use xlink:href="#DejaVuSans-75" x="299.574219"/>
      <use xlink:href="#DejaVuSans-65" x="362.953125"/>
      <use xlink:href="#DejaVuSans-6c" x="424.476562"/>
      <use xlink:href="#DejaVuSans-61" x="452.259766"/>
     </g>
    </g>
    <g id="patch_63">
     <path d="M 1482.706722 1634.235938 
L 1502.706722 1634.235938 
L 1502.706722 1627.235938 
L 1482.706722 1627.235938 
z
" style="fill: #ff5f30"/>
    </g>
    <g id="text_94">
     <!-- Ethiopia -->
     <g transform="translate(1510.706722 1634.235938)scale(0.1 -0.1)">
      <use xlink:href="#DejaVuSans-45"/>
      <use xlink:href="#DejaVuSans-74" x="63.183594"/>
      <use xlink:href="#DejaVuSans-68" x="102.392578"/>
      <use xlink:href="#DejaVuSans-69" x="165.771484"/>
      <use xlink:href="#DejaVuSans-6f" x="193.554688"/>
      <use xlink:href="#DejaVuSans-70" x="254.736328"/>
      <use xlink:href="#DejaVuSans-69" x="318.212891"/>
      <use xlink:href="#DejaVuSans-61" x="345.996094"/>
     </g>
    </g>
    <g id="patch_64">
     <path d="M 1482.706722 1648.914062 
L 1502.706722 1648.914062 
L 1502.706722 1641.914062 
L 1482.706722 1641.914062 
z
" style="fill: #ff4724"/>
    </g>
    <g id="text_95">
     <!-- Slovakia -->
     <g transform="translate(1510.706722 1648.914062)scale(0.1 -0.1)">
      <use xlink:href="#DejaVuSans-53"/>
      <use xlink:href="#DejaVuSans-6c" x="63.476562"/>
      <use xlink:href="#DejaVuSans-6f" x="91.259766"/>
      <use xlink:href="#DejaVuSans-76" x="152.441406"/>
      <use xlink:href="#DejaVuSans-61" x="211.621094"/>
      <use xlink:href="#DejaVuSans-6b" x="272.900391"/>
      <use xlink:href="#DejaVuSans-69" x="330.810547"/>
      <use xlink:href="#DejaVuSans-61" x="358.59375"/>
     </g>
    </g>
    <g id="patch_65">
     <path d="M 1482.706722 1663.592188 
L 1502.706722 1663.592188 
L 1502.706722 1656.592188 
L 1482.706722 1656.592188 
z
" style="fill: #ff2f18"/>
    </g>
    <g id="text_96">
     <!-- Bahrain -->
     <g transform="translate(1510.706722 1663.592188)scale(0.1 -0.1)">
      <use xlink:href="#DejaVuSans-42"/>
      <use xlink:href="#DejaVuSans-61" x="68.603516"/>
      <use xlink:href="#DejaVuSans-68" x="129.882812"/>
      <use xlink:href="#DejaVuSans-72" x="193.261719"/>
      <use xlink:href="#DejaVuSans-61" x="234.375"/>
      <use xlink:href="#DejaVuSans-69" x="295.654297"/>
      <use xlink:href="#DejaVuSans-6e" x="323.4375"/>
     </g>
    </g>
    <g id="patch_66">
     <path d="M 1482.706722 1678.270313 
L 1502.706722 1678.270313 
L 1502.706722 1671.270313 
L 1482.706722 1671.270313 
z
" style="fill: #ff160b"/>
    </g>
    <g id="text_97">
     <!-- Iran -->
     <g transform="translate(1510.706722 1678.270313)scale(0.1 -0.1)">
      <use xlink:href="#DejaVuSans-49"/>
      <use xlink:href="#DejaVuSans-72" x="29.492188"/>
      <use xlink:href="#DejaVuSans-61" x="70.605469"/>
      <use xlink:href="#DejaVuSans-6e" x="131.884766"/>
     </g>
    </g>
   </g>
  </g>
 </g>
</svg>
