<?xml version="1.0" encoding="utf-8" standalone="no"?>
<!DOCTYPE svg PUBLIC "-//W3C//DTD SVG 1.1//EN"
  "http://www.w3.org/Graphics/SVG/1.1/DTD/svg11.dtd">
<svg xmlns:xlink="http://www.w3.org/1999/xlink" width="2880pt" height="2880pt" viewBox="0 0 2880 2880" xmlns="http://www.w3.org/2000/svg" version="1.1">
 <metadata>
  <rdf:RDF xmlns:dc="http://purl.org/dc/elements/1.1/" xmlns:cc="http://creativecommons.org/ns#" xmlns:rdf="http://www.w3.org/1999/02/22-rdf-syntax-ns#">
   <cc:Work>
    <dc:type rdf:resource="http://purl.org/dc/dcmitype/StillImage"/>
    <dc:date>2022-04-29T14:44:57.963994</dc:date>
    <dc:format>image/svg+xml</dc:format>
    <dc:creator>
     <cc:Agent>
      <dc:title>Matplotlib v3.5.0, https://matplotlib.org/</dc:title>
     </cc:Agent>
    </dc:creator>
   </cc:Work>
  </rdf:RDF>
 </metadata>
 <defs>
  <style type="text/css">*{stroke-linejoin: round; stroke-linecap: butt}</style>
 </defs>
 <g id="figure_1">
  <g id="patch_1">
   <path d="M 0 2880 
L 2880 2880 
L 2880 0 
L 0 0 
L 0 2880 
z
" style="fill: none"/>
  </g>
  <g id="axes_1">
   <g id="patch_2">
    <path d="M 101.724568 1337.824563 
C 85.572961 1429.424879 89.774549 1523.467141 114.030475 1613.262144 
C 138.286401 1703.057147 182.007591 1786.424154 242.084168 1857.433289 
C 302.160745 1928.442425 377.133706 1985.36918 461.670241 2024.16437 
C 546.206776 2062.959559 638.253854 2082.681012 731.264189 2081.925947 
L 726.117295 1447.921847 
L 101.724568 1337.824563 
z
" style="fill: #8000ff"/>
   </g>
   <g id="patch_3">
    <path d="M 731.264189 2081.925947 
C 813.351886 2081.259553 894.534272 2064.656997 970.292767 2033.042372 
C 1046.051262 2001.427747 1114.953734 1955.398692 1173.1651 1897.517166 
L 726.117295 1447.921847 
L 731.264189 2081.925947 
z
" style="fill: #7216ff"/>
   </g>
   <g id="patch_4">
    <path d="M 1173.1651 1897.517166 
C 1221.445012 1849.510818 1261.678485 1794.039545 1292.317237 1733.238014 
C 1322.95599 1672.436483 1343.601897 1607.094759 1353.460455 1539.727347 
L 726.117295 1447.921847 
L 1173.1651 1897.517166 
z
" style="fill: #622ffe"/>
   </g>
   <g id="patch_5">
    <path d="M 1353.460455 1539.727347 
C 1362.869109 1475.434307 1362.33852 1410.07531 1351.887305 1345.943494 
C 1341.43609 1281.811678 1321.187923 1219.665947 1291.853216 1161.686703 
L 726.117295 1447.921847 
L 1353.460455 1539.727347 
z
" style="fill: #5444fd"/>
   </g>
   <g id="patch_6">
    <path d="M 1291.853216 1161.686703 
C 1275.112568 1128.599271 1255.501436 1097.044164 1233.24546 1067.384444 
C 1210.989483 1037.724725 1186.174347 1010.074583 1159.085567 984.752153 
L 726.117295 1447.921847 
L 1291.853216 1161.686703 
z
" style="fill: #445cfb"/>
   </g>
   <g id="patch_7">
    <path d="M 1159.085567 984.752153 
C 1135.386436 962.598346 1110.021894 942.296107 1083.215487 924.024365 
C 1056.40908 905.752624 1028.239792 889.565217 998.955889 875.604809 
L 726.117295 1447.921847 
L 1159.085567 984.752153 
z
" style="fill: #3670f8"/>
   </g>
   <g id="patch_8">
    <path d="M 998.955889 875.604809 
C 972.463282 862.975086 945.12567 852.200109 917.140339 843.357635 
C 889.155008 834.515161 860.589439 827.626514 831.649781 822.741406 
L 726.117295 1447.921847 
L 998.955889 875.604809 
z
" style="fill: #2686f5"/>
   </g>
   <g id="patch_9">
    <path d="M 831.649781 822.741406 
C 802.710122 817.856297 773.466158 814.986508 744.12893 814.152748 
C 714.791701 813.318988 685.431952 814.523267 656.26156 817.756896 
L 726.117295 1447.921847 
L 831.649781 822.741406 
z
" style="fill: #1898f2"/>
   </g>
   <g id="patch_10">
    <path d="M 656.26156 817.756896 
C 634.771528 820.139132 613.417415 823.619097 592.282942 828.183148 
C 571.148468 832.747198 550.261288 838.389361 529.703291 845.087518 
L 726.117295 1447.921847 
L 656.26156 817.756896 
z
" style="fill: #08acee"/>
   </g>
   <g id="patch_11">
    <path d="M 529.703291 845.087518 
C 513.551926 850.349916 497.61857 856.25929 481.9418 862.801332 
C 466.26503 869.343374 450.857505 876.512802 435.756528 884.292257 
L 726.117295 1447.921847 
L 529.703291 845.087518 
z
" style="fill: #07bbea"/>
   </g>
   <g id="patch_12">
    <path d="M 435.756528 884.292257 
C 424.774695 889.949685 413.960552 895.926861 403.32795 902.216131 
C 392.695348 908.505401 382.248828 915.104079 372.00177 922.003712 
L 726.117295 1447.921847 
L 435.756528 884.292257 
z
" style="fill: #17cbe4"/>
   </g>
   <g id="patch_13">
    <path d="M 372.00177 922.003712 
C 364.316716 927.178276 356.746006 932.520667 349.295094 938.027036 
C 341.844183 943.533404 334.514861 949.202428 327.312408 955.030021 
L 726.117295 1447.921847 
L 372.00177 922.003712 
z
" style="fill: #24d8df"/>
   </g>
   <g id="patch_14">
    <path d="M 327.312408 955.030021 
C 321.310438 959.88629 315.39767 964.851783 309.577065 969.924016 
C 303.756459 974.996249 298.028987 980.174376 292.397513 985.455805 
L 726.117295 1447.921847 
L 327.312408 955.030021 
z
" style="fill: #34e4d9"/>
   </g>
   <g id="patch_15">
    <path d="M 292.397513 985.455805 
C 286.766039 990.737234 281.231503 996.121085 275.796674 1001.604664 
C 270.361846 1007.088243 265.027631 1012.670634 259.7967 1018.349045 
L 726.117295 1447.921847 
L 292.397513 985.455805 
z
" style="fill: #42edd3"/>
   </g>
   <g id="patch_16">
    <path d="M 259.7967 1018.349045 
C 255.611997 1022.891729 251.493896 1027.495318 247.443717 1032.158338 
C 243.393538 1036.821359 239.411712 1041.543313 235.499515 1046.322689 
L 726.117295 1447.921847 
L 259.7967 1018.349045 
z
" style="fill: #52f5cb"/>
   </g>
   <g id="patch_17">
    <path d="M 235.499515 1046.322689 
C 231.587319 1051.102065 227.745169 1055.938351 223.974296 1060.83 
C 220.203423 1065.721649 216.50423 1070.668138 212.8779 1075.667884 
L 726.117295 1447.921847 
L 235.499515 1046.322689 
z
" style="fill: #60fac5"/>
   </g>
   <g id="patch_18">
    <path d="M 212.8779 1075.667884 
C 209.251571 1080.667629 205.698494 1085.720096 202.219806 1090.823667 
C 198.741117 1095.927239 195.33719 1101.08137 192.009113 1106.284409 
L 726.117295 1447.921847 
L 212.8779 1075.667884 
z
" style="fill: #70febc"/>
   </g>
   <g id="patch_19">
    <path d="M 192.009113 1106.284409 
C 189.513075 1110.186658 187.059877 1114.116144 184.649961 1118.07216 
C 182.240046 1122.028176 179.873557 1126.010484 177.550922 1130.018366 
L 726.117295 1447.921847 
L 192.009113 1106.284409 
z
" style="fill: #80ffb4"/>
   </g>
   <g id="patch_20">
    <path d="M 177.550922 1130.018366 
C 175.228286 1134.026248 172.949643 1138.059464 170.715404 1142.117287 
C 168.481165 1146.17511 166.291462 1150.257297 164.146692 1154.363112 
L 726.117295 1447.921847 
L 177.550922 1130.018366 
z
" style="fill: #8efeac"/>
   </g>
   <g id="patch_21">
    <path d="M 164.146692 1154.363112 
C 162.001922 1158.468927 159.902212 1162.598123 157.847942 1166.749957 
C 155.793671 1170.901792 153.784963 1175.076014 151.822179 1179.271873 
L 726.117295 1447.921847 
L 164.146692 1154.363112 
z
" style="fill: #9efaa2"/>
   </g>
   <g id="patch_22">
    <path d="M 151.822179 1179.271873 
C 150.513663 1182.069097 149.225602 1184.875843 147.958097 1187.691888 
C 146.690593 1190.507933 145.44368 1193.3332 144.217458 1196.167464 
L 726.117295 1447.921847 
L 151.822179 1179.271873 
z
" style="fill: #acf59a"/>
   </g>
   <g id="patch_23">
    <path d="M 144.217458 1196.167464 
C 142.991236 1199.001728 141.785738 1201.844914 140.60106 1204.696792 
C 139.416381 1207.548671 138.252555 1210.409167 137.109674 1213.278051 
L 726.117295 1447.921847 
L 144.217458 1196.167464 
z
" style="fill: #bced8f"/>
   </g>
   <g id="patch_24">
    <path d="M 137.109674 1213.278051 
C 135.966792 1216.146935 134.844886 1219.024131 133.744046 1221.909408 
C 132.643205 1224.794685 131.563459 1227.687966 130.504894 1230.58902 
L 726.117295 1447.921847 
L 137.109674 1213.278051 
z
" style="fill: #cbe486"/>
   </g>
   <g id="patch_25">
    <path d="M 130.504894 1230.58902 
C 129.44633 1233.490074 128.408974 1236.398824 127.392912 1239.315035 
C 126.376849 1242.231247 125.382105 1245.154843 124.408761 1248.085589 
L 726.117295 1447.921847 
L 130.504894 1230.58902 
z
" style="fill: #dbd87b"/>
   </g>
   <g id="patch_26">
    <path d="M 124.408761 1248.085589 
C 123.922091 1249.550958 123.440775 1251.018099 122.964824 1252.486984 
C 122.488872 1253.955869 122.018288 1255.426487 121.553081 1256.89881 
L 726.117295 1447.921847 
L 124.408761 1248.085589 
z
" style="fill: #e8cb72"/>
   </g>
   <g id="patch_27">
    <path d="M 121.553081 1256.89881 
C 121.087874 1258.371133 120.628047 1259.845151 120.173609 1261.320833 
C 119.719171 1262.796516 119.270125 1264.273853 118.82648 1265.752816 
L 726.117295 1447.921847 
L 121.553081 1256.89881 
z
" style="fill: #f9bb66"/>
   </g>
   <g id="patch_28">
    <path d="M 118.82648 1265.752816 
C 118.382836 1267.231779 117.944595 1268.712358 117.511768 1270.194523 
C 117.07894 1271.676688 116.651529 1273.160429 116.229541 1274.645717 
L 726.117295 1447.921847 
L 118.82648 1265.752816 
z
" style="fill: #ffac5c"/>
   </g>
   <g id="patch_29">
    <path d="M 116.229541 1274.645717 
C 115.807554 1276.131005 115.390994 1277.617829 114.979869 1279.10616 
C 114.568745 1280.594491 114.163059 1282.084319 113.762819 1283.575614 
L 726.117295 1447.921847 
L 116.229541 1274.645717 
z
" style="fill: #ff9850"/>
   </g>
   <g id="patch_30">
    <path d="M 113.762819 1283.575614 
C 113.362579 1285.066908 112.967788 1286.55966 112.578454 1288.05384 
C 112.18912 1289.548019 111.805246 1291.043616 111.426839 1292.540599 
L 726.117295 1447.921847 
L 113.762819 1283.575614 
z
" style="fill: #ff8646"/>
   </g>
   <g id="patch_31">
    <path d="M 111.426839 1292.540599 
C 111.048432 1294.037583 110.675494 1295.535944 110.308034 1297.035653 
C 109.940574 1298.535361 109.578594 1300.036407 109.2221 1301.53876 
L 726.117295 1447.921847 
L 111.426839 1292.540599 
z
" style="fill: #ff703a"/>
   </g>
   <g id="patch_32">
    <path d="M 109.2221 1301.53876 
C 108.865607 1303.041114 108.514603 1304.544764 108.169095 1306.049682 
C 107.823587 1307.554599 107.483578 1309.060774 107.149074 1310.568176 
L 726.117295 1447.921847 
L 109.2221 1301.53876 
z
" style="fill: #ff5c2f"/>
   </g>
   <g id="patch_33">
    <path d="M 107.149074 1310.568176 
C 106.814571 1312.075577 106.485575 1313.584196 106.162093 1315.094001 
C 105.838611 1316.603807 105.520646 1318.114789 105.208203 1319.626917 
L 726.117295 1447.921847 
L 107.149074 1310.568176 
z
" style="fill: #ff4422"/>
   </g>
   <g id="patch_34">
    <path d="M 105.208203 1319.626917 
C 104.895761 1321.139045 104.588843 1322.65231 104.287457 1324.166681 
C 103.98607 1325.681051 103.690216 1327.196518 103.399902 1328.71305 
L 726.117295 1447.921847 
L 105.208203 1319.626917 
z
" style="fill: #ff2f18"/>
   </g>
   <g id="patch_35">
    <path d="M 103.399902 1328.71305 
C 103.109587 1330.229582 102.824813 1331.74717 102.545586 1333.265783 
C 102.266359 1334.784396 101.99268 1336.304023 101.724555 1337.824636 
L 726.117295 1447.921847 
L 103.399902 1328.71305 
z
" style="fill: #ff160b"/>
   </g>
   <g id="matplotlib.axis_1"/>
   <g id="matplotlib.axis_2"/>
   <g id="text_1">
    <!-- Spain -->
    <g transform="translate(177.503234 1899.982112)scale(0.0579 -0.0579)">
     <defs>
      <path id="DejaVuSans-53" d="M 3425 4513 
L 3425 3897 
Q 3066 4069 2747 4153 
Q 2428 4238 2131 4238 
Q 1616 4238 1336 4038 
Q 1056 3838 1056 3469 
Q 1056 3159 1242 3001 
Q 1428 2844 1947 2747 
L 2328 2669 
Q 3034 2534 3370 2195 
Q 3706 1856 3706 1288 
Q 3706 609 3251 259 
Q 2797 -91 1919 -91 
Q 1588 -91 1214 -16 
Q 841 59 441 206 
L 441 856 
Q 825 641 1194 531 
Q 1563 422 1919 422 
Q 2459 422 2753 634 
Q 3047 847 3047 1241 
Q 3047 1584 2836 1778 
Q 2625 1972 2144 2069 
L 1759 2144 
Q 1053 2284 737 2584 
Q 422 2884 422 3419 
Q 422 4038 858 4394 
Q 1294 4750 2059 4750 
Q 2388 4750 2728 4690 
Q 3069 4631 3425 4513 
z
" transform="scale(0.015625)"/>
      <path id="DejaVuSans-70" d="M 1159 525 
L 1159 -1331 
L 581 -1331 
L 581 3500 
L 1159 3500 
L 1159 2969 
Q 1341 3281 1617 3432 
Q 1894 3584 2278 3584 
Q 2916 3584 3314 3078 
Q 3713 2572 3713 1747 
Q 3713 922 3314 415 
Q 2916 -91 2278 -91 
Q 1894 -91 1617 61 
Q 1341 213 1159 525 
z
M 3116 1747 
Q 3116 2381 2855 2742 
Q 2594 3103 2138 3103 
Q 1681 3103 1420 2742 
Q 1159 2381 1159 1747 
Q 1159 1113 1420 752 
Q 1681 391 2138 391 
Q 2594 391 2855 752 
Q 3116 1113 3116 1747 
z
" transform="scale(0.015625)"/>
      <path id="DejaVuSans-61" d="M 2194 1759 
Q 1497 1759 1228 1600 
Q 959 1441 959 1056 
Q 959 750 1161 570 
Q 1363 391 1709 391 
Q 2188 391 2477 730 
Q 2766 1069 2766 1631 
L 2766 1759 
L 2194 1759 
z
M 3341 1997 
L 3341 0 
L 2766 0 
L 2766 531 
Q 2569 213 2275 61 
Q 1981 -91 1556 -91 
Q 1019 -91 701 211 
Q 384 513 384 1019 
Q 384 1609 779 1909 
Q 1175 2209 1959 2209 
L 2766 2209 
L 2766 2266 
Q 2766 2663 2505 2880 
Q 2244 3097 1772 3097 
Q 1472 3097 1187 3025 
Q 903 2953 641 2809 
L 641 3341 
Q 956 3463 1253 3523 
Q 1550 3584 1831 3584 
Q 2591 3584 2966 3190 
Q 3341 2797 3341 1997 
z
" transform="scale(0.015625)"/>
      <path id="DejaVuSans-69" d="M 603 3500 
L 1178 3500 
L 1178 0 
L 603 0 
L 603 3500 
z
M 603 4863 
L 1178 4863 
L 1178 4134 
L 603 4134 
L 603 4863 
z
" transform="scale(0.015625)"/>
      <path id="DejaVuSans-6e" d="M 3513 2113 
L 3513 0 
L 2938 0 
L 2938 2094 
Q 2938 2591 2744 2837 
Q 2550 3084 2163 3084 
Q 1697 3084 1428 2787 
Q 1159 2491 1159 1978 
L 1159 0 
L 581 0 
L 581 3500 
L 1159 3500 
L 1159 2956 
Q 1366 3272 1645 3428 
Q 1925 3584 2291 3584 
Q 2894 3584 3203 3211 
Q 3513 2838 3513 2113 
z
" transform="scale(0.015625)"/>
     </defs>
     <use xlink:href="#DejaVuSans-53"/>
     <use xlink:href="#DejaVuSans-70" x="63.476562"/>
     <use xlink:href="#DejaVuSans-61" x="126.953125"/>
     <use xlink:href="#DejaVuSans-69" x="188.232422"/>
     <use xlink:href="#DejaVuSans-6e" x="216.015625"/>
    </g>
   </g>
   <g id="text_2">
    <!-- 28% -->
    <g transform="translate(429.262829 1695.22639)scale(0.0579 -0.0579)">
     <defs>
      <path id="DejaVuSans-32" d="M 1228 531 
L 3431 531 
L 3431 0 
L 469 0 
L 469 531 
Q 828 903 1448 1529 
Q 2069 2156 2228 2338 
Q 2531 2678 2651 2914 
Q 2772 3150 2772 3378 
Q 2772 3750 2511 3984 
Q 2250 4219 1831 4219 
Q 1534 4219 1204 4116 
Q 875 4013 500 3803 
L 500 4441 
Q 881 4594 1212 4672 
Q 1544 4750 1819 4750 
Q 2544 4750 2975 4387 
Q 3406 4025 3406 3419 
Q 3406 3131 3298 2873 
Q 3191 2616 2906 2266 
Q 2828 2175 2409 1742 
Q 1991 1309 1228 531 
z
" transform="scale(0.015625)"/>
      <path id="DejaVuSans-38" d="M 2034 2216 
Q 1584 2216 1326 1975 
Q 1069 1734 1069 1313 
Q 1069 891 1326 650 
Q 1584 409 2034 409 
Q 2484 409 2743 651 
Q 3003 894 3003 1313 
Q 3003 1734 2745 1975 
Q 2488 2216 2034 2216 
z
M 1403 2484 
Q 997 2584 770 2862 
Q 544 3141 544 3541 
Q 544 4100 942 4425 
Q 1341 4750 2034 4750 
Q 2731 4750 3128 4425 
Q 3525 4100 3525 3541 
Q 3525 3141 3298 2862 
Q 3072 2584 2669 2484 
Q 3125 2378 3379 2068 
Q 3634 1759 3634 1313 
Q 3634 634 3220 271 
Q 2806 -91 2034 -91 
Q 1263 -91 848 271 
Q 434 634 434 1313 
Q 434 1759 690 2068 
Q 947 2378 1403 2484 
z
M 1172 3481 
Q 1172 3119 1398 2916 
Q 1625 2713 2034 2713 
Q 2441 2713 2670 2916 
Q 2900 3119 2900 3481 
Q 2900 3844 2670 4047 
Q 2441 4250 2034 4250 
Q 1625 4250 1398 4047 
Q 1172 3844 1172 3481 
z
" transform="scale(0.015625)"/>
      <path id="DejaVuSans-25" d="M 4653 2053 
Q 4381 2053 4226 1822 
Q 4072 1591 4072 1178 
Q 4072 772 4226 539 
Q 4381 306 4653 306 
Q 4919 306 5073 539 
Q 5228 772 5228 1178 
Q 5228 1588 5073 1820 
Q 4919 2053 4653 2053 
z
M 4653 2450 
Q 5147 2450 5437 2106 
Q 5728 1763 5728 1178 
Q 5728 594 5436 251 
Q 5144 -91 4653 -91 
Q 4153 -91 3862 251 
Q 3572 594 3572 1178 
Q 3572 1766 3864 2108 
Q 4156 2450 4653 2450 
z
M 1428 4353 
Q 1159 4353 1004 4120 
Q 850 3888 850 3481 
Q 850 3069 1003 2837 
Q 1156 2606 1428 2606 
Q 1700 2606 1854 2837 
Q 2009 3069 2009 3481 
Q 2009 3884 1853 4118 
Q 1697 4353 1428 4353 
z
M 4250 4750 
L 4750 4750 
L 1831 -91 
L 1331 -91 
L 4250 4750 
z
M 1428 4750 
Q 1922 4750 2215 4408 
Q 2509 4066 2509 3481 
Q 2509 2891 2217 2550 
Q 1925 2209 1428 2209 
Q 931 2209 642 2551 
Q 353 2894 353 3481 
Q 353 4063 643 4406 
Q 934 4750 1428 4750 
z
" transform="scale(0.015625)"/>
     </defs>
     <use xlink:href="#DejaVuSans-32"/>
     <use xlink:href="#DejaVuSans-38" x="63.623047"/>
     <use xlink:href="#DejaVuSans-25" x="127.246094"/>
    </g>
   </g>
   <g id="text_3">
    <!-- United States -->
    <g transform="translate(994.710314 2093.152103)scale(0.0579 -0.0579)">
     <defs>
      <path id="DejaVuSans-55" d="M 556 4666 
L 1191 4666 
L 1191 1831 
Q 1191 1081 1462 751 
Q 1734 422 2344 422 
Q 2950 422 3222 751 
Q 3494 1081 3494 1831 
L 3494 4666 
L 4128 4666 
L 4128 1753 
Q 4128 841 3676 375 
Q 3225 -91 2344 -91 
Q 1459 -91 1007 375 
Q 556 841 556 1753 
L 556 4666 
z
" transform="scale(0.015625)"/>
      <path id="DejaVuSans-74" d="M 1172 4494 
L 1172 3500 
L 2356 3500 
L 2356 3053 
L 1172 3053 
L 1172 1153 
Q 1172 725 1289 603 
Q 1406 481 1766 481 
L 2356 481 
L 2356 0 
L 1766 0 
Q 1100 0 847 248 
Q 594 497 594 1153 
L 594 3053 
L 172 3053 
L 172 3500 
L 594 3500 
L 594 4494 
L 1172 4494 
z
" transform="scale(0.015625)"/>
      <path id="DejaVuSans-65" d="M 3597 1894 
L 3597 1613 
L 953 1613 
Q 991 1019 1311 708 
Q 1631 397 2203 397 
Q 2534 397 2845 478 
Q 3156 559 3463 722 
L 3463 178 
Q 3153 47 2828 -22 
Q 2503 -91 2169 -91 
Q 1331 -91 842 396 
Q 353 884 353 1716 
Q 353 2575 817 3079 
Q 1281 3584 2069 3584 
Q 2775 3584 3186 3129 
Q 3597 2675 3597 1894 
z
M 3022 2063 
Q 3016 2534 2758 2815 
Q 2500 3097 2075 3097 
Q 1594 3097 1305 2825 
Q 1016 2553 972 2059 
L 3022 2063 
z
" transform="scale(0.015625)"/>
      <path id="DejaVuSans-64" d="M 2906 2969 
L 2906 4863 
L 3481 4863 
L 3481 0 
L 2906 0 
L 2906 525 
Q 2725 213 2448 61 
Q 2172 -91 1784 -91 
Q 1150 -91 751 415 
Q 353 922 353 1747 
Q 353 2572 751 3078 
Q 1150 3584 1784 3584 
Q 2172 3584 2448 3432 
Q 2725 3281 2906 2969 
z
M 947 1747 
Q 947 1113 1208 752 
Q 1469 391 1925 391 
Q 2381 391 2643 752 
Q 2906 1113 2906 1747 
Q 2906 2381 2643 2742 
Q 2381 3103 1925 3103 
Q 1469 3103 1208 2742 
Q 947 2381 947 1747 
z
" transform="scale(0.015625)"/>
      <path id="DejaVuSans-20" transform="scale(0.015625)"/>
      <path id="DejaVuSans-73" d="M 2834 3397 
L 2834 2853 
Q 2591 2978 2328 3040 
Q 2066 3103 1784 3103 
Q 1356 3103 1142 2972 
Q 928 2841 928 2578 
Q 928 2378 1081 2264 
Q 1234 2150 1697 2047 
L 1894 2003 
Q 2506 1872 2764 1633 
Q 3022 1394 3022 966 
Q 3022 478 2636 193 
Q 2250 -91 1575 -91 
Q 1294 -91 989 -36 
Q 684 19 347 128 
L 347 722 
Q 666 556 975 473 
Q 1284 391 1588 391 
Q 1994 391 2212 530 
Q 2431 669 2431 922 
Q 2431 1156 2273 1281 
Q 2116 1406 1581 1522 
L 1381 1569 
Q 847 1681 609 1914 
Q 372 2147 372 2553 
Q 372 3047 722 3315 
Q 1072 3584 1716 3584 
Q 2034 3584 2315 3537 
Q 2597 3491 2834 3397 
z
" transform="scale(0.015625)"/>
     </defs>
     <use xlink:href="#DejaVuSans-55"/>
     <use xlink:href="#DejaVuSans-6e" x="73.193359"/>
     <use xlink:href="#DejaVuSans-69" x="136.572266"/>
     <use xlink:href="#DejaVuSans-74" x="164.355469"/>
     <use xlink:href="#DejaVuSans-65" x="203.564453"/>
     <use xlink:href="#DejaVuSans-64" x="265.087891"/>
     <use xlink:href="#DejaVuSans-20" x="328.564453"/>
     <use xlink:href="#DejaVuSans-53" x="360.351562"/>
     <use xlink:href="#DejaVuSans-74" x="423.828125"/>
     <use xlink:href="#DejaVuSans-61" x="463.037109"/>
     <use xlink:href="#DejaVuSans-74" x="524.316406"/>
     <use xlink:href="#DejaVuSans-65" x="563.525391"/>
     <use xlink:href="#DejaVuSans-73" x="625.048828"/>
    </g>
   </g>
   <g id="text_4">
    <!-- 12% -->
    <g transform="translate(866.187988 1800.59184)scale(0.0579 -0.0579)">
     <defs>
      <path id="DejaVuSans-31" d="M 794 531 
L 1825 531 
L 1825 4091 
L 703 3866 
L 703 4441 
L 1819 4666 
L 2450 4666 
L 2450 531 
L 3481 531 
L 3481 0 
L 794 0 
L 794 531 
z
" transform="scale(0.015625)"/>
     </defs>
     <use xlink:href="#DejaVuSans-31"/>
     <use xlink:href="#DejaVuSans-32" x="63.623047"/>
     <use xlink:href="#DejaVuSans-25" x="127.246094"/>
    </g>
   </g>
   <g id="text_5">
    <!-- Belgium -->
    <g transform="translate(1348.937232 1763.367309)scale(0.0579 -0.0579)">
     <defs>
      <path id="DejaVuSans-42" d="M 1259 2228 
L 1259 519 
L 2272 519 
Q 2781 519 3026 730 
Q 3272 941 3272 1375 
Q 3272 1813 3026 2020 
Q 2781 2228 2272 2228 
L 1259 2228 
z
M 1259 4147 
L 1259 2741 
L 2194 2741 
Q 2656 2741 2882 2914 
Q 3109 3088 3109 3444 
Q 3109 3797 2882 3972 
Q 2656 4147 2194 4147 
L 1259 4147 
z
M 628 4666 
L 2241 4666 
Q 2963 4666 3353 4366 
Q 3744 4066 3744 3513 
Q 3744 3084 3544 2831 
Q 3344 2578 2956 2516 
Q 3422 2416 3680 2098 
Q 3938 1781 3938 1306 
Q 3938 681 3513 340 
Q 3088 0 2303 0 
L 628 0 
L 628 4666 
z
" transform="scale(0.015625)"/>
      <path id="DejaVuSans-6c" d="M 603 4863 
L 1178 4863 
L 1178 0 
L 603 0 
L 603 4863 
z
" transform="scale(0.015625)"/>
      <path id="DejaVuSans-67" d="M 2906 1791 
Q 2906 2416 2648 2759 
Q 2391 3103 1925 3103 
Q 1463 3103 1205 2759 
Q 947 2416 947 1791 
Q 947 1169 1205 825 
Q 1463 481 1925 481 
Q 2391 481 2648 825 
Q 2906 1169 2906 1791 
z
M 3481 434 
Q 3481 -459 3084 -895 
Q 2688 -1331 1869 -1331 
Q 1566 -1331 1297 -1286 
Q 1028 -1241 775 -1147 
L 775 -588 
Q 1028 -725 1275 -790 
Q 1522 -856 1778 -856 
Q 2344 -856 2625 -561 
Q 2906 -266 2906 331 
L 2906 616 
Q 2728 306 2450 153 
Q 2172 0 1784 0 
Q 1141 0 747 490 
Q 353 981 353 1791 
Q 353 2603 747 3093 
Q 1141 3584 1784 3584 
Q 2172 3584 2450 3431 
Q 2728 3278 2906 2969 
L 2906 3500 
L 3481 3500 
L 3481 434 
z
" transform="scale(0.015625)"/>
      <path id="DejaVuSans-75" d="M 544 1381 
L 544 3500 
L 1119 3500 
L 1119 1403 
Q 1119 906 1312 657 
Q 1506 409 1894 409 
Q 2359 409 2629 706 
Q 2900 1003 2900 1516 
L 2900 3500 
L 3475 3500 
L 3475 0 
L 2900 0 
L 2900 538 
Q 2691 219 2414 64 
Q 2138 -91 1772 -91 
Q 1169 -91 856 284 
Q 544 659 544 1381 
z
M 1991 3584 
L 1991 3584 
z
" transform="scale(0.015625)"/>
      <path id="DejaVuSans-6d" d="M 3328 2828 
Q 3544 3216 3844 3400 
Q 4144 3584 4550 3584 
Q 5097 3584 5394 3201 
Q 5691 2819 5691 2113 
L 5691 0 
L 5113 0 
L 5113 2094 
Q 5113 2597 4934 2840 
Q 4756 3084 4391 3084 
Q 3944 3084 3684 2787 
Q 3425 2491 3425 1978 
L 3425 0 
L 2847 0 
L 2847 2094 
Q 2847 2600 2669 2842 
Q 2491 3084 2119 3084 
Q 1678 3084 1418 2786 
Q 1159 2488 1159 1978 
L 1159 0 
L 581 0 
L 581 3500 
L 1159 3500 
L 1159 2956 
Q 1356 3278 1631 3431 
Q 1906 3584 2284 3584 
Q 2666 3584 2933 3390 
Q 3200 3197 3328 2828 
z
" transform="scale(0.015625)"/>
     </defs>
     <use xlink:href="#DejaVuSans-42"/>
     <use xlink:href="#DejaVuSans-65" x="68.603516"/>
     <use xlink:href="#DejaVuSans-6c" x="130.126953"/>
     <use xlink:href="#DejaVuSans-67" x="157.910156"/>
     <use xlink:href="#DejaVuSans-69" x="221.386719"/>
     <use xlink:href="#DejaVuSans-75" x="249.169922"/>
     <use xlink:href="#DejaVuSans-6d" x="312.548828"/>
    </g>
   </g>
   <g id="text_6">
    <!-- 10% -->
    <g transform="translate(1059.402671 1620.709226)scale(0.0579 -0.0579)">
     <defs>
      <path id="DejaVuSans-30" d="M 2034 4250 
Q 1547 4250 1301 3770 
Q 1056 3291 1056 2328 
Q 1056 1369 1301 889 
Q 1547 409 2034 409 
Q 2525 409 2770 889 
Q 3016 1369 3016 2328 
Q 3016 3291 2770 3770 
Q 2525 4250 2034 4250 
z
M 2034 4750 
Q 2819 4750 3233 4129 
Q 3647 3509 3647 2328 
Q 3647 1150 3233 529 
Q 2819 -91 2034 -91 
Q 1250 -91 836 529 
Q 422 1150 422 2328 
Q 422 3509 836 4129 
Q 1250 4750 2034 4750 
z
" transform="scale(0.015625)"/>
     </defs>
     <use xlink:href="#DejaVuSans-31"/>
     <use xlink:href="#DejaVuSans-30" x="63.623047"/>
     <use xlink:href="#DejaVuSans-25" x="127.246094"/>
    </g>
   </g>
   <g id="text_7">
    <!-- Netherlands -->
    <g transform="translate(1414.464306 1337.343336)scale(0.0579 -0.0579)">
     <defs>
      <path id="DejaVuSans-4e" d="M 628 4666 
L 1478 4666 
L 3547 763 
L 3547 4666 
L 4159 4666 
L 4159 0 
L 3309 0 
L 1241 3903 
L 1241 0 
L 628 0 
L 628 4666 
z
" transform="scale(0.015625)"/>
      <path id="DejaVuSans-68" d="M 3513 2113 
L 3513 0 
L 2938 0 
L 2938 2094 
Q 2938 2591 2744 2837 
Q 2550 3084 2163 3084 
Q 1697 3084 1428 2787 
Q 1159 2491 1159 1978 
L 1159 0 
L 581 0 
L 581 4863 
L 1159 4863 
L 1159 2956 
Q 1366 3272 1645 3428 
Q 1925 3584 2291 3584 
Q 2894 3584 3203 3211 
Q 3513 2838 3513 2113 
z
" transform="scale(0.015625)"/>
      <path id="DejaVuSans-72" d="M 2631 2963 
Q 2534 3019 2420 3045 
Q 2306 3072 2169 3072 
Q 1681 3072 1420 2755 
Q 1159 2438 1159 1844 
L 1159 0 
L 581 0 
L 581 3500 
L 1159 3500 
L 1159 2956 
Q 1341 3275 1631 3429 
Q 1922 3584 2338 3584 
Q 2397 3584 2469 3576 
Q 2541 3569 2628 3553 
L 2631 2963 
z
" transform="scale(0.015625)"/>
     </defs>
     <use xlink:href="#DejaVuSans-4e"/>
     <use xlink:href="#DejaVuSans-65" x="74.804688"/>
     <use xlink:href="#DejaVuSans-74" x="136.328125"/>
     <use xlink:href="#DejaVuSans-68" x="175.537109"/>
     <use xlink:href="#DejaVuSans-65" x="238.916016"/>
     <use xlink:href="#DejaVuSans-72" x="300.439453"/>
     <use xlink:href="#DejaVuSans-6c" x="341.552734"/>
     <use xlink:href="#DejaVuSans-61" x="369.335938"/>
     <use xlink:href="#DejaVuSans-6e" x="430.615234"/>
     <use xlink:href="#DejaVuSans-64" x="493.994141"/>
     <use xlink:href="#DejaVuSans-73" x="557.470703"/>
    </g>
   </g>
   <g id="text_8">
    <!-- 10% -->
    <g transform="translate(1095.144711 1388.332513)scale(0.0579 -0.0579)">
     <use xlink:href="#DejaVuSans-31"/>
     <use xlink:href="#DejaVuSans-30" x="63.623047"/>
     <use xlink:href="#DejaVuSans-25" x="127.246094"/>
    </g>
   </g>
   <g id="text_9">
    <!-- Greece -->
    <g transform="translate(1283.958276 1030.928382)scale(0.0579 -0.0579)">
     <defs>
      <path id="DejaVuSans-47" d="M 3809 666 
L 3809 1919 
L 2778 1919 
L 2778 2438 
L 4434 2438 
L 4434 434 
Q 4069 175 3628 42 
Q 3188 -91 2688 -91 
Q 1594 -91 976 548 
Q 359 1188 359 2328 
Q 359 3472 976 4111 
Q 1594 4750 2688 4750 
Q 3144 4750 3555 4637 
Q 3966 4525 4313 4306 
L 4313 3634 
Q 3963 3931 3569 4081 
Q 3175 4231 2741 4231 
Q 1884 4231 1454 3753 
Q 1025 3275 1025 2328 
Q 1025 1384 1454 906 
Q 1884 428 2741 428 
Q 3075 428 3337 486 
Q 3600 544 3809 666 
z
" transform="scale(0.015625)"/>
      <path id="DejaVuSans-63" d="M 3122 3366 
L 3122 2828 
Q 2878 2963 2633 3030 
Q 2388 3097 2138 3097 
Q 1578 3097 1268 2742 
Q 959 2388 959 1747 
Q 959 1106 1268 751 
Q 1578 397 2138 397 
Q 2388 397 2633 464 
Q 2878 531 3122 666 
L 3122 134 
Q 2881 22 2623 -34 
Q 2366 -91 2075 -91 
Q 1284 -91 818 406 
Q 353 903 353 1747 
Q 353 2603 823 3093 
Q 1294 3584 2113 3584 
Q 2378 3584 2631 3529 
Q 2884 3475 3122 3366 
z
" transform="scale(0.015625)"/>
     </defs>
     <use xlink:href="#DejaVuSans-47"/>
     <use xlink:href="#DejaVuSans-72" x="77.490234"/>
     <use xlink:href="#DejaVuSans-65" x="116.353516"/>
     <use xlink:href="#DejaVuSans-65" x="177.876953"/>
     <use xlink:href="#DejaVuSans-63" x="239.400391"/>
     <use xlink:href="#DejaVuSans-65" x="294.380859"/>
    </g>
   </g>
   <g id="text_10">
    <!-- 6% -->
    <g transform="translate(1025.801548 1221.197084)scale(0.0579 -0.0579)">
     <defs>
      <path id="DejaVuSans-36" d="M 2113 2584 
Q 1688 2584 1439 2293 
Q 1191 2003 1191 1497 
Q 1191 994 1439 701 
Q 1688 409 2113 409 
Q 2538 409 2786 701 
Q 3034 994 3034 1497 
Q 3034 2003 2786 2293 
Q 2538 2584 2113 2584 
z
M 3366 4563 
L 3366 3988 
Q 3128 4100 2886 4159 
Q 2644 4219 2406 4219 
Q 1781 4219 1451 3797 
Q 1122 3375 1075 2522 
Q 1259 2794 1537 2939 
Q 1816 3084 2150 3084 
Q 2853 3084 3261 2657 
Q 3669 2231 3669 1497 
Q 3669 778 3244 343 
Q 2819 -91 2113 -91 
Q 1303 -91 875 529 
Q 447 1150 447 2328 
Q 447 3434 972 4092 
Q 1497 4750 2381 4750 
Q 2619 4750 2861 4703 
Q 3103 4656 3366 4563 
z
" transform="scale(0.015625)"/>
     </defs>
     <use xlink:href="#DejaVuSans-36"/>
     <use xlink:href="#DejaVuSans-25" x="63.623047"/>
    </g>
   </g>
   <g id="text_11">
    <!-- Denmark -->
    <g transform="translate(1118.925306 873.232295)scale(0.0579 -0.0579)">
     <defs>
      <path id="DejaVuSans-44" d="M 1259 4147 
L 1259 519 
L 2022 519 
Q 2988 519 3436 956 
Q 3884 1394 3884 2338 
Q 3884 3275 3436 3711 
Q 2988 4147 2022 4147 
L 1259 4147 
z
M 628 4666 
L 1925 4666 
Q 3281 4666 3915 4102 
Q 4550 3538 4550 2338 
Q 4550 1131 3912 565 
Q 3275 0 1925 0 
L 628 0 
L 628 4666 
z
" transform="scale(0.015625)"/>
      <path id="DejaVuSans-6b" d="M 581 4863 
L 1159 4863 
L 1159 1991 
L 2875 3500 
L 3609 3500 
L 1753 1863 
L 3688 0 
L 2938 0 
L 1159 1709 
L 1159 0 
L 581 0 
L 581 4863 
z
" transform="scale(0.015625)"/>
     </defs>
     <use xlink:href="#DejaVuSans-44"/>
     <use xlink:href="#DejaVuSans-65" x="77.001953"/>
     <use xlink:href="#DejaVuSans-6e" x="138.525391"/>
     <use xlink:href="#DejaVuSans-6d" x="201.904297"/>
     <use xlink:href="#DejaVuSans-61" x="299.316406"/>
     <use xlink:href="#DejaVuSans-72" x="360.595703"/>
     <use xlink:href="#DejaVuSans-6b" x="401.708984"/>
    </g>
   </g>
   <g id="text_12">
    <!-- 5% -->
    <g transform="translate(935.783564 1135.181036)scale(0.0579 -0.0579)">
     <defs>
      <path id="DejaVuSans-35" d="M 691 4666 
L 3169 4666 
L 3169 4134 
L 1269 4134 
L 1269 2991 
Q 1406 3038 1543 3061 
Q 1681 3084 1819 3084 
Q 2600 3084 3056 2656 
Q 3513 2228 3513 1497 
Q 3513 744 3044 326 
Q 2575 -91 1722 -91 
Q 1428 -91 1123 -41 
Q 819 9 494 109 
L 494 744 
Q 775 591 1075 516 
Q 1375 441 1709 441 
Q 2250 441 2565 725 
Q 2881 1009 2881 1497 
Q 2881 1984 2565 2268 
Q 2250 2553 1709 2553 
Q 1456 2553 1204 2497 
Q 953 2441 691 2322 
L 691 4666 
z
" transform="scale(0.015625)"/>
     </defs>
     <use xlink:href="#DejaVuSans-35"/>
     <use xlink:href="#DejaVuSans-25" x="63.623047"/>
    </g>
   </g>
   <g id="text_13">
    <!-- Czech Republic -->
    <g transform="translate(936.242643 784.498892)scale(0.0579 -0.0579)">
     <defs>
      <path id="DejaVuSans-43" d="M 4122 4306 
L 4122 3641 
Q 3803 3938 3442 4084 
Q 3081 4231 2675 4231 
Q 1875 4231 1450 3742 
Q 1025 3253 1025 2328 
Q 1025 1406 1450 917 
Q 1875 428 2675 428 
Q 3081 428 3442 575 
Q 3803 722 4122 1019 
L 4122 359 
Q 3791 134 3420 21 
Q 3050 -91 2638 -91 
Q 1578 -91 968 557 
Q 359 1206 359 2328 
Q 359 3453 968 4101 
Q 1578 4750 2638 4750 
Q 3056 4750 3426 4639 
Q 3797 4528 4122 4306 
z
" transform="scale(0.015625)"/>
      <path id="DejaVuSans-7a" d="M 353 3500 
L 3084 3500 
L 3084 2975 
L 922 459 
L 3084 459 
L 3084 0 
L 275 0 
L 275 525 
L 2438 3041 
L 353 3041 
L 353 3500 
z
" transform="scale(0.015625)"/>
      <path id="DejaVuSans-52" d="M 2841 2188 
Q 3044 2119 3236 1894 
Q 3428 1669 3622 1275 
L 4263 0 
L 3584 0 
L 2988 1197 
Q 2756 1666 2539 1819 
Q 2322 1972 1947 1972 
L 1259 1972 
L 1259 0 
L 628 0 
L 628 4666 
L 2053 4666 
Q 2853 4666 3247 4331 
Q 3641 3997 3641 3322 
Q 3641 2881 3436 2590 
Q 3231 2300 2841 2188 
z
M 1259 4147 
L 1259 2491 
L 2053 2491 
Q 2509 2491 2742 2702 
Q 2975 2913 2975 3322 
Q 2975 3731 2742 3939 
Q 2509 4147 2053 4147 
L 1259 4147 
z
" transform="scale(0.015625)"/>
      <path id="DejaVuSans-62" d="M 3116 1747 
Q 3116 2381 2855 2742 
Q 2594 3103 2138 3103 
Q 1681 3103 1420 2742 
Q 1159 2381 1159 1747 
Q 1159 1113 1420 752 
Q 1681 391 2138 391 
Q 2594 391 2855 752 
Q 3116 1113 3116 1747 
z
M 1159 2969 
Q 1341 3281 1617 3432 
Q 1894 3584 2278 3584 
Q 2916 3584 3314 3078 
Q 3713 2572 3713 1747 
Q 3713 922 3314 415 
Q 2916 -91 2278 -91 
Q 1894 -91 1617 61 
Q 1341 213 1159 525 
L 1159 0 
L 581 0 
L 581 4863 
L 1159 4863 
L 1159 2969 
z
" transform="scale(0.015625)"/>
     </defs>
     <use xlink:href="#DejaVuSans-43"/>
     <use xlink:href="#DejaVuSans-7a" x="69.824219"/>
     <use xlink:href="#DejaVuSans-65" x="122.314453"/>
     <use xlink:href="#DejaVuSans-63" x="183.837891"/>
     <use xlink:href="#DejaVuSans-68" x="238.818359"/>
     <use xlink:href="#DejaVuSans-20" x="302.197266"/>
     <use xlink:href="#DejaVuSans-52" x="333.984375"/>
     <use xlink:href="#DejaVuSans-65" x="398.966797"/>
     <use xlink:href="#DejaVuSans-70" x="460.490234"/>
     <use xlink:href="#DejaVuSans-75" x="523.966797"/>
     <use xlink:href="#DejaVuSans-62" x="587.345703"/>
     <use xlink:href="#DejaVuSans-6c" x="650.822266"/>
     <use xlink:href="#DejaVuSans-69" x="678.605469"/>
     <use xlink:href="#DejaVuSans-63" x="706.388672"/>
    </g>
   </g>
   <g id="text_14">
    <!-- 4% -->
    <g transform="translate(836.138476 1086.780998)scale(0.0579 -0.0579)">
     <defs>
      <path id="DejaVuSans-34" d="M 2419 4116 
L 825 1625 
L 2419 1625 
L 2419 4116 
z
M 2253 4666 
L 3047 4666 
L 3047 1625 
L 3713 1625 
L 3713 1100 
L 3047 1100 
L 3047 0 
L 2419 0 
L 2419 1100 
L 313 1100 
L 313 1709 
L 2253 4666 
z
" transform="scale(0.015625)"/>
     </defs>
     <use xlink:href="#DejaVuSans-34"/>
     <use xlink:href="#DejaVuSans-25" x="63.623047"/>
    </g>
   </g>
   <g id="text_15">
    <!-- Sweden -->
    <g transform="translate(745.930093 752.373516)scale(0.0579 -0.0579)">
     <defs>
      <path id="DejaVuSans-77" d="M 269 3500 
L 844 3500 
L 1563 769 
L 2278 3500 
L 2956 3500 
L 3675 769 
L 4391 3500 
L 4966 3500 
L 4050 0 
L 3372 0 
L 2619 2869 
L 1863 0 
L 1184 0 
L 269 3500 
z
" transform="scale(0.015625)"/>
     </defs>
     <use xlink:href="#DejaVuSans-53"/>
     <use xlink:href="#DejaVuSans-77" x="63.476562"/>
     <use xlink:href="#DejaVuSans-65" x="145.263672"/>
     <use xlink:href="#DejaVuSans-64" x="206.787109"/>
     <use xlink:href="#DejaVuSans-65" x="270.263672"/>
     <use xlink:href="#DejaVuSans-6e" x="331.787109"/>
    </g>
   </g>
   <g id="text_16">
    <!-- 4% -->
    <g transform="translate(732.33163 1069.258066)scale(0.0579 -0.0579)">
     <use xlink:href="#DejaVuSans-34"/>
     <use xlink:href="#DejaVuSans-25" x="63.623047"/>
    </g>
   </g>
   <g id="text_17">
    <!-- Norway -->
    <g transform="translate(556.934598 767.806956)scale(0.0579 -0.0579)">
     <defs>
      <path id="DejaVuSans-6f" d="M 1959 3097 
Q 1497 3097 1228 2736 
Q 959 2375 959 1747 
Q 959 1119 1226 758 
Q 1494 397 1959 397 
Q 2419 397 2687 759 
Q 2956 1122 2956 1747 
Q 2956 2369 2687 2733 
Q 2419 3097 1959 3097 
z
M 1959 3584 
Q 2709 3584 3137 3096 
Q 3566 2609 3566 1747 
Q 3566 888 3137 398 
Q 2709 -91 1959 -91 
Q 1206 -91 779 398 
Q 353 888 353 1747 
Q 353 2609 779 3096 
Q 1206 3584 1959 3584 
z
" transform="scale(0.015625)"/>
      <path id="DejaVuSans-79" d="M 2059 -325 
Q 1816 -950 1584 -1140 
Q 1353 -1331 966 -1331 
L 506 -1331 
L 506 -850 
L 844 -850 
Q 1081 -850 1212 -737 
Q 1344 -625 1503 -206 
L 1606 56 
L 191 3500 
L 800 3500 
L 1894 763 
L 2988 3500 
L 3597 3500 
L 2059 -325 
z
" transform="scale(0.015625)"/>
     </defs>
     <use xlink:href="#DejaVuSans-4e"/>
     <use xlink:href="#DejaVuSans-6f" x="74.804688"/>
     <use xlink:href="#DejaVuSans-72" x="135.986328"/>
     <use xlink:href="#DejaVuSans-77" x="177.099609"/>
     <use xlink:href="#DejaVuSans-61" x="258.886719"/>
     <use xlink:href="#DejaVuSans-79" x="320.166016"/>
    </g>
   </g>
   <g id="text_18">
    <!-- 3% -->
    <g transform="translate(641.224037 1077.676305)scale(0.0579 -0.0579)">
     <defs>
      <path id="DejaVuSans-33" d="M 2597 2516 
Q 3050 2419 3304 2112 
Q 3559 1806 3559 1356 
Q 3559 666 3084 287 
Q 2609 -91 1734 -91 
Q 1441 -91 1130 -33 
Q 819 25 488 141 
L 488 750 
Q 750 597 1062 519 
Q 1375 441 1716 441 
Q 2309 441 2620 675 
Q 2931 909 2931 1356 
Q 2931 1769 2642 2001 
Q 2353 2234 1838 2234 
L 1294 2234 
L 1294 2753 
L 1863 2753 
Q 2328 2753 2575 2939 
Q 2822 3125 2822 3475 
Q 2822 3834 2567 4026 
Q 2313 4219 1838 4219 
Q 1578 4219 1281 4162 
Q 984 4106 628 3988 
L 628 4550 
Q 988 4650 1302 4700 
Q 1616 4750 1894 4750 
Q 2613 4750 3031 4423 
Q 3450 4097 3450 3541 
Q 3450 3153 3228 2886 
Q 3006 2619 2597 2516 
z
" transform="scale(0.015625)"/>
     </defs>
     <use xlink:href="#DejaVuSans-33"/>
     <use xlink:href="#DejaVuSans-25" x="63.623047"/>
    </g>
   </g>
   <g id="text_19">
    <!-- Hungary -->
    <g transform="translate(432.800046 805.886958)scale(0.0579 -0.0579)">
     <defs>
      <path id="DejaVuSans-48" d="M 628 4666 
L 1259 4666 
L 1259 2753 
L 3553 2753 
L 3553 4666 
L 4184 4666 
L 4184 0 
L 3553 0 
L 3553 2222 
L 1259 2222 
L 1259 0 
L 628 0 
L 628 4666 
z
" transform="scale(0.015625)"/>
     </defs>
     <use xlink:href="#DejaVuSans-48"/>
     <use xlink:href="#DejaVuSans-75" x="75.195312"/>
     <use xlink:href="#DejaVuSans-6e" x="138.574219"/>
     <use xlink:href="#DejaVuSans-67" x="201.953125"/>
     <use xlink:href="#DejaVuSans-61" x="265.429688"/>
     <use xlink:href="#DejaVuSans-72" x="326.708984"/>
     <use xlink:href="#DejaVuSans-79" x="367.822266"/>
    </g>
   </g>
   <g id="text_20">
    <!-- 3% -->
    <g transform="translate(575.019352 1098.447216)scale(0.0579 -0.0579)">
     <use xlink:href="#DejaVuSans-33"/>
     <use xlink:href="#DejaVuSans-25" x="63.623047"/>
    </g>
   </g>
   <g id="text_21">
    <!-- United Arab Emirates -->
    <g transform="translate(309.096016 849.243238)scale(0.0579 -0.0579)">
     <defs>
      <path id="DejaVuSans-41" d="M 2188 4044 
L 1331 1722 
L 3047 1722 
L 2188 4044 
z
M 1831 4666 
L 2547 4666 
L 4325 0 
L 3669 0 
L 3244 1197 
L 1141 1197 
L 716 0 
L 50 0 
L 1831 4666 
z
" transform="scale(0.015625)"/>
      <path id="DejaVuSans-45" d="M 628 4666 
L 3578 4666 
L 3578 4134 
L 1259 4134 
L 1259 2753 
L 3481 2753 
L 3481 2222 
L 1259 2222 
L 1259 531 
L 3634 531 
L 3634 0 
L 628 0 
L 628 4666 
z
" transform="scale(0.015625)"/>
     </defs>
     <use xlink:href="#DejaVuSans-55"/>
     <use xlink:href="#DejaVuSans-6e" x="73.193359"/>
     <use xlink:href="#DejaVuSans-69" x="136.572266"/>
     <use xlink:href="#DejaVuSans-74" x="164.355469"/>
     <use xlink:href="#DejaVuSans-65" x="203.564453"/>
     <use xlink:href="#DejaVuSans-64" x="265.087891"/>
     <use xlink:href="#DejaVuSans-20" x="328.564453"/>
     <use xlink:href="#DejaVuSans-41" x="360.351562"/>
     <use xlink:href="#DejaVuSans-72" x="428.759766"/>
     <use xlink:href="#DejaVuSans-61" x="469.873047"/>
     <use xlink:href="#DejaVuSans-62" x="531.152344"/>
     <use xlink:href="#DejaVuSans-20" x="594.628906"/>
     <use xlink:href="#DejaVuSans-45" x="626.416016"/>
     <use xlink:href="#DejaVuSans-6d" x="689.599609"/>
     <use xlink:href="#DejaVuSans-69" x="787.011719"/>
     <use xlink:href="#DejaVuSans-72" x="814.794922"/>
     <use xlink:href="#DejaVuSans-61" x="855.908203"/>
     <use xlink:href="#DejaVuSans-74" x="917.1875"/>
     <use xlink:href="#DejaVuSans-65" x="956.396484"/>
     <use xlink:href="#DejaVuSans-73" x="1017.919922"/>
    </g>
   </g>
   <g id="text_22">
    <!-- 2% -->
    <g transform="translate(527.851042 1122.096096)scale(0.0579 -0.0579)">
     <use xlink:href="#DejaVuSans-32"/>
     <use xlink:href="#DejaVuSans-25" x="63.623047"/>
    </g>
   </g>
   <g id="text_23">
    <!-- Serbia -->
    <g transform="translate(293.161773 888.635233)scale(0.0579 -0.0579)">
     <use xlink:href="#DejaVuSans-53"/>
     <use xlink:href="#DejaVuSans-65" x="63.476562"/>
     <use xlink:href="#DejaVuSans-72" x="125"/>
     <use xlink:href="#DejaVuSans-62" x="166.113281"/>
     <use xlink:href="#DejaVuSans-69" x="229.589844"/>
     <use xlink:href="#DejaVuSans-61" x="257.373047"/>
    </g>
   </g>
   <g id="text_24">
    <!-- 1% -->
    <g transform="translate(495.431329 1143.582638)scale(0.0579 -0.0579)">
     <use xlink:href="#DejaVuSans-31"/>
     <use xlink:href="#DejaVuSans-25" x="63.623047"/>
    </g>
   </g>
   <g id="text_25">
    <!-- Egypt -->
    <g transform="translate(251.216178 923.721911)scale(0.0579 -0.0579)">
     <use xlink:href="#DejaVuSans-45"/>
     <use xlink:href="#DejaVuSans-67" x="63.183594"/>
     <use xlink:href="#DejaVuSans-79" x="126.660156"/>
     <use xlink:href="#DejaVuSans-70" x="185.839844"/>
     <use xlink:href="#DejaVuSans-74" x="249.316406"/>
    </g>
   </g>
   <g id="text_26">
    <!-- 1% -->
    <g transform="translate(471.600511 1162.720827)scale(0.0579 -0.0579)">
     <use xlink:href="#DejaVuSans-31"/>
     <use xlink:href="#DejaVuSans-25" x="63.623047"/>
    </g>
   </g>
   <g id="text_27">
    <!-- Cuba -->
    <g transform="translate(215.828221 958.570624)scale(0.0579 -0.0579)">
     <use xlink:href="#DejaVuSans-43"/>
     <use xlink:href="#DejaVuSans-75" x="69.824219"/>
     <use xlink:href="#DejaVuSans-62" x="133.203125"/>
     <use xlink:href="#DejaVuSans-61" x="196.679688"/>
    </g>
   </g>
   <g id="text_28">
    <!-- 1% -->
    <g transform="translate(451.332277 1181.729215)scale(0.0579 -0.0579)">
     <use xlink:href="#DejaVuSans-31"/>
     <use xlink:href="#DejaVuSans-25" x="63.623047"/>
    </g>
   </g>
   <g id="text_29">
    <!-- Lebanon -->
    <g transform="translate(174.783398 992.179666)scale(0.0579 -0.0579)">
     <defs>
      <path id="DejaVuSans-4c" d="M 628 4666 
L 1259 4666 
L 1259 531 
L 3531 531 
L 3531 0 
L 628 0 
L 628 4666 
z
" transform="scale(0.015625)"/>
     </defs>
     <use xlink:href="#DejaVuSans-4c"/>
     <use xlink:href="#DejaVuSans-65" x="53.962891"/>
     <use xlink:href="#DejaVuSans-62" x="115.486328"/>
     <use xlink:href="#DejaVuSans-61" x="178.962891"/>
     <use xlink:href="#DejaVuSans-6e" x="240.242188"/>
     <use xlink:href="#DejaVuSans-6f" x="303.621094"/>
     <use xlink:href="#DejaVuSans-6e" x="364.802734"/>
    </g>
   </g>
   <g id="text_30">
    <!-- 1% -->
    <g transform="translate(434.320502 1200.06142)scale(0.0579 -0.0579)">
     <use xlink:href="#DejaVuSans-31"/>
     <use xlink:href="#DejaVuSans-25" x="63.623047"/>
    </g>
   </g>
   <g id="text_31">
    <!-- Algeria -->
    <g transform="translate(153.415383 1023.718494)scale(0.0579 -0.0579)">
     <use xlink:href="#DejaVuSans-41"/>
     <use xlink:href="#DejaVuSans-6c" x="68.408203"/>
     <use xlink:href="#DejaVuSans-67" x="96.191406"/>
     <use xlink:href="#DejaVuSans-65" x="159.667969"/>
     <use xlink:href="#DejaVuSans-72" x="221.191406"/>
     <use xlink:href="#DejaVuSans-69" x="262.304688"/>
     <use xlink:href="#DejaVuSans-61" x="290.087891"/>
    </g>
   </g>
   <g id="text_32">
    <!-- 1% -->
    <g transform="translate(420.23885 1217.264417)scale(0.0579 -0.0579)">
     <use xlink:href="#DejaVuSans-31"/>
     <use xlink:href="#DejaVuSans-25" x="63.623047"/>
    </g>
   </g>
   <g id="text_33">
    <!-- Qatar -->
    <g transform="translate(133.525778 1056.711528)scale(0.0579 -0.0579)">
     <defs>
      <path id="DejaVuSans-51" d="M 2522 4238 
Q 1834 4238 1429 3725 
Q 1025 3213 1025 2328 
Q 1025 1447 1429 934 
Q 1834 422 2522 422 
Q 3209 422 3611 934 
Q 4013 1447 4013 2328 
Q 4013 3213 3611 3725 
Q 3209 4238 2522 4238 
z
M 3406 84 
L 4238 -825 
L 3475 -825 
L 2784 -78 
Q 2681 -84 2626 -87 
Q 2572 -91 2522 -91 
Q 1538 -91 948 567 
Q 359 1225 359 2328 
Q 359 3434 948 4092 
Q 1538 4750 2522 4750 
Q 3503 4750 4090 4092 
Q 4678 3434 4678 2328 
Q 4678 1516 4351 937 
Q 4025 359 3406 84 
z
" transform="scale(0.015625)"/>
     </defs>
     <use xlink:href="#DejaVuSans-51"/>
     <use xlink:href="#DejaVuSans-61" x="78.710938"/>
     <use xlink:href="#DejaVuSans-74" x="139.990234"/>
     <use xlink:href="#DejaVuSans-61" x="179.199219"/>
     <use xlink:href="#DejaVuSans-72" x="240.478516"/>
    </g>
   </g>
   <g id="text_34">
    <!-- 1% -->
    <g transform="translate(407.186155 1235.260617)scale(0.0579 -0.0579)">
     <use xlink:href="#DejaVuSans-31"/>
     <use xlink:href="#DejaVuSans-25" x="63.623047"/>
    </g>
   </g>
   <g id="text_35">
    <!-- Mexico -->
    <g transform="translate(110.284367 1086.68487)scale(0.0579 -0.0579)">
     <defs>
      <path id="DejaVuSans-4d" d="M 628 4666 
L 1569 4666 
L 2759 1491 
L 3956 4666 
L 4897 4666 
L 4897 0 
L 4281 0 
L 4281 4097 
L 3078 897 
L 2444 897 
L 1241 4097 
L 1241 0 
L 628 0 
L 628 4666 
z
" transform="scale(0.015625)"/>
      <path id="DejaVuSans-78" d="M 3513 3500 
L 2247 1797 
L 3578 0 
L 2900 0 
L 1881 1375 
L 863 0 
L 184 0 
L 1544 1831 
L 300 3500 
L 978 3500 
L 1906 2253 
L 2834 3500 
L 3513 3500 
z
" transform="scale(0.015625)"/>
     </defs>
     <use xlink:href="#DejaVuSans-4d"/>
     <use xlink:href="#DejaVuSans-65" x="86.279297"/>
     <use xlink:href="#DejaVuSans-78" x="146.052734"/>
     <use xlink:href="#DejaVuSans-69" x="205.232422"/>
     <use xlink:href="#DejaVuSans-63" x="233.015625"/>
     <use xlink:href="#DejaVuSans-6f" x="287.996094"/>
    </g>
   </g>
   <g id="text_36">
    <!-- 1% -->
    <g transform="translate(396.644249 1251.609713)scale(0.0579 -0.0579)">
     <use xlink:href="#DejaVuSans-31"/>
     <use xlink:href="#DejaVuSans-25" x="63.623047"/>
    </g>
   </g>
   <g id="text_37">
    <!-- Sri Lanka -->
    <g transform="translate(88.427224 1113.134509)scale(0.0579 -0.0579)">
     <use xlink:href="#DejaVuSans-53"/>
     <use xlink:href="#DejaVuSans-72" x="63.476562"/>
     <use xlink:href="#DejaVuSans-69" x="104.589844"/>
     <use xlink:href="#DejaVuSans-20" x="132.373047"/>
     <use xlink:href="#DejaVuSans-4c" x="164.160156"/>
     <use xlink:href="#DejaVuSans-61" x="219.873047"/>
     <use xlink:href="#DejaVuSans-6e" x="281.152344"/>
     <use xlink:href="#DejaVuSans-6b" x="344.53125"/>
     <use xlink:href="#DejaVuSans-61" x="400.691406"/>
    </g>
   </g>
   <g id="text_38">
    <!-- 1% -->
    <g transform="translate(388.283514 1266.036789)scale(0.0579 -0.0579)">
     <use xlink:href="#DejaVuSans-31"/>
     <use xlink:href="#DejaVuSans-25" x="63.623047"/>
    </g>
   </g>
   <g id="text_39">
    <!-- Jordan -->
    <g transform="translate(82.59795 1140.230447)scale(0.0579 -0.0579)">
     <defs>
      <path id="DejaVuSans-4a" d="M 628 4666 
L 1259 4666 
L 1259 325 
Q 1259 -519 939 -900 
Q 619 -1281 -91 -1281 
L -331 -1281 
L -331 -750 
L -134 -750 
Q 284 -750 456 -515 
Q 628 -281 628 325 
L 628 4666 
z
" transform="scale(0.015625)"/>
     </defs>
     <use xlink:href="#DejaVuSans-4a"/>
     <use xlink:href="#DejaVuSans-6f" x="29.492188"/>
     <use xlink:href="#DejaVuSans-72" x="90.673828"/>
     <use xlink:href="#DejaVuSans-64" x="130.037109"/>
     <use xlink:href="#DejaVuSans-61" x="193.513672"/>
     <use xlink:href="#DejaVuSans-6e" x="254.792969"/>
    </g>
   </g>
   <g id="text_40">
    <!-- 1% -->
    <g transform="translate(380.563037 1280.816391)scale(0.0579 -0.0579)">
     <use xlink:href="#DejaVuSans-31"/>
     <use xlink:href="#DejaVuSans-25" x="63.623047"/>
    </g>
   </g>
   <g id="text_41">
    <!-- India -->
    <g transform="translate(75.932251 1163.26657)scale(0.0579 -0.0579)">
     <defs>
      <path id="DejaVuSans-49" d="M 628 4666 
L 1259 4666 
L 1259 0 
L 628 0 
L 628 4666 
z
" transform="scale(0.015625)"/>
     </defs>
     <use xlink:href="#DejaVuSans-49"/>
     <use xlink:href="#DejaVuSans-6e" x="29.492188"/>
     <use xlink:href="#DejaVuSans-64" x="92.871094"/>
     <use xlink:href="#DejaVuSans-69" x="156.347656"/>
     <use xlink:href="#DejaVuSans-61" x="184.130859"/>
    </g>
   </g>
   <g id="text_42">
    <!-- 0% -->
    <g transform="translate(374.629131 1293.38155)scale(0.0579 -0.0579)">
     <use xlink:href="#DejaVuSans-30"/>
     <use xlink:href="#DejaVuSans-25" x="63.623047"/>
    </g>
   </g>
   <g id="text_43">
    <!-- Argentina -->
    <g transform="translate(53.805997 1181.971965)scale(0.0579 -0.0579)">
     <use xlink:href="#DejaVuSans-41"/>
     <use xlink:href="#DejaVuSans-72" x="68.408203"/>
     <use xlink:href="#DejaVuSans-67" x="107.771484"/>
     <use xlink:href="#DejaVuSans-65" x="171.248047"/>
     <use xlink:href="#DejaVuSans-6e" x="232.771484"/>
     <use xlink:href="#DejaVuSans-74" x="296.150391"/>
     <use xlink:href="#DejaVuSans-69" x="335.359375"/>
     <use xlink:href="#DejaVuSans-6e" x="363.142578"/>
     <use xlink:href="#DejaVuSans-61" x="426.521484"/>
    </g>
   </g>
   <g id="text_44">
    <!-- 0% -->
    <g transform="translate(370.214908 1303.584492)scale(0.0579 -0.0579)">
     <use xlink:href="#DejaVuSans-30"/>
     <use xlink:href="#DejaVuSans-25" x="63.623047"/>
    </g>
   </g>
   <g id="text_45">
    <!-- Pakistan -->
    <g transform="translate(50.262905 1200.905842)scale(0.0579 -0.0579)">
     <defs>
      <path id="DejaVuSans-50" d="M 1259 4147 
L 1259 2394 
L 2053 2394 
Q 2494 2394 2734 2622 
Q 2975 2850 2975 3272 
Q 2975 3691 2734 3919 
Q 2494 4147 2053 4147 
L 1259 4147 
z
M 628 4666 
L 2053 4666 
Q 2838 4666 3239 4311 
Q 3641 3956 3641 3272 
Q 3641 2581 3239 2228 
Q 2838 1875 2053 1875 
L 1259 1875 
L 1259 0 
L 628 0 
L 628 4666 
z
" transform="scale(0.015625)"/>
     </defs>
     <use xlink:href="#DejaVuSans-50"/>
     <use xlink:href="#DejaVuSans-61" x="55.802734"/>
     <use xlink:href="#DejaVuSans-6b" x="117.082031"/>
     <use xlink:href="#DejaVuSans-69" x="174.992188"/>
     <use xlink:href="#DejaVuSans-73" x="202.775391"/>
     <use xlink:href="#DejaVuSans-74" x="254.875"/>
     <use xlink:href="#DejaVuSans-61" x="294.083984"/>
     <use xlink:href="#DejaVuSans-6e" x="355.363281"/>
    </g>
   </g>
   <g id="text_46">
    <!-- 0% -->
    <g transform="translate(366.100699 1313.912061)scale(0.0579 -0.0579)">
     <use xlink:href="#DejaVuSans-30"/>
     <use xlink:href="#DejaVuSans-25" x="63.623047"/>
    </g>
   </g>
   <g id="text_47">
    <!-- Thailand -->
    <g transform="translate(42.656042 1220.052032)scale(0.0579 -0.0579)">
     <defs>
      <path id="DejaVuSans-54" d="M -19 4666 
L 3928 4666 
L 3928 4134 
L 2272 4134 
L 2272 0 
L 1638 0 
L 1638 4134 
L -19 4134 
L -19 4666 
z
" transform="scale(0.015625)"/>
     </defs>
     <use xlink:href="#DejaVuSans-54"/>
     <use xlink:href="#DejaVuSans-68" x="61.083984"/>
     <use xlink:href="#DejaVuSans-61" x="124.462891"/>
     <use xlink:href="#DejaVuSans-69" x="185.742188"/>
     <use xlink:href="#DejaVuSans-6c" x="213.525391"/>
     <use xlink:href="#DejaVuSans-61" x="241.308594"/>
     <use xlink:href="#DejaVuSans-6e" x="302.587891"/>
     <use xlink:href="#DejaVuSans-64" x="365.966797"/>
    </g>
   </g>
   <g id="text_48">
    <!-- 0% -->
    <g transform="translate(362.290019 1324.355438)scale(0.0579 -0.0579)">
     <use xlink:href="#DejaVuSans-30"/>
     <use xlink:href="#DejaVuSans-25" x="63.623047"/>
    </g>
   </g>
   <g id="text_49">
    <!-- Armenia -->
    <g transform="translate(38.381334 1234.541176)scale(0.0579 -0.0579)">
     <use xlink:href="#DejaVuSans-41"/>
     <use xlink:href="#DejaVuSans-72" x="68.408203"/>
     <use xlink:href="#DejaVuSans-6d" x="107.771484"/>
     <use xlink:href="#DejaVuSans-65" x="205.183594"/>
     <use xlink:href="#DejaVuSans-6e" x="266.707031"/>
     <use xlink:href="#DejaVuSans-69" x="330.085938"/>
     <use xlink:href="#DejaVuSans-61" x="357.869141"/>
    </g>
   </g>
   <g id="text_50">
    <!-- 0% -->
    <g transform="translate(359.633166 1332.258607)scale(0.0579 -0.0579)">
     <use xlink:href="#DejaVuSans-30"/>
     <use xlink:href="#DejaVuSans-25" x="63.623047"/>
    </g>
   </g>
   <g id="text_51">
    <!-- Bangladesh -->
    <g transform="translate(25.632651 1244.25841)scale(0.0579 -0.0579)">
     <use xlink:href="#DejaVuSans-42"/>
     <use xlink:href="#DejaVuSans-61" x="68.603516"/>
     <use xlink:href="#DejaVuSans-6e" x="129.882812"/>
     <use xlink:href="#DejaVuSans-67" x="193.261719"/>
     <use xlink:href="#DejaVuSans-6c" x="256.738281"/>
     <use xlink:href="#DejaVuSans-61" x="284.521484"/>
     <use xlink:href="#DejaVuSans-64" x="345.800781"/>
     <use xlink:href="#DejaVuSans-65" x="409.277344"/>
     <use xlink:href="#DejaVuSans-73" x="470.800781"/>
     <use xlink:href="#DejaVuSans-68" x="522.900391"/>
    </g>
   </g>
   <g id="text_52">
    <!-- 0% -->
    <g transform="translate(357.958437 1337.558917)scale(0.0579 -0.0579)">
     <use xlink:href="#DejaVuSans-30"/>
     <use xlink:href="#DejaVuSans-25" x="63.623047"/>
    </g>
   </g>
   <g id="text_53">
    <!-- Venezuela -->
    <g transform="translate(26.916851 1254.019469)scale(0.0579 -0.0579)">
     <defs>
      <path id="DejaVuSans-56" d="M 1831 0 
L 50 4666 
L 709 4666 
L 2188 738 
L 3669 4666 
L 4325 4666 
L 2547 0 
L 1831 0 
z
" transform="scale(0.015625)"/>
     </defs>
     <use xlink:href="#DejaVuSans-56"/>
     <use xlink:href="#DejaVuSans-65" x="60.658203"/>
     <use xlink:href="#DejaVuSans-6e" x="122.181641"/>
     <use xlink:href="#DejaVuSans-65" x="185.560547"/>
     <use xlink:href="#DejaVuSans-7a" x="247.083984"/>
     <use xlink:href="#DejaVuSans-75" x="299.574219"/>
     <use xlink:href="#DejaVuSans-65" x="362.953125"/>
     <use xlink:href="#DejaVuSans-6c" x="424.476562"/>
     <use xlink:href="#DejaVuSans-61" x="452.259766"/>
    </g>
   </g>
   <g id="text_54">
    <!-- 0% -->
    <g transform="translate(356.361333 1342.883131)scale(0.0579 -0.0579)">
     <use xlink:href="#DejaVuSans-30"/>
     <use xlink:href="#DejaVuSans-25" x="63.623047"/>
    </g>
   </g>
   <g id="text_55">
    <!-- Ghana -->
    <g transform="translate(34.944588 1263.822269)scale(0.0579 -0.0579)">
     <use xlink:href="#DejaVuSans-47"/>
     <use xlink:href="#DejaVuSans-68" x="77.490234"/>
     <use xlink:href="#DejaVuSans-61" x="140.869141"/>
     <use xlink:href="#DejaVuSans-6e" x="202.148438"/>
     <use xlink:href="#DejaVuSans-61" x="265.527344"/>
    </g>
   </g>
   <g id="text_56">
    <!-- 0% -->
    <g transform="translate(354.842194 1348.230113)scale(0.0579 -0.0579)">
     <use xlink:href="#DejaVuSans-30"/>
     <use xlink:href="#DejaVuSans-25" x="63.623047"/>
    </g>
   </g>
   <g id="text_57">
    <!-- Ethiopia -->
    <g transform="translate(27.642985 1273.664717)scale(0.0579 -0.0579)">
     <use xlink:href="#DejaVuSans-45"/>
     <use xlink:href="#DejaVuSans-74" x="63.183594"/>
     <use xlink:href="#DejaVuSans-68" x="102.392578"/>
     <use xlink:href="#DejaVuSans-69" x="165.771484"/>
     <use xlink:href="#DejaVuSans-6f" x="193.554688"/>
     <use xlink:href="#DejaVuSans-70" x="254.736328"/>
     <use xlink:href="#DejaVuSans-69" x="318.212891"/>
     <use xlink:href="#DejaVuSans-61" x="345.996094"/>
    </g>
   </g>
   <g id="text_58">
    <!-- 0% -->
    <g transform="translate(353.401344 1353.598721)scale(0.0579 -0.0579)">
     <use xlink:href="#DejaVuSans-30"/>
     <use xlink:href="#DejaVuSans-25" x="63.623047"/>
    </g>
   </g>
   <g id="text_59">
    <!-- Senegal -->
    <g transform="translate(25.424167 1283.544712)scale(0.0579 -0.0579)">
     <use xlink:href="#DejaVuSans-53"/>
     <use xlink:href="#DejaVuSans-65" x="63.476562"/>
     <use xlink:href="#DejaVuSans-6e" x="125"/>
     <use xlink:href="#DejaVuSans-65" x="188.378906"/>
     <use xlink:href="#DejaVuSans-67" x="249.902344"/>
     <use xlink:href="#DejaVuSans-61" x="313.378906"/>
     <use xlink:href="#DejaVuSans-6c" x="374.658203"/>
    </g>
   </g>
   <g id="text_60">
    <!-- 0% -->
    <g transform="translate(352.039093 1358.987809)scale(0.0579 -0.0579)">
     <use xlink:href="#DejaVuSans-30"/>
     <use xlink:href="#DejaVuSans-25" x="63.623047"/>
    </g>
   </g>
   <g id="text_61">
    <!-- Maldives -->
    <g transform="translate(20.931748 1293.460143)scale(0.0579 -0.0579)">
     <defs>
      <path id="DejaVuSans-76" d="M 191 3500 
L 800 3500 
L 1894 563 
L 2988 3500 
L 3597 3500 
L 2284 0 
L 1503 0 
L 191 3500 
z
" transform="scale(0.015625)"/>
     </defs>
     <use xlink:href="#DejaVuSans-4d"/>
     <use xlink:href="#DejaVuSans-61" x="86.279297"/>
     <use xlink:href="#DejaVuSans-6c" x="147.558594"/>
     <use xlink:href="#DejaVuSans-64" x="175.341797"/>
     <use xlink:href="#DejaVuSans-69" x="238.818359"/>
     <use xlink:href="#DejaVuSans-76" x="266.601562"/>
     <use xlink:href="#DejaVuSans-65" x="325.78125"/>
     <use xlink:href="#DejaVuSans-73" x="387.304688"/>
    </g>
   </g>
   <g id="text_62">
    <!-- 0% -->
    <g transform="translate(350.755729 1364.396226)scale(0.0579 -0.0579)">
     <use xlink:href="#DejaVuSans-30"/>
     <use xlink:href="#DejaVuSans-25" x="63.623047"/>
    </g>
   </g>
   <g id="text_63">
    <!-- Mauritius -->
    <g transform="translate(17.400488 1303.408895)scale(0.0579 -0.0579)">
     <use xlink:href="#DejaVuSans-4d"/>
     <use xlink:href="#DejaVuSans-61" x="86.279297"/>
     <use xlink:href="#DejaVuSans-75" x="147.558594"/>
     <use xlink:href="#DejaVuSans-72" x="210.9375"/>
     <use xlink:href="#DejaVuSans-69" x="252.050781"/>
     <use xlink:href="#DejaVuSans-74" x="279.833984"/>
     <use xlink:href="#DejaVuSans-69" x="319.042969"/>
     <use xlink:href="#DejaVuSans-75" x="346.826172"/>
     <use xlink:href="#DejaVuSans-73" x="410.205078"/>
    </g>
   </g>
   <g id="text_64">
    <!-- 0% -->
    <g transform="translate(349.551528 1369.822818)scale(0.0579 -0.0579)">
     <use xlink:href="#DejaVuSans-30"/>
     <use xlink:href="#DejaVuSans-25" x="63.623047"/>
    </g>
   </g>
   <g id="text_65">
    <!-- Cyprus -->
    <g transform="translate(21.892849 1313.388842)scale(0.0579 -0.0579)">
     <use xlink:href="#DejaVuSans-43"/>
     <use xlink:href="#DejaVuSans-79" x="69.824219"/>
     <use xlink:href="#DejaVuSans-70" x="129.003906"/>
     <use xlink:href="#DejaVuSans-72" x="192.480469"/>
     <use xlink:href="#DejaVuSans-75" x="233.59375"/>
     <use xlink:href="#DejaVuSans-73" x="296.972656"/>
    </g>
   </g>
   <g id="text_66">
    <!-- 0% -->
    <g transform="translate(348.426746 1375.266425)scale(0.0579 -0.0579)">
     <use xlink:href="#DejaVuSans-30"/>
     <use xlink:href="#DejaVuSans-25" x="63.623047"/>
    </g>
   </g>
   <g id="text_67">
    <!-- Oman -->
    <g transform="translate(22.773181 1323.397855)scale(0.0579 -0.0579)">
     <defs>
      <path id="DejaVuSans-4f" d="M 2522 4238 
Q 1834 4238 1429 3725 
Q 1025 3213 1025 2328 
Q 1025 1447 1429 934 
Q 1834 422 2522 422 
Q 3209 422 3611 934 
Q 4013 1447 4013 2328 
Q 4013 3213 3611 3725 
Q 3209 4238 2522 4238 
z
M 2522 4750 
Q 3503 4750 4090 4092 
Q 4678 3434 4678 2328 
Q 4678 1225 4090 567 
Q 3503 -91 2522 -91 
Q 1538 -91 948 565 
Q 359 1222 359 2328 
Q 359 3434 948 4092 
Q 1538 4750 2522 4750 
z
" transform="scale(0.015625)"/>
     </defs>
     <use xlink:href="#DejaVuSans-4f"/>
     <use xlink:href="#DejaVuSans-6d" x="78.710938"/>
     <use xlink:href="#DejaVuSans-61" x="176.123047"/>
     <use xlink:href="#DejaVuSans-6e" x="237.402344"/>
    </g>
   </g>
   <g id="text_68">
    <!-- 0% -->
    <g transform="translate(347.381624 1380.725887)scale(0.0579 -0.0579)">
     <use xlink:href="#DejaVuSans-30"/>
     <use xlink:href="#DejaVuSans-25" x="63.623047"/>
    </g>
   </g>
   <g id="text_69">
    <!-- Italy Inbound InBound Flight distribution -->
    <g transform="translate(603.395097 20.8)scale(0.12 -0.12)">
     <defs>
      <path id="DejaVuSans-46" d="M 628 4666 
L 3309 4666 
L 3309 4134 
L 1259 4134 
L 1259 2759 
L 3109 2759 
L 3109 2228 
L 1259 2228 
L 1259 0 
L 628 0 
L 628 4666 
z
" transform="scale(0.015625)"/>
     </defs>
     <use xlink:href="#DejaVuSans-49"/>
     <use xlink:href="#DejaVuSans-74" x="29.492188"/>
     <use xlink:href="#DejaVuSans-61" x="68.701172"/>
     <use xlink:href="#DejaVuSans-6c" x="129.980469"/>
     <use xlink:href="#DejaVuSans-79" x="157.763672"/>
     <use xlink:href="#DejaVuSans-20" x="216.943359"/>
     <use xlink:href="#DejaVuSans-49" x="248.730469"/>
     <use xlink:href="#DejaVuSans-6e" x="278.222656"/>
     <use xlink:href="#DejaVuSans-62" x="341.601562"/>
     <use xlink:href="#DejaVuSans-6f" x="405.078125"/>
     <use xlink:href="#DejaVuSans-75" x="466.259766"/>
     <use xlink:href="#DejaVuSans-6e" x="529.638672"/>
     <use xlink:href="#DejaVuSans-64" x="593.017578"/>
     <use xlink:href="#DejaVuSans-20" x="656.494141"/>
     <use xlink:href="#DejaVuSans-49" x="688.28125"/>
     <use xlink:href="#DejaVuSans-6e" x="717.773438"/>
     <use xlink:href="#DejaVuSans-42" x="781.152344"/>
     <use xlink:href="#DejaVuSans-6f" x="849.755859"/>
     <use xlink:href="#DejaVuSans-75" x="910.9375"/>
     <use xlink:href="#DejaVuSans-6e" x="974.316406"/>
     <use xlink:href="#DejaVuSans-64" x="1037.695312"/>
     <use xlink:href="#DejaVuSans-20" x="1101.171875"/>
     <use xlink:href="#DejaVuSans-46" x="1132.958984"/>
     <use xlink:href="#DejaVuSans-6c" x="1190.478516"/>
     <use xlink:href="#DejaVuSans-69" x="1218.261719"/>
     <use xlink:href="#DejaVuSans-67" x="1246.044922"/>
     <use xlink:href="#DejaVuSans-68" x="1309.521484"/>
     <use xlink:href="#DejaVuSans-74" x="1372.900391"/>
     <use xlink:href="#DejaVuSans-20" x="1412.109375"/>
     <use xlink:href="#DejaVuSans-64" x="1443.896484"/>
     <use xlink:href="#DejaVuSans-69" x="1507.373047"/>
     <use xlink:href="#DejaVuSans-73" x="1535.15625"/>
     <use xlink:href="#DejaVuSans-74" x="1587.255859"/>
     <use xlink:href="#DejaVuSans-72" x="1626.464844"/>
     <use xlink:href="#DejaVuSans-69" x="1667.578125"/>
     <use xlink:href="#DejaVuSans-62" x="1695.361328"/>
     <use xlink:href="#DejaVuSans-75" x="1758.837891"/>
     <use xlink:href="#DejaVuSans-74" x="1822.216797"/>
     <use xlink:href="#DejaVuSans-69" x="1861.425781"/>
     <use xlink:href="#DejaVuSans-6f" x="1889.208984"/>
     <use xlink:href="#DejaVuSans-6e" x="1950.390625"/>
    </g>
   </g>
  </g>
  <g id="axes_2">
   <g id="legend_1">
    <g id="patch_36">
     <path d="M 1471.174237 1699.028125 
L 1610.174237 1699.028125 
Q 1612.174237 1699.028125 1612.174237 1697.028125 
L 1612.174237 1198.971875 
Q 1612.174237 1196.971875 1610.174237 1196.971875 
L 1471.174237 1196.971875 
Q 1469.174237 1196.971875 1469.174237 1198.971875 
L 1469.174237 1697.028125 
Q 1469.174237 1699.028125 1471.174237 1699.028125 
z
" style="fill: #ffffff; opacity: 0.8; stroke: #cccccc; stroke-linejoin: miter"/>
    </g>
    <g id="patch_37">
     <path d="M 1473.174237 1208.570312 
L 1493.174237 1208.570312 
L 1493.174237 1201.570312 
L 1473.174237 1201.570312 
z
" style="fill: #8000ff"/>
    </g>
    <g id="text_70">
     <!-- Spain -->
     <g transform="translate(1501.174237 1208.570312)scale(0.1 -0.1)">
      <use xlink:href="#DejaVuSans-53"/>
      <use xlink:href="#DejaVuSans-70" x="63.476562"/>
      <use xlink:href="#DejaVuSans-61" x="126.953125"/>
      <use xlink:href="#DejaVuSans-69" x="188.232422"/>
      <use xlink:href="#DejaVuSans-6e" x="216.015625"/>
     </g>
    </g>
    <g id="patch_38">
     <path d="M 1473.174237 1223.248437 
L 1493.174237 1223.248437 
L 1493.174237 1216.248437 
L 1473.174237 1216.248437 
z
" style="fill: #7216ff"/>
    </g>
    <g id="text_71">
     <!-- United States -->
     <g transform="translate(1501.174237 1223.248437)scale(0.1 -0.1)">
      <use xlink:href="#DejaVuSans-55"/>
      <use xlink:href="#DejaVuSans-6e" x="73.193359"/>
      <use xlink:href="#DejaVuSans-69" x="136.572266"/>
      <use xlink:href="#DejaVuSans-74" x="164.355469"/>
      <use xlink:href="#DejaVuSans-65" x="203.564453"/>
      <use xlink:href="#DejaVuSans-64" x="265.087891"/>
      <use xlink:href="#DejaVuSans-20" x="328.564453"/>
      <use xlink:href="#DejaVuSans-53" x="360.351562"/>
      <use xlink:href="#DejaVuSans-74" x="423.828125"/>
      <use xlink:href="#DejaVuSans-61" x="463.037109"/>
      <use xlink:href="#DejaVuSans-74" x="524.316406"/>
      <use xlink:href="#DejaVuSans-65" x="563.525391"/>
      <use xlink:href="#DejaVuSans-73" x="625.048828"/>
     </g>
    </g>
    <g id="patch_39">
     <path d="M 1473.174237 1237.926563 
L 1493.174237 1237.926563 
L 1493.174237 1230.926563 
L 1473.174237 1230.926563 
z
" style="fill: #622ffe"/>
    </g>
    <g id="text_72">
     <!-- Belgium -->
     <g transform="translate(1501.174237 1237.926563)scale(0.1 -0.1)">
      <use xlink:href="#DejaVuSans-42"/>
      <use xlink:href="#DejaVuSans-65" x="68.603516"/>
      <use xlink:href="#DejaVuSans-6c" x="130.126953"/>
      <use xlink:href="#DejaVuSans-67" x="157.910156"/>
      <use xlink:href="#DejaVuSans-69" x="221.386719"/>
      <use xlink:href="#DejaVuSans-75" x="249.169922"/>
      <use xlink:href="#DejaVuSans-6d" x="312.548828"/>
     </g>
    </g>
    <g id="patch_40">
     <path d="M 1473.174237 1252.604687 
L 1493.174237 1252.604687 
L 1493.174237 1245.604687 
L 1473.174237 1245.604687 
z
" style="fill: #5444fd"/>
    </g>
    <g id="text_73">
     <!-- Netherlands -->
     <g transform="translate(1501.174237 1252.604687)scale(0.1 -0.1)">
      <use xlink:href="#DejaVuSans-4e"/>
      <use xlink:href="#DejaVuSans-65" x="74.804688"/>
      <use xlink:href="#DejaVuSans-74" x="136.328125"/>
      <use xlink:href="#DejaVuSans-68" x="175.537109"/>
      <use xlink:href="#DejaVuSans-65" x="238.916016"/>
      <use xlink:href="#DejaVuSans-72" x="300.439453"/>
      <use xlink:href="#DejaVuSans-6c" x="341.552734"/>
      <use xlink:href="#DejaVuSans-61" x="369.335938"/>
      <use xlink:href="#DejaVuSans-6e" x="430.615234"/>
      <use xlink:href="#DejaVuSans-64" x="493.994141"/>
      <use xlink:href="#DejaVuSans-73" x="557.470703"/>
     </g>
    </g>
    <g id="patch_41">
     <path d="M 1473.174237 1267.282813 
L 1493.174237 1267.282813 
L 1493.174237 1260.282813 
L 1473.174237 1260.282813 
z
" style="fill: #445cfb"/>
    </g>
    <g id="text_74">
     <!-- Greece -->
     <g transform="translate(1501.174237 1267.282813)scale(0.1 -0.1)">
      <use xlink:href="#DejaVuSans-47"/>
      <use xlink:href="#DejaVuSans-72" x="77.490234"/>
      <use xlink:href="#DejaVuSans-65" x="116.353516"/>
      <use xlink:href="#DejaVuSans-65" x="177.876953"/>
      <use xlink:href="#DejaVuSans-63" x="239.400391"/>
      <use xlink:href="#DejaVuSans-65" x="294.380859"/>
     </g>
    </g>
    <g id="patch_42">
     <path d="M 1473.174237 1281.960938 
L 1493.174237 1281.960938 
L 1493.174237 1274.960938 
L 1473.174237 1274.960938 
z
" style="fill: #3670f8"/>
    </g>
    <g id="text_75">
     <!-- Denmark -->
     <g transform="translate(1501.174237 1281.960938)scale(0.1 -0.1)">
      <use xlink:href="#DejaVuSans-44"/>
      <use xlink:href="#DejaVuSans-65" x="77.001953"/>
      <use xlink:href="#DejaVuSans-6e" x="138.525391"/>
      <use xlink:href="#DejaVuSans-6d" x="201.904297"/>
      <use xlink:href="#DejaVuSans-61" x="299.316406"/>
      <use xlink:href="#DejaVuSans-72" x="360.595703"/>
      <use xlink:href="#DejaVuSans-6b" x="401.708984"/>
     </g>
    </g>
    <g id="patch_43">
     <path d="M 1473.174237 1296.639062 
L 1493.174237 1296.639062 
L 1493.174237 1289.639062 
L 1473.174237 1289.639062 
z
" style="fill: #2686f5"/>
    </g>
    <g id="text_76">
     <!-- Czech Republic -->
     <g transform="translate(1501.174237 1296.639062)scale(0.1 -0.1)">
      <use xlink:href="#DejaVuSans-43"/>
      <use xlink:href="#DejaVuSans-7a" x="69.824219"/>
      <use xlink:href="#DejaVuSans-65" x="122.314453"/>
      <use xlink:href="#DejaVuSans-63" x="183.837891"/>
      <use xlink:href="#DejaVuSans-68" x="238.818359"/>
      <use xlink:href="#DejaVuSans-20" x="302.197266"/>
      <use xlink:href="#DejaVuSans-52" x="333.984375"/>
      <use xlink:href="#DejaVuSans-65" x="398.966797"/>
      <use xlink:href="#DejaVuSans-70" x="460.490234"/>
      <use xlink:href="#DejaVuSans-75" x="523.966797"/>
      <use xlink:href="#DejaVuSans-62" x="587.345703"/>
      <use xlink:href="#DejaVuSans-6c" x="650.822266"/>
      <use xlink:href="#DejaVuSans-69" x="678.605469"/>
      <use xlink:href="#DejaVuSans-63" x="706.388672"/>
     </g>
    </g>
    <g id="patch_44">
     <path d="M 1473.174237 1311.317188 
L 1493.174237 1311.317188 
L 1493.174237 1304.317188 
L 1473.174237 1304.317188 
z
" style="fill: #1898f2"/>
    </g>
    <g id="text_77">
     <!-- Sweden -->
     <g transform="translate(1501.174237 1311.317188)scale(0.1 -0.1)">
      <use xlink:href="#DejaVuSans-53"/>
      <use xlink:href="#DejaVuSans-77" x="63.476562"/>
      <use xlink:href="#DejaVuSans-65" x="145.263672"/>
      <use xlink:href="#DejaVuSans-64" x="206.787109"/>
      <use xlink:href="#DejaVuSans-65" x="270.263672"/>
      <use xlink:href="#DejaVuSans-6e" x="331.787109"/>
     </g>
    </g>
    <g id="patch_45">
     <path d="M 1473.174237 1325.995312 
L 1493.174237 1325.995312 
L 1493.174237 1318.995312 
L 1473.174237 1318.995312 
z
" style="fill: #08acee"/>
    </g>
    <g id="text_78">
     <!-- Norway -->
     <g transform="translate(1501.174237 1325.995312)scale(0.1 -0.1)">
      <use xlink:href="#DejaVuSans-4e"/>
      <use xlink:href="#DejaVuSans-6f" x="74.804688"/>
      <use xlink:href="#DejaVuSans-72" x="135.986328"/>
      <use xlink:href="#DejaVuSans-77" x="177.099609"/>
      <use xlink:href="#DejaVuSans-61" x="258.886719"/>
      <use xlink:href="#DejaVuSans-79" x="320.166016"/>
     </g>
    </g>
    <g id="patch_46">
     <path d="M 1473.174237 1340.673438 
L 1493.174237 1340.673438 
L 1493.174237 1333.673438 
L 1473.174237 1333.673438 
z
" style="fill: #07bbea"/>
    </g>
    <g id="text_79">
     <!-- Hungary -->
     <g transform="translate(1501.174237 1340.673438)scale(0.1 -0.1)">
      <use xlink:href="#DejaVuSans-48"/>
      <use xlink:href="#DejaVuSans-75" x="75.195312"/>
      <use xlink:href="#DejaVuSans-6e" x="138.574219"/>
      <use xlink:href="#DejaVuSans-67" x="201.953125"/>
      <use xlink:href="#DejaVuSans-61" x="265.429688"/>
      <use xlink:href="#DejaVuSans-72" x="326.708984"/>
      <use xlink:href="#DejaVuSans-79" x="367.822266"/>
     </g>
    </g>
    <g id="patch_47">
     <path d="M 1473.174237 1355.351562 
L 1493.174237 1355.351562 
L 1493.174237 1348.351562 
L 1473.174237 1348.351562 
z
" style="fill: #17cbe4"/>
    </g>
    <g id="text_80">
     <!-- United Arab Emirates -->
     <g transform="translate(1501.174237 1355.351562)scale(0.1 -0.1)">
      <use xlink:href="#DejaVuSans-55"/>
      <use xlink:href="#DejaVuSans-6e" x="73.193359"/>
      <use xlink:href="#DejaVuSans-69" x="136.572266"/>
      <use xlink:href="#DejaVuSans-74" x="164.355469"/>
      <use xlink:href="#DejaVuSans-65" x="203.564453"/>
      <use xlink:href="#DejaVuSans-64" x="265.087891"/>
      <use xlink:href="#DejaVuSans-20" x="328.564453"/>
      <use xlink:href="#DejaVuSans-41" x="360.351562"/>
      <use xlink:href="#DejaVuSans-72" x="428.759766"/>
      <use xlink:href="#DejaVuSans-61" x="469.873047"/>
      <use xlink:href="#DejaVuSans-62" x="531.152344"/>
      <use xlink:href="#DejaVuSans-20" x="594.628906"/>
      <use xlink:href="#DejaVuSans-45" x="626.416016"/>
      <use xlink:href="#DejaVuSans-6d" x="689.599609"/>
      <use xlink:href="#DejaVuSans-69" x="787.011719"/>
      <use xlink:href="#DejaVuSans-72" x="814.794922"/>
      <use xlink:href="#DejaVuSans-61" x="855.908203"/>
      <use xlink:href="#DejaVuSans-74" x="917.1875"/>
      <use xlink:href="#DejaVuSans-65" x="956.396484"/>
      <use xlink:href="#DejaVuSans-73" x="1017.919922"/>
     </g>
    </g>
    <g id="patch_48">
     <path d="M 1473.174237 1370.029687 
L 1493.174237 1370.029687 
L 1493.174237 1363.029687 
L 1473.174237 1363.029687 
z
" style="fill: #24d8df"/>
    </g>
    <g id="text_81">
     <!-- Serbia -->
     <g transform="translate(1501.174237 1370.029687)scale(0.1 -0.1)">
      <use xlink:href="#DejaVuSans-53"/>
      <use xlink:href="#DejaVuSans-65" x="63.476562"/>
      <use xlink:href="#DejaVuSans-72" x="125"/>
      <use xlink:href="#DejaVuSans-62" x="166.113281"/>
      <use xlink:href="#DejaVuSans-69" x="229.589844"/>
      <use xlink:href="#DejaVuSans-61" x="257.373047"/>
     </g>
    </g>
    <g id="patch_49">
     <path d="M 1473.174237 1384.707813 
L 1493.174237 1384.707813 
L 1493.174237 1377.707813 
L 1473.174237 1377.707813 
z
" style="fill: #34e4d9"/>
    </g>
    <g id="text_82">
     <!-- Egypt -->
     <g transform="translate(1501.174237 1384.707813)scale(0.1 -0.1)">
      <use xlink:href="#DejaVuSans-45"/>
      <use xlink:href="#DejaVuSans-67" x="63.183594"/>
      <use xlink:href="#DejaVuSans-79" x="126.660156"/>
      <use xlink:href="#DejaVuSans-70" x="185.839844"/>
      <use xlink:href="#DejaVuSans-74" x="249.316406"/>
     </g>
    </g>
    <g id="patch_50">
     <path d="M 1473.174237 1399.385937 
L 1493.174237 1399.385937 
L 1493.174237 1392.385937 
L 1473.174237 1392.385937 
z
" style="fill: #42edd3"/>
    </g>
    <g id="text_83">
     <!-- Cuba -->
     <g transform="translate(1501.174237 1399.385937)scale(0.1 -0.1)">
      <use xlink:href="#DejaVuSans-43"/>
      <use xlink:href="#DejaVuSans-75" x="69.824219"/>
      <use xlink:href="#DejaVuSans-62" x="133.203125"/>
      <use xlink:href="#DejaVuSans-61" x="196.679688"/>
     </g>
    </g>
    <g id="patch_51">
     <path d="M 1473.174237 1414.064062 
L 1493.174237 1414.064062 
L 1493.174237 1407.064062 
L 1473.174237 1407.064062 
z
" style="fill: #52f5cb"/>
    </g>
    <g id="text_84">
     <!-- Lebanon -->
     <g transform="translate(1501.174237 1414.064062)scale(0.1 -0.1)">
      <use xlink:href="#DejaVuSans-4c"/>
      <use xlink:href="#DejaVuSans-65" x="53.962891"/>
      <use xlink:href="#DejaVuSans-62" x="115.486328"/>
      <use xlink:href="#DejaVuSans-61" x="178.962891"/>
      <use xlink:href="#DejaVuSans-6e" x="240.242188"/>
      <use xlink:href="#DejaVuSans-6f" x="303.621094"/>
      <use xlink:href="#DejaVuSans-6e" x="364.802734"/>
     </g>
    </g>
    <g id="patch_52">
     <path d="M 1473.174237 1428.742188 
L 1493.174237 1428.742188 
L 1493.174237 1421.742188 
L 1473.174237 1421.742188 
z
" style="fill: #60fac5"/>
    </g>
    <g id="text_85">
     <!-- Algeria -->
     <g transform="translate(1501.174237 1428.742188)scale(0.1 -0.1)">
      <use xlink:href="#DejaVuSans-41"/>
      <use xlink:href="#DejaVuSans-6c" x="68.408203"/>
      <use xlink:href="#DejaVuSans-67" x="96.191406"/>
      <use xlink:href="#DejaVuSans-65" x="159.667969"/>
      <use xlink:href="#DejaVuSans-72" x="221.191406"/>
      <use xlink:href="#DejaVuSans-69" x="262.304688"/>
      <use xlink:href="#DejaVuSans-61" x="290.087891"/>
     </g>
    </g>
    <g id="patch_53">
     <path d="M 1473.174237 1443.420312 
L 1493.174237 1443.420312 
L 1493.174237 1436.420312 
L 1473.174237 1436.420312 
z
" style="fill: #70febc"/>
    </g>
    <g id="text_86">
     <!-- Qatar -->
     <g transform="translate(1501.174237 1443.420312)scale(0.1 -0.1)">
      <use xlink:href="#DejaVuSans-51"/>
      <use xlink:href="#DejaVuSans-61" x="78.710938"/>
      <use xlink:href="#DejaVuSans-74" x="139.990234"/>
      <use xlink:href="#DejaVuSans-61" x="179.199219"/>
      <use xlink:href="#DejaVuSans-72" x="240.478516"/>
     </g>
    </g>
    <g id="patch_54">
     <path d="M 1473.174237 1458.098437 
L 1493.174237 1458.098437 
L 1493.174237 1451.098437 
L 1473.174237 1451.098437 
z
" style="fill: #80ffb4"/>
    </g>
    <g id="text_87">
     <!-- Mexico -->
     <g transform="translate(1501.174237 1458.098437)scale(0.1 -0.1)">
      <use xlink:href="#DejaVuSans-4d"/>
      <use xlink:href="#DejaVuSans-65" x="86.279297"/>
      <use xlink:href="#DejaVuSans-78" x="146.052734"/>
      <use xlink:href="#DejaVuSans-69" x="205.232422"/>
      <use xlink:href="#DejaVuSans-63" x="233.015625"/>
      <use xlink:href="#DejaVuSans-6f" x="287.996094"/>
     </g>
    </g>
    <g id="patch_55">
     <path d="M 1473.174237 1472.776562 
L 1493.174237 1472.776562 
L 1493.174237 1465.776562 
L 1473.174237 1465.776562 
z
" style="fill: #8efeac"/>
    </g>
    <g id="text_88">
     <!-- Sri Lanka -->
     <g transform="translate(1501.174237 1472.776562)scale(0.1 -0.1)">
      <use xlink:href="#DejaVuSans-53"/>
      <use xlink:href="#DejaVuSans-72" x="63.476562"/>
      <use xlink:href="#DejaVuSans-69" x="104.589844"/>
      <use xlink:href="#DejaVuSans-20" x="132.373047"/>
      <use xlink:href="#DejaVuSans-4c" x="164.160156"/>
      <use xlink:href="#DejaVuSans-61" x="219.873047"/>
      <use xlink:href="#DejaVuSans-6e" x="281.152344"/>
      <use xlink:href="#DejaVuSans-6b" x="344.53125"/>
      <use xlink:href="#DejaVuSans-61" x="400.691406"/>
     </g>
    </g>
    <g id="patch_56">
     <path d="M 1473.174237 1487.454688 
L 1493.174237 1487.454688 
L 1493.174237 1480.454688 
L 1473.174237 1480.454688 
z
" style="fill: #9efaa2"/>
    </g>
    <g id="text_89">
     <!-- Jordan -->
     <g transform="translate(1501.174237 1487.454688)scale(0.1 -0.1)">
      <use xlink:href="#DejaVuSans-4a"/>
      <use xlink:href="#DejaVuSans-6f" x="29.492188"/>
      <use xlink:href="#DejaVuSans-72" x="90.673828"/>
      <use xlink:href="#DejaVuSans-64" x="130.037109"/>
      <use xlink:href="#DejaVuSans-61" x="193.513672"/>
      <use xlink:href="#DejaVuSans-6e" x="254.792969"/>
     </g>
    </g>
    <g id="patch_57">
     <path d="M 1473.174237 1502.132812 
L 1493.174237 1502.132812 
L 1493.174237 1495.132812 
L 1473.174237 1495.132812 
z
" style="fill: #acf59a"/>
    </g>
    <g id="text_90">
     <!-- India -->
     <g transform="translate(1501.174237 1502.132812)scale(0.1 -0.1)">
      <use xlink:href="#DejaVuSans-49"/>
      <use xlink:href="#DejaVuSans-6e" x="29.492188"/>
      <use xlink:href="#DejaVuSans-64" x="92.871094"/>
      <use xlink:href="#DejaVuSans-69" x="156.347656"/>
      <use xlink:href="#DejaVuSans-61" x="184.130859"/>
     </g>
    </g>
    <g id="patch_58">
     <path d="M 1473.174237 1516.810937 
L 1493.174237 1516.810937 
L 1493.174237 1509.810937 
L 1473.174237 1509.810937 
z
" style="fill: #bced8f"/>
    </g>
    <g id="text_91">
     <!-- Argentina -->
     <g transform="translate(1501.174237 1516.810937)scale(0.1 -0.1)">
      <use xlink:href="#DejaVuSans-41"/>
      <use xlink:href="#DejaVuSans-72" x="68.408203"/>
      <use xlink:href="#DejaVuSans-67" x="107.771484"/>
      <use xlink:href="#DejaVuSans-65" x="171.248047"/>
      <use xlink:href="#DejaVuSans-6e" x="232.771484"/>
      <use xlink:href="#DejaVuSans-74" x="296.150391"/>
      <use xlink:href="#DejaVuSans-69" x="335.359375"/>
      <use xlink:href="#DejaVuSans-6e" x="363.142578"/>
      <use xlink:href="#DejaVuSans-61" x="426.521484"/>
     </g>
    </g>
    <g id="patch_59">
     <path d="M 1473.174237 1531.489063 
L 1493.174237 1531.489063 
L 1493.174237 1524.489063 
L 1473.174237 1524.489063 
z
" style="fill: #cbe486"/>
    </g>
    <g id="text_92">
     <!-- Pakistan -->
     <g transform="translate(1501.174237 1531.489063)scale(0.1 -0.1)">
      <use xlink:href="#DejaVuSans-50"/>
      <use xlink:href="#DejaVuSans-61" x="55.802734"/>
      <use xlink:href="#DejaVuSans-6b" x="117.082031"/>
      <use xlink:href="#DejaVuSans-69" x="174.992188"/>
      <use xlink:href="#DejaVuSans-73" x="202.775391"/>
      <use xlink:href="#DejaVuSans-74" x="254.875"/>
      <use xlink:href="#DejaVuSans-61" x="294.083984"/>
      <use xlink:href="#DejaVuSans-6e" x="355.363281"/>
     </g>
    </g>
    <g id="patch_60">
     <path d="M 1473.174237 1546.167188 
L 1493.174237 1546.167188 
L 1493.174237 1539.167188 
L 1473.174237 1539.167188 
z
" style="fill: #dbd87b"/>
    </g>
    <g id="text_93">
     <!-- Thailand -->
     <g transform="translate(1501.174237 1546.167188)scale(0.1 -0.1)">
      <use xlink:href="#DejaVuSans-54"/>
      <use xlink:href="#DejaVuSans-68" x="61.083984"/>
      <use xlink:href="#DejaVuSans-61" x="124.462891"/>
      <use xlink:href="#DejaVuSans-69" x="185.742188"/>
      <use xlink:href="#DejaVuSans-6c" x="213.525391"/>
      <use xlink:href="#DejaVuSans-61" x="241.308594"/>
      <use xlink:href="#DejaVuSans-6e" x="302.587891"/>
      <use xlink:href="#DejaVuSans-64" x="365.966797"/>
     </g>
    </g>
    <g id="patch_61">
     <path d="M 1473.174237 1560.845313 
L 1493.174237 1560.845313 
L 1493.174237 1553.845313 
L 1473.174237 1553.845313 
z
" style="fill: #e8cb72"/>
    </g>
    <g id="text_94">
     <!-- Armenia -->
     <g transform="translate(1501.174237 1560.845313)scale(0.1 -0.1)">
      <use xlink:href="#DejaVuSans-41"/>
      <use xlink:href="#DejaVuSans-72" x="68.408203"/>
      <use xlink:href="#DejaVuSans-6d" x="107.771484"/>
      <use xlink:href="#DejaVuSans-65" x="205.183594"/>
      <use xlink:href="#DejaVuSans-6e" x="266.707031"/>
      <use xlink:href="#DejaVuSans-69" x="330.085938"/>
      <use xlink:href="#DejaVuSans-61" x="357.869141"/>
     </g>
    </g>
    <g id="patch_62">
     <path d="M 1473.174237 1575.523438 
L 1493.174237 1575.523438 
L 1493.174237 1568.523438 
L 1473.174237 1568.523438 
z
" style="fill: #f9bb66"/>
    </g>
    <g id="text_95">
     <!-- Bangladesh -->
     <g transform="translate(1501.174237 1575.523438)scale(0.1 -0.1)">
      <use xlink:href="#DejaVuSans-42"/>
      <use xlink:href="#DejaVuSans-61" x="68.603516"/>
      <use xlink:href="#DejaVuSans-6e" x="129.882812"/>
      <use xlink:href="#DejaVuSans-67" x="193.261719"/>
      <use xlink:href="#DejaVuSans-6c" x="256.738281"/>
      <use xlink:href="#DejaVuSans-61" x="284.521484"/>
      <use xlink:href="#DejaVuSans-64" x="345.800781"/>
      <use xlink:href="#DejaVuSans-65" x="409.277344"/>
      <use xlink:href="#DejaVuSans-73" x="470.800781"/>
      <use xlink:href="#DejaVuSans-68" x="522.900391"/>
     </g>
    </g>
    <g id="patch_63">
     <path d="M 1473.174237 1590.201563 
L 1493.174237 1590.201563 
L 1493.174237 1583.201563 
L 1473.174237 1583.201563 
z
" style="fill: #ffac5c"/>
    </g>
    <g id="text_96">
     <!-- Venezuela -->
     <g transform="translate(1501.174237 1590.201563)scale(0.1 -0.1)">
      <use xlink:href="#DejaVuSans-56"/>
      <use xlink:href="#DejaVuSans-65" x="60.658203"/>
      <use xlink:href="#DejaVuSans-6e" x="122.181641"/>
      <use xlink:href="#DejaVuSans-65" x="185.560547"/>
      <use xlink:href="#DejaVuSans-7a" x="247.083984"/>
      <use xlink:href="#DejaVuSans-75" x="299.574219"/>
      <use xlink:href="#DejaVuSans-65" x="362.953125"/>
      <use xlink:href="#DejaVuSans-6c" x="424.476562"/>
      <use xlink:href="#DejaVuSans-61" x="452.259766"/>
     </g>
    </g>
    <g id="patch_64">
     <path d="M 1473.174237 1604.879688 
L 1493.174237 1604.879688 
L 1493.174237 1597.879688 
L 1473.174237 1597.879688 
z
" style="fill: #ff9850"/>
    </g>
    <g id="text_97">
     <!-- Ghana -->
     <g transform="translate(1501.174237 1604.879688)scale(0.1 -0.1)">
      <use xlink:href="#DejaVuSans-47"/>
      <use xlink:href="#DejaVuSans-68" x="77.490234"/>
      <use xlink:href="#DejaVuSans-61" x="140.869141"/>
      <use xlink:href="#DejaVuSans-6e" x="202.148438"/>
      <use xlink:href="#DejaVuSans-61" x="265.527344"/>
     </g>
    </g>
    <g id="patch_65">
     <path d="M 1473.174237 1619.557813 
L 1493.174237 1619.557813 
L 1493.174237 1612.557813 
L 1473.174237 1612.557813 
z
" style="fill: #ff8646"/>
    </g>
    <g id="text_98">
     <!-- Ethiopia -->
     <g transform="translate(1501.174237 1619.557813)scale(0.1 -0.1)">
      <use xlink:href="#DejaVuSans-45"/>
      <use xlink:href="#DejaVuSans-74" x="63.183594"/>
      <use xlink:href="#DejaVuSans-68" x="102.392578"/>
      <use xlink:href="#DejaVuSans-69" x="165.771484"/>
      <use xlink:href="#DejaVuSans-6f" x="193.554688"/>
      <use xlink:href="#DejaVuSans-70" x="254.736328"/>
      <use xlink:href="#DejaVuSans-69" x="318.212891"/>
      <use xlink:href="#DejaVuSans-61" x="345.996094"/>
     </g>
    </g>
    <g id="patch_66">
     <path d="M 1473.174237 1634.235938 
L 1493.174237 1634.235938 
L 1493.174237 1627.235938 
L 1473.174237 1627.235938 
z
" style="fill: #ff703a"/>
    </g>
    <g id="text_99">
     <!-- Senegal -->
     <g transform="translate(1501.174237 1634.235938)scale(0.1 -0.1)">
      <use xlink:href="#DejaVuSans-53"/>
      <use xlink:href="#DejaVuSans-65" x="63.476562"/>
      <use xlink:href="#DejaVuSans-6e" x="125"/>
      <use xlink:href="#DejaVuSans-65" x="188.378906"/>
      <use xlink:href="#DejaVuSans-67" x="249.902344"/>
      <use xlink:href="#DejaVuSans-61" x="313.378906"/>
      <use xlink:href="#DejaVuSans-6c" x="374.658203"/>
     </g>
    </g>
    <g id="patch_67">
     <path d="M 1473.174237 1648.914063 
L 1493.174237 1648.914063 
L 1493.174237 1641.914063 
L 1473.174237 1641.914063 
z
" style="fill: #ff5c2f"/>
    </g>
    <g id="text_100">
     <!-- Maldives -->
     <g transform="translate(1501.174237 1648.914063)scale(0.1 -0.1)">
      <use xlink:href="#DejaVuSans-4d"/>
      <use xlink:href="#DejaVuSans-61" x="86.279297"/>
      <use xlink:href="#DejaVuSans-6c" x="147.558594"/>
      <use xlink:href="#DejaVuSans-64" x="175.341797"/>
      <use xlink:href="#DejaVuSans-69" x="238.818359"/>
      <use xlink:href="#DejaVuSans-76" x="266.601562"/>
      <use xlink:href="#DejaVuSans-65" x="325.78125"/>
      <use xlink:href="#DejaVuSans-73" x="387.304688"/>
     </g>
    </g>
    <g id="patch_68">
     <path d="M 1473.174237 1663.592188 
L 1493.174237 1663.592188 
L 1493.174237 1656.592188 
L 1473.174237 1656.592188 
z
" style="fill: #ff4422"/>
    </g>
    <g id="text_101">
     <!-- Mauritius -->
     <g transform="translate(1501.174237 1663.592188)scale(0.1 -0.1)">
      <use xlink:href="#DejaVuSans-4d"/>
      <use xlink:href="#DejaVuSans-61" x="86.279297"/>
      <use xlink:href="#DejaVuSans-75" x="147.558594"/>
      <use xlink:href="#DejaVuSans-72" x="210.9375"/>
      <use xlink:href="#DejaVuSans-69" x="252.050781"/>
      <use xlink:href="#DejaVuSans-74" x="279.833984"/>
      <use xlink:href="#DejaVuSans-69" x="319.042969"/>
      <use xlink:href="#DejaVuSans-75" x="346.826172"/>
      <use xlink:href="#DejaVuSans-73" x="410.205078"/>
     </g>
    </g>
    <g id="patch_69">
     <path d="M 1473.174237 1678.270313 
L 1493.174237 1678.270313 
L 1493.174237 1671.270313 
L 1473.174237 1671.270313 
z
" style="fill: #ff2f18"/>
    </g>
    <g id="text_102">
     <!-- Cyprus -->
     <g transform="translate(1501.174237 1678.270313)scale(0.1 -0.1)">
      <use xlink:href="#DejaVuSans-43"/>
      <use xlink:href="#DejaVuSans-79" x="69.824219"/>
      <use xlink:href="#DejaVuSans-70" x="129.003906"/>
      <use xlink:href="#DejaVuSans-72" x="192.480469"/>
      <use xlink:href="#DejaVuSans-75" x="233.59375"/>
      <use xlink:href="#DejaVuSans-73" x="296.972656"/>
     </g>
    </g>
    <g id="patch_70">
     <path d="M 1473.174237 1692.948438 
L 1493.174237 1692.948438 
L 1493.174237 1685.948438 
L 1473.174237 1685.948438 
z
" style="fill: #ff160b"/>
    </g>
    <g id="text_103">
     <!-- Oman -->
     <g transform="translate(1501.174237 1692.948438)scale(0.1 -0.1)">
      <use xlink:href="#DejaVuSans-4f"/>
      <use xlink:href="#DejaVuSans-6d" x="78.710938"/>
      <use xlink:href="#DejaVuSans-61" x="176.123047"/>
      <use xlink:href="#DejaVuSans-6e" x="237.402344"/>
     </g>
    </g>
   </g>
  </g>
 </g>
</svg>
