<?xml version="1.0" encoding="utf-8" standalone="no"?>
<!DOCTYPE svg PUBLIC "-//W3C//DTD SVG 1.1//EN"
  "http://www.w3.org/Graphics/SVG/1.1/DTD/svg11.dtd">
<svg xmlns:xlink="http://www.w3.org/1999/xlink" width="2880pt" height="2880pt" viewBox="0 0 2880 2880" xmlns="http://www.w3.org/2000/svg" version="1.1">
 <metadata>
  <rdf:RDF xmlns:dc="http://purl.org/dc/elements/1.1/" xmlns:cc="http://creativecommons.org/ns#" xmlns:rdf="http://www.w3.org/1999/02/22-rdf-syntax-ns#">
   <cc:Work>
    <dc:type rdf:resource="http://purl.org/dc/dcmitype/StillImage"/>
    <dc:date>2022-04-29T14:39:17.084523</dc:date>
    <dc:format>image/svg+xml</dc:format>
    <dc:creator>
     <cc:Agent>
      <dc:title>Matplotlib v3.5.0, https://matplotlib.org/</dc:title>
     </cc:Agent>
    </dc:creator>
   </cc:Work>
  </rdf:RDF>
 </metadata>
 <defs>
  <style type="text/css">*{stroke-linejoin: round; stroke-linecap: butt}</style>
 </defs>
 <g id="figure_1">
  <g id="patch_1">
   <path d="M 0 2880 
L 2880 2880 
L 2880 0 
L 0 0 
L 0 2880 
z
" style="fill: none"/>
  </g>
  <g id="axes_1">
   <g id="patch_2">
    <path d="M 103.76756 1334.500134 
C 81.446745 1461.087767 98.206478 1591.520881 151.805062 1708.353407 
C 205.403646 1825.185934 293.339875 1922.965818 403.851844 1988.61452 
C 514.363814 2054.263222 642.294422 2084.717209 770.532323 2075.903111 
C 898.770223 2067.089012 1021.331123 2019.418143 1121.8219 1939.266716 
L 727.128666 1444.415516 
L 103.76756 1334.500134 
z
" style="fill: #8000ff"/>
   </g>
   <g id="patch_3">
    <path d="M 1121.8219 1939.266716 
C 1170.575442 1900.3809 1213.315789 1854.50277 1248.656039 1803.121049 
C 1283.996289 1751.739327 1311.550004 1695.415862 1330.423082 1635.978319 
L 727.128666 1444.415516 
L 1121.8219 1939.266716 
z
" style="fill: #7413ff"/>
   </g>
   <g id="patch_4">
    <path d="M 1330.423082 1635.978319 
C 1345.34555 1588.982548 1354.725683 1540.40367 1358.372518 1491.230678 
C 1362.019352 1442.057687 1359.907969 1392.626559 1352.081354 1343.94364 
L 727.128666 1444.415516 
L 1330.423082 1635.978319 
z
" style="fill: #6629fe"/>
   </g>
   <g id="patch_5">
    <path d="M 1352.081354 1343.94364 
C 1345.779085 1304.742424 1335.802329 1266.220999 1322.283059 1228.888932 
C 1308.763789 1191.556865 1291.761881 1155.579497 1271.50224 1121.432743 
L 727.128666 1444.415516 
L 1352.081354 1343.94364 
z
" style="fill: #583efd"/>
   </g>
   <g id="patch_6">
    <path d="M 1271.50224 1121.432743 
C 1251.592403 1087.875569 1228.622265 1056.231133 1202.885316 1026.903757 
C 1177.148368 997.57638 1148.75469 970.691503 1118.067071 946.592632 
L 727.128666 1444.415516 
L 1271.50224 1121.432743 
z
" style="fill: #4c50fc"/>
   </g>
   <g id="patch_7">
    <path d="M 1118.067071 946.592632 
C 1091.691373 925.879898 1063.711234 907.296042 1034.391004 891.016641 
C 1005.070775 874.73724 974.503085 860.813724 942.976735 849.377642 
L 727.128666 1444.415516 
L 1118.067071 946.592632 
z
" style="fill: #3e65fa"/>
   </g>
   <g id="patch_8">
    <path d="M 942.976735 849.377642 
C 917.889162 840.277206 892.251151 832.772459 866.216244 826.908346 
C 840.181336 821.044232 813.801609 816.832482 787.235047 814.298318 
L 727.128666 1444.415516 
L 942.976735 849.377642 
z
" style="fill: #3079f7"/>
   </g>
   <g id="patch_9">
    <path d="M 787.235047 814.298318 
C 769.52728 812.609188 751.756177 811.667254 733.969069 811.475022 
C 716.181961 811.282791 698.394652 811.840434 680.654516 813.146466 
L 727.128666 1444.415516 
L 787.235047 814.298318 
z
" style="fill: #218cf4"/>
   </g>
   <g id="patch_10">
    <path d="M 680.654516 813.146466 
C 664.279364 814.352008 647.957318 816.194252 631.725422 818.669017 
C 615.493525 821.143782 599.364066 824.249195 583.373651 827.978207 
L 727.128666 1444.415516 
L 680.654516 813.146466 
z
" style="fill: #169bf2"/>
   </g>
   <g id="patch_11">
    <path d="M 583.373651 827.978207 
C 569.38245 831.240997 555.506387 834.979176 541.769574 839.186248 
C 528.032762 843.39332 514.443161 848.066847 501.024387 853.198707 
L 727.128666 1444.415516 
L 583.373651 827.978207 
z
" style="fill: #08acee"/>
   </g>
   <g id="patch_12">
    <path d="M 501.024387 853.198707 
C 487.605613 858.330568 474.365444 863.917787 461.326887 869.950657 
C 448.28833 875.983527 435.458943 882.45855 422.861019 889.364474 
L 727.128666 1444.415516 
L 501.024387 853.198707 
z
" style="fill: #07bbea"/>
   </g>
   <g id="patch_13">
    <path d="M 422.861019 889.364474 
C 414.462853 893.968177 406.170253 898.761889 397.989624 903.741908 
C 389.808995 908.721926 381.742444 913.886967 373.796203 919.233042 
L 727.128666 1444.415516 
L 422.861019 889.364474 
z
" style="fill: #14cae5"/>
   </g>
   <g id="patch_14">
    <path d="M 373.796203 919.233042 
C 367.55283 923.433461 361.384856 927.744878 355.295221 932.165236 
C 349.205586 936.585595 343.195259 941.114192 337.267107 945.748869 
L 727.128666 1444.415516 
L 373.796203 919.233042 
z
" style="fill: #20d5e1"/>
   </g>
   <g id="patch_15">
    <path d="M 337.267107 945.748869 
C 331.338954 950.383546 325.493919 955.123565 319.734788 959.966667 
C 313.975656 964.809768 308.303345 969.755181 302.720559 974.800547 
L 727.128666 1444.415516 
L 337.267107 945.748869 
z
" style="fill: #2fe0db"/>
   </g>
   <g id="patch_16">
    <path d="M 302.720559 974.800547 
C 297.645323 979.387223 292.644774 984.055871 287.720883 988.804652 
C 282.796992 993.553432 277.950406 998.381721 273.183036 1003.287615 
L 727.128666 1444.415516 
L 302.720559 974.800547 
z
" style="fill: #3dead5"/>
   </g>
   <g id="patch_17">
    <path d="M 273.183036 1003.287615 
C 268.892421 1007.702902 264.666451 1012.180552 260.506477 1016.719137 
C 256.346503 1021.257721 252.252967 1025.856757 248.227176 1030.514776 
L 727.128666 1444.415516 
L 273.183036 1003.287615 
z
" style="fill: #4af2cf"/>
   </g>
   <g id="patch_18">
    <path d="M 248.227176 1030.514776 
C 244.648708 1034.655222 241.124086 1038.841901 237.6542 1043.073758 
C 234.184313 1047.305615 230.769454 1051.582293 227.410482 1055.902715 
L 727.128666 1444.415516 
L 248.227176 1030.514776 
z
" style="fill: #56f7ca"/>
   </g>
   <g id="patch_19">
    <path d="M 227.410482 1055.902715 
C 224.471392 1059.683071 221.575295 1063.496656 218.722748 1067.342735 
C 215.870202 1071.188813 213.06139 1075.067137 210.296856 1078.976957 
L 727.128666 1444.415516 
L 227.410482 1055.902715 
z
" style="fill: #64fbc3"/>
   </g>
   <g id="patch_20">
    <path d="M 210.296856 1078.976957 
C 207.532322 1082.886777 204.812244 1086.827842 202.137147 1090.79939 
C 199.462049 1094.770938 196.832105 1098.772714 194.247821 1102.803945 
L 727.128666 1444.415516 
L 210.296856 1078.976957 
z
" style="fill: #72febb"/>
   </g>
   <g id="patch_21">
    <path d="M 194.247821 1102.803945 
C 191.663538 1106.835176 189.125082 1110.895602 186.632944 1114.984439 
C 184.140806 1119.073276 181.695146 1123.190261 179.296437 1127.334598 
L 727.128666 1444.415516 
L 194.247821 1102.803945 
z
" style="fill: #80ffb4"/>
   </g>
   <g id="patch_22">
    <path d="M 179.296437 1127.334598 
C 177.240406 1130.886878 175.218974 1134.45907 173.232429 1138.05067 
C 171.245884 1141.64227 169.294319 1145.253106 167.378011 1148.882667 
L 727.128666 1444.415516 
L 179.296437 1127.334598 
z
" style="fill: #8cfead"/>
   </g>
   <g id="patch_23">
    <path d="M 167.378011 1148.882667 
C 165.461704 1152.512228 163.580744 1156.160342 161.735398 1159.826492 
C 159.890053 1163.492641 158.08041 1167.176652 156.306725 1170.878002 
L 727.128666 1444.415516 
L 167.378011 1148.882667 
z
" style="fill: #9bfba5"/>
   </g>
   <g id="patch_24">
    <path d="M 156.306725 1170.878002 
C 154.828658 1173.962453 153.375616 1177.058833 151.947741 1180.166838 
C 150.519867 1183.274843 149.117207 1186.394371 147.7399 1189.525113 
L 727.128666 1444.415516 
L 156.306725 1170.878002 
z
" style="fill: #a8f79c"/>
   </g>
   <g id="patch_25">
    <path d="M 147.7399 1189.525113 
C 146.362593 1192.655855 145.010684 1195.797709 143.684307 1198.950365 
C 142.35793 1202.103022 141.057128 1205.266378 139.782029 1208.44012 
L 727.128666 1444.415516 
L 147.7399 1189.525113 
z
" style="fill: #b4f295"/>
   </g>
   <g id="patch_26">
    <path d="M 139.782029 1208.44012 
C 138.761951 1210.97911 137.758348 1213.524686 136.771282 1216.076691 
C 135.784216 1218.628695 134.813709 1221.187072 133.85982 1223.751662 
L 727.128666 1444.415516 
L 139.782029 1208.44012 
z
" style="fill: #c2ea8c"/>
   </g>
   <g id="patch_27">
    <path d="M 133.85982 1223.751662 
C 132.905932 1226.316252 131.968683 1228.887 131.048132 1231.463744 
C 130.127582 1234.040489 129.223749 1236.623175 128.336691 1239.21164 
L 727.128666 1444.415516 
L 133.85982 1223.751662 
z
" style="fill: #d0e082"/>
   </g>
   <g id="patch_28">
    <path d="M 128.336691 1239.21164 
C 127.449633 1241.800105 126.579369 1244.394295 125.725953 1246.994046 
C 124.872537 1249.593797 124.035987 1252.199055 123.216357 1254.809654 
L 727.128666 1444.415516 
L 128.336691 1239.21164 
z
" style="fill: #ded579"/>
   </g>
   <g id="patch_29">
    <path d="M 123.216357 1254.809654 
C 122.601635 1256.767601 121.996438 1258.728525 121.400789 1260.692358 
C 120.805139 1262.656191 120.219044 1264.622909 119.642523 1266.592442 
L 727.128666 1444.415516 
L 123.216357 1254.809654 
z
" style="fill: #ebca70"/>
   </g>
   <g id="patch_30">
    <path d="M 119.642523 1266.592442 
C 119.066002 1268.561975 118.499063 1270.534301 117.941725 1272.509348 
C 117.384387 1274.484395 116.836658 1276.462141 116.298556 1278.442516 
L 727.128666 1444.415516 
L 119.642523 1266.592442 
z
" style="fill: #f9bb66"/>
   </g>
   <g id="patch_31">
    <path d="M 116.298556 1278.442516 
C 115.939822 1279.762765 115.585369 1281.084173 115.235203 1282.40672 
C 114.885037 1283.729266 114.53916 1285.052945 114.197577 1286.377734 
L 727.128666 1444.415516 
L 116.298556 1278.442516 
z
" style="fill: #ffac5c"/>
   </g>
   <g id="patch_32">
    <path d="M 114.197577 1286.377734 
C 113.855994 1287.702524 113.518707 1289.028418 113.185722 1290.355394 
C 112.852736 1291.682371 112.524054 1293.010423 112.199679 1294.339531 
L 727.128666 1444.415516 
L 114.197577 1286.377734 
z
" style="fill: #ff9b52"/>
   </g>
   <g id="patch_33">
    <path d="M 112.199679 1294.339531 
C 111.875305 1295.668639 111.555241 1296.998795 111.239491 1298.329978 
C 110.923742 1299.661161 110.612309 1300.993364 110.305198 1302.326567 
L 727.128666 1444.415516 
L 112.199679 1294.339531 
z
" style="fill: #ff8c49"/>
   </g>
   <g id="patch_34">
    <path d="M 110.305198 1302.326567 
C 109.998087 1303.659769 109.695299 1304.993964 109.396839 1306.32913 
C 109.098379 1307.664296 108.804249 1309.000426 108.514452 1310.337499 
L 727.128666 1444.415516 
L 110.305198 1302.326567 
z
" style="fill: #ff793e"/>
   </g>
   <g id="patch_35">
    <path d="M 108.514452 1310.337499 
C 108.224656 1311.674572 107.939196 1313.012581 107.658075 1314.351505 
C 107.376955 1315.690429 107.100176 1317.030261 106.827743 1318.37098 
L 727.128666 1444.415516 
L 108.514452 1310.337499 
z
" style="fill: #ff6533"/>
   </g>
   <g id="patch_36">
    <path d="M 106.827743 1318.37098 
C 106.691527 1319.041339 106.556398 1319.711918 106.422355 1320.382715 
C 106.288313 1321.053512 106.155358 1321.724526 106.023492 1322.395754 
L 727.128666 1444.415516 
L 106.827743 1318.37098 
z
" style="fill: #ff5029"/>
   </g>
   <g id="patch_37">
    <path d="M 106.023492 1322.395754 
C 105.891625 1323.066982 105.760847 1323.738423 105.631157 1324.410075 
C 105.501467 1325.081727 105.372866 1325.753589 105.245354 1326.425658 
L 727.128666 1444.415516 
L 106.023492 1322.395754 
z
" style="fill: #ff3e1f"/>
   </g>
   <g id="patch_38">
    <path d="M 105.245354 1326.425658 
C 105.117843 1327.097727 104.991421 1327.770002 104.866089 1328.442481 
C 104.740757 1329.11496 104.616515 1329.787642 104.493364 1330.460523 
L 727.128666 1444.415516 
L 105.245354 1326.425658 
z
" style="fill: #ff2914"/>
   </g>
   <g id="patch_39">
    <path d="M 104.493364 1330.460523 
C 104.370213 1331.133405 104.248152 1331.806486 104.127184 1332.479763 
C 104.006215 1333.153041 103.886337 1333.826514 103.767552 1334.50018 
L 727.128666 1444.415516 
L 104.493364 1330.460523 
z
" style="fill: #ff1309"/>
   </g>
   <g id="matplotlib.axis_1"/>
   <g id="matplotlib.axis_2"/>
   <g id="text_1">
    <!-- Mexico -->
    <g transform="translate(351.305301 2044.632099)scale(0.0579 -0.0579)">
     <defs>
      <path id="DejaVuSans-4d" d="M 628 4666 
L 1569 4666 
L 2759 1491 
L 3956 4666 
L 4897 4666 
L 4897 0 
L 4281 0 
L 4281 4097 
L 3078 897 
L 2444 897 
L 1241 4097 
L 1241 0 
L 628 0 
L 628 4666 
z
" transform="scale(0.015625)"/>
      <path id="DejaVuSans-65" d="M 3597 1894 
L 3597 1613 
L 953 1613 
Q 991 1019 1311 708 
Q 1631 397 2203 397 
Q 2534 397 2845 478 
Q 3156 559 3463 722 
L 3463 178 
Q 3153 47 2828 -22 
Q 2503 -91 2169 -91 
Q 1331 -91 842 396 
Q 353 884 353 1716 
Q 353 2575 817 3079 
Q 1281 3584 2069 3584 
Q 2775 3584 3186 3129 
Q 3597 2675 3597 1894 
z
M 3022 2063 
Q 3016 2534 2758 2815 
Q 2500 3097 2075 3097 
Q 1594 3097 1305 2825 
Q 1016 2553 972 2059 
L 3022 2063 
z
" transform="scale(0.015625)"/>
      <path id="DejaVuSans-78" d="M 3513 3500 
L 2247 1797 
L 3578 0 
L 2900 0 
L 1881 1375 
L 863 0 
L 184 0 
L 1544 1831 
L 300 3500 
L 978 3500 
L 1906 2253 
L 2834 3500 
L 3513 3500 
z
" transform="scale(0.015625)"/>
      <path id="DejaVuSans-69" d="M 603 3500 
L 1178 3500 
L 1178 0 
L 603 0 
L 603 3500 
z
M 603 4863 
L 1178 4863 
L 1178 4134 
L 603 4134 
L 603 4863 
z
" transform="scale(0.015625)"/>
      <path id="DejaVuSans-63" d="M 3122 3366 
L 3122 2828 
Q 2878 2963 2633 3030 
Q 2388 3097 2138 3097 
Q 1578 3097 1268 2742 
Q 959 2388 959 1747 
Q 959 1106 1268 751 
Q 1578 397 2138 397 
Q 2388 397 2633 464 
Q 2878 531 3122 666 
L 3122 134 
Q 2881 22 2623 -34 
Q 2366 -91 2075 -91 
Q 1284 -91 818 406 
Q 353 903 353 1747 
Q 353 2603 823 3093 
Q 1294 3584 2113 3584 
Q 2378 3584 2631 3529 
Q 2884 3475 3122 3366 
z
" transform="scale(0.015625)"/>
      <path id="DejaVuSans-6f" d="M 1959 3097 
Q 1497 3097 1228 2736 
Q 959 2375 959 1747 
Q 959 1119 1226 758 
Q 1494 397 1959 397 
Q 2419 397 2687 759 
Q 2956 1122 2956 1747 
Q 2956 2369 2687 2733 
Q 2419 3097 1959 3097 
z
M 1959 3584 
Q 2709 3584 3137 3096 
Q 3566 2609 3566 1747 
Q 3566 888 3137 398 
Q 2709 -91 1959 -91 
Q 1206 -91 779 398 
Q 353 888 353 1747 
Q 353 2609 779 3096 
Q 1206 3584 1959 3584 
z
" transform="scale(0.015625)"/>
     </defs>
     <use xlink:href="#DejaVuSans-4d"/>
     <use xlink:href="#DejaVuSans-65" x="86.279297"/>
     <use xlink:href="#DejaVuSans-78" x="146.052734"/>
     <use xlink:href="#DejaVuSans-69" x="205.232422"/>
     <use xlink:href="#DejaVuSans-63" x="233.015625"/>
     <use xlink:href="#DejaVuSans-6f" x="287.996094"/>
    </g>
   </g>
   <g id="text_2">
    <!-- 38% -->
    <g transform="translate(526.727983 1772.532597)scale(0.0579 -0.0579)">
     <defs>
      <path id="DejaVuSans-33" d="M 2597 2516 
Q 3050 2419 3304 2112 
Q 3559 1806 3559 1356 
Q 3559 666 3084 287 
Q 2609 -91 1734 -91 
Q 1441 -91 1130 -33 
Q 819 25 488 141 
L 488 750 
Q 750 597 1062 519 
Q 1375 441 1716 441 
Q 2309 441 2620 675 
Q 2931 909 2931 1356 
Q 2931 1769 2642 2001 
Q 2353 2234 1838 2234 
L 1294 2234 
L 1294 2753 
L 1863 2753 
Q 2328 2753 2575 2939 
Q 2822 3125 2822 3475 
Q 2822 3834 2567 4026 
Q 2313 4219 1838 4219 
Q 1578 4219 1281 4162 
Q 984 4106 628 3988 
L 628 4550 
Q 988 4650 1302 4700 
Q 1616 4750 1894 4750 
Q 2613 4750 3031 4423 
Q 3450 4097 3450 3541 
Q 3450 3153 3228 2886 
Q 3006 2619 2597 2516 
z
" transform="scale(0.015625)"/>
      <path id="DejaVuSans-38" d="M 2034 2216 
Q 1584 2216 1326 1975 
Q 1069 1734 1069 1313 
Q 1069 891 1326 650 
Q 1584 409 2034 409 
Q 2484 409 2743 651 
Q 3003 894 3003 1313 
Q 3003 1734 2745 1975 
Q 2488 2216 2034 2216 
z
M 1403 2484 
Q 997 2584 770 2862 
Q 544 3141 544 3541 
Q 544 4100 942 4425 
Q 1341 4750 2034 4750 
Q 2731 4750 3128 4425 
Q 3525 4100 3525 3541 
Q 3525 3141 3298 2862 
Q 3072 2584 2669 2484 
Q 3125 2378 3379 2068 
Q 3634 1759 3634 1313 
Q 3634 634 3220 271 
Q 2806 -91 2034 -91 
Q 1263 -91 848 271 
Q 434 634 434 1313 
Q 434 1759 690 2068 
Q 947 2378 1403 2484 
z
M 1172 3481 
Q 1172 3119 1398 2916 
Q 1625 2713 2034 2713 
Q 2441 2713 2670 2916 
Q 2900 3119 2900 3481 
Q 2900 3844 2670 4047 
Q 2441 4250 2034 4250 
Q 1625 4250 1398 4047 
Q 1172 3844 1172 3481 
z
" transform="scale(0.015625)"/>
      <path id="DejaVuSans-25" d="M 4653 2053 
Q 4381 2053 4226 1822 
Q 4072 1591 4072 1178 
Q 4072 772 4226 539 
Q 4381 306 4653 306 
Q 4919 306 5073 539 
Q 5228 772 5228 1178 
Q 5228 1588 5073 1820 
Q 4919 2053 4653 2053 
z
M 4653 2450 
Q 5147 2450 5437 2106 
Q 5728 1763 5728 1178 
Q 5728 594 5436 251 
Q 5144 -91 4653 -91 
Q 4153 -91 3862 251 
Q 3572 594 3572 1178 
Q 3572 1766 3864 2108 
Q 4156 2450 4653 2450 
z
M 1428 4353 
Q 1159 4353 1004 4120 
Q 850 3888 850 3481 
Q 850 3069 1003 2837 
Q 1156 2606 1428 2606 
Q 1700 2606 1854 2837 
Q 2009 3069 2009 3481 
Q 2009 3884 1853 4118 
Q 1697 4353 1428 4353 
z
M 4250 4750 
L 4750 4750 
L 1831 -91 
L 1331 -91 
L 4250 4750 
z
M 1428 4750 
Q 1922 4750 2215 4408 
Q 2509 4066 2509 3481 
Q 2509 2891 2217 2550 
Q 1925 2209 1428 2209 
Q 931 2209 642 2551 
Q 353 2894 353 3481 
Q 353 4063 643 4406 
Q 934 4750 1428 4750 
z
" transform="scale(0.015625)"/>
     </defs>
     <use xlink:href="#DejaVuSans-33"/>
     <use xlink:href="#DejaVuSans-38" x="63.623047"/>
     <use xlink:href="#DejaVuSans-25" x="127.246094"/>
    </g>
   </g>
   <g id="text_3">
    <!-- France -->
    <g transform="translate(1300.808776 1840.58928)scale(0.0579 -0.0579)">
     <defs>
      <path id="DejaVuSans-46" d="M 628 4666 
L 3309 4666 
L 3309 4134 
L 1259 4134 
L 1259 2759 
L 3109 2759 
L 3109 2228 
L 1259 2228 
L 1259 0 
L 628 0 
L 628 4666 
z
" transform="scale(0.015625)"/>
      <path id="DejaVuSans-72" d="M 2631 2963 
Q 2534 3019 2420 3045 
Q 2306 3072 2169 3072 
Q 1681 3072 1420 2755 
Q 1159 2438 1159 1844 
L 1159 0 
L 581 0 
L 581 3500 
L 1159 3500 
L 1159 2956 
Q 1341 3275 1631 3429 
Q 1922 3584 2338 3584 
Q 2397 3584 2469 3576 
Q 2541 3569 2628 3553 
L 2631 2963 
z
" transform="scale(0.015625)"/>
      <path id="DejaVuSans-61" d="M 2194 1759 
Q 1497 1759 1228 1600 
Q 959 1441 959 1056 
Q 959 750 1161 570 
Q 1363 391 1709 391 
Q 2188 391 2477 730 
Q 2766 1069 2766 1631 
L 2766 1759 
L 2194 1759 
z
M 3341 1997 
L 3341 0 
L 2766 0 
L 2766 531 
Q 2569 213 2275 61 
Q 1981 -91 1556 -91 
Q 1019 -91 701 211 
Q 384 513 384 1019 
Q 384 1609 779 1909 
Q 1175 2209 1959 2209 
L 2766 2209 
L 2766 2266 
Q 2766 2663 2505 2880 
Q 2244 3097 1772 3097 
Q 1472 3097 1187 3025 
Q 903 2953 641 2809 
L 641 3341 
Q 956 3463 1253 3523 
Q 1550 3584 1831 3584 
Q 2591 3584 2966 3190 
Q 3341 2797 3341 1997 
z
" transform="scale(0.015625)"/>
      <path id="DejaVuSans-6e" d="M 3513 2113 
L 3513 0 
L 2938 0 
L 2938 2094 
Q 2938 2591 2744 2837 
Q 2550 3084 2163 3084 
Q 1697 3084 1428 2787 
Q 1159 2491 1159 1978 
L 1159 0 
L 581 0 
L 581 3500 
L 1159 3500 
L 1159 2956 
Q 1366 3272 1645 3428 
Q 1925 3584 2291 3584 
Q 2894 3584 3203 3211 
Q 3513 2838 3513 2113 
z
" transform="scale(0.015625)"/>
     </defs>
     <use xlink:href="#DejaVuSans-46"/>
     <use xlink:href="#DejaVuSans-72" x="50.269531"/>
     <use xlink:href="#DejaVuSans-61" x="91.382812"/>
     <use xlink:href="#DejaVuSans-6e" x="152.662109"/>
     <use xlink:href="#DejaVuSans-63" x="216.041016"/>
     <use xlink:href="#DejaVuSans-65" x="271.021484"/>
    </g>
   </g>
   <g id="text_4">
    <!-- 9% -->
    <g transform="translate(1035.452443 1661.236514)scale(0.0579 -0.0579)">
     <defs>
      <path id="DejaVuSans-39" d="M 703 97 
L 703 672 
Q 941 559 1184 500 
Q 1428 441 1663 441 
Q 2288 441 2617 861 
Q 2947 1281 2994 2138 
Q 2813 1869 2534 1725 
Q 2256 1581 1919 1581 
Q 1219 1581 811 2004 
Q 403 2428 403 3163 
Q 403 3881 828 4315 
Q 1253 4750 1959 4750 
Q 2769 4750 3195 4129 
Q 3622 3509 3622 2328 
Q 3622 1225 3098 567 
Q 2575 -91 1691 -91 
Q 1453 -91 1209 -44 
Q 966 3 703 97 
z
M 1959 2075 
Q 2384 2075 2632 2365 
Q 2881 2656 2881 3163 
Q 2881 3666 2632 3958 
Q 2384 4250 1959 4250 
Q 1534 4250 1286 3958 
Q 1038 3666 1038 3163 
Q 1038 2656 1286 2365 
Q 1534 2075 1959 2075 
z
" transform="scale(0.015625)"/>
     </defs>
     <use xlink:href="#DejaVuSans-39"/>
     <use xlink:href="#DejaVuSans-25" x="63.623047"/>
    </g>
   </g>
   <g id="text_5">
    <!-- Bahamas -->
    <g transform="translate(1421.496903 1497.509873)scale(0.0579 -0.0579)">
     <defs>
      <path id="DejaVuSans-42" d="M 1259 2228 
L 1259 519 
L 2272 519 
Q 2781 519 3026 730 
Q 3272 941 3272 1375 
Q 3272 1813 3026 2020 
Q 2781 2228 2272 2228 
L 1259 2228 
z
M 1259 4147 
L 1259 2741 
L 2194 2741 
Q 2656 2741 2882 2914 
Q 3109 3088 3109 3444 
Q 3109 3797 2882 3972 
Q 2656 4147 2194 4147 
L 1259 4147 
z
M 628 4666 
L 2241 4666 
Q 2963 4666 3353 4366 
Q 3744 4066 3744 3513 
Q 3744 3084 3544 2831 
Q 3344 2578 2956 2516 
Q 3422 2416 3680 2098 
Q 3938 1781 3938 1306 
Q 3938 681 3513 340 
Q 3088 0 2303 0 
L 628 0 
L 628 4666 
z
" transform="scale(0.015625)"/>
      <path id="DejaVuSans-68" d="M 3513 2113 
L 3513 0 
L 2938 0 
L 2938 2094 
Q 2938 2591 2744 2837 
Q 2550 3084 2163 3084 
Q 1697 3084 1428 2787 
Q 1159 2491 1159 1978 
L 1159 0 
L 581 0 
L 581 4863 
L 1159 4863 
L 1159 2956 
Q 1366 3272 1645 3428 
Q 1925 3584 2291 3584 
Q 2894 3584 3203 3211 
Q 3513 2838 3513 2113 
z
" transform="scale(0.015625)"/>
      <path id="DejaVuSans-6d" d="M 3328 2828 
Q 3544 3216 3844 3400 
Q 4144 3584 4550 3584 
Q 5097 3584 5394 3201 
Q 5691 2819 5691 2113 
L 5691 0 
L 5113 0 
L 5113 2094 
Q 5113 2597 4934 2840 
Q 4756 3084 4391 3084 
Q 3944 3084 3684 2787 
Q 3425 2491 3425 1978 
L 3425 0 
L 2847 0 
L 2847 2094 
Q 2847 2600 2669 2842 
Q 2491 3084 2119 3084 
Q 1678 3084 1418 2786 
Q 1159 2488 1159 1978 
L 1159 0 
L 581 0 
L 581 3500 
L 1159 3500 
L 1159 2956 
Q 1356 3278 1631 3431 
Q 1906 3584 2284 3584 
Q 2666 3584 2933 3390 
Q 3200 3197 3328 2828 
z
" transform="scale(0.015625)"/>
      <path id="DejaVuSans-73" d="M 2834 3397 
L 2834 2853 
Q 2591 2978 2328 3040 
Q 2066 3103 1784 3103 
Q 1356 3103 1142 2972 
Q 928 2841 928 2578 
Q 928 2378 1081 2264 
Q 1234 2150 1697 2047 
L 1894 2003 
Q 2506 1872 2764 1633 
Q 3022 1394 3022 966 
Q 3022 478 2636 193 
Q 2250 -91 1575 -91 
Q 1294 -91 989 -36 
Q 684 19 347 128 
L 347 722 
Q 666 556 975 473 
Q 1284 391 1588 391 
Q 1994 391 2212 530 
Q 2431 669 2431 922 
Q 2431 1156 2273 1281 
Q 2116 1406 1581 1522 
L 1381 1569 
Q 847 1681 609 1914 
Q 372 2147 372 2553 
Q 372 3047 722 3315 
Q 1072 3584 1716 3584 
Q 2034 3584 2315 3537 
Q 2597 3491 2834 3397 
z
" transform="scale(0.015625)"/>
     </defs>
     <use xlink:href="#DejaVuSans-42"/>
     <use xlink:href="#DejaVuSans-61" x="68.603516"/>
     <use xlink:href="#DejaVuSans-68" x="129.882812"/>
     <use xlink:href="#DejaVuSans-61" x="193.261719"/>
     <use xlink:href="#DejaVuSans-6d" x="254.541016"/>
     <use xlink:href="#DejaVuSans-61" x="351.953125"/>
     <use xlink:href="#DejaVuSans-73" x="413.232422"/>
    </g>
   </g>
   <g id="text_6">
    <!-- 7% -->
    <g transform="translate(1101.282331 1474.102291)scale(0.0579 -0.0579)">
     <defs>
      <path id="DejaVuSans-37" d="M 525 4666 
L 3525 4666 
L 3525 4397 
L 1831 0 
L 1172 0 
L 2766 4134 
L 525 4134 
L 525 4666 
z
" transform="scale(0.015625)"/>
     </defs>
     <use xlink:href="#DejaVuSans-37"/>
     <use xlink:href="#DejaVuSans-25" x="63.623047"/>
    </g>
   </g>
   <g id="text_7">
    <!-- Brazil -->
    <g transform="translate(1381.798498 1208.933952)scale(0.0579 -0.0579)">
     <defs>
      <path id="DejaVuSans-7a" d="M 353 3500 
L 3084 3500 
L 3084 2975 
L 922 459 
L 3084 459 
L 3084 0 
L 275 0 
L 275 525 
L 2438 3041 
L 353 3041 
L 353 3500 
z
" transform="scale(0.015625)"/>
      <path id="DejaVuSans-6c" d="M 603 4863 
L 1178 4863 
L 1178 0 
L 603 0 
L 603 4863 
z
" transform="scale(0.015625)"/>
     </defs>
     <use xlink:href="#DejaVuSans-42"/>
     <use xlink:href="#DejaVuSans-72" x="68.603516"/>
     <use xlink:href="#DejaVuSans-61" x="109.716797"/>
     <use xlink:href="#DejaVuSans-7a" x="170.996094"/>
     <use xlink:href="#DejaVuSans-69" x="223.486328"/>
     <use xlink:href="#DejaVuSans-6c" x="251.269531"/>
    </g>
   </g>
   <g id="text_8">
    <!-- 6% -->
    <g transform="translate(1079.628656 1316.697244)scale(0.0579 -0.0579)">
     <defs>
      <path id="DejaVuSans-36" d="M 2113 2584 
Q 1688 2584 1439 2293 
Q 1191 2003 1191 1497 
Q 1191 994 1439 701 
Q 1688 409 2113 409 
Q 2538 409 2786 701 
Q 3034 994 3034 1497 
Q 3034 2003 2786 2293 
Q 2538 2584 2113 2584 
z
M 3366 4563 
L 3366 3988 
Q 3128 4100 2886 4159 
Q 2644 4219 2406 4219 
Q 1781 4219 1451 3797 
Q 1122 3375 1075 2522 
Q 1259 2794 1537 2939 
Q 1816 3084 2150 3084 
Q 2853 3084 3261 2657 
Q 3669 2231 3669 1497 
Q 3669 778 3244 343 
Q 2819 -91 2113 -91 
Q 1303 -91 875 529 
Q 447 1150 447 2328 
Q 447 3434 972 4092 
Q 1497 4750 2381 4750 
Q 2619 4750 2861 4703 
Q 3103 4656 3366 4563 
z
" transform="scale(0.015625)"/>
     </defs>
     <use xlink:href="#DejaVuSans-36"/>
     <use xlink:href="#DejaVuSans-25" x="63.623047"/>
    </g>
   </g>
   <g id="text_9">
    <!-- Spain -->
    <g transform="translate(1250.460981 986.750259)scale(0.0579 -0.0579)">
     <defs>
      <path id="DejaVuSans-53" d="M 3425 4513 
L 3425 3897 
Q 3066 4069 2747 4153 
Q 2428 4238 2131 4238 
Q 1616 4238 1336 4038 
Q 1056 3838 1056 3469 
Q 1056 3159 1242 3001 
Q 1428 2844 1947 2747 
L 2328 2669 
Q 3034 2534 3370 2195 
Q 3706 1856 3706 1288 
Q 3706 609 3251 259 
Q 2797 -91 1919 -91 
Q 1588 -91 1214 -16 
Q 841 59 441 206 
L 441 856 
Q 825 641 1194 531 
Q 1563 422 1919 422 
Q 2459 422 2753 634 
Q 3047 847 3047 1241 
Q 3047 1584 2836 1778 
Q 2625 1972 2144 2069 
L 1759 2144 
Q 1053 2284 737 2584 
Q 422 2884 422 3419 
Q 422 4038 858 4394 
Q 1294 4750 2059 4750 
Q 2388 4750 2728 4690 
Q 3069 4631 3425 4513 
z
" transform="scale(0.015625)"/>
      <path id="DejaVuSans-70" d="M 1159 525 
L 1159 -1331 
L 581 -1331 
L 581 3500 
L 1159 3500 
L 1159 2969 
Q 1341 3281 1617 3432 
Q 1894 3584 2278 3584 
Q 2916 3584 3314 3078 
Q 3713 2572 3713 1747 
Q 3713 922 3314 415 
Q 2916 -91 2278 -91 
Q 1894 -91 1617 61 
Q 1341 213 1159 525 
z
M 3116 1747 
Q 3116 2381 2855 2742 
Q 2594 3103 2138 3103 
Q 1681 3103 1420 2742 
Q 1159 2381 1159 1747 
Q 1159 1113 1420 752 
Q 1681 391 2138 391 
Q 2594 391 2855 752 
Q 3116 1113 3116 1747 
z
" transform="scale(0.015625)"/>
     </defs>
     <use xlink:href="#DejaVuSans-53"/>
     <use xlink:href="#DejaVuSans-70" x="63.476562"/>
     <use xlink:href="#DejaVuSans-61" x="126.953125"/>
     <use xlink:href="#DejaVuSans-69" x="188.232422"/>
     <use xlink:href="#DejaVuSans-6e" x="216.015625"/>
    </g>
   </g>
   <g id="text_10">
    <!-- 6% -->
    <g transform="translate(1007.99001 1195.506138)scale(0.0579 -0.0579)">
     <use xlink:href="#DejaVuSans-36"/>
     <use xlink:href="#DejaVuSans-25" x="63.623047"/>
    </g>
   </g>
   <g id="text_11">
    <!-- Colombia -->
    <g transform="translate(1065.117238 837.274431)scale(0.0579 -0.0579)">
     <defs>
      <path id="DejaVuSans-43" d="M 4122 4306 
L 4122 3641 
Q 3803 3938 3442 4084 
Q 3081 4231 2675 4231 
Q 1875 4231 1450 3742 
Q 1025 3253 1025 2328 
Q 1025 1406 1450 917 
Q 1875 428 2675 428 
Q 3081 428 3442 575 
Q 3803 722 4122 1019 
L 4122 359 
Q 3791 134 3420 21 
Q 3050 -91 2638 -91 
Q 1578 -91 968 557 
Q 359 1206 359 2328 
Q 359 3453 968 4101 
Q 1578 4750 2638 4750 
Q 3056 4750 3426 4639 
Q 3797 4528 4122 4306 
z
" transform="scale(0.015625)"/>
      <path id="DejaVuSans-62" d="M 3116 1747 
Q 3116 2381 2855 2742 
Q 2594 3103 2138 3103 
Q 1681 3103 1420 2742 
Q 1159 2381 1159 1747 
Q 1159 1113 1420 752 
Q 1681 391 2138 391 
Q 2594 391 2855 752 
Q 3116 1113 3116 1747 
z
M 1159 2969 
Q 1341 3281 1617 3432 
Q 1894 3584 2278 3584 
Q 2916 3584 3314 3078 
Q 3713 2572 3713 1747 
Q 3713 922 3314 415 
Q 2916 -91 2278 -91 
Q 1894 -91 1617 61 
Q 1341 213 1159 525 
L 1159 0 
L 581 0 
L 581 4863 
L 1159 4863 
L 1159 2969 
z
" transform="scale(0.015625)"/>
     </defs>
     <use xlink:href="#DejaVuSans-43"/>
     <use xlink:href="#DejaVuSans-6f" x="69.824219"/>
     <use xlink:href="#DejaVuSans-6c" x="131.005859"/>
     <use xlink:href="#DejaVuSans-6f" x="158.789062"/>
     <use xlink:href="#DejaVuSans-6d" x="219.970703"/>
     <use xlink:href="#DejaVuSans-62" x="317.382812"/>
     <use xlink:href="#DejaVuSans-69" x="380.859375"/>
     <use xlink:href="#DejaVuSans-61" x="408.642578"/>
    </g>
   </g>
   <g id="text_12">
    <!-- 5% -->
    <g transform="translate(906.893423 1113.973869)scale(0.0579 -0.0579)">
     <defs>
      <path id="DejaVuSans-35" d="M 691 4666 
L 3169 4666 
L 3169 4134 
L 1269 4134 
L 1269 2991 
Q 1406 3038 1543 3061 
Q 1681 3084 1819 3084 
Q 2600 3084 3056 2656 
Q 3513 2228 3513 1497 
Q 3513 744 3044 326 
Q 2575 -91 1722 -91 
Q 1428 -91 1123 -41 
Q 819 9 494 109 
L 494 744 
Q 775 591 1075 516 
Q 1375 441 1709 441 
Q 2250 441 2565 725 
Q 2881 1009 2881 1497 
Q 2881 1984 2565 2268 
Q 2250 2553 1709 2553 
Q 1456 2553 1204 2497 
Q 953 2441 691 2322 
L 691 4666 
z
" transform="scale(0.015625)"/>
     </defs>
     <use xlink:href="#DejaVuSans-35"/>
     <use xlink:href="#DejaVuSans-25" x="63.623047"/>
    </g>
   </g>
   <g id="text_13">
    <!-- Netherlands -->
    <g transform="translate(880.125001 766.755307)scale(0.0579 -0.0579)">
     <defs>
      <path id="DejaVuSans-4e" d="M 628 4666 
L 1478 4666 
L 3547 763 
L 3547 4666 
L 4159 4666 
L 4159 0 
L 3309 0 
L 1241 3903 
L 1241 0 
L 628 0 
L 628 4666 
z
" transform="scale(0.015625)"/>
      <path id="DejaVuSans-74" d="M 1172 4494 
L 1172 3500 
L 2356 3500 
L 2356 3053 
L 1172 3053 
L 1172 1153 
Q 1172 725 1289 603 
Q 1406 481 1766 481 
L 2356 481 
L 2356 0 
L 1766 0 
Q 1100 0 847 248 
Q 594 497 594 1153 
L 594 3053 
L 172 3053 
L 172 3500 
L 594 3500 
L 594 4494 
L 1172 4494 
z
" transform="scale(0.015625)"/>
      <path id="DejaVuSans-64" d="M 2906 2969 
L 2906 4863 
L 3481 4863 
L 3481 0 
L 2906 0 
L 2906 525 
Q 2725 213 2448 61 
Q 2172 -91 1784 -91 
Q 1150 -91 751 415 
Q 353 922 353 1747 
Q 353 2572 751 3078 
Q 1150 3584 1784 3584 
Q 2172 3584 2448 3432 
Q 2725 3281 2906 2969 
z
M 947 1747 
Q 947 1113 1208 752 
Q 1469 391 1925 391 
Q 2381 391 2643 752 
Q 2906 1113 2906 1747 
Q 2906 2381 2643 2742 
Q 2381 3103 1925 3103 
Q 1469 3103 1208 2742 
Q 947 2381 947 1747 
z
" transform="scale(0.015625)"/>
     </defs>
     <use xlink:href="#DejaVuSans-4e"/>
     <use xlink:href="#DejaVuSans-65" x="74.804688"/>
     <use xlink:href="#DejaVuSans-74" x="136.328125"/>
     <use xlink:href="#DejaVuSans-68" x="175.537109"/>
     <use xlink:href="#DejaVuSans-65" x="238.916016"/>
     <use xlink:href="#DejaVuSans-72" x="300.439453"/>
     <use xlink:href="#DejaVuSans-6c" x="341.552734"/>
     <use xlink:href="#DejaVuSans-61" x="369.335938"/>
     <use xlink:href="#DejaVuSans-6e" x="430.615234"/>
     <use xlink:href="#DejaVuSans-64" x="493.994141"/>
     <use xlink:href="#DejaVuSans-73" x="557.470703"/>
    </g>
   </g>
   <g id="text_14">
    <!-- 4% -->
    <g transform="translate(805.988566 1075.508892)scale(0.0579 -0.0579)">
     <defs>
      <path id="DejaVuSans-34" d="M 2419 4116 
L 825 1625 
L 2419 1625 
L 2419 4116 
z
M 2253 4666 
L 3047 4666 
L 3047 1625 
L 3713 1625 
L 3713 1100 
L 3047 1100 
L 3047 0 
L 2419 0 
L 2419 1100 
L 313 1100 
L 313 1709 
L 2253 4666 
z
" transform="scale(0.015625)"/>
     </defs>
     <use xlink:href="#DejaVuSans-34"/>
     <use xlink:href="#DejaVuSans-25" x="63.623047"/>
    </g>
   </g>
   <g id="text_15">
    <!-- Australia -->
    <g transform="translate(734.65311 749.778651)scale(0.0579 -0.0579)">
     <defs>
      <path id="DejaVuSans-41" d="M 2188 4044 
L 1331 1722 
L 3047 1722 
L 2188 4044 
z
M 1831 4666 
L 2547 4666 
L 4325 0 
L 3669 0 
L 3244 1197 
L 1141 1197 
L 716 0 
L 50 0 
L 1831 4666 
z
" transform="scale(0.015625)"/>
      <path id="DejaVuSans-75" d="M 544 1381 
L 544 3500 
L 1119 3500 
L 1119 1403 
Q 1119 906 1312 657 
Q 1506 409 1894 409 
Q 2359 409 2629 706 
Q 2900 1003 2900 1516 
L 2900 3500 
L 3475 3500 
L 3475 0 
L 2900 0 
L 2900 538 
Q 2691 219 2414 64 
Q 2138 -91 1772 -91 
Q 1169 -91 856 284 
Q 544 659 544 1381 
z
M 1991 3584 
L 1991 3584 
z
" transform="scale(0.015625)"/>
     </defs>
     <use xlink:href="#DejaVuSans-41"/>
     <use xlink:href="#DejaVuSans-75" x="68.408203"/>
     <use xlink:href="#DejaVuSans-73" x="131.787109"/>
     <use xlink:href="#DejaVuSans-74" x="183.886719"/>
     <use xlink:href="#DejaVuSans-72" x="223.095703"/>
     <use xlink:href="#DejaVuSans-61" x="264.208984"/>
     <use xlink:href="#DejaVuSans-6c" x="325.488281"/>
     <use xlink:href="#DejaVuSans-69" x="353.271484"/>
     <use xlink:href="#DejaVuSans-61" x="381.054688"/>
    </g>
   </g>
   <g id="text_16">
    <!-- 3% -->
    <g transform="translate(726.640262 1066.248898)scale(0.0579 -0.0579)">
     <use xlink:href="#DejaVuSans-33"/>
     <use xlink:href="#DejaVuSans-25" x="63.623047"/>
    </g>
   </g>
   <g id="text_17">
    <!-- United Arab Emirates -->
    <g transform="translate(560.232097 757.692045)scale(0.0579 -0.0579)">
     <defs>
      <path id="DejaVuSans-55" d="M 556 4666 
L 1191 4666 
L 1191 1831 
Q 1191 1081 1462 751 
Q 1734 422 2344 422 
Q 2950 422 3222 751 
Q 3494 1081 3494 1831 
L 3494 4666 
L 4128 4666 
L 4128 1753 
Q 4128 841 3676 375 
Q 3225 -91 2344 -91 
Q 1459 -91 1007 375 
Q 556 841 556 1753 
L 556 4666 
z
" transform="scale(0.015625)"/>
      <path id="DejaVuSans-20" transform="scale(0.015625)"/>
      <path id="DejaVuSans-45" d="M 628 4666 
L 3578 4666 
L 3578 4134 
L 1259 4134 
L 1259 2753 
L 3481 2753 
L 3481 2222 
L 1259 2222 
L 1259 531 
L 3634 531 
L 3634 0 
L 628 0 
L 628 4666 
z
" transform="scale(0.015625)"/>
     </defs>
     <use xlink:href="#DejaVuSans-55"/>
     <use xlink:href="#DejaVuSans-6e" x="73.193359"/>
     <use xlink:href="#DejaVuSans-69" x="136.572266"/>
     <use xlink:href="#DejaVuSans-74" x="164.355469"/>
     <use xlink:href="#DejaVuSans-65" x="203.564453"/>
     <use xlink:href="#DejaVuSans-64" x="265.087891"/>
     <use xlink:href="#DejaVuSans-20" x="328.564453"/>
     <use xlink:href="#DejaVuSans-41" x="360.351562"/>
     <use xlink:href="#DejaVuSans-72" x="428.759766"/>
     <use xlink:href="#DejaVuSans-61" x="469.873047"/>
     <use xlink:href="#DejaVuSans-62" x="531.152344"/>
     <use xlink:href="#DejaVuSans-20" x="594.628906"/>
     <use xlink:href="#DejaVuSans-45" x="626.416016"/>
     <use xlink:href="#DejaVuSans-6d" x="689.599609"/>
     <use xlink:href="#DejaVuSans-69" x="787.011719"/>
     <use xlink:href="#DejaVuSans-72" x="814.794922"/>
     <use xlink:href="#DejaVuSans-61" x="855.908203"/>
     <use xlink:href="#DejaVuSans-74" x="917.1875"/>
     <use xlink:href="#DejaVuSans-65" x="956.396484"/>
     <use xlink:href="#DejaVuSans-73" x="1017.919922"/>
    </g>
   </g>
   <g id="text_18">
    <!-- 2% -->
    <g transform="translate(665.294073 1070.565295)scale(0.0579 -0.0579)">
     <defs>
      <path id="DejaVuSans-32" d="M 1228 531 
L 3431 531 
L 3431 0 
L 469 0 
L 469 531 
Q 828 903 1448 1529 
Q 2069 2156 2228 2338 
Q 2531 2678 2651 2914 
Q 2772 3150 2772 3378 
Q 2772 3750 2511 3984 
Q 2250 4219 1831 4219 
Q 1534 4219 1204 4116 
Q 875 4013 500 3803 
L 500 4441 
Q 881 4594 1212 4672 
Q 1544 4750 1819 4750 
Q 2544 4750 2975 4387 
Q 3406 4025 3406 3419 
Q 3406 3131 3298 2873 
Q 3191 2616 2906 2266 
Q 2828 2175 2409 1742 
Q 1991 1309 1228 531 
z
" transform="scale(0.015625)"/>
     </defs>
     <use xlink:href="#DejaVuSans-32"/>
     <use xlink:href="#DejaVuSans-25" x="63.623047"/>
    </g>
   </g>
   <g id="text_19">
    <!-- Aruba -->
    <g transform="translate(505.999368 780.260999)scale(0.0579 -0.0579)">
     <use xlink:href="#DejaVuSans-41"/>
     <use xlink:href="#DejaVuSans-72" x="68.408203"/>
     <use xlink:href="#DejaVuSans-75" x="109.521484"/>
     <use xlink:href="#DejaVuSans-62" x="172.900391"/>
     <use xlink:href="#DejaVuSans-61" x="236.376953"/>
    </g>
   </g>
   <g id="text_20">
    <!-- 2% -->
    <g transform="translate(611.320565 1082.875633)scale(0.0579 -0.0579)">
     <use xlink:href="#DejaVuSans-32"/>
     <use xlink:href="#DejaVuSans-25" x="63.623047"/>
    </g>
   </g>
   <g id="text_21">
    <!-- Belgium -->
    <g transform="translate(411.009519 814.101849)scale(0.0579 -0.0579)">
     <defs>
      <path id="DejaVuSans-67" d="M 2906 1791 
Q 2906 2416 2648 2759 
Q 2391 3103 1925 3103 
Q 1463 3103 1205 2759 
Q 947 2416 947 1791 
Q 947 1169 1205 825 
Q 1463 481 1925 481 
Q 2391 481 2648 825 
Q 2906 1169 2906 1791 
z
M 3481 434 
Q 3481 -459 3084 -895 
Q 2688 -1331 1869 -1331 
Q 1566 -1331 1297 -1286 
Q 1028 -1241 775 -1147 
L 775 -588 
Q 1028 -725 1275 -790 
Q 1522 -856 1778 -856 
Q 2344 -856 2625 -561 
Q 2906 -266 2906 331 
L 2906 616 
Q 2728 306 2450 153 
Q 2172 0 1784 0 
Q 1141 0 747 490 
Q 353 981 353 1791 
Q 353 2603 747 3093 
Q 1141 3584 1784 3584 
Q 2172 3584 2450 3431 
Q 2728 3278 2906 2969 
L 2906 3500 
L 3481 3500 
L 3481 434 
z
" transform="scale(0.015625)"/>
     </defs>
     <use xlink:href="#DejaVuSans-42"/>
     <use xlink:href="#DejaVuSans-65" x="68.603516"/>
     <use xlink:href="#DejaVuSans-6c" x="130.126953"/>
     <use xlink:href="#DejaVuSans-67" x="157.910156"/>
     <use xlink:href="#DejaVuSans-69" x="221.386719"/>
     <use xlink:href="#DejaVuSans-75" x="249.169922"/>
     <use xlink:href="#DejaVuSans-6d" x="312.548828"/>
    </g>
   </g>
   <g id="text_22">
    <!-- 2% -->
    <g transform="translate(563.054953 1101.334279)scale(0.0579 -0.0579)">
     <use xlink:href="#DejaVuSans-32"/>
     <use xlink:href="#DejaVuSans-25" x="63.623047"/>
    </g>
   </g>
   <g id="text_23">
    <!-- Portugal -->
    <g transform="translate(341.099692 851.272225)scale(0.0579 -0.0579)">
     <defs>
      <path id="DejaVuSans-50" d="M 1259 4147 
L 1259 2394 
L 2053 2394 
Q 2494 2394 2734 2622 
Q 2975 2850 2975 3272 
Q 2975 3691 2734 3919 
Q 2494 4147 2053 4147 
L 1259 4147 
z
M 628 4666 
L 2053 4666 
Q 2838 4666 3239 4311 
Q 3641 3956 3641 3272 
Q 3641 2581 3239 2228 
Q 2838 1875 2053 1875 
L 1259 1875 
L 1259 0 
L 628 0 
L 628 4666 
z
" transform="scale(0.015625)"/>
     </defs>
     <use xlink:href="#DejaVuSans-50"/>
     <use xlink:href="#DejaVuSans-6f" x="56.677734"/>
     <use xlink:href="#DejaVuSans-72" x="117.859375"/>
     <use xlink:href="#DejaVuSans-74" x="158.972656"/>
     <use xlink:href="#DejaVuSans-75" x="198.181641"/>
     <use xlink:href="#DejaVuSans-67" x="261.560547"/>
     <use xlink:href="#DejaVuSans-61" x="325.037109"/>
     <use xlink:href="#DejaVuSans-6c" x="386.316406"/>
    </g>
   </g>
   <g id="text_24">
    <!-- 1% -->
    <g transform="translate(525.052595 1121.609029)scale(0.0579 -0.0579)">
     <defs>
      <path id="DejaVuSans-31" d="M 794 531 
L 1825 531 
L 1825 4091 
L 703 3866 
L 703 4441 
L 1819 4666 
L 2450 4666 
L 2450 531 
L 3481 531 
L 3481 0 
L 794 0 
L 794 531 
z
" transform="scale(0.015625)"/>
     </defs>
     <use xlink:href="#DejaVuSans-31"/>
     <use xlink:href="#DejaVuSans-25" x="63.623047"/>
    </g>
   </g>
   <g id="text_25">
    <!-- Qatar -->
    <g transform="translate(301.807598 882.537887)scale(0.0579 -0.0579)">
     <defs>
      <path id="DejaVuSans-51" d="M 2522 4238 
Q 1834 4238 1429 3725 
Q 1025 3213 1025 2328 
Q 1025 1447 1429 934 
Q 1834 422 2522 422 
Q 3209 422 3611 934 
Q 4013 1447 4013 2328 
Q 4013 3213 3611 3725 
Q 3209 4238 2522 4238 
z
M 3406 84 
L 4238 -825 
L 3475 -825 
L 2784 -78 
Q 2681 -84 2626 -87 
Q 2572 -91 2522 -91 
Q 1538 -91 948 567 
Q 359 1225 359 2328 
Q 359 3434 948 4092 
Q 1538 4750 2522 4750 
Q 3503 4750 4090 4092 
Q 4678 3434 4678 2328 
Q 4678 1516 4351 937 
Q 4025 359 3406 84 
z
" transform="scale(0.015625)"/>
     </defs>
     <use xlink:href="#DejaVuSans-51"/>
     <use xlink:href="#DejaVuSans-61" x="78.710938"/>
     <use xlink:href="#DejaVuSans-74" x="139.990234"/>
     <use xlink:href="#DejaVuSans-61" x="179.199219"/>
     <use xlink:href="#DejaVuSans-72" x="240.478516"/>
    </g>
   </g>
   <g id="text_26">
    <!-- 1% -->
    <g transform="translate(499.435953 1138.663026)scale(0.0579 -0.0579)">
     <use xlink:href="#DejaVuSans-31"/>
     <use xlink:href="#DejaVuSans-25" x="63.623047"/>
    </g>
   </g>
   <g id="text_27">
    <!-- Bermuda -->
    <g transform="translate(252.648186 913.11946)scale(0.0579 -0.0579)">
     <use xlink:href="#DejaVuSans-42"/>
     <use xlink:href="#DejaVuSans-65" x="68.603516"/>
     <use xlink:href="#DejaVuSans-72" x="130.126953"/>
     <use xlink:href="#DejaVuSans-6d" x="169.490234"/>
     <use xlink:href="#DejaVuSans-75" x="266.902344"/>
     <use xlink:href="#DejaVuSans-64" x="330.28125"/>
     <use xlink:href="#DejaVuSans-61" x="393.757812"/>
    </g>
   </g>
   <g id="text_28">
    <!-- 1% -->
    <g transform="translate(478.099693 1155.343884)scale(0.0579 -0.0579)">
     <use xlink:href="#DejaVuSans-31"/>
     <use xlink:href="#DejaVuSans-25" x="63.623047"/>
    </g>
   </g>
   <g id="text_29">
    <!-- Belize -->
    <g transform="translate(226.426389 944.841243)scale(0.0579 -0.0579)">
     <use xlink:href="#DejaVuSans-42"/>
     <use xlink:href="#DejaVuSans-65" x="68.603516"/>
     <use xlink:href="#DejaVuSans-6c" x="130.126953"/>
     <use xlink:href="#DejaVuSans-69" x="157.910156"/>
     <use xlink:href="#DejaVuSans-7a" x="185.693359"/>
     <use xlink:href="#DejaVuSans-65" x="238.183594"/>
    </g>
   </g>
   <g id="text_30">
    <!-- 1% -->
    <g transform="translate(458.89135 1172.646675)scale(0.0579 -0.0579)">
     <use xlink:href="#DejaVuSans-31"/>
     <use xlink:href="#DejaVuSans-25" x="63.623047"/>
    </g>
   </g>
   <g id="text_31">
    <!-- Venezuela -->
    <g transform="translate(184.109895 975.547177)scale(0.0579 -0.0579)">
     <defs>
      <path id="DejaVuSans-56" d="M 1831 0 
L 50 4666 
L 709 4666 
L 2188 738 
L 3669 4666 
L 4325 4666 
L 2547 0 
L 1831 0 
z
" transform="scale(0.015625)"/>
     </defs>
     <use xlink:href="#DejaVuSans-56"/>
     <use xlink:href="#DejaVuSans-65" x="60.658203"/>
     <use xlink:href="#DejaVuSans-6e" x="122.181641"/>
     <use xlink:href="#DejaVuSans-65" x="185.560547"/>
     <use xlink:href="#DejaVuSans-7a" x="247.083984"/>
     <use xlink:href="#DejaVuSans-75" x="299.574219"/>
     <use xlink:href="#DejaVuSans-65" x="362.953125"/>
     <use xlink:href="#DejaVuSans-6c" x="424.476562"/>
     <use xlink:href="#DejaVuSans-61" x="452.259766"/>
    </g>
   </g>
   <g id="text_32">
    <!-- 1% -->
    <g transform="translate(442.562707 1189.395366)scale(0.0579 -0.0579)">
     <use xlink:href="#DejaVuSans-31"/>
     <use xlink:href="#DejaVuSans-25" x="63.623047"/>
    </g>
   </g>
   <g id="text_33">
    <!-- Ecuador -->
    <g transform="translate(165.04827 1004.53726)scale(0.0579 -0.0579)">
     <use xlink:href="#DejaVuSans-45"/>
     <use xlink:href="#DejaVuSans-63" x="63.183594"/>
     <use xlink:href="#DejaVuSans-75" x="118.164062"/>
     <use xlink:href="#DejaVuSans-61" x="181.542969"/>
     <use xlink:href="#DejaVuSans-64" x="242.822266"/>
     <use xlink:href="#DejaVuSans-6f" x="306.298828"/>
     <use xlink:href="#DejaVuSans-72" x="367.480469"/>
    </g>
   </g>
   <g id="text_34">
    <!-- 1% -->
    <g transform="translate(428.85134 1205.208139)scale(0.0579 -0.0579)">
     <use xlink:href="#DejaVuSans-31"/>
     <use xlink:href="#DejaVuSans-25" x="63.623047"/>
    </g>
   </g>
   <g id="text_35">
    <!-- Denmark -->
    <g transform="translate(141.270773 1031.233135)scale(0.0579 -0.0579)">
     <defs>
      <path id="DejaVuSans-44" d="M 1259 4147 
L 1259 519 
L 2022 519 
Q 2988 519 3436 956 
Q 3884 1394 3884 2338 
Q 3884 3275 3436 3711 
Q 2988 4147 2022 4147 
L 1259 4147 
z
M 628 4666 
L 1925 4666 
Q 3281 4666 3915 4102 
Q 4550 3538 4550 2338 
Q 4550 1131 3912 565 
Q 3275 0 1925 0 
L 628 0 
L 628 4666 
z
" transform="scale(0.015625)"/>
      <path id="DejaVuSans-6b" d="M 581 4863 
L 1159 4863 
L 1159 1991 
L 2875 3500 
L 3609 3500 
L 1753 1863 
L 3688 0 
L 2938 0 
L 1159 1709 
L 1159 0 
L 581 0 
L 581 4863 
z
" transform="scale(0.015625)"/>
     </defs>
     <use xlink:href="#DejaVuSans-44"/>
     <use xlink:href="#DejaVuSans-65" x="77.001953"/>
     <use xlink:href="#DejaVuSans-6e" x="138.525391"/>
     <use xlink:href="#DejaVuSans-6d" x="201.904297"/>
     <use xlink:href="#DejaVuSans-61" x="299.316406"/>
     <use xlink:href="#DejaVuSans-72" x="360.595703"/>
     <use xlink:href="#DejaVuSans-6b" x="401.708984"/>
    </g>
   </g>
   <g id="text_36">
    <!-- 1% -->
    <g transform="translate(417.492469 1219.769525)scale(0.0579 -0.0579)">
     <use xlink:href="#DejaVuSans-31"/>
     <use xlink:href="#DejaVuSans-25" x="63.623047"/>
    </g>
   </g>
   <g id="text_37">
    <!-- Antigua and Barbuda -->
    <g transform="translate(88.192524 1057.035456)scale(0.0579 -0.0579)">
     <use xlink:href="#DejaVuSans-41"/>
     <use xlink:href="#DejaVuSans-6e" x="68.408203"/>
     <use xlink:href="#DejaVuSans-74" x="131.787109"/>
     <use xlink:href="#DejaVuSans-69" x="170.996094"/>
     <use xlink:href="#DejaVuSans-67" x="198.779297"/>
     <use xlink:href="#DejaVuSans-75" x="262.255859"/>
     <use xlink:href="#DejaVuSans-61" x="325.634766"/>
     <use xlink:href="#DejaVuSans-20" x="386.914062"/>
     <use xlink:href="#DejaVuSans-61" x="418.701172"/>
     <use xlink:href="#DejaVuSans-6e" x="479.980469"/>
     <use xlink:href="#DejaVuSans-64" x="543.359375"/>
     <use xlink:href="#DejaVuSans-20" x="606.835938"/>
     <use xlink:href="#DejaVuSans-42" x="638.623047"/>
     <use xlink:href="#DejaVuSans-61" x="707.226562"/>
     <use xlink:href="#DejaVuSans-72" x="768.505859"/>
     <use xlink:href="#DejaVuSans-62" x="809.619141"/>
     <use xlink:href="#DejaVuSans-75" x="873.095703"/>
     <use xlink:href="#DejaVuSans-64" x="936.474609"/>
     <use xlink:href="#DejaVuSans-61" x="999.951172"/>
    </g>
   </g>
   <g id="text_38">
    <!-- 1% -->
    <g transform="translate(407.541108 1233.843519)scale(0.0579 -0.0579)">
     <use xlink:href="#DejaVuSans-31"/>
     <use xlink:href="#DejaVuSans-25" x="63.623047"/>
    </g>
   </g>
   <g id="text_39">
    <!-- Sweden -->
    <g transform="translate(109.702016 1083.639009)scale(0.0579 -0.0579)">
     <defs>
      <path id="DejaVuSans-77" d="M 269 3500 
L 844 3500 
L 1563 769 
L 2278 3500 
L 2956 3500 
L 3675 769 
L 4391 3500 
L 4966 3500 
L 4050 0 
L 3372 0 
L 2619 2869 
L 1863 0 
L 1184 0 
L 269 3500 
z
" transform="scale(0.015625)"/>
     </defs>
     <use xlink:href="#DejaVuSans-53"/>
     <use xlink:href="#DejaVuSans-77" x="63.476562"/>
     <use xlink:href="#DejaVuSans-65" x="145.263672"/>
     <use xlink:href="#DejaVuSans-64" x="206.787109"/>
     <use xlink:href="#DejaVuSans-65" x="270.263672"/>
     <use xlink:href="#DejaVuSans-6e" x="331.787109"/>
    </g>
   </g>
   <g id="text_40">
    <!-- 1% -->
    <g transform="translate(398.238587 1248.354548)scale(0.0579 -0.0579)">
     <use xlink:href="#DejaVuSans-31"/>
     <use xlink:href="#DejaVuSans-25" x="63.623047"/>
    </g>
   </g>
   <g id="text_41">
    <!-- Nicaragua -->
    <g transform="translate(88.349088 1109.011864)scale(0.0579 -0.0579)">
     <use xlink:href="#DejaVuSans-4e"/>
     <use xlink:href="#DejaVuSans-69" x="74.804688"/>
     <use xlink:href="#DejaVuSans-63" x="102.587891"/>
     <use xlink:href="#DejaVuSans-61" x="157.568359"/>
     <use xlink:href="#DejaVuSans-72" x="218.847656"/>
     <use xlink:href="#DejaVuSans-61" x="259.960938"/>
     <use xlink:href="#DejaVuSans-67" x="321.240234"/>
     <use xlink:href="#DejaVuSans-75" x="384.716797"/>
     <use xlink:href="#DejaVuSans-61" x="448.095703"/>
    </g>
   </g>
   <g id="text_42">
    <!-- 1% -->
    <g transform="translate(390.198278 1262.194287)scale(0.0579 -0.0579)">
     <use xlink:href="#DejaVuSans-31"/>
     <use xlink:href="#DejaVuSans-25" x="63.623047"/>
    </g>
   </g>
   <g id="text_43">
    <!-- Jordan -->
    <g transform="translate(86.773015 1132.965267)scale(0.0579 -0.0579)">
     <defs>
      <path id="DejaVuSans-4a" d="M 628 4666 
L 1259 4666 
L 1259 325 
Q 1259 -519 939 -900 
Q 619 -1281 -91 -1281 
L -331 -1281 
L -331 -750 
L -134 -750 
Q 284 -750 456 -515 
Q 628 -281 628 325 
L 628 4666 
z
" transform="scale(0.015625)"/>
     </defs>
     <use xlink:href="#DejaVuSans-4a"/>
     <use xlink:href="#DejaVuSans-6f" x="29.492188"/>
     <use xlink:href="#DejaVuSans-72" x="90.673828"/>
     <use xlink:href="#DejaVuSans-64" x="130.037109"/>
     <use xlink:href="#DejaVuSans-61" x="193.513672"/>
     <use xlink:href="#DejaVuSans-6e" x="254.792969"/>
    </g>
   </g>
   <g id="text_44">
    <!-- 1% -->
    <g transform="translate(383.300059 1275.259779)scale(0.0579 -0.0579)">
     <use xlink:href="#DejaVuSans-31"/>
     <use xlink:href="#DejaVuSans-25" x="63.623047"/>
    </g>
   </g>
   <g id="text_45">
    <!-- Norway -->
    <g transform="translate(72.464741 1155.339649)scale(0.0579 -0.0579)">
     <defs>
      <path id="DejaVuSans-79" d="M 2059 -325 
Q 1816 -950 1584 -1140 
Q 1353 -1331 966 -1331 
L 506 -1331 
L 506 -850 
L 844 -850 
Q 1081 -850 1212 -737 
Q 1344 -625 1503 -206 
L 1606 56 
L 191 3500 
L 800 3500 
L 1894 763 
L 2988 3500 
L 3597 3500 
L 2059 -325 
z
" transform="scale(0.015625)"/>
     </defs>
     <use xlink:href="#DejaVuSans-4e"/>
     <use xlink:href="#DejaVuSans-6f" x="74.804688"/>
     <use xlink:href="#DejaVuSans-72" x="135.986328"/>
     <use xlink:href="#DejaVuSans-77" x="177.099609"/>
     <use xlink:href="#DejaVuSans-61" x="258.886719"/>
     <use xlink:href="#DejaVuSans-79" x="320.166016"/>
    </g>
   </g>
   <g id="text_46">
    <!-- 1% -->
    <g transform="translate(377.427465 1287.463988)scale(0.0579 -0.0579)">
     <use xlink:href="#DejaVuSans-31"/>
     <use xlink:href="#DejaVuSans-25" x="63.623047"/>
    </g>
   </g>
   <g id="text_47">
    <!-- India -->
    <g transform="translate(71.129945 1176.001529)scale(0.0579 -0.0579)">
     <defs>
      <path id="DejaVuSans-49" d="M 628 4666 
L 1259 4666 
L 1259 0 
L 628 0 
L 628 4666 
z
" transform="scale(0.015625)"/>
     </defs>
     <use xlink:href="#DejaVuSans-49"/>
     <use xlink:href="#DejaVuSans-6e" x="29.492188"/>
     <use xlink:href="#DejaVuSans-64" x="92.871094"/>
     <use xlink:href="#DejaVuSans-69" x="156.347656"/>
     <use xlink:href="#DejaVuSans-61" x="184.130859"/>
    </g>
   </g>
   <g id="text_48">
    <!-- 1% -->
    <g transform="translate(372.469405 1298.734104)scale(0.0579 -0.0579)">
     <use xlink:href="#DejaVuSans-31"/>
     <use xlink:href="#DejaVuSans-25" x="63.623047"/>
    </g>
   </g>
   <g id="text_49">
    <!-- Senegal -->
    <g transform="translate(54.432603 1194.840486)scale(0.0579 -0.0579)">
     <use xlink:href="#DejaVuSans-53"/>
     <use xlink:href="#DejaVuSans-65" x="63.476562"/>
     <use xlink:href="#DejaVuSans-6e" x="125"/>
     <use xlink:href="#DejaVuSans-65" x="188.378906"/>
     <use xlink:href="#DejaVuSans-67" x="249.902344"/>
     <use xlink:href="#DejaVuSans-61" x="313.378906"/>
     <use xlink:href="#DejaVuSans-6c" x="374.658203"/>
    </g>
   </g>
   <g id="text_50">
    <!-- 0% -->
    <g transform="translate(368.32159 1309.009899)scale(0.0579 -0.0579)">
     <defs>
      <path id="DejaVuSans-30" d="M 2034 4250 
Q 1547 4250 1301 3770 
Q 1056 3291 1056 2328 
Q 1056 1369 1301 889 
Q 1547 409 2034 409 
Q 2525 409 2770 889 
Q 3016 1369 3016 2328 
Q 3016 3291 2770 3770 
Q 2525 4250 2034 4250 
z
M 2034 4750 
Q 2819 4750 3233 4129 
Q 3647 3509 3647 2328 
Q 3647 1150 3233 529 
Q 2819 -91 2034 -91 
Q 1250 -91 836 529 
Q 422 1150 422 2328 
Q 422 3509 836 4129 
Q 1250 4750 2034 4750 
z
" transform="scale(0.015625)"/>
     </defs>
     <use xlink:href="#DejaVuSans-30"/>
     <use xlink:href="#DejaVuSans-25" x="63.623047"/>
    </g>
   </g>
   <g id="text_51">
    <!-- Grenada -->
    <g transform="translate(46.69959 1211.766245)scale(0.0579 -0.0579)">
     <defs>
      <path id="DejaVuSans-47" d="M 3809 666 
L 3809 1919 
L 2778 1919 
L 2778 2438 
L 4434 2438 
L 4434 434 
Q 4069 175 3628 42 
Q 3188 -91 2688 -91 
Q 1594 -91 976 548 
Q 359 1188 359 2328 
Q 359 3472 976 4111 
Q 1594 4750 2688 4750 
Q 3144 4750 3555 4637 
Q 3966 4525 4313 4306 
L 4313 3634 
Q 3963 3931 3569 4081 
Q 3175 4231 2741 4231 
Q 1884 4231 1454 3753 
Q 1025 3275 1025 2328 
Q 1025 1384 1454 906 
Q 1884 428 2741 428 
Q 3075 428 3337 486 
Q 3600 544 3809 666 
z
" transform="scale(0.015625)"/>
     </defs>
     <use xlink:href="#DejaVuSans-47"/>
     <use xlink:href="#DejaVuSans-72" x="77.490234"/>
     <use xlink:href="#DejaVuSans-65" x="116.353516"/>
     <use xlink:href="#DejaVuSans-6e" x="177.876953"/>
     <use xlink:href="#DejaVuSans-61" x="241.255859"/>
     <use xlink:href="#DejaVuSans-64" x="302.535156"/>
     <use xlink:href="#DejaVuSans-61" x="366.011719"/>
    </g>
   </g>
   <g id="text_52">
    <!-- 0% -->
    <g transform="translate(364.8877 1318.242131)scale(0.0579 -0.0579)">
     <use xlink:href="#DejaVuSans-30"/>
     <use xlink:href="#DejaVuSans-25" x="63.623047"/>
    </g>
   </g>
   <g id="text_53">
    <!-- Finland -->
    <g transform="translate(44.895479 1228.849578)scale(0.0579 -0.0579)">
     <use xlink:href="#DejaVuSans-46"/>
     <use xlink:href="#DejaVuSans-69" x="50.269531"/>
     <use xlink:href="#DejaVuSans-6e" x="78.052734"/>
     <use xlink:href="#DejaVuSans-6c" x="141.431641"/>
     <use xlink:href="#DejaVuSans-61" x="169.214844"/>
     <use xlink:href="#DejaVuSans-6e" x="230.494141"/>
     <use xlink:href="#DejaVuSans-64" x="293.873047"/>
    </g>
   </g>
   <g id="text_54">
    <!-- 0% -->
    <g transform="translate(361.694392 1327.560312)scale(0.0579 -0.0579)">
     <use xlink:href="#DejaVuSans-30"/>
     <use xlink:href="#DejaVuSans-25" x="63.623047"/>
    </g>
   </g>
   <g id="text_55">
    <!-- Barbados -->
    <g transform="translate(33.468442 1243.91772)scale(0.0579 -0.0579)">
     <use xlink:href="#DejaVuSans-42"/>
     <use xlink:href="#DejaVuSans-61" x="68.603516"/>
     <use xlink:href="#DejaVuSans-72" x="129.882812"/>
     <use xlink:href="#DejaVuSans-62" x="170.996094"/>
     <use xlink:href="#DejaVuSans-61" x="234.472656"/>
     <use xlink:href="#DejaVuSans-64" x="295.751953"/>
     <use xlink:href="#DejaVuSans-6f" x="359.228516"/>
     <use xlink:href="#DejaVuSans-73" x="420.410156"/>
    </g>
   </g>
   <g id="text_56">
    <!-- 0% -->
    <g transform="translate(359.099294 1335.779299)scale(0.0579 -0.0579)">
     <use xlink:href="#DejaVuSans-30"/>
     <use xlink:href="#DejaVuSans-25" x="63.623047"/>
    </g>
   </g>
   <g id="text_57">
    <!-- Greece -->
    <g transform="translate(36.415154 1256.916409)scale(0.0579 -0.0579)">
     <use xlink:href="#DejaVuSans-47"/>
     <use xlink:href="#DejaVuSans-72" x="77.490234"/>
     <use xlink:href="#DejaVuSans-65" x="116.353516"/>
     <use xlink:href="#DejaVuSans-65" x="177.876953"/>
     <use xlink:href="#DejaVuSans-63" x="239.400391"/>
     <use xlink:href="#DejaVuSans-65" x="294.380859"/>
    </g>
   </g>
   <g id="text_58">
    <!-- 0% -->
    <g transform="translate(357.023855 1342.869493)scale(0.0579 -0.0579)">
     <use xlink:href="#DejaVuSans-30"/>
     <use xlink:href="#DejaVuSans-25" x="63.623047"/>
    </g>
   </g>
   <g id="text_59">
    <!-- Guyana -->
    <g transform="translate(31.697362 1267.803518)scale(0.0579 -0.0579)">
     <use xlink:href="#DejaVuSans-47"/>
     <use xlink:href="#DejaVuSans-75" x="77.490234"/>
     <use xlink:href="#DejaVuSans-79" x="140.869141"/>
     <use xlink:href="#DejaVuSans-61" x="200.048828"/>
     <use xlink:href="#DejaVuSans-6e" x="261.328125"/>
     <use xlink:href="#DejaVuSans-61" x="324.707031"/>
    </g>
   </g>
   <g id="text_60">
    <!-- 0% -->
    <g transform="translate(355.399942 1348.807916)scale(0.0579 -0.0579)">
     <use xlink:href="#DejaVuSans-30"/>
     <use xlink:href="#DejaVuSans-25" x="63.623047"/>
    </g>
   </g>
   <g id="text_61">
    <!-- Martinique -->
    <g transform="translate(20.803166 1276.54706)scale(0.0579 -0.0579)">
     <defs>
      <path id="DejaVuSans-71" d="M 947 1747 
Q 947 1113 1208 752 
Q 1469 391 1925 391 
Q 2381 391 2643 752 
Q 2906 1113 2906 1747 
Q 2906 2381 2643 2742 
Q 2381 3103 1925 3103 
Q 1469 3103 1208 2742 
Q 947 2381 947 1747 
z
M 2906 525 
Q 2725 213 2448 61 
Q 2172 -91 1784 -91 
Q 1150 -91 751 415 
Q 353 922 353 1747 
Q 353 2572 751 3078 
Q 1150 3584 1784 3584 
Q 2172 3584 2448 3432 
Q 2725 3281 2906 2969 
L 2906 3500 
L 3481 3500 
L 3481 -1331 
L 2906 -1331 
L 2906 525 
z
" transform="scale(0.015625)"/>
     </defs>
     <use xlink:href="#DejaVuSans-4d"/>
     <use xlink:href="#DejaVuSans-61" x="86.279297"/>
     <use xlink:href="#DejaVuSans-72" x="147.558594"/>
     <use xlink:href="#DejaVuSans-74" x="188.671875"/>
     <use xlink:href="#DejaVuSans-69" x="227.880859"/>
     <use xlink:href="#DejaVuSans-6e" x="255.664062"/>
     <use xlink:href="#DejaVuSans-69" x="319.042969"/>
     <use xlink:href="#DejaVuSans-71" x="346.826172"/>
     <use xlink:href="#DejaVuSans-75" x="410.302734"/>
     <use xlink:href="#DejaVuSans-65" x="473.681641"/>
    </g>
   </g>
   <g id="text_62">
    <!-- 0% -->
    <g transform="translate(354.170253 1353.577121)scale(0.0579 -0.0579)">
     <use xlink:href="#DejaVuSans-30"/>
     <use xlink:href="#DejaVuSans-25" x="63.623047"/>
    </g>
   </g>
   <g id="text_63">
    <!-- Paraguay -->
    <g transform="translate(22.623035 1285.319102)scale(0.0579 -0.0579)">
     <use xlink:href="#DejaVuSans-50"/>
     <use xlink:href="#DejaVuSans-61" x="55.802734"/>
     <use xlink:href="#DejaVuSans-72" x="117.082031"/>
     <use xlink:href="#DejaVuSans-61" x="158.195312"/>
     <use xlink:href="#DejaVuSans-67" x="219.474609"/>
     <use xlink:href="#DejaVuSans-75" x="282.951172"/>
     <use xlink:href="#DejaVuSans-61" x="346.330078"/>
     <use xlink:href="#DejaVuSans-79" x="407.609375"/>
    </g>
   </g>
   <g id="text_64">
    <!-- 0% -->
    <g transform="translate(353.002515 1358.361871)scale(0.0579 -0.0579)">
     <use xlink:href="#DejaVuSans-30"/>
     <use xlink:href="#DejaVuSans-25" x="63.623047"/>
    </g>
   </g>
   <g id="text_65">
    <!-- Kiribati -->
    <g transform="translate(27.127056 1294.11817)scale(0.0579 -0.0579)">
     <defs>
      <path id="DejaVuSans-4b" d="M 628 4666 
L 1259 4666 
L 1259 2694 
L 3353 4666 
L 4166 4666 
L 1850 2491 
L 4331 0 
L 3500 0 
L 1259 2247 
L 1259 0 
L 628 0 
L 628 4666 
z
" transform="scale(0.015625)"/>
     </defs>
     <use xlink:href="#DejaVuSans-4b"/>
     <use xlink:href="#DejaVuSans-69" x="65.576172"/>
     <use xlink:href="#DejaVuSans-72" x="93.359375"/>
     <use xlink:href="#DejaVuSans-69" x="134.472656"/>
     <use xlink:href="#DejaVuSans-62" x="162.255859"/>
     <use xlink:href="#DejaVuSans-61" x="225.732422"/>
     <use xlink:href="#DejaVuSans-74" x="287.011719"/>
     <use xlink:href="#DejaVuSans-69" x="326.220703"/>
    </g>
   </g>
   <g id="text_66">
    <!-- 0% -->
    <g transform="translate(351.896924 1363.161362)scale(0.0579 -0.0579)">
     <use xlink:href="#DejaVuSans-30"/>
     <use xlink:href="#DejaVuSans-25" x="63.623047"/>
    </g>
   </g>
   <g id="text_67">
    <!-- Egypt -->
    <g transform="translate(29.004152 1302.942782)scale(0.0579 -0.0579)">
     <use xlink:href="#DejaVuSans-45"/>
     <use xlink:href="#DejaVuSans-67" x="63.183594"/>
     <use xlink:href="#DejaVuSans-79" x="126.660156"/>
     <use xlink:href="#DejaVuSans-70" x="185.839844"/>
     <use xlink:href="#DejaVuSans-74" x="249.316406"/>
    </g>
   </g>
   <g id="text_68">
    <!-- 0% -->
    <g transform="translate(350.853665 1367.974787)scale(0.0579 -0.0579)">
     <use xlink:href="#DejaVuSans-30"/>
     <use xlink:href="#DejaVuSans-25" x="63.623047"/>
    </g>
   </g>
   <g id="text_69">
    <!-- Ghana -->
    <g transform="translate(25.430185 1309.577113)scale(0.0579 -0.0579)">
     <use xlink:href="#DejaVuSans-47"/>
     <use xlink:href="#DejaVuSans-68" x="77.490234"/>
     <use xlink:href="#DejaVuSans-61" x="140.869141"/>
     <use xlink:href="#DejaVuSans-6e" x="202.148438"/>
     <use xlink:href="#DejaVuSans-61" x="265.527344"/>
    </g>
   </g>
   <g id="text_70">
    <!-- 0% -->
    <g transform="translate(350.112233 1371.593513)scale(0.0579 -0.0579)">
     <use xlink:href="#DejaVuSans-30"/>
     <use xlink:href="#DejaVuSans-25" x="63.623047"/>
    </g>
   </g>
   <g id="text_71">
    <!-- Morocco -->
    <g transform="translate(19.240304 1314.007209)scale(0.0579 -0.0579)">
     <use xlink:href="#DejaVuSans-4d"/>
     <use xlink:href="#DejaVuSans-6f" x="86.279297"/>
     <use xlink:href="#DejaVuSans-72" x="147.460938"/>
     <use xlink:href="#DejaVuSans-6f" x="186.324219"/>
     <use xlink:href="#DejaVuSans-63" x="247.505859"/>
     <use xlink:href="#DejaVuSans-63" x="302.486328"/>
     <use xlink:href="#DejaVuSans-6f" x="357.466797"/>
    </g>
   </g>
   <g id="text_72">
    <!-- 0% -->
    <g transform="translate(349.637514 1374.00993)scale(0.0579 -0.0579)">
     <use xlink:href="#DejaVuSans-30"/>
     <use xlink:href="#DejaVuSans-25" x="63.623047"/>
    </g>
   </g>
   <g id="text_73">
    <!-- Samoa -->
    <g transform="translate(22.685139 1318.442856)scale(0.0579 -0.0579)">
     <use xlink:href="#DejaVuSans-53"/>
     <use xlink:href="#DejaVuSans-61" x="63.476562"/>
     <use xlink:href="#DejaVuSans-6d" x="124.755859"/>
     <use xlink:href="#DejaVuSans-6f" x="222.167969"/>
     <use xlink:href="#DejaVuSans-61" x="283.349609"/>
    </g>
   </g>
   <g id="text_74">
    <!-- 0% -->
    <g transform="translate(349.178473 1376.429373)scale(0.0579 -0.0579)">
     <use xlink:href="#DejaVuSans-30"/>
     <use xlink:href="#DejaVuSans-25" x="63.623047"/>
    </g>
   </g>
   <g id="text_75">
    <!-- Guam -->
    <g transform="translate(24.483271 1322.883866)scale(0.0579 -0.0579)">
     <use xlink:href="#DejaVuSans-47"/>
     <use xlink:href="#DejaVuSans-75" x="77.490234"/>
     <use xlink:href="#DejaVuSans-61" x="140.869141"/>
     <use xlink:href="#DejaVuSans-6d" x="202.148438"/>
    </g>
   </g>
   <g id="text_76">
    <!-- 0% -->
    <g transform="translate(348.73513 1378.851742)scale(0.0579 -0.0579)">
     <use xlink:href="#DejaVuSans-30"/>
     <use xlink:href="#DejaVuSans-25" x="63.623047"/>
    </g>
   </g>
   <g id="text_77">
    <!-- United States Inbound InBound Flight distribution -->
    <g transform="translate(573.295861 20.8)scale(0.12 -0.12)">
     <use xlink:href="#DejaVuSans-55"/>
     <use xlink:href="#DejaVuSans-6e" x="73.193359"/>
     <use xlink:href="#DejaVuSans-69" x="136.572266"/>
     <use xlink:href="#DejaVuSans-74" x="164.355469"/>
     <use xlink:href="#DejaVuSans-65" x="203.564453"/>
     <use xlink:href="#DejaVuSans-64" x="265.087891"/>
     <use xlink:href="#DejaVuSans-20" x="328.564453"/>
     <use xlink:href="#DejaVuSans-53" x="360.351562"/>
     <use xlink:href="#DejaVuSans-74" x="423.828125"/>
     <use xlink:href="#DejaVuSans-61" x="463.037109"/>
     <use xlink:href="#DejaVuSans-74" x="524.316406"/>
     <use xlink:href="#DejaVuSans-65" x="563.525391"/>
     <use xlink:href="#DejaVuSans-73" x="625.048828"/>
     <use xlink:href="#DejaVuSans-20" x="677.148438"/>
     <use xlink:href="#DejaVuSans-49" x="708.935547"/>
     <use xlink:href="#DejaVuSans-6e" x="738.427734"/>
     <use xlink:href="#DejaVuSans-62" x="801.806641"/>
     <use xlink:href="#DejaVuSans-6f" x="865.283203"/>
     <use xlink:href="#DejaVuSans-75" x="926.464844"/>
     <use xlink:href="#DejaVuSans-6e" x="989.84375"/>
     <use xlink:href="#DejaVuSans-64" x="1053.222656"/>
     <use xlink:href="#DejaVuSans-20" x="1116.699219"/>
     <use xlink:href="#DejaVuSans-49" x="1148.486328"/>
     <use xlink:href="#DejaVuSans-6e" x="1177.978516"/>
     <use xlink:href="#DejaVuSans-42" x="1241.357422"/>
     <use xlink:href="#DejaVuSans-6f" x="1309.960938"/>
     <use xlink:href="#DejaVuSans-75" x="1371.142578"/>
     <use xlink:href="#DejaVuSans-6e" x="1434.521484"/>
     <use xlink:href="#DejaVuSans-64" x="1497.900391"/>
     <use xlink:href="#DejaVuSans-20" x="1561.376953"/>
     <use xlink:href="#DejaVuSans-46" x="1593.164062"/>
     <use xlink:href="#DejaVuSans-6c" x="1650.683594"/>
     <use xlink:href="#DejaVuSans-69" x="1678.466797"/>
     <use xlink:href="#DejaVuSans-67" x="1706.25"/>
     <use xlink:href="#DejaVuSans-68" x="1769.726562"/>
     <use xlink:href="#DejaVuSans-74" x="1833.105469"/>
     <use xlink:href="#DejaVuSans-20" x="1872.314453"/>
     <use xlink:href="#DejaVuSans-64" x="1904.101562"/>
     <use xlink:href="#DejaVuSans-69" x="1967.578125"/>
     <use xlink:href="#DejaVuSans-73" x="1995.361328"/>
     <use xlink:href="#DejaVuSans-74" x="2047.460938"/>
     <use xlink:href="#DejaVuSans-72" x="2086.669922"/>
     <use xlink:href="#DejaVuSans-69" x="2127.783203"/>
     <use xlink:href="#DejaVuSans-62" x="2155.566406"/>
     <use xlink:href="#DejaVuSans-75" x="2219.042969"/>
     <use xlink:href="#DejaVuSans-74" x="2282.421875"/>
     <use xlink:href="#DejaVuSans-69" x="2321.630859"/>
     <use xlink:href="#DejaVuSans-6f" x="2349.414062"/>
     <use xlink:href="#DejaVuSans-6e" x="2410.595703"/>
    </g>
   </g>
  </g>
  <g id="axes_2">
   <g id="legend_1">
    <g id="patch_40">
     <path d="M 1467.570132 1728.384375 
L 1606.570132 1728.384375 
Q 1608.570132 1728.384375 1608.570132 1726.384375 
L 1608.570132 1169.615625 
Q 1608.570132 1167.615625 1606.570132 1167.615625 
L 1467.570132 1167.615625 
Q 1465.570132 1167.615625 1465.570132 1169.615625 
L 1465.570132 1726.384375 
Q 1465.570132 1728.384375 1467.570132 1728.384375 
z
" style="fill: #ffffff; opacity: 0.8; stroke: #cccccc; stroke-linejoin: miter"/>
    </g>
    <g id="patch_41">
     <path d="M 1469.570132 1179.214062 
L 1489.570132 1179.214062 
L 1489.570132 1172.214062 
L 1469.570132 1172.214062 
z
" style="fill: #8000ff"/>
    </g>
    <g id="text_78">
     <!-- Mexico -->
     <g transform="translate(1497.570132 1179.214062)scale(0.1 -0.1)">
      <use xlink:href="#DejaVuSans-4d"/>
      <use xlink:href="#DejaVuSans-65" x="86.279297"/>
      <use xlink:href="#DejaVuSans-78" x="146.052734"/>
      <use xlink:href="#DejaVuSans-69" x="205.232422"/>
      <use xlink:href="#DejaVuSans-63" x="233.015625"/>
      <use xlink:href="#DejaVuSans-6f" x="287.996094"/>
     </g>
    </g>
    <g id="patch_42">
     <path d="M 1469.570132 1193.892187 
L 1489.570132 1193.892187 
L 1489.570132 1186.892187 
L 1469.570132 1186.892187 
z
" style="fill: #7413ff"/>
    </g>
    <g id="text_79">
     <!-- France -->
     <g transform="translate(1497.570132 1193.892187)scale(0.1 -0.1)">
      <use xlink:href="#DejaVuSans-46"/>
      <use xlink:href="#DejaVuSans-72" x="50.269531"/>
      <use xlink:href="#DejaVuSans-61" x="91.382812"/>
      <use xlink:href="#DejaVuSans-6e" x="152.662109"/>
      <use xlink:href="#DejaVuSans-63" x="216.041016"/>
      <use xlink:href="#DejaVuSans-65" x="271.021484"/>
     </g>
    </g>
    <g id="patch_43">
     <path d="M 1469.570132 1208.570312 
L 1489.570132 1208.570312 
L 1489.570132 1201.570312 
L 1469.570132 1201.570312 
z
" style="fill: #6629fe"/>
    </g>
    <g id="text_80">
     <!-- Bahamas -->
     <g transform="translate(1497.570132 1208.570312)scale(0.1 -0.1)">
      <use xlink:href="#DejaVuSans-42"/>
      <use xlink:href="#DejaVuSans-61" x="68.603516"/>
      <use xlink:href="#DejaVuSans-68" x="129.882812"/>
      <use xlink:href="#DejaVuSans-61" x="193.261719"/>
      <use xlink:href="#DejaVuSans-6d" x="254.541016"/>
      <use xlink:href="#DejaVuSans-61" x="351.953125"/>
      <use xlink:href="#DejaVuSans-73" x="413.232422"/>
     </g>
    </g>
    <g id="patch_44">
     <path d="M 1469.570132 1223.248437 
L 1489.570132 1223.248437 
L 1489.570132 1216.248437 
L 1469.570132 1216.248437 
z
" style="fill: #583efd"/>
    </g>
    <g id="text_81">
     <!-- Brazil -->
     <g transform="translate(1497.570132 1223.248437)scale(0.1 -0.1)">
      <use xlink:href="#DejaVuSans-42"/>
      <use xlink:href="#DejaVuSans-72" x="68.603516"/>
      <use xlink:href="#DejaVuSans-61" x="109.716797"/>
      <use xlink:href="#DejaVuSans-7a" x="170.996094"/>
      <use xlink:href="#DejaVuSans-69" x="223.486328"/>
      <use xlink:href="#DejaVuSans-6c" x="251.269531"/>
     </g>
    </g>
    <g id="patch_45">
     <path d="M 1469.570132 1237.926562 
L 1489.570132 1237.926562 
L 1489.570132 1230.926562 
L 1469.570132 1230.926562 
z
" style="fill: #4c50fc"/>
    </g>
    <g id="text_82">
     <!-- Spain -->
     <g transform="translate(1497.570132 1237.926562)scale(0.1 -0.1)">
      <use xlink:href="#DejaVuSans-53"/>
      <use xlink:href="#DejaVuSans-70" x="63.476562"/>
      <use xlink:href="#DejaVuSans-61" x="126.953125"/>
      <use xlink:href="#DejaVuSans-69" x="188.232422"/>
      <use xlink:href="#DejaVuSans-6e" x="216.015625"/>
     </g>
    </g>
    <g id="patch_46">
     <path d="M 1469.570132 1252.604687 
L 1489.570132 1252.604687 
L 1489.570132 1245.604687 
L 1469.570132 1245.604687 
z
" style="fill: #3e65fa"/>
    </g>
    <g id="text_83">
     <!-- Colombia -->
     <g transform="translate(1497.570132 1252.604687)scale(0.1 -0.1)">
      <use xlink:href="#DejaVuSans-43"/>
      <use xlink:href="#DejaVuSans-6f" x="69.824219"/>
      <use xlink:href="#DejaVuSans-6c" x="131.005859"/>
      <use xlink:href="#DejaVuSans-6f" x="158.789062"/>
      <use xlink:href="#DejaVuSans-6d" x="219.970703"/>
      <use xlink:href="#DejaVuSans-62" x="317.382812"/>
      <use xlink:href="#DejaVuSans-69" x="380.859375"/>
      <use xlink:href="#DejaVuSans-61" x="408.642578"/>
     </g>
    </g>
    <g id="patch_47">
     <path d="M 1469.570132 1267.282812 
L 1489.570132 1267.282812 
L 1489.570132 1260.282812 
L 1469.570132 1260.282812 
z
" style="fill: #3079f7"/>
    </g>
    <g id="text_84">
     <!-- Netherlands -->
     <g transform="translate(1497.570132 1267.282812)scale(0.1 -0.1)">
      <use xlink:href="#DejaVuSans-4e"/>
      <use xlink:href="#DejaVuSans-65" x="74.804688"/>
      <use xlink:href="#DejaVuSans-74" x="136.328125"/>
      <use xlink:href="#DejaVuSans-68" x="175.537109"/>
      <use xlink:href="#DejaVuSans-65" x="238.916016"/>
      <use xlink:href="#DejaVuSans-72" x="300.439453"/>
      <use xlink:href="#DejaVuSans-6c" x="341.552734"/>
      <use xlink:href="#DejaVuSans-61" x="369.335938"/>
      <use xlink:href="#DejaVuSans-6e" x="430.615234"/>
      <use xlink:href="#DejaVuSans-64" x="493.994141"/>
      <use xlink:href="#DejaVuSans-73" x="557.470703"/>
     </g>
    </g>
    <g id="patch_48">
     <path d="M 1469.570132 1281.960937 
L 1489.570132 1281.960937 
L 1489.570132 1274.960937 
L 1469.570132 1274.960937 
z
" style="fill: #218cf4"/>
    </g>
    <g id="text_85">
     <!-- Australia -->
     <g transform="translate(1497.570132 1281.960937)scale(0.1 -0.1)">
      <use xlink:href="#DejaVuSans-41"/>
      <use xlink:href="#DejaVuSans-75" x="68.408203"/>
      <use xlink:href="#DejaVuSans-73" x="131.787109"/>
      <use xlink:href="#DejaVuSans-74" x="183.886719"/>
      <use xlink:href="#DejaVuSans-72" x="223.095703"/>
      <use xlink:href="#DejaVuSans-61" x="264.208984"/>
      <use xlink:href="#DejaVuSans-6c" x="325.488281"/>
      <use xlink:href="#DejaVuSans-69" x="353.271484"/>
      <use xlink:href="#DejaVuSans-61" x="381.054688"/>
     </g>
    </g>
    <g id="patch_49">
     <path d="M 1469.570132 1296.639062 
L 1489.570132 1296.639062 
L 1489.570132 1289.639062 
L 1469.570132 1289.639062 
z
" style="fill: #169bf2"/>
    </g>
    <g id="text_86">
     <!-- United Arab Emirates -->
     <g transform="translate(1497.570132 1296.639062)scale(0.1 -0.1)">
      <use xlink:href="#DejaVuSans-55"/>
      <use xlink:href="#DejaVuSans-6e" x="73.193359"/>
      <use xlink:href="#DejaVuSans-69" x="136.572266"/>
      <use xlink:href="#DejaVuSans-74" x="164.355469"/>
      <use xlink:href="#DejaVuSans-65" x="203.564453"/>
      <use xlink:href="#DejaVuSans-64" x="265.087891"/>
      <use xlink:href="#DejaVuSans-20" x="328.564453"/>
      <use xlink:href="#DejaVuSans-41" x="360.351562"/>
      <use xlink:href="#DejaVuSans-72" x="428.759766"/>
      <use xlink:href="#DejaVuSans-61" x="469.873047"/>
      <use xlink:href="#DejaVuSans-62" x="531.152344"/>
      <use xlink:href="#DejaVuSans-20" x="594.628906"/>
      <use xlink:href="#DejaVuSans-45" x="626.416016"/>
      <use xlink:href="#DejaVuSans-6d" x="689.599609"/>
      <use xlink:href="#DejaVuSans-69" x="787.011719"/>
      <use xlink:href="#DejaVuSans-72" x="814.794922"/>
      <use xlink:href="#DejaVuSans-61" x="855.908203"/>
      <use xlink:href="#DejaVuSans-74" x="917.1875"/>
      <use xlink:href="#DejaVuSans-65" x="956.396484"/>
      <use xlink:href="#DejaVuSans-73" x="1017.919922"/>
     </g>
    </g>
    <g id="patch_50">
     <path d="M 1469.570132 1311.317187 
L 1489.570132 1311.317187 
L 1489.570132 1304.317187 
L 1469.570132 1304.317187 
z
" style="fill: #08acee"/>
    </g>
    <g id="text_87">
     <!-- Aruba -->
     <g transform="translate(1497.570132 1311.317187)scale(0.1 -0.1)">
      <use xlink:href="#DejaVuSans-41"/>
      <use xlink:href="#DejaVuSans-72" x="68.408203"/>
      <use xlink:href="#DejaVuSans-75" x="109.521484"/>
      <use xlink:href="#DejaVuSans-62" x="172.900391"/>
      <use xlink:href="#DejaVuSans-61" x="236.376953"/>
     </g>
    </g>
    <g id="patch_51">
     <path d="M 1469.570132 1325.995312 
L 1489.570132 1325.995312 
L 1489.570132 1318.995312 
L 1469.570132 1318.995312 
z
" style="fill: #07bbea"/>
    </g>
    <g id="text_88">
     <!-- Belgium -->
     <g transform="translate(1497.570132 1325.995312)scale(0.1 -0.1)">
      <use xlink:href="#DejaVuSans-42"/>
      <use xlink:href="#DejaVuSans-65" x="68.603516"/>
      <use xlink:href="#DejaVuSans-6c" x="130.126953"/>
      <use xlink:href="#DejaVuSans-67" x="157.910156"/>
      <use xlink:href="#DejaVuSans-69" x="221.386719"/>
      <use xlink:href="#DejaVuSans-75" x="249.169922"/>
      <use xlink:href="#DejaVuSans-6d" x="312.548828"/>
     </g>
    </g>
    <g id="patch_52">
     <path d="M 1469.570132 1340.673437 
L 1489.570132 1340.673437 
L 1489.570132 1333.673437 
L 1469.570132 1333.673437 
z
" style="fill: #14cae5"/>
    </g>
    <g id="text_89">
     <!-- Portugal -->
     <g transform="translate(1497.570132 1340.673437)scale(0.1 -0.1)">
      <use xlink:href="#DejaVuSans-50"/>
      <use xlink:href="#DejaVuSans-6f" x="56.677734"/>
      <use xlink:href="#DejaVuSans-72" x="117.859375"/>
      <use xlink:href="#DejaVuSans-74" x="158.972656"/>
      <use xlink:href="#DejaVuSans-75" x="198.181641"/>
      <use xlink:href="#DejaVuSans-67" x="261.560547"/>
      <use xlink:href="#DejaVuSans-61" x="325.037109"/>
      <use xlink:href="#DejaVuSans-6c" x="386.316406"/>
     </g>
    </g>
    <g id="patch_53">
     <path d="M 1469.570132 1355.351562 
L 1489.570132 1355.351562 
L 1489.570132 1348.351562 
L 1469.570132 1348.351562 
z
" style="fill: #20d5e1"/>
    </g>
    <g id="text_90">
     <!-- Qatar -->
     <g transform="translate(1497.570132 1355.351562)scale(0.1 -0.1)">
      <use xlink:href="#DejaVuSans-51"/>
      <use xlink:href="#DejaVuSans-61" x="78.710938"/>
      <use xlink:href="#DejaVuSans-74" x="139.990234"/>
      <use xlink:href="#DejaVuSans-61" x="179.199219"/>
      <use xlink:href="#DejaVuSans-72" x="240.478516"/>
     </g>
    </g>
    <g id="patch_54">
     <path d="M 1469.570132 1370.029687 
L 1489.570132 1370.029687 
L 1489.570132 1363.029687 
L 1469.570132 1363.029687 
z
" style="fill: #2fe0db"/>
    </g>
    <g id="text_91">
     <!-- Bermuda -->
     <g transform="translate(1497.570132 1370.029687)scale(0.1 -0.1)">
      <use xlink:href="#DejaVuSans-42"/>
      <use xlink:href="#DejaVuSans-65" x="68.603516"/>
      <use xlink:href="#DejaVuSans-72" x="130.126953"/>
      <use xlink:href="#DejaVuSans-6d" x="169.490234"/>
      <use xlink:href="#DejaVuSans-75" x="266.902344"/>
      <use xlink:href="#DejaVuSans-64" x="330.28125"/>
      <use xlink:href="#DejaVuSans-61" x="393.757812"/>
     </g>
    </g>
    <g id="patch_55">
     <path d="M 1469.570132 1384.707812 
L 1489.570132 1384.707812 
L 1489.570132 1377.707812 
L 1469.570132 1377.707812 
z
" style="fill: #3dead5"/>
    </g>
    <g id="text_92">
     <!-- Belize -->
     <g transform="translate(1497.570132 1384.707812)scale(0.1 -0.1)">
      <use xlink:href="#DejaVuSans-42"/>
      <use xlink:href="#DejaVuSans-65" x="68.603516"/>
      <use xlink:href="#DejaVuSans-6c" x="130.126953"/>
      <use xlink:href="#DejaVuSans-69" x="157.910156"/>
      <use xlink:href="#DejaVuSans-7a" x="185.693359"/>
      <use xlink:href="#DejaVuSans-65" x="238.183594"/>
     </g>
    </g>
    <g id="patch_56">
     <path d="M 1469.570132 1399.385937 
L 1489.570132 1399.385937 
L 1489.570132 1392.385937 
L 1469.570132 1392.385937 
z
" style="fill: #4af2cf"/>
    </g>
    <g id="text_93">
     <!-- Venezuela -->
     <g transform="translate(1497.570132 1399.385937)scale(0.1 -0.1)">
      <use xlink:href="#DejaVuSans-56"/>
      <use xlink:href="#DejaVuSans-65" x="60.658203"/>
      <use xlink:href="#DejaVuSans-6e" x="122.181641"/>
      <use xlink:href="#DejaVuSans-65" x="185.560547"/>
      <use xlink:href="#DejaVuSans-7a" x="247.083984"/>
      <use xlink:href="#DejaVuSans-75" x="299.574219"/>
      <use xlink:href="#DejaVuSans-65" x="362.953125"/>
      <use xlink:href="#DejaVuSans-6c" x="424.476562"/>
      <use xlink:href="#DejaVuSans-61" x="452.259766"/>
     </g>
    </g>
    <g id="patch_57">
     <path d="M 1469.570132 1414.064062 
L 1489.570132 1414.064062 
L 1489.570132 1407.064062 
L 1469.570132 1407.064062 
z
" style="fill: #56f7ca"/>
    </g>
    <g id="text_94">
     <!-- Ecuador -->
     <g transform="translate(1497.570132 1414.064062)scale(0.1 -0.1)">
      <use xlink:href="#DejaVuSans-45"/>
      <use xlink:href="#DejaVuSans-63" x="63.183594"/>
      <use xlink:href="#DejaVuSans-75" x="118.164062"/>
      <use xlink:href="#DejaVuSans-61" x="181.542969"/>
      <use xlink:href="#DejaVuSans-64" x="242.822266"/>
      <use xlink:href="#DejaVuSans-6f" x="306.298828"/>
      <use xlink:href="#DejaVuSans-72" x="367.480469"/>
     </g>
    </g>
    <g id="patch_58">
     <path d="M 1469.570132 1428.742187 
L 1489.570132 1428.742187 
L 1489.570132 1421.742187 
L 1469.570132 1421.742187 
z
" style="fill: #64fbc3"/>
    </g>
    <g id="text_95">
     <!-- Denmark -->
     <g transform="translate(1497.570132 1428.742187)scale(0.1 -0.1)">
      <use xlink:href="#DejaVuSans-44"/>
      <use xlink:href="#DejaVuSans-65" x="77.001953"/>
      <use xlink:href="#DejaVuSans-6e" x="138.525391"/>
      <use xlink:href="#DejaVuSans-6d" x="201.904297"/>
      <use xlink:href="#DejaVuSans-61" x="299.316406"/>
      <use xlink:href="#DejaVuSans-72" x="360.595703"/>
      <use xlink:href="#DejaVuSans-6b" x="401.708984"/>
     </g>
    </g>
    <g id="patch_59">
     <path d="M 1469.570132 1443.420312 
L 1489.570132 1443.420312 
L 1489.570132 1436.420312 
L 1469.570132 1436.420312 
z
" style="fill: #72febb"/>
    </g>
    <g id="text_96">
     <!-- Antigua and Barbuda -->
     <g transform="translate(1497.570132 1443.420312)scale(0.1 -0.1)">
      <use xlink:href="#DejaVuSans-41"/>
      <use xlink:href="#DejaVuSans-6e" x="68.408203"/>
      <use xlink:href="#DejaVuSans-74" x="131.787109"/>
      <use xlink:href="#DejaVuSans-69" x="170.996094"/>
      <use xlink:href="#DejaVuSans-67" x="198.779297"/>
      <use xlink:href="#DejaVuSans-75" x="262.255859"/>
      <use xlink:href="#DejaVuSans-61" x="325.634766"/>
      <use xlink:href="#DejaVuSans-20" x="386.914062"/>
      <use xlink:href="#DejaVuSans-61" x="418.701172"/>
      <use xlink:href="#DejaVuSans-6e" x="479.980469"/>
      <use xlink:href="#DejaVuSans-64" x="543.359375"/>
      <use xlink:href="#DejaVuSans-20" x="606.835938"/>
      <use xlink:href="#DejaVuSans-42" x="638.623047"/>
      <use xlink:href="#DejaVuSans-61" x="707.226562"/>
      <use xlink:href="#DejaVuSans-72" x="768.505859"/>
      <use xlink:href="#DejaVuSans-62" x="809.619141"/>
      <use xlink:href="#DejaVuSans-75" x="873.095703"/>
      <use xlink:href="#DejaVuSans-64" x="936.474609"/>
      <use xlink:href="#DejaVuSans-61" x="999.951172"/>
     </g>
    </g>
    <g id="patch_60">
     <path d="M 1469.570132 1458.098437 
L 1489.570132 1458.098437 
L 1489.570132 1451.098437 
L 1469.570132 1451.098437 
z
" style="fill: #80ffb4"/>
    </g>
    <g id="text_97">
     <!-- Sweden -->
     <g transform="translate(1497.570132 1458.098437)scale(0.1 -0.1)">
      <use xlink:href="#DejaVuSans-53"/>
      <use xlink:href="#DejaVuSans-77" x="63.476562"/>
      <use xlink:href="#DejaVuSans-65" x="145.263672"/>
      <use xlink:href="#DejaVuSans-64" x="206.787109"/>
      <use xlink:href="#DejaVuSans-65" x="270.263672"/>
      <use xlink:href="#DejaVuSans-6e" x="331.787109"/>
     </g>
    </g>
    <g id="patch_61">
     <path d="M 1469.570132 1472.776562 
L 1489.570132 1472.776562 
L 1489.570132 1465.776562 
L 1469.570132 1465.776562 
z
" style="fill: #8cfead"/>
    </g>
    <g id="text_98">
     <!-- Nicaragua -->
     <g transform="translate(1497.570132 1472.776562)scale(0.1 -0.1)">
      <use xlink:href="#DejaVuSans-4e"/>
      <use xlink:href="#DejaVuSans-69" x="74.804688"/>
      <use xlink:href="#DejaVuSans-63" x="102.587891"/>
      <use xlink:href="#DejaVuSans-61" x="157.568359"/>
      <use xlink:href="#DejaVuSans-72" x="218.847656"/>
      <use xlink:href="#DejaVuSans-61" x="259.960938"/>
      <use xlink:href="#DejaVuSans-67" x="321.240234"/>
      <use xlink:href="#DejaVuSans-75" x="384.716797"/>
      <use xlink:href="#DejaVuSans-61" x="448.095703"/>
     </g>
    </g>
    <g id="patch_62">
     <path d="M 1469.570132 1487.454687 
L 1489.570132 1487.454687 
L 1489.570132 1480.454687 
L 1469.570132 1480.454687 
z
" style="fill: #9bfba5"/>
    </g>
    <g id="text_99">
     <!-- Jordan -->
     <g transform="translate(1497.570132 1487.454687)scale(0.1 -0.1)">
      <use xlink:href="#DejaVuSans-4a"/>
      <use xlink:href="#DejaVuSans-6f" x="29.492188"/>
      <use xlink:href="#DejaVuSans-72" x="90.673828"/>
      <use xlink:href="#DejaVuSans-64" x="130.037109"/>
      <use xlink:href="#DejaVuSans-61" x="193.513672"/>
      <use xlink:href="#DejaVuSans-6e" x="254.792969"/>
     </g>
    </g>
    <g id="patch_63">
     <path d="M 1469.570132 1502.132812 
L 1489.570132 1502.132812 
L 1489.570132 1495.132812 
L 1469.570132 1495.132812 
z
" style="fill: #a8f79c"/>
    </g>
    <g id="text_100">
     <!-- Norway -->
     <g transform="translate(1497.570132 1502.132812)scale(0.1 -0.1)">
      <use xlink:href="#DejaVuSans-4e"/>
      <use xlink:href="#DejaVuSans-6f" x="74.804688"/>
      <use xlink:href="#DejaVuSans-72" x="135.986328"/>
      <use xlink:href="#DejaVuSans-77" x="177.099609"/>
      <use xlink:href="#DejaVuSans-61" x="258.886719"/>
      <use xlink:href="#DejaVuSans-79" x="320.166016"/>
     </g>
    </g>
    <g id="patch_64">
     <path d="M 1469.570132 1516.810937 
L 1489.570132 1516.810937 
L 1489.570132 1509.810937 
L 1469.570132 1509.810937 
z
" style="fill: #b4f295"/>
    </g>
    <g id="text_101">
     <!-- India -->
     <g transform="translate(1497.570132 1516.810937)scale(0.1 -0.1)">
      <use xlink:href="#DejaVuSans-49"/>
      <use xlink:href="#DejaVuSans-6e" x="29.492188"/>
      <use xlink:href="#DejaVuSans-64" x="92.871094"/>
      <use xlink:href="#DejaVuSans-69" x="156.347656"/>
      <use xlink:href="#DejaVuSans-61" x="184.130859"/>
     </g>
    </g>
    <g id="patch_65">
     <path d="M 1469.570132 1531.489062 
L 1489.570132 1531.489062 
L 1489.570132 1524.489062 
L 1469.570132 1524.489062 
z
" style="fill: #c2ea8c"/>
    </g>
    <g id="text_102">
     <!-- Senegal -->
     <g transform="translate(1497.570132 1531.489062)scale(0.1 -0.1)">
      <use xlink:href="#DejaVuSans-53"/>
      <use xlink:href="#DejaVuSans-65" x="63.476562"/>
      <use xlink:href="#DejaVuSans-6e" x="125"/>
      <use xlink:href="#DejaVuSans-65" x="188.378906"/>
      <use xlink:href="#DejaVuSans-67" x="249.902344"/>
      <use xlink:href="#DejaVuSans-61" x="313.378906"/>
      <use xlink:href="#DejaVuSans-6c" x="374.658203"/>
     </g>
    </g>
    <g id="patch_66">
     <path d="M 1469.570132 1546.167187 
L 1489.570132 1546.167187 
L 1489.570132 1539.167187 
L 1469.570132 1539.167187 
z
" style="fill: #d0e082"/>
    </g>
    <g id="text_103">
     <!-- Grenada -->
     <g transform="translate(1497.570132 1546.167187)scale(0.1 -0.1)">
      <use xlink:href="#DejaVuSans-47"/>
      <use xlink:href="#DejaVuSans-72" x="77.490234"/>
      <use xlink:href="#DejaVuSans-65" x="116.353516"/>
      <use xlink:href="#DejaVuSans-6e" x="177.876953"/>
      <use xlink:href="#DejaVuSans-61" x="241.255859"/>
      <use xlink:href="#DejaVuSans-64" x="302.535156"/>
      <use xlink:href="#DejaVuSans-61" x="366.011719"/>
     </g>
    </g>
    <g id="patch_67">
     <path d="M 1469.570132 1560.845312 
L 1489.570132 1560.845312 
L 1489.570132 1553.845312 
L 1469.570132 1553.845312 
z
" style="fill: #ded579"/>
    </g>
    <g id="text_104">
     <!-- Finland -->
     <g transform="translate(1497.570132 1560.845312)scale(0.1 -0.1)">
      <use xlink:href="#DejaVuSans-46"/>
      <use xlink:href="#DejaVuSans-69" x="50.269531"/>
      <use xlink:href="#DejaVuSans-6e" x="78.052734"/>
      <use xlink:href="#DejaVuSans-6c" x="141.431641"/>
      <use xlink:href="#DejaVuSans-61" x="169.214844"/>
      <use xlink:href="#DejaVuSans-6e" x="230.494141"/>
      <use xlink:href="#DejaVuSans-64" x="293.873047"/>
     </g>
    </g>
    <g id="patch_68">
     <path d="M 1469.570132 1575.523437 
L 1489.570132 1575.523437 
L 1489.570132 1568.523437 
L 1469.570132 1568.523437 
z
" style="fill: #ebca70"/>
    </g>
    <g id="text_105">
     <!-- Barbados -->
     <g transform="translate(1497.570132 1575.523437)scale(0.1 -0.1)">
      <use xlink:href="#DejaVuSans-42"/>
      <use xlink:href="#DejaVuSans-61" x="68.603516"/>
      <use xlink:href="#DejaVuSans-72" x="129.882812"/>
      <use xlink:href="#DejaVuSans-62" x="170.996094"/>
      <use xlink:href="#DejaVuSans-61" x="234.472656"/>
      <use xlink:href="#DejaVuSans-64" x="295.751953"/>
      <use xlink:href="#DejaVuSans-6f" x="359.228516"/>
      <use xlink:href="#DejaVuSans-73" x="420.410156"/>
     </g>
    </g>
    <g id="patch_69">
     <path d="M 1469.570132 1590.201562 
L 1489.570132 1590.201562 
L 1489.570132 1583.201562 
L 1469.570132 1583.201562 
z
" style="fill: #f9bb66"/>
    </g>
    <g id="text_106">
     <!-- Greece -->
     <g transform="translate(1497.570132 1590.201562)scale(0.1 -0.1)">
      <use xlink:href="#DejaVuSans-47"/>
      <use xlink:href="#DejaVuSans-72" x="77.490234"/>
      <use xlink:href="#DejaVuSans-65" x="116.353516"/>
      <use xlink:href="#DejaVuSans-65" x="177.876953"/>
      <use xlink:href="#DejaVuSans-63" x="239.400391"/>
      <use xlink:href="#DejaVuSans-65" x="294.380859"/>
     </g>
    </g>
    <g id="patch_70">
     <path d="M 1469.570132 1604.879687 
L 1489.570132 1604.879687 
L 1489.570132 1597.879687 
L 1469.570132 1597.879687 
z
" style="fill: #ffac5c"/>
    </g>
    <g id="text_107">
     <!-- Guyana -->
     <g transform="translate(1497.570132 1604.879687)scale(0.1 -0.1)">
      <use xlink:href="#DejaVuSans-47"/>
      <use xlink:href="#DejaVuSans-75" x="77.490234"/>
      <use xlink:href="#DejaVuSans-79" x="140.869141"/>
      <use xlink:href="#DejaVuSans-61" x="200.048828"/>
      <use xlink:href="#DejaVuSans-6e" x="261.328125"/>
      <use xlink:href="#DejaVuSans-61" x="324.707031"/>
     </g>
    </g>
    <g id="patch_71">
     <path d="M 1469.570132 1619.557812 
L 1489.570132 1619.557812 
L 1489.570132 1612.557812 
L 1469.570132 1612.557812 
z
" style="fill: #ff9b52"/>
    </g>
    <g id="text_108">
     <!-- Martinique -->
     <g transform="translate(1497.570132 1619.557812)scale(0.1 -0.1)">
      <use xlink:href="#DejaVuSans-4d"/>
      <use xlink:href="#DejaVuSans-61" x="86.279297"/>
      <use xlink:href="#DejaVuSans-72" x="147.558594"/>
      <use xlink:href="#DejaVuSans-74" x="188.671875"/>
      <use xlink:href="#DejaVuSans-69" x="227.880859"/>
      <use xlink:href="#DejaVuSans-6e" x="255.664062"/>
      <use xlink:href="#DejaVuSans-69" x="319.042969"/>
      <use xlink:href="#DejaVuSans-71" x="346.826172"/>
      <use xlink:href="#DejaVuSans-75" x="410.302734"/>
      <use xlink:href="#DejaVuSans-65" x="473.681641"/>
     </g>
    </g>
    <g id="patch_72">
     <path d="M 1469.570132 1634.235937 
L 1489.570132 1634.235937 
L 1489.570132 1627.235937 
L 1469.570132 1627.235937 
z
" style="fill: #ff8c49"/>
    </g>
    <g id="text_109">
     <!-- Paraguay -->
     <g transform="translate(1497.570132 1634.235937)scale(0.1 -0.1)">
      <use xlink:href="#DejaVuSans-50"/>
      <use xlink:href="#DejaVuSans-61" x="55.802734"/>
      <use xlink:href="#DejaVuSans-72" x="117.082031"/>
      <use xlink:href="#DejaVuSans-61" x="158.195312"/>
      <use xlink:href="#DejaVuSans-67" x="219.474609"/>
      <use xlink:href="#DejaVuSans-75" x="282.951172"/>
      <use xlink:href="#DejaVuSans-61" x="346.330078"/>
      <use xlink:href="#DejaVuSans-79" x="407.609375"/>
     </g>
    </g>
    <g id="patch_73">
     <path d="M 1469.570132 1648.914062 
L 1489.570132 1648.914062 
L 1489.570132 1641.914062 
L 1469.570132 1641.914062 
z
" style="fill: #ff793e"/>
    </g>
    <g id="text_110">
     <!-- Kiribati -->
     <g transform="translate(1497.570132 1648.914062)scale(0.1 -0.1)">
      <use xlink:href="#DejaVuSans-4b"/>
      <use xlink:href="#DejaVuSans-69" x="65.576172"/>
      <use xlink:href="#DejaVuSans-72" x="93.359375"/>
      <use xlink:href="#DejaVuSans-69" x="134.472656"/>
      <use xlink:href="#DejaVuSans-62" x="162.255859"/>
      <use xlink:href="#DejaVuSans-61" x="225.732422"/>
      <use xlink:href="#DejaVuSans-74" x="287.011719"/>
      <use xlink:href="#DejaVuSans-69" x="326.220703"/>
     </g>
    </g>
    <g id="patch_74">
     <path d="M 1469.570132 1663.592187 
L 1489.570132 1663.592187 
L 1489.570132 1656.592187 
L 1469.570132 1656.592187 
z
" style="fill: #ff6533"/>
    </g>
    <g id="text_111">
     <!-- Egypt -->
     <g transform="translate(1497.570132 1663.592187)scale(0.1 -0.1)">
      <use xlink:href="#DejaVuSans-45"/>
      <use xlink:href="#DejaVuSans-67" x="63.183594"/>
      <use xlink:href="#DejaVuSans-79" x="126.660156"/>
      <use xlink:href="#DejaVuSans-70" x="185.839844"/>
      <use xlink:href="#DejaVuSans-74" x="249.316406"/>
     </g>
    </g>
    <g id="patch_75">
     <path d="M 1469.570132 1678.270313 
L 1489.570132 1678.270313 
L 1489.570132 1671.270313 
L 1469.570132 1671.270313 
z
" style="fill: #ff5029"/>
    </g>
    <g id="text_112">
     <!-- Ghana -->
     <g transform="translate(1497.570132 1678.270313)scale(0.1 -0.1)">
      <use xlink:href="#DejaVuSans-47"/>
      <use xlink:href="#DejaVuSans-68" x="77.490234"/>
      <use xlink:href="#DejaVuSans-61" x="140.869141"/>
      <use xlink:href="#DejaVuSans-6e" x="202.148438"/>
      <use xlink:href="#DejaVuSans-61" x="265.527344"/>
     </g>
    </g>
    <g id="patch_76">
     <path d="M 1469.570132 1692.948438 
L 1489.570132 1692.948438 
L 1489.570132 1685.948438 
L 1469.570132 1685.948438 
z
" style="fill: #ff3e1f"/>
    </g>
    <g id="text_113">
     <!-- Morocco -->
     <g transform="translate(1497.570132 1692.948438)scale(0.1 -0.1)">
      <use xlink:href="#DejaVuSans-4d"/>
      <use xlink:href="#DejaVuSans-6f" x="86.279297"/>
      <use xlink:href="#DejaVuSans-72" x="147.460938"/>
      <use xlink:href="#DejaVuSans-6f" x="186.324219"/>
      <use xlink:href="#DejaVuSans-63" x="247.505859"/>
      <use xlink:href="#DejaVuSans-63" x="302.486328"/>
      <use xlink:href="#DejaVuSans-6f" x="357.466797"/>
     </g>
    </g>
    <g id="patch_77">
     <path d="M 1469.570132 1707.626563 
L 1489.570132 1707.626563 
L 1489.570132 1700.626563 
L 1469.570132 1700.626563 
z
" style="fill: #ff2914"/>
    </g>
    <g id="text_114">
     <!-- Samoa -->
     <g transform="translate(1497.570132 1707.626563)scale(0.1 -0.1)">
      <use xlink:href="#DejaVuSans-53"/>
      <use xlink:href="#DejaVuSans-61" x="63.476562"/>
      <use xlink:href="#DejaVuSans-6d" x="124.755859"/>
      <use xlink:href="#DejaVuSans-6f" x="222.167969"/>
      <use xlink:href="#DejaVuSans-61" x="283.349609"/>
     </g>
    </g>
    <g id="patch_78">
     <path d="M 1469.570132 1722.304688 
L 1489.570132 1722.304688 
L 1489.570132 1715.304688 
L 1469.570132 1715.304688 
z
" style="fill: #ff1309"/>
    </g>
    <g id="text_115">
     <!-- Guam -->
     <g transform="translate(1497.570132 1722.304688)scale(0.1 -0.1)">
      <use xlink:href="#DejaVuSans-47"/>
      <use xlink:href="#DejaVuSans-75" x="77.490234"/>
      <use xlink:href="#DejaVuSans-61" x="140.869141"/>
      <use xlink:href="#DejaVuSans-6d" x="202.148438"/>
     </g>
    </g>
   </g>
  </g>
 </g>
</svg>
