<?xml version="1.0" encoding="utf-8" standalone="no"?>
<!DOCTYPE svg PUBLIC "-//W3C//DTD SVG 1.1//EN"
  "http://www.w3.org/Graphics/SVG/1.1/DTD/svg11.dtd">
<svg xmlns:xlink="http://www.w3.org/1999/xlink" width="2880pt" height="2880pt" viewBox="0 0 2880 2880" xmlns="http://www.w3.org/2000/svg" version="1.1">
 <metadata>
  <rdf:RDF xmlns:dc="http://purl.org/dc/elements/1.1/" xmlns:cc="http://creativecommons.org/ns#" xmlns:rdf="http://www.w3.org/1999/02/22-rdf-syntax-ns#">
   <cc:Work>
    <dc:type rdf:resource="http://purl.org/dc/dcmitype/StillImage"/>
    <dc:date>2022-04-29T14:43:26.810128</dc:date>
    <dc:format>image/svg+xml</dc:format>
    <dc:creator>
     <cc:Agent>
      <dc:title>Matplotlib v3.5.0, https://matplotlib.org/</dc:title>
     </cc:Agent>
    </dc:creator>
   </cc:Work>
  </rdf:RDF>
 </metadata>
 <defs>
  <style type="text/css">*{stroke-linejoin: round; stroke-linecap: butt}</style>
 </defs>
 <g id="figure_1">
  <g id="patch_1">
   <path d="M 0 2880 
L 2880 2880 
L 2880 0 
L 0 0 
L 0 2880 
z
" style="fill: none"/>
  </g>
  <g id="axes_1">
   <g id="patch_2">
    <path d="M 132.317312 1336.327711 
C 112.479823 1448.831702 123.687642 1564.643773 164.730307 1671.256032 
C 205.772971 1777.86829 275.117743 1871.2993 365.275273 1941.458361 
L 751.250913 1445.462404 
L 132.317312 1336.327711 
z
" style="fill: #8000ff"/>
   </g>
   <g id="patch_3">
    <path d="M 365.275273 1941.458361 
C 438.65368 1998.560192 523.797507 2038.673278 614.54997 2058.897026 
C 705.302434 2079.120774 799.422058 2078.955682 890.103016 2058.413688 
L 751.250913 1445.462404 
L 365.275273 1941.458361 
z
" style="fill: #7413ff"/>
   </g>
   <g id="patch_4">
    <path d="M 890.103016 2058.413688 
C 962.325964 2042.052994 1031.092158 2013.055469 1093.222866 1972.761529 
C 1155.353574 1932.467588 1209.876479 1881.507814 1254.271251 1822.237832 
L 751.250913 1445.462404 
L 890.103016 2058.413688 
z
" style="fill: #6826fe"/>
   </g>
   <g id="patch_5">
    <path d="M 1254.271251 1822.237832 
C 1282.057339 1785.14155 1305.654744 1745.085127 1324.632633 1702.799898 
C 1343.610522 1660.51467 1357.852691 1616.259555 1367.099111 1570.842548 
L 751.250913 1445.462404 
L 1254.271251 1822.237832 
z
" style="fill: #5a3bfd"/>
   </g>
   <g id="patch_6">
    <path d="M 1367.099111 1570.842548 
C 1374.802071 1533.006776 1379.001903 1494.54151 1379.645303 1455.934941 
C 1380.288702 1417.328371 1377.372936 1378.744519 1370.935011 1340.673083 
L 751.250913 1445.462404 
L 1367.099111 1570.842548 
z
" style="fill: #4e4dfc"/>
   </g>
   <g id="patch_7">
    <path d="M 1370.935011 1340.673083 
C 1365.785978 1310.223666 1358.399651 1280.19513 1348.836077 1250.831588 
C 1339.272503 1221.468047 1327.557668 1192.849287 1313.786805 1165.207961 
L 751.250913 1445.462404 
L 1370.935011 1340.673083 
z
" style="fill: #4062fa"/>
   </g>
   <g id="patch_8">
    <path d="M 1313.786805 1165.207961 
C 1301.492519 1140.530468 1287.587706 1116.688688 1272.162505 1093.837182 
C 1256.737304 1070.985676 1239.82512 1049.173929 1221.535589 1028.543339 
L 751.250913 1445.462404 
L 1313.786805 1165.207961 
z
" style="fill: #3473f8"/>
   </g>
   <g id="patch_9">
    <path d="M 1221.535589 1028.543339 
C 1203.978136 1008.738533 1185.18716 990.062568 1165.274938 972.627031 
C 1145.362716 955.191495 1124.368985 939.031183 1102.419182 924.242652 
L 751.250913 1445.462404 
L 1221.535589 1028.543339 
z
" style="fill: #2884f6"/>
   </g>
   <g id="patch_10">
    <path d="M 1102.419182 924.242652 
C 1082.299595 910.687217 1061.411996 898.308099 1039.861271 887.16746 
C 1018.310546 876.026821 996.132829 866.14334 973.439484 857.566646 
L 751.250913 1445.462404 
L 1102.419182 924.242652 
z
" style="fill: #1996f3"/>
   </g>
   <g id="patch_11">
    <path d="M 973.439484 857.566646 
C 956.937403 851.329871 940.180039 845.790673 923.21192 840.963773 
C 906.2438 836.136872 889.079967 832.026547 871.766027 828.643719 
L 751.250913 1445.462404 
L 973.439484 857.566646 
z
" style="fill: #0ea5ef"/>
   </g>
   <g id="patch_12">
    <path d="M 871.766027 828.643719 
C 856.616853 825.683847 841.363777 823.283078 826.037833 821.446299 
C 810.711889 819.609519 795.323478 818.337974 779.90391 817.634251 
L 751.250913 1445.462404 
L 871.766027 828.643719 
z
" style="fill: #00b5eb"/>
   </g>
   <g id="patch_13">
    <path d="M 779.90391 817.634251 
C 767.789059 817.081351 755.660742 816.879226 743.534195 817.028131 
C 731.407648 817.177036 719.287951 817.676909 707.190329 818.527122 
L 751.250913 1445.462404 
L 779.90391 817.634251 
z
" style="fill: #0dc2e8"/>
   </g>
   <g id="patch_14">
    <path d="M 707.190329 818.527122 
C 695.092707 819.377334 683.022229 820.57753 670.994056 822.126202 
C 658.965884 823.674874 646.985057 825.571373 635.066626 827.813317 
L 751.250913 1445.462404 
L 707.190329 818.527122 
z
" style="fill: #18cde4"/>
   </g>
   <g id="patch_15">
    <path d="M 635.066626 827.813317 
C 623.148194 830.055261 611.297152 832.64171 599.528386 835.569415 
C 587.75962 838.49712 576.07806 841.764855 564.498382 845.368515 
L 751.250913 1445.462404 
L 635.066626 827.813317 
z
" style="fill: #27dade"/>
   </g>
   <g id="patch_16">
    <path d="M 564.498382 845.368515 
C 553.971528 848.64453 543.532699 852.196971 533.192732 856.02215 
C 522.852765 859.847329 512.61524 863.943921 502.490786 868.307674 
L 751.250913 1445.462404 
L 564.498382 845.368515 
z
" style="fill: #32e3da"/>
   </g>
   <g id="patch_17">
    <path d="M 502.490786 868.307674 
C 492.366332 872.671426 482.358454 877.300829 472.477543 882.191074 
C 462.596631 887.081319 452.846107 892.230715 443.236094 897.633914 
L 751.250913 1445.462404 
L 502.490786 868.307674 
z
" style="fill: #40ecd4"/>
   </g>
   <g id="patch_18">
    <path d="M 443.236094 897.633914 
C 433.626081 903.037113 424.159906 908.692245 414.847397 914.593439 
C 405.534889 920.494633 396.37927 926.639845 387.390047 933.022696 
L 751.250913 1445.462404 
L 443.236094 897.633914 
z
" style="fill: #4df3ce"/>
   </g>
   <g id="patch_19">
    <path d="M 387.390047 933.022696 
C 379.299836 938.767199 371.346797 944.702484 363.537619 950.823561 
C 355.728441 956.944637 348.065314 963.249788 340.554683 969.73371 
L 751.250913 1445.462404 
L 387.390047 933.022696 
z
" style="fill: #58f8c9"/>
   </g>
   <g id="patch_20">
    <path d="M 340.554683 969.73371 
C 334.713189 974.776668 328.965074 979.92679 323.313263 985.181456 
C 317.661452 990.436122 312.106904 995.79444 306.652445 1001.253685 
L 751.250913 1445.462404 
L 340.554683 969.73371 
z
" style="fill: #66fcc2"/>
   </g>
   <g id="patch_21">
    <path d="M 306.652445 1001.253685 
C 301.197986 1006.71293 295.844541 1012.272175 290.594833 1017.928593 
C 285.345126 1023.58501 280.200047 1029.337639 275.162215 1035.183554 
L 751.250913 1445.462404 
L 306.652445 1001.253685 
z
" style="fill: #72febb"/>
   </g>
   <g id="patch_22">
    <path d="M 275.162215 1035.183554 
C 270.844105 1040.1943 266.60537 1045.272905 262.447594 1050.417471 
C 258.289819 1055.562036 254.213521 1060.771921 250.220224 1066.045177 
L 751.250913 1445.462404 
L 275.162215 1035.183554 
z
" style="fill: #80ffb4"/>
   </g>
   <g id="patch_23">
    <path d="M 250.220224 1066.045177 
C 246.226927 1071.318434 242.317129 1076.654404 238.492291 1082.051095 
C 234.667454 1087.447786 230.928053 1092.904524 227.275488 1098.419269 
L 751.250913 1445.462404 
L 250.220224 1066.045177 
z
" style="fill: #8cfead"/>
   </g>
   <g id="patch_24">
    <path d="M 227.275488 1098.419269 
C 224.840472 1102.095724 222.444218 1105.797704 220.087122 1109.524596 
C 217.730027 1113.251487 215.412221 1117.003083 213.13409 1120.77876 
L 751.250913 1445.462404 
L 227.275488 1098.419269 
z
" style="fill: #99fca6"/>
   </g>
   <g id="patch_25">
    <path d="M 213.13409 1120.77876 
C 210.855959 1124.554437 208.617629 1128.353987 206.419472 1132.176777 
C 204.221315 1135.999567 202.063452 1139.845386 199.946242 1143.713595 
L 751.250913 1445.462404 
L 213.13409 1120.77876 
z
" style="fill: #a6f89d"/>
   </g>
   <g id="patch_26">
    <path d="M 199.946242 1143.713595 
C 197.829033 1147.581804 195.752594 1151.472189 193.71727 1155.384104 
C 191.681946 1159.296018 189.68785 1163.229246 187.735314 1167.183132 
L 751.250913 1445.462404 
L 199.946242 1143.713595 
z
" style="fill: #b2f396"/>
   </g>
   <g id="patch_27">
    <path d="M 187.735314 1167.183132 
C 185.782777 1171.137019 183.871908 1175.111346 182.003025 1179.105453 
C 180.134141 1183.099561 178.307345 1187.113226 176.522942 1191.145784 
L 751.250913 1445.462404 
L 187.735314 1167.183132 
z
" style="fill: #c0eb8d"/>
   </g>
   <g id="patch_28">
    <path d="M 176.522942 1191.145784 
C 175.184645 1194.170191 173.870242 1197.205114 172.579855 1200.25027 
C 171.289469 1203.295426 170.02314 1206.35072 168.780986 1209.415867 
L 751.250913 1445.462404 
L 176.522942 1191.145784 
z
" style="fill: #cce385"/>
   </g>
   <g id="patch_29">
    <path d="M 168.780986 1209.415867 
C 167.538832 1212.481014 166.320892 1215.555918 165.12728 1218.640292 
C 163.933668 1221.724666 162.764421 1224.818414 161.619648 1227.921246 
L 751.250913 1445.462404 
L 168.780986 1209.415867 
z
" style="fill: #d9da7d"/>
   </g>
   <g id="patch_30">
    <path d="M 161.619648 1227.921246 
C 160.474876 1231.024078 159.354613 1234.135898 158.258965 1237.256415 
C 157.163317 1240.376933 156.092318 1243.50605 155.046068 1246.643474 
L 751.250913 1445.462404 
L 161.619648 1227.921246 
z
" style="fill: #e6cd73"/>
   </g>
   <g id="patch_31">
    <path d="M 155.046068 1246.643474 
C 153.999818 1249.780899 152.97835 1252.926533 151.981758 1256.080083 
C 150.985166 1259.233633 150.013483 1262.395001 149.066798 1265.56389 
L 751.250913 1445.462404 
L 155.046068 1246.643474 
z
" style="fill: #f2c26b"/>
   </g>
   <g id="patch_32">
    <path d="M 149.066798 1265.56389 
C 148.435677 1267.676477 147.815677 1269.79237 147.206824 1271.911482 
C 146.597972 1274.030594 146.000275 1276.152896 145.413758 1278.278298 
L 751.250913 1445.462404 
L 149.066798 1265.56389 
z
" style="fill: #ffb360"/>
   </g>
   <g id="patch_33">
    <path d="M 145.413758 1278.278298 
C 145.1205 1279.340998 144.830039 1280.404467 144.542378 1281.468695 
C 144.254716 1282.532922 143.969855 1283.597905 143.687798 1284.663632 
L 751.250913 1445.462404 
L 145.413758 1278.278298 
z
" style="fill: #ffa558"/>
   </g>
   <g id="patch_34">
    <path d="M 143.687798 1284.663632 
C 143.405741 1285.729359 143.126488 1286.795826 142.850043 1287.863023 
C 142.573598 1288.930219 142.299961 1289.998141 142.029135 1291.066778 
L 751.250913 1445.462404 
L 143.687798 1284.663632 
z
" style="fill: #ff964f"/>
   </g>
   <g id="patch_35">
    <path d="M 142.029135 1291.066778 
C 141.75831 1292.135414 141.490297 1293.204761 141.225098 1294.274808 
C 140.9599 1295.344855 140.697518 1296.415597 140.437954 1297.487025 
L 751.250913 1445.462404 
L 142.029135 1291.066778 
z
" style="fill: #ff8444"/>
   </g>
   <g id="patch_36">
    <path d="M 140.437954 1297.487025 
C 140.17839 1298.558452 139.921646 1299.630561 139.667724 1300.703339 
C 139.413802 1301.776118 139.162703 1302.849563 138.91443 1303.923662 
L 751.250913 1445.462404 
L 140.437954 1297.487025 
z
" style="fill: #ff733b"/>
   </g>
   <g id="patch_37">
    <path d="M 138.91443 1303.923662 
C 138.666157 1304.997762 138.42071 1306.072514 138.178093 1307.147905 
C 137.935475 1308.223297 137.695687 1309.299325 137.458732 1310.375978 
L 751.250913 1445.462404 
L 138.91443 1303.923662 
z
" style="fill: #ff5f30"/>
   </g>
   <g id="patch_38">
    <path d="M 137.458732 1310.375978 
C 137.221777 1311.452631 136.987655 1312.529906 136.756369 1313.607791 
C 136.525083 1314.685677 136.296633 1315.764169 136.071022 1316.843256 
L 751.250913 1445.462404 
L 137.458732 1310.375978 
z
" style="fill: #ff4d27"/>
   </g>
   <g id="patch_39">
    <path d="M 136.071022 1316.843256 
C 135.845411 1317.922344 135.62264 1319.002023 135.40271 1320.082283 
C 135.182781 1321.162543 134.965694 1322.243379 134.751453 1323.324781 
L 751.250913 1445.462404 
L 136.071022 1316.843256 
z
" style="fill: #ff3b1e"/>
   </g>
   <g id="patch_40">
    <path d="M 134.751453 1323.324781 
C 134.537211 1324.406184 134.325815 1325.488148 134.117267 1326.570662 
C 133.908719 1327.653177 133.703019 1328.736238 133.50017 1329.819835 
L 751.250913 1445.462404 
L 134.751453 1323.324781 
z
" style="fill: #ff2613"/>
   </g>
   <g id="patch_41">
    <path d="M 133.50017 1329.819835 
C 133.297322 1330.903432 133.097324 1331.987561 132.900181 1333.072211 
C 132.703037 1334.15686 132.508748 1335.242026 132.317314 1336.327698 
L 751.250913 1445.462404 
L 133.50017 1329.819835 
z
" style="fill: #ff1309"/>
   </g>
   <g id="matplotlib.axis_1"/>
   <g id="matplotlib.axis_2"/>
   <g id="text_1">
    <!-- Germany -->
    <g transform="translate(79.465959 1695.433072)scale(0.0579 -0.0579)">
     <defs>
      <path id="DejaVuSans-47" d="M 3809 666 
L 3809 1919 
L 2778 1919 
L 2778 2438 
L 4434 2438 
L 4434 434 
Q 4069 175 3628 42 
Q 3188 -91 2688 -91 
Q 1594 -91 976 548 
Q 359 1188 359 2328 
Q 359 3472 976 4111 
Q 1594 4750 2688 4750 
Q 3144 4750 3555 4637 
Q 3966 4525 4313 4306 
L 4313 3634 
Q 3963 3931 3569 4081 
Q 3175 4231 2741 4231 
Q 1884 4231 1454 3753 
Q 1025 3275 1025 2328 
Q 1025 1384 1454 906 
Q 1884 428 2741 428 
Q 3075 428 3337 486 
Q 3600 544 3809 666 
z
" transform="scale(0.015625)"/>
      <path id="DejaVuSans-65" d="M 3597 1894 
L 3597 1613 
L 953 1613 
Q 991 1019 1311 708 
Q 1631 397 2203 397 
Q 2534 397 2845 478 
Q 3156 559 3463 722 
L 3463 178 
Q 3153 47 2828 -22 
Q 2503 -91 2169 -91 
Q 1331 -91 842 396 
Q 353 884 353 1716 
Q 353 2575 817 3079 
Q 1281 3584 2069 3584 
Q 2775 3584 3186 3129 
Q 3597 2675 3597 1894 
z
M 3022 2063 
Q 3016 2534 2758 2815 
Q 2500 3097 2075 3097 
Q 1594 3097 1305 2825 
Q 1016 2553 972 2059 
L 3022 2063 
z
" transform="scale(0.015625)"/>
      <path id="DejaVuSans-72" d="M 2631 2963 
Q 2534 3019 2420 3045 
Q 2306 3072 2169 3072 
Q 1681 3072 1420 2755 
Q 1159 2438 1159 1844 
L 1159 0 
L 581 0 
L 581 3500 
L 1159 3500 
L 1159 2956 
Q 1341 3275 1631 3429 
Q 1922 3584 2338 3584 
Q 2397 3584 2469 3576 
Q 2541 3569 2628 3553 
L 2631 2963 
z
" transform="scale(0.015625)"/>
      <path id="DejaVuSans-6d" d="M 3328 2828 
Q 3544 3216 3844 3400 
Q 4144 3584 4550 3584 
Q 5097 3584 5394 3201 
Q 5691 2819 5691 2113 
L 5691 0 
L 5113 0 
L 5113 2094 
Q 5113 2597 4934 2840 
Q 4756 3084 4391 3084 
Q 3944 3084 3684 2787 
Q 3425 2491 3425 1978 
L 3425 0 
L 2847 0 
L 2847 2094 
Q 2847 2600 2669 2842 
Q 2491 3084 2119 3084 
Q 1678 3084 1418 2786 
Q 1159 2488 1159 1978 
L 1159 0 
L 581 0 
L 581 3500 
L 1159 3500 
L 1159 2956 
Q 1356 3278 1631 3431 
Q 1906 3584 2284 3584 
Q 2666 3584 2933 3390 
Q 3200 3197 3328 2828 
z
" transform="scale(0.015625)"/>
      <path id="DejaVuSans-61" d="M 2194 1759 
Q 1497 1759 1228 1600 
Q 959 1441 959 1056 
Q 959 750 1161 570 
Q 1363 391 1709 391 
Q 2188 391 2477 730 
Q 2766 1069 2766 1631 
L 2766 1759 
L 2194 1759 
z
M 3341 1997 
L 3341 0 
L 2766 0 
L 2766 531 
Q 2569 213 2275 61 
Q 1981 -91 1556 -91 
Q 1019 -91 701 211 
Q 384 513 384 1019 
Q 384 1609 779 1909 
Q 1175 2209 1959 2209 
L 2766 2209 
L 2766 2266 
Q 2766 2663 2505 2880 
Q 2244 3097 1772 3097 
Q 1472 3097 1187 3025 
Q 903 2953 641 2809 
L 641 3341 
Q 956 3463 1253 3523 
Q 1550 3584 1831 3584 
Q 2591 3584 2966 3190 
Q 3341 2797 3341 1997 
z
" transform="scale(0.015625)"/>
      <path id="DejaVuSans-6e" d="M 3513 2113 
L 3513 0 
L 2938 0 
L 2938 2094 
Q 2938 2591 2744 2837 
Q 2550 3084 2163 3084 
Q 1697 3084 1428 2787 
Q 1159 2491 1159 1978 
L 1159 0 
L 581 0 
L 581 3500 
L 1159 3500 
L 1159 2956 
Q 1366 3272 1645 3428 
Q 1925 3584 2291 3584 
Q 2894 3584 3203 3211 
Q 3513 2838 3513 2113 
z
" transform="scale(0.015625)"/>
      <path id="DejaVuSans-79" d="M 2059 -325 
Q 1816 -950 1584 -1140 
Q 1353 -1331 966 -1331 
L 506 -1331 
L 506 -850 
L 844 -850 
Q 1081 -850 1212 -737 
Q 1344 -625 1503 -206 
L 1606 56 
L 191 3500 
L 800 3500 
L 1894 763 
L 2988 3500 
L 3597 3500 
L 2059 -325 
z
" transform="scale(0.015625)"/>
     </defs>
     <use xlink:href="#DejaVuSans-47"/>
     <use xlink:href="#DejaVuSans-65" x="77.490234"/>
     <use xlink:href="#DejaVuSans-72" x="139.013672"/>
     <use xlink:href="#DejaVuSans-6d" x="178.376953"/>
     <use xlink:href="#DejaVuSans-61" x="275.789062"/>
     <use xlink:href="#DejaVuSans-6e" x="337.068359"/>
     <use xlink:href="#DejaVuSans-79" x="400.447266"/>
    </g>
   </g>
   <g id="text_2">
    <!-- 17% -->
    <g transform="translate(392.903959 1582.536259)scale(0.0579 -0.0579)">
     <defs>
      <path id="DejaVuSans-31" d="M 794 531 
L 1825 531 
L 1825 4091 
L 703 3866 
L 703 4441 
L 1819 4666 
L 2450 4666 
L 2450 531 
L 3481 531 
L 3481 0 
L 794 0 
L 794 531 
z
" transform="scale(0.015625)"/>
      <path id="DejaVuSans-37" d="M 525 4666 
L 3525 4666 
L 3525 4397 
L 1831 0 
L 1172 0 
L 2766 4134 
L 525 4134 
L 525 4666 
z
" transform="scale(0.015625)"/>
      <path id="DejaVuSans-25" d="M 4653 2053 
Q 4381 2053 4226 1822 
Q 4072 1591 4072 1178 
Q 4072 772 4226 539 
Q 4381 306 4653 306 
Q 4919 306 5073 539 
Q 5228 772 5228 1178 
Q 5228 1588 5073 1820 
Q 4919 2053 4653 2053 
z
M 4653 2450 
Q 5147 2450 5437 2106 
Q 5728 1763 5728 1178 
Q 5728 594 5436 251 
Q 5144 -91 4653 -91 
Q 4153 -91 3862 251 
Q 3572 594 3572 1178 
Q 3572 1766 3864 2108 
Q 4156 2450 4653 2450 
z
M 1428 4353 
Q 1159 4353 1004 4120 
Q 850 3888 850 3481 
Q 850 3069 1003 2837 
Q 1156 2606 1428 2606 
Q 1700 2606 1854 2837 
Q 2009 3069 2009 3481 
Q 2009 3884 1853 4118 
Q 1697 4353 1428 4353 
z
M 4250 4750 
L 4750 4750 
L 1831 -91 
L 1331 -91 
L 4250 4750 
z
M 1428 4750 
Q 1922 4750 2215 4408 
Q 2509 4066 2509 3481 
Q 2509 2891 2217 2550 
Q 1925 2209 1428 2209 
Q 931 2209 642 2551 
Q 353 2894 353 3481 
Q 353 4063 643 4406 
Q 934 4750 1428 4750 
z
" transform="scale(0.015625)"/>
     </defs>
     <use xlink:href="#DejaVuSans-31"/>
     <use xlink:href="#DejaVuSans-37" x="63.623047"/>
     <use xlink:href="#DejaVuSans-25" x="127.246094"/>
    </g>
   </g>
   <g id="text_3">
    <!-- Portugal -->
    <g transform="translate(576.903848 2121.838166)scale(0.0579 -0.0579)">
     <defs>
      <path id="DejaVuSans-50" d="M 1259 4147 
L 1259 2394 
L 2053 2394 
Q 2494 2394 2734 2622 
Q 2975 2850 2975 3272 
Q 2975 3691 2734 3919 
Q 2494 4147 2053 4147 
L 1259 4147 
z
M 628 4666 
L 2053 4666 
Q 2838 4666 3239 4311 
Q 3641 3956 3641 3272 
Q 3641 2581 3239 2228 
Q 2838 1875 2053 1875 
L 1259 1875 
L 1259 0 
L 628 0 
L 628 4666 
z
" transform="scale(0.015625)"/>
      <path id="DejaVuSans-6f" d="M 1959 3097 
Q 1497 3097 1228 2736 
Q 959 2375 959 1747 
Q 959 1119 1226 758 
Q 1494 397 1959 397 
Q 2419 397 2687 759 
Q 2956 1122 2956 1747 
Q 2956 2369 2687 2733 
Q 2419 3097 1959 3097 
z
M 1959 3584 
Q 2709 3584 3137 3096 
Q 3566 2609 3566 1747 
Q 3566 888 3137 398 
Q 2709 -91 1959 -91 
Q 1206 -91 779 398 
Q 353 888 353 1747 
Q 353 2609 779 3096 
Q 1206 3584 1959 3584 
z
" transform="scale(0.015625)"/>
      <path id="DejaVuSans-74" d="M 1172 4494 
L 1172 3500 
L 2356 3500 
L 2356 3053 
L 1172 3053 
L 1172 1153 
Q 1172 725 1289 603 
Q 1406 481 1766 481 
L 2356 481 
L 2356 0 
L 1766 0 
Q 1100 0 847 248 
Q 594 497 594 1153 
L 594 3053 
L 172 3053 
L 172 3500 
L 594 3500 
L 594 4494 
L 1172 4494 
z
" transform="scale(0.015625)"/>
      <path id="DejaVuSans-75" d="M 544 1381 
L 544 3500 
L 1119 3500 
L 1119 1403 
Q 1119 906 1312 657 
Q 1506 409 1894 409 
Q 2359 409 2629 706 
Q 2900 1003 2900 1516 
L 2900 3500 
L 3475 3500 
L 3475 0 
L 2900 0 
L 2900 538 
Q 2691 219 2414 64 
Q 2138 -91 1772 -91 
Q 1169 -91 856 284 
Q 544 659 544 1381 
z
M 1991 3584 
L 1991 3584 
z
" transform="scale(0.015625)"/>
      <path id="DejaVuSans-67" d="M 2906 1791 
Q 2906 2416 2648 2759 
Q 2391 3103 1925 3103 
Q 1463 3103 1205 2759 
Q 947 2416 947 1791 
Q 947 1169 1205 825 
Q 1463 481 1925 481 
Q 2391 481 2648 825 
Q 2906 1169 2906 1791 
z
M 3481 434 
Q 3481 -459 3084 -895 
Q 2688 -1331 1869 -1331 
Q 1566 -1331 1297 -1286 
Q 1028 -1241 775 -1147 
L 775 -588 
Q 1028 -725 1275 -790 
Q 1522 -856 1778 -856 
Q 2344 -856 2625 -561 
Q 2906 -266 2906 331 
L 2906 616 
Q 2728 306 2450 153 
Q 2172 0 1784 0 
Q 1141 0 747 490 
Q 353 981 353 1791 
Q 353 2603 747 3093 
Q 1141 3584 1784 3584 
Q 2172 3584 2450 3431 
Q 2728 3278 2906 2969 
L 2906 3500 
L 3481 3500 
L 3481 434 
z
" transform="scale(0.015625)"/>
      <path id="DejaVuSans-6c" d="M 603 4863 
L 1178 4863 
L 1178 0 
L 603 0 
L 603 4863 
z
" transform="scale(0.015625)"/>
     </defs>
     <use xlink:href="#DejaVuSans-50"/>
     <use xlink:href="#DejaVuSans-6f" x="56.677734"/>
     <use xlink:href="#DejaVuSans-72" x="117.859375"/>
     <use xlink:href="#DejaVuSans-74" x="158.972656"/>
     <use xlink:href="#DejaVuSans-75" x="198.181641"/>
     <use xlink:href="#DejaVuSans-67" x="261.560547"/>
     <use xlink:href="#DejaVuSans-61" x="325.037109"/>
     <use xlink:href="#DejaVuSans-6c" x="386.316406"/>
    </g>
   </g>
   <g id="text_4">
    <!-- 14% -->
    <g transform="translate(662.795757 1815.120855)scale(0.0579 -0.0579)">
     <defs>
      <path id="DejaVuSans-34" d="M 2419 4116 
L 825 1625 
L 2419 1625 
L 2419 4116 
z
M 2253 4666 
L 3047 4666 
L 3047 1625 
L 3713 1625 
L 3713 1100 
L 3047 1100 
L 3047 0 
L 2419 0 
L 2419 1100 
L 313 1100 
L 313 1709 
L 2253 4666 
z
" transform="scale(0.015625)"/>
     </defs>
     <use xlink:href="#DejaVuSans-31"/>
     <use xlink:href="#DejaVuSans-34" x="63.623047"/>
     <use xlink:href="#DejaVuSans-25" x="127.246094"/>
    </g>
   </g>
   <g id="text_5">
    <!-- Poland -->
    <g transform="translate(1127.420061 2027.089119)scale(0.0579 -0.0579)">
     <defs>
      <path id="DejaVuSans-64" d="M 2906 2969 
L 2906 4863 
L 3481 4863 
L 3481 0 
L 2906 0 
L 2906 525 
Q 2725 213 2448 61 
Q 2172 -91 1784 -91 
Q 1150 -91 751 415 
Q 353 922 353 1747 
Q 353 2572 751 3078 
Q 1150 3584 1784 3584 
Q 2172 3584 2448 3432 
Q 2725 3281 2906 2969 
z
M 947 1747 
Q 947 1113 1208 752 
Q 1469 391 1925 391 
Q 2381 391 2643 752 
Q 2906 1113 2906 1747 
Q 2906 2381 2643 2742 
Q 2381 3103 1925 3103 
Q 1469 3103 1208 2742 
Q 947 2381 947 1747 
z
" transform="scale(0.015625)"/>
     </defs>
     <use xlink:href="#DejaVuSans-50"/>
     <use xlink:href="#DejaVuSans-6f" x="56.677734"/>
     <use xlink:href="#DejaVuSans-6c" x="117.859375"/>
     <use xlink:href="#DejaVuSans-61" x="145.642578"/>
     <use xlink:href="#DejaVuSans-6e" x="206.921875"/>
     <use xlink:href="#DejaVuSans-64" x="270.300781"/>
    </g>
   </g>
   <g id="text_6">
    <!-- 11% -->
    <g transform="translate(949.999495 1763.439557)scale(0.0579 -0.0579)">
     <use xlink:href="#DejaVuSans-31"/>
     <use xlink:href="#DejaVuSans-31" x="63.623047"/>
     <use xlink:href="#DejaVuSans-25" x="127.246094"/>
    </g>
   </g>
   <g id="text_7">
    <!-- Canada -->
    <g transform="translate(1381.970805 1730.131326)scale(0.0579 -0.0579)">
     <defs>
      <path id="DejaVuSans-43" d="M 4122 4306 
L 4122 3641 
Q 3803 3938 3442 4084 
Q 3081 4231 2675 4231 
Q 1875 4231 1450 3742 
Q 1025 3253 1025 2328 
Q 1025 1406 1450 917 
Q 1875 428 2675 428 
Q 3081 428 3442 575 
Q 3803 722 4122 1019 
L 4122 359 
Q 3791 134 3420 21 
Q 3050 -91 2638 -91 
Q 1578 -91 968 557 
Q 359 1206 359 2328 
Q 359 3453 968 4101 
Q 1578 4750 2638 4750 
Q 3056 4750 3426 4639 
Q 3797 4528 4122 4306 
z
" transform="scale(0.015625)"/>
     </defs>
     <use xlink:href="#DejaVuSans-43"/>
     <use xlink:href="#DejaVuSans-61" x="69.824219"/>
     <use xlink:href="#DejaVuSans-6e" x="131.103516"/>
     <use xlink:href="#DejaVuSans-61" x="194.482422"/>
     <use xlink:href="#DejaVuSans-64" x="255.761719"/>
     <use xlink:href="#DejaVuSans-61" x="319.238281"/>
    </g>
   </g>
   <g id="text_8">
    <!-- 7% -->
    <g transform="translate(1090.687299 1601.462579)scale(0.0579 -0.0579)">
     <use xlink:href="#DejaVuSans-37"/>
     <use xlink:href="#DejaVuSans-25" x="63.623047"/>
    </g>
   </g>
   <g id="text_9">
    <!-- Croatia -->
    <g transform="translate(1442.484742 1458.579872)scale(0.0579 -0.0579)">
     <defs>
      <path id="DejaVuSans-69" d="M 603 3500 
L 1178 3500 
L 1178 0 
L 603 0 
L 603 3500 
z
M 603 4863 
L 1178 4863 
L 1178 4134 
L 603 4134 
L 603 4863 
z
" transform="scale(0.015625)"/>
     </defs>
     <use xlink:href="#DejaVuSans-43"/>
     <use xlink:href="#DejaVuSans-72" x="69.824219"/>
     <use xlink:href="#DejaVuSans-6f" x="108.6875"/>
     <use xlink:href="#DejaVuSans-61" x="169.869141"/>
     <use xlink:href="#DejaVuSans-74" x="231.148438"/>
     <use xlink:href="#DejaVuSans-69" x="270.357422"/>
     <use xlink:href="#DejaVuSans-61" x="298.140625"/>
    </g>
   </g>
   <g id="text_10">
    <!-- 6% -->
    <g transform="translate(1123.694901 1453.343604)scale(0.0579 -0.0579)">
     <defs>
      <path id="DejaVuSans-36" d="M 2113 2584 
Q 1688 2584 1439 2293 
Q 1191 2003 1191 1497 
Q 1191 994 1439 701 
Q 1688 409 2113 409 
Q 2538 409 2786 701 
Q 3034 994 3034 1497 
Q 3034 2003 2786 2293 
Q 2538 2584 2113 2584 
z
M 3366 4563 
L 3366 3988 
Q 3128 4100 2886 4159 
Q 2644 4219 2406 4219 
Q 1781 4219 1451 3797 
Q 1122 3375 1075 2522 
Q 1259 2794 1537 2939 
Q 1816 3084 2150 3084 
Q 2853 3084 3261 2657 
Q 3669 2231 3669 1497 
Q 3669 778 3244 343 
Q 2819 -91 2113 -91 
Q 1303 -91 875 529 
Q 447 1150 447 2328 
Q 447 3434 972 4092 
Q 1497 4750 2381 4750 
Q 2619 4750 2861 4703 
Q 3103 4656 3366 4563 
z
" transform="scale(0.015625)"/>
     </defs>
     <use xlink:href="#DejaVuSans-36"/>
     <use xlink:href="#DejaVuSans-25" x="63.623047"/>
    </g>
   </g>
   <g id="text_11">
    <!-- Malta -->
    <g transform="translate(1408.594594 1232.966185)scale(0.0579 -0.0579)">
     <defs>
      <path id="DejaVuSans-4d" d="M 628 4666 
L 1569 4666 
L 2759 1491 
L 3956 4666 
L 4897 4666 
L 4897 0 
L 4281 0 
L 4281 4097 
L 3078 897 
L 2444 897 
L 1241 4097 
L 1241 0 
L 628 0 
L 628 4666 
z
" transform="scale(0.015625)"/>
     </defs>
     <use xlink:href="#DejaVuSans-4d"/>
     <use xlink:href="#DejaVuSans-61" x="86.279297"/>
     <use xlink:href="#DejaVuSans-6c" x="147.558594"/>
     <use xlink:href="#DejaVuSans-74" x="175.341797"/>
     <use xlink:href="#DejaVuSans-61" x="214.550781"/>
    </g>
   </g>
   <g id="text_12">
    <!-- 5% -->
    <g transform="translate(1105.209365 1330.281593)scale(0.0579 -0.0579)">
     <defs>
      <path id="DejaVuSans-35" d="M 691 4666 
L 3169 4666 
L 3169 4134 
L 1269 4134 
L 1269 2991 
Q 1406 3038 1543 3061 
Q 1681 3084 1819 3084 
Q 2600 3084 3056 2656 
Q 3513 2228 3513 1497 
Q 3513 744 3044 326 
Q 2575 -91 1722 -91 
Q 1428 -91 1123 -41 
Q 819 9 494 109 
L 494 744 
Q 775 591 1075 516 
Q 1375 441 1709 441 
Q 2250 441 2565 725 
Q 2881 1009 2881 1497 
Q 2881 1984 2565 2268 
Q 2250 2553 1709 2553 
Q 1456 2553 1204 2497 
Q 953 2441 691 2322 
L 691 4666 
z
" transform="scale(0.015625)"/>
     </defs>
     <use xlink:href="#DejaVuSans-35"/>
     <use xlink:href="#DejaVuSans-25" x="63.623047"/>
    </g>
   </g>
   <g id="text_13">
    <!-- Jersey -->
    <g transform="translate(1324.253664 1060.272338)scale(0.0579 -0.0579)">
     <defs>
      <path id="DejaVuSans-4a" d="M 628 4666 
L 1259 4666 
L 1259 325 
Q 1259 -519 939 -900 
Q 619 -1281 -91 -1281 
L -331 -1281 
L -331 -750 
L -134 -750 
Q 284 -750 456 -515 
Q 628 -281 628 325 
L 628 4666 
z
" transform="scale(0.015625)"/>
      <path id="DejaVuSans-73" d="M 2834 3397 
L 2834 2853 
Q 2591 2978 2328 3040 
Q 2066 3103 1784 3103 
Q 1356 3103 1142 2972 
Q 928 2841 928 2578 
Q 928 2378 1081 2264 
Q 1234 2150 1697 2047 
L 1894 2003 
Q 2506 1872 2764 1633 
Q 3022 1394 3022 966 
Q 3022 478 2636 193 
Q 2250 -91 1575 -91 
Q 1294 -91 989 -36 
Q 684 19 347 128 
L 347 722 
Q 666 556 975 473 
Q 1284 391 1588 391 
Q 1994 391 2212 530 
Q 2431 669 2431 922 
Q 2431 1156 2273 1281 
Q 2116 1406 1581 1522 
L 1381 1569 
Q 847 1681 609 1914 
Q 372 2147 372 2553 
Q 372 3047 722 3315 
Q 1072 3584 1716 3584 
Q 2034 3584 2315 3537 
Q 2597 3491 2834 3397 
z
" transform="scale(0.015625)"/>
     </defs>
     <use xlink:href="#DejaVuSans-4a"/>
     <use xlink:href="#DejaVuSans-65" x="29.492188"/>
     <use xlink:href="#DejaVuSans-72" x="91.015625"/>
     <use xlink:href="#DejaVuSans-73" x="132.128906"/>
     <use xlink:href="#DejaVuSans-65" x="184.228516"/>
     <use xlink:href="#DejaVuSans-79" x="245.751953"/>
    </g>
   </g>
   <g id="text_14">
    <!-- 4% -->
    <g transform="translate(1059.205222 1236.084949)scale(0.0579 -0.0579)">
     <use xlink:href="#DejaVuSans-34"/>
     <use xlink:href="#DejaVuSans-25" x="63.623047"/>
    </g>
   </g>
   <g id="text_15">
    <!-- Switzerland -->
    <g transform="translate(1206.677341 926.941172)scale(0.0579 -0.0579)">
     <defs>
      <path id="DejaVuSans-53" d="M 3425 4513 
L 3425 3897 
Q 3066 4069 2747 4153 
Q 2428 4238 2131 4238 
Q 1616 4238 1336 4038 
Q 1056 3838 1056 3469 
Q 1056 3159 1242 3001 
Q 1428 2844 1947 2747 
L 2328 2669 
Q 3034 2534 3370 2195 
Q 3706 1856 3706 1288 
Q 3706 609 3251 259 
Q 2797 -91 1919 -91 
Q 1588 -91 1214 -16 
Q 841 59 441 206 
L 441 856 
Q 825 641 1194 531 
Q 1563 422 1919 422 
Q 2459 422 2753 634 
Q 3047 847 3047 1241 
Q 3047 1584 2836 1778 
Q 2625 1972 2144 2069 
L 1759 2144 
Q 1053 2284 737 2584 
Q 422 2884 422 3419 
Q 422 4038 858 4394 
Q 1294 4750 2059 4750 
Q 2388 4750 2728 4690 
Q 3069 4631 3425 4513 
z
" transform="scale(0.015625)"/>
      <path id="DejaVuSans-77" d="M 269 3500 
L 844 3500 
L 1563 769 
L 2278 3500 
L 2956 3500 
L 3675 769 
L 4391 3500 
L 4966 3500 
L 4050 0 
L 3372 0 
L 2619 2869 
L 1863 0 
L 1184 0 
L 269 3500 
z
" transform="scale(0.015625)"/>
      <path id="DejaVuSans-7a" d="M 353 3500 
L 3084 3500 
L 3084 2975 
L 922 459 
L 3084 459 
L 3084 0 
L 275 0 
L 275 525 
L 2438 3041 
L 353 3041 
L 353 3500 
z
" transform="scale(0.015625)"/>
     </defs>
     <use xlink:href="#DejaVuSans-53"/>
     <use xlink:href="#DejaVuSans-77" x="63.476562"/>
     <use xlink:href="#DejaVuSans-69" x="145.263672"/>
     <use xlink:href="#DejaVuSans-74" x="173.046875"/>
     <use xlink:href="#DejaVuSans-7a" x="212.255859"/>
     <use xlink:href="#DejaVuSans-65" x="264.746094"/>
     <use xlink:href="#DejaVuSans-72" x="326.269531"/>
     <use xlink:href="#DejaVuSans-6c" x="367.382812"/>
     <use xlink:href="#DejaVuSans-61" x="395.166016"/>
     <use xlink:href="#DejaVuSans-6e" x="456.445312"/>
     <use xlink:href="#DejaVuSans-64" x="519.824219"/>
    </g>
   </g>
   <g id="text_16">
    <!-- 4% -->
    <g transform="translate(995.072682 1163.358859)scale(0.0579 -0.0579)">
     <use xlink:href="#DejaVuSans-34"/>
     <use xlink:href="#DejaVuSans-25" x="63.623047"/>
    </g>
   </g>
   <g id="text_17">
    <!-- Tunisia -->
    <g transform="translate(1068.722307 832.935644)scale(0.0579 -0.0579)">
     <defs>
      <path id="DejaVuSans-54" d="M -19 4666 
L 3928 4666 
L 3928 4134 
L 2272 4134 
L 2272 0 
L 1638 0 
L 1638 4134 
L -19 4134 
L -19 4666 
z
" transform="scale(0.015625)"/>
     </defs>
     <use xlink:href="#DejaVuSans-54"/>
     <use xlink:href="#DejaVuSans-75" x="45.958984"/>
     <use xlink:href="#DejaVuSans-6e" x="109.337891"/>
     <use xlink:href="#DejaVuSans-69" x="172.716797"/>
     <use xlink:href="#DejaVuSans-73" x="200.5"/>
     <use xlink:href="#DejaVuSans-69" x="252.599609"/>
     <use xlink:href="#DejaVuSans-61" x="280.382812"/>
    </g>
   </g>
   <g id="text_18">
    <!-- 4% -->
    <g transform="translate(919.824482 1112.083116)scale(0.0579 -0.0579)">
     <use xlink:href="#DejaVuSans-34"/>
     <use xlink:href="#DejaVuSans-25" x="63.623047"/>
    </g>
   </g>
   <g id="text_19">
    <!-- Czech Republic -->
    <g transform="translate(940.40802 782.111588)scale(0.0579 -0.0579)">
     <defs>
      <path id="DejaVuSans-63" d="M 3122 3366 
L 3122 2828 
Q 2878 2963 2633 3030 
Q 2388 3097 2138 3097 
Q 1578 3097 1268 2742 
Q 959 2388 959 1747 
Q 959 1106 1268 751 
Q 1578 397 2138 397 
Q 2388 397 2633 464 
Q 2878 531 3122 666 
L 3122 134 
Q 2881 22 2623 -34 
Q 2366 -91 2075 -91 
Q 1284 -91 818 406 
Q 353 903 353 1747 
Q 353 2603 823 3093 
Q 1294 3584 2113 3584 
Q 2378 3584 2631 3529 
Q 2884 3475 3122 3366 
z
" transform="scale(0.015625)"/>
      <path id="DejaVuSans-68" d="M 3513 2113 
L 3513 0 
L 2938 0 
L 2938 2094 
Q 2938 2591 2744 2837 
Q 2550 3084 2163 3084 
Q 1697 3084 1428 2787 
Q 1159 2491 1159 1978 
L 1159 0 
L 581 0 
L 581 4863 
L 1159 4863 
L 1159 2956 
Q 1366 3272 1645 3428 
Q 1925 3584 2291 3584 
Q 2894 3584 3203 3211 
Q 3513 2838 3513 2113 
z
" transform="scale(0.015625)"/>
      <path id="DejaVuSans-20" transform="scale(0.015625)"/>
      <path id="DejaVuSans-52" d="M 2841 2188 
Q 3044 2119 3236 1894 
Q 3428 1669 3622 1275 
L 4263 0 
L 3584 0 
L 2988 1197 
Q 2756 1666 2539 1819 
Q 2322 1972 1947 1972 
L 1259 1972 
L 1259 0 
L 628 0 
L 628 4666 
L 2053 4666 
Q 2853 4666 3247 4331 
Q 3641 3997 3641 3322 
Q 3641 2881 3436 2590 
Q 3231 2300 2841 2188 
z
M 1259 4147 
L 1259 2491 
L 2053 2491 
Q 2509 2491 2742 2702 
Q 2975 2913 2975 3322 
Q 2975 3731 2742 3939 
Q 2509 4147 2053 4147 
L 1259 4147 
z
" transform="scale(0.015625)"/>
      <path id="DejaVuSans-70" d="M 1159 525 
L 1159 -1331 
L 581 -1331 
L 581 3500 
L 1159 3500 
L 1159 2969 
Q 1341 3281 1617 3432 
Q 1894 3584 2278 3584 
Q 2916 3584 3314 3078 
Q 3713 2572 3713 1747 
Q 3713 922 3314 415 
Q 2916 -91 2278 -91 
Q 1894 -91 1617 61 
Q 1341 213 1159 525 
z
M 3116 1747 
Q 3116 2381 2855 2742 
Q 2594 3103 2138 3103 
Q 1681 3103 1420 2742 
Q 1159 2381 1159 1747 
Q 1159 1113 1420 752 
Q 1681 391 2138 391 
Q 2594 391 2855 752 
Q 3116 1113 3116 1747 
z
" transform="scale(0.015625)"/>
      <path id="DejaVuSans-62" d="M 3116 1747 
Q 3116 2381 2855 2742 
Q 2594 3103 2138 3103 
Q 1681 3103 1420 2742 
Q 1159 2381 1159 1747 
Q 1159 1113 1420 752 
Q 1681 391 2138 391 
Q 2594 391 2855 752 
Q 3116 1113 3116 1747 
z
M 1159 2969 
Q 1341 3281 1617 3432 
Q 1894 3584 2278 3584 
Q 2916 3584 3314 3078 
Q 3713 2572 3713 1747 
Q 3713 922 3314 415 
Q 2916 -91 2278 -91 
Q 1894 -91 1617 61 
Q 1341 213 1159 525 
L 1159 0 
L 581 0 
L 581 4863 
L 1159 4863 
L 1159 2969 
z
" transform="scale(0.015625)"/>
     </defs>
     <use xlink:href="#DejaVuSans-43"/>
     <use xlink:href="#DejaVuSans-7a" x="69.824219"/>
     <use xlink:href="#DejaVuSans-65" x="122.314453"/>
     <use xlink:href="#DejaVuSans-63" x="183.837891"/>
     <use xlink:href="#DejaVuSans-68" x="238.818359"/>
     <use xlink:href="#DejaVuSans-20" x="302.197266"/>
     <use xlink:href="#DejaVuSans-52" x="333.984375"/>
     <use xlink:href="#DejaVuSans-65" x="398.966797"/>
     <use xlink:href="#DejaVuSans-70" x="460.490234"/>
     <use xlink:href="#DejaVuSans-75" x="523.966797"/>
     <use xlink:href="#DejaVuSans-62" x="587.345703"/>
     <use xlink:href="#DejaVuSans-6c" x="650.822266"/>
     <use xlink:href="#DejaVuSans-69" x="678.605469"/>
     <use xlink:href="#DejaVuSans-63" x="706.388672"/>
    </g>
   </g>
   <g id="text_20">
    <!-- 3% -->
    <g transform="translate(849.834871 1084.360903)scale(0.0579 -0.0579)">
     <defs>
      <path id="DejaVuSans-33" d="M 2597 2516 
Q 3050 2419 3304 2112 
Q 3559 1806 3559 1356 
Q 3559 666 3084 287 
Q 2609 -91 1734 -91 
Q 1441 -91 1130 -33 
Q 819 25 488 141 
L 488 750 
Q 750 597 1062 519 
Q 1375 441 1716 441 
Q 2309 441 2620 675 
Q 2931 909 2931 1356 
Q 2931 1769 2642 2001 
Q 2353 2234 1838 2234 
L 1294 2234 
L 1294 2753 
L 1863 2753 
Q 2328 2753 2575 2939 
Q 2822 3125 2822 3475 
Q 2822 3834 2567 4026 
Q 2313 4219 1838 4219 
Q 1578 4219 1281 4162 
Q 984 4106 628 3988 
L 628 4550 
Q 988 4650 1302 4700 
Q 1616 4750 1894 4750 
Q 2613 4750 3031 4423 
Q 3450 4097 3450 3541 
Q 3450 3153 3228 2886 
Q 3006 2619 2597 2516 
z
" transform="scale(0.015625)"/>
     </defs>
     <use xlink:href="#DejaVuSans-33"/>
     <use xlink:href="#DejaVuSans-25" x="63.623047"/>
    </g>
   </g>
   <g id="text_21">
    <!-- Mexico -->
    <g transform="translate(833.516525 760.642366)scale(0.0579 -0.0579)">
     <defs>
      <path id="DejaVuSans-78" d="M 3513 3500 
L 2247 1797 
L 3578 0 
L 2900 0 
L 1881 1375 
L 863 0 
L 184 0 
L 1544 1831 
L 300 3500 
L 978 3500 
L 1906 2253 
L 2834 3500 
L 3513 3500 
z
" transform="scale(0.015625)"/>
     </defs>
     <use xlink:href="#DejaVuSans-4d"/>
     <use xlink:href="#DejaVuSans-65" x="86.279297"/>
     <use xlink:href="#DejaVuSans-78" x="146.052734"/>
     <use xlink:href="#DejaVuSans-69" x="205.232422"/>
     <use xlink:href="#DejaVuSans-63" x="233.015625"/>
     <use xlink:href="#DejaVuSans-6f" x="287.996094"/>
    </g>
   </g>
   <g id="text_22">
    <!-- 2% -->
    <g transform="translate(791.530419 1072.650419)scale(0.0579 -0.0579)">
     <defs>
      <path id="DejaVuSans-32" d="M 1228 531 
L 3431 531 
L 3431 0 
L 469 0 
L 469 531 
Q 828 903 1448 1529 
Q 2069 2156 2228 2338 
Q 2531 2678 2651 2914 
Q 2772 3150 2772 3378 
Q 2772 3750 2511 3984 
Q 2250 4219 1831 4219 
Q 1534 4219 1204 4116 
Q 875 4013 500 3803 
L 500 4441 
Q 881 4594 1212 4672 
Q 1544 4750 1819 4750 
Q 2544 4750 2975 4387 
Q 3406 4025 3406 3419 
Q 3406 3131 3298 2873 
Q 3191 2616 2906 2266 
Q 2828 2175 2409 1742 
Q 1991 1309 1228 531 
z
" transform="scale(0.015625)"/>
     </defs>
     <use xlink:href="#DejaVuSans-32"/>
     <use xlink:href="#DejaVuSans-25" x="63.623047"/>
    </g>
   </g>
   <g id="text_23">
    <!-- Guernsey -->
    <g transform="translate(715.089942 755.782382)scale(0.0579 -0.0579)">
     <use xlink:href="#DejaVuSans-47"/>
     <use xlink:href="#DejaVuSans-75" x="77.490234"/>
     <use xlink:href="#DejaVuSans-65" x="140.869141"/>
     <use xlink:href="#DejaVuSans-72" x="202.392578"/>
     <use xlink:href="#DejaVuSans-6e" x="241.755859"/>
     <use xlink:href="#DejaVuSans-73" x="305.134766"/>
     <use xlink:href="#DejaVuSans-65" x="357.234375"/>
     <use xlink:href="#DejaVuSans-79" x="418.757812"/>
    </g>
   </g>
   <g id="text_24">
    <!-- 2% -->
    <g transform="translate(742.028236 1069.999518)scale(0.0579 -0.0579)">
     <use xlink:href="#DejaVuSans-32"/>
     <use xlink:href="#DejaVuSans-25" x="63.623047"/>
    </g>
   </g>
   <g id="text_25">
    <!-- Austria -->
    <g transform="translate(642.515196 761.39026)scale(0.0579 -0.0579)">
     <defs>
      <path id="DejaVuSans-41" d="M 2188 4044 
L 1331 1722 
L 3047 1722 
L 2188 4044 
z
M 1831 4666 
L 2547 4666 
L 4325 0 
L 3669 0 
L 3244 1197 
L 1141 1197 
L 716 0 
L 50 0 
L 1831 4666 
z
" transform="scale(0.015625)"/>
     </defs>
     <use xlink:href="#DejaVuSans-41"/>
     <use xlink:href="#DejaVuSans-75" x="68.408203"/>
     <use xlink:href="#DejaVuSans-73" x="131.787109"/>
     <use xlink:href="#DejaVuSans-74" x="183.886719"/>
     <use xlink:href="#DejaVuSans-72" x="223.095703"/>
     <use xlink:href="#DejaVuSans-69" x="264.208984"/>
     <use xlink:href="#DejaVuSans-61" x="291.992188"/>
    </g>
   </g>
   <g id="text_26">
    <!-- 2% -->
    <g transform="translate(698.504153 1073.058361)scale(0.0579 -0.0579)">
     <use xlink:href="#DejaVuSans-32"/>
     <use xlink:href="#DejaVuSans-25" x="63.623047"/>
    </g>
   </g>
   <g id="text_27">
    <!-- Romania -->
    <g transform="translate(559.036644 776.177794)scale(0.0579 -0.0579)">
     <use xlink:href="#DejaVuSans-52"/>
     <use xlink:href="#DejaVuSans-6f" x="64.982422"/>
     <use xlink:href="#DejaVuSans-6d" x="126.164062"/>
     <use xlink:href="#DejaVuSans-61" x="223.576172"/>
     <use xlink:href="#DejaVuSans-6e" x="284.855469"/>
     <use xlink:href="#DejaVuSans-69" x="348.234375"/>
     <use xlink:href="#DejaVuSans-61" x="376.017578"/>
    </g>
   </g>
   <g id="text_28">
    <!-- 2% -->
    <g transform="translate(655.62475 1081.124289)scale(0.0579 -0.0579)">
     <use xlink:href="#DejaVuSans-32"/>
     <use xlink:href="#DejaVuSans-25" x="63.623047"/>
    </g>
   </g>
   <g id="text_29">
    <!-- Iceland -->
    <g transform="translate(490.430733 798.675802)scale(0.0579 -0.0579)">
     <defs>
      <path id="DejaVuSans-49" d="M 628 4666 
L 1259 4666 
L 1259 0 
L 628 0 
L 628 4666 
z
" transform="scale(0.015625)"/>
     </defs>
     <use xlink:href="#DejaVuSans-49"/>
     <use xlink:href="#DejaVuSans-63" x="29.492188"/>
     <use xlink:href="#DejaVuSans-65" x="84.472656"/>
     <use xlink:href="#DejaVuSans-6c" x="145.996094"/>
     <use xlink:href="#DejaVuSans-61" x="173.779297"/>
     <use xlink:href="#DejaVuSans-6e" x="235.058594"/>
     <use xlink:href="#DejaVuSans-64" x="298.4375"/>
    </g>
   </g>
   <g id="text_30">
    <!-- 2% -->
    <g transform="translate(615.823358 1093.39593)scale(0.0579 -0.0579)">
     <use xlink:href="#DejaVuSans-32"/>
     <use xlink:href="#DejaVuSans-25" x="63.623047"/>
    </g>
   </g>
   <g id="text_31">
    <!-- Lithuania -->
    <g transform="translate(417.782554 827.461619)scale(0.0579 -0.0579)">
     <defs>
      <path id="DejaVuSans-4c" d="M 628 4666 
L 1259 4666 
L 1259 531 
L 3531 531 
L 3531 0 
L 628 0 
L 628 4666 
z
" transform="scale(0.015625)"/>
     </defs>
     <use xlink:href="#DejaVuSans-4c"/>
     <use xlink:href="#DejaVuSans-69" x="55.712891"/>
     <use xlink:href="#DejaVuSans-74" x="83.496094"/>
     <use xlink:href="#DejaVuSans-68" x="122.705078"/>
     <use xlink:href="#DejaVuSans-75" x="186.083984"/>
     <use xlink:href="#DejaVuSans-61" x="249.462891"/>
     <use xlink:href="#DejaVuSans-6e" x="310.742188"/>
     <use xlink:href="#DejaVuSans-69" x="374.121094"/>
     <use xlink:href="#DejaVuSans-61" x="401.904297"/>
    </g>
   </g>
   <g id="text_32">
    <!-- 2% -->
    <g transform="translate(579.394245 1109.097284)scale(0.0579 -0.0579)">
     <use xlink:href="#DejaVuSans-32"/>
     <use xlink:href="#DejaVuSans-25" x="63.623047"/>
    </g>
   </g>
   <g id="text_33">
    <!-- Bulgaria -->
    <g transform="translate(357.195735 863.10422)scale(0.0579 -0.0579)">
     <defs>
      <path id="DejaVuSans-42" d="M 1259 2228 
L 1259 519 
L 2272 519 
Q 2781 519 3026 730 
Q 3272 941 3272 1375 
Q 3272 1813 3026 2020 
Q 2781 2228 2272 2228 
L 1259 2228 
z
M 1259 4147 
L 1259 2741 
L 2194 2741 
Q 2656 2741 2882 2914 
Q 3109 3088 3109 3444 
Q 3109 3797 2882 3972 
Q 2656 4147 2194 4147 
L 1259 4147 
z
M 628 4666 
L 2241 4666 
Q 2963 4666 3353 4366 
Q 3744 4066 3744 3513 
Q 3744 3084 3544 2831 
Q 3344 2578 2956 2516 
Q 3422 2416 3680 2098 
Q 3938 1781 3938 1306 
Q 3938 681 3513 340 
Q 3088 0 2303 0 
L 628 0 
L 628 4666 
z
" transform="scale(0.015625)"/>
     </defs>
     <use xlink:href="#DejaVuSans-42"/>
     <use xlink:href="#DejaVuSans-75" x="68.603516"/>
     <use xlink:href="#DejaVuSans-6c" x="131.982422"/>
     <use xlink:href="#DejaVuSans-67" x="159.765625"/>
     <use xlink:href="#DejaVuSans-61" x="223.242188"/>
     <use xlink:href="#DejaVuSans-72" x="284.521484"/>
     <use xlink:href="#DejaVuSans-69" x="325.634766"/>
     <use xlink:href="#DejaVuSans-61" x="353.417969"/>
    </g>
   </g>
   <g id="text_34">
    <!-- 2% -->
    <g transform="translate(544.816157 1128.538703)scale(0.0579 -0.0579)">
     <use xlink:href="#DejaVuSans-32"/>
     <use xlink:href="#DejaVuSans-25" x="63.623047"/>
    </g>
   </g>
   <g id="text_35">
    <!-- Cape Verde -->
    <g transform="translate(291.504549 902.957354)scale(0.0579 -0.0579)">
     <defs>
      <path id="DejaVuSans-56" d="M 1831 0 
L 50 4666 
L 709 4666 
L 2188 738 
L 3669 4666 
L 4325 4666 
L 2547 0 
L 1831 0 
z
" transform="scale(0.015625)"/>
     </defs>
     <use xlink:href="#DejaVuSans-43"/>
     <use xlink:href="#DejaVuSans-61" x="69.824219"/>
     <use xlink:href="#DejaVuSans-70" x="131.103516"/>
     <use xlink:href="#DejaVuSans-65" x="194.580078"/>
     <use xlink:href="#DejaVuSans-20" x="256.103516"/>
     <use xlink:href="#DejaVuSans-56" x="287.890625"/>
     <use xlink:href="#DejaVuSans-65" x="348.548828"/>
     <use xlink:href="#DejaVuSans-72" x="410.072266"/>
     <use xlink:href="#DejaVuSans-64" x="449.435547"/>
     <use xlink:href="#DejaVuSans-65" x="512.912109"/>
    </g>
   </g>
   <g id="text_36">
    <!-- 2% -->
    <g transform="translate(514.030291 1150.276776)scale(0.0579 -0.0579)">
     <use xlink:href="#DejaVuSans-32"/>
     <use xlink:href="#DejaVuSans-25" x="63.623047"/>
    </g>
   </g>
   <g id="text_37">
    <!-- Pakistan -->
    <g transform="translate(256.275682 940.751039)scale(0.0579 -0.0579)">
     <defs>
      <path id="DejaVuSans-6b" d="M 581 4863 
L 1159 4863 
L 1159 1991 
L 2875 3500 
L 3609 3500 
L 1753 1863 
L 3688 0 
L 2938 0 
L 1159 1709 
L 1159 0 
L 581 0 
L 581 4863 
z
" transform="scale(0.015625)"/>
     </defs>
     <use xlink:href="#DejaVuSans-50"/>
     <use xlink:href="#DejaVuSans-61" x="55.802734"/>
     <use xlink:href="#DejaVuSans-6b" x="117.082031"/>
     <use xlink:href="#DejaVuSans-69" x="174.992188"/>
     <use xlink:href="#DejaVuSans-73" x="202.775391"/>
     <use xlink:href="#DejaVuSans-74" x="254.875"/>
     <use xlink:href="#DejaVuSans-61" x="294.083984"/>
     <use xlink:href="#DejaVuSans-6e" x="355.363281"/>
    </g>
   </g>
   <g id="text_38">
    <!-- 1% -->
    <g transform="translate(489.895677 1170.891513)scale(0.0579 -0.0579)">
     <use xlink:href="#DejaVuSans-31"/>
     <use xlink:href="#DejaVuSans-25" x="63.623047"/>
    </g>
   </g>
   <g id="text_39">
    <!-- Latvia -->
    <g transform="translate(226.90139 976.772889)scale(0.0579 -0.0579)">
     <defs>
      <path id="DejaVuSans-76" d="M 191 3500 
L 800 3500 
L 1894 563 
L 2988 3500 
L 3597 3500 
L 2284 0 
L 1503 0 
L 191 3500 
z
" transform="scale(0.015625)"/>
     </defs>
     <use xlink:href="#DejaVuSans-4c"/>
     <use xlink:href="#DejaVuSans-61" x="55.712891"/>
     <use xlink:href="#DejaVuSans-74" x="116.992188"/>
     <use xlink:href="#DejaVuSans-76" x="156.201172"/>
     <use xlink:href="#DejaVuSans-69" x="215.380859"/>
     <use xlink:href="#DejaVuSans-61" x="243.164062"/>
    </g>
   </g>
   <g id="text_40">
    <!-- 1% -->
    <g transform="translate(470.264619 1190.539795)scale(0.0579 -0.0579)">
     <use xlink:href="#DejaVuSans-31"/>
     <use xlink:href="#DejaVuSans-25" x="63.623047"/>
    </g>
   </g>
   <g id="text_41">
    <!-- Slovakia -->
    <g transform="translate(189.255595 1012.510656)scale(0.0579 -0.0579)">
     <use xlink:href="#DejaVuSans-53"/>
     <use xlink:href="#DejaVuSans-6c" x="63.476562"/>
     <use xlink:href="#DejaVuSans-6f" x="91.259766"/>
     <use xlink:href="#DejaVuSans-76" x="152.441406"/>
     <use xlink:href="#DejaVuSans-61" x="211.621094"/>
     <use xlink:href="#DejaVuSans-6b" x="272.900391"/>
     <use xlink:href="#DejaVuSans-69" x="330.810547"/>
     <use xlink:href="#DejaVuSans-61" x="358.59375"/>
    </g>
   </g>
   <g id="text_42">
    <!-- 1% -->
    <g transform="translate(453.376276 1210.033122)scale(0.0579 -0.0579)">
     <use xlink:href="#DejaVuSans-31"/>
     <use xlink:href="#DejaVuSans-25" x="63.623047"/>
    </g>
   </g>
   <g id="text_43">
    <!-- Israel -->
    <g transform="translate(171.39254 1047.307642)scale(0.0579 -0.0579)">
     <use xlink:href="#DejaVuSans-49"/>
     <use xlink:href="#DejaVuSans-73" x="29.492188"/>
     <use xlink:href="#DejaVuSans-72" x="81.591797"/>
     <use xlink:href="#DejaVuSans-61" x="122.705078"/>
     <use xlink:href="#DejaVuSans-65" x="183.984375"/>
     <use xlink:href="#DejaVuSans-6c" x="245.507812"/>
    </g>
   </g>
   <g id="text_44">
    <!-- 1% -->
    <g transform="translate(439.003094 1229.013297)scale(0.0579 -0.0579)">
     <use xlink:href="#DejaVuSans-31"/>
     <use xlink:href="#DejaVuSans-25" x="63.623047"/>
    </g>
   </g>
   <g id="text_45">
    <!-- Mauritius -->
    <g transform="translate(140.204659 1077.528493)scale(0.0579 -0.0579)">
     <use xlink:href="#DejaVuSans-4d"/>
     <use xlink:href="#DejaVuSans-61" x="86.279297"/>
     <use xlink:href="#DejaVuSans-75" x="147.558594"/>
     <use xlink:href="#DejaVuSans-72" x="210.9375"/>
     <use xlink:href="#DejaVuSans-69" x="252.050781"/>
     <use xlink:href="#DejaVuSans-74" x="279.833984"/>
     <use xlink:href="#DejaVuSans-69" x="319.042969"/>
     <use xlink:href="#DejaVuSans-75" x="346.826172"/>
     <use xlink:href="#DejaVuSans-73" x="410.205078"/>
    </g>
   </g>
   <g id="text_46">
    <!-- 1% -->
    <g transform="translate(427.959992 1245.497397)scale(0.0579 -0.0579)">
     <use xlink:href="#DejaVuSans-31"/>
     <use xlink:href="#DejaVuSans-25" x="63.623047"/>
    </g>
   </g>
   <g id="text_47">
    <!-- Saint Lucia -->
    <g transform="translate(120.189939 1102.445892)scale(0.0579 -0.0579)">
     <use xlink:href="#DejaVuSans-53"/>
     <use xlink:href="#DejaVuSans-61" x="63.476562"/>
     <use xlink:href="#DejaVuSans-69" x="124.755859"/>
     <use xlink:href="#DejaVuSans-6e" x="152.539062"/>
     <use xlink:href="#DejaVuSans-74" x="215.917969"/>
     <use xlink:href="#DejaVuSans-20" x="255.126953"/>
     <use xlink:href="#DejaVuSans-4c" x="286.914062"/>
     <use xlink:href="#DejaVuSans-75" x="340.876953"/>
     <use xlink:href="#DejaVuSans-63" x="404.255859"/>
     <use xlink:href="#DejaVuSans-69" x="459.236328"/>
     <use xlink:href="#DejaVuSans-61" x="487.019531"/>
    </g>
   </g>
   <g id="text_48">
    <!-- 1% -->
    <g transform="translate(419.759402 1259.088706)scale(0.0579 -0.0579)">
     <use xlink:href="#DejaVuSans-31"/>
     <use xlink:href="#DejaVuSans-25" x="63.623047"/>
    </g>
   </g>
   <g id="text_49">
    <!-- Luxembourg -->
    <g transform="translate(101.878635 1127.973952)scale(0.0579 -0.0579)">
     <use xlink:href="#DejaVuSans-4c"/>
     <use xlink:href="#DejaVuSans-75" x="53.962891"/>
     <use xlink:href="#DejaVuSans-78" x="117.341797"/>
     <use xlink:href="#DejaVuSans-65" x="173.396484"/>
     <use xlink:href="#DejaVuSans-6d" x="234.919922"/>
     <use xlink:href="#DejaVuSans-62" x="332.332031"/>
     <use xlink:href="#DejaVuSans-6f" x="395.808594"/>
     <use xlink:href="#DejaVuSans-75" x="456.990234"/>
     <use xlink:href="#DejaVuSans-72" x="520.369141"/>
     <use xlink:href="#DejaVuSans-67" x="559.732422"/>
    </g>
   </g>
   <g id="text_50">
    <!-- 1% -->
    <g transform="translate(412.138081 1273.013102)scale(0.0579 -0.0579)">
     <use xlink:href="#DejaVuSans-31"/>
     <use xlink:href="#DejaVuSans-25" x="63.623047"/>
    </g>
   </g>
   <g id="text_51">
    <!-- Singapore -->
    <g transform="translate(95.869495 1154.067436)scale(0.0579 -0.0579)">
     <use xlink:href="#DejaVuSans-53"/>
     <use xlink:href="#DejaVuSans-69" x="63.476562"/>
     <use xlink:href="#DejaVuSans-6e" x="91.259766"/>
     <use xlink:href="#DejaVuSans-67" x="154.638672"/>
     <use xlink:href="#DejaVuSans-61" x="218.115234"/>
     <use xlink:href="#DejaVuSans-70" x="279.394531"/>
     <use xlink:href="#DejaVuSans-6f" x="342.871094"/>
     <use xlink:href="#DejaVuSans-72" x="404.052734"/>
     <use xlink:href="#DejaVuSans-65" x="442.916016"/>
    </g>
   </g>
   <g id="text_52">
    <!-- 1% -->
    <g transform="translate(405.109534 1287.245912)scale(0.0579 -0.0579)">
     <use xlink:href="#DejaVuSans-31"/>
     <use xlink:href="#DejaVuSans-25" x="63.623047"/>
    </g>
   </g>
   <g id="text_53">
    <!-- Estonia -->
    <g transform="translate(93.399217 1177.326734)scale(0.0579 -0.0579)">
     <defs>
      <path id="DejaVuSans-45" d="M 628 4666 
L 3578 4666 
L 3578 4134 
L 1259 4134 
L 1259 2753 
L 3481 2753 
L 3481 2222 
L 1259 2222 
L 1259 531 
L 3634 531 
L 3634 0 
L 628 0 
L 628 4666 
z
" transform="scale(0.015625)"/>
     </defs>
     <use xlink:href="#DejaVuSans-45"/>
     <use xlink:href="#DejaVuSans-73" x="63.183594"/>
     <use xlink:href="#DejaVuSans-74" x="115.283203"/>
     <use xlink:href="#DejaVuSans-6f" x="154.492188"/>
     <use xlink:href="#DejaVuSans-6e" x="215.673828"/>
     <use xlink:href="#DejaVuSans-69" x="279.052734"/>
     <use xlink:href="#DejaVuSans-61" x="306.835938"/>
    </g>
   </g>
   <g id="text_54">
    <!-- 1% -->
    <g transform="translate(399.455632 1299.932802)scale(0.0579 -0.0579)">
     <use xlink:href="#DejaVuSans-31"/>
     <use xlink:href="#DejaVuSans-25" x="63.623047"/>
    </g>
   </g>
   <g id="text_55">
    <!-- Dominican Republic -->
    <g transform="translate(48.999409 1197.555759)scale(0.0579 -0.0579)">
     <defs>
      <path id="DejaVuSans-44" d="M 1259 4147 
L 1259 519 
L 2022 519 
Q 2988 519 3436 956 
Q 3884 1394 3884 2338 
Q 3884 3275 3436 3711 
Q 2988 4147 2022 4147 
L 1259 4147 
z
M 628 4666 
L 1925 4666 
Q 3281 4666 3915 4102 
Q 4550 3538 4550 2338 
Q 4550 1131 3912 565 
Q 3275 0 1925 0 
L 628 0 
L 628 4666 
z
" transform="scale(0.015625)"/>
     </defs>
     <use xlink:href="#DejaVuSans-44"/>
     <use xlink:href="#DejaVuSans-6f" x="77.001953"/>
     <use xlink:href="#DejaVuSans-6d" x="138.183594"/>
     <use xlink:href="#DejaVuSans-69" x="235.595703"/>
     <use xlink:href="#DejaVuSans-6e" x="263.378906"/>
     <use xlink:href="#DejaVuSans-69" x="326.757812"/>
     <use xlink:href="#DejaVuSans-63" x="354.541016"/>
     <use xlink:href="#DejaVuSans-61" x="409.521484"/>
     <use xlink:href="#DejaVuSans-6e" x="470.800781"/>
     <use xlink:href="#DejaVuSans-20" x="534.179688"/>
     <use xlink:href="#DejaVuSans-52" x="565.966797"/>
     <use xlink:href="#DejaVuSans-65" x="630.949219"/>
     <use xlink:href="#DejaVuSans-70" x="692.472656"/>
     <use xlink:href="#DejaVuSans-75" x="755.949219"/>
     <use xlink:href="#DejaVuSans-62" x="819.328125"/>
     <use xlink:href="#DejaVuSans-6c" x="882.804688"/>
     <use xlink:href="#DejaVuSans-69" x="910.587891"/>
     <use xlink:href="#DejaVuSans-63" x="938.371094"/>
    </g>
   </g>
   <g id="text_56">
    <!-- 1% -->
    <g transform="translate(394.984087 1310.966815)scale(0.0579 -0.0579)">
     <use xlink:href="#DejaVuSans-31"/>
     <use xlink:href="#DejaVuSans-25" x="63.623047"/>
    </g>
   </g>
   <g id="text_57">
    <!-- Libya -->
    <g transform="translate(83.474235 1218.033495)scale(0.0579 -0.0579)">
     <use xlink:href="#DejaVuSans-4c"/>
     <use xlink:href="#DejaVuSans-69" x="55.712891"/>
     <use xlink:href="#DejaVuSans-62" x="83.496094"/>
     <use xlink:href="#DejaVuSans-79" x="146.972656"/>
     <use xlink:href="#DejaVuSans-61" x="206.152344"/>
    </g>
   </g>
   <g id="text_58">
    <!-- 1% -->
    <g transform="translate(390.863098 1322.136489)scale(0.0579 -0.0579)">
     <use xlink:href="#DejaVuSans-31"/>
     <use xlink:href="#DejaVuSans-25" x="63.623047"/>
    </g>
   </g>
   <g id="text_59">
    <!-- Kenya -->
    <g transform="translate(74.340157 1238.739529)scale(0.0579 -0.0579)">
     <defs>
      <path id="DejaVuSans-4b" d="M 628 4666 
L 1259 4666 
L 1259 2694 
L 3353 4666 
L 4166 4666 
L 1850 2491 
L 4331 0 
L 3500 0 
L 1259 2247 
L 1259 0 
L 628 0 
L 628 4666 
z
" transform="scale(0.015625)"/>
     </defs>
     <use xlink:href="#DejaVuSans-4b"/>
     <use xlink:href="#DejaVuSans-65" x="60.576172"/>
     <use xlink:href="#DejaVuSans-6e" x="122.099609"/>
     <use xlink:href="#DejaVuSans-79" x="185.478516"/>
     <use xlink:href="#DejaVuSans-61" x="244.658203"/>
    </g>
   </g>
   <g id="text_60">
    <!-- 1% -->
    <g transform="translate(387.096774 1333.43069)scale(0.0579 -0.0579)">
     <use xlink:href="#DejaVuSans-31"/>
     <use xlink:href="#DejaVuSans-25" x="63.623047"/>
    </g>
   </g>
   <g id="text_61">
    <!-- Montenegro -->
    <g transform="translate(52.061511 1256.154068)scale(0.0579 -0.0579)">
     <use xlink:href="#DejaVuSans-4d"/>
     <use xlink:href="#DejaVuSans-6f" x="86.279297"/>
     <use xlink:href="#DejaVuSans-6e" x="147.460938"/>
     <use xlink:href="#DejaVuSans-74" x="210.839844"/>
     <use xlink:href="#DejaVuSans-65" x="250.048828"/>
     <use xlink:href="#DejaVuSans-6e" x="311.572266"/>
     <use xlink:href="#DejaVuSans-65" x="374.951172"/>
     <use xlink:href="#DejaVuSans-67" x="436.474609"/>
     <use xlink:href="#DejaVuSans-72" x="499.951172"/>
     <use xlink:href="#DejaVuSans-6f" x="538.814453"/>
    </g>
   </g>
   <g id="text_62">
    <!-- 0% -->
    <g transform="translate(384.231814 1342.929529)scale(0.0579 -0.0579)">
     <defs>
      <path id="DejaVuSans-30" d="M 2034 4250 
Q 1547 4250 1301 3770 
Q 1056 3291 1056 2328 
Q 1056 1369 1301 889 
Q 1547 409 2034 409 
Q 2525 409 2770 889 
Q 3016 1369 3016 2328 
Q 3016 3291 2770 3770 
Q 2525 4250 2034 4250 
z
M 2034 4750 
Q 2819 4750 3233 4129 
Q 3647 3509 3647 2328 
Q 3647 1150 3233 529 
Q 2819 -91 2034 -91 
Q 1250 -91 836 529 
Q 422 1150 422 2328 
Q 422 3509 836 4129 
Q 1250 4750 2034 4750 
z
" transform="scale(0.015625)"/>
     </defs>
     <use xlink:href="#DejaVuSans-30"/>
     <use xlink:href="#DejaVuSans-25" x="63.623047"/>
    </g>
   </g>
   <g id="text_63">
    <!-- Macedonia -->
    <g transform="translate(52.536768 1266.667002)scale(0.0579 -0.0579)">
     <use xlink:href="#DejaVuSans-4d"/>
     <use xlink:href="#DejaVuSans-61" x="86.279297"/>
     <use xlink:href="#DejaVuSans-63" x="147.558594"/>
     <use xlink:href="#DejaVuSans-65" x="202.539062"/>
     <use xlink:href="#DejaVuSans-64" x="264.0625"/>
     <use xlink:href="#DejaVuSans-6f" x="327.539062"/>
     <use xlink:href="#DejaVuSans-6e" x="388.720703"/>
     <use xlink:href="#DejaVuSans-69" x="452.099609"/>
     <use xlink:href="#DejaVuSans-61" x="479.882812"/>
    </g>
   </g>
   <g id="text_64">
    <!-- 0% -->
    <g transform="translate(382.633146 1348.663856)scale(0.0579 -0.0579)">
     <use xlink:href="#DejaVuSans-30"/>
     <use xlink:href="#DejaVuSans-25" x="63.623047"/>
    </g>
   </g>
   <g id="text_65">
    <!-- Philippines -->
    <g transform="translate(50.815426 1273.700763)scale(0.0579 -0.0579)">
     <use xlink:href="#DejaVuSans-50"/>
     <use xlink:href="#DejaVuSans-68" x="60.302734"/>
     <use xlink:href="#DejaVuSans-69" x="123.681641"/>
     <use xlink:href="#DejaVuSans-6c" x="151.464844"/>
     <use xlink:href="#DejaVuSans-69" x="179.248047"/>
     <use xlink:href="#DejaVuSans-70" x="207.03125"/>
     <use xlink:href="#DejaVuSans-70" x="270.507812"/>
     <use xlink:href="#DejaVuSans-69" x="333.984375"/>
     <use xlink:href="#DejaVuSans-6e" x="361.767578"/>
     <use xlink:href="#DejaVuSans-65" x="425.146484"/>
     <use xlink:href="#DejaVuSans-73" x="486.669922"/>
    </g>
   </g>
   <g id="text_66">
    <!-- 0% -->
    <g transform="translate(381.617745 1352.500453)scale(0.0579 -0.0579)">
     <use xlink:href="#DejaVuSans-30"/>
     <use xlink:href="#DejaVuSans-25" x="63.623047"/>
    </g>
   </g>
   <g id="text_67">
    <!-- Bahamas -->
    <g transform="translate(53.280019 1280.753726)scale(0.0579 -0.0579)">
     <use xlink:href="#DejaVuSans-42"/>
     <use xlink:href="#DejaVuSans-61" x="68.603516"/>
     <use xlink:href="#DejaVuSans-68" x="129.882812"/>
     <use xlink:href="#DejaVuSans-61" x="193.261719"/>
     <use xlink:href="#DejaVuSans-6d" x="254.541016"/>
     <use xlink:href="#DejaVuSans-61" x="351.953125"/>
     <use xlink:href="#DejaVuSans-73" x="413.232422"/>
    </g>
   </g>
   <g id="text_68">
    <!-- 0% -->
    <g transform="translate(380.642778 1356.347524)scale(0.0579 -0.0579)">
     <use xlink:href="#DejaVuSans-30"/>
     <use xlink:href="#DejaVuSans-25" x="63.623047"/>
    </g>
   </g>
   <g id="text_69">
    <!-- Uzbekistan -->
    <g transform="translate(46.529607 1287.825111)scale(0.0579 -0.0579)">
     <defs>
      <path id="DejaVuSans-55" d="M 556 4666 
L 1191 4666 
L 1191 1831 
Q 1191 1081 1462 751 
Q 1734 422 2344 422 
Q 2950 422 3222 751 
Q 3494 1081 3494 1831 
L 3494 4666 
L 4128 4666 
L 4128 1753 
Q 4128 841 3676 375 
Q 3225 -91 2344 -91 
Q 1459 -91 1007 375 
Q 556 841 556 1753 
L 556 4666 
z
" transform="scale(0.015625)"/>
     </defs>
     <use xlink:href="#DejaVuSans-55"/>
     <use xlink:href="#DejaVuSans-7a" x="73.193359"/>
     <use xlink:href="#DejaVuSans-62" x="125.683594"/>
     <use xlink:href="#DejaVuSans-65" x="189.160156"/>
     <use xlink:href="#DejaVuSans-6b" x="250.683594"/>
     <use xlink:href="#DejaVuSans-69" x="308.59375"/>
     <use xlink:href="#DejaVuSans-73" x="336.376953"/>
     <use xlink:href="#DejaVuSans-74" x="388.476562"/>
     <use xlink:href="#DejaVuSans-61" x="427.685547"/>
     <use xlink:href="#DejaVuSans-6e" x="488.964844"/>
    </g>
   </g>
   <g id="text_70">
    <!-- 0% -->
    <g transform="translate(379.708354 1360.204643)scale(0.0579 -0.0579)">
     <use xlink:href="#DejaVuSans-30"/>
     <use xlink:href="#DejaVuSans-25" x="63.623047"/>
    </g>
   </g>
   <g id="text_71">
    <!-- Trinidad and Tobago -->
    <g transform="translate(18.911101 1294.914133)scale(0.0579 -0.0579)">
     <use xlink:href="#DejaVuSans-54"/>
     <use xlink:href="#DejaVuSans-72" x="46.333984"/>
     <use xlink:href="#DejaVuSans-69" x="87.447266"/>
     <use xlink:href="#DejaVuSans-6e" x="115.230469"/>
     <use xlink:href="#DejaVuSans-69" x="178.609375"/>
     <use xlink:href="#DejaVuSans-64" x="206.392578"/>
     <use xlink:href="#DejaVuSans-61" x="269.869141"/>
     <use xlink:href="#DejaVuSans-64" x="331.148438"/>
     <use xlink:href="#DejaVuSans-20" x="394.625"/>
     <use xlink:href="#DejaVuSans-61" x="426.412109"/>
     <use xlink:href="#DejaVuSans-6e" x="487.691406"/>
     <use xlink:href="#DejaVuSans-64" x="551.070312"/>
     <use xlink:href="#DejaVuSans-20" x="614.546875"/>
     <use xlink:href="#DejaVuSans-54" x="646.333984"/>
     <use xlink:href="#DejaVuSans-6f" x="690.417969"/>
     <use xlink:href="#DejaVuSans-62" x="751.599609"/>
     <use xlink:href="#DejaVuSans-61" x="815.076172"/>
     <use xlink:href="#DejaVuSans-67" x="876.355469"/>
     <use xlink:href="#DejaVuSans-6f" x="939.832031"/>
    </g>
   </g>
   <g id="text_72">
    <!-- 0% -->
    <g transform="translate(378.814575 1364.071383)scale(0.0579 -0.0579)">
     <use xlink:href="#DejaVuSans-30"/>
     <use xlink:href="#DejaVuSans-25" x="63.623047"/>
    </g>
   </g>
   <g id="text_73">
    <!-- Albania -->
    <g transform="translate(53.687597 1302.020008)scale(0.0579 -0.0579)">
     <use xlink:href="#DejaVuSans-41"/>
     <use xlink:href="#DejaVuSans-6c" x="68.408203"/>
     <use xlink:href="#DejaVuSans-62" x="96.191406"/>
     <use xlink:href="#DejaVuSans-61" x="159.667969"/>
     <use xlink:href="#DejaVuSans-6e" x="220.947266"/>
     <use xlink:href="#DejaVuSans-69" x="284.326172"/>
     <use xlink:href="#DejaVuSans-61" x="312.109375"/>
    </g>
   </g>
   <g id="text_74">
    <!-- 0% -->
    <g transform="translate(377.96154 1367.947315)scale(0.0579 -0.0579)">
     <use xlink:href="#DejaVuSans-30"/>
     <use xlink:href="#DejaVuSans-25" x="63.623047"/>
    </g>
   </g>
   <g id="text_75">
    <!-- Maldives -->
    <g transform="translate(48.375363 1309.141949)scale(0.0579 -0.0579)">
     <use xlink:href="#DejaVuSans-4d"/>
     <use xlink:href="#DejaVuSans-61" x="86.279297"/>
     <use xlink:href="#DejaVuSans-6c" x="147.558594"/>
     <use xlink:href="#DejaVuSans-64" x="175.341797"/>
     <use xlink:href="#DejaVuSans-69" x="238.818359"/>
     <use xlink:href="#DejaVuSans-76" x="266.601562"/>
     <use xlink:href="#DejaVuSans-65" x="325.78125"/>
     <use xlink:href="#DejaVuSans-73" x="387.304688"/>
    </g>
   </g>
   <g id="text_76">
    <!-- 0% -->
    <g transform="translate(377.149345 1371.832009)scale(0.0579 -0.0579)">
     <use xlink:href="#DejaVuSans-30"/>
     <use xlink:href="#DejaVuSans-25" x="63.623047"/>
    </g>
   </g>
   <g id="text_77">
    <!-- Belarus -->
    <g transform="translate(50.646168 1316.279166)scale(0.0579 -0.0579)">
     <use xlink:href="#DejaVuSans-42"/>
     <use xlink:href="#DejaVuSans-65" x="68.603516"/>
     <use xlink:href="#DejaVuSans-6c" x="130.126953"/>
     <use xlink:href="#DejaVuSans-61" x="157.910156"/>
     <use xlink:href="#DejaVuSans-72" x="219.189453"/>
     <use xlink:href="#DejaVuSans-75" x="260.302734"/>
     <use xlink:href="#DejaVuSans-73" x="323.681641"/>
    </g>
   </g>
   <g id="text_78">
    <!-- 0% -->
    <g transform="translate(376.378079 1375.725037)scale(0.0579 -0.0579)">
     <use xlink:href="#DejaVuSans-30"/>
     <use xlink:href="#DejaVuSans-25" x="63.623047"/>
    </g>
   </g>
   <g id="text_79">
    <!-- Oman -->
    <g transform="translate(53.649873 1323.430869)scale(0.0579 -0.0579)">
     <defs>
      <path id="DejaVuSans-4f" d="M 2522 4238 
Q 1834 4238 1429 3725 
Q 1025 3213 1025 2328 
Q 1025 1447 1429 934 
Q 1834 422 2522 422 
Q 3209 422 3611 934 
Q 4013 1447 4013 2328 
Q 4013 3213 3611 3725 
Q 3209 4238 2522 4238 
z
M 2522 4750 
Q 3503 4750 4090 4092 
Q 4678 3434 4678 2328 
Q 4678 1225 4090 567 
Q 3503 -91 2522 -91 
Q 1538 -91 948 565 
Q 359 1222 359 2328 
Q 359 3434 948 4092 
Q 1538 4750 2522 4750 
z
" transform="scale(0.015625)"/>
     </defs>
     <use xlink:href="#DejaVuSans-4f"/>
     <use xlink:href="#DejaVuSans-6d" x="78.710938"/>
     <use xlink:href="#DejaVuSans-61" x="176.123047"/>
     <use xlink:href="#DejaVuSans-6e" x="237.402344"/>
    </g>
   </g>
   <g id="text_80">
    <!-- 0% -->
    <g transform="translate(375.647827 1379.625966)scale(0.0579 -0.0579)">
     <use xlink:href="#DejaVuSans-30"/>
     <use xlink:href="#DejaVuSans-25" x="63.623047"/>
    </g>
   </g>
   <g id="text_81">
    <!-- United Kingdom OutBound OutBound Flight distribution -->
    <g transform="translate(579.49895 20.8)scale(0.12 -0.12)">
     <defs>
      <path id="DejaVuSans-46" d="M 628 4666 
L 3309 4666 
L 3309 4134 
L 1259 4134 
L 1259 2759 
L 3109 2759 
L 3109 2228 
L 1259 2228 
L 1259 0 
L 628 0 
L 628 4666 
z
" transform="scale(0.015625)"/>
     </defs>
     <use xlink:href="#DejaVuSans-55"/>
     <use xlink:href="#DejaVuSans-6e" x="73.193359"/>
     <use xlink:href="#DejaVuSans-69" x="136.572266"/>
     <use xlink:href="#DejaVuSans-74" x="164.355469"/>
     <use xlink:href="#DejaVuSans-65" x="203.564453"/>
     <use xlink:href="#DejaVuSans-64" x="265.087891"/>
     <use xlink:href="#DejaVuSans-20" x="328.564453"/>
     <use xlink:href="#DejaVuSans-4b" x="360.351562"/>
     <use xlink:href="#DejaVuSans-69" x="425.927734"/>
     <use xlink:href="#DejaVuSans-6e" x="453.710938"/>
     <use xlink:href="#DejaVuSans-67" x="517.089844"/>
     <use xlink:href="#DejaVuSans-64" x="580.566406"/>
     <use xlink:href="#DejaVuSans-6f" x="644.042969"/>
     <use xlink:href="#DejaVuSans-6d" x="705.224609"/>
     <use xlink:href="#DejaVuSans-20" x="802.636719"/>
     <use xlink:href="#DejaVuSans-4f" x="834.423828"/>
     <use xlink:href="#DejaVuSans-75" x="913.134766"/>
     <use xlink:href="#DejaVuSans-74" x="976.513672"/>
     <use xlink:href="#DejaVuSans-42" x="1015.722656"/>
     <use xlink:href="#DejaVuSans-6f" x="1084.326172"/>
     <use xlink:href="#DejaVuSans-75" x="1145.507812"/>
     <use xlink:href="#DejaVuSans-6e" x="1208.886719"/>
     <use xlink:href="#DejaVuSans-64" x="1272.265625"/>
     <use xlink:href="#DejaVuSans-20" x="1335.742188"/>
     <use xlink:href="#DejaVuSans-4f" x="1367.529297"/>
     <use xlink:href="#DejaVuSans-75" x="1446.240234"/>
     <use xlink:href="#DejaVuSans-74" x="1509.619141"/>
     <use xlink:href="#DejaVuSans-42" x="1548.828125"/>
     <use xlink:href="#DejaVuSans-6f" x="1617.431641"/>
     <use xlink:href="#DejaVuSans-75" x="1678.613281"/>
     <use xlink:href="#DejaVuSans-6e" x="1741.992188"/>
     <use xlink:href="#DejaVuSans-64" x="1805.371094"/>
     <use xlink:href="#DejaVuSans-20" x="1868.847656"/>
     <use xlink:href="#DejaVuSans-46" x="1900.634766"/>
     <use xlink:href="#DejaVuSans-6c" x="1958.154297"/>
     <use xlink:href="#DejaVuSans-69" x="1985.9375"/>
     <use xlink:href="#DejaVuSans-67" x="2013.720703"/>
     <use xlink:href="#DejaVuSans-68" x="2077.197266"/>
     <use xlink:href="#DejaVuSans-74" x="2140.576172"/>
     <use xlink:href="#DejaVuSans-20" x="2179.785156"/>
     <use xlink:href="#DejaVuSans-64" x="2211.572266"/>
     <use xlink:href="#DejaVuSans-69" x="2275.048828"/>
     <use xlink:href="#DejaVuSans-73" x="2302.832031"/>
     <use xlink:href="#DejaVuSans-74" x="2354.931641"/>
     <use xlink:href="#DejaVuSans-72" x="2394.140625"/>
     <use xlink:href="#DejaVuSans-69" x="2435.253906"/>
     <use xlink:href="#DejaVuSans-62" x="2463.037109"/>
     <use xlink:href="#DejaVuSans-75" x="2526.513672"/>
     <use xlink:href="#DejaVuSans-74" x="2589.892578"/>
     <use xlink:href="#DejaVuSans-69" x="2629.101562"/>
     <use xlink:href="#DejaVuSans-6f" x="2656.884766"/>
     <use xlink:href="#DejaVuSans-6e" x="2718.066406"/>
    </g>
   </g>
  </g>
  <g id="axes_2">
   <g id="legend_1">
    <g id="patch_42">
     <path d="M 1481.610233 1743.0625 
L 1613.713358 1743.0625 
Q 1615.713358 1743.0625 1615.713358 1741.0625 
L 1615.713358 1154.9375 
Q 1615.713358 1152.9375 1613.713358 1152.9375 
L 1481.610233 1152.9375 
Q 1479.610233 1152.9375 1479.610233 1154.9375 
L 1479.610233 1741.0625 
Q 1479.610233 1743.0625 1481.610233 1743.0625 
z
" style="fill: #ffffff; opacity: 0.8; stroke: #cccccc; stroke-linejoin: miter"/>
    </g>
    <g id="patch_43">
     <path d="M 1483.610233 1164.535937 
L 1503.610233 1164.535937 
L 1503.610233 1157.535937 
L 1483.610233 1157.535937 
z
" style="fill: #8000ff"/>
    </g>
    <g id="text_82">
     <!-- Germany -->
     <g transform="translate(1511.610233 1164.535937)scale(0.1 -0.1)">
      <use xlink:href="#DejaVuSans-47"/>
      <use xlink:href="#DejaVuSans-65" x="77.490234"/>
      <use xlink:href="#DejaVuSans-72" x="139.013672"/>
      <use xlink:href="#DejaVuSans-6d" x="178.376953"/>
      <use xlink:href="#DejaVuSans-61" x="275.789062"/>
      <use xlink:href="#DejaVuSans-6e" x="337.068359"/>
      <use xlink:href="#DejaVuSans-79" x="400.447266"/>
     </g>
    </g>
    <g id="patch_44">
     <path d="M 1483.610233 1179.214062 
L 1503.610233 1179.214062 
L 1503.610233 1172.214062 
L 1483.610233 1172.214062 
z
" style="fill: #7413ff"/>
    </g>
    <g id="text_83">
     <!-- Portugal -->
     <g transform="translate(1511.610233 1179.214062)scale(0.1 -0.1)">
      <use xlink:href="#DejaVuSans-50"/>
      <use xlink:href="#DejaVuSans-6f" x="56.677734"/>
      <use xlink:href="#DejaVuSans-72" x="117.859375"/>
      <use xlink:href="#DejaVuSans-74" x="158.972656"/>
      <use xlink:href="#DejaVuSans-75" x="198.181641"/>
      <use xlink:href="#DejaVuSans-67" x="261.560547"/>
      <use xlink:href="#DejaVuSans-61" x="325.037109"/>
      <use xlink:href="#DejaVuSans-6c" x="386.316406"/>
     </g>
    </g>
    <g id="patch_45">
     <path d="M 1483.610233 1193.892187 
L 1503.610233 1193.892187 
L 1503.610233 1186.892187 
L 1483.610233 1186.892187 
z
" style="fill: #6826fe"/>
    </g>
    <g id="text_84">
     <!-- Poland -->
     <g transform="translate(1511.610233 1193.892187)scale(0.1 -0.1)">
      <use xlink:href="#DejaVuSans-50"/>
      <use xlink:href="#DejaVuSans-6f" x="56.677734"/>
      <use xlink:href="#DejaVuSans-6c" x="117.859375"/>
      <use xlink:href="#DejaVuSans-61" x="145.642578"/>
      <use xlink:href="#DejaVuSans-6e" x="206.921875"/>
      <use xlink:href="#DejaVuSans-64" x="270.300781"/>
     </g>
    </g>
    <g id="patch_46">
     <path d="M 1483.610233 1208.570312 
L 1503.610233 1208.570312 
L 1503.610233 1201.570312 
L 1483.610233 1201.570312 
z
" style="fill: #5a3bfd"/>
    </g>
    <g id="text_85">
     <!-- Canada -->
     <g transform="translate(1511.610233 1208.570312)scale(0.1 -0.1)">
      <use xlink:href="#DejaVuSans-43"/>
      <use xlink:href="#DejaVuSans-61" x="69.824219"/>
      <use xlink:href="#DejaVuSans-6e" x="131.103516"/>
      <use xlink:href="#DejaVuSans-61" x="194.482422"/>
      <use xlink:href="#DejaVuSans-64" x="255.761719"/>
      <use xlink:href="#DejaVuSans-61" x="319.238281"/>
     </g>
    </g>
    <g id="patch_47">
     <path d="M 1483.610233 1223.248437 
L 1503.610233 1223.248437 
L 1503.610233 1216.248437 
L 1483.610233 1216.248437 
z
" style="fill: #4e4dfc"/>
    </g>
    <g id="text_86">
     <!-- Croatia -->
     <g transform="translate(1511.610233 1223.248437)scale(0.1 -0.1)">
      <use xlink:href="#DejaVuSans-43"/>
      <use xlink:href="#DejaVuSans-72" x="69.824219"/>
      <use xlink:href="#DejaVuSans-6f" x="108.6875"/>
      <use xlink:href="#DejaVuSans-61" x="169.869141"/>
      <use xlink:href="#DejaVuSans-74" x="231.148438"/>
      <use xlink:href="#DejaVuSans-69" x="270.357422"/>
      <use xlink:href="#DejaVuSans-61" x="298.140625"/>
     </g>
    </g>
    <g id="patch_48">
     <path d="M 1483.610233 1237.926562 
L 1503.610233 1237.926562 
L 1503.610233 1230.926562 
L 1483.610233 1230.926562 
z
" style="fill: #4062fa"/>
    </g>
    <g id="text_87">
     <!-- Malta -->
     <g transform="translate(1511.610233 1237.926562)scale(0.1 -0.1)">
      <use xlink:href="#DejaVuSans-4d"/>
      <use xlink:href="#DejaVuSans-61" x="86.279297"/>
      <use xlink:href="#DejaVuSans-6c" x="147.558594"/>
      <use xlink:href="#DejaVuSans-74" x="175.341797"/>
      <use xlink:href="#DejaVuSans-61" x="214.550781"/>
     </g>
    </g>
    <g id="patch_49">
     <path d="M 1483.610233 1252.604687 
L 1503.610233 1252.604687 
L 1503.610233 1245.604687 
L 1483.610233 1245.604687 
z
" style="fill: #3473f8"/>
    </g>
    <g id="text_88">
     <!-- Jersey -->
     <g transform="translate(1511.610233 1252.604687)scale(0.1 -0.1)">
      <use xlink:href="#DejaVuSans-4a"/>
      <use xlink:href="#DejaVuSans-65" x="29.492188"/>
      <use xlink:href="#DejaVuSans-72" x="91.015625"/>
      <use xlink:href="#DejaVuSans-73" x="132.128906"/>
      <use xlink:href="#DejaVuSans-65" x="184.228516"/>
      <use xlink:href="#DejaVuSans-79" x="245.751953"/>
     </g>
    </g>
    <g id="patch_50">
     <path d="M 1483.610233 1267.282812 
L 1503.610233 1267.282812 
L 1503.610233 1260.282812 
L 1483.610233 1260.282812 
z
" style="fill: #2884f6"/>
    </g>
    <g id="text_89">
     <!-- Switzerland -->
     <g transform="translate(1511.610233 1267.282812)scale(0.1 -0.1)">
      <use xlink:href="#DejaVuSans-53"/>
      <use xlink:href="#DejaVuSans-77" x="63.476562"/>
      <use xlink:href="#DejaVuSans-69" x="145.263672"/>
      <use xlink:href="#DejaVuSans-74" x="173.046875"/>
      <use xlink:href="#DejaVuSans-7a" x="212.255859"/>
      <use xlink:href="#DejaVuSans-65" x="264.746094"/>
      <use xlink:href="#DejaVuSans-72" x="326.269531"/>
      <use xlink:href="#DejaVuSans-6c" x="367.382812"/>
      <use xlink:href="#DejaVuSans-61" x="395.166016"/>
      <use xlink:href="#DejaVuSans-6e" x="456.445312"/>
      <use xlink:href="#DejaVuSans-64" x="519.824219"/>
     </g>
    </g>
    <g id="patch_51">
     <path d="M 1483.610233 1281.960937 
L 1503.610233 1281.960937 
L 1503.610233 1274.960937 
L 1483.610233 1274.960937 
z
" style="fill: #1996f3"/>
    </g>
    <g id="text_90">
     <!-- Tunisia -->
     <g transform="translate(1511.610233 1281.960937)scale(0.1 -0.1)">
      <use xlink:href="#DejaVuSans-54"/>
      <use xlink:href="#DejaVuSans-75" x="45.958984"/>
      <use xlink:href="#DejaVuSans-6e" x="109.337891"/>
      <use xlink:href="#DejaVuSans-69" x="172.716797"/>
      <use xlink:href="#DejaVuSans-73" x="200.5"/>
      <use xlink:href="#DejaVuSans-69" x="252.599609"/>
      <use xlink:href="#DejaVuSans-61" x="280.382812"/>
     </g>
    </g>
    <g id="patch_52">
     <path d="M 1483.610233 1296.639062 
L 1503.610233 1296.639062 
L 1503.610233 1289.639062 
L 1483.610233 1289.639062 
z
" style="fill: #0ea5ef"/>
    </g>
    <g id="text_91">
     <!-- Czech Republic -->
     <g transform="translate(1511.610233 1296.639062)scale(0.1 -0.1)">
      <use xlink:href="#DejaVuSans-43"/>
      <use xlink:href="#DejaVuSans-7a" x="69.824219"/>
      <use xlink:href="#DejaVuSans-65" x="122.314453"/>
      <use xlink:href="#DejaVuSans-63" x="183.837891"/>
      <use xlink:href="#DejaVuSans-68" x="238.818359"/>
      <use xlink:href="#DejaVuSans-20" x="302.197266"/>
      <use xlink:href="#DejaVuSans-52" x="333.984375"/>
      <use xlink:href="#DejaVuSans-65" x="398.966797"/>
      <use xlink:href="#DejaVuSans-70" x="460.490234"/>
      <use xlink:href="#DejaVuSans-75" x="523.966797"/>
      <use xlink:href="#DejaVuSans-62" x="587.345703"/>
      <use xlink:href="#DejaVuSans-6c" x="650.822266"/>
      <use xlink:href="#DejaVuSans-69" x="678.605469"/>
      <use xlink:href="#DejaVuSans-63" x="706.388672"/>
     </g>
    </g>
    <g id="patch_53">
     <path d="M 1483.610233 1311.317187 
L 1503.610233 1311.317187 
L 1503.610233 1304.317187 
L 1483.610233 1304.317187 
z
" style="fill: #00b5eb"/>
    </g>
    <g id="text_92">
     <!-- Mexico -->
     <g transform="translate(1511.610233 1311.317187)scale(0.1 -0.1)">
      <use xlink:href="#DejaVuSans-4d"/>
      <use xlink:href="#DejaVuSans-65" x="86.279297"/>
      <use xlink:href="#DejaVuSans-78" x="146.052734"/>
      <use xlink:href="#DejaVuSans-69" x="205.232422"/>
      <use xlink:href="#DejaVuSans-63" x="233.015625"/>
      <use xlink:href="#DejaVuSans-6f" x="287.996094"/>
     </g>
    </g>
    <g id="patch_54">
     <path d="M 1483.610233 1325.995312 
L 1503.610233 1325.995312 
L 1503.610233 1318.995312 
L 1483.610233 1318.995312 
z
" style="fill: #0dc2e8"/>
    </g>
    <g id="text_93">
     <!-- Guernsey -->
     <g transform="translate(1511.610233 1325.995312)scale(0.1 -0.1)">
      <use xlink:href="#DejaVuSans-47"/>
      <use xlink:href="#DejaVuSans-75" x="77.490234"/>
      <use xlink:href="#DejaVuSans-65" x="140.869141"/>
      <use xlink:href="#DejaVuSans-72" x="202.392578"/>
      <use xlink:href="#DejaVuSans-6e" x="241.755859"/>
      <use xlink:href="#DejaVuSans-73" x="305.134766"/>
      <use xlink:href="#DejaVuSans-65" x="357.234375"/>
      <use xlink:href="#DejaVuSans-79" x="418.757812"/>
     </g>
    </g>
    <g id="patch_55">
     <path d="M 1483.610233 1340.673437 
L 1503.610233 1340.673437 
L 1503.610233 1333.673437 
L 1483.610233 1333.673437 
z
" style="fill: #18cde4"/>
    </g>
    <g id="text_94">
     <!-- Austria -->
     <g transform="translate(1511.610233 1340.673437)scale(0.1 -0.1)">
      <use xlink:href="#DejaVuSans-41"/>
      <use xlink:href="#DejaVuSans-75" x="68.408203"/>
      <use xlink:href="#DejaVuSans-73" x="131.787109"/>
      <use xlink:href="#DejaVuSans-74" x="183.886719"/>
      <use xlink:href="#DejaVuSans-72" x="223.095703"/>
      <use xlink:href="#DejaVuSans-69" x="264.208984"/>
      <use xlink:href="#DejaVuSans-61" x="291.992188"/>
     </g>
    </g>
    <g id="patch_56">
     <path d="M 1483.610233 1355.351562 
L 1503.610233 1355.351562 
L 1503.610233 1348.351562 
L 1483.610233 1348.351562 
z
" style="fill: #27dade"/>
    </g>
    <g id="text_95">
     <!-- Romania -->
     <g transform="translate(1511.610233 1355.351562)scale(0.1 -0.1)">
      <use xlink:href="#DejaVuSans-52"/>
      <use xlink:href="#DejaVuSans-6f" x="64.982422"/>
      <use xlink:href="#DejaVuSans-6d" x="126.164062"/>
      <use xlink:href="#DejaVuSans-61" x="223.576172"/>
      <use xlink:href="#DejaVuSans-6e" x="284.855469"/>
      <use xlink:href="#DejaVuSans-69" x="348.234375"/>
      <use xlink:href="#DejaVuSans-61" x="376.017578"/>
     </g>
    </g>
    <g id="patch_57">
     <path d="M 1483.610233 1370.029687 
L 1503.610233 1370.029687 
L 1503.610233 1363.029687 
L 1483.610233 1363.029687 
z
" style="fill: #32e3da"/>
    </g>
    <g id="text_96">
     <!-- Iceland -->
     <g transform="translate(1511.610233 1370.029687)scale(0.1 -0.1)">
      <use xlink:href="#DejaVuSans-49"/>
      <use xlink:href="#DejaVuSans-63" x="29.492188"/>
      <use xlink:href="#DejaVuSans-65" x="84.472656"/>
      <use xlink:href="#DejaVuSans-6c" x="145.996094"/>
      <use xlink:href="#DejaVuSans-61" x="173.779297"/>
      <use xlink:href="#DejaVuSans-6e" x="235.058594"/>
      <use xlink:href="#DejaVuSans-64" x="298.4375"/>
     </g>
    </g>
    <g id="patch_58">
     <path d="M 1483.610233 1384.707812 
L 1503.610233 1384.707812 
L 1503.610233 1377.707812 
L 1483.610233 1377.707812 
z
" style="fill: #40ecd4"/>
    </g>
    <g id="text_97">
     <!-- Lithuania -->
     <g transform="translate(1511.610233 1384.707812)scale(0.1 -0.1)">
      <use xlink:href="#DejaVuSans-4c"/>
      <use xlink:href="#DejaVuSans-69" x="55.712891"/>
      <use xlink:href="#DejaVuSans-74" x="83.496094"/>
      <use xlink:href="#DejaVuSans-68" x="122.705078"/>
      <use xlink:href="#DejaVuSans-75" x="186.083984"/>
      <use xlink:href="#DejaVuSans-61" x="249.462891"/>
      <use xlink:href="#DejaVuSans-6e" x="310.742188"/>
      <use xlink:href="#DejaVuSans-69" x="374.121094"/>
      <use xlink:href="#DejaVuSans-61" x="401.904297"/>
     </g>
    </g>
    <g id="patch_59">
     <path d="M 1483.610233 1399.385937 
L 1503.610233 1399.385937 
L 1503.610233 1392.385937 
L 1483.610233 1392.385937 
z
" style="fill: #4df3ce"/>
    </g>
    <g id="text_98">
     <!-- Bulgaria -->
     <g transform="translate(1511.610233 1399.385937)scale(0.1 -0.1)">
      <use xlink:href="#DejaVuSans-42"/>
      <use xlink:href="#DejaVuSans-75" x="68.603516"/>
      <use xlink:href="#DejaVuSans-6c" x="131.982422"/>
      <use xlink:href="#DejaVuSans-67" x="159.765625"/>
      <use xlink:href="#DejaVuSans-61" x="223.242188"/>
      <use xlink:href="#DejaVuSans-72" x="284.521484"/>
      <use xlink:href="#DejaVuSans-69" x="325.634766"/>
      <use xlink:href="#DejaVuSans-61" x="353.417969"/>
     </g>
    </g>
    <g id="patch_60">
     <path d="M 1483.610233 1414.064062 
L 1503.610233 1414.064062 
L 1503.610233 1407.064062 
L 1483.610233 1407.064062 
z
" style="fill: #58f8c9"/>
    </g>
    <g id="text_99">
     <!-- Cape Verde -->
     <g transform="translate(1511.610233 1414.064062)scale(0.1 -0.1)">
      <use xlink:href="#DejaVuSans-43"/>
      <use xlink:href="#DejaVuSans-61" x="69.824219"/>
      <use xlink:href="#DejaVuSans-70" x="131.103516"/>
      <use xlink:href="#DejaVuSans-65" x="194.580078"/>
      <use xlink:href="#DejaVuSans-20" x="256.103516"/>
      <use xlink:href="#DejaVuSans-56" x="287.890625"/>
      <use xlink:href="#DejaVuSans-65" x="348.548828"/>
      <use xlink:href="#DejaVuSans-72" x="410.072266"/>
      <use xlink:href="#DejaVuSans-64" x="449.435547"/>
      <use xlink:href="#DejaVuSans-65" x="512.912109"/>
     </g>
    </g>
    <g id="patch_61">
     <path d="M 1483.610233 1428.742187 
L 1503.610233 1428.742187 
L 1503.610233 1421.742187 
L 1483.610233 1421.742187 
z
" style="fill: #66fcc2"/>
    </g>
    <g id="text_100">
     <!-- Pakistan -->
     <g transform="translate(1511.610233 1428.742187)scale(0.1 -0.1)">
      <use xlink:href="#DejaVuSans-50"/>
      <use xlink:href="#DejaVuSans-61" x="55.802734"/>
      <use xlink:href="#DejaVuSans-6b" x="117.082031"/>
      <use xlink:href="#DejaVuSans-69" x="174.992188"/>
      <use xlink:href="#DejaVuSans-73" x="202.775391"/>
      <use xlink:href="#DejaVuSans-74" x="254.875"/>
      <use xlink:href="#DejaVuSans-61" x="294.083984"/>
      <use xlink:href="#DejaVuSans-6e" x="355.363281"/>
     </g>
    </g>
    <g id="patch_62">
     <path d="M 1483.610233 1443.420312 
L 1503.610233 1443.420312 
L 1503.610233 1436.420312 
L 1483.610233 1436.420312 
z
" style="fill: #72febb"/>
    </g>
    <g id="text_101">
     <!-- Latvia -->
     <g transform="translate(1511.610233 1443.420312)scale(0.1 -0.1)">
      <use xlink:href="#DejaVuSans-4c"/>
      <use xlink:href="#DejaVuSans-61" x="55.712891"/>
      <use xlink:href="#DejaVuSans-74" x="116.992188"/>
      <use xlink:href="#DejaVuSans-76" x="156.201172"/>
      <use xlink:href="#DejaVuSans-69" x="215.380859"/>
      <use xlink:href="#DejaVuSans-61" x="243.164062"/>
     </g>
    </g>
    <g id="patch_63">
     <path d="M 1483.610233 1458.098437 
L 1503.610233 1458.098437 
L 1503.610233 1451.098437 
L 1483.610233 1451.098437 
z
" style="fill: #80ffb4"/>
    </g>
    <g id="text_102">
     <!-- Slovakia -->
     <g transform="translate(1511.610233 1458.098437)scale(0.1 -0.1)">
      <use xlink:href="#DejaVuSans-53"/>
      <use xlink:href="#DejaVuSans-6c" x="63.476562"/>
      <use xlink:href="#DejaVuSans-6f" x="91.259766"/>
      <use xlink:href="#DejaVuSans-76" x="152.441406"/>
      <use xlink:href="#DejaVuSans-61" x="211.621094"/>
      <use xlink:href="#DejaVuSans-6b" x="272.900391"/>
      <use xlink:href="#DejaVuSans-69" x="330.810547"/>
      <use xlink:href="#DejaVuSans-61" x="358.59375"/>
     </g>
    </g>
    <g id="patch_64">
     <path d="M 1483.610233 1472.776562 
L 1503.610233 1472.776562 
L 1503.610233 1465.776562 
L 1483.610233 1465.776562 
z
" style="fill: #8cfead"/>
    </g>
    <g id="text_103">
     <!-- Israel -->
     <g transform="translate(1511.610233 1472.776562)scale(0.1 -0.1)">
      <use xlink:href="#DejaVuSans-49"/>
      <use xlink:href="#DejaVuSans-73" x="29.492188"/>
      <use xlink:href="#DejaVuSans-72" x="81.591797"/>
      <use xlink:href="#DejaVuSans-61" x="122.705078"/>
      <use xlink:href="#DejaVuSans-65" x="183.984375"/>
      <use xlink:href="#DejaVuSans-6c" x="245.507812"/>
     </g>
    </g>
    <g id="patch_65">
     <path d="M 1483.610233 1487.454687 
L 1503.610233 1487.454687 
L 1503.610233 1480.454687 
L 1483.610233 1480.454687 
z
" style="fill: #99fca6"/>
    </g>
    <g id="text_104">
     <!-- Mauritius -->
     <g transform="translate(1511.610233 1487.454687)scale(0.1 -0.1)">
      <use xlink:href="#DejaVuSans-4d"/>
      <use xlink:href="#DejaVuSans-61" x="86.279297"/>
      <use xlink:href="#DejaVuSans-75" x="147.558594"/>
      <use xlink:href="#DejaVuSans-72" x="210.9375"/>
      <use xlink:href="#DejaVuSans-69" x="252.050781"/>
      <use xlink:href="#DejaVuSans-74" x="279.833984"/>
      <use xlink:href="#DejaVuSans-69" x="319.042969"/>
      <use xlink:href="#DejaVuSans-75" x="346.826172"/>
      <use xlink:href="#DejaVuSans-73" x="410.205078"/>
     </g>
    </g>
    <g id="patch_66">
     <path d="M 1483.610233 1502.132812 
L 1503.610233 1502.132812 
L 1503.610233 1495.132812 
L 1483.610233 1495.132812 
z
" style="fill: #a6f89d"/>
    </g>
    <g id="text_105">
     <!-- Saint Lucia -->
     <g transform="translate(1511.610233 1502.132812)scale(0.1 -0.1)">
      <use xlink:href="#DejaVuSans-53"/>
      <use xlink:href="#DejaVuSans-61" x="63.476562"/>
      <use xlink:href="#DejaVuSans-69" x="124.755859"/>
      <use xlink:href="#DejaVuSans-6e" x="152.539062"/>
      <use xlink:href="#DejaVuSans-74" x="215.917969"/>
      <use xlink:href="#DejaVuSans-20" x="255.126953"/>
      <use xlink:href="#DejaVuSans-4c" x="286.914062"/>
      <use xlink:href="#DejaVuSans-75" x="340.876953"/>
      <use xlink:href="#DejaVuSans-63" x="404.255859"/>
      <use xlink:href="#DejaVuSans-69" x="459.236328"/>
      <use xlink:href="#DejaVuSans-61" x="487.019531"/>
     </g>
    </g>
    <g id="patch_67">
     <path d="M 1483.610233 1516.810937 
L 1503.610233 1516.810937 
L 1503.610233 1509.810937 
L 1483.610233 1509.810937 
z
" style="fill: #b2f396"/>
    </g>
    <g id="text_106">
     <!-- Luxembourg -->
     <g transform="translate(1511.610233 1516.810937)scale(0.1 -0.1)">
      <use xlink:href="#DejaVuSans-4c"/>
      <use xlink:href="#DejaVuSans-75" x="53.962891"/>
      <use xlink:href="#DejaVuSans-78" x="117.341797"/>
      <use xlink:href="#DejaVuSans-65" x="173.396484"/>
      <use xlink:href="#DejaVuSans-6d" x="234.919922"/>
      <use xlink:href="#DejaVuSans-62" x="332.332031"/>
      <use xlink:href="#DejaVuSans-6f" x="395.808594"/>
      <use xlink:href="#DejaVuSans-75" x="456.990234"/>
      <use xlink:href="#DejaVuSans-72" x="520.369141"/>
      <use xlink:href="#DejaVuSans-67" x="559.732422"/>
     </g>
    </g>
    <g id="patch_68">
     <path d="M 1483.610233 1531.489062 
L 1503.610233 1531.489062 
L 1503.610233 1524.489062 
L 1483.610233 1524.489062 
z
" style="fill: #c0eb8d"/>
    </g>
    <g id="text_107">
     <!-- Singapore -->
     <g transform="translate(1511.610233 1531.489062)scale(0.1 -0.1)">
      <use xlink:href="#DejaVuSans-53"/>
      <use xlink:href="#DejaVuSans-69" x="63.476562"/>
      <use xlink:href="#DejaVuSans-6e" x="91.259766"/>
      <use xlink:href="#DejaVuSans-67" x="154.638672"/>
      <use xlink:href="#DejaVuSans-61" x="218.115234"/>
      <use xlink:href="#DejaVuSans-70" x="279.394531"/>
      <use xlink:href="#DejaVuSans-6f" x="342.871094"/>
      <use xlink:href="#DejaVuSans-72" x="404.052734"/>
      <use xlink:href="#DejaVuSans-65" x="442.916016"/>
     </g>
    </g>
    <g id="patch_69">
     <path d="M 1483.610233 1546.167187 
L 1503.610233 1546.167187 
L 1503.610233 1539.167187 
L 1483.610233 1539.167187 
z
" style="fill: #cce385"/>
    </g>
    <g id="text_108">
     <!-- Estonia -->
     <g transform="translate(1511.610233 1546.167187)scale(0.1 -0.1)">
      <use xlink:href="#DejaVuSans-45"/>
      <use xlink:href="#DejaVuSans-73" x="63.183594"/>
      <use xlink:href="#DejaVuSans-74" x="115.283203"/>
      <use xlink:href="#DejaVuSans-6f" x="154.492188"/>
      <use xlink:href="#DejaVuSans-6e" x="215.673828"/>
      <use xlink:href="#DejaVuSans-69" x="279.052734"/>
      <use xlink:href="#DejaVuSans-61" x="306.835938"/>
     </g>
    </g>
    <g id="patch_70">
     <path d="M 1483.610233 1560.845312 
L 1503.610233 1560.845312 
L 1503.610233 1553.845312 
L 1483.610233 1553.845312 
z
" style="fill: #d9da7d"/>
    </g>
    <g id="text_109">
     <!-- Dominican Republic -->
     <g transform="translate(1511.610233 1560.845312)scale(0.1 -0.1)">
      <use xlink:href="#DejaVuSans-44"/>
      <use xlink:href="#DejaVuSans-6f" x="77.001953"/>
      <use xlink:href="#DejaVuSans-6d" x="138.183594"/>
      <use xlink:href="#DejaVuSans-69" x="235.595703"/>
      <use xlink:href="#DejaVuSans-6e" x="263.378906"/>
      <use xlink:href="#DejaVuSans-69" x="326.757812"/>
      <use xlink:href="#DejaVuSans-63" x="354.541016"/>
      <use xlink:href="#DejaVuSans-61" x="409.521484"/>
      <use xlink:href="#DejaVuSans-6e" x="470.800781"/>
      <use xlink:href="#DejaVuSans-20" x="534.179688"/>
      <use xlink:href="#DejaVuSans-52" x="565.966797"/>
      <use xlink:href="#DejaVuSans-65" x="630.949219"/>
      <use xlink:href="#DejaVuSans-70" x="692.472656"/>
      <use xlink:href="#DejaVuSans-75" x="755.949219"/>
      <use xlink:href="#DejaVuSans-62" x="819.328125"/>
      <use xlink:href="#DejaVuSans-6c" x="882.804688"/>
      <use xlink:href="#DejaVuSans-69" x="910.587891"/>
      <use xlink:href="#DejaVuSans-63" x="938.371094"/>
     </g>
    </g>
    <g id="patch_71">
     <path d="M 1483.610233 1575.523438 
L 1503.610233 1575.523438 
L 1503.610233 1568.523438 
L 1483.610233 1568.523438 
z
" style="fill: #e6cd73"/>
    </g>
    <g id="text_110">
     <!-- Libya -->
     <g transform="translate(1511.610233 1575.523438)scale(0.1 -0.1)">
      <use xlink:href="#DejaVuSans-4c"/>
      <use xlink:href="#DejaVuSans-69" x="55.712891"/>
      <use xlink:href="#DejaVuSans-62" x="83.496094"/>
      <use xlink:href="#DejaVuSans-79" x="146.972656"/>
      <use xlink:href="#DejaVuSans-61" x="206.152344"/>
     </g>
    </g>
    <g id="patch_72">
     <path d="M 1483.610233 1590.201562 
L 1503.610233 1590.201562 
L 1503.610233 1583.201562 
L 1483.610233 1583.201562 
z
" style="fill: #f2c26b"/>
    </g>
    <g id="text_111">
     <!-- Kenya -->
     <g transform="translate(1511.610233 1590.201562)scale(0.1 -0.1)">
      <use xlink:href="#DejaVuSans-4b"/>
      <use xlink:href="#DejaVuSans-65" x="60.576172"/>
      <use xlink:href="#DejaVuSans-6e" x="122.099609"/>
      <use xlink:href="#DejaVuSans-79" x="185.478516"/>
      <use xlink:href="#DejaVuSans-61" x="244.658203"/>
     </g>
    </g>
    <g id="patch_73">
     <path d="M 1483.610233 1604.879688 
L 1503.610233 1604.879688 
L 1503.610233 1597.879688 
L 1483.610233 1597.879688 
z
" style="fill: #ffb360"/>
    </g>
    <g id="text_112">
     <!-- Montenegro -->
     <g transform="translate(1511.610233 1604.879688)scale(0.1 -0.1)">
      <use xlink:href="#DejaVuSans-4d"/>
      <use xlink:href="#DejaVuSans-6f" x="86.279297"/>
      <use xlink:href="#DejaVuSans-6e" x="147.460938"/>
      <use xlink:href="#DejaVuSans-74" x="210.839844"/>
      <use xlink:href="#DejaVuSans-65" x="250.048828"/>
      <use xlink:href="#DejaVuSans-6e" x="311.572266"/>
      <use xlink:href="#DejaVuSans-65" x="374.951172"/>
      <use xlink:href="#DejaVuSans-67" x="436.474609"/>
      <use xlink:href="#DejaVuSans-72" x="499.951172"/>
      <use xlink:href="#DejaVuSans-6f" x="538.814453"/>
     </g>
    </g>
    <g id="patch_74">
     <path d="M 1483.610233 1619.557812 
L 1503.610233 1619.557812 
L 1503.610233 1612.557812 
L 1483.610233 1612.557812 
z
" style="fill: #ffa558"/>
    </g>
    <g id="text_113">
     <!-- Macedonia -->
     <g transform="translate(1511.610233 1619.557812)scale(0.1 -0.1)">
      <use xlink:href="#DejaVuSans-4d"/>
      <use xlink:href="#DejaVuSans-61" x="86.279297"/>
      <use xlink:href="#DejaVuSans-63" x="147.558594"/>
      <use xlink:href="#DejaVuSans-65" x="202.539062"/>
      <use xlink:href="#DejaVuSans-64" x="264.0625"/>
      <use xlink:href="#DejaVuSans-6f" x="327.539062"/>
      <use xlink:href="#DejaVuSans-6e" x="388.720703"/>
      <use xlink:href="#DejaVuSans-69" x="452.099609"/>
      <use xlink:href="#DejaVuSans-61" x="479.882812"/>
     </g>
    </g>
    <g id="patch_75">
     <path d="M 1483.610233 1634.235938 
L 1503.610233 1634.235938 
L 1503.610233 1627.235938 
L 1483.610233 1627.235938 
z
" style="fill: #ff964f"/>
    </g>
    <g id="text_114">
     <!-- Philippines -->
     <g transform="translate(1511.610233 1634.235938)scale(0.1 -0.1)">
      <use xlink:href="#DejaVuSans-50"/>
      <use xlink:href="#DejaVuSans-68" x="60.302734"/>
      <use xlink:href="#DejaVuSans-69" x="123.681641"/>
      <use xlink:href="#DejaVuSans-6c" x="151.464844"/>
      <use xlink:href="#DejaVuSans-69" x="179.248047"/>
      <use xlink:href="#DejaVuSans-70" x="207.03125"/>
      <use xlink:href="#DejaVuSans-70" x="270.507812"/>
      <use xlink:href="#DejaVuSans-69" x="333.984375"/>
      <use xlink:href="#DejaVuSans-6e" x="361.767578"/>
      <use xlink:href="#DejaVuSans-65" x="425.146484"/>
      <use xlink:href="#DejaVuSans-73" x="486.669922"/>
     </g>
    </g>
    <g id="patch_76">
     <path d="M 1483.610233 1648.914062 
L 1503.610233 1648.914062 
L 1503.610233 1641.914062 
L 1483.610233 1641.914062 
z
" style="fill: #ff8444"/>
    </g>
    <g id="text_115">
     <!-- Bahamas -->
     <g transform="translate(1511.610233 1648.914062)scale(0.1 -0.1)">
      <use xlink:href="#DejaVuSans-42"/>
      <use xlink:href="#DejaVuSans-61" x="68.603516"/>
      <use xlink:href="#DejaVuSans-68" x="129.882812"/>
      <use xlink:href="#DejaVuSans-61" x="193.261719"/>
      <use xlink:href="#DejaVuSans-6d" x="254.541016"/>
      <use xlink:href="#DejaVuSans-61" x="351.953125"/>
      <use xlink:href="#DejaVuSans-73" x="413.232422"/>
     </g>
    </g>
    <g id="patch_77">
     <path d="M 1483.610233 1663.592188 
L 1503.610233 1663.592188 
L 1503.610233 1656.592188 
L 1483.610233 1656.592188 
z
" style="fill: #ff733b"/>
    </g>
    <g id="text_116">
     <!-- Uzbekistan -->
     <g transform="translate(1511.610233 1663.592188)scale(0.1 -0.1)">
      <use xlink:href="#DejaVuSans-55"/>
      <use xlink:href="#DejaVuSans-7a" x="73.193359"/>
      <use xlink:href="#DejaVuSans-62" x="125.683594"/>
      <use xlink:href="#DejaVuSans-65" x="189.160156"/>
      <use xlink:href="#DejaVuSans-6b" x="250.683594"/>
      <use xlink:href="#DejaVuSans-69" x="308.59375"/>
      <use xlink:href="#DejaVuSans-73" x="336.376953"/>
      <use xlink:href="#DejaVuSans-74" x="388.476562"/>
      <use xlink:href="#DejaVuSans-61" x="427.685547"/>
      <use xlink:href="#DejaVuSans-6e" x="488.964844"/>
     </g>
    </g>
    <g id="patch_78">
     <path d="M 1483.610233 1678.270313 
L 1503.610233 1678.270313 
L 1503.610233 1671.270313 
L 1483.610233 1671.270313 
z
" style="fill: #ff5f30"/>
    </g>
    <g id="text_117">
     <!-- Trinidad and Tobago -->
     <g transform="translate(1511.610233 1678.270313)scale(0.1 -0.1)">
      <use xlink:href="#DejaVuSans-54"/>
      <use xlink:href="#DejaVuSans-72" x="46.333984"/>
      <use xlink:href="#DejaVuSans-69" x="87.447266"/>
      <use xlink:href="#DejaVuSans-6e" x="115.230469"/>
      <use xlink:href="#DejaVuSans-69" x="178.609375"/>
      <use xlink:href="#DejaVuSans-64" x="206.392578"/>
      <use xlink:href="#DejaVuSans-61" x="269.869141"/>
      <use xlink:href="#DejaVuSans-64" x="331.148438"/>
      <use xlink:href="#DejaVuSans-20" x="394.625"/>
      <use xlink:href="#DejaVuSans-61" x="426.412109"/>
      <use xlink:href="#DejaVuSans-6e" x="487.691406"/>
      <use xlink:href="#DejaVuSans-64" x="551.070312"/>
      <use xlink:href="#DejaVuSans-20" x="614.546875"/>
      <use xlink:href="#DejaVuSans-54" x="646.333984"/>
      <use xlink:href="#DejaVuSans-6f" x="690.417969"/>
      <use xlink:href="#DejaVuSans-62" x="751.599609"/>
      <use xlink:href="#DejaVuSans-61" x="815.076172"/>
      <use xlink:href="#DejaVuSans-67" x="876.355469"/>
      <use xlink:href="#DejaVuSans-6f" x="939.832031"/>
     </g>
    </g>
    <g id="patch_79">
     <path d="M 1483.610233 1692.948438 
L 1503.610233 1692.948438 
L 1503.610233 1685.948438 
L 1483.610233 1685.948438 
z
" style="fill: #ff4d27"/>
    </g>
    <g id="text_118">
     <!-- Albania -->
     <g transform="translate(1511.610233 1692.948438)scale(0.1 -0.1)">
      <use xlink:href="#DejaVuSans-41"/>
      <use xlink:href="#DejaVuSans-6c" x="68.408203"/>
      <use xlink:href="#DejaVuSans-62" x="96.191406"/>
      <use xlink:href="#DejaVuSans-61" x="159.667969"/>
      <use xlink:href="#DejaVuSans-6e" x="220.947266"/>
      <use xlink:href="#DejaVuSans-69" x="284.326172"/>
      <use xlink:href="#DejaVuSans-61" x="312.109375"/>
     </g>
    </g>
    <g id="patch_80">
     <path d="M 1483.610233 1707.626563 
L 1503.610233 1707.626563 
L 1503.610233 1700.626563 
L 1483.610233 1700.626563 
z
" style="fill: #ff3b1e"/>
    </g>
    <g id="text_119">
     <!-- Maldives -->
     <g transform="translate(1511.610233 1707.626563)scale(0.1 -0.1)">
      <use xlink:href="#DejaVuSans-4d"/>
      <use xlink:href="#DejaVuSans-61" x="86.279297"/>
      <use xlink:href="#DejaVuSans-6c" x="147.558594"/>
      <use xlink:href="#DejaVuSans-64" x="175.341797"/>
      <use xlink:href="#DejaVuSans-69" x="238.818359"/>
      <use xlink:href="#DejaVuSans-76" x="266.601562"/>
      <use xlink:href="#DejaVuSans-65" x="325.78125"/>
      <use xlink:href="#DejaVuSans-73" x="387.304688"/>
     </g>
    </g>
    <g id="patch_81">
     <path d="M 1483.610233 1722.304688 
L 1503.610233 1722.304688 
L 1503.610233 1715.304688 
L 1483.610233 1715.304688 
z
" style="fill: #ff2613"/>
    </g>
    <g id="text_120">
     <!-- Belarus -->
     <g transform="translate(1511.610233 1722.304688)scale(0.1 -0.1)">
      <use xlink:href="#DejaVuSans-42"/>
      <use xlink:href="#DejaVuSans-65" x="68.603516"/>
      <use xlink:href="#DejaVuSans-6c" x="130.126953"/>
      <use xlink:href="#DejaVuSans-61" x="157.910156"/>
      <use xlink:href="#DejaVuSans-72" x="219.189453"/>
      <use xlink:href="#DejaVuSans-75" x="260.302734"/>
      <use xlink:href="#DejaVuSans-73" x="323.681641"/>
     </g>
    </g>
    <g id="patch_82">
     <path d="M 1483.610233 1736.982813 
L 1503.610233 1736.982813 
L 1503.610233 1729.982813 
L 1483.610233 1729.982813 
z
" style="fill: #ff1309"/>
    </g>
    <g id="text_121">
     <!-- Oman -->
     <g transform="translate(1511.610233 1736.982813)scale(0.1 -0.1)">
      <use xlink:href="#DejaVuSans-4f"/>
      <use xlink:href="#DejaVuSans-6d" x="78.710938"/>
      <use xlink:href="#DejaVuSans-61" x="176.123047"/>
      <use xlink:href="#DejaVuSans-6e" x="237.402344"/>
     </g>
    </g>
   </g>
  </g>
 </g>
</svg>
